<?xml version="1.0" encoding="UTF-8" standalone="no"?>
<svg
   width="200"
   height="200"
   viewBox="0 0 200 200"
   version="1.1"
   id="svg8"
   inkscape:version="1.2.1 (9c6d41e410, 2022-07-14)"
   sodipodi:docname="moonlight.svg"
   inkscape:export-filename="../../moonlight-qt-SGS.png"
   inkscape:export-xdpi="96"
   inkscape:export-ydpi="96"
   xml:space="preserve"
   xmlns:inkscape="http://www.inkscape.org/namespaces/inkscape"
   xmlns:sodipodi="http://sodipodi.sourceforge.net/DTD/sodipodi-0.dtd"
   xmlns:xlink="http://www.w3.org/1999/xlink"
   xmlns="http://www.w3.org/2000/svg"
   xmlns:svg="http://www.w3.org/2000/svg"
   xmlns:rdf="http://www.w3.org/1999/02/22-rdf-syntax-ns#"
   xmlns:cc="http://creativecommons.org/ns#"
   xmlns:dc="http://purl.org/dc/elements/1.1/"><defs
     id="defs2"><linearGradient
       inkscape:collect="always"
       id="linearGradient1760"><stop
         style="stop-color:#ff5c86;stop-opacity:1;"
         offset="0"
         id="stop1756" /><stop
         style="stop-color:#6d96f8;stop-opacity:1;"
         offset="0.5"
         id="stop3944" /><stop
         style="stop-color:#f37c42;stop-opacity:1;"
         offset="1"
         id="stop1758" /></linearGradient><linearGradient
       inkscape:collect="always"
       xlink:href="#linearGradient1760"
       id="linearGradient1002"
       x1="99.145752"
       y1="9.0229521"
       x2="99.145752"
       y2="191.70518"
       gradientUnits="userSpaceOnUse"
       gradientTransform="matrix(-1,0,0,1,200,0)" /></defs><sodipodi:namedview
     id="base"
     pagecolor="#0a0a0a"
     bordercolor="#701717"
     borderopacity="1"
     inkscape:pageopacity="0"
     inkscape:pageshadow="2"
     inkscape:zoom="2.8"
     inkscape:cx="127.14286"
     inkscape:cy="94.285714"
     inkscape:document-units="px"
     inkscape:current-layer="layer1"
     inkscape:document-rotation="0"
     showgrid="false"
     inkscape:pagecheckerboard="true"
     borderlayer="true"
     inkscape:showpageshadow="false"
     units="px"
     inkscape:window-width="1909"
     inkscape:window-height="2108"
     inkscape:window-x="1920"
     inkscape:window-y="-3"
     inkscape:window-maximized="0"
     width="1920px"
     inkscape:snap-global="false"
     inkscape:deskcolor="#0a0a0a"
     inkscape:lockguides="false" /><metadata
     id="metadata5"><rdf:RDF><cc:Work
         rdf:about=""><dc:format>image/svg+xml</dc:format><dc:type
           rdf:resource="http://purl.org/dc/dcmitype/StillImage" /></cc:Work></rdf:RDF></metadata><g
     inkscape:label="Ebene 1"
     inkscape:groupmode="layer"
     id="layer1"><path
       id="circle944"
       style="opacity:1;fill:url(#linearGradient1002);fill-opacity:1;fill-rule:evenodd;stroke-width:0;stroke-linecap:round;paint-order:stroke markers fill;stop-color:#000000"
       d="M 100,8.486329 A 91.514542,91.514542 0 0 1 191.51367,99.999999 91.514542,91.514542 0 0 1 100,191.51367 91.514542,91.514542 0 0 1 8.48633,99.999999 91.514542,91.514542 0 0 1 100,8.486329 Z M 97.55469,31.656251 A 68.4114,68.4114 0 0 0 53.55273,50.078126 l 44.00196,44.001953 z m 5.44726,0.167969 V 94.080079 L 146.80078,50.281251 A 68.4114,68.4114 0 0 0 103.00195,31.82422 Z M 49.71094,53.941407 A 68.4114,68.4114 0 0 0 31.64648,97.933599 h 62.05664 z m 100.87109,0.265625 -43.72656,43.726567 H 168.25 A 68.4114,68.4114 0 0 0 150.58203,54.207032 Z m 17.56445,49.173828 h -61.29101 l 42.93164,42.93164 a 68.4114,68.4114 0 0 0 18.35937,-42.93164 z m -74.44336,0 H 31.68164 a 68.4114,68.4114 0 0 0 18.52539,43.49609 z m 9.29883,3.85156 v 60.94336 a 68.4114,68.4114 0 0 0 42.92187,-18.02148 z m -5.44726,0 -43.46875,43.46875 a 68.4114,68.4114 0 0 0 43.46875,17.64258 z" /></g></svg>
