<svg height="48pt" viewBox="0 0 48 48" width="48pt" xmlns="http://www.w3.org/2000/svg" xmlns:xlink="http://www.w3.org/1999/xlink"><linearGradient id="a" gradientUnits="userSpaceOnUse" x1="4" x2="44" y1="24" y2="24"><stop offset="0" stop-color="#5433ff"/><stop offset=".51739130435" stop-color="#20bdff"/><stop offset=".98260869565" stop-color="#a5fecb"/></linearGradient><path d="m23.997 4.001c-1.781 4.365-2.855 7.22-4.838 11.455 1.216 1.288 2.708 2.788 5.131 4.483-2.605-1.072-4.382-2.148-5.71-3.265-2.537 5.294-6.513 12.834-14.58 27.326 6.341-3.66 10.756-5.916 15.336-6.777-.196-.846-.308-1.761-.3-2.715l.007-.203c.1-4.062 2.758-7.3 5.216-7.305 2.459-.006 4.85 4.011 4.749 8.072-.019.764-.105 1.499-.256 2.181 4.531.886 8.993 3.137 15.248 6.747-1.233-2.27-2.334-4.316-3.385-6.265-1.656-1.284-3.383-2.954-6.907-4.762 2.422.63 4.156 1.355 5.507 2.167-10.688-19.896-11.553-22.54-15.219-31.14" fill="url(#a)" fill-rule="evenodd"/></svg>