<svg height="48pt" viewBox="0 0 48 48" width="48pt" xmlns="http://www.w3.org/2000/svg" xmlns:xlink="http://www.w3.org/1999/xlink"><linearGradient id="a" gradientTransform="matrix(39.648 1.611 -1.395 34.343 1.338 3.405)" gradientUnits="userSpaceOnUse" x1=".065538" x2=".998889" y1=".881389" y2=".493536"><stop offset="0" stop-color="#f8ab95"/><stop offset=".4875" stop-color="#f17dad"/><stop offset=".98333333333" stop-color="#ee73c8"/></linearGradient><linearGradient id="b" gradientTransform="matrix(42.382 0 0 38 4.499 4.5)" gradientUnits="userSpaceOnUse" x1=".376072" x2=".949536" y1=".235186" y2=".971951"><stop offset="0" stop-color="#c751fb"/><stop offset=".975" stop-color="#6d44de"/></linearGradient><g fill-rule="evenodd"><path d="m27.729 5.664c1.702 2.711 3.961 5.465 5.458 8.288 1.884 3.629 3.574 7.361 5.06 11.164.455 1.12.819 2.265 1.092 3.437.231.951.332 1.926.313 2.896-.017 1.15-.363 2.267-.992 3.232-.627.875-1.485 1.571-2.474 2.001-1.028.439-2.101.725-3.207.851-1.247.159-2.511.228-3.772.217l-2.783.027c-2.584.045-5.166.03-7.744-.055-2.468-.1-4.932-.31-7.381-.64-2.986-.401-5.946-.952-8.87-1.651-.515-.121-.93-.509-1.089-1.015-.15-.497-.038-1.043.308-1.439l23.687-27.511c.315-.347.783-.538 1.252-.499s.898.297 1.142.697zm-1.835 3.288c1.276 2.104 3.491 4.235 4.634 6.393 1.838 3.537 3.482 7.167 4.932 10.889.4.977.72 1.991.958 3.011.172.708.252 1.432.233 2.152-.003.56-.165 1.114-.465 1.592-.307.408-.72.731-1.189.943-.754.319-1.553.527-2.377.624-1.127.144-2.261.208-3.391.192-.01 0-.02-.001-.03-.001l-2.813.026s-.01-.001-.01-.001c-2.534.047-5.056.035-7.585-.048-2.378-.096-4.741-.302-7.1-.618-2.051-.274-4.088-.627-6.113-1.05z" fill="url(#a)"/><path d="m27.96 4.85c1.48 1.23 2.87 2.55 4.18 3.96 1.45 1.55 2.81 3.18 4.1 4.88 1.43 1.88 2.78 3.82 4.05 5.82 1.41 2.21 2.75 4.46 4.02 6.76.77 1.35 1.41 2.77 1.92 4.24.4 1.15.62 2.35.65 3.57.02 1.16-.26 2.31-.83 3.32-.56.93-1.34 1.72-2.28 2.27-.95.57-1.98.98-3.06 1.24-1.18.29-2.38.49-3.58.58-4.16.36-8.33.58-12.51.68-6.2.16-12.4.27-18.6.33-.55.01-1.05-.28-1.32-.75s-.27-1.06.01-1.52l21-35c.23-.38.61-.64 1.04-.71s.87.05 1.21.33zm-.59 3.46c.89.81 1.75 1.66 2.57 2.54 1.38 1.48 2.68 3.04 3.91 4.65 1.38 1.82 2.68 3.7 3.91 5.62 1.38 2.16 2.69 4.37 3.93 6.61.69 1.2 1.26 2.46 1.7 3.76.31.85.47 1.75.49 2.65.01.62-.14 1.22-.43 1.76-.3.49-.71.9-1.2 1.19-.7.41-1.46.72-2.25.9-1.02.26-2.07.43-3.13.52-4.09.35-8.2.57-12.32.66-5.29.13-10.59.23-15.88.3z" fill="url(#b)"/></g></svg>