<?xml version="1.0" encoding="UTF-8"?>
<!-- Created with Inkscape (http://www.inkscape.org/) -->
<svg width="64" height="64" version="1.1" viewBox="0 0 16.933 16.933" xmlns="http://www.w3.org/2000/svg" xmlns:xlink="http://www.w3.org/1999/xlink">
 <defs>
  <linearGradient id="linearGradient107337" x1="157.33" x2="247.31" y1="69.985" y2="69.985" gradientTransform="matrix(.18242 0 0 .18242 -36.026 -5.3037)" gradientUnits="userSpaceOnUse">
   <stop stop-color="#2e3440" offset="0"/>
   <stop stop-color="#4c566a" offset="1"/>
  </linearGradient>
  <linearGradient id="linearGradient20148" x1="6.4593" x2="6.4593" y1="3.7277" y2="14.622" gradientTransform="translate(-7.585 -1.0032)" gradientUnits="userSpaceOnUse">
   <stop stop-color="#515b71" offset="0"/>
   <stop stop-color="#21262e" offset="1"/>
  </linearGradient>
  <linearGradient id="linearGradient20080" x1=".70715" x2=".70715" y1="14.743" y2="3.5389" gradientTransform="matrix(1.0116 0 0 1.0116 -3.7513 -1.1015)" gradientUnits="userSpaceOnUse">
   <stop stop-color="#232323" offset="0"/>
   <stop stop-color="#232323" stop-opacity="0" offset=".1"/>
   <stop stop-color="#07effe" stop-opacity="0" offset="1"/>
  </linearGradient>
 </defs>
 <g transform="translate(7.585 1.0033)" fill-rule="evenodd" stroke-width=".18242">
  <g>
   <rect x="-7.3256" y="1.1134" width="16.414" height="12.7" ry="1.0441" fill="url(#linearGradient107337)" style="paint-order:stroke fill markers"/>
   <rect x="-6.781" y="2.0324" width="15.325" height="11.78" ry=".58446" fill="#2e3440" style="paint-order:stroke fill markers"/>
   <rect x="-6.781" y="2.95" width="15.325" height="10.863" ry=".53895" fill="#3b4252" style="paint-order:stroke fill markers"/>
   <rect x="-6.781" y="3.8176" width="15.325" height="9.9952" ry=".4959" fill="#d8dee9" style="paint-order:stroke fill markers"/>
   <path d="m-6.6271 2.4144c-0.38562 0-0.71767 0.31409-0.69599 0.70296 0 3.2635 7e-3 6.5019 7e-3 9.791 0.03005 0.5002 0.39916 0.90463 0.89531 0.90463h14.585c0.49615 0 0.92161-0.40352 0.92163-0.90463l1.53e-4 -4.4885c0-0.063662 7.3e-4 -0.11954 7.3e-4 -0.18349v-2.9084c0-0.053516-0.0054-0.10566-0.01551-0.15606-0.01017-0.050398-0.02514-0.099108-0.04445-0.14537-0.01931-0.04626-0.04275-0.090016-0.07021-0.13111-0.02745-0.041099-0.05891-0.07945-0.09348-0.11437-0.034624-0.034919-0.072584-0.066697-0.11328-0.094418-0.0407-0.027721-0.08401-0.051401-0.12982-0.070902-0.04579-0.019501-0.09403-0.034633-0.14393-0.044892-0.04989-0.010262-0.10152-0.015678-0.15451-0.015678h-6.99c-0.04704 0-0.09355-0.00246-0.13934-0.00712-0.04578-0.00467-0.0908-0.011559-0.13511-0.02067-0.0443-0.00911-0.08793-0.020167-0.13052-0.033491-0.04259-0.013326-0.08421-0.029004-0.12487-0.046319-0.04066-0.017314-0.08037-0.036287-0.11888-0.057363-0.03851-0.021077-0.07605-0.044153-0.11218-0.068764-0.03613-0.024612-0.07089-0.050819-0.10442-0.078741-0.03353-0.027921-0.06561-0.057357-0.0963-0.088361-0.0307-0.031004-0.05984-0.063763-0.08749-0.097624-0.02764-0.033861-0.05395-0.068972-0.07831-0.10546-0.02437-0.03649-0.04686-0.07405-0.06773-0.11295-0.02087-0.038894-0.04-0.079-0.05715-0.12007-0.01715-0.041071-0.03232-0.083106-0.04551-0.12613-0.01319-0.043022-0.02449-0.087083-0.03351-0.13183-9e-3 -0.044746-0.01584-0.090217-0.02046-0.13646-0.0045-0.04485-0.0069-0.090409-0.0071-0.13646 0-0.053516-0.0054-0.10566-0.01551-0.15606-0.01016-0.050398-0.02514-0.099109-0.04445-0.14537-0.0193-0.046258-0.04275-0.090016-0.0702-0.13111-0.02745-0.041099-0.05891-0.07945-0.09348-0.11437-0.03457-0.034921-0.07254-0.066697-0.11324-0.094418-0.04069-0.027721-0.08402-0.051401-0.12982-0.070902-0.0458-0.019501-0.09403-0.034633-0.14393-0.044893-0.0499-0.010262-0.10152-0.015678-0.15451-0.015678h-3.4319z" fill="url(#linearGradient20148)" opacity=".8" style="paint-order:stroke fill markers"/>
  </g>
  <path d="m-6.6271 2.4144c-0.38562 0-0.71767 0.31409-0.69599 0.70296 0 3.2635 7e-3 6.5019 7e-3 9.791 0.03005 0.5002 0.39916 0.90463 0.89531 0.90463h14.585c0.49615 0 0.92161-0.40352 0.92163-0.90463l1.53e-4 -4.4885c0-0.063662 7.3e-4 -0.11954 7.3e-4 -0.18349v-2.9084c0-0.053516-0.0054-0.10566-0.01551-0.15606-0.01017-0.050398-0.02514-0.099108-0.04445-0.14537-0.01931-0.04626-0.04275-0.090016-0.07021-0.13111-0.02745-0.041099-0.05891-0.07945-0.09348-0.11437-0.03462-0.034919-0.07258-0.066697-0.11328-0.094418-0.0407-0.027721-0.08401-0.051401-0.12982-0.070902-0.04579-0.019501-0.09403-0.034633-0.14393-0.044892-0.04989-0.010262-0.10152-0.015678-0.15451-0.015678h-6.99c-0.04704 0-0.09356-0.00246-0.13934-0.00712-0.04578-0.00467-0.0908-0.011559-0.13511-0.02067-0.0443-0.00911-0.08792-0.020167-0.13052-0.033491-0.04259-0.013326-0.08421-0.029004-0.12487-0.046319-0.04066-0.017314-0.08037-0.036287-0.11888-0.057363-0.03851-0.021077-0.07605-0.044153-0.11218-0.068764-0.03613-0.024612-0.07089-0.050819-0.10442-0.078741-0.03353-0.027921-0.06561-0.057357-0.0963-0.088361-0.0307-0.031004-0.05984-0.063763-0.08749-0.097624-0.02764-0.033861-0.05395-0.068972-0.07831-0.10546-0.02437-0.03649-0.04686-0.07405-0.06773-0.11295-0.02087-0.038894-0.04-0.079-0.05715-0.12007-0.01715-0.041071-0.03231-0.083106-0.0455-0.12613-0.01319-0.043022-0.02449-0.087083-0.03351-0.13183-9e-3 -0.044746-0.01583-0.090217-0.02046-0.13646-0.0045-0.04485-0.0069-0.090409-0.0071-0.13646 0-0.053516-0.0054-0.10566-0.01551-0.15606-0.01016-0.050398-0.02514-0.099108-0.04445-0.14537-0.01931-0.046258-0.04275-0.090016-0.0702-0.13111-0.02745-0.041099-0.05891-0.07945-0.09348-0.11437-0.03457-0.034921-0.07254-0.066697-0.11324-0.094418-0.04069-0.027721-0.08402-0.051401-0.12982-0.070902-0.0458-0.019501-0.09403-0.034633-0.14393-0.044893-0.0499-0.010262-0.10152-0.015678-0.15451-0.015678h-3.4319z" fill="url(#linearGradient20080)" opacity=".8" style="paint-order:stroke fill markers"/>
 </g>
 <path d="m12.408 7.9372c-0.52915 0.48353-0.93665 1.0701-1.1951 1.7209 0.07906 0.079063 0.13037 0.18291 0.14555 0.29848 0.16117 0.054738 0.32839 0.09733 0.49869 0.12774 0.05778-0.75419 0.28311-1.481 0.65715-2.1348-0.03646-0.00303-0.07279-0.00923-0.10625-0.012283zm-0.60249 0.012283c-0.75724 0.10643-1.4172 0.5378-1.8339 1.146 0.18855 0.18855 0.39584 0.35573 0.61784 0.49562 0.0669-0.042559 0.14581-0.069445 0.23399-0.075541 0.22504-0.57476 0.55932-1.1039 0.98204-1.5661zm1.4537 0.21864c-0.0882 0.30715-0.12764 0.62649-0.12467 0.9458 3e-3 0.22502 0.02748 0.44431 0.07308 0.66022 0.14903 0.00304 0.28278 0.072929 0.37402 0.1824 0.3467-0.11858 0.67539-0.28901 0.97037-0.51405-0.2676-0.55957-0.73022-1.0128-1.2928-1.2744zm-0.45939 0.12467c-0.30106 0.5626-0.48014 1.1892-0.52879 1.8369 0.06996 0.0061 0.14315 0.0061 0.21311 0.0061 0.07906 0 0.15492-0.0031 0.23399-0.0092 0.01824-0.06685 0.05451-0.13068 0.10011-0.18237-0.06385-0.26764-0.09714-0.54754-0.10011-0.83034-3e-3 -0.27978 0.0239-0.55655 0.08168-0.82113zm-3.0438 1.1829c-0.15813 0.33753-0.24321 0.70888-0.24321 1.1012 0 0.03955 9.94e-5 0.08205 0.00306 0.1216 0.29498 0.24937 0.61377 0.45915 0.95133 0.62337 3e-3 -0.30411 0.03373-0.60845 0.09151-0.90342-0.12468-0.09124-0.2039-0.2399-0.2039-0.40411 0-0.024325 0.0032-0.045689 0.0061-0.070014-0.21591-0.1338-0.41943-0.29224-0.60494-0.4686zm4.9538 0.37402c-0.31625 0.222-0.66009 0.39237-1.025 0.51098-0.02128 0.11252-0.07877 0.21012-0.15784 0.28313 0.17335 0.32234 0.3982 0.61416 0.67189 0.86658 0.17636-0.06689 0.34989-0.14582 0.52019-0.23706 0.06084-0.222 0.09397-0.45622 0.09397-0.69645 0-0.25241-0.03625-0.49603-0.10318-0.72716zm-3.4792 0.50484c-0.06996 0.07602-0.16377 0.13103-0.26716 0.15231-0.06084 0.32542-0.08838 0.65982-0.07923 0.99739 0.3102 0.11858 0.63266 0.20374 0.95808 0.25242 0.03038-0.05779 0.07298-0.10976 0.12467-0.15231-0.07907-0.35884-0.1217-0.72653-0.12467-1.1006-0.20985-0.03346-0.41406-0.08537-0.6117-0.14924zm1.5452 0.18548c-0.0973 0.0091-0.19442 0.01228-0.29172 0.01228h-6.14e-4c-0.07301 0-0.1487-4.5e-5 -0.22171-0.0061 3e-3 0.32539 0.04246 0.64482 0.11239 0.95501 0.1703 0.02737 0.31322 0.14588 0.37709 0.30708 0.33757-0.01522 0.6751-0.06657 1.0035-0.15477-0.25546-0.26455-0.46839-0.56268-0.63565-0.88806-0.14294-0.02432-0.2673-0.10678-0.34331-0.2254zm-3.1598 0.7634c0.16726 0.5778 0.52918 1.08 1.0097 1.4236-0.0821-0.30715-0.131-0.62092-0.14924-0.9372-0.29803-0.1338-0.58978-0.29483-0.86043-0.48641zm1.2928 0.65407c0.0365 0.36798 0.12167 0.72682 0.25242 1.0705 0.3102 0.12771 0.6477 0.20083 1.0005 0.20083 0.15813 1e-6 0.31285-0.01561 0.46185-0.04299-0.13986-0.21896-0.26137-0.45006-0.36174-0.68724-0.20677-0.0091-0.38025-0.14001-0.45018-0.3255-0.30411-0.04259-0.6078-0.1152-0.90281-0.21557zm3.2053 0.02395c-0.45009 0.14598-0.9123 0.22555-1.3806 0.24382-0.02131 0.04256-0.04884 0.08511-0.0823 0.11853 0.10951 0.25546 0.24044 0.49848 0.39552 0.72962 0.50787-0.18245 0.94516-0.51702 1.2584-0.94887-0.06387-0.0456-0.12713-0.09137-0.191-0.1431z" fill="#fbfbfb" fill-rule="evenodd" opacity=".8" stroke-linecap="round" stroke-linejoin="round" stroke-opacity=".76863" stroke-width=".18993" style="paint-order:stroke fill markers"/>
</svg>
