<?xml version="1.0" encoding="UTF-8"?>
<svg width="64" height="64" version="1.1" xmlns="http://www.w3.org/2000/svg" xmlns:cc="http://creativecommons.org/ns#" xmlns:dc="http://purl.org/dc/elements/1.1/" xmlns:rdf="http://www.w3.org/1999/02/22-rdf-syntax-ns#" xmlns:xlink="http://www.w3.org/1999/xlink">
 <metadata>
  <rdf:RDF>
   <cc:Work rdf:about="">
    <dc:format>image/svg+xml</dc:format>
    <dc:type rdf:resource="http://purl.org/dc/dcmitype/StillImage"/>
   </cc:Work>
  </rdf:RDF>
 </metadata>
 <defs>
  <style type="text/css"/>
  <style type="text/css"/>
  <style type="text/css"/>
  <style type="text/css"/>
  <style id="current-color-scheme" type="text/css">.ColorScheme-Text {
        color:#4d4d4d;
      }</style>
  <style type="text/css">.ColorScheme-Text {
        color:#4d4d4d;
      }</style>
  <linearGradient id="linearGradient107337" x1="157.33" x2="247.31" y1="69.985" y2="69.985" gradientTransform="matrix(.68948 0 0 .68948 -180.65 -13.545)" gradientUnits="userSpaceOnUse">
   <stop stop-color="#2e3440" offset="0"/>
   <stop stop-color="#4c566a" offset="1"/>
  </linearGradient>
  <linearGradient id="linearGradient20148" x1="6.4593" x2="6.4593" y1="3.7277" y2="14.622" gradientTransform="matrix(3.7796 0 0 3.7796 -73.149 2.7095)" gradientUnits="userSpaceOnUse">
   <stop stop-color="#515b71" offset="0"/>
   <stop stop-color="#21262e" offset="1"/>
  </linearGradient>
  <linearGradient id="linearGradient20080" x1=".70715" x2=".70715" y1="14.743" y2="3.5389" gradientTransform="matrix(3.8234 0 0 3.8234 -58.659 2.338)" gradientUnits="userSpaceOnUse">
   <stop stop-color="#232323" offset="0"/>
   <stop stop-color="#232323" stop-opacity="0" offset=".1"/>
   <stop stop-color="#07effe" stop-opacity="0" offset="1"/>
  </linearGradient>
 </defs>
 <g transform="translate(73.148 -2.7092)" fill-rule="evenodd" stroke-width=".68948">
  <g>
   <rect x="-72.168" y="10.709" width="62.039" height="48" ry="3.9462" fill="url(#linearGradient107337)" style="paint-order:stroke fill markers"/>
   <rect x="-70.11" y="14.183" width="57.921" height="44.524" ry="2.209" fill="#2e3440" style="paint-order:stroke fill markers"/>
   <rect x="-70.11" y="17.651" width="57.921" height="41.056" ry="2.037" fill="#3b4252" style="paint-order:stroke fill markers"/>
   <rect x="-70.11" y="20.93" width="57.921" height="37.778" ry="1.8743" fill="#d8dee9" style="paint-order:stroke fill markers"/>
   <path d="m-69.528 15.627c-1.4575 0-2.7125 1.1871-2.6306 2.6569 0 12.335 0.02646 24.574 0.02646 37.006 0.11358 1.8905 1.5087 3.4192 3.3839 3.4192h55.126c1.8752 0 3.4833-1.5251 3.4834-3.4192l5.79e-4 -16.965c0-0.24062 0.0028-0.45182 0.0028-0.69354v-10.992c0-0.20227-0.02041-0.39936-0.05862-0.58984-0.03844-0.19048-0.09502-0.37459-0.168-0.54943-0.07298-0.17484-0.16158-0.34022-0.26537-0.49556-0.10375-0.15534-0.22266-0.30029-0.35332-0.43228-0.13086-0.13198-0.27434-0.25209-0.42816-0.35686-0.15383-0.10477-0.31752-0.19428-0.49066-0.26798-0.17307-0.07371-0.3554-0.1309-0.544-0.16967-0.18856-0.03879-0.38372-0.05926-0.58399-0.05926h-26.42c-0.17779 0-0.35358-0.0093-0.52664-0.02691-0.17303-0.01765-0.34319-0.04369-0.51066-0.07813-0.16744-0.03443-0.33234-0.07622-0.4933-0.12658-0.16097-0.05037-0.31828-0.10962-0.47197-0.17507-0.15368-0.06544-0.30377-0.13715-0.44933-0.21681-0.14555-0.07966-0.28744-0.16688-0.42398-0.2599-0.13656-0.09302-0.26794-0.19208-0.39466-0.29761-0.12673-0.10553-0.24798-0.21679-0.36398-0.33397-0.11603-0.11718-0.22617-0.241-0.33068-0.36898-0.10447-0.12798-0.20391-0.26069-0.29598-0.39859-0.09211-0.13792-0.17711-0.27988-0.25599-0.42689-0.07888-0.147-0.15118-0.29859-0.216-0.4538-0.06482-0.15523-0.12216-0.31411-0.17201-0.47671-0.04985-0.16261-0.09256-0.32914-0.12665-0.49827-0.03402-0.16912-0.05987-0.34098-0.07733-0.51578-0.01701-0.16952-0.02608-0.34171-0.02683-0.51578 0-0.20227-0.02041-0.39936-0.05862-0.58984-0.0384-0.19048-0.09502-0.37459-0.168-0.54943-0.07295-0.17484-0.16158-0.34022-0.26533-0.49556-0.10375-0.15534-0.22266-0.30029-0.35332-0.43228-0.13066-0.13199-0.27417-0.25209-0.428-0.35686-0.15379-0.10477-0.31756-0.19428-0.49066-0.26798-0.17311-0.07371-0.3554-0.1309-0.544-0.16968-0.1886-0.03879-0.38372-0.05926-0.58399-0.05926h-12.971z" fill="url(#linearGradient20148)" opacity=".8" style="paint-order:stroke fill markers"/>
  </g>
  <path d="m-69.528 15.627c-1.4575 0-2.7125 1.1871-2.6306 2.6569 0 12.335 0.02646 24.574 0.02646 37.006 0.11358 1.8905 1.5087 3.4192 3.3839 3.4192h55.126c1.8752 0 3.4833-1.5251 3.4834-3.4192l5.79e-4 -16.965c0-0.24062 0.0028-0.45182 0.0028-0.69354v-10.992c0-0.20227-0.02041-0.39936-0.05862-0.58984-0.03844-0.19048-0.09502-0.37459-0.168-0.54943-0.07298-0.17484-0.16158-0.34022-0.26537-0.49556-0.10375-0.15534-0.22266-0.30029-0.35332-0.43228-0.13085-0.13198-0.27432-0.25209-0.42815-0.35686-0.15383-0.10477-0.31752-0.19428-0.49066-0.26798-0.17307-0.07371-0.3554-0.1309-0.544-0.16967-0.18856-0.03879-0.38372-0.05926-0.58399-0.05926h-26.42c-0.17779 0-0.35362-0.0093-0.52664-0.02691-0.17303-0.01765-0.34319-0.04369-0.51066-0.07813-0.16744-0.03443-0.3323-0.07622-0.4933-0.12658-0.16097-0.05037-0.31828-0.10962-0.47196-0.17507-0.15368-0.06544-0.30377-0.13715-0.44933-0.21681-0.14555-0.07966-0.28744-0.16688-0.42398-0.2599-0.13656-0.09302-0.26794-0.19208-0.39466-0.29761-0.12673-0.10553-0.24798-0.21679-0.36398-0.33397-0.11603-0.11718-0.22617-0.241-0.33068-0.36898-0.10447-0.12798-0.20391-0.26069-0.29598-0.39859-0.09211-0.13792-0.17711-0.27988-0.25599-0.42689-0.07888-0.147-0.15118-0.29859-0.216-0.4538-0.06482-0.15523-0.12212-0.31411-0.17197-0.47671-0.04985-0.16261-0.09256-0.32914-0.12666-0.49827-0.03402-0.16912-0.05983-0.34098-0.07733-0.51578-0.01701-0.16952-0.02608-0.34171-0.02684-0.51578 0-0.20227-0.02041-0.39936-0.05862-0.58984-0.0384-0.19048-0.09502-0.37459-0.168-0.54943-0.07298-0.17484-0.16158-0.34022-0.26533-0.49556-0.10375-0.15534-0.22266-0.30029-0.35332-0.43228-0.13066-0.13199-0.27417-0.25209-0.42799-0.35686-0.15379-0.10478-0.31756-0.19428-0.49066-0.26798-0.17311-0.07371-0.3554-0.1309-0.544-0.16968-0.1886-0.03879-0.38372-0.05926-0.58399-0.05926h-12.971z" fill="url(#linearGradient20080)" opacity=".8" style="paint-order:stroke fill markers"/>
 </g>
 <g fill="#5e4aa6" stroke-width=".26458">
  <g transform="matrix(12.283,0,0,12.283,-3.9957,-3.994)">
   <circle cx="-330.35" cy="-328.38" r="0"/>
   <circle cx="-312.11" cy="-326.25" r="0"/>
   <circle cx="-306.02" cy="-333.07" r="0"/>
   <circle cx="-308.84" cy="-326.01" r="0"/>
   <circle cx="-328.8" cy="-330.45" r="0"/>
  </g>
  <g transform="matrix(12.283,0,0,12.283,-271.27,-131.15)">
   <circle cx="-330.35" cy="-328.38" r="0"/>
   <circle cx="-312.11" cy="-326.25" r="0"/>
   <circle cx="-306.02" cy="-333.07" r="0"/>
   <circle cx="-308.84" cy="-326.01" r="0"/>
   <circle cx="-328.8" cy="-330.45" r="0"/>
  </g>
  <g transform="matrix(11.929 0 0 11.929 -.9997 -.99913)">
   <g transform="translate(-3.2526e-7,4.7281e-5)">
    <g transform="translate(-3.2526e-7,4.7281e-5)">
     <g transform="translate(-3.2526e-7,4.7281e-5)">
      <g transform="translate(-3.2526e-7,4.7281e-5)">
       <g transform="translate(-3.2526e-7,4.7281e-5)">
        <circle cx="-284.2" cy="-325.31" r="0"/>
        <circle cx="-284.2" cy="-325.31" r="0"/>
        <circle cx="-317.65" cy="-326.53" r="0"/>
       </g>
       <circle cx="-281.6" cy="-325.38" r="0"/>
       <circle cx="-281.6" cy="-325.38" r="0"/>
      </g>
      <circle cx="-283.03" cy="-325.16" r="0"/>
      <circle cx="-283.03" cy="-325.16" r="0"/>
     </g>
     <circle cx="-283.95" cy="-325.66" r="0"/>
     <circle cx="-283.95" cy="-325.66" r="0"/>
    </g>
    <circle cx="-277.78" cy="-325.72" r="0"/>
    <circle cx="-277.78" cy="-325.72" r="0"/>
   </g>
   <circle cx="-280.05" cy="-325.41" r="0"/>
   <circle cx="-280.05" cy="-325.41" r="0"/>
  </g>
 </g>
 <g transform="matrix(.74074 0 0 .74074 22.655 12.223)" fill="#fbfbfb" opacity=".8">
  <path d="m35 24h-5.4104l-14 27h5.4104z" color="#4d4d4d" stroke-width=".35525"/>
  <rect x="31" y="47.198" width="14" height="3.8022" color="#4d4d4d" stroke-width=".4703"/>
 </g>
</svg>
