<?xml version="1.0" encoding="UTF-8"?>
<svg width="64" height="64" version="1.1" viewBox="0 0 16.933 16.933" xmlns="http://www.w3.org/2000/svg" xmlns:cc="http://creativecommons.org/ns#" xmlns:dc="http://purl.org/dc/elements/1.1/" xmlns:rdf="http://www.w3.org/1999/02/22-rdf-syntax-ns#" xmlns:xlink="http://www.w3.org/1999/xlink">
 <defs>
  <style type="text/css"/>
  <style id="current-color-scheme" type="text/css">.ColorScheme-Text { color:#727272; } .ColorScheme-Highlight { color:#5294e2; }</style>
  <linearGradient id="linearGradient5239" x1=".52916" x2="16.404" y1="5.3972" y2="5.3972" gradientTransform="translate(-21.696)" gradientUnits="userSpaceOnUse">
   <stop stop-color="#fff" offset="0"/>
   <stop stop-color="#fff" stop-opacity="0" offset="1"/>
  </linearGradient>
  <linearGradient id="linearGradient107337" x1="157.33" x2="247.31" y1="69.985" y2="69.985" gradientTransform="matrix(.18242 0 0 .18242 -49.249 -7.5368)" gradientUnits="userSpaceOnUse">
   <stop stop-color="#2e3440" offset="0"/>
   <stop stop-color="#4c566a" offset="1"/>
  </linearGradient>
  <linearGradient id="linearGradient20148" x1="6.4593" x2="6.4593" y1="3.7277" y2="14.622" gradientTransform="translate(-20.807 -3.2363)" gradientUnits="userSpaceOnUse">
   <stop stop-color="#515b71" offset="0"/>
   <stop stop-color="#21262e" offset="1"/>
  </linearGradient>
  <linearGradient id="linearGradient20080" x1=".70715" x2=".70715" y1="14.743" y2="3.5389" gradientTransform="matrix(1.0116 0 0 1.0116 -16.974 -3.3346)" gradientUnits="userSpaceOnUse">
   <stop stop-color="#232323" offset="0"/>
   <stop stop-color="#232323" stop-opacity="0" offset=".1"/>
   <stop stop-color="#07effe" stop-opacity="0" offset="1"/>
  </linearGradient>
 </defs>
 <metadata>
  <rdf:RDF>
   <cc:Work rdf:about="">
    <dc:format>image/svg+xml</dc:format>
    <dc:type rdf:resource="http://purl.org/dc/dcmitype/StillImage"/>
   </cc:Work>
  </rdf:RDF>
 </metadata>
 <g transform="translate(20.807 3.2364)" fill-rule="evenodd" stroke-width=".18242">
  <g>
   <rect x="-20.548" y="-1.1197" width="16.414" height="12.7" ry="1.0441" fill="url(#linearGradient107337)" style="paint-order:stroke fill markers"/>
   <rect x="-20.003" y="-.20066" width="15.325" height="11.78" ry=".58446" fill="#2e3440" style="paint-order:stroke fill markers"/>
   <rect x="-20.003" y=".71696" width="15.325" height="10.863" ry=".53895" fill="#3b4252" style="paint-order:stroke fill markers"/>
   <rect x="-20.003" y="1.5845" width="15.325" height="9.9952" ry=".4959" fill="#d8dee9" style="paint-order:stroke fill markers"/>
   <path d="m-19.849 0.18132c-0.38562 0-0.71767 0.31409-0.69599 0.70296 0 3.2635 7e-3 6.5019 7e-3 9.791 0.03005 0.5002 0.39916 0.90463 0.89531 0.90463h14.585c0.49615 0 0.92161-0.40352 0.92163-0.90463l1.53e-4 -4.4885c0-0.063662 7.3e-4 -0.11954 7.3e-4 -0.18349v-2.9084c0-0.053516-0.0054-0.10566-0.01551-0.15606-0.01017-0.050398-0.02514-0.099108-0.04445-0.14537-0.01931-0.04626-0.04275-0.090016-0.07021-0.13111-0.02745-0.041099-0.05891-0.07945-0.09348-0.11437-0.034624-0.034919-0.072584-0.066697-0.11328-0.094418-0.0407-0.027721-0.08401-0.051401-0.12982-0.070902-0.04579-0.019501-0.09403-0.034633-0.14393-0.044892-0.04989-0.010262-0.10152-0.015678-0.15451-0.015678h-6.99c-0.04704 0-0.09355-0.00246-0.13934-0.00712-0.04578-0.00467-0.0908-0.011559-0.13511-0.02067-0.0443-0.00911-0.08793-0.020167-0.13052-0.033491-0.04259-0.013326-0.08421-0.029004-0.12487-0.046319-0.04066-0.017314-0.08037-0.036287-0.11888-0.057363-0.03851-0.021077-0.07605-0.044153-0.11218-0.068764-0.03613-0.024612-0.07089-0.050819-0.10442-0.078741-0.03353-0.027921-0.06561-0.057357-0.0963-0.088361-0.0307-0.031004-0.05984-0.063763-0.08749-0.097624-0.02764-0.033861-0.05395-0.068972-0.07831-0.10546-0.02437-0.03649-0.04686-0.07405-0.06773-0.11295-0.02087-0.038894-0.04-0.079-0.05715-0.12007-0.01715-0.041071-0.03232-0.083106-0.04551-0.12613-0.01319-0.043022-0.02449-0.087083-0.03351-0.13183-9e-3 -0.044746-0.01584-0.090217-0.02046-0.13646-0.0045-0.04485-0.0069-0.090409-0.0071-0.13646 0-0.053516-0.0054-0.10566-0.01551-0.15606-0.01016-0.050398-0.02514-0.099109-0.04445-0.14537-0.0193-0.046258-0.04275-0.090016-0.0702-0.13111-0.02745-0.041099-0.05891-0.07945-0.09348-0.11437-0.03457-0.034921-0.07254-0.066697-0.11324-0.094418-0.04069-0.027721-0.08402-0.051401-0.12982-0.070902-0.0458-0.019501-0.09403-0.034633-0.14393-0.044893-0.0499-0.010262-0.10152-0.015678-0.15451-0.015678h-3.4319z" fill="url(#linearGradient20148)" opacity=".8" style="paint-order:stroke fill markers"/>
  </g>
  <path d="m-19.849 0.18132c-0.38562 0-0.71767 0.31409-0.69599 0.70296 0 3.2635 7e-3 6.5019 7e-3 9.791 0.03005 0.5002 0.39916 0.90463 0.89531 0.90463h14.585c0.49615 0 0.92161-0.40352 0.92163-0.90463l1.53e-4 -4.4885c0-0.063662 7.3e-4 -0.11954 7.3e-4 -0.18349v-2.9084c0-0.053516-0.0054-0.10566-0.01551-0.15606-0.01017-0.050398-0.02514-0.099108-0.04445-0.14537-0.01931-0.04626-0.04275-0.090016-0.07021-0.13111-0.02745-0.041099-0.05891-0.07945-0.09348-0.11437-0.03462-0.034919-0.07258-0.066697-0.11328-0.094418-0.0407-0.027721-0.08401-0.051401-0.12982-0.070902-0.04579-0.019501-0.09403-0.034633-0.14393-0.044892-0.04989-0.010262-0.10152-0.015678-0.15451-0.015678h-6.99c-0.04704 0-0.09356-0.00246-0.13934-0.00712-0.04578-0.00467-0.0908-0.011559-0.13511-0.02067-0.0443-0.00911-0.08792-0.020167-0.13052-0.033491-0.04259-0.013326-0.08421-0.029004-0.12487-0.046319-0.04066-0.017314-0.08037-0.036287-0.11888-0.057363-0.03851-0.021077-0.07605-0.044153-0.11218-0.068764-0.03613-0.024612-0.07089-0.050819-0.10442-0.078741-0.03353-0.027921-0.06561-0.057357-0.0963-0.088361-0.0307-0.031004-0.05984-0.063763-0.08749-0.097624-0.02764-0.033861-0.05395-0.068972-0.07831-0.10546-0.02437-0.03649-0.04686-0.07405-0.06773-0.11295-0.02087-0.038894-0.04-0.079-0.05715-0.12007-0.01715-0.041071-0.03231-0.083106-0.0455-0.12613-0.01319-0.043022-0.02449-0.087083-0.03351-0.13183-9e-3 -0.044746-0.01583-0.090217-0.02046-0.13646-0.0045-0.04485-0.0069-0.090409-0.0071-0.13646 0-0.053516-0.0054-0.10566-0.01551-0.15606-0.01016-0.050398-0.02514-0.099108-0.04445-0.14537-0.01931-0.046258-0.04275-0.090016-0.0702-0.13111-0.02745-0.041099-0.05891-0.07945-0.09348-0.11437-0.03457-0.034921-0.07254-0.066697-0.11324-0.094418-0.04069-0.027721-0.08402-0.051401-0.12982-0.070902-0.0458-0.019501-0.09403-0.034633-0.14393-0.044893-0.0499-0.010262-0.10152-0.015678-0.15451-0.015678h-3.4319z" fill="url(#linearGradient20080)" opacity=".8" style="paint-order:stroke fill markers"/>
 </g>
 <g fill="#5e4aa6" stroke-width=".26458">
  <circle cx="-330.35" cy="-328.38" r="0"/>
  <circle cx="-312.11" cy="-326.25" r="0"/>
  <circle cx="-306.02" cy="-333.07" r="0"/>
  <circle cx="-308.84" cy="-326.01" r="0"/>
  <circle cx="-328.8" cy="-330.45" r="0"/>
  <g transform="translate(-21.76 -10.352)">
   <circle cx="-330.35" cy="-328.38" r="0"/>
   <circle cx="-312.11" cy="-326.25" r="0"/>
   <circle cx="-306.02" cy="-333.07" r="0"/>
   <circle cx="-308.84" cy="-326.01" r="0"/>
   <circle cx="-328.8" cy="-330.45" r="0"/>
  </g>
  <g transform="translate(.000295 -.00033978)">
   <circle cx="-330.35" cy="-328.38" r="0"/>
   <circle cx="-312.11" cy="-326.25" r="0"/>
   <circle cx="-306.02" cy="-333.07" r="0"/>
   <circle cx="-308.84" cy="-326.01" r="0"/>
   <circle cx="-328.8" cy="-330.45" r="0"/>
  </g>
 </g>
 <path d="m-13.335 4.1139c-0.11312 0.0018-0.30848-0.015417-0.51985 0.095083-0.73647 0.37946-0.77226 0.59366-1.557 0.71415h-4.9608c-0.21986 0-0.41824 0.088549-0.56171 0.23202-0.13937 0.13936-0.22041 0.33333-0.2253 0.54569v0.38395c0.0049-0.21236 0.08594-0.40633 0.2253-0.54569 0.14347-0.14347 0.34185-0.23202 0.56171-0.23202h4.9608c0.78472-0.1205 0.82051-0.33469 1.557-0.71415 0.21137-0.1105 0.40673-0.093283 0.51985-0.095083h7.3828c0.18216 3.704e-4 0.3472 0.081015 0.46663 0.21239 0.1197 0.13167 0.19378 0.31377 0.19378 0.51469v-0.38395c0-0.20092-0.07408-0.38302-0.19378-0.51469-0.1194-0.13137-0.28444-0.21202-0.4666-0.21239h-1.1652zm-7.8247 2.1037c-0.0026 0.02629-0.0067 0.052013-0.0067 0.079063v0.38395c0-0.02705 0.0041-0.052773 0.0067-0.079063v-0.2775z" fill="url(#linearGradient5239)" opacity=".3" style="paint-order:stroke fill markers"/>
 <path d="m12.167 7.9372a2.6458 2.6458 0 0 0-2.6458 2.6458 2.6458 2.6458 0 0 0 2.6458 2.6458 2.6458 2.6458 0 0 0 2.6458-2.6458 2.6458 2.6458 0 0 0-2.6458-2.6458zm-0.0088 1.2573c3e-3 -1.495e-4 0.0058 0 0.0088 0 0.09616 0 0.17363 0.077465 0.17363 0.17363v2.0107l0.76738-0.76738c0.06799-0.06799 0.17746-0.068 0.24546 0 0.068 0.06799 0.068 0.17746 0 0.24546l-1.0521 1.0516c-0.0017 0.0021-0.0039 0.0037-0.0057 0.0057l-0.0057 0.0062c-2e-3 0.0021-4e-3 0.0043-0.0062 0.0062-0.0019 0.0018-0.0042 0.0035-0.0062 0.0052-0.0022 0.0019-0.0044 0.0035-0.0067 0.0052-0.0019 0.0015-0.0037 0.0033-0.0057 0.0047-5e-4 3.09e-4 -1e-3 6.95e-4 -0.0015 1e-3 -8.8e-4 5.4e-4 -0.0017 9.75e-4 -0.0026 0.0015-0.0061 0.0039-0.01219 0.0072-0.0186 0.01034-0.0025 0.0012-0.0052 0.0025-0.0077 0.0036-6.6e-4 2.77e-4 -0.0014 2.48e-4 -0.0021 5.17e-4 -0.0027 0.0011-0.0055 0.0021-0.0083 0.0031-2e-3 6.99e-4 -0.0037 0.0015-0.0057 0.0021-8e-4 2.52e-4 -0.0018 2.75e-4 -0.0026 5.16e-4 -0.0018 5e-4 -0.0038 0.0011-0.0057 0.0015-7.2e-4 1.87e-4 -0.0014 3.41e-4 -0.0021 5.17e-4 -0.0022 6e-4 -4e-3 0.0011-0.0062 0.0016-6.8e-4 1.37e-4 -0.0014 3.87e-4 -0.0021 5.16e-4 -0.0026 5e-4 -0.0052 0.0012-0.0077 0.0016-0.0019 2.76e-4 -0.0038 3.01e-4 -0.0057 5.16e-4 -0.0033 3.33e-4 -0.0065 8.56e-4 -0.0098 1e-3h-5.17e-4c-3.32e-4 1.7e-5 -6.98e-4 -1.5e-5 -1e-3 0-0.0026 1.18e-4 -0.0056 0-0.0083 0-0.0028 0-0.0055 1.32e-4 -0.0083 0-3.41e-4 -1.7e-5 -6.88e-4 1.8e-5 -1e-3 0-5e-3 -2e-4 -0.01-8.43e-4 -0.01499-0.0015h-5.17e-4c-5.3e-4 -7.8e-5 -1e-3 -4.36e-4 -0.0015-5.17e-4 -0.0022-2.99e-4 -0.0046-6.2e-4 -0.0067-1e-3 -6.9e-4 -1.33e-4 -0.0014-3.75e-4 -0.0021-5.16e-4 -2e-3 -4.01e-4 -0.0038-0.0011-0.0057-0.0016h-5.17e-4c-6.8e-4 -1.66e-4 -0.0014-3.41e-4 -0.0021-5.17e-4 -0.0019-3.99e-4 -0.0038-9.95e-4 -0.0057-0.0015h-5.17e-4c-7e-4 -2.07e-4 -0.0014-3.01e-4 -0.0021-5.16e-4 -0.0019-6.01e-4 -0.0038-0.0014-0.0057-0.0021-0.0027-9e-4 -0.0052-2e-3 -0.0077-0.0031h-5.17e-4c-6.6e-4 -2.69e-4 -0.0014-2.4e-4 -0.0021-5.17e-4 -0.0015-7e-4 -0.0031-0.0014-0.0046-0.0021l-5.16e-4 -5.17e-4h-5.17e-4l-5.17e-4 -5.16e-4c-0.0023-0.0011-0.0045-0.0019-0.0067-0.0031-6.8e-4 -3.22e-4 -0.0014-6.69e-4 -0.0021-1e-3 -0.0018-1e-3 -0.0034-0.0026-0.0052-0.0036h-5.16e-4c-5.3e-4 -2.83e-4 -1e-3 -7.11e-4 -0.0015-1e-3 -0.0015-9e-4 -0.0037-0.0021-0.0052-0.0031l-5.17e-4 -5.16e-4c-0.0015-1e-3 -0.0031-2e-3 -0.0046-0.0031l-5.17e-4 -5.17e-4c-5e-4 -3.28e-4 -1e-3 -6.66e-4 -0.0015-1e-3h-5.17e-4c-3.84e-4 -2.52e-4 -6.47e-4 -7.44e-4 -1e-3 -1e-3 -0.0014-0.0011-0.0027-0.0025-0.0041-0.0036-4.9e-4 -3.6e-4 -0.0011-6.34e-4 -0.0015-1e-3 -2.87e-4 -2.36e-4 -7.44e-4 -2.77e-4 -1e-3 -5.16e-4 -0.0019-0.0016-0.0033-0.0035-0.0052-0.0052h-1e-3c-0.0021-0.0019-0.0042-0.0037-0.0062-0.0057v-5.17e-4l-0.0057-0.0062-1.0578-1.0573c-0.068-0.068-0.068-0.17746 0-0.24546s0.17746-0.06799 0.24546 0l0.76738 0.76738v-2.0109c0-0.093154 0.07288-0.169 0.16484-0.17363z" fill="#fbfbfb" fill-rule="evenodd" opacity=".8" stroke-linecap="round" stroke-linejoin="round" stroke-opacity=".76863" stroke-width=".57342" style="paint-order:stroke fill markers"/>
</svg>
