<?xml version="1.0" encoding="UTF-8"?>
<svg width="64" height="64" version="1.1" viewBox="0 0 16.933 16.933" xmlns="http://www.w3.org/2000/svg" xmlns:cc="http://creativecommons.org/ns#" xmlns:dc="http://purl.org/dc/elements/1.1/" xmlns:rdf="http://www.w3.org/1999/02/22-rdf-syntax-ns#" xmlns:xlink="http://www.w3.org/1999/xlink">
 <defs>
  <style type="text/css"/>
  <linearGradient id="linearGradient60884-5" x1="157.33" x2="247.31" y1="69.985" y2="69.985" gradientTransform="matrix(.17631 0 0 .18033 -27.203 -4.154)" gradientUnits="userSpaceOnUse">
   <stop stop-color="#2f3541" offset="0"/>
   <stop stop-color="#4c566a" offset="1"/>
  </linearGradient>
  <linearGradient id="linearGradient47593-6" x1="193.68" x2="193.68" y1="57.848" y2="103.22" gradientTransform="matrix(.17285 0 0 .18033 -26.516 -4.154)" gradientUnits="userSpaceOnUse">
   <stop stop-color="#4a5367" offset="0"/>
   <stop stop-color="#21262e" offset="1"/>
  </linearGradient>
  <linearGradient id="linearGradient4954" x1="-9.4853" x2="-9.4853" y1="14.707" y2="3.5204" gradientTransform="translate(17.009)" gradientUnits="userSpaceOnUse">
   <stop stop-color="#232323" offset="0"/>
   <stop stop-color="#232323" stop-opacity="0" offset=".1"/>
   <stop stop-color="#07effe" stop-opacity="0" offset="1"/>
  </linearGradient>
 </defs>
 <metadata>
  <rdf:RDF>
   <cc:Work rdf:about="">
    <dc:format>image/svg+xml</dc:format>
    <dc:type rdf:resource="http://purl.org/dc/dcmitype/StillImage"/>
   </cc:Work>
  </rdf:RDF>
 </metadata>
 <g fill="#5e4aa6" stroke-width=".26458">
  <circle cx="-330.35" cy="-328.38" r="0"/>
  <circle cx="-312.11" cy="-326.25" r="0"/>
  <circle cx="-306.02" cy="-333.07" r="0"/>
  <circle cx="-308.84" cy="-326.01" r="0"/>
  <circle cx="-328.8" cy="-330.45" r="0"/>
  <g transform="translate(24.108 -4.592)">
   <circle cx="-330.35" cy="-328.38" r="0"/>
   <circle cx="-312.11" cy="-326.25" r="0"/>
   <circle cx="-306.02" cy="-333.07" r="0"/>
   <circle cx="-308.84" cy="-326.01" r="0"/>
   <circle cx="-328.8" cy="-330.45" r="0"/>
  </g>
  <g transform="translate(2.3479 -14.944)">
   <circle cx="-330.35" cy="-328.38" r="0"/>
   <circle cx="-312.11" cy="-326.25" r="0"/>
   <circle cx="-306.02" cy="-333.07" r="0"/>
   <circle cx="-308.84" cy="-326.01" r="0"/>
   <circle cx="-328.8" cy="-330.45" r="0"/>
  </g>
  <g transform="translate(.000295 -.00036978)">
   <circle cx="-330.35" cy="-328.38" r="0"/>
   <circle cx="-312.11" cy="-326.25" r="0"/>
   <circle cx="-306.02" cy="-333.07" r="0"/>
   <circle cx="-308.84" cy="-326.01" r="0"/>
   <circle cx="-328.8" cy="-330.45" r="0"/>
  </g>
 </g>
 <rect x=".53471" y="2.1895" width="15.864" height="12.554" ry="1.0321" fill="url(#linearGradient60884-5)" fill-rule="evenodd" stroke-width=".17831" style="paint-order:stroke fill markers"/>
 <g fill-rule="evenodd" stroke-width=".17831">
  <rect x="1.0611" y="3.098" width="14.811" height="11.645" ry=".57776" fill="#2e3440" style="paint-order:stroke fill markers"/>
  <rect x="1.0611" y="4.0051" width="14.811" height="10.738" ry=".53277" fill="#3b4252" style="paint-order:stroke fill markers"/>
  <rect x="1.0611" y="4.8627" width="14.811" height="9.8806" ry=".49021" fill="#d8dee9" style="paint-order:stroke fill markers"/>
 </g>
 <path d="m0.66703 5.7826c-0.36904 0-0.68681 0.31049-0.66607 0.6949 0.23264 3.2375 0.2926 4.1592 0.54384 7.3717 0.02876 0.49446 0.38199 0.89426 0.85681 0.89426h14.097c0.47482 0 0.88198-0.39889 0.882-0.89426 0.30155-2.4929 0.32002-2.7173 0.55223-5.1864 0-0.052902-0.0051-0.10445-0.01484-0.15427-0.0097-0.04982-0.02406-0.097971-0.04254-0.1437-0.01848-0.04573-0.04091-0.088984-0.06719-0.12961-0.02626-0.040628-0.05637-0.078539-0.08946-0.11306-0.03309-0.034519-0.06942-0.065932-0.10837-0.093335s-0.0804-0.050812-0.12423-0.070089-0.08999-0.034236-0.13774-0.044377c-0.04775-0.010144-0.09716-0.015498-0.14786-0.015498h-6.6895c-0.045021 0-0.089532-0.00243-0.13335-0.00704-0.043815-0.00462-0.0869-0.011426-0.1293-0.020431-0.042395-0.00901-0.084145-0.019935-0.12491-0.033107-0.040764-0.013173-0.080594-0.028671-0.11951-0.045788-0.038915-0.017115-0.076916-0.035871-0.11377-0.056705-0.036853-0.020835-0.07278-0.043647-0.10735-0.067975-0.034575-0.02433-0.067843-0.050236-0.099927-0.077838-0.032084-0.027601-0.062787-0.056699-0.092161-0.087348-0.02938-0.030649-0.057269-0.063033-0.083724-0.096505-0.026456-0.033473-0.051626-0.068181-0.074944-0.10425-0.02332-0.036071-0.044847-0.073201-0.064817-0.11165-0.01997-0.038448-0.038285-0.078094-0.05469-0.11869-0.01641-0.040599-0.030925-0.082153-0.043548-0.12468-0.012622-0.042529-0.023441-0.086084-0.032072-0.13032-0.00863-0.044233-0.015154-0.089182-0.019581-0.1349-0.0043-0.044336-0.00661-0.089372-0.00676-0.1349 0-0.052902-0.00513-0.10445-0.014839-0.15427-0.0097207-0.04982-0.024055-0.097972-0.042534-0.1437-0.018476-0.045728-0.040914-0.088984-0.067179-0.12961-0.026265-0.040628-0.056375-0.078539-0.089461-0.11306-0.033088-0.034521-0.069424-0.065932-0.10837-0.093335-0.038941-0.027403-0.080403-0.050812-0.12423-0.070089-0.043831-0.019277-0.089986-0.034236-0.13774-0.044378-0.047752-0.010144-0.097158-0.015498-0.14786-0.015498h-4.512z" fill="url(#linearGradient47593-6)" fill-rule="evenodd" opacity=".8" stroke-width=".17743" style="paint-order:stroke fill markers"/>
 <path d="m0.66703 5.7826c-0.36904 0-0.68681 0.31049-0.66607 0.6949 0.23264 3.2375 0.2926 4.1592 0.54384 7.3717 0.02876 0.49446 0.38199 0.89426 0.85681 0.89426h14.097c0.47482 0 0.88198-0.39889 0.882-0.89426 0.30155-2.4929 0.32002-2.7173 0.55223-5.1864 0-0.052902-0.0051-0.10445-0.01484-0.15427-0.0097-0.04982-0.02406-0.097971-0.04254-0.1437-0.01848-0.04573-0.04091-0.088984-0.06719-0.12961-0.02626-0.040628-0.05637-0.078539-0.08946-0.11306-0.03309-0.034519-0.06942-0.065932-0.10837-0.093335s-0.0804-0.050812-0.12423-0.070089-0.08999-0.034236-0.13774-0.044377c-0.04775-0.010144-0.09716-0.015498-0.14786-0.015498h-6.6895c-0.04502 0-0.08953-0.00243-0.13335-0.00704-0.043815-0.00462-0.0869-0.011426-0.1293-0.020431-0.042395-0.00901-0.084145-0.019935-0.12491-0.033107-0.040764-0.013173-0.080594-0.028671-0.11951-0.045788-0.038915-0.017115-0.076916-0.035871-0.11377-0.056705-0.036853-0.020835-0.07278-0.043647-0.10735-0.067975-0.03458-0.02433-0.06784-0.050236-0.09993-0.077838-0.03208-0.027601-0.06279-0.056699-0.09216-0.087348-0.02938-0.030649-0.05727-0.063033-0.08372-0.096505-0.02646-0.033473-0.05163-0.068181-0.07494-0.10425-0.02332-0.036071-0.04485-0.073201-0.06482-0.11165-0.01997-0.038448-0.03829-0.078094-0.05469-0.11869-0.01641-0.040599-0.03092-0.082153-0.04355-0.12468-0.01262-0.042529-0.02344-0.086084-0.03207-0.13032-0.0086-0.044233-0.01515-0.089182-0.01958-0.1349-0.0043-0.044336-0.0066-0.089372-0.0068-0.1349 0-0.052902-0.0051-0.10445-0.01484-0.15427-0.0097-0.04982-0.02405-0.097972-0.04253-0.1437s-0.04091-0.088984-0.06718-0.12961c-0.02626-0.040628-0.05637-0.078539-0.08946-0.11306s-0.06942-0.065932-0.10837-0.093335c-0.03894-0.027403-0.0804-0.050812-0.12423-0.070089s-0.08999-0.034236-0.13774-0.044377c-0.04775-0.010144-0.09716-0.015498-0.14786-0.015498h-4.512z" fill="url(#linearGradient4954)" fill-rule="evenodd" opacity=".8" stroke-width=".17743" style="paint-order:stroke fill markers"/>
</svg>
