<?xml version="1.0" encoding="UTF-8"?>
<svg width="64" height="64" version="1.1" viewBox="0 0 16.933 16.933" xmlns="http://www.w3.org/2000/svg" xmlns:cc="http://creativecommons.org/ns#" xmlns:dc="http://purl.org/dc/elements/1.1/" xmlns:rdf="http://www.w3.org/1999/02/22-rdf-syntax-ns#" xmlns:xlink="http://www.w3.org/1999/xlink">
 <defs>
  <linearGradient id="linearGradient107337" x1="157.33" x2="247.31" y1="69.985" y2="69.985" gradientTransform="matrix(.18242 0 0 .18242 -56.418 -6.6553)" gradientUnits="userSpaceOnUse">
   <stop stop-color="#2e3440" offset="0"/>
   <stop stop-color="#4c566a" offset="1"/>
  </linearGradient>
  <linearGradient id="linearGradient20148" x1="6.4593" x2="6.4593" y1="3.7277" y2="14.622" gradientTransform="translate(-27.977 -2.3548)" gradientUnits="userSpaceOnUse">
   <stop stop-color="#515b71" offset="0"/>
   <stop stop-color="#21262e" offset="1"/>
  </linearGradient>
  <linearGradient id="linearGradient20080" x1=".70715" x2=".70715" y1="14.743" y2="3.5389" gradientTransform="matrix(1.0116 0 0 1.0116 -24.143 -2.4531)" gradientUnits="userSpaceOnUse">
   <stop stop-color="#232323" offset="0"/>
   <stop stop-color="#232323" stop-opacity="0" offset=".1"/>
   <stop stop-color="#07effe" stop-opacity="0" offset="1"/>
  </linearGradient>
 </defs>
 <metadata>
  <rdf:RDF>
   <cc:Work rdf:about="">
    <dc:format>image/svg+xml</dc:format>
    <dc:type rdf:resource="http://purl.org/dc/dcmitype/StillImage"/>
   </cc:Work>
  </rdf:RDF>
 </metadata>
 <g transform="translate(27.977 2.3549)" fill-rule="evenodd" stroke-width=".18242">
  <g>
   <rect x="-27.717" y="-.23822" width="16.414" height="12.7" ry="1.0441" fill="url(#linearGradient107337)" style="paint-order:stroke fill markers"/>
   <rect x="-27.173" y=".68082" width="15.325" height="11.78" ry=".58446" fill="#2e3440" style="paint-order:stroke fill markers"/>
   <rect x="-27.173" y="1.5984" width="15.325" height="10.863" ry=".53895" fill="#3b4252" style="paint-order:stroke fill markers"/>
   <rect x="-27.173" y="2.466" width="15.325" height="9.9952" ry=".4959" fill="#d8dee9" style="paint-order:stroke fill markers"/>
   <path d="m-27.019 1.0628c-0.38562 0-0.71767 0.31409-0.69599 0.70296 0 3.2635 7e-3 6.5019 7e-3 9.791 0.03005 0.5002 0.39916 0.90463 0.89531 0.90463h14.585c0.49615 0 0.92161-0.40352 0.92163-0.90463l1.53e-4 -4.4885c0-0.063662 7.3e-4 -0.11954 7.3e-4 -0.18349v-2.9084c0-0.053516-0.0054-0.10566-0.01551-0.15606-0.01017-0.050398-0.02514-0.099108-0.04445-0.14537-0.01931-0.04626-0.04275-0.090016-0.07021-0.13111-0.02745-0.041099-0.05891-0.07945-0.09348-0.11437-0.03462-0.034919-0.07258-0.066697-0.11328-0.094418-0.0407-0.027721-0.08401-0.051401-0.12982-0.070902-0.04579-0.019501-0.09403-0.034633-0.14393-0.044892-0.04989-0.010262-0.10152-0.015678-0.15451-0.015678h-6.99c-0.04704 0-0.09355-0.00246-0.13934-0.00712-0.04578-0.00467-0.0908-0.011559-0.13511-0.02067-0.0443-0.00911-0.08793-0.020167-0.13052-0.033491-0.04259-0.013326-0.08421-0.029004-0.12487-0.046319-0.04066-0.017314-0.08037-0.036287-0.11888-0.057363-0.03851-0.021077-0.07605-0.044153-0.11218-0.068764-0.03613-0.024612-0.07089-0.050819-0.10442-0.078741-0.03353-0.027921-0.06561-0.057357-0.0963-0.088361-0.0307-0.031004-0.05984-0.063763-0.08749-0.097624-0.02764-0.033861-0.05395-0.068972-0.07831-0.10546-0.02437-0.03649-0.04686-0.07405-0.06773-0.11295-0.02087-0.038894-0.04-0.079-0.05715-0.12007-0.01715-0.041071-0.03232-0.083106-0.04551-0.12613-0.01319-0.043022-0.02449-0.087083-0.03351-0.13183-9e-3 -0.044746-0.01584-0.090217-0.02046-0.13646-0.0045-0.04485-0.0069-0.090409-0.0071-0.13646 0-0.053516-0.0054-0.10566-0.01551-0.15606-0.01016-0.050398-0.02514-0.099109-0.04445-0.14537-0.0193-0.046258-0.04275-0.090016-0.0702-0.13111-0.02745-0.041099-0.05891-0.07945-0.09348-0.11437-0.03457-0.034921-0.07254-0.066697-0.11324-0.094418-0.04069-0.027721-0.08402-0.051401-0.12982-0.070902-0.0458-0.019501-0.09403-0.034633-0.14393-0.044893-0.0499-0.010262-0.10152-0.015678-0.15451-0.015678h-3.4319z" fill="url(#linearGradient20148)" opacity=".8" style="paint-order:stroke fill markers"/>
  </g>
  <path d="m-27.019 1.0628c-0.38562 0-0.71767 0.31409-0.69599 0.70296 0 3.2635 7e-3 6.5019 7e-3 9.791 0.03005 0.5002 0.39916 0.90463 0.89531 0.90463h14.585c0.49615 0 0.92161-0.40352 0.92163-0.90463l1.53e-4 -4.4885c0-0.063662 7.3e-4 -0.11954 7.3e-4 -0.18349v-2.9084c0-0.053516-0.0054-0.10566-0.01551-0.15606-0.01017-0.050398-0.02514-0.099108-0.04445-0.14537-0.01931-0.04626-0.04275-0.090016-0.07021-0.13111-0.02745-0.041099-0.05891-0.07945-0.09348-0.11437-0.03462-0.034919-0.07258-0.066697-0.11328-0.094418-0.0407-0.027721-0.08401-0.051401-0.12982-0.070902-0.04579-0.019501-0.09403-0.034633-0.14393-0.044892-0.04989-0.010262-0.10152-0.015678-0.15451-0.015678h-6.99c-0.04704 0-0.09356-0.00246-0.13934-0.00712-0.04578-0.00467-0.0908-0.011559-0.13511-0.02067-0.0443-0.00911-0.08792-0.020167-0.13052-0.033491-0.04259-0.013326-0.08421-0.029004-0.12487-0.046319-0.04066-0.017314-0.08037-0.036287-0.11888-0.057363-0.03851-0.021077-0.07605-0.044153-0.11218-0.068764-0.03613-0.024612-0.07089-0.050819-0.10442-0.078741-0.03353-0.027921-0.06561-0.057357-0.0963-0.088361-0.0307-0.031004-0.05984-0.063763-0.08749-0.097624-0.02764-0.033861-0.05395-0.068972-0.07831-0.10546-0.02437-0.03649-0.04686-0.07405-0.06773-0.11295-0.02087-0.038894-0.04-0.079-0.05715-0.12007-0.01715-0.041071-0.03231-0.083106-0.0455-0.12613-0.01319-0.043022-0.02449-0.087083-0.03351-0.13183-9e-3 -0.044746-0.01583-0.090217-0.02046-0.13646-0.0045-0.04485-0.0069-0.090409-0.0071-0.13646 0-0.053516-0.0054-0.10566-0.01551-0.15606-0.01016-0.050398-0.02514-0.099108-0.04445-0.14537-0.01931-0.046258-0.04275-0.090016-0.0702-0.13111-0.02745-0.041099-0.05891-0.07945-0.09348-0.11437-0.03457-0.034921-0.07254-0.066697-0.11324-0.094418-0.04069-0.027721-0.08402-0.051401-0.12982-0.070902-0.0458-0.019501-0.09403-0.034633-0.14393-0.044893-0.0499-0.010262-0.10152-0.015678-0.15451-0.015678h-3.4319z" fill="url(#linearGradient20080)" opacity=".8" style="paint-order:stroke fill markers"/>
 </g>
 <circle cx="-330.35" cy="-328.38" r="0" fill="#5e4aa6" stroke-width=".26458"/>
 <circle cx="-312.93" cy="-341.25" r="0" fill="#5e4aa6" stroke-width=".26458"/>
 <path d="m8.7279 8.4664c-0.43972 0-0.79373 0.35401-0.79373 0.79373v3.1749c0 0.43972 0.35401 0.79374 0.79373 0.79374h5.2916c0.43972 0 0.79374-0.35401 0.79374-0.79374v-3.1749c0-0.43972-0.35401-0.79373-0.79374-0.79373zm1.3229 3.1749h2.6458c0.21987 0 0.39687 0.177 0.39687 0.39687s-0.177 0.39687-0.39687 0.39687h-2.6458c-0.21987 0-0.39687-0.177-0.39687-0.39687s0.177-0.39687 0.39687-0.39687z" fill="#fbfbfb" fill-rule="evenodd" opacity=".8" stroke-linecap="round" stroke-linejoin="round" stroke-opacity=".76863" stroke-width=".26605" style="paint-order:stroke fill markers"/>
</svg>
