<?xml version="1.0" encoding="UTF-8"?>
<svg width="64" height="64" version="1.1" viewBox="0 0 16.933 16.933" xmlns="http://www.w3.org/2000/svg" xmlns:cc="http://creativecommons.org/ns#" xmlns:dc="http://purl.org/dc/elements/1.1/" xmlns:rdf="http://www.w3.org/1999/02/22-rdf-syntax-ns#">
 <defs>
  <style type="text/css"/>
  <style id="current-color-scheme" type="text/css">.ColorScheme-Text { color:#727272; } .ColorScheme-Highlight { color:#5294e2; }</style>
  <linearGradient id="linearGradient5239" x1=".52916" x2="16.404" y1="5.3972" y2="5.3972" gradientTransform="translate(-21.696)" gradientUnits="userSpaceOnUse">
   <stop stop-color="#fff" offset="0"/>
   <stop stop-color="#fff" stop-opacity="0" offset="1"/>
  </linearGradient>
  <linearGradient id="linearGradient60884-3" x1="157.33" x2="247.31" y1="69.985" y2="69.985" gradientTransform="matrix(.18033 0 0 .18033 -28.018 -4.154)" gradientUnits="userSpaceOnUse">
   <stop stop-color="#861b98" offset="0"/>
   <stop stop-color="#085ee0" offset="1"/>
  </linearGradient>
  <linearGradient id="linearGradient47593-7" x1="193.68" x2="193.68" y1="43.371" y2="103.22" gradientTransform="matrix(.17854 0 0 .18033 -27.733 -4.154)" gradientUnits="userSpaceOnUse">
   <stop stop-color="#07effe" offset="0"/>
   <stop stop-color="#0b92e5" offset="1"/>
  </linearGradient>
  <linearGradient id="linearGradient2806" x1=".70715" x2=".70715" y1="14.743" y2="3.5389" gradientTransform="translate(3.8869)" gradientUnits="userSpaceOnUse">
   <stop stop-color="#075e91" offset="0"/>
   <stop stop-color="#077faa" stop-opacity="0" offset=".1"/>
   <stop stop-color="#07effe" stop-opacity="0" offset="1"/>
  </linearGradient>
 </defs>
 <metadata>
  <rdf:RDF>
   <cc:Work rdf:about="">
    <dc:format>image/svg+xml</dc:format>
    <dc:type rdf:resource="http://purl.org/dc/dcmitype/StillImage"/>
   </cc:Work>
  </rdf:RDF>
 </metadata>
 <g transform="matrix(1.0116 0 0 1.0116 -.098288 -.098288)" fill-rule="evenodd" stroke-width=".18033">
  <rect x=".35363" y="2.1895" width="16.226" height="12.554" ry="1.0321" fill="url(#linearGradient60884-3)" style="paint-order:stroke fill markers"/>
  <rect x=".89201" y="3.098" width="15.149" height="11.645" ry=".57776" fill="#1d3857" style="paint-order:stroke fill markers"/>
  <rect x=".89201" y="4.0051" width="15.149" height="10.738" ry=".53277" fill="#3a6caa" style="paint-order:stroke fill markers"/>
  <rect x=".89201" y="4.8627" width="15.149" height="9.8806" ry=".49021" fill="#afd3ff" style="paint-order:stroke fill markers"/>
  <path d="m1.0441 3.4756c-0.3812 0-0.70944 0.31049-0.68801 0.6949 0 3.2261 0.006876 6.4273 0.006876 9.6787 0.029708 0.49446 0.39458 0.89426 0.88504 0.89426h14.418c0.49046 0 0.91104-0.39889 0.91106-0.89426l1.51e-4 -4.437c0-0.062932 7.22e-4 -0.11817 7.22e-4 -0.18139v-2.875c0-0.052902-0.0053-0.10445-0.01533-0.15427-0.01005-0.04982-0.02485-0.097971-0.04394-0.1437-0.01909-0.04573-0.04226-0.088984-0.0694-0.12961-0.02713-0.040628-0.05823-0.078539-0.09241-0.11306-0.03418-0.034519-0.07171-0.065932-0.11194-0.093335s-0.08305-0.050812-0.12833-0.070089c-0.04527-0.019277-0.09295-0.034236-0.14228-0.044377-0.04932-0.010144-0.10036-0.015498-0.15274-0.015498h-6.9099c-0.046504 0-0.092482-0.00243-0.13774-0.00704-0.045259-0.0046184-0.089763-0.011426-0.13356-0.020432-0.043791-0.0090057-0.086917-0.019936-0.12902-0.033107-0.042107-0.013173-0.083249-0.028671-0.12344-0.045788-0.040197-0.017115-0.07945-0.035871-0.11752-0.056705-0.038068-0.020835-0.075178-0.043647-0.11089-0.067975-0.035714-0.02433-0.070078-0.050236-0.10322-0.077838-0.033141-0.027601-0.064856-0.056699-0.095198-0.087348-0.030348-0.030649-0.059156-0.063032-0.086483-0.096505s-0.053327-0.068181-0.077414-0.10425c-0.024088-0.036072-0.046325-0.073201-0.066953-0.11165-0.020628-0.038448-0.039546-0.078094-0.056492-0.11869-0.016951-0.0406-0.031944-0.082153-0.044983-0.12468-0.013038-0.042529-0.024213-0.086084-0.033128-0.13032-0.0089083-0.044233-0.015653-0.089182-0.020226-0.1349-0.00444-0.044336-0.00683-0.089372-0.00698-0.1349 0-0.052902-0.0053-0.10445-0.015328-0.15427-0.010043-0.04982-0.02485-0.097972-0.043938-0.1437-0.019084-0.045728-0.042262-0.088984-0.069393-0.12961-0.027131-0.040628-0.058232-0.078539-0.092408-0.11306-0.034178-0.034521-0.071712-0.065932-0.11194-0.093335-0.040224-0.027403-0.083053-0.050812-0.12833-0.070089-0.045276-0.019277-0.092951-0.034236-0.14228-0.044378-0.049326-0.010144-0.10036-0.015498-0.15274-0.015498h-3.3925z" fill="url(#linearGradient47593-7)" opacity=".8" style="paint-order:stroke fill markers"/>
  <path d="m1.0441 3.4756c-0.3812 0-0.70944 0.31049-0.68801 0.6949 0 3.2261 0.00688 6.4273 0.00688 9.6787 0.029708 0.49446 0.39458 0.89426 0.88504 0.89426h14.418c0.49046 0 0.91104-0.39889 0.91106-0.89426l1.51e-4 -4.437c0-0.062932 7.22e-4 -0.11817 7.22e-4 -0.18139v-2.875c0-0.052902-0.0053-0.10445-0.01533-0.15427-0.01005-0.04982-0.02485-0.097971-0.04394-0.1437-0.01909-0.04573-0.04226-0.088984-0.0694-0.12961-0.02713-0.040628-0.05823-0.078539-0.09241-0.11306-0.03418-0.034519-0.07171-0.065932-0.11194-0.093335s-0.08305-0.050812-0.12833-0.070089c-0.04527-0.019277-0.09295-0.034236-0.14228-0.044377-0.04932-0.010144-0.10036-0.015498-0.15274-0.015498h-6.9099c-0.046504 0-0.092482-0.00243-0.13774-0.00704-0.045259-0.0046184-0.089763-0.011426-0.13356-0.020432-0.043791-0.0090057-0.086917-0.019936-0.12902-0.033107-0.042107-0.013173-0.083249-0.028671-0.12344-0.045788-0.040197-0.017115-0.07945-0.035871-0.11752-0.056705-0.038068-0.020835-0.075178-0.043647-0.11089-0.067975-0.035714-0.02433-0.070078-0.050236-0.10322-0.077838-0.033141-0.027601-0.064856-0.056699-0.095198-0.087348-0.030348-0.030649-0.059156-0.063032-0.086483-0.096505s-0.053327-0.068181-0.077414-0.10425c-0.024088-0.036072-0.046325-0.073201-0.066953-0.11165-0.020628-0.038448-0.039546-0.078094-0.056492-0.11869-0.016951-0.0406-0.031944-0.082153-0.044983-0.12468-0.013038-0.042529-0.024213-0.086084-0.033128-0.13032-0.00891-0.044233-0.015653-0.089182-0.020226-0.1349-0.00444-0.044336-0.00683-0.089372-0.00698-0.1349 0-0.052902-0.0053-0.10445-0.015328-0.15427-0.010043-0.04982-0.02485-0.097972-0.043938-0.1437-0.019084-0.045728-0.042262-0.088984-0.069393-0.12961-0.027131-0.040628-0.058232-0.078539-0.092408-0.11306-0.034178-0.034521-0.071712-0.065932-0.11194-0.093335-0.040224-0.027403-0.083053-0.050812-0.12833-0.070089-0.045276-0.019277-0.092951-0.034236-0.14228-0.044378-0.049326-0.010144-0.10036-0.015498-0.15274-0.015498h-3.3925z" fill="url(#linearGradient2806)" opacity=".8" style="paint-order:stroke fill markers"/>
 </g>
 <g fill="#5e4aa6" stroke-width=".26458">
  <circle cx="-330.35" cy="-328.38" r="0"/>
  <circle cx="-312.11" cy="-326.25" r="0"/>
  <circle cx="-306.02" cy="-333.07" r="0"/>
  <circle cx="-308.84" cy="-326.01" r="0"/>
  <circle cx="-328.8" cy="-330.45" r="0"/>
  <g transform="translate(-21.76 -10.352)">
   <circle cx="-330.35" cy="-328.38" r="0"/>
   <circle cx="-312.11" cy="-326.25" r="0"/>
   <circle cx="-306.02" cy="-333.07" r="0"/>
   <circle cx="-308.84" cy="-326.01" r="0"/>
   <circle cx="-328.8" cy="-330.45" r="0"/>
  </g>
  <g transform="translate(.000295 -.00033978)">
   <circle cx="-330.35" cy="-328.38" r="0"/>
   <circle cx="-312.11" cy="-326.25" r="0"/>
   <circle cx="-306.02" cy="-333.07" r="0"/>
   <circle cx="-308.84" cy="-326.01" r="0"/>
   <circle cx="-328.8" cy="-330.45" r="0"/>
  </g>
 </g>
 <path d="m-13.335 4.1139c-0.11312 0.0018-0.30848-0.015417-0.51985 0.095083-0.73647 0.37946-0.77226 0.59366-1.557 0.71415h-4.9608c-0.21986 0-0.41824 0.088549-0.56171 0.23202-0.13937 0.13936-0.22041 0.33333-0.2253 0.54569v0.38395c0.0049-0.21236 0.08594-0.40633 0.2253-0.54569 0.14347-0.14347 0.34185-0.23202 0.56171-0.23202h4.9608c0.78472-0.1205 0.82051-0.33469 1.557-0.71415 0.21137-0.1105 0.40673-0.093283 0.51985-0.095083h7.3828c0.18216 3.704e-4 0.3472 0.081015 0.46663 0.21239 0.1197 0.13167 0.19378 0.31377 0.19378 0.51469v-0.38395c0-0.20092-0.07408-0.38302-0.19378-0.51469-0.1194-0.13137-0.28444-0.21202-0.4666-0.21239h-1.1652zm-7.8247 2.1037c-0.0026 0.02629-0.0067 0.052013-0.0067 0.079063v0.38395c0-0.02705 0.0041-0.052773 0.0067-0.079063v-0.2775z" fill="url(#linearGradient5239)" opacity=".3" style="paint-order:stroke fill markers"/>
 <path d="m12.167 7.9372a2.6458 2.6458 0 0 0-2.6458 2.6458 2.6458 2.6458 0 0 0 2.6458 2.6458 2.6458 2.6458 0 0 0 2.6458-2.6458 2.6458 2.6458 0 0 0-2.6458-2.6458zm-0.0088 1.2573c3e-3 -1.495e-4 0.0058 0 0.0088 0 0.09616 0 0.17363 0.077465 0.17363 0.17363v2.0107l0.76738-0.76738c0.06799-0.06799 0.17746-0.068 0.24546 0 0.068 0.06799 0.068 0.17746 0 0.24546l-1.0521 1.0516c-0.0017 0.0021-0.0039 0.0037-0.0057 0.0057l-0.0057 0.0062c-2e-3 0.0021-4e-3 0.0043-0.0062 0.0062-0.0019 0.0018-0.0042 0.0035-0.0062 0.0052-0.0022 0.0019-0.0044 0.0035-0.0067 0.0052-0.0019 0.0015-0.0037 0.0033-0.0057 0.0047-5e-4 3.09e-4 -1e-3 6.95e-4 -0.0015 1e-3 -8.8e-4 5.4e-4 -0.0017 9.75e-4 -0.0026 0.0015-0.0061 0.0039-0.01219 0.0072-0.0186 0.01034-0.0025 0.0012-0.0052 0.0025-0.0077 0.0036-6.6e-4 2.77e-4 -0.0014 2.48e-4 -0.0021 5.17e-4 -0.0027 0.0011-0.0055 0.0021-0.0083 0.0031-2e-3 6.99e-4 -0.0037 0.0015-0.0057 0.0021-8e-4 2.52e-4 -0.0018 2.75e-4 -0.0026 5.16e-4 -0.0018 5e-4 -0.0038 0.0011-0.0057 0.0015-7.2e-4 1.87e-4 -0.0014 3.41e-4 -0.0021 5.17e-4 -0.0022 6e-4 -4e-3 0.0011-0.0062 0.0016-6.8e-4 1.37e-4 -0.0014 3.87e-4 -0.0021 5.16e-4 -0.0026 5e-4 -0.0052 0.0012-0.0077 0.0016-0.0019 2.76e-4 -0.0038 3.01e-4 -0.0057 5.16e-4 -0.0033 3.33e-4 -0.0065 8.56e-4 -0.0098 1e-3h-5.17e-4c-3.32e-4 1.7e-5 -6.98e-4 -1.5e-5 -1e-3 0-0.0026 1.18e-4 -0.0056 0-0.0083 0-0.0028 0-0.0055 1.32e-4 -0.0083 0-3.41e-4 -1.7e-5 -6.88e-4 1.8e-5 -1e-3 0-5e-3 -2e-4 -0.01-8.43e-4 -0.01499-0.0015h-5.17e-4c-5.3e-4 -7.8e-5 -1e-3 -4.36e-4 -0.0015-5.17e-4 -0.0022-2.99e-4 -0.0046-6.2e-4 -0.0067-1e-3 -6.9e-4 -1.33e-4 -0.0014-3.75e-4 -0.0021-5.16e-4 -2e-3 -4.01e-4 -0.0038-0.0011-0.0057-0.0016h-5.17e-4c-6.8e-4 -1.66e-4 -0.0014-3.41e-4 -0.0021-5.17e-4 -0.0019-3.99e-4 -0.0038-9.95e-4 -0.0057-0.0015h-5.17e-4c-7e-4 -2.07e-4 -0.0014-3.01e-4 -0.0021-5.16e-4 -0.0019-6.01e-4 -0.0038-0.0014-0.0057-0.0021-0.0027-9e-4 -0.0052-2e-3 -0.0077-0.0031h-5.17e-4c-6.6e-4 -2.69e-4 -0.0014-2.4e-4 -0.0021-5.17e-4 -0.0015-7e-4 -0.0031-0.0014-0.0046-0.0021l-5.16e-4 -5.17e-4h-5.17e-4l-5.17e-4 -5.16e-4c-0.0023-0.0011-0.0045-0.0019-0.0067-0.0031-6.8e-4 -3.22e-4 -0.0014-6.69e-4 -0.0021-1e-3 -0.0018-1e-3 -0.0034-0.0026-0.0052-0.0036h-5.16e-4c-5.3e-4 -2.83e-4 -1e-3 -7.11e-4 -0.0015-1e-3 -0.0015-9e-4 -0.0037-0.0021-0.0052-0.0031l-5.17e-4 -5.16e-4c-0.0015-1e-3 -0.0031-2e-3 -0.0046-0.0031l-5.17e-4 -5.17e-4c-5e-4 -3.28e-4 -1e-3 -6.66e-4 -0.0015-1e-3h-5.17e-4c-3.84e-4 -2.52e-4 -6.47e-4 -7.44e-4 -1e-3 -1e-3 -0.0014-0.0011-0.0027-0.0025-0.0041-0.0036-4.9e-4 -3.6e-4 -0.0011-6.34e-4 -0.0015-1e-3 -2.87e-4 -2.36e-4 -7.44e-4 -2.77e-4 -1e-3 -5.16e-4 -0.0019-0.0016-0.0033-0.0035-0.0052-0.0052h-1e-3c-0.0021-0.0019-0.0042-0.0037-0.0062-0.0057v-5.17e-4l-0.0057-0.0062-1.0578-1.0573c-0.068-0.068-0.068-0.17746 0-0.24546s0.17746-0.06799 0.24546 0l0.76738 0.76738v-2.0109c0-0.093154 0.07288-0.169 0.16484-0.17363z" fill="#fbfbfb" fill-rule="evenodd" opacity=".8" stroke-linecap="round" stroke-linejoin="round" stroke-opacity=".76863" stroke-width=".57342" style="paint-order:stroke fill markers"/>
</svg>
