<?xml version="1.0" encoding="UTF-8"?>
<!-- Created with Inkscape (http://www.inkscape.org/) -->
<svg width="64" height="64" version="1.1" viewBox="0 0 16.933 16.933" xmlns="http://www.w3.org/2000/svg">
 <defs>
  <linearGradient id="linearGradient60884-3" x1="157.33" x2="247.31" y1="69.985" y2="69.985" gradientTransform="matrix(.18033 0 0 .18033 -28.018 -4.154)" gradientUnits="userSpaceOnUse">
   <stop stop-color="#861b98" offset="0"/>
   <stop stop-color="#085ee0" offset="1"/>
  </linearGradient>
  <linearGradient id="linearGradient47593-7" x1="193.68" x2="193.68" y1="43.371" y2="103.22" gradientTransform="matrix(.17854 0 0 .18033 -27.733 -4.154)" gradientUnits="userSpaceOnUse">
   <stop stop-color="#07effe" offset="0"/>
   <stop stop-color="#0b92e5" offset="1"/>
  </linearGradient>
  <linearGradient id="linearGradient2806" x1=".70715" x2=".70715" y1="14.743" y2="3.5389" gradientTransform="translate(3.8869)" gradientUnits="userSpaceOnUse">
   <stop stop-color="#075e91" offset="0"/>
   <stop stop-color="#077faa" stop-opacity="0" offset=".1"/>
   <stop stop-color="#07effe" stop-opacity="0" offset="1"/>
  </linearGradient>
 </defs>
 <g transform="matrix(1.0116 0 0 1.0116 -.098288 -.098288)" fill-rule="evenodd" stroke-width=".18033">
  <rect x=".35363" y="2.1895" width="16.226" height="12.554" ry="1.0321" fill="url(#linearGradient60884-3)" style="paint-order:stroke fill markers"/>
  <rect x=".89201" y="3.098" width="15.149" height="11.645" ry=".57776" fill="#1d3857" style="paint-order:stroke fill markers"/>
  <rect x=".89201" y="4.0051" width="15.149" height="10.738" ry=".53277" fill="#3a6caa" style="paint-order:stroke fill markers"/>
  <rect x=".89201" y="4.8627" width="15.149" height="9.8806" ry=".49021" fill="#afd3ff" style="paint-order:stroke fill markers"/>
  <path d="m1.0441 3.4756c-0.3812 0-0.70944 0.31049-0.68801 0.6949 0 3.2261 0.006876 6.4273 0.006876 9.6787 0.029708 0.49446 0.39458 0.89426 0.88504 0.89426h14.418c0.49046 0 0.91104-0.39889 0.91106-0.89426l1.51e-4 -4.437c0-0.062932 7.22e-4 -0.11817 7.22e-4 -0.18139v-2.875c0-0.052902-0.0053-0.10445-0.01533-0.15427-0.01005-0.04982-0.02485-0.097971-0.04394-0.1437-0.01909-0.04573-0.04226-0.088984-0.0694-0.12961-0.02713-0.040628-0.05823-0.078539-0.09241-0.11306-0.03418-0.034519-0.07171-0.065932-0.11194-0.093335s-0.08305-0.050812-0.12833-0.070089c-0.04527-0.019277-0.09295-0.034236-0.14228-0.044377-0.04932-0.010144-0.10036-0.015498-0.15274-0.015498h-6.9099c-0.046504 0-0.092482-0.00243-0.13774-0.00704-0.045259-0.0046184-0.089763-0.011426-0.13356-0.020432-0.043791-0.0090057-0.086917-0.019936-0.12902-0.033107-0.042107-0.013173-0.083249-0.028671-0.12344-0.045788-0.040197-0.017115-0.07945-0.035871-0.11752-0.056705-0.038068-0.020835-0.075178-0.043647-0.11089-0.067975-0.035714-0.02433-0.070078-0.050236-0.10322-0.077838-0.033141-0.027601-0.064856-0.056699-0.095198-0.087348-0.030348-0.030649-0.059156-0.063032-0.086483-0.096505s-0.053327-0.068181-0.077414-0.10425c-0.024088-0.036072-0.046325-0.073201-0.066953-0.11165-0.020628-0.038448-0.039546-0.078094-0.056492-0.11869-0.016951-0.0406-0.031944-0.082153-0.044983-0.12468-0.013038-0.042529-0.024213-0.086084-0.033128-0.13032-0.0089083-0.044233-0.015653-0.089182-0.020226-0.1349-0.00444-0.044336-0.00683-0.089372-0.00698-0.1349 0-0.052902-0.0053-0.10445-0.015328-0.15427-0.010043-0.04982-0.02485-0.097972-0.043938-0.1437-0.019084-0.045728-0.042262-0.088984-0.069393-0.12961-0.027131-0.040628-0.058232-0.078539-0.092408-0.11306-0.034178-0.034521-0.071712-0.065932-0.11194-0.093335-0.040224-0.027403-0.083053-0.050812-0.12833-0.070089-0.045276-0.019277-0.092951-0.034236-0.14228-0.044378-0.049326-0.010144-0.10036-0.015498-0.15274-0.015498h-3.3925z" fill="url(#linearGradient47593-7)" opacity=".8" style="paint-order:stroke fill markers"/>
  <path d="m1.0441 3.4756c-0.3812 0-0.70944 0.31049-0.68801 0.6949 0 3.2261 0.00688 6.4273 0.00688 9.6787 0.029708 0.49446 0.39458 0.89426 0.88504 0.89426h14.418c0.49046 0 0.91104-0.39889 0.91106-0.89426l1.51e-4 -4.437c0-0.062932 7.22e-4 -0.11817 7.22e-4 -0.18139v-2.875c0-0.052902-0.0053-0.10445-0.01533-0.15427-0.01005-0.04982-0.02485-0.097971-0.04394-0.1437-0.01909-0.04573-0.04226-0.088984-0.0694-0.12961-0.02713-0.040628-0.05823-0.078539-0.09241-0.11306-0.03418-0.034519-0.07171-0.065932-0.11194-0.093335s-0.08305-0.050812-0.12833-0.070089c-0.04527-0.019277-0.09295-0.034236-0.14228-0.044377-0.04932-0.010144-0.10036-0.015498-0.15274-0.015498h-6.9099c-0.046504 0-0.092482-0.00243-0.13774-0.00704-0.045259-0.0046184-0.089763-0.011426-0.13356-0.020432-0.043791-0.0090057-0.086917-0.019936-0.12902-0.033107-0.042107-0.013173-0.083249-0.028671-0.12344-0.045788-0.040197-0.017115-0.07945-0.035871-0.11752-0.056705-0.038068-0.020835-0.075178-0.043647-0.11089-0.067975-0.035714-0.02433-0.070078-0.050236-0.10322-0.077838-0.033141-0.027601-0.064856-0.056699-0.095198-0.087348-0.030348-0.030649-0.059156-0.063032-0.086483-0.096505s-0.053327-0.068181-0.077414-0.10425c-0.024088-0.036072-0.046325-0.073201-0.066953-0.11165-0.020628-0.038448-0.039546-0.078094-0.056492-0.11869-0.016951-0.0406-0.031944-0.082153-0.044983-0.12468-0.013038-0.042529-0.024213-0.086084-0.033128-0.13032-0.00891-0.044233-0.015653-0.089182-0.020226-0.1349-0.00444-0.044336-0.00683-0.089372-0.00698-0.1349 0-0.052902-0.0053-0.10445-0.015328-0.15427-0.010043-0.04982-0.02485-0.097972-0.043938-0.1437-0.019084-0.045728-0.042262-0.088984-0.069393-0.12961-0.027131-0.040628-0.058232-0.078539-0.092408-0.11306-0.034178-0.034521-0.071712-0.065932-0.11194-0.093335-0.040224-0.027403-0.083053-0.050812-0.12833-0.070089-0.045276-0.019277-0.092951-0.034236-0.14228-0.044378-0.049326-0.010144-0.10036-0.015498-0.15274-0.015498h-3.3925z" fill="url(#linearGradient2806)" opacity=".8" style="paint-order:stroke fill markers"/>
 </g>
 <path d="m12.408 7.9372c-0.52915 0.48353-0.93665 1.0701-1.1951 1.7209 0.07906 0.079063 0.13037 0.18291 0.14555 0.29848 0.16117 0.054738 0.32839 0.09733 0.49869 0.12774 0.05778-0.75419 0.28311-1.481 0.65715-2.1348-0.03646-0.00303-0.07279-0.00923-0.10625-0.012283zm-0.60249 0.012283c-0.75724 0.10643-1.4172 0.5378-1.8339 1.146 0.18855 0.18855 0.39584 0.35573 0.61784 0.49562 0.0669-0.042559 0.14581-0.069445 0.23399-0.075541 0.22504-0.57476 0.55932-1.1039 0.98204-1.5661zm1.4537 0.21864c-0.0882 0.30715-0.12764 0.62649-0.12467 0.9458 3e-3 0.22502 0.02748 0.44431 0.07308 0.66022 0.14903 0.00304 0.28278 0.072929 0.37402 0.1824 0.3467-0.11858 0.67539-0.28901 0.97037-0.51405-0.2676-0.55957-0.73022-1.0128-1.2928-1.2744zm-0.45939 0.12467c-0.30106 0.5626-0.48014 1.1892-0.52879 1.8369 0.06996 0.0061 0.14315 0.0061 0.21311 0.0061 0.07906 0 0.15492-0.0031 0.23399-0.0092 0.01824-0.06685 0.05451-0.13068 0.10011-0.18237-0.06385-0.26764-0.09714-0.54754-0.10011-0.83034-3e-3 -0.27978 0.0239-0.55655 0.08168-0.82113zm-3.0438 1.1829c-0.15813 0.33753-0.24321 0.70888-0.24321 1.1012 0 0.03955 9.94e-5 0.08205 0.00306 0.1216 0.29498 0.24937 0.61377 0.45915 0.95133 0.62337 3e-3 -0.30411 0.03373-0.60845 0.09151-0.90342-0.12468-0.09124-0.2039-0.2399-0.2039-0.40411 0-0.024325 0.0032-0.045689 0.0061-0.070014-0.21591-0.1338-0.41943-0.29224-0.60494-0.4686zm4.9538 0.37402c-0.31625 0.222-0.66009 0.39237-1.025 0.51098-0.02128 0.11252-0.07877 0.21012-0.15784 0.28313 0.17335 0.32234 0.3982 0.61416 0.67189 0.86658 0.17636-0.06689 0.34989-0.14582 0.52019-0.23706 0.06084-0.222 0.09397-0.45622 0.09397-0.69645 0-0.25241-0.03625-0.49603-0.10318-0.72716zm-3.4792 0.50484c-0.06996 0.07602-0.16377 0.13103-0.26716 0.15231-0.06084 0.32542-0.08838 0.65982-0.07923 0.99739 0.3102 0.11858 0.63266 0.20374 0.95808 0.25242 0.03038-0.05779 0.07298-0.10976 0.12467-0.15231-0.07907-0.35884-0.1217-0.72653-0.12467-1.1006-0.20985-0.03346-0.41406-0.08537-0.6117-0.14924zm1.5452 0.18548c-0.0973 0.0091-0.19442 0.01228-0.29172 0.01228h-6.14e-4c-0.07301 0-0.1487-4.5e-5 -0.22171-0.0061 3e-3 0.32539 0.04246 0.64482 0.11239 0.95501 0.1703 0.02737 0.31322 0.14588 0.37709 0.30708 0.33757-0.01522 0.6751-0.06657 1.0035-0.15477-0.25546-0.26455-0.46839-0.56268-0.63565-0.88806-0.14294-0.02432-0.2673-0.10678-0.34331-0.2254zm-3.1598 0.7634c0.16726 0.5778 0.52918 1.08 1.0097 1.4236-0.0821-0.30715-0.131-0.62092-0.14924-0.9372-0.29803-0.1338-0.58978-0.29483-0.86043-0.48641zm1.2928 0.65407c0.0365 0.36798 0.12167 0.72682 0.25242 1.0705 0.3102 0.12771 0.6477 0.20083 1.0005 0.20083 0.15813 1e-6 0.31285-0.01561 0.46185-0.04299-0.13986-0.21896-0.26137-0.45006-0.36174-0.68724-0.20677-0.0091-0.38025-0.14001-0.45018-0.3255-0.30411-0.04259-0.6078-0.1152-0.90281-0.21557zm3.2053 0.02395c-0.45009 0.14598-0.9123 0.22555-1.3806 0.24382-0.02131 0.04256-0.04884 0.08511-0.0823 0.11853 0.10951 0.25546 0.24044 0.49848 0.39552 0.72962 0.50787-0.18245 0.94516-0.51702 1.2584-0.94887-0.06387-0.0456-0.12713-0.09137-0.191-0.1431z" fill="#fbfbfb" fill-rule="evenodd" opacity=".8" stroke-linecap="round" stroke-linejoin="round" stroke-opacity=".76863" stroke-width=".18993" style="paint-order:stroke fill markers"/>
</svg>
