<?xml version="1.0" encoding="UTF-8"?>
<svg width="64" height="64" version="1.1" viewBox="0 0 16.933 16.933" xmlns="http://www.w3.org/2000/svg" xmlns:cc="http://creativecommons.org/ns#" xmlns:dc="http://purl.org/dc/elements/1.1/" xmlns:rdf="http://www.w3.org/1999/02/22-rdf-syntax-ns#">
 <defs>
  <linearGradient id="linearGradient60884-3" x1="157.33" x2="247.31" y1="69.985" y2="69.985" gradientTransform="matrix(.18033 0 0 .18033 -28.018 -4.154)" gradientUnits="userSpaceOnUse">
   <stop stop-color="#861b98" offset="0"/>
   <stop stop-color="#085ee0" offset="1"/>
  </linearGradient>
  <linearGradient id="linearGradient47593-7" x1="193.68" x2="193.68" y1="43.371" y2="103.22" gradientTransform="matrix(.17854 0 0 .18033 -27.733 -4.154)" gradientUnits="userSpaceOnUse">
   <stop stop-color="#07effe" offset="0"/>
   <stop stop-color="#0b92e5" offset="1"/>
  </linearGradient>
  <linearGradient id="linearGradient2806" x1=".70715" x2=".70715" y1="14.743" y2="3.5389" gradientTransform="translate(3.8869)" gradientUnits="userSpaceOnUse">
   <stop stop-color="#075e91" offset="0"/>
   <stop stop-color="#077faa" stop-opacity="0" offset=".1"/>
   <stop stop-color="#07effe" stop-opacity="0" offset="1"/>
  </linearGradient>
 </defs>
 <metadata>
  <rdf:RDF>
   <cc:Work rdf:about="">
    <dc:format>image/svg+xml</dc:format>
    <dc:type rdf:resource="http://purl.org/dc/dcmitype/StillImage"/>
   </cc:Work>
  </rdf:RDF>
 </metadata>
 <g transform="matrix(1.0116 0 0 1.0116 -.098288 -.098288)" fill-rule="evenodd" stroke-width=".18033">
  <rect x=".35363" y="2.1895" width="16.226" height="12.554" ry="1.0321" fill="url(#linearGradient60884-3)" style="paint-order:stroke fill markers"/>
  <rect x=".89201" y="3.098" width="15.149" height="11.645" ry=".57776" fill="#1d3857" style="paint-order:stroke fill markers"/>
  <rect x=".89201" y="4.0051" width="15.149" height="10.738" ry=".53277" fill="#3a6caa" style="paint-order:stroke fill markers"/>
  <rect x=".89201" y="4.8627" width="15.149" height="9.8806" ry=".49021" fill="#afd3ff" style="paint-order:stroke fill markers"/>
  <path d="m1.0441 3.4756c-0.3812 0-0.70944 0.31049-0.68801 0.6949 0 3.2261 0.006876 6.4273 0.006876 9.6787 0.029708 0.49446 0.39458 0.89426 0.88504 0.89426h14.418c0.49046 0 0.91104-0.39889 0.91106-0.89426l1.51e-4 -4.437c0-0.062932 7.22e-4 -0.11817 7.22e-4 -0.18139v-2.875c0-0.052902-0.0053-0.10445-0.01533-0.15427-0.01005-0.04982-0.02485-0.097971-0.04394-0.1437-0.01909-0.04573-0.04226-0.088984-0.0694-0.12961-0.02713-0.040628-0.05823-0.078539-0.09241-0.11306-0.03418-0.034519-0.07171-0.065932-0.11194-0.093335s-0.08305-0.050812-0.12833-0.070089c-0.04527-0.019277-0.09295-0.034236-0.14228-0.044377-0.04932-0.010144-0.10036-0.015498-0.15274-0.015498h-6.9099c-0.046504 0-0.092482-0.00243-0.13774-0.00704-0.045259-0.0046184-0.089763-0.011426-0.13356-0.020432-0.043791-0.0090057-0.086917-0.019936-0.12902-0.033107-0.042107-0.013173-0.083249-0.028671-0.12344-0.045788-0.040197-0.017115-0.07945-0.035871-0.11752-0.056705-0.038068-0.020835-0.075178-0.043647-0.11089-0.067975-0.035714-0.02433-0.070078-0.050236-0.10322-0.077838-0.033141-0.027601-0.064856-0.056699-0.095198-0.087348-0.030348-0.030649-0.059156-0.063032-0.086483-0.096505s-0.053327-0.068181-0.077414-0.10425c-0.024088-0.036072-0.046325-0.073201-0.066953-0.11165-0.020628-0.038448-0.039546-0.078094-0.056492-0.11869-0.016951-0.0406-0.031944-0.082153-0.044983-0.12468-0.013038-0.042529-0.024213-0.086084-0.033128-0.13032-0.0089083-0.044233-0.015653-0.089182-0.020226-0.1349-0.00444-0.044336-0.00683-0.089372-0.00698-0.1349 0-0.052902-0.0053-0.10445-0.015328-0.15427-0.010043-0.04982-0.02485-0.097972-0.043938-0.1437-0.019084-0.045728-0.042262-0.088984-0.069393-0.12961-0.027131-0.040628-0.058232-0.078539-0.092408-0.11306-0.034178-0.034521-0.071712-0.065932-0.11194-0.093335-0.040224-0.027403-0.083053-0.050812-0.12833-0.070089-0.045276-0.019277-0.092951-0.034236-0.14228-0.044378-0.049326-0.010144-0.10036-0.015498-0.15274-0.015498h-3.3925z" fill="url(#linearGradient47593-7)" opacity=".8" style="paint-order:stroke fill markers"/>
  <path d="m1.0441 3.4756c-0.3812 0-0.70944 0.31049-0.68801 0.6949 0 3.2261 0.00688 6.4273 0.00688 9.6787 0.029708 0.49446 0.39458 0.89426 0.88504 0.89426h14.418c0.49046 0 0.91104-0.39889 0.91106-0.89426l1.51e-4 -4.437c0-0.062932 7.22e-4 -0.11817 7.22e-4 -0.18139v-2.875c0-0.052902-0.0053-0.10445-0.01533-0.15427-0.01005-0.04982-0.02485-0.097971-0.04394-0.1437-0.01909-0.04573-0.04226-0.088984-0.0694-0.12961-0.02713-0.040628-0.05823-0.078539-0.09241-0.11306-0.03418-0.034519-0.07171-0.065932-0.11194-0.093335s-0.08305-0.050812-0.12833-0.070089c-0.04527-0.019277-0.09295-0.034236-0.14228-0.044377-0.04932-0.010144-0.10036-0.015498-0.15274-0.015498h-6.9099c-0.046504 0-0.092482-0.00243-0.13774-0.00704-0.045259-0.0046184-0.089763-0.011426-0.13356-0.020432-0.043791-0.0090057-0.086917-0.019936-0.12902-0.033107-0.042107-0.013173-0.083249-0.028671-0.12344-0.045788-0.040197-0.017115-0.07945-0.035871-0.11752-0.056705-0.038068-0.020835-0.075178-0.043647-0.11089-0.067975-0.035714-0.02433-0.070078-0.050236-0.10322-0.077838-0.033141-0.027601-0.064856-0.056699-0.095198-0.087348-0.030348-0.030649-0.059156-0.063032-0.086483-0.096505s-0.053327-0.068181-0.077414-0.10425c-0.024088-0.036072-0.046325-0.073201-0.066953-0.11165-0.020628-0.038448-0.039546-0.078094-0.056492-0.11869-0.016951-0.0406-0.031944-0.082153-0.044983-0.12468-0.013038-0.042529-0.024213-0.086084-0.033128-0.13032-0.00891-0.044233-0.015653-0.089182-0.020226-0.1349-0.00444-0.044336-0.00683-0.089372-0.00698-0.1349 0-0.052902-0.0053-0.10445-0.015328-0.15427-0.010043-0.04982-0.02485-0.097972-0.043938-0.1437-0.019084-0.045728-0.042262-0.088984-0.069393-0.12961-0.027131-0.040628-0.058232-0.078539-0.092408-0.11306-0.034178-0.034521-0.071712-0.065932-0.11194-0.093335-0.040224-0.027403-0.083053-0.050812-0.12833-0.070089-0.045276-0.019277-0.092951-0.034236-0.14228-0.044378-0.049326-0.010144-0.10036-0.015498-0.15274-0.015498h-3.3925z" fill="url(#linearGradient2806)" opacity=".8" style="paint-order:stroke fill markers"/>
 </g>
 <path d="m12.334 10.409 2.2996-1.2878c-0.03873-0.038732-0.08472-0.070199-0.14523-0.10167l-1.6969-0.95374c-0.15008-0.084724-0.305-0.12829-0.45507-0.12829-0.1525 0-0.30742 0.043571-0.4575 0.12829l-1.6969 0.95374c-0.0581 0.03147-0.10651 0.062936-0.14524 0.10167zm-0.17671 2.8201v-2.5054l-2.2827-1.2878c-0.01211 0.048413-0.01695 0.099247-0.01695 0.15976v1.9365c0 0.34614 0.12103 0.48413 0.35584 0.61726l1.8736 1.0506c0.02179 0.01212 0.04599 0.02421 0.0702 0.02905zm0.35584 0c0.02421-0.0049 0.046-0.01694 0.0702-0.02905l1.8736-1.0506c0.23482-0.13314 0.35584-0.27112 0.35584-0.61726v-1.9365c0-0.060512-0.0049-0.11135-0.01694-0.15976l-2.2827 1.2878z" fill="#fbfbfb" opacity=".8" stroke-width=".27542"/>
</svg>
