<?xml version="1.0" encoding="UTF-8"?>
<svg width="64" height="64" version="1.1" viewBox="0 0 16.933 16.933" xmlns="http://www.w3.org/2000/svg" xmlns:cc="http://creativecommons.org/ns#" xmlns:dc="http://purl.org/dc/elements/1.1/" xmlns:rdf="http://www.w3.org/1999/02/22-rdf-syntax-ns#" xmlns:xlink="http://www.w3.org/1999/xlink">
 <defs>
  <style type="text/css"/>
  <style type="text/css"/>
  <style type="text/css"/>
  <style type="text/css"/>
  <style type="text/css"/>
  <linearGradient id="linearGradient60884-3" x1="157.33" x2="247.31" y1="69.985" y2="69.985" gradientTransform="matrix(.18033 0 0 .18033 -28.018 -4.154)" gradientUnits="userSpaceOnUse">
   <stop stop-color="#861b98" offset="0"/>
   <stop stop-color="#085ee0" offset="1"/>
  </linearGradient>
  <linearGradient id="linearGradient47593-7" x1="193.68" x2="193.68" y1="43.371" y2="103.22" gradientTransform="matrix(.17854 0 0 .18033 -27.733 -4.154)" gradientUnits="userSpaceOnUse">
   <stop stop-color="#07effe" offset="0"/>
   <stop stop-color="#0b92e5" offset="1"/>
  </linearGradient>
  <linearGradient id="linearGradient2806" x1=".70715" x2=".70715" y1="14.743" y2="3.5389" gradientTransform="translate(3.8869)" gradientUnits="userSpaceOnUse">
   <stop stop-color="#075e91" offset="0"/>
   <stop stop-color="#077faa" stop-opacity="0" offset=".1"/>
   <stop stop-color="#07effe" stop-opacity="0" offset="1"/>
  </linearGradient>
  <linearGradient id="linearGradient1503" x1="5.8223" x2="11.111" y1="9.7894" y2="9.7894" gradientTransform="translate(-25.549)" gradientUnits="userSpaceOnUse">
   <stop stop-color="#005fff" offset="0"/>
   <stop stop-color="#f0f" offset="1"/>
  </linearGradient>
  <linearGradient id="linearGradient1505" x1="157.33" x2="247.31" y1="69.985" y2="69.985" gradientUnits="userSpaceOnUse">
   <stop stop-color="#861b98" offset="0"/>
   <stop stop-color="#085ee0" offset="1"/>
  </linearGradient>
  <linearGradient id="linearGradient1507" x1="193.68" x2="193.68" y1="43.371" y2="103.22" gradientTransform="matrix(.99008 0 0 1 1.5215 0)" gradientUnits="userSpaceOnUse">
   <stop stop-color="#07effe" offset="0"/>
   <stop stop-color="#0b92e5" offset="1"/>
  </linearGradient>
  <linearGradient id="linearGradient1509" x1="202.53" x2="202.53" y1="104.19" y2="42.725" gradientTransform="matrix(.99008 0 0 1 1.5215 0)" gradientUnits="userSpaceOnUse">
   <stop stop-color="#075e91" offset="0"/>
   <stop stop-color="#077faa" stop-opacity="0" offset=".1"/>
   <stop stop-color="#07effe" stop-opacity="0" offset="1"/>
  </linearGradient>
 </defs>
 <metadata>
  <rdf:RDF>
   <cc:Work rdf:about="">
    <dc:format>image/svg+xml</dc:format>
    <dc:type rdf:resource="http://purl.org/dc/dcmitype/StillImage"/>
   </cc:Work>
  </rdf:RDF>
 </metadata>
 <g transform="matrix(1.0116 0 0 1.0116 -.098288 -.098288)" fill-rule="evenodd" stroke-width=".18033">
  <rect x=".35363" y="2.1895" width="16.226" height="12.554" ry="1.0321" fill="url(#linearGradient60884-3)" style="paint-order:stroke fill markers"/>
  <rect x=".89201" y="3.098" width="15.149" height="11.645" ry=".57776" fill="#1d3857" style="paint-order:stroke fill markers"/>
  <rect x=".89201" y="4.0051" width="15.149" height="10.738" ry=".53277" fill="#3a6caa" style="paint-order:stroke fill markers"/>
  <rect x=".89201" y="4.8627" width="15.149" height="9.8806" ry=".49021" fill="#afd3ff" style="paint-order:stroke fill markers"/>
  <path d="m1.0441 3.4756c-0.3812 0-0.70944 0.31049-0.68801 0.6949 0 3.2261 0.006876 6.4273 0.006876 9.6787 0.029708 0.49446 0.39458 0.89426 0.88504 0.89426h14.418c0.49046 0 0.91104-0.39889 0.91106-0.89426l1.51e-4 -4.437c0-0.062932 7.22e-4 -0.11817 7.22e-4 -0.18139v-2.875c0-0.052902-0.0053-0.10445-0.01533-0.15427-0.01005-0.04982-0.02485-0.097971-0.04394-0.1437-0.01909-0.04573-0.04226-0.088984-0.0694-0.12961-0.02713-0.040628-0.05823-0.078539-0.09241-0.11306-0.03418-0.034519-0.07171-0.065932-0.11194-0.093335s-0.08305-0.050812-0.12833-0.070089c-0.04527-0.019277-0.09295-0.034236-0.14228-0.044377-0.04932-0.010144-0.10036-0.015498-0.15274-0.015498h-6.9099c-0.046504 0-0.092482-0.00243-0.13774-0.00704-0.045259-0.0046184-0.089763-0.011426-0.13356-0.020432-0.043791-0.0090057-0.086917-0.019936-0.12902-0.033107-0.042107-0.013173-0.083249-0.028671-0.12344-0.045788-0.040197-0.017115-0.07945-0.035871-0.11752-0.056705-0.038068-0.020835-0.075178-0.043647-0.11089-0.067975-0.035714-0.02433-0.070078-0.050236-0.10322-0.077838-0.033141-0.027601-0.064856-0.056699-0.095198-0.087348-0.030348-0.030649-0.059156-0.063032-0.086483-0.096505s-0.053327-0.068181-0.077414-0.10425c-0.024088-0.036072-0.046325-0.073201-0.066953-0.11165-0.020628-0.038448-0.039546-0.078094-0.056492-0.11869-0.016951-0.0406-0.031944-0.082153-0.044983-0.12468-0.013038-0.042529-0.024213-0.086084-0.033128-0.13032-0.0089083-0.044233-0.015653-0.089182-0.020226-0.1349-0.00444-0.044336-0.00683-0.089372-0.00698-0.1349 0-0.052902-0.0053-0.10445-0.015328-0.15427-0.010043-0.04982-0.02485-0.097972-0.043938-0.1437-0.019084-0.045728-0.042262-0.088984-0.069393-0.12961-0.027131-0.040628-0.058232-0.078539-0.092408-0.11306-0.034178-0.034521-0.071712-0.065932-0.11194-0.093335-0.040224-0.027403-0.083053-0.050812-0.12833-0.070089-0.045276-0.019277-0.092951-0.034236-0.14228-0.044378-0.049326-0.010144-0.10036-0.015498-0.15274-0.015498h-3.3925z" fill="url(#linearGradient47593-7)" opacity=".8" style="paint-order:stroke fill markers"/>
  <path d="m1.0441 3.4756c-0.3812 0-0.70944 0.31049-0.68801 0.6949 0 3.2261 0.00688 6.4273 0.00688 9.6787 0.029708 0.49446 0.39458 0.89426 0.88504 0.89426h14.418c0.49046 0 0.91104-0.39889 0.91106-0.89426l1.51e-4 -4.437c0-0.062932 7.22e-4 -0.11817 7.22e-4 -0.18139v-2.875c0-0.052902-0.0053-0.10445-0.01533-0.15427-0.01005-0.04982-0.02485-0.097971-0.04394-0.1437-0.01909-0.04573-0.04226-0.088984-0.0694-0.12961-0.02713-0.040628-0.05823-0.078539-0.09241-0.11306-0.03418-0.034519-0.07171-0.065932-0.11194-0.093335s-0.08305-0.050812-0.12833-0.070089c-0.04527-0.019277-0.09295-0.034236-0.14228-0.044377-0.04932-0.010144-0.10036-0.015498-0.15274-0.015498h-6.9099c-0.046504 0-0.092482-0.00243-0.13774-0.00704-0.045259-0.0046184-0.089763-0.011426-0.13356-0.020432-0.043791-0.0090057-0.086917-0.019936-0.12902-0.033107-0.042107-0.013173-0.083249-0.028671-0.12344-0.045788-0.040197-0.017115-0.07945-0.035871-0.11752-0.056705-0.038068-0.020835-0.075178-0.043647-0.11089-0.067975-0.035714-0.02433-0.070078-0.050236-0.10322-0.077838-0.033141-0.027601-0.064856-0.056699-0.095198-0.087348-0.030348-0.030649-0.059156-0.063032-0.086483-0.096505s-0.053327-0.068181-0.077414-0.10425c-0.024088-0.036072-0.046325-0.073201-0.066953-0.11165-0.020628-0.038448-0.039546-0.078094-0.056492-0.11869-0.016951-0.0406-0.031944-0.082153-0.044983-0.12468-0.013038-0.042529-0.024213-0.086084-0.033128-0.13032-0.00891-0.044233-0.015653-0.089182-0.020226-0.1349-0.00444-0.044336-0.00683-0.089372-0.00698-0.1349 0-0.052902-0.0053-0.10445-0.015328-0.15427-0.010043-0.04982-0.02485-0.097972-0.043938-0.1437-0.019084-0.045728-0.042262-0.088984-0.069393-0.12961-0.027131-0.040628-0.058232-0.078539-0.092408-0.11306-0.034178-0.034521-0.071712-0.065932-0.11194-0.093335-0.040224-0.027403-0.083053-0.050812-0.12833-0.070089-0.045276-0.019277-0.092951-0.034236-0.14228-0.044378-0.049326-0.010144-0.10036-0.015498-0.15274-0.015498h-3.3925z" fill="url(#linearGradient2806)" opacity=".8" style="paint-order:stroke fill markers"/>
 </g>
 <g fill="#5e4aa6" stroke-width=".26458">
  <circle cx="-330.35" cy="-328.38" r="0"/>
  <circle cx="-312.11" cy="-326.25" r="0"/>
  <circle cx="-306.02" cy="-333.07" r="0"/>
  <circle cx="-308.84" cy="-326.01" r="0"/>
  <circle cx="-328.8" cy="-330.45" r="0"/>
  <g transform="translate(.000295 -.00032978)">
   <circle cx="-330.35" cy="-328.38" r="0"/>
   <circle cx="-312.11" cy="-326.25" r="0"/>
   <circle cx="-306.02" cy="-333.07" r="0"/>
   <circle cx="-308.84" cy="-326.01" r="0"/>
   <circle cx="-328.8" cy="-330.45" r="0"/>
  </g>
  <circle cx="-330.35" cy="-328.38" r="0"/>
  <circle cx="-312.11" cy="-326.25" r="0"/>
  <circle cx="-306.02" cy="-333.07" r="0"/>
  <circle cx="-308.84" cy="-326.01" r="0"/>
  <circle cx="-328.8" cy="-330.45" r="0"/>
  <g transform="translate(2.95e-4,-3.2978e-4)">
   <circle cx="-330.35" cy="-328.38" r="0"/>
   <circle cx="-312.11" cy="-326.25" r="0"/>
   <circle cx="-306.02" cy="-333.07" r="0"/>
   <circle cx="-308.84" cy="-326.01" r="0"/>
   <circle cx="-328.8" cy="-330.45" r="0"/>
  </g>
 </g>
 <path d="m14.752 10.283c-0.37497 0.4568-1.0147 1.1824-1.0147 1.1824s0.08478 0.85673 0.14555 1.4226c0.02638 0.2881-0.18123 0.41256-0.41656 0.30036-0.44748-0.22494-1.1436-0.66465-1.2969-0.74303-0.15591 0.07782-0.8291 0.51167-1.2811 0.73608-0.238 0.11193-0.448-0.01253-0.42136-0.30009 0.06156-0.56474 0.13463-1.4159 0.13463-1.4159s-0.63434-0.72899-1.0138-1.1852c-0.13405-0.16578-0.047963-0.40137 0.21641-0.44454 0.53942-0.10207 1.375-0.13403 1.375-0.13403s0.45706-0.9731 0.74622-1.4893c0.1591-0.31395 0.26918-0.27771 0.28809-0.26838 0.04904 0.016792 0.1266 0.077822 0.22761 0.26864 0.28597 0.51677 0.70833 1.489 0.70833 1.489s0.85555 0.034083 1.3886 0.13615c0.26118 0.04371 0.34646 0.27958 0.214 0.44534z" fill="#fbfbfb" opacity=".8" stroke-width=".0052087" p-id="13941"/>
 <g transform="matrix(.18033 0 0 .18033 -53.213 -4.1539)" fill-rule="evenodd">
  <rect x="157.33" y="35.177" width="89.978" height="69.616" ry="5.7233" fill="url(#linearGradient1505)" style="paint-order:stroke fill markers"/>
  <rect x="160.32" y="40.215" width="84.007" height="64.578" ry="3.2039" fill="#1d3857" style="paint-order:stroke fill markers"/>
  <rect x="160.32" y="45.245" width="84.007" height="59.548" ry="2.9544" fill="#3a6caa" style="paint-order:stroke fill markers"/>
  <rect x="160.32" y="50.001" width="84.007" height="54.792" ry="2.7184" fill="#afd3ff" style="paint-order:stroke fill markers"/>
  <path d="m157.23 42.309c-2.1139 0-3.9341 1.7218-3.8153 3.8535l1.4174 25.422 0.14696 2.6387c3e-3 0.0475 0.0153 0.09159 0.0193 0.13867l1.5315 25.473c0.16474 2.742 2.1881 4.959 4.9079 4.959h80.75c2.7198 0 5.0521-2.212 5.0522-4.959l8.4e-4 -24.605c0-0.34898 4e-3 -0.65531 4e-3 -1.0059v-15.943c0-0.29336-0.0294-0.5792-0.085-0.85547-0.0557-0.27627-0.13782-0.54329-0.24366-0.79688s-0.23436-0.49345-0.38482-0.71875c-0.15045-0.2253-0.32291-0.43553-0.51244-0.62695s-0.39767-0.36562-0.62074-0.51758c-0.22306-0.15196-0.46055-0.28177-0.71162-0.38867-0.25106-0.1069-0.51544-0.18985-0.78897-0.24609-0.27352-0.05625-0.55653-0.08594-0.84698-0.08594h-38.318c-0.25788 0-0.51285-0.01347-0.76383-0.03906s-0.49777-0.06334-0.74063-0.11328c-0.24284-0.04994-0.48199-0.11055-0.71548-0.18359-0.2335-0.07305-0.46165-0.15899-0.68455-0.25391-0.22291-0.09491-0.44058-0.19892-0.65167-0.31445-0.2111-0.11554-0.41689-0.24204-0.61494-0.37695-0.19805-0.13492-0.38861-0.27858-0.57239-0.43164s-0.35965-0.31442-0.52791-0.48438c-0.16829-0.16996-0.32804-0.34954-0.47958-0.53516s-0.29572-0.37809-0.42929-0.57812c-0.13358-0.20003-0.25689-0.40593-0.37128-0.61914s-0.2193-0.43306-0.31327-0.6582c-0.094-0.22514-0.17714-0.45557-0.24945-0.69141-0.0723-0.23584-0.13427-0.47737-0.18371-0.72266-0.0494-0.24529-0.0868-0.49455-0.11216-0.74805-0.0246-0.24586-0.0379-0.4956-0.0387-0.74805 0-0.29336-0.0294-0.5792-0.085-0.85547-0.0557-0.27627-0.13781-0.54329-0.24366-0.79688-0.10583-0.25358-0.23436-0.49345-0.38481-0.71875s-0.32292-0.43553-0.51244-0.62695c-0.18953-0.19143-0.39767-0.36562-0.62074-0.51758-0.22306-0.15196-0.46056-0.28177-0.71162-0.38867-0.25107-0.1069-0.51545-0.18985-0.78897-0.24609-0.27353-0.05625-0.55653-0.08594-0.84698-0.08594h-22.687z" fill="url(#linearGradient1507)" opacity=".8" style="paint-order:stroke fill markers"/>
  <path d="m157.23 42.309c-2.1139 0-3.9341 1.7218-3.8153 3.8535l1.4174 25.422 0.14696 2.6387c3e-3 0.0475 0.0153 0.09159 0.0193 0.13867l1.5315 25.473c0.16474 2.742 2.1881 4.959 4.9079 4.959h80.75c2.7198 0 5.0521-2.212 5.0522-4.959l8.4e-4 -24.605c0-0.34898 4e-3 -0.65531 4e-3 -1.0059v-15.943c0-0.29336-0.0294-0.5792-0.085-0.85547-0.0557-0.27627-0.13782-0.54329-0.24366-0.79688s-0.23436-0.49345-0.38482-0.71875c-0.15045-0.2253-0.32291-0.43553-0.51244-0.62695s-0.39767-0.36562-0.62074-0.51758c-0.22306-0.15196-0.46055-0.28177-0.71162-0.38867-0.25106-0.1069-0.51544-0.18985-0.78897-0.24609-0.27352-0.05625-0.55653-0.08594-0.84698-0.08594h-38.318c-0.25788 0-0.51285-0.01347-0.76383-0.03906s-0.49777-0.06334-0.74063-0.11328c-0.24284-0.04994-0.48199-0.11055-0.71548-0.18359-0.2335-0.07305-0.46165-0.15899-0.68455-0.25391-0.22291-0.09491-0.44058-0.19892-0.65167-0.31445-0.2111-0.11554-0.41689-0.24204-0.61494-0.37695-0.19805-0.13492-0.38861-0.27858-0.57239-0.43164s-0.35965-0.31442-0.52791-0.48438c-0.16829-0.16996-0.32804-0.34954-0.47958-0.53516s-0.29572-0.37809-0.42929-0.57812c-0.13358-0.20003-0.25689-0.40593-0.37128-0.61914s-0.2193-0.43306-0.31327-0.6582c-0.094-0.22514-0.17714-0.45557-0.24945-0.69141-0.0723-0.23584-0.13427-0.47737-0.18371-0.72266-0.0494-0.24529-0.0868-0.49455-0.11216-0.74805-0.0246-0.24586-0.0379-0.4956-0.0387-0.74805 0-0.29336-0.0294-0.5792-0.085-0.85547-0.0557-0.27627-0.13781-0.54329-0.24366-0.79688-0.10583-0.25358-0.23436-0.49345-0.38481-0.71875s-0.32292-0.43553-0.51244-0.62695c-0.18953-0.19143-0.39767-0.36562-0.62074-0.51758-0.22306-0.15196-0.46056-0.28177-0.71162-0.38867-0.25107-0.1069-0.51545-0.18985-0.78897-0.24609-0.27353-0.05625-0.55653-0.08594-0.84698-0.08594h-22.687z" fill="url(#linearGradient1509)" opacity=".8" style="paint-order:stroke fill markers"/>
 </g>
 <path d="m-14.5 9.4889c-0.37497 0.4568-1.0147 1.1824-1.0147 1.1824s0.08478 0.85673 0.14555 1.4226c0.02638 0.2881-0.18123 0.41256-0.41656 0.30036-0.44748-0.22494-1.1436-0.66465-1.2969-0.74303-0.15591 0.07782-0.8291 0.51167-1.2811 0.73608-0.238 0.11193-0.448-0.01253-0.42136-0.30009 0.06156-0.56474 0.13463-1.4159 0.13463-1.4159s-0.63434-0.72899-1.0138-1.1852c-0.13405-0.16578-0.04796-0.40137 0.21641-0.44454 0.53942-0.10207 1.375-0.13403 1.375-0.13403s0.45706-0.9731 0.74622-1.4893c0.1591-0.31395 0.26918-0.27771 0.28809-0.26838 0.04904 0.016792 0.1266 0.077822 0.22761 0.26864 0.28597 0.51677 0.70833 1.489 0.70833 1.489s0.85555 0.034083 1.3886 0.13615c0.26118 0.043707 0.34646 0.27958 0.214 0.44534z" fill="url(#linearGradient1503)" stroke-width=".0052087" p-id="13941"/>
</svg>
