<?xml version="1.0" encoding="UTF-8"?>
<svg width="64" height="64" version="1.1" xmlns="http://www.w3.org/2000/svg" xmlns:cc="http://creativecommons.org/ns#" xmlns:dc="http://purl.org/dc/elements/1.1/" xmlns:rdf="http://www.w3.org/1999/02/22-rdf-syntax-ns#" xmlns:xlink="http://www.w3.org/1999/xlink">
 <metadata>
  <rdf:RDF>
   <cc:Work rdf:about="">
    <dc:format>image/svg+xml</dc:format>
    <dc:type rdf:resource="http://purl.org/dc/dcmitype/StillImage"/>
   </cc:Work>
  </rdf:RDF>
 </metadata>
 <defs>
  <radialGradient id="radialGradient1612" cx="32" cy="32" r="30" gradientUnits="userSpaceOnUse">
   <stop stop-color="#ffd336" offset="0"/>
   <stop stop-color="#ffd336" offset=".80459"/>
   <stop stop-color="#ff9120" offset="1"/>
  </radialGradient>
  <radialGradient id="radialGradient24271" cx="32" cy="32" r="21.898" gradientUnits="userSpaceOnUse">
   <stop stop-color="#dc530d" offset="0"/>
   <stop stop-color="#f2a150" offset="1"/>
  </radialGradient>
 </defs>
 <path d="m32 2a30 30 0 0 0-30 30 30 30 0 0 0 30 30 30 30 0 0 0 30-30 30 30 0 0 0-30-30zm0 5.0703a24.93 24.93 0 0 1 24.93 24.93 24.93 24.93 0 0 1-24.93 24.93 24.93 24.93 0 0 1-24.93-24.93 24.93 24.93 0 0 1 24.93-24.93z" fill="url(#radialGradient1612)" stroke-linecap="round" stroke-width="1.5242"/>
 <path d="m34 10.102v19.898h19.89a22 22 0 0 0-19.89-19.898zm-4 0.0078a22 22 0 0 0-19.898 19.891h19.898zm-19.891 23.89a22 22 0 0 0 19.891 19.898v-19.898zm23.89 0v19.89a22 22 0 0 0 19.898-19.89z" fill="url(#radialGradient24271)"/>
</svg>
