<?xml version="1.0" encoding="UTF-8"?>
<svg width="64" height="64" version="1.1" xmlns="http://www.w3.org/2000/svg" xmlns:cc="http://creativecommons.org/ns#" xmlns:dc="http://purl.org/dc/elements/1.1/" xmlns:rdf="http://www.w3.org/1999/02/22-rdf-syntax-ns#" xmlns:xlink="http://www.w3.org/1999/xlink">
 <metadata>
  <rdf:RDF>
   <cc:Work rdf:about="">
    <dc:format>image/svg+xml</dc:format>
    <dc:type rdf:resource="http://purl.org/dc/dcmitype/StillImage"/>
   </cc:Work>
  </rdf:RDF>
 </metadata>
 <defs>
  <linearGradient id="linearGradient153111">
   <stop stop-color="#ffd902" offset="0"/>
   <stop stop-color="#e93a48" offset="1"/>
  </linearGradient>
  <linearGradient id="linearGradient27607" x1="25.662" x2="47.893" y1="43" y2="4.5" gradientUnits="userSpaceOnUse">
   <stop stop-color="#cf04f2" offset="0"/>
   <stop stop-color="#ffd902" offset="1"/>
  </linearGradient>
  <linearGradient id="linearGradient153113" x1="16.113" x2="25.662" y1="59.5" y2="43" gradientUnits="userSpaceOnUse" xlink:href="#linearGradient153111"/>
 </defs>
 <g fill="url(#linearGradient153113)">
  <path d="m11.65 28.73-6.6504 11.52 9.25 16.023 0.57812 1.002 1.2852 2.2246h22.225l6.6387-11.5h-6.3496l-3.4629 6h-12.699l3.4688-6h-3.1582l-1.5977-2.7676-3.4785 6.0176-0.28125-0.48633-6.0703-10.514 3.4766-6.0215-3.1738-5.498z" fill="url(#linearGradient153113)" stroke-width="1.375"/>
 </g>
 <path d="m25.662 4.5-11.113 19.25 11.113 19.25h2.584 0.57812 19.064l11.111-19.25-9.2227-15.984-0.57812-1.002-1.3066-2.2637h-22.23zm3.1738 5.5h12.703l-14.295 24.734-6.3457-10.984 7.9375-13.75zm17.469 2.748 0.29492 0.51172 6.0527 10.49-7.9395 13.75h-12.711l14.303-24.752z" color="#000000" fill="url(#linearGradient27607)" stroke-width="10" style="-inkscape-stroke:none"/>
</svg>
