<?xml version="1.0" encoding="UTF-8"?>
<svg width="64" height="64" version="1.1" xmlns="http://www.w3.org/2000/svg" xmlns:cc="http://creativecommons.org/ns#" xmlns:dc="http://purl.org/dc/elements/1.1/" xmlns:rdf="http://www.w3.org/1999/02/22-rdf-syntax-ns#" xmlns:xlink="http://www.w3.org/1999/xlink">
 <metadata>
  <rdf:RDF>
   <cc:Work rdf:about="">
    <dc:format>image/svg+xml</dc:format>
    <dc:type rdf:resource="http://purl.org/dc/dcmitype/StillImage"/>
   </cc:Work>
  </rdf:RDF>
 </metadata>
 <defs>
  <linearGradient id="linearGradient1886" x1="32.001" x2="32.001" y1="2.8007" y2="61.065" gradientUnits="userSpaceOnUse">
   <stop stop-color="#ff502d" offset="0"/>
   <stop stop-color="#fe7d37" offset="1"/>
  </linearGradient>
 </defs>
 <g fill="url(#linearGradient1886)" fill-rule="evenodd" stroke-linecap="round" stroke-linejoin="round">
  <path d="m32.001 2.8007c-0.87452 0-1.7321 0.044598-2.5684 0.12695-0.84099 0.082823-1.6853 0.20796-2.5273 0.375-0.81119 0.16093-1.6361 0.36182-2.4688 0.61328-0.83553 0.25232-1.6306 0.54116-2.3887 0.85352-0.76923 0.31694-1.5381 0.67437-2.3008 1.0801-0.73943 0.39332-1.4707 0.82841-2.1855 1.3047-0.72584 0.48359-1.4117 0.99594-2.0586 1.5273-0.64396 0.529-1.2799 1.1024-1.8984 1.7246l-0.0059 0.0059c-2e-3 2e-3 -0.0039 0.0038-0.0059 0.0059-0.62509 0.62847-1.2082 1.2788-1.75 1.9434-0.54528 0.66883-1.0602 1.3653-1.541 2.0918-0.4805 0.72598-0.91532 1.464-1.3086 2.209-0.40295 0.76326-0.75923 1.5336-1.0723 2.3008-0.31812 0.77963-0.5985 1.5722-0.83789 2.375-0.23022 0.77212-0.43454 1.5802-0.59961 2.4258-0.167 0.85548-0.27958 1.6788-0.35547 2.4648-0.0762 0.78914-0.12109 1.6162-0.12109 2.4766s0.044471 1.687 0.12109 2.4805c0.07587 0.78572 0.18839 1.609 0.35547 2.4648 0.16505 0.84551 0.36932 1.6535 0.59961 2.4258 0.23943 0.80301 0.5198 1.5955 0.83789 2.375 0.31303 0.76715 0.66929 1.5375 1.0723 2.3008 0.39328 0.74496 0.82812 1.483 1.3086 2.209 0.49399 0.74638 1.0127 1.4398 1.541 2.0879 0.54525 0.66879 1.1322 1.3229 1.7617 1.9551a10.001 10.001 0 0 0 0.03125 0.0332l11.312 11.252a10.001 10.001 0 0 0 14.104 2e-3l11.315-11.254a10.001 10.001 0 0 0 0.03516-0.03516c0.62496-0.62796 1.2132-1.282 1.7617-1.9551 0.5632-0.69116 1.0743-1.3923 1.5371-2.0918 0.46569-0.70385 0.90481-1.4401 1.3086-2.2051 0.39354-0.74561 0.75156-1.5119 1.0742-2.3027 0.31777-0.77888 0.59641-1.5717 0.83594-2.375 0.24238-0.81294 0.44102-1.6233 0.59766-2.4258 0.15852-0.81209 0.27721-1.6342 0.35742-2.4648 0.08052-0.83392 0.11914-1.6614 0.11914-2.4766 0-0.81499-0.03816-1.642-0.11914-2.4805-0.08021-0.83067-0.19892-1.6528-0.35742-2.4648-0.15662-0.80232-0.35522-1.6127-0.59766-2.4258-0.23957-0.80353-0.5182-1.5962-0.83594-2.375-0.32898-0.80636-0.69023-1.5713-1.0742-2.2988-0.39423-0.74691-0.82976-1.4853-1.3086-2.209-0.46278-0.69946-0.97391-1.4006-1.5371-2.0918-0.54734-0.67168-1.1343-1.3225-1.7578-1.9492l-2e-3 -2e-3c-0.61272-0.61608-1.2501-1.1944-1.9082-1.7343-0.66478-0.54543-1.3521-1.0526-2.0566-1.5215-0.7282-0.48466-1.461-0.91756-2.1895-1.3047-0.73905-0.39278-1.5049-0.75479-2.2949-1.0801-0.76982-0.31697-1.5658-0.602-2.3926-0.85156-0.81858-0.24709-1.6417-0.45043-2.4629-0.61328-0.84115-0.16681-1.6858-0.29213-2.5273-0.375-0.84048-0.082772-1.6958-0.12695-2.5703-0.12695zm0 11.158c0.50099 0 1.0002 0.02557 1.4941 0.07422 0.49397 0.04864 0.9833 0.12091 1.4668 0.2168s0.95818 0.21373 1.4277 0.35547c0.46955 0.14173 0.93457 0.30797 1.3867 0.49414 0.45215 0.18617 0.89293 0.39383 1.3242 0.62305 0.43129 0.22922 0.85281 0.47914 1.2598 0.75s0.80052 0.56195 1.1797 0.87305c0.37917 0.3111 0.74387 0.6403 1.0918 0.99024 0.36655 0.36832 0.71052 0.75093 1.0312 1.1445 0.32073 0.3936 0.61571 0.79933 0.89063 1.2148 0.27492 0.41551 0.52676 0.84134 0.75586 1.2754 0.2291 0.43405 0.43782 0.875 0.62109 1.3242 0.18328 0.44922 0.34302 0.90617 0.48047 1.3672 0.13746 0.46102 0.25211 0.92703 0.34375 1.3965 0.09163 0.46945 0.15926 0.94346 0.20508 1.418 0.04583 0.47451 0.06836 0.95154 0.06836 1.4277s-0.02254 0.94932-0.06836 1.4238-0.11344 0.94852-0.20508 1.418c-0.09164 0.46945-0.2063 0.93546-0.34375 1.3965-0.13746 0.46102-0.29719 0.91796-0.48047 1.3672-0.18328 0.44922-0.392 0.89212-0.62109 1.3262-0.2291 0.43405-0.48094 0.85793-0.75586 1.2734-0.27491 0.41551-0.56989 0.82124-0.89063 1.2148-0.32074 0.3936-0.6647 0.77621-1.0312 1.1445l-10.631 10.572-10.629-10.572c-0.36655-0.36806-0.71052-0.75112-1.0312-1.1445-0.32073-0.39341-0.61962-0.79557-0.89453-1.2109-0.27492-0.41537-0.52677-0.84339-0.75586-1.2773-0.2291-0.43396-0.43391-0.87506-0.61719-1.3242s-0.34497-0.90425-0.48242-1.3652c-0.13746-0.46099-0.25211-0.92705-0.34375-1.3965-0.09165-0.46943-0.15926-0.94346-0.20508-1.418-0.04582-0.4745-0.07031-0.95154-0.07031-1.4277s0.02449-0.95128 0.07031-1.4258c0.04581-0.4745 0.11344-0.94854 0.20508-1.418s0.2063-0.93354 0.34375-1.3945c0.13746-0.46099 0.29914-0.91803 0.48242-1.3672 0.18328-0.44916 0.38809-0.89026 0.61719-1.3242 0.22909-0.43395 0.48094-0.86002 0.75586-1.2754 0.27491-0.41537 0.5738-0.82144 0.89453-1.2148 0.32073-0.3934 0.6647-0.77647 1.0312-1.1445 0.34792-0.35044 0.71262-0.6807 1.0918-0.99219 0.37917-0.31148 0.77273-0.60386 1.1797-0.875 0.40696-0.27114 0.82457-0.52059 1.2559-0.75 0.43128-0.22941 0.87598-0.43675 1.3281-0.62305 0.45215-0.1863 0.91326-0.35234 1.3828-0.49414 0.46955-0.1418 0.9462-0.25955 1.4297-0.35547s0.97283-0.16815 1.4668-0.2168c0.49397-0.04865 0.99315-0.07422 1.4941-0.07422z" color="#000000" style="-inkscape-stroke:none;paint-order:stroke fill markers"/>
  <path d="m25.943 31.035a2.5 2.5 0 0 0-1.7676 3.0605c0.94574 3.5295 4.1702 6.0039 7.8242 6.0039s6.8785-2.4744 7.8242-6.0039a2.5 2.5 0 0 0-1.7676-3.0605 2.5 2.5 0 0 0-3.0625 1.7676c-0.36628 1.367-1.579 2.2969-2.9941 2.2969s-2.6279-0.92992-2.9941-2.2969a2.5 2.5 0 0 0-3.0625-1.7676z" color="#000000" style="-inkscape-stroke:none;paint-order:stroke fill markers"/>
 </g>
</svg>
