<?xml version="1.0" encoding="UTF-8"?>
<svg width="64" height="64" version="1.1" xmlns="http://www.w3.org/2000/svg" xmlns:cc="http://creativecommons.org/ns#" xmlns:dc="http://purl.org/dc/elements/1.1/" xmlns:rdf="http://www.w3.org/1999/02/22-rdf-syntax-ns#" xmlns:xlink="http://www.w3.org/1999/xlink">
 <metadata>
  <rdf:RDF>
   <cc:Work rdf:about="">
    <dc:format>image/svg+xml</dc:format>
    <dc:type rdf:resource="http://purl.org/dc/dcmitype/StillImage"/>
   </cc:Work>
  </rdf:RDF>
 </metadata>
 <defs>
  <linearGradient id="linearGradient1759" x1="-212.98" x2="-212.98" y1="-85.129" y2="17.299" gradientTransform="matrix(.54232 0 0 .54232 146.49 50.404)" gradientUnits="userSpaceOnUse">
   <stop stop-color="#49fbfb" offset="0"/>
   <stop stop-color="#7e49fb" offset="1"/>
  </linearGradient>
 </defs>
 <g fill-rule="evenodd">
  <path d="m-373.57-89.254a55.318 55.318 0 0 0-55.318 55.318 55.318 55.318 0 0 0 55.318 55.318 55.318 55.318 0 0 0 55.318-55.318 55.318 55.318 0 0 0-55.318-55.318zm0 5.5645a49.755 49.755 0 0 1 49.754 49.754 49.755 49.755 0 0 1-49.754 49.756 49.755 49.755 0 0 1-49.754-49.756 49.755 49.755 0 0 1 49.754-49.754z" fill="#49fbfb" style="paint-order:stroke fill markers"/>
  <path d="m-373.57-83.689a49.755 49.755 0 0 0-49.754 49.754 49.755 49.755 0 0 0 0.25977 3.6309c0.30495-3.1304 1.093-5.3237 2.6934-5.623 7.0372-1.3164 1.4286 6.6073 7.7305 8s2.1524-11.175 7.1387-13.238c4.9862-2.063 13.714-1.0903 13.773 7.4688 0.0592 8.559-1.9837 29.734 3.0527 29.689 5.0364-0.044125 4.1428-4.2565 3.2676-9.4668-0.87516-5.2103-5.1533-32.501 6.2637-36.01 11.417-3.5087 18.156 7.9066 16.762 17.375s0.34611 10.937 2.1387 11.152c1.7926 0.2157 3.6195-2.276 2.1582-6.6348s0.22514-9.4895 2.8047-9.0156c2.5795 0.47383 5.5614 2.4503 5.0449 8.7109-0.51648 6.2606-2.5348 15.043 2.4746 15.195s2.9294-7.4888 2.2461-10.396c-0.68334-2.9077-1.901-17.568 6.2129-19.736 8.1139-2.168 10.007 4.6886 10.027 8.5684 0.0207 3.8797 0.8607 4.4303 1.9707 4.0664 1.11-0.36391 1.479-1.5374 0.83008-3.4141-0.48189-1.3938 1.3359-2.7439 2.6191-1.9414a49.755 49.755 0 0 0-49.715-48.135z" fill="#49fbfb" style="paint-order:stroke fill markers"/>
  <path d="m32 2a30 30 0 0 0-30 30 30 30 0 0 0 30 30 30 30 0 0 0 30-30 30 30 0 0 0-30-30zm3.9953 3.3323a26.983 26.983 0 0 1 1.341 0.28599 26.983 26.983 0 0 0-1.341-0.28599zm-8.0383 0.0042a26.983 26.983 0 0 0-1.2816 0.27857 26.983 26.983 0 0 1 1.2816-0.27857zm11.949 0.89821a26.983 26.983 0 0 1 1.5253 0.55608 26.983 26.983 0 0 0-1.5253-0.55608zm-15.891 0.01907a26.983 26.983 0 0 0-1.4861 0.55397 26.983 26.983 0 0 1 1.4861-0.55397zm19.622 1.4511a26.983 26.983 0 0 1 1.5263 0.81347 26.983 26.983 0 0 0-1.5263-0.81347zm-23.389 0.04872a26.983 26.983 0 0 0-1.4797 0.80818 26.983 26.983 0 0 1 1.4797-0.80818zm26.862 1.9574a26.983 26.983 0 0 1 1.4437 1.0507 26.983 26.983 0 0 0-1.4437-1.0507zm-30.36 0.08791a26.983 26.983 0 0 0-1.3897 1.0401 26.983 26.983 0 0 1 1.3897-1.0401zm33.504 2.415a26.983 26.983 0 0 1 1.2912 1.2499 26.983 26.983 0 0 0-1.2912-1.2499zm-36.665 0.13664a26.983 26.983 0 0 0-1.2372 1.2372 26.983 26.983 0 0 1 1.2372-1.2372zm39.429 2.8376a26.983 26.983 0 0 1 1.0762 1.3823 26.983 26.983 0 0 0-1.0762-1.3823zm-42.178 0.17053a26.983 26.983 0 0 0-1.0401 1.3897 26.983 26.983 0 0 1 1.0401-1.3897zm44.505 3.2528a26.983 26.983 0 0 1 0.80712 1.4056 26.983 26.983 0 0 0-0.80712-1.4056zm-46.782 0.1557a26.983 26.983 0 0 0-0.80817 1.4797 26.983 26.983 0 0 1 0.80817-1.4797zm-1.754 3.7613a26.983 26.983 0 0 0-0.55397 1.4861 26.983 26.983 0 0 1 0.55397-1.4861zm50.49 0.25527a26.983 26.983 0 0 1 0.46499 1.3028 26.983 26.983 0 0 0-0.46499-1.3028zm-26.122 0.43216c4.8371-0.01961 7.553 5.2814 6.8912 9.7744-0.75635 5.1349 0.18771 5.9311 1.1598 6.0481 0.97213 0.11698 1.9629-1.2343 1.1704-3.5981-0.79247-2.3638 0.12209-5.1463 1.521-4.8893s3.016 1.3288 2.7359 4.7241c-0.28009 3.3952-1.3746 8.1579 1.342 8.2407 2.7167 0.08278 1.5887-4.0613 1.2181-5.6382s-1.0309-9.5276 3.3694-10.703c4.4003-1.1757 5.4268 2.5427 5.438 4.6468 0.0112 2.104 0.46677 2.4026 1.0687 2.2053 0.60198-0.19736 0.80206-0.83373 0.45017-1.8515-0.25536-0.73855 0.67843-1.4466 1.3706-1.073a26.983 26.983 0 0 1 0.071 0.89821 26.983 26.983 0 0 1-26.982 26.983 26.983 26.983 0 0 1-26.833-25.085c0.17049-1.6585 0.59683-2.8185 1.4522-2.9785 3.8164-0.71389 0.77476 3.5832 4.1924 4.3385 3.4176 0.75529 1.1673-6.0605 3.8714-7.1793 2.7041-1.1188 7.4375-0.59128 7.4696 4.0504 0.0321 4.6417-1.0758 16.125 1.6556 16.101 2.7314-0.02393 2.2467-2.3084 1.7721-5.134s-2.7947-17.626 3.3969-19.529c0.77394-0.23786 1.5079-0.34886 2.1989-0.35166zm-25.561 3.4594a26.983 26.983 0 0 0-0.27857 1.2816 26.983 26.983 0 0 1 0.27857-1.2816zm52.978 0.86855a26.983 26.983 0 0 1 0.16206 1.5803 26.983 26.983 0 0 0-0.16206-1.5803z" fill="url(#linearGradient1759)" style="paint-order:stroke fill markers"/>
 </g>
</svg>
