<?xml version="1.0" encoding="UTF-8"?>
<svg width="64" height="64" version="1.1" viewBox="0 0 64 64" xmlns="http://www.w3.org/2000/svg" xmlns:cc="http://creativecommons.org/ns#" xmlns:dc="http://purl.org/dc/elements/1.1/" xmlns:rdf="http://www.w3.org/1999/02/22-rdf-syntax-ns#" xmlns:xlink="http://www.w3.org/1999/xlink">
 <metadata>
  <rdf:RDF>
   <cc:Work rdf:about="">
    <dc:format>image/svg+xml</dc:format>
    <dc:type rdf:resource="http://purl.org/dc/dcmitype/StillImage"/>
   </cc:Work>
  </rdf:RDF>
 </metadata>
 <defs>
  <linearGradient id="linearGradient1486" x1="9.1005" x2="32.075" y1="14.448" y2="25.935" gradientTransform="matrix(.92344 0 0 .93172 2.4589 2.2026)" gradientUnits="userSpaceOnUse">
   <stop stop-color="#0260a1" offset="0"/>
   <stop stop-color="#12a8ac" offset=".45487"/>
   <stop stop-color="#fdff02" offset="1"/>
  </linearGradient>
  <linearGradient id="linearGradient21158" x1="37.922" x2="49.409" y1="30.944" y2="7.9695" gradientTransform="matrix(.92344 0 0 .93172 2.4589 2.2026)" gradientUnits="userSpaceOnUse">
   <stop stop-color="#fdfe05" offset="0"/>
   <stop stop-color="#ff8600" offset=".6"/>
   <stop stop-color="#fe0e00" offset="1"/>
  </linearGradient>
  <linearGradient id="linearGradient39121" x1="32.473" x2="55.447" y1="38.373" y2="49.86" gradientTransform="matrix(.92344 0 0 .93172 2.4589 2.2026)" gradientUnits="userSpaceOnUse">
   <stop stop-color="#55f2e8" offset="0"/>
   <stop stop-color="#388fcd" offset=".6"/>
   <stop stop-color="#461b7d" offset="1"/>
  </linearGradient>
  <linearGradient id="linearGradient58856" x1="26.805" x2="14.297" y1="32.91" y2="56.031" gradientTransform="matrix(.92344 0 0 .93172 2.4589 2.2026)" gradientUnits="userSpaceOnUse">
   <stop stop-color="#fd00fd" offset="0"/>
   <stop stop-color="#8511be" offset=".6"/>
   <stop stop-color="#2530b2" offset="1"/>
  </linearGradient>
 </defs>
 <circle cx="-1248.7" cy="-1241.6" r="0" fill="#5e4aa6"/>
 <circle cx="-149.15" cy="23.855" r="0" fill="#5e4aa6" fill-rule="evenodd"/>
 <g>
  <path d="m17.715 2.9609c-8.6151 0-15.612 8.0886-8.6152 11.486-3.8482 1.2826-5.7422 3.7498-5.7422 7.1797 0 3.5424 4.8988 7.1797 14.359 7.1797 8.6151 0 14.357-2.8711 14.357-2.8711s-2.87-22.975-14.357-22.975h-0.001953z" fill="url(#linearGradient1486)"/>
  <path d="m42.229 2.2246c-3.5424 0-7.1777 4.8988-7.1777 14.359 0 8.6151 2.8711 14.359 2.8711 14.359s22.975-2.872 22.975-14.359c0-8.6151-8.0906-15.612-11.488-8.6152-1.2826-3.8482-3.7498-5.7422-7.1797-5.7422v-0.0019531z" fill="url(#linearGradient21158)"/>
  <path d="m46.832 35.502c-8.6151 0-14.359 2.8711-14.359 2.8711s2.872 22.975 14.359 22.975c8.6151 0 15.612-8.0906 8.6152-11.488 3.8482-1.2826 5.7422-3.7478 5.7422-7.1777 0-3.5424-4.8968-7.1797-14.357-7.1797z" fill="url(#linearGradient39121)"/>
  <path d="m26.805 32.91-1.0215 0.14648s-22.973 2.872-22.973 14.359c0 8.6151 8.0886 15.612 11.486 8.6152 1.2826 3.8482 3.7498 5.7441 7.1797 5.7441 3.5424 0 7.1777-4.8988 7.1777-14.359 0-8.6151-1.8496-14.506-1.8496-14.506z" fill="url(#linearGradient58856)"/>
 </g>
</svg>
