<?xml version="1.0" encoding="UTF-8" standalone="no"?>
<svg
   width="64"
   height="64"
   version="1.1"
   viewBox="0 0 64 64"
   id="svg643"
   sodipodi:docname="4diac-ide.svg"
   xml:space="preserve"
   inkscape:version="1.2 (dc2aedaf03, 2022-05-15)"
   xmlns:inkscape="http://www.inkscape.org/namespaces/inkscape"
   xmlns:sodipodi="http://sodipodi.sourceforge.net/DTD/sodipodi-0.dtd"
   xmlns:xlink="http://www.w3.org/1999/xlink"
   xmlns="http://www.w3.org/2000/svg"
   xmlns:svg="http://www.w3.org/2000/svg"
   xmlns:rdf="http://www.w3.org/1999/02/22-rdf-syntax-ns#"
   xmlns:cc="http://creativecommons.org/ns#"
   xmlns:dc="http://purl.org/dc/elements/1.1/"><sodipodi:namedview
     id="namedview645"
     pagecolor="#ffffff"
     bordercolor="#999999"
     borderopacity="1"
     inkscape:showpageshadow="0"
     inkscape:pageopacity="0"
     inkscape:pagecheckerboard="0"
     inkscape:deskcolor="#d1d1d1"
     showgrid="false"
     inkscape:zoom="8"
     inkscape:cx="85.4375"
     inkscape:cy="-31.25"
     inkscape:window-width="3840"
     inkscape:window-height="2074"
     inkscape:window-x="1920"
     inkscape:window-y="0"
     inkscape:window-maximized="1"
     inkscape:current-layer="svg643" /><metadata
     id="metadata585"><rdf:RDF><cc:Work
         rdf:about=""><dc:format>image/svg+xml</dc:format><dc:type
           rdf:resource="http://purl.org/dc/dcmitype/StillImage" /></cc:Work></rdf:RDF></metadata><defs
     id="defs621"><linearGradient
       inkscape:collect="always"
       id="linearGradient66269"><stop
         style="stop-color:#401fc6;stop-opacity:1"
         offset="0"
         id="stop66265" /><stop
         style="stop-color:#dc5264;stop-opacity:1;"
         offset="1"
         id="stop66267" /></linearGradient><linearGradient
       inkscape:collect="always"
       id="linearGradient58867"><stop
         style="stop-color:#c35c78;stop-opacity:1"
         offset="0"
         id="stop58863" /><stop
         style="stop-color:#1c82f4;stop-opacity:1"
         offset="1"
         id="stop58865" /></linearGradient><linearGradient
       id="linearGradient55202"
       x1="19.771"
       x2="19.771"
       y1="4.5001"
       y2="59.5"
       gradientTransform="translate(2.11006,2.9947e-5)"
       gradientUnits="userSpaceOnUse"><stop
         stop-color="#093c84"
         stop-opacity=".99608"
         offset="0"
         id="stop55198"
         style="stop-color:#3e1ec7;stop-opacity:1" /><stop
         stop-color="#093c84"
         stop-opacity=".99608"
         offset="0.5988487"
         id="stop58861"
         style="stop-color:#a33f86;stop-opacity:1;" /><stop
         stop-color="#3fbef2"
         offset="1"
         id="stop55200"
         style="stop-color:#e7565c;stop-opacity:1" /></linearGradient><linearGradient
       inkscape:collect="always"
       id="linearGradient47766"><stop
         style="stop-color:#2813a8;stop-opacity:1"
         offset="0"
         id="stop47760" /><stop
         style="stop-color:#bd3559;stop-opacity:1"
         offset="0.71816939"
         id="stop47762" /><stop
         style="stop-color:#ad3566;stop-opacity:1"
         offset="1"
         id="stop47764" /></linearGradient><linearGradient
       inkscape:collect="always"
       id="linearGradient41822"><stop
         style="stop-color:#331bcf;stop-opacity:1"
         offset="0"
         id="stop41816" /><stop
         style="stop-color:#c64169;stop-opacity:1"
         offset="0.63003272"
         id="stop41818" /><stop
         style="stop-color:#f15d58;stop-opacity:1"
         offset="1"
         id="stop41820" /></linearGradient><linearGradient
       inkscape:collect="always"
       id="linearGradient30009"><stop
         style="stop-color:#f55555;stop-opacity:1"
         offset="0"
         id="stop30005" /><stop
         style="stop-color:#c15c79;stop-opacity:1"
         offset="0.432309"
         id="stop36637" /><stop
         style="stop-color:#107af0;stop-opacity:1"
         offset="0.68493754"
         id="stop34910" /><stop
         style="stop-color:#2185f5;stop-opacity:1"
         offset="1"
         id="stop30007" /></linearGradient><linearGradient
       inkscape:collect="always"
       id="linearGradient22815"><stop
         style="stop-color:#f44a4e;stop-opacity:1"
         offset="0"
         id="stop22811" /><stop
         style="stop-color:#2d30c6;stop-opacity:1"
         offset="0.76533109"
         id="stop28684" /><stop
         style="stop-color:#2e37cb;stop-opacity:1"
         offset="1"
         id="stop22813" /></linearGradient><style
       type="text/css"
       id="style587" /><style
       type="text/css"
       id="style589" /><linearGradient
       id="linearGradient2312"
       x1="136.82"
       x2="100.27"
       y1="-8.2087"
       y2="73.081"
       gradientUnits="userSpaceOnUse"><stop
         stop-color="#073c85"
         stop-opacity=".98039"
         offset="0"
         id="stop591" /><stop
         stop-color="#029de1"
         stop-opacity=".99216"
         offset="1"
         id="stop593" /></linearGradient><linearGradient
       id="linearGradient14751"
       x1="99.991"
       x2="139.24"
       y1="64.732"
       y2="64.732"
       gradientUnits="userSpaceOnUse"><stop
         stop-color="#810c26"
         offset="0"
         id="stop596" /><stop
         stop-color="#ce223e"
         offset="1"
         id="stop598" /></linearGradient><linearGradient
       id="linearGradient25850"
       x1="152.83"
       x2="135.91"
       y1="21.954"
       y2="67.55"
       gradientUnits="userSpaceOnUse"><stop
         stop-color="#d36709"
         offset="0"
         id="stop601" /><stop
         stop-color="#ffef5c"
         offset="1"
         id="stop603" /></linearGradient><linearGradient
       id="linearGradient46598"
       x1="143.7"
       x2="143.7"
       y1="77.755"
       y2="92.645"
       gradientTransform="translate(0,-4.4101)"
       gradientUnits="userSpaceOnUse"><stop
         stop-color="#2a8627"
         offset="0"
         id="stop606" /><stop
         stop-color="#e5f09c"
         stop-opacity=".92549"
         offset="1"
         id="stop608" /></linearGradient><linearGradient
       id="linearGradient56076"
       x1="19.771"
       x2="19.771"
       y1="4.5001"
       y2="59.5"
       gradientTransform="translate(2.11006,2.9947e-5)"
       gradientUnits="userSpaceOnUse"><stop
         stop-color="#093c84"
         stop-opacity=".99608"
         offset="0"
         id="stop611" /><stop
         stop-color="#3fbef2"
         offset="1"
         id="stop613" /></linearGradient><linearGradient
       id="linearGradient66869"
       x1="6.6438"
       x2="38.514"
       y1="55.107"
       y2="55.107"
       gradientUnits="userSpaceOnUse"><stop
         stop-color="#ffef5c"
         offset="0"
         id="stop616" /><stop
         stop-color="#d46a0b"
         offset="1"
         id="stop618" /></linearGradient><linearGradient
       inkscape:collect="always"
       xlink:href="#linearGradient41822"
       id="linearGradient53868"
       gradientUnits="userSpaceOnUse"
       x1="150.375"
       y1="18.742455"
       x2="130.91748"
       y2="49.679962" /><linearGradient
       inkscape:collect="always"
       xlink:href="#linearGradient47766"
       id="linearGradient53870"
       gradientUnits="userSpaceOnUse"
       x1="153.26855"
       y1="21.925306"
       x2="141.55757"
       y2="49.903496" /><linearGradient
       inkscape:collect="always"
       xlink:href="#linearGradient22815"
       id="linearGradient53872"
       gradientUnits="userSpaceOnUse"
       x1="148.60254"
       y1="16.856632"
       x2="157.54076"
       y2="60.293911" /><linearGradient
       inkscape:collect="always"
       xlink:href="#linearGradient30009"
       id="linearGradient53874"
       gradientUnits="userSpaceOnUse"
       x1="153.26855"
       y1="10.642052"
       x2="163.98203"
       y2="61.828323" /><linearGradient
       inkscape:collect="always"
       xlink:href="#linearGradient66869"
       id="linearGradient53928"
       gradientUnits="userSpaceOnUse"
       x1="6.6438"
       y1="55.107"
       x2="38.514"
       y2="55.107"
       gradientTransform="translate(0,-80.995409)" /><linearGradient
       inkscape:collect="always"
       xlink:href="#linearGradient56076"
       id="linearGradient53930"
       gradientUnits="userSpaceOnUse"
       gradientTransform="translate(2.11006,-80.995379)"
       x1="19.771"
       y1="4.5001"
       x2="19.771"
       y2="59.5" /><linearGradient
       inkscape:collect="always"
       xlink:href="#linearGradient14751"
       id="linearGradient53932"
       gradientUnits="userSpaceOnUse"
       x1="99.991"
       y1="64.732"
       x2="139.24"
       y2="64.732" /><linearGradient
       inkscape:collect="always"
       xlink:href="#linearGradient2312"
       id="linearGradient53934"
       gradientUnits="userSpaceOnUse"
       x1="136.82"
       y1="-8.2087"
       x2="100.27"
       y2="73.081" /><linearGradient
       inkscape:collect="always"
       xlink:href="#linearGradient46598"
       id="linearGradient53936"
       gradientUnits="userSpaceOnUse"
       gradientTransform="translate(0,-4.4101)"
       x1="143.7"
       y1="77.755"
       x2="143.7"
       y2="92.645" /><linearGradient
       inkscape:collect="always"
       xlink:href="#linearGradient25850"
       id="linearGradient53938"
       gradientUnits="userSpaceOnUse"
       x1="152.83"
       y1="21.954"
       x2="135.91"
       y2="67.55" /><linearGradient
       inkscape:collect="always"
       xlink:href="#linearGradient58867"
       id="linearGradient58869"
       x1="12.734094"
       y1="43.457031"
       x2="12.734094"
       y2="59.5"
       gradientUnits="userSpaceOnUse" /><linearGradient
       inkscape:collect="always"
       xlink:href="#linearGradient66269"
       id="linearGradient66271"
       x1="22.294943"
       y1="11.003403"
       x2="22.294943"
       y2="41.388481"
       gradientUnits="userSpaceOnUse" /></defs><circle
     cx="-1248.7"
     cy="-1241.6"
     r="0"
     fill="#5e4aa6"
     id="circle623" /><circle
     cx="-149.15"
     cy="23.855"
     r="0"
     fill="#5e4aa6"
     fill-rule="evenodd"
     id="circle625" /><path
     id="path54118"
     style="fill:url(#linearGradient66271);paint-order:normal;fill-opacity:1"
     d="M 3.6308594 10.990234 C 3.558485 10.990234 3.4880786 10.997842 3.4199219 11.011719 C 3.3517648 11.025595 3.2852163 11.045893 3.2226562 11.072266 C 3.1600966 11.098638 3.1005045 11.130479 3.0449219 11.167969 C 2.9893388 11.205458 2.9378512 11.247696 2.890625 11.294922 C 2.8433988 11.342148 2.801161 11.393636 2.7636719 11.449219 C 2.7261824 11.504802 2.6943412 11.564393 2.6679688 11.626953 C 2.6415959 11.689513 2.6212982 11.756062 2.6074219 11.824219 C 2.5935455 11.892376 2.5859375 11.962782 2.5859375 12.035156 L 2.5859375 14.527344 C 2.5859375 14.536534 2.5856949 14.545506 2.5859375 14.554688 L 2.5859375 15.701172 C 2.5856949 15.710298 2.5859375 15.719326 2.5859375 15.728516 L 2.5859375 18.220703 C 2.5859375 18.293073 2.5935479 18.365437 2.6074219 18.433594 C 2.6212979 18.501754 2.6415958 18.566346 2.6679688 18.628906 C 2.6943413 18.691466 2.7261829 18.751058 2.7636719 18.806641 C 2.8011604 18.862221 2.8433989 18.913712 2.890625 18.960938 C 2.937851 19.008163 2.989339 19.050398 3.0449219 19.087891 C 3.1005044 19.125381 3.1600967 19.159167 3.2226562 19.185547 C 3.2852162 19.211917 3.3517648 19.232214 3.4199219 19.246094 C 3.4880784 19.259974 3.558485 19.267578 3.6308594 19.267578 L 6.1230469 19.267578 L 9.4609375 19.267578 L 9.4609375 22.833984 L 6.1230469 22.833984 L 3.6308594 22.833984 C 3.558485 22.833984 3.4880786 22.839639 3.4199219 22.853516 C 3.3517648 22.867392 3.2852163 22.887694 3.2226562 22.914062 C 3.1600966 22.940435 3.1005045 22.974229 3.0449219 23.011719 C 2.9893388 23.049208 2.9378512 23.091446 2.890625 23.138672 C 2.8433988 23.185898 2.801161 23.237386 2.7636719 23.292969 C 2.7261824 23.348552 2.6943412 23.408143 2.6679688 23.470703 C 2.6415959 23.533263 2.6212982 23.599812 2.6074219 23.667969 C 2.5935455 23.736126 2.5859375 23.806532 2.5859375 23.878906 L 2.5859375 26.371094 C 2.5859375 26.443468 2.5935455 26.513874 2.6074219 26.582031 C 2.6212982 26.650188 2.6415959 26.716737 2.6679688 26.779297 C 2.6943412 26.841857 2.7261824 26.901448 2.7636719 26.957031 C 2.801161 27.012614 2.8433988 27.064102 2.890625 27.111328 C 2.9378512 27.158554 2.9893388 27.200792 3.0449219 27.238281 C 3.1005045 27.275771 3.1600966 27.307612 3.2226562 27.333984 C 3.2852163 27.360357 3.3517648 27.380655 3.4199219 27.394531 C 3.4880786 27.408408 3.558485 27.416016 3.6308594 27.416016 L 6.1230469 27.416016 L 29.925781 27.416016 L 44.490234 11.021484 L 6.1308594 10.990234 L 5.0507812 10.990234 L 3.6308594 10.990234 z M 3.6308594 29.708984 C 3.558485 29.708984 3.4880786 29.714639 3.4199219 29.728516 C 3.3517648 29.742392 3.2852163 29.762694 3.2226562 29.789062 C 3.1600966 29.815435 3.1005045 29.849229 3.0449219 29.886719 C 2.9893388 29.924208 2.9378512 29.966446 2.890625 30.013672 C 2.8433988 30.060898 2.801161 30.112386 2.7636719 30.167969 C 2.7261824 30.223552 2.6943412 30.283143 2.6679688 30.345703 C 2.6415959 30.408263 2.6212982 30.474812 2.6074219 30.542969 C 2.5935455 30.611126 2.5859375 30.681532 2.5859375 30.753906 L 2.5859375 33.246094 C 2.5859375 33.318468 2.5935455 33.388874 2.6074219 33.457031 C 2.6212982 33.525188 2.6415959 33.591737 2.6679688 33.654297 C 2.6943412 33.716857 2.7261824 33.776448 2.7636719 33.832031 C 2.801161 33.887614 2.8433988 33.939102 2.890625 33.986328 C 2.9378512 34.033554 2.9893388 34.075792 3.0449219 34.113281 C 3.1005045 34.150771 3.1600966 34.182612 3.2226562 34.208984 C 3.2852163 34.235357 3.3517648 34.255655 3.4199219 34.269531 C 3.4880786 34.283408 3.558485 34.291016 3.6308594 34.291016 L 6.1230469 34.291016 L 23.654297 34.291016 L 27.769531 29.708984 L 6.1230469 29.708984 L 3.6308594 29.708984 z M 3.6308594 36.583984 C 3.558485 36.583984 3.4880786 36.589639 3.4199219 36.603516 C 3.3517648 36.617392 3.2852163 36.637694 3.2226562 36.664062 C 3.1600966 36.690435 3.1005045 36.724229 3.0449219 36.761719 C 2.9893388 36.799208 2.9378512 36.841446 2.890625 36.888672 C 2.8433988 36.935898 2.801161 36.987386 2.7636719 37.042969 C 2.7261824 37.098552 2.6943412 37.158143 2.6679688 37.220703 C 2.6415959 37.283263 2.6212982 37.349812 2.6074219 37.417969 C 2.5935455 37.486126 2.5859375 37.556532 2.5859375 37.628906 L 2.5859375 40.121094 C 2.5859375 40.193468 2.5935455 40.263874 2.6074219 40.332031 C 2.6212982 40.400188 2.6415959 40.466737 2.6679688 40.529297 C 2.6943412 40.591857 2.7261824 40.651448 2.7636719 40.707031 C 2.801161 40.762614 2.8433988 40.814102 2.890625 40.861328 C 2.9378512 40.908554 2.9893388 40.950792 3.0449219 40.988281 C 3.1005045 41.025771 3.1600966 41.057612 3.2226562 41.083984 C 3.2852163 41.110357 3.3517648 41.130655 3.4199219 41.144531 C 3.4880786 41.158408 3.558485 41.166016 3.6308594 41.166016 L 6.1230469 41.166016 L 18.724609 41.166016 L 22.306641 36.583984 L 6.1230469 36.583984 L 3.6308594 36.583984 z " /><path
     id="path54032"
     d="M 4.5527344 43.457031 C 4.4324758 43.457031 4.3163762 43.46913 4.203125 43.492188 C 4.0898738 43.515244 3.978951 43.549928 3.875 43.59375 C 3.771049 43.637572 3.672436 43.68966 3.5800781 43.751953 C 3.4877202 43.814246 3.4026907 43.886372 3.3242188 43.964844 C 3.2457467 44.043316 3.1736214 44.128345 3.1113281 44.220703 C 3.0490349 44.313061 2.9969467 44.411674 2.953125 44.515625 C 2.9093033 44.619576 2.8746198 44.730499 2.8515625 44.84375 C 2.8285052 44.957001 2.8164063 45.073101 2.8164062 45.193359 L 2.8164062 57.763672 C 2.8164062 57.883931 2.8285052 58.00003 2.8515625 58.113281 C 2.8746198 58.226533 2.9093033 58.337455 2.953125 58.441406 C 2.9969467 58.545357 3.0490349 58.64397 3.1113281 58.736328 C 3.1736214 58.828686 3.2457467 58.913715 3.3242188 58.992188 C 3.4026907 59.070659 3.4877202 59.142785 3.5800781 59.205078 C 3.672436 59.267371 3.771049 59.31946 3.875 59.363281 C 3.978951 59.407103 4.0898738 59.441786 4.203125 59.464844 C 4.3163762 59.487901 4.4324758 59.5 4.5527344 59.5 L 17.123047 59.5 L 39.015625 59.5 A 2.7592502 2.7592502 0 0 0 39.867188 59.365234 A 2.7592502 2.7592502 0 0 0 40.636719 58.972656 A 2.7592502 2.7592502 0 0 0 41.248047 58.361328 A 2.7592502 2.7592502 0 0 0 41.638672 57.59375 A 2.7592502 2.7592502 0 0 0 41.773438 56.740234 A 2.7592502 2.7592502 0 0 0 41.757812 56.431641 A 2.7592502 2.7592502 0 0 0 41.705078 56.126953 A 2.7592502 2.7592502 0 0 0 41.619141 55.830078 A 2.7592502 2.7592502 0 0 0 41.501953 55.542969 A 2.7592502 2.7592502 0 0 0 41.351562 55.271484 A 2.7592502 2.7592502 0 0 0 41.171875 55.019531 A 2.7592502 2.7592502 0 0 0 40.966797 54.789062 A 2.7592502 2.7592502 0 0 0 40.736328 54.583984 A 2.7592502 2.7592502 0 0 0 40.482422 54.404297 A 2.7592502 2.7592502 0 0 0 40.212891 54.253906 A 2.7592502 2.7592502 0 0 0 39.925781 54.136719 A 2.7592502 2.7592502 0 0 0 39.628906 54.050781 A 2.7592502 2.7592502 0 0 0 39.324219 53.998047 A 2.7592502 2.7592502 0 0 0 39.015625 53.980469 L 26.828125 53.980469 C 19.587873 53.980469 18.908866 50.088788 18.859375 49.003906 C 18.851379 48.828621 18.857422 48.71875 18.857422 48.71875 L 18.857422 45.173828 C 18.856149 45.0606 18.845988 44.950675 18.824219 44.84375 C 18.801161 44.730499 18.766478 44.619576 18.722656 44.515625 C 18.678835 44.411674 18.626746 44.313061 18.564453 44.220703 C 18.50216 44.128345 18.430035 44.043316 18.351562 43.964844 C 18.273091 43.886372 18.188061 43.814246 18.095703 43.751953 C 18.003345 43.68966 17.904732 43.637572 17.800781 43.59375 C 17.69683 43.549928 17.585908 43.515244 17.472656 43.492188 C 17.359405 43.46913 17.243306 43.457031 17.123047 43.457031 L 4.5527344 43.457031 z M 38.623047 54.011719 A 2.7592502 2.7592502 0 0 0 38.548828 54.023438 A 2.7592502 2.7592502 0 0 1 38.623047 54.011719 z M 37.804688 54.265625 A 2.7592502 2.7592502 0 0 0 37.722656 54.306641 A 2.7592502 2.7592502 0 0 1 37.804688 54.265625 z M 37.095703 54.761719 A 2.7592502 2.7592502 0 0 0 37.035156 54.824219 A 2.7592502 2.7592502 0 0 1 37.095703 54.761719 z M 36.580078 55.451172 A 2.7592502 2.7592502 0 0 0 36.539062 55.53125 A 2.7592502 2.7592502 0 0 1 36.580078 55.451172 z M 36.304688 56.246094 A 2.7592502 2.7592502 0 0 0 36.283203 56.373047 A 2.7592502 2.7592502 0 0 1 36.304688 56.246094 z M 36.285156 57.111328 A 2.7592502 2.7592502 0 0 0 36.302734 57.230469 A 2.7592502 2.7592502 0 0 1 36.285156 57.111328 z M 36.541016 57.955078 A 2.7592502 2.7592502 0 0 0 36.578125 58.025391 A 2.7592502 2.7592502 0 0 1 36.541016 57.955078 z M 37.035156 58.65625 A 2.7592502 2.7592502 0 0 0 37.095703 58.71875 A 2.7592502 2.7592502 0 0 1 37.035156 58.65625 z M 37.724609 59.175781 A 2.7592502 2.7592502 0 0 0 37.804688 59.216797 A 2.7592502 2.7592502 0 0 1 37.724609 59.175781 z M 38.525391 59.453125 A 2.7592502 2.7592502 0 0 0 38.644531 59.470703 A 2.7592502 2.7592502 0 0 1 38.525391 59.453125 z "
     style="fill-opacity:1;fill:url(#linearGradient58869)" /><g
     id="g53844"
     transform="translate(-107.9959,2.2757615)"><path
       id="path16242"
       style="fill:url(#linearGradient53868);fill-opacity:1;stroke:none;stroke-width:1px;stroke-linecap:butt;stroke-linejoin:miter;stroke-opacity:1"
       d="m 154.11914,18.263672 c -0.0841,-1.392026 -0.16797,-2.47461 -0.16797,-2.47461 l -7.11133,3.603516 -14.07812,16.173828 c 0,0 -2.71484,2.478034 -2.71484,4.861328 v 4.195313 c 0,0 -0.23998,3.392578 3.2539,3.392578 h 12.17383 c -0.0273,-0.0073 -0.0548,-0.01211 -0.082,-0.01953 -0.3881,-0.10572 -0.77456,-0.22498 -1.1543,-0.357422 -0.37974,-0.132442 -0.75315,-0.278052 -1.11719,-0.441406 -0.18201,-0.08168 -0.3604,-0.167621 -0.53711,-0.257813 -0.1767,-0.09019 -0.351,-0.185927 -0.52148,-0.285156 -0.17048,-0.09923 -0.33862,-0.201756 -0.50195,-0.310547 -0.16334,-0.108791 -0.3213,-0.22292 -0.47657,-0.341797 -0.15527,-0.118877 -0.30684,-0.24356 -0.45312,-0.373047 -0.14628,-0.129487 -0.28745,-0.263676 -0.42383,-0.404297 -0.13638,-0.14062 -0.26898,-0.287175 -0.39453,-0.439453 -0.12555,-0.152277 -0.24557,-0.31015 -0.35938,-0.474609 -0.1138,-0.164459 -0.22112,-0.334555 -0.32226,-0.511719 -0.10115,-0.177164 -0.19564,-0.362341 -0.2832,-0.552734 -0.0876,-0.190394 -0.16718,-0.387651 -0.24024,-0.591797 -0.0731,-0.204147 -0.13963,-0.414389 -0.19726,-0.632813 -0.0576,-0.218423 -0.10715,-0.44451 -0.14844,-0.677734 -0.0413,-0.233224 -0.0736,-0.474108 -0.0977,-0.722656 -0.024,-0.248549 -0.0391,-0.505134 -0.0449,-0.769532 -0.006,-0.264397 -0.003,-0.535636 0.01,-0.816406 0.0132,-0.280769 0.0456,-0.568437 0.0937,-0.859375 0.0482,-0.290938 0.11255,-0.584881 0.19336,-0.884765 0.0808,-0.299885 0.1779,-0.604501 0.28906,-0.91211 0.11116,-0.307609 0.23576,-0.619483 0.375,-0.933594 0.13924,-0.31411 0.29199,-0.63178 0.45703,-0.951171 0.16503,-0.319391 0.3427,-0.639442 0.53125,-0.962891 0.18855,-0.323449 0.38786,-0.650278 0.59766,-0.976562 0.20979,-0.326285 0.4314,-0.652571 0.66015,-0.980469 0.22876,-0.327899 0.46551,-0.656085 0.71094,-0.984375 0.24543,-0.328291 0.49798,-0.656915 0.75781,-0.984375 0.25984,-0.32746 0.52687,-0.655062 0.79883,-0.980469 0.27196,-0.325407 0.55023,-0.64857 0.83203,-0.970703 0.5636,-0.644266 1.14313,-1.280462 1.73242,-1.904297 0.5893,-0.623835 1.1884,-1.234498 1.78516,-1.828125 0.59676,-0.593627 1.19136,-1.170967 1.77734,-1.724609 0.58599,-0.553642 1.16178,-1.08401 1.71875,-1.587891 0.55698,-0.503881 1.09574,-0.981439 1.60547,-1.425781 0.38129,-0.332373 0.72829,-0.625643 1.07422,-0.919922 z" /><path
       id="path22808"
       style="fill:url(#linearGradient53870);fill-opacity:1;stroke:none;stroke-width:1px;stroke-linecap:butt;stroke-linejoin:miter;stroke-opacity:1"
       d="m 154.11914,18.263672 c -0.34593,0.294279 -0.69293,0.587549 -1.07422,0.919922 -0.50973,0.444342 -1.04849,0.9219 -1.60547,1.425781 -0.55697,0.503881 -1.13276,1.034249 -1.71875,1.587891 -0.58598,0.553642 -1.18058,1.130982 -1.77734,1.724609 -0.59676,0.593627 -1.19586,1.20429 -1.78516,1.828125 -0.58929,0.623835 -1.16882,1.260031 -1.73242,1.904297 -0.2818,0.322133 -0.56007,0.645296 -0.83203,0.970703 -0.27196,0.325407 -0.53899,0.653009 -0.79883,0.980469 -0.25983,0.32746 -0.51238,0.656084 -0.75781,0.984375 -0.24543,0.32829 -0.48218,0.656476 -0.71094,0.984375 -0.22875,0.327898 -0.45036,0.654184 -0.66015,0.980469 -0.2098,0.326284 -0.40911,0.653113 -0.59766,0.976562 -0.18855,0.323449 -0.36622,0.6435 -0.53125,0.962891 -0.16504,0.319391 -0.31779,0.637061 -0.45703,0.951171 -0.13924,0.314111 -0.26384,0.625985 -0.375,0.933594 -0.11116,0.307609 -0.20826,0.612225 -0.28906,0.91211 -0.0808,0.299884 -0.1452,0.593827 -0.19336,0.884765 -0.0482,0.290938 -0.0805,0.578606 -0.0937,0.859375 -0.0133,0.28077 -0.0156,0.552009 -0.01,0.816406 0.006,0.264398 0.0209,0.520983 0.0449,0.769532 0.024,0.248548 0.0564,0.489432 0.0977,0.722656 0.0413,0.233224 0.0908,0.459311 0.14844,0.677734 0.0576,0.218424 0.1242,0.428666 0.19726,0.632813 0.0731,0.204146 0.15267,0.401403 0.24024,0.591797 0.0876,0.190393 0.18205,0.37557 0.2832,0.552734 0.10114,0.177164 0.20846,0.34726 0.32226,0.511719 0.11381,0.164459 0.23383,0.322332 0.35938,0.474609 0.12555,0.152278 0.25815,0.298833 0.39453,0.439453 0.13638,0.140621 0.27755,0.27481 0.42383,0.404297 0.14628,0.129487 0.29785,0.25417 0.45312,0.373047 0.15527,0.118877 0.31323,0.233006 0.47657,0.341797 0.16333,0.108791 0.33147,0.211317 0.50195,0.310547 0.17048,0.09923 0.34478,0.194965 0.52148,0.285156 0.17671,0.09019 0.3551,0.176135 0.53711,0.257813 0.36404,0.163354 0.73745,0.308964 1.11719,0.441406 0.37974,0.132442 0.7662,0.251702 1.1543,0.357422 0.0272,0.0074 0.0548,0.01223 0.082,0.01953 l 20.36914,0 c 0,0 3.83399,0.254321 3.83399,-3.310547 v -3.902344 c 0,0 0.14921,-2.515625 -2.66992,-2.515625 l -25.16016,0 c 0,0 11.35673,-13.287109 12.10351,-13.287109 0.49452,0 0.33278,-4.007466 0.16797,-6.736328 z"
       sodipodi:nodetypes="csssssssssssssssscccsscccssssssssssssccscscscc" /><path
       id="path15877"
       style="fill:url(#linearGradient53872);fill-opacity:1;stroke:none;stroke-width:1px;stroke-linecap:butt;stroke-linejoin:miter;stroke-opacity:1"
       d="m 159.73001,57.223939 -0.0327,-31.921205 c -4.1e-4,-0.401942 -0.0111,-0.786914 -0.0312,-1.158203 -0.0202,-0.371289 -0.0508,-0.728509 -0.0899,-1.070312 -0.039,-0.341803 -0.086,-0.668938 -0.14258,-0.982422 -0.0566,-0.313485 -0.12243,-0.612105 -0.19531,-0.898438 -0.0729,-0.286333 -0.15239,-0.559963 -0.24023,-0.820312 -0.0879,-0.260349 -0.18365,-0.508609 -0.28516,-0.744141 -0.10151,-0.235532 -0.21035,-0.458039 -0.32422,-0.669922 -0.11387,-0.211882 -0.23249,-0.412162 -0.35742,-0.601562 -0.12493,-0.1894 -0.25593,-0.369024 -0.39063,-0.53711 -0.13469,-0.168085 -0.27286,-0.324719 -0.41601,-0.472656 -0.14316,-0.147937 -0.29109,-0.287059 -0.44141,-0.416015 -0.15031,-0.128957 -0.30281,-0.248232 -0.45898,-0.359375 -0.15617,-0.111144 -0.31584,-0.214097 -0.47656,-0.308594 -0.16073,-0.0945 -0.32431,-0.180747 -0.48828,-0.259766 -0.16398,-0.07902 -0.32822,-0.150137 -0.49415,-0.214844 -0.16592,-0.06471 -0.33342,-0.122265 -0.5,-0.173828 -0.16658,-0.05156 -0.33211,-0.09713 -0.49804,-0.136718 -0.16593,-0.03959 -0.33212,-0.07474 -0.4961,-0.103516 -0.32795,-0.05755 -0.65055,-0.09392 -0.96289,-0.115234 -0.31233,-0.02132 -0.61408,-0.02707 -0.90039,-0.02149 -0.28631,0.0056 -0.55677,0.02178 -0.80664,0.04492 -0.1196,0.01108 -0.21668,0.0275 -0.32617,0.04102 -1.84608,2.116051 -3.53516,4.068359 -3.53516,4.068359 0,0 3.1613,-0.776705 5.18164,1.732422 2.02035,2.509128 1.67588,5.202931 1.67969,8.087891 l 0.0327,24.804017 c 0,0 -0.11876,3.207028 2.50586,3.207031 z"
       sodipodi:nodetypes="cscccccsssssssssssssscsccsscsc" /><path
       id="path22801"
       style="fill:url(#linearGradient53874);fill-opacity:1;stroke:none;stroke-width:1px;stroke-linecap:butt;stroke-linejoin:miter;stroke-opacity:1"
       d="m 157.57031,8.7460938 c 0,0 -1.2417,-0.065288 -3.06054,1.9023442 -0.84136,0.910187 -2.54577,2.854406 -4.13477,4.675781 0.10949,-0.01352 0.20657,-0.02994 0.32617,-0.04102 0.24987,-0.02314 0.52033,-0.03934 0.80664,-0.04492 0.28631,-0.0056 0.58806,1.69e-4 0.90039,0.02149 0.31234,0.02131 0.63494,0.05768 0.96289,0.115234 0.16398,0.02878 0.33017,0.06393 0.4961,0.103516 0.16593,0.03958 0.33146,0.08516 0.49804,0.136718 0.16658,0.05156 0.33408,0.109122 0.5,0.173828 0.16593,0.06471 0.33017,0.135826 0.49415,0.214844 0.16397,0.07902 0.32755,0.165269 0.48828,0.259766 0.16072,0.0945 0.32039,0.19745 0.47656,0.308594 0.15617,0.111143 0.30867,0.230418 0.45898,0.359375 0.15032,0.128956 0.29825,0.268078 0.44141,0.416015 0.14315,0.147937 0.28132,0.304571 0.41601,0.472656 0.1347,0.168086 0.2657,0.34771 0.39063,0.53711 0.12493,0.1894 0.24355,0.38968 0.35742,0.601562 0.11387,0.211883 0.22271,0.43439 0.32422,0.669922 0.10151,0.235532 0.19731,0.483792 0.28516,0.744141 0.0878,0.260349 0.16735,0.533979 0.24023,0.820312 0.0729,0.286333 0.1387,0.584953 0.19531,0.898438 0.0566,0.313484 0.10354,0.640619 0.14258,0.982422 0.039,0.341803 0.0697,0.699023 0.0899,1.070312 0.0202,0.371289 0.0312,0.756261 0.0312,1.158203 v 31.921202 h 4.04687 c 0,0 2.68164,0.142656 2.68164,-3.082031 V 11.875 c 0,0 0.15372,-3.1289062 -2.61328,-3.1289062 z"
       sodipodi:nodetypes="cscsccsssssssssssssccscssccscsc" /></g><g
     transform="matrix(0.57629,0,0,0.57629,-26.66164,-73.176379)"
     id="g53922"><path
       d="M 139.22,56.382 H 99.71 l 0.55767,19.072 h 38.983 z"
       fill="url(#linearGradient14751)"
       id="path53914"
       style="fill:url(#linearGradient53932)" /><path
       d="m 135.74,-5.7592 c 0,0 11.507,11.181 4.885,21.112 -6.6217,9.9309 -32.318,45.13 -32.318,45.13 0,0 -7.1698,11.889 2.1762,14.972 h -20.427 c 0,0 -10.523,-1.8831 -4.927,-11.107 5.596,-9.2239 50.611,-70.106 50.611,-70.106 z"
       fill="url(#linearGradient2312)"
       id="path53916"
       style="fill:url(#linearGradient53934)" /><path
       d="m 151.48,47.94 v 27.849 c 0,0 0.49041,13.89 -15.562,13.89 V 48.036 Z"
       fill="url(#linearGradient46598)"
       id="path53918"
       style="fill:url(#linearGradient53936)" /><path
       d="m 152.83,21.954 c 0,0 -1.3588,3.7848 -1.3588,7.178 V 52.35 c 0,0 1.4974,23.105 -12.223,23.105 h -19.491 c 0,0 15.08,-4.9267 15.08,-19.072 V 41.13 c 0,0 -1.5533,-19.175 17.994,-19.175 z"
       fill="url(#linearGradient25850)"
       id="path53920"
       style="fill:url(#linearGradient53938)" /></g><path
     d="m 2.58546,-76.495379 v 11.458 h 6.875 v 6.875 h -6.875 v 4.5833 h 25.722 l 16.362,-22.917 z m 0,25.208 v 4.5833 h 21.069 l 3.2502,-4.5833 z m 0,6.875 v 4.5833 h 16.616 l 3.1048,-4.5833 z"
     fill="url(#linearGradient56076)"
     stroke-width="2.2917"
     style="fill:url(#linearGradient53930);paint-order:normal"
     id="path53924" /><path
     d="m 18.858,-37.537409 v 5.2616 c 0,0 -0.43979,5.2616 7.9703,5.2616 h 14.946 v 5.5185 H 2.8163 v -16.042 z"
     fill="url(#linearGradient66869)"
     id="path53926"
     style="fill:url(#linearGradient53928)" /><g
     id="g62329"
     transform="translate(-107.9959,2.2757615)"><path
       id="path62321"
       style="fill:url(#linearGradient53868);fill-opacity:1;stroke:none;stroke-width:1px;stroke-linecap:butt;stroke-linejoin:miter;stroke-opacity:1"
       d="m 154.11914,18.263672 c -0.0841,-1.392026 -0.16797,-2.47461 -0.16797,-2.47461 l -7.11133,3.603516 -14.07812,16.173828 c 0,0 -2.71484,2.478034 -2.71484,4.861328 v 4.195313 c 0,0 -0.23998,3.392578 3.2539,3.392578 h 12.17383 c -0.0273,-0.0073 -0.0548,-0.01211 -0.082,-0.01953 -0.3881,-0.10572 -0.77456,-0.22498 -1.1543,-0.357422 -0.37974,-0.132442 -0.75315,-0.278052 -1.11719,-0.441406 -0.18201,-0.08168 -0.3604,-0.167621 -0.53711,-0.257813 -0.1767,-0.09019 -0.351,-0.185927 -0.52148,-0.285156 -0.17048,-0.09923 -0.33862,-0.201756 -0.50195,-0.310547 -0.16334,-0.108791 -0.3213,-0.22292 -0.47657,-0.341797 -0.15527,-0.118877 -0.30684,-0.24356 -0.45312,-0.373047 -0.14628,-0.129487 -0.28745,-0.263676 -0.42383,-0.404297 -0.13638,-0.14062 -0.26898,-0.287175 -0.39453,-0.439453 -0.12555,-0.152277 -0.24557,-0.31015 -0.35938,-0.474609 -0.1138,-0.164459 -0.22112,-0.334555 -0.32226,-0.511719 -0.10115,-0.177164 -0.19564,-0.362341 -0.2832,-0.552734 -0.0876,-0.190394 -0.16718,-0.387651 -0.24024,-0.591797 -0.0731,-0.204147 -0.13963,-0.414389 -0.19726,-0.632813 -0.0576,-0.218423 -0.10715,-0.44451 -0.14844,-0.677734 -0.0413,-0.233224 -0.0736,-0.474108 -0.0977,-0.722656 -0.024,-0.248549 -0.0391,-0.505134 -0.0449,-0.769532 -0.006,-0.264397 -0.003,-0.535636 0.01,-0.816406 0.0132,-0.280769 0.0456,-0.568437 0.0937,-0.859375 0.0482,-0.290938 0.11255,-0.584881 0.19336,-0.884765 0.0808,-0.299885 0.1779,-0.604501 0.28906,-0.91211 0.11116,-0.307609 0.23576,-0.619483 0.375,-0.933594 0.13924,-0.31411 0.29199,-0.63178 0.45703,-0.951171 0.16503,-0.319391 0.3427,-0.639442 0.53125,-0.962891 0.18855,-0.323449 0.38786,-0.650278 0.59766,-0.976562 0.20979,-0.326285 0.4314,-0.652571 0.66015,-0.980469 0.22876,-0.327899 0.46551,-0.656085 0.71094,-0.984375 0.24543,-0.328291 0.49798,-0.656915 0.75781,-0.984375 0.25984,-0.32746 0.52687,-0.655062 0.79883,-0.980469 0.27196,-0.325407 0.55023,-0.64857 0.83203,-0.970703 0.5636,-0.644266 1.14313,-1.280462 1.73242,-1.904297 0.5893,-0.623835 1.1884,-1.234498 1.78516,-1.828125 0.59676,-0.593627 1.19136,-1.170967 1.77734,-1.724609 0.58599,-0.553642 1.16178,-1.08401 1.71875,-1.587891 0.55698,-0.503881 1.09574,-0.981439 1.60547,-1.425781 0.38129,-0.332373 0.72829,-0.625643 1.07422,-0.919922 z" /><path
       id="path62323"
       style="fill:url(#linearGradient53870);fill-opacity:1;stroke:none;stroke-width:1px;stroke-linecap:butt;stroke-linejoin:miter;stroke-opacity:1"
       d="m 154.11914,18.263672 c -0.34593,0.294279 -0.69293,0.587549 -1.07422,0.919922 -0.50973,0.444342 -1.04849,0.9219 -1.60547,1.425781 -0.55697,0.503881 -1.13276,1.034249 -1.71875,1.587891 -0.58598,0.553642 -1.18058,1.130982 -1.77734,1.724609 -0.59676,0.593627 -1.19586,1.20429 -1.78516,1.828125 -0.58929,0.623835 -1.16882,1.260031 -1.73242,1.904297 -0.2818,0.322133 -0.56007,0.645296 -0.83203,0.970703 -0.27196,0.325407 -0.53899,0.653009 -0.79883,0.980469 -0.25983,0.32746 -0.51238,0.656084 -0.75781,0.984375 -0.24543,0.32829 -0.48218,0.656476 -0.71094,0.984375 -0.22875,0.327898 -0.45036,0.654184 -0.66015,0.980469 -0.2098,0.326284 -0.40911,0.653113 -0.59766,0.976562 -0.18855,0.323449 -0.36622,0.6435 -0.53125,0.962891 -0.16504,0.319391 -0.31779,0.637061 -0.45703,0.951171 -0.13924,0.314111 -0.26384,0.625985 -0.375,0.933594 -0.11116,0.307609 -0.20826,0.612225 -0.28906,0.91211 -0.0808,0.299884 -0.1452,0.593827 -0.19336,0.884765 -0.0482,0.290938 -0.0805,0.578606 -0.0937,0.859375 -0.0133,0.28077 -0.0156,0.552009 -0.01,0.816406 0.006,0.264398 0.0209,0.520983 0.0449,0.769532 0.024,0.248548 0.0564,0.489432 0.0977,0.722656 0.0413,0.233224 0.0908,0.459311 0.14844,0.677734 0.0576,0.218424 0.1242,0.428666 0.19726,0.632813 0.0731,0.204146 0.15267,0.401403 0.24024,0.591797 0.0876,0.190393 0.18205,0.37557 0.2832,0.552734 0.10114,0.177164 0.20846,0.34726 0.32226,0.511719 0.11381,0.164459 0.23383,0.322332 0.35938,0.474609 0.12555,0.152278 0.25815,0.298833 0.39453,0.439453 0.13638,0.140621 0.27755,0.27481 0.42383,0.404297 0.14628,0.129487 0.29785,0.25417 0.45312,0.373047 0.15527,0.118877 0.31323,0.233006 0.47657,0.341797 0.16333,0.108791 0.33147,0.211317 0.50195,0.310547 0.17048,0.09923 0.34478,0.194965 0.52148,0.285156 0.17671,0.09019 0.3551,0.176135 0.53711,0.257813 0.36404,0.163354 0.73745,0.308964 1.11719,0.441406 0.37974,0.132442 0.7662,0.251702 1.1543,0.357422 0.0272,0.0074 0.0548,0.01223 0.082,0.01953 l 20.36914,0 c 0,0 3.83399,0.254321 3.83399,-3.310547 v -3.902344 c 0,0 0.14921,-2.515625 -2.66992,-2.515625 l -25.16016,0 c 0,0 11.35673,-13.287109 12.10351,-13.287109 0.49452,0 0.33278,-4.007466 0.16797,-6.736328 z"
       sodipodi:nodetypes="csssssssssssssssscccsscccssssssssssssccscscscc" /><path
       id="path62325"
       style="fill:url(#linearGradient53872);fill-opacity:1;stroke:none;stroke-width:1px;stroke-linecap:butt;stroke-linejoin:miter;stroke-opacity:1"
       d="m 159.73001,57.223939 -0.0327,-31.921205 c -4.1e-4,-0.401942 -0.0111,-0.786914 -0.0312,-1.158203 -0.0202,-0.371289 -0.0508,-0.728509 -0.0899,-1.070312 -0.039,-0.341803 -0.086,-0.668938 -0.14258,-0.982422 -0.0566,-0.313485 -0.12243,-0.612105 -0.19531,-0.898438 -0.0729,-0.286333 -0.15239,-0.559963 -0.24023,-0.820312 -0.0879,-0.260349 -0.18365,-0.508609 -0.28516,-0.744141 -0.10151,-0.235532 -0.21035,-0.458039 -0.32422,-0.669922 -0.11387,-0.211882 -0.23249,-0.412162 -0.35742,-0.601562 -0.12493,-0.1894 -0.25593,-0.369024 -0.39063,-0.53711 -0.13469,-0.168085 -0.27286,-0.324719 -0.41601,-0.472656 -0.14316,-0.147937 -0.29109,-0.287059 -0.44141,-0.416015 -0.15031,-0.128957 -0.30281,-0.248232 -0.45898,-0.359375 -0.15617,-0.111144 -0.31584,-0.214097 -0.47656,-0.308594 -0.16073,-0.0945 -0.32431,-0.180747 -0.48828,-0.259766 -0.16398,-0.07902 -0.32822,-0.150137 -0.49415,-0.214844 -0.16592,-0.06471 -0.33342,-0.122265 -0.5,-0.173828 -0.16658,-0.05156 -0.33211,-0.09713 -0.49804,-0.136718 -0.16593,-0.03959 -0.33212,-0.07474 -0.4961,-0.103516 -0.32795,-0.05755 -0.65055,-0.09392 -0.96289,-0.115234 -0.31233,-0.02132 -0.61408,-0.02707 -0.90039,-0.02149 -0.28631,0.0056 -0.55677,0.02178 -0.80664,0.04492 -0.1196,0.01108 -0.21668,0.0275 -0.32617,0.04102 -1.84608,2.116051 -3.53516,4.068359 -3.53516,4.068359 0,0 3.1613,-0.776705 5.18164,1.732422 2.02035,2.509128 1.67588,5.202931 1.67969,8.087891 l 0.0327,24.804017 c 0,0 -0.11876,3.207028 2.50586,3.207031 z"
       sodipodi:nodetypes="cscccccsssssssssssssscsccsscsc" /><path
       id="path62327"
       style="fill:url(#linearGradient53874);fill-opacity:1;stroke:none;stroke-width:1px;stroke-linecap:butt;stroke-linejoin:miter;stroke-opacity:1"
       d="m 157.57031,8.7460938 c 0,0 -1.2417,-0.065288 -3.06054,1.9023442 -0.84136,0.910187 -2.54577,2.854406 -4.13477,4.675781 0.10949,-0.01352 0.20657,-0.02994 0.32617,-0.04102 0.24987,-0.02314 0.52033,-0.03934 0.80664,-0.04492 0.28631,-0.0056 0.58806,1.69e-4 0.90039,0.02149 0.31234,0.02131 0.63494,0.05768 0.96289,0.115234 0.16398,0.02878 0.33017,0.06393 0.4961,0.103516 0.16593,0.03958 0.33146,0.08516 0.49804,0.136718 0.16658,0.05156 0.33408,0.109122 0.5,0.173828 0.16593,0.06471 0.33017,0.135826 0.49415,0.214844 0.16397,0.07902 0.32755,0.165269 0.48828,0.259766 0.16072,0.0945 0.32039,0.19745 0.47656,0.308594 0.15617,0.111143 0.30867,0.230418 0.45898,0.359375 0.15032,0.128956 0.29825,0.268078 0.44141,0.416015 0.14315,0.147937 0.28132,0.304571 0.41601,0.472656 0.1347,0.168086 0.2657,0.34771 0.39063,0.53711 0.12493,0.1894 0.24355,0.38968 0.35742,0.601562 0.11387,0.211883 0.22271,0.43439 0.32422,0.669922 0.10151,0.235532 0.19731,0.483792 0.28516,0.744141 0.0878,0.260349 0.16735,0.533979 0.24023,0.820312 0.0729,0.286333 0.1387,0.584953 0.19531,0.898438 0.0566,0.313484 0.10354,0.640619 0.14258,0.982422 0.039,0.341803 0.0697,0.699023 0.0899,1.070312 0.0202,0.371289 0.0312,0.756261 0.0312,1.158203 v 31.921202 h 4.04687 c 0,0 2.68164,0.142656 2.68164,-3.082031 V 11.875 c 0,0 0.15372,-3.1289062 -2.61328,-3.1289062 z"
       sodipodi:nodetypes="cscsccsssssssssssssccscssccscsc" /></g></svg>
