<?xml version="1.0" encoding="UTF-8"?>
<svg width="64" height="64" version="1.1" viewBox="0 0 16.933 16.933" xmlns="http://www.w3.org/2000/svg" xmlns:cc="http://creativecommons.org/ns#" xmlns:dc="http://purl.org/dc/elements/1.1/" xmlns:rdf="http://www.w3.org/1999/02/22-rdf-syntax-ns#" xmlns:xlink="http://www.w3.org/1999/xlink">
 <metadata>
  <rdf:RDF>
   <cc:Work rdf:about="">
    <dc:format>image/svg+xml</dc:format>
    <dc:type rdf:resource="http://purl.org/dc/dcmitype/StillImage"/>
   </cc:Work>
  </rdf:RDF>
 </metadata>
 <defs>
  <linearGradient id="linearGradient5838" x1="8.2676" x2="55.248" y1="12.941" y2="54.276" gradientUnits="userSpaceOnUse">
   <stop stop-color="#f93c22" offset="0"/>
   <stop stop-color="#d20fe5" offset="1"/>
  </linearGradient>
 </defs>
 <g stroke-linecap="round" stroke-linejoin="round">
  <path transform="scale(.26458)" d="m5.8828 8.1797a2.383 2.383 0 0 0-2.3828 2.3848v42.875a2.383 2.383 0 0 0 2.3828 2.3828h41.975a2.3827 2.3827 0 0 0 2.3848-2.3828 2.3827 2.3827 0 0 0-2.3848-2.3848h-39.59v-38.113h47.467v28.951h-39.449l5.2773-10.357 3.248 5.6191s0.20232 0.72549 1.2695 1.3809c0.5336 0.32769 1.5743 0.59992 2.4883 0.27148 0.91402-0.32841 1.4225-0.98127 1.7637-1.5723a2.383 2.383 0 0 0 0.23047-0.52344l1.9844-6.8145c0.67871 1.2667 1.4376 2.7833 2.0156 3.5879 0.47822 0.66565 0.9308 1.2757 1.8613 1.7422 0.93053 0.46649 2.46 0.31004 3.248-0.21289 1.5762-1.0459 1.9115-2.1879 2.7891-3.7207 0.69641-1.2163 1.7237-2.8701 2.8359-4.5703l2.6133 9.752a2.3827 2.3827 0 0 0 2.9219 1.6836 2.3827 2.3827 0 0 0 1.6836-2.916l-3.1289-11.686c-0.28835-1.0762-0.9565-2.2486-2.1855-2.7461-1.229-0.49749-2.3327-0.11917-2.9902 0.2207-1.3151 0.67975-1.9629 1.6172-1.9629 1.6172a2.383 2.383 0 0 0-0.12695 0.16211c-1.7322 2.4864-2.9263 4.5976-3.793 6.1113-0.3113 0.54369-0.21501 0.40364-0.46484 0.76172-0.58228-0.94396-1.2488-2.1027-2.4004-4.3262a2.383 2.383 0 0 0-0.050782-0.095703c-0.46421-0.80404-1.0923-1.5558-2.1191-1.9277-1.0269-0.37189-2.1758-0.068216-2.7969 0.31836-1.2421 0.77315-1.5508 1.7129-1.5508 1.7129a2.383 2.383 0 0 0-0.16992 0.42774l-1.6836 5.7871-1.9258-3.3359c-0.59079-1.0233-1.308-1.8819-2.4512-2.3105-1.1431-0.42861-2.4462-0.084101-3.1523 0.38281-1.2894 0.85255-1.6755 1.8657-1.7363 2.043l-7.5586 14.832a2.383 2.383 0 0 0 2.127 3.4707h45.725a2.383 2.383 0 0 0 2.3848-2.3848v-33.713a2.383 2.383 0 0 0-2.3848-2.3848h-52.236zm9.5742 6.3848c-2.5364 0-4.627 2.0925-4.627 4.6289s2.0905 4.6211 4.627 4.6211c2.5364 0 4.623-2.0847 4.623-4.6211s-2.0866-4.6289-4.623-4.6289zm0 3.0039c0.9151 0 1.625 0.7099 1.625 1.625 0 0.9151-0.7099 1.623-1.625 1.623-0.9151 0-1.623-0.70795-1.623-1.623 0-0.9151 0.70795-1.625 1.623-1.625z" color="#000000" fill="url(#linearGradient5838)" stroke-width="3.7796" style="-inkscape-stroke:none"/>
  <path d="m-8.0424 9.4871-0.82847-3.0919c-0.1934-0.72179-0.79489 0-0.79489 0-1.7613 2.5281-1.3289 3.5208-2.8394 0.60448-0.31919-0.55285-0.60367 0-0.60367 0l-0.73877 2.5372c-0.18729 0.3244-0.35777 0-0.35777 0l-1.0093-1.7482c-0.46057-0.79772-0.83352 0-0.83352 0l-2.0002 3.9258h12.097v-8.9202h-13.82v11.344h11.106" fill="none" stroke="#000" stroke-width="1.2608"/>
  <circle cx="-17.238" cy="5.0774" r=".82675" fill="none" opacity=".46632" stroke="#000" stroke-width=".79373" style="paint-order:stroke fill markers"/>
 </g>
</svg>
