<?xml version="1.0" encoding="UTF-8"?>
<svg width="64" height="64" version="1.1" viewBox="0 0 16.933 16.933" xmlns="http://www.w3.org/2000/svg" xmlns:cc="http://creativecommons.org/ns#" xmlns:dc="http://purl.org/dc/elements/1.1/" xmlns:rdf="http://www.w3.org/1999/02/22-rdf-syntax-ns#" xmlns:xlink="http://www.w3.org/1999/xlink">
 <defs>
  <linearGradient id="linearGradient1646" x1="55" x2="10" y1="10" y2="55" gradientUnits="userSpaceOnUse">
   <stop stop-color="#fee800" offset="0"/>
   <stop stop-color="#ff1162" offset=".50691"/>
   <stop stop-color="#ff00ab" offset="1"/>
  </linearGradient>
  <linearGradient id="linearGradient14450" x1="20" x2="45" y1="40" y2="25" gradientUnits="userSpaceOnUse">
   <stop stop-color="#ff0076" offset="0"/>
   <stop stop-color="#ff7d30" offset="1"/>
  </linearGradient>
 </defs>
 <metadata>
  <rdf:RDF>
   <cc:Work rdf:about="">
    <dc:format>image/svg+xml</dc:format>
    <dc:type rdf:resource="http://purl.org/dc/dcmitype/StillImage"/>
   </cc:Work>
  </rdf:RDF>
 </metadata>
 <g>
  <path transform="scale(.26458)" d="m15 4c-6.094 0-11 4.906-11 11v34c0 6.094 4.906 11 11 11h34c6.094 0 11-4.906 11-11v-34c0-6.094-4.906-11-11-11zm2 7h30c3.324 0 6 2.676 6 6v30c0 3.324-2.676 6-6 6h-30c-3.324 0-6-2.676-6-6v-30c0-3.324 2.676-6 6-6z" fill="url(#linearGradient1646)"/>
  <path transform="scale(.26458)" d="m32 18a14 14 0 0 0-14 14 14 14 0 0 0 14 14 14 14 0 0 0 14-14 14 14 0 0 0-14-14zm0 6a8.0001 8 0 0 1 8 8 8.0001 8 0 0 1-8 8 8.0001 8 0 0 1-8-8 8.0001 8 0 0 1 8-8z" fill="url(#linearGradient14450)"/>
  <circle cx="12.435" cy="4.4978" r=".79373" fill="#fee800" stroke-width="1.7143"/>
 </g>
</svg>
