<?xml version="1.0" encoding="UTF-8"?>
<svg width="64" height="64" version="1" xmlns="http://www.w3.org/2000/svg" xmlns:cc="http://creativecommons.org/ns#" xmlns:dc="http://purl.org/dc/elements/1.1/" xmlns:rdf="http://www.w3.org/1999/02/22-rdf-syntax-ns#" xmlns:xlink="http://www.w3.org/1999/xlink">
 <metadata>
  <rdf:RDF>
   <cc:Work rdf:about="">
    <dc:format>image/svg+xml</dc:format>
    <dc:type rdf:resource="http://purl.org/dc/dcmitype/StillImage"/>
   </cc:Work>
  </rdf:RDF>
 </metadata>
 <defs>
  <style type="text/css"/>
  <linearGradient id="linearGradient31616" x1="-18.226" x2="-9.0882" y1=".6706" y2="11.561" gradientUnits="userSpaceOnUse">
   <stop stop-color="#033bda" offset="0"/>
   <stop stop-color="#0b81fc" offset="1"/>
  </linearGradient>
  <linearGradient id="linearGradient20826" x1="-38.546" x2="-32.5" y1="-10.426" y2="15.599" gradientUnits="userSpaceOnUse">
   <stop stop-color="#033ada" offset="0"/>
   <stop stop-color="#0b81fc" offset="1"/>
  </linearGradient>
  <linearGradient id="linearGradient1338" x1="-49.932" x2="-33.281" y1="-2.5849" y2="16.499" gradientUnits="userSpaceOnUse">
   <stop stop-color="#033cdb" offset="0"/>
   <stop stop-color="#0b81fc" offset="1"/>
  </linearGradient>
  <linearGradient id="linearGradient1138" x1="39.681" x2="39.303" y1="40.641" y2="57.561" gradientTransform="matrix(1.7647 0 0 1.7647 -25.576 -41.424)" gradientUnits="userSpaceOnUse">
   <stop stop-color="#ff4931" offset="0"/>
   <stop stop-color="#ff0371" offset="1"/>
  </linearGradient>
 </defs>
 <g transform="matrix(1.0655 0 0 1.0655 60.819 29.059)" fill-rule="evenodd">
  <rect x="-44.448" y="2.7598" width="35.36" height="17.602" ry="0" fill="#0b81fd" style="paint-order:stroke fill markers"/>
  <circle cx="-10.346" cy="8.9847" r="11.455" fill="url(#linearGradient31616)" style="paint-order:stroke fill markers"/>
  <circle cx="-26.768" cy="2.7598" r="17.68" fill="url(#linearGradient20826)" style="paint-order:stroke fill markers"/>
  <circle cx="-42.484" cy="7.7226" r="12.717" fill="url(#linearGradient1338)" style="paint-order:stroke fill markers"/>
 </g>
 <path d="m44.45 30.294-16.093 3.0819c-0.83477 0.1599-1.4386 0.89348-1.4386 1.7477v17.114c-1.2881-0.51801-2.9739-0.52166-4.6115 0.1086-2.8147 1.0831-4.4204 3.628-3.5864 5.6844 0.83396 2.0562 3.7918 2.8452 6.6066 1.762 2.3746-0.91376 3.8887-2.868 3.8034-4.6914v-15.646l14.158-2.7113v11.957c-1.288-0.52106-2.9758-0.52604-4.6154 0.1053-2.8126 1.0831-4.417 3.6282-3.5836 5.6844 0.83332 2.0562 3.7888 2.845 6.6013 1.762 2.3308-0.89763 3.8318-2.7991 3.8033-4.5945l0.0053-0.0018v-20.488c0-0.55803-0.50516-0.97825-1.0504-0.87389z" fill="url(#linearGradient1138)" stroke-width=".033526" p-id="12170"/>
</svg>
