<?xml version="1.0" encoding="UTF-8"?>
<svg width="64" height="64" version="1.1" viewBox="0 0 16.933 16.933" xmlns="http://www.w3.org/2000/svg" xmlns:cc="http://creativecommons.org/ns#" xmlns:dc="http://purl.org/dc/elements/1.1/" xmlns:rdf="http://www.w3.org/1999/02/22-rdf-syntax-ns#" xmlns:xlink="http://www.w3.org/1999/xlink">
 <defs>
  <linearGradient id="linearGradient1149" x1="8.7387" x2="8.7387" y1="3.566" y2="14.877" gradientTransform="matrix(1.2998 0 0 1.2998 -2.5384 -3.5722)" gradientUnits="userSpaceOnUse">
   <stop stop-color="#feaa00" offset="0"/>
   <stop stop-color="#fd0575" offset=".48969"/>
   <stop stop-color="#7b31fe" offset="1"/>
  </linearGradient>
 </defs>
 <metadata>
  <rdf:RDF>
   <cc:Work rdf:about="">
    <dc:format>image/svg+xml</dc:format>
    <dc:type rdf:resource="http://purl.org/dc/dcmitype/StillImage"/>
   </cc:Work>
  </rdf:RDF>
 </metadata>
 <path d="m1.5312 1.0583 1.5762 2.8372h6.9355l-1.5762 1.8915 0.94574-0.6305-0.31525 0.6305 0.94574-0.6305-2.2067 1.8915v-0.31525l-0.31525 0.6305 0.31525 0.6305-2.2067 2.522-0.94574 0.94574v0.94574l0.6305 0.6305-0.94574 0.6305h0.6305l-0.6305 0.94574 2.2067-2.2067-2.2067 3.4677 2.8372-2.522 0.31525-0.94574v-0.6305l0.94574-0.94574v0.31525l1.261-0.31525 1.261-1.261-0.31525-0.31525-0.6305 0.6305v-0.6305l0.94574-0.96076v-0.93073l4.4135-6.305z" fill="url(#linearGradient1149)" stroke-width=".31525"/>
</svg>
