<?xml version="1.0" encoding="UTF-8"?>
<svg width="64" height="64" version="1.1" viewBox="0 0 64 64" xmlns="http://www.w3.org/2000/svg" xmlns:cc="http://creativecommons.org/ns#" xmlns:dc="http://purl.org/dc/elements/1.1/" xmlns:rdf="http://www.w3.org/1999/02/22-rdf-syntax-ns#" xmlns:xlink="http://www.w3.org/1999/xlink">
 <defs>
  <linearGradient id="linearGradient13291" x1="3" x2="61" y1="32" y2="32" gradientUnits="userSpaceOnUse">
   <stop stop-color="#0460f2" offset="0"/>
   <stop stop-color="#3aa4fd" offset="1"/>
  </linearGradient>
  <linearGradient id="linearGradient16892" x1="38.917" x2="64" y1="39.322" y2="64" gradientTransform="matrix(.83859 0 0 .83859 6.103 6.1027)" gradientUnits="userSpaceOnUse">
   <stop stop-color="#369ffc" offset="0"/>
   <stop stop-color="#0662f2" offset="1"/>
  </linearGradient>
 </defs>
 <metadata>
  <rdf:RDF>
   <cc:Work rdf:about="">
    <dc:format>image/svg+xml</dc:format>
    <dc:type rdf:resource="http://purl.org/dc/dcmitype/StillImage"/>
   </cc:Work>
  </rdf:RDF>
 </metadata>
 <circle cx="-33.697" cy="32" r="28.5" fill="#fd0575" fill-rule="evenodd" style="paint-order:stroke fill markers"/>
 <g fill-rule="evenodd">
  <circle cx="-33.697" cy="32" r="24" fill="#5b0575" style="paint-order:stroke fill markers"/>
  <circle cx="-33.697" cy="32" r="19.5" fill="#292928" style="paint-order:stroke fill markers"/>
  <circle cx="-33.697" cy="32" r="15" fill="#019ce8" style="paint-order:stroke fill markers"/>
  <circle cx="-33.697" cy="32" r="10.5" fill="#0079bc" style="paint-order:stroke fill markers"/>
  <circle cx="-33.697" cy="32" r="6" fill="#ffe131" style="paint-order:stroke fill markers"/>
 </g>
 <path d="m32 70.781a28.5 28.5 0 0 0-28.5 28.5 28.5 28.5 0 0 0 28.5 28.5 28.5 28.5 0 0 0 28.5-28.5 28.5 28.5 0 0 0-28.5-28.5zm0 4.5a24 24 0 0 1 24 24 24 24 0 0 1-24 24 24 24 0 0 1-24-24 24 24 0 0 1 24-24z" fill="#fd0575" fill-rule="evenodd" style="paint-order:stroke fill markers"/>
 <g fill-rule="evenodd">
  <path d="m32 79.781a19.5 19.5 0 0 0-19.5 19.5 19.5 19.5 0 0 0 19.5 19.5 19.5 19.5 0 0 0 19.5-19.5 19.5 19.5 0 0 0-19.5-19.5zm0 4.5a15 15 0 0 1 15 15 15 15 0 0 1-15 15 15 15 0 0 1-15-15 15 15 0 0 1 15-15z" fill="#292928" style="paint-order:stroke fill markers"/>
  <path d="m32 88.781a10.5 10.5 0 0 0-10.5 10.5 10.5 10.5 0 0 0 10.5 10.5 10.5 10.5 0 0 0 10.5-10.5 10.5 10.5 0 0 0-10.5-10.5zm0 4.5a6 6 0 0 1 6 6 6 6 0 0 1-6 6 6 6 0 0 1-6-6 6 6 0 0 1 6-6z" fill="#0079bc" style="paint-order:stroke fill markers"/>
  <path d="m32 3.5c-15.74 0-28.5 12.76-28.5 28.5s12.76 28.5 28.5 28.5c3.9104-0.0031 7.7784-0.81084 11.363-2.373l-3.0684-3.6152c-2.6556 0.98146-5.4638 1.4853-8.2949 1.4883-13.255 0-24-10.745-24-24s10.745-24 24-24 24 10.745 24 24c-0.0029 2.8388-0.50947 5.6546-1.4961 8.3164l3.6074 3.082c1.5723-3.5946 2.3855-7.475 2.3887-11.398 0-15.74-12.76-28.5-28.5-28.5zm0 9a19.5 19.5 0 0 0-19.5 19.5 19.5 19.5 0 0 0 19.5 19.5 19.5 19.5 0 0 0 5.1465-0.69727l-1.9297-2.2715c-0.43719-0.51496-0.8099-1.0839-1.1309-1.6836a15 15 0 0 1-2.0859 0.15234 15 15 0 0 1-15-15 15 15 0 0 1 15-15 15 15 0 0 1 15 15 15 15 0 0 1-0.15234 2.082c0.60392 0.32383 1.175 0.69988 1.6934 1.1426l2.2598 1.9297a19.5 19.5 0 0 0 0.69922-5.1543 19.5 19.5 0 0 0-19.5-19.5zm0 9.709a5.4825 5.4825 0 0 0-5.4824 5.4824 5.4825 5.4825 0 0 0 2.1113 4.3086 5.4825 5.4825 0 0 0-2.1113 4.3086 5.4825 5.4825 0 0 0 5.4824 5.4824 5.4825 5.4825 0 0 0 5.4824-5.4824 5.4825 5.4825 0 0 0-2.1016-4.3027 5.4825 5.4825 0 0 0 2.1016-4.3145 5.4825 5.4825 0 0 0-5.4824-5.4824zm0 2.3496a3.1329 3.1329 0 0 1 3.1328 3.1328 3.1329 3.1329 0 0 1-3.1328 3.1328 3.1329 3.1329 0 0 1-3.1328-3.1328 3.1329 3.1329 0 0 1 3.1328-3.1328zm0 8.6172a3.1329 3.1329 0 0 1 3.1328 3.1328 3.1329 3.1329 0 0 1-3.1328 3.1328 3.1329 3.1329 0 0 1-3.1328-3.1328 3.1329 3.1329 0 0 1 3.1328-3.1328z" fill="url(#linearGradient13291)" style="paint-order:stroke fill markers"/>
  <g stroke-linecap="round" stroke-linejoin="round">
   <path d="m52.179 59.772h7.5931v-7.5145l-15.702-13.409c-1.5555-1.3284-3.7751-1.4464-5.2215 0-1.4464 1.4464-1.3239 3.6621 0 5.2215z" color="#000000" fill="url(#linearGradient16892)" stroke-width="8.432" style="-inkscape-stroke:none;paint-order:stroke fill markers"/>
   <path d="m32 151.29a5.4825 5.4825 0 0 0-5.4825 5.4825 5.4825 5.4825 0 0 0 5.4825 5.4825 5.4825 5.4825 0 0 0 5.4825-5.4825 5.4825 5.4825 0 0 0-5.4825-5.4825zm0 2.3497a3.1329 3.1329 0 0 1 3.1329 3.1329 3.1329 3.1329 0 0 1-3.1329 3.1329 3.1329 3.1329 0 0 1-3.1329-3.1329 3.1329 3.1329 0 0 1 3.1329-3.1329z" fill="#0079bc" stroke="#0079bc" style="paint-order:stroke fill markers"/>
   <path d="m32 159.9a5.4825 5.4825 0 0 0-5.4825 5.4825 5.4825 5.4825 0 0 0 5.4825 5.4825 5.4825 5.4825 0 0 0 5.4825-5.4825 5.4825 5.4825 0 0 0-5.4825-5.4825zm0 2.3496a3.1329 3.1329 0 0 1 3.1329 3.1329 3.1329 3.1329 0 0 1-3.1329 3.1329 3.1329 3.1329 0 0 1-3.1329-3.1329 3.1329 3.1329 0 0 1 3.1329-3.1329z" fill="#0079bc" stroke="#0079bc" style="paint-order:stroke fill markers"/>
  </g>
 </g>
 <path d="m32 132.58c-15.74 0-28.5 12.76-28.5 28.5 0 15.74 12.76 28.5 28.5 28.5 3.9104-3e-3 7.7784-0.81084 11.363-2.373l-3.0684-3.6152c-2.6556 0.98146-5.4638 1.4853-8.2949 1.4883-13.255 0-24-10.745-24-24 0-13.255 10.745-24 24-24s24 10.745 24 24c-0.0029 2.8388-0.50947 5.6546-1.4961 8.3164l3.6074 3.082c1.5723-3.5946 2.3855-7.475 2.3887-11.398 0-15.74-12.76-28.5-28.5-28.5z" fill="#fd0575" fill-rule="evenodd" style="paint-order:stroke fill markers"/>
 <path d="m32 141.58a19.5 19.5 0 0 0-19.5 19.5 19.5 19.5 0 0 0 19.5 19.5 19.5 19.5 0 0 0 5.1465-0.69727l-1.9297-2.2715c-0.43719-0.51497-0.8099-1.0839-1.1309-1.6836a15 15 0 0 1-2.0859 0.15235 15 15 0 0 1-15-15 15 15 0 0 1 15-15 15 15 0 0 1 15 15 15 15 0 0 1-0.15234 2.082c0.60392 0.32383 1.175 0.69988 1.6934 1.1426l2.2598 1.9297a19.5 19.5 0 0 0 0.69922-5.1543 19.5 19.5 0 0 0-19.5-19.5z" fill="#292928" fill-rule="evenodd" style="paint-order:stroke fill markers"/>
</svg>
