<?xml version="1.0" encoding="UTF-8"?>
<svg width="64" height="64" version="1.1" viewBox="0 0 16.933 16.933" xmlns="http://www.w3.org/2000/svg" xmlns:cc="http://creativecommons.org/ns#" xmlns:dc="http://purl.org/dc/elements/1.1/" xmlns:rdf="http://www.w3.org/1999/02/22-rdf-syntax-ns#" xmlns:xlink="http://www.w3.org/1999/xlink">
 <defs>
  <linearGradient id="linearGradient9586" x1="30" x2="10" y1="15" y2="35" gradientTransform="matrix(.18708 -.18708 .18708 .18708 -3.5069 8.4665)" gradientUnits="userSpaceOnUse">
   <stop stop-color="#1d8afe" offset="0"/>
   <stop stop-color="#ce00d9" offset="1"/>
  </linearGradient>
  <linearGradient id="linearGradient30366" x1="30" x2="10" y1="15" y2="35" gradientTransform="matrix(-.18708 .18708 -.18708 -.18708 20.44 8.4665)" gradientUnits="userSpaceOnUse">
   <stop stop-color="#1d8afe" offset="0"/>
   <stop stop-color="#1c00ae" offset="1"/>
  </linearGradient>
  <linearGradient id="linearGradient31598" x1="-3.0426" x2="3.0426" y1="11.973" y2="11.973" gradientUnits="userSpaceOnUse">
   <stop stop-color="#00bffe" offset="0"/>
   <stop stop-color="#df00fe" offset="1"/>
  </linearGradient>
 </defs>
 <metadata>
  <rdf:RDF>
   <cc:Work rdf:about="">
    <dc:format>image/svg+xml</dc:format>
    <dc:type rdf:resource="http://purl.org/dc/dcmitype/StillImage"/>
   </cc:Work>
  </rdf:RDF>
 </metadata>
 <rect x="21.96" y="1.3229" width="15.081" height="15.081" ry="3.9687" fill="#0662f2" fill-rule="evenodd" stroke-linecap="round" stroke-linejoin="round" stroke-width=".20956" style="paint-order:stroke fill markers"/>
 <rect x="24.606" y="3.9687" width="9.7894" height="9.7894" ry="2.1166" fill="#6962f2" fill-rule="evenodd" stroke-linecap="round" stroke-linejoin="round" stroke-width=".13603" style="paint-order:stroke fill markers"/>
 <g transform="matrix(.8503 0 0 .8503 1.2674 1.2674)" fill-rule="evenodd" stroke-linecap="round" stroke-linejoin="round">
  <rect transform="rotate(-45)" x="-3.0426" y="8.9308" width="6.0853" height="6.0853" ry="1.3229" fill="url(#linearGradient31598)" stroke-width=".084558" style="paint-order:stroke fill markers"/>
  <path d="m0.60893 5.6602c-1.5547 1.5547-1.5547 4.0579 0 5.6125l2.5256 2.5256 1.8708-1.8708-1.9644-1.9644c-0.82916-0.82916-0.82916-2.1642 0-2.9934l3.9288-3.9288c0.82916-0.82916 2.1642-0.82916 2.9934 0l1.029 1.029 1.8708-1.8708-1.5902-1.5902c-1.5547-1.5547-4.0579-1.5547-5.6125 0z" fill="url(#linearGradient9586)" stroke-width=".20956" style="paint-order:stroke fill markers"/>
  <path d="m16.324 11.273c1.5547-1.5547 1.5547-4.0579 0-5.6126l-2.5256-2.5256-1.8708 1.8708 1.9644 1.9644c0.82916 0.82916 0.82916 2.1642 0 2.9934l-3.9288 3.9288c-0.82916 0.82916-2.1642 0.82916-2.9934 0l-1.029-1.029-1.8708 1.8708 1.5902 1.5902c1.5547 1.5547 4.0579 1.5547 5.6125 1e-6z" fill="url(#linearGradient30366)" stroke-width=".20956" style="paint-order:stroke fill markers"/>
 </g>
</svg>
