<?xml version="1.0" encoding="UTF-8"?>
<svg width="64" height="64" version="1.1" viewBox="0 0 16.933 16.933" xmlns="http://www.w3.org/2000/svg" xmlns:cc="http://creativecommons.org/ns#" xmlns:dc="http://purl.org/dc/elements/1.1/" xmlns:rdf="http://www.w3.org/1999/02/22-rdf-syntax-ns#">
 <defs>
  <style type="text/css"/>
 </defs>
 <metadata>
  <rdf:RDF>
   <cc:Work rdf:about="">
    <dc:format>image/svg+xml</dc:format>
    <dc:type rdf:resource="http://purl.org/dc/dcmitype/StillImage"/>
   </cc:Work>
  </rdf:RDF>
 </metadata>
 <g transform="translate(25.83,-8.897)" fill="#5e4aa6" stroke-width=".26458">
  <circle cx="-322.63" cy="-345.67" r="0"/>
  <circle cx="-31.726" cy="-10.849" r="0" fill-rule="evenodd"/>
  <circle cx="-306.92" cy="-328.72" r="0"/>
 </g>
 <g transform="translate(34.524 4.8662)">
  <g fill-rule="evenodd" stroke-linecap="round" stroke-linejoin="round" stroke-width=".29856">
   <rect x="-33.465" y="-3.8079" width="3.7041" height="3.7041" ry="0" fill="#1861e1" style="paint-order:stroke fill markers"/>
   <rect x="-29.761" y="-3.8079" width="3.7041" height="3.7041" ry="0" fill="#117eeb" style="paint-order:stroke fill markers"/>
   <rect x="-26.057" y="-3.8079" width="3.7041" height="3.7041" ry="0" fill="#0899f3" style="paint-order:stroke fill markers"/>
   <rect x="-22.353" y="-3.8079" width="3.7041" height="3.7041" ry="0" fill="#00b5fe" style="paint-order:stroke fill markers"/>
   <rect x="-33.465" y="-.10382" width="3.7041" height="3.7041" ry="0" fill="#0a18d7" style="paint-order:stroke fill markers"/>
   <rect x="-29.761" y="-.10382" width="3.7041" height="3.7041" ry="0" fill="#0843e3" style="paint-order:stroke fill markers"/>
   <rect x="-26.057" y="-.10382" width="3.7041" height="3.7041" ry="0" fill="#086fec" style="paint-order:stroke fill markers"/>
   <rect x="-22.353" y="-.10382" width="3.7041" height="3.7041" ry="0" fill="#0899f3" style="paint-order:stroke fill markers"/>
   <rect x="-26.057" y="3.6003" width="3.7041" height="3.7041" ry="0" fill="#0843e3" style="paint-order:stroke fill markers"/>
   <rect x="-22.353" y="3.6003" width="3.7041" height="3.7041" ry="0" fill="#117eeb" style="paint-order:stroke fill markers"/>
   <rect x="-26.057" y="7.3044" width="3.7041" height="3.7041" ry="0" fill="#0a18d7" style="paint-order:stroke fill markers"/>
   <rect x="-22.353" y="7.3044" width="3.7041" height="3.7041" ry="0" fill="#1861e1" style="paint-order:stroke fill markers"/>
  </g>
  <path d="m-33.465 3.6003 7.4082 7.4082v-7.4082z" fill="#6fe3fe"/>
  <g fill-rule="evenodd" stroke-linecap="round" stroke-linejoin="round" stroke-width=".29856">
   <rect x="-33.465" y="-3.8079" width="3.7041" height="3.7041" ry="0" fill="#1861e1" style="paint-order:stroke fill markers"/>
   <rect x="-29.761" y="-3.8079" width="3.7041" height="3.7041" ry="0" fill="#117eeb" style="paint-order:stroke fill markers"/>
   <rect x="-26.057" y="-3.8079" width="3.7041" height="3.7041" ry="0" fill="#0899f3" style="paint-order:stroke fill markers"/>
   <rect x="-22.353" y="-3.8079" width="3.7041" height="3.7041" ry="0" fill="#00b5fe" style="paint-order:stroke fill markers"/>
   <rect x="-33.465" y="-.10382" width="3.7041" height="3.7041" ry="0" fill="#0a18d7" style="paint-order:stroke fill markers"/>
   <rect x="-29.761" y="-.10382" width="3.7041" height="3.7041" ry="0" fill="#0843e3" style="paint-order:stroke fill markers"/>
   <rect x="-26.057" y="-.10382" width="3.7041" height="3.7041" ry="0" fill="#086fec" style="paint-order:stroke fill markers"/>
   <rect x="-22.353" y="-.10382" width="3.7041" height="3.7041" ry="0" fill="#0899f3" style="paint-order:stroke fill markers"/>
   <rect x="-26.057" y="3.6003" width="3.7041" height="3.7041" ry="0" fill="#0843e3" style="paint-order:stroke fill markers"/>
   <rect x="-22.353" y="3.6003" width="3.7041" height="3.7041" ry="0" fill="#117eeb" style="paint-order:stroke fill markers"/>
   <rect x="-26.057" y="7.3044" width="3.7041" height="3.7041" ry="0" fill="#0a18d7" style="paint-order:stroke fill markers"/>
   <rect x="-22.353" y="7.3044" width="3.7041" height="3.7041" ry="0" fill="#1861e1" style="paint-order:stroke fill markers"/>
  </g>
  <path d="m-33.465 3.6003 7.4082 7.4082v-7.4082z" fill="#6fe3fe"/>
 </g>
</svg>
