<?xml version="1.0" encoding="UTF-8"?>
<svg id="SimpleNote" width="64" height="64" enable-background="new 0 0 1024 1024" image-rendering="optimizeSpeed" version="1.1" viewBox="0 0 64 64" xmlns="http://www.w3.org/2000/svg" xmlns:cc="http://creativecommons.org/ns#" xmlns:dc="http://purl.org/dc/elements/1.1/" xmlns:rdf="http://www.w3.org/1999/02/22-rdf-syntax-ns#" xmlns:xlink="http://www.w3.org/1999/xlink">
 <metadata>
  <rdf:RDF>
   <cc:Work rdf:about="">
    <dc:format>image/svg+xml</dc:format>
    <dc:type rdf:resource="http://purl.org/dc/dcmitype/StillImage"/>
   </cc:Work>
  </rdf:RDF>
 </metadata>
 <defs>
  <linearGradient id="linearGradient1067" x1="10.232" x2="34.965" y1="4.618" y2="46.169" gradientUnits="userSpaceOnUse">
   <stop stop-color="#fea51d" offset="0"/>
   <stop stop-color="#ff0a76" offset="1"/>
  </linearGradient>
 </defs>
 <path d="m12.692 4c-0.75599 0.046-1.57 0-2.46 0.618-7.9579 3.424-2.62 12.82 7.5219 19.966 0.062-1.348 0.622-4.282 0.60799-5.574-8.6539-5.9339-13.716-11.708-8.2019-13.998 5.8159-2.414 7.6219 4.176 7.7239 13.742 0.542 0.562 4.294 3.054 4.864 3.448-0.212-8.7239-4.848-17.628-9.3039-18.138-0.238-0.046-0.5-0.046-0.75199-0.046m8.1019 15.178-1.81-0.70599-1.5 1.012-0.304 3.182 1.896 1.454 0.78799 1.056c5.8379 3.874 10.81 6.8579 17.356 9.3219l4.08 0.60599h2.684c2.476-1.46 0.99999-2.022 9.9939-3.144l-10.136 0.78599c-7.8179-3.03-15.796-7.3839-23.054-12.134m17.84 12.698c1.172 0 10.318-0.79399 13.958-1.13 3.6-0.56199 8.0239-0.72999 7.1859 3.48 0.95199-2.244-1.218-6.0559-4.306-6.7279-4.774-1.068-12.348 1.858-15.07 2.756m4.388 1.166c-1.42 0.56199-4.664 0.96599-6.1959 1.472 2.172 1.124 13.076 5.15 17.578 4.306 0.71999 0 3.76-2.186 3.834-3.758-0.234 2.862-13.564 0.72799-15.216-2.078m2.966 0.04999c-1.168-0.55999-6.6399-0.53199-7.8439-0.97999-6.8499 2.396-16.066 8.0219-22.66 11.816l-1.91 0.562c-0.37 2.62-1.984 3.522-3.456 5.22l2.232 2.246 1.746-2.864c7.7199-4.658 22.984-12.188 31.886-15.802m-31.886 15.802c-0.94399 0.56199-1.846 1.124-2.7 1.684-1.98 5.6179-4.288 9.4019-6.4919 9.2399 3.406 1.628 10.738-6.3939 13.212-13.938m-13.212 13.938c-5.194-3.088 5.7999-8.7139 8.2699-10.348 0.554-1.57-0.96399-4.176-0.468-6.0279-7.7539 4.828-12.336 11.81-9.7359 15.124 0.62599 0.78599 1.29 1.18 1.948 1.236m7.5439-11.764c0.36-1.446 5.15-4.736 6.0139-5.242 1.158-9.1219 1.214-10.024 2.198-17.114-0.58799-0.56199-4.21-3.384-4.772-3.776-0.69399 7.5779-2.002 17.846-3.852 24.706" fill="url(#linearGradient1067)" stroke-width="2" style="isolation:isolate"/>
</svg>
