<?xml version="1.0" encoding="UTF-8" standalone="no"?>
<svg
   width="64"
   height="64"
   version="1.1"
   id="svg26"
   sodipodi:docname="acroread.svg"
   inkscape:version="1.2 (dc2aedaf03, 2022-05-15)"
   xmlns:inkscape="http://www.inkscape.org/namespaces/inkscape"
   xmlns:sodipodi="http://sodipodi.sourceforge.net/DTD/sodipodi-0.dtd"
   xmlns="http://www.w3.org/2000/svg"
   xmlns:svg="http://www.w3.org/2000/svg"
   xmlns:rdf="http://www.w3.org/1999/02/22-rdf-syntax-ns#"
   xmlns:cc="http://creativecommons.org/ns#"
   xmlns:dc="http://purl.org/dc/elements/1.1/">
  <sodipodi:namedview
     id="namedview28"
     pagecolor="#ffffff"
     bordercolor="#999999"
     borderopacity="1"
     inkscape:showpageshadow="0"
     inkscape:pageopacity="0"
     inkscape:pagecheckerboard="0"
     inkscape:deskcolor="#d1d1d1"
     showgrid="false"
     inkscape:zoom="4.0117188"
     inkscape:cx="121.26972"
     inkscape:cy="13.460565"
     inkscape:window-width="3840"
     inkscape:window-height="2074"
     inkscape:window-x="1920"
     inkscape:window-y="0"
     inkscape:window-maximized="1"
     inkscape:current-layer="svg26" />
  <metadata
     id="metadata2">
    <rdf:RDF>
      <cc:Work
         rdf:about="">
        <dc:format>image/svg+xml</dc:format>
        <dc:type
           rdf:resource="http://purl.org/dc/dcmitype/StillImage" />
      </cc:Work>
    </rdf:RDF>
  </metadata>
  <defs
     id="defs14">
    <linearGradient
       id="b"
       x1="32"
       x2="32"
       y1=".77966"
       y2="50.901"
       gradientTransform="matrix(0.99704,0,0,0.99996,91.176422,9.2187)"
       gradientUnits="userSpaceOnUse">
      <stop
         stop-color="#fff"
         offset="0"
         id="stop4" />
      <stop
         stop-color="#f0f0f0"
         offset="1"
         id="stop6" />
    </linearGradient>
    <linearGradient
       id="linearGradient902"
       x1="38.119"
       x2="38.119"
       y1="61.091"
       y2="13.227"
       gradientTransform="matrix(0.99704,0,0,0.99996,83.449562,-0.10157)"
       gradientUnits="userSpaceOnUse">
      <stop
         stop-color="#f50f2d"
         offset="0"
         id="stop9" />
      <stop
         stop-color="#ff4b00"
         offset="1"
         id="stop11" />
    </linearGradient>
    <linearGradient
       id="linearGradient1067"
       x1="10.232"
       x2="34.965"
       y1="4.618"
       y2="46.168999"
       gradientUnits="userSpaceOnUse"
       gradientTransform="translate(-9.6731525e-6,-2.0160618e-4)">
      <stop
         stop-color="#fea51d"
         offset="0"
         id="stop259" />
      <stop
         stop-color="#ff0a76"
         offset="1"
         id="stop261" />
    </linearGradient>
    <linearGradient
       id="linearGradient25850"
       x1="152.83"
       x2="135.91"
       y1="21.954"
       y2="67.550003"
       gradientUnits="userSpaceOnUse"
       gradientTransform="matrix(0.57629,0,0,-0.57629,-42.377359,57.474489)">
      <stop
         stop-color="#d36709"
         offset="0"
         id="stop601" />
      <stop
         stop-color="#ffef5c"
         offset="1"
         id="stop603" />
    </linearGradient>
  </defs>
  <path
     id="path1165"
     style="opacity:1;fill:#1e82e1;fill-opacity:1;fill-rule:evenodd;stroke:none;stroke-width:3.92971;stroke-linecap:square;paint-order:stroke fill markers"
     d="M 14.724673,19.233939 A 16.235666,16.235666 0 0 0 19.201982,40.420418 12.404651,12.404651 0 0 1 16.128271,24.466899 12.404651,12.404651 0 0 1 33.072856,19.926612 12.404651,12.404651 0 0 1 37.613143,36.871196 12.404651,12.404651 0 0 1 22.260134,42.186043 16.235666,16.235666 0 0 0 42.846819,35.470267 16.235666,16.235666 0 0 0 36.903911,13.291031 16.235666,16.235666 0 0 0 14.724673,19.233939 Z" />
  <path
     d="m 12.69199,3.9997984 c -0.75599,0.046 -1.57,0 -2.46,0.618 -7.9578997,3.424 -2.6199997,12.8199996 7.5219,19.9660006 0.062,-1.348 0.622,-4.282 0.60799,-5.574001 -8.6538997,-5.9339 -13.7159997,-11.7079996 -8.2019,-13.9979996 5.8159,-2.414 7.6219,4.176 7.7239,13.7419996 0.542,0.562001 4.294,3.054001 4.864,3.448001 -0.212,-8.723901 -4.848,-17.6280006 -9.3039,-18.1380006 -0.238,-0.046 -0.5,-0.046 -0.75199,-0.046 m 8.1019,15.1780006 -1.81,-0.705991 -1.5,1.012001 -0.304,3.182 1.896,1.454 0.78799,1.056 c 5.8379,3.874 10.81,6.8579 17.356,9.3219 l 4.08,0.60599 h 2.684 c 2.476,-1.46 0.99999,-2.022 9.9939,-3.144 l -10.136,0.78599 c -7.8179,-3.03 -15.796,-7.3839 -23.054,-12.134 m 17.84,12.698 c 1.172,0 10.318,-0.79399 13.958,-1.13 3.6,-0.56199 8.0239,-0.72999 7.1859,3.48 0.95199,-2.244 -1.218,-6.0559 -4.306,-6.7279 -4.774,-1.068 -12.348,1.858 -15.07,2.756 m 4.388,1.166 c -1.42,0.56199 -4.664,0.96599 -6.1959,1.472 2.172,1.124 13.076,5.15 17.578,4.306 0.71999,0 3.76,-2.186 3.834,-3.758 -0.234,2.862 -13.564,0.72799 -15.216,-2.078 m 2.966,0.04999 c -1.168,-0.55999 -6.6399,-0.53199 -7.8439,-0.97999 -6.8499,2.396 -16.066,8.0219 -22.66,11.816 l -1.91,0.562 c -0.37,2.62 -1.984,3.522 -3.456,5.22 l 2.232,2.246 1.746,-2.864 c 7.7199,-4.658 21.803217,-12.076062 30.705217,-15.690062 M 15.85788,48.863789 c -0.94399,0.56199 -1.846,1.124 -2.7,1.684 -1.98,5.6179 -4.2879997,9.4019 -6.4918997,9.2399 3.4059997,1.628 10.7379997,-6.3939 13.2119997,-13.938 m -13.2119997,13.938 c -5.194,-3.088 5.7998997,-8.7139 8.2698997,-10.348 0.554,-1.57 -0.983521,-3.375403 -0.487531,-5.227303 -7.7539,4.828 -12.3164687,11.009403 -9.7163687,14.323403 0.62599,0.78599 1.29,1.18 1.948,1.236 m 7.5438997,-11.764 c 0.36,-1.446 5.15,-4.736 6.0139,-5.242 1.158,-9.1219 1.214,-10.024 2.198,-17.114 -0.58799,-0.56199 -4.21,-3.384 -4.772,-3.776 -0.69399,7.5779 -2.002,17.846 -3.852,24.706"
     fill="url(#linearGradient1067)"
     stroke-width="2"
     style="isolation:isolate;fill:url(#linearGradient1067)"
     id="path266"
     sodipodi:nodetypes="ccccccccccccccccccccccccccccccccccccccccccccccccccccc" />
</svg>
