<?xml version="1.0" encoding="UTF-8" standalone="no"?>
<svg
   width="64"
   height="64"
   version="1.1"
   id="svg16"
   sodipodi:docname="agave.svg"
   xml:space="preserve"
   inkscape:version="1.2 (dc2aedaf03, 2022-05-15)"
   xmlns:inkscape="http://www.inkscape.org/namespaces/inkscape"
   xmlns:sodipodi="http://sodipodi.sourceforge.net/DTD/sodipodi-0.dtd"
   xmlns:xlink="http://www.w3.org/1999/xlink"
   xmlns="http://www.w3.org/2000/svg"
   xmlns:svg="http://www.w3.org/2000/svg"
   xmlns:rdf="http://www.w3.org/1999/02/22-rdf-syntax-ns#"
   xmlns:cc="http://creativecommons.org/ns#"
   xmlns:dc="http://purl.org/dc/elements/1.1/"><defs
     id="defs20"><linearGradient
       inkscape:collect="always"
       id="linearGradient11416"><stop
         style="stop-color:#00b59b;stop-opacity:1"
         offset="0"
         id="stop11412" /><stop
         style="stop-color:#0f5382;stop-opacity:1"
         offset="1"
         id="stop11414" /></linearGradient><linearGradient
       inkscape:collect="always"
       id="linearGradient6442"><stop
         style="stop-color:#00e05f;stop-opacity:1"
         offset="0"
         id="stop6438" /><stop
         style="stop-color:#00a4b5;stop-opacity:1"
         offset="1"
         id="stop6440" /></linearGradient><linearGradient
       inkscape:collect="always"
       id="linearGradient1101"><stop
         style="stop-color:#c3f803;stop-opacity:1"
         offset="0"
         id="stop1097" /><stop
         style="stop-color:#8fef26;stop-opacity:1"
         offset="1"
         id="stop1099" /></linearGradient><linearGradient
       inkscape:collect="always"
       xlink:href="#linearGradient1101"
       id="linearGradient1103"
       x1="-106.02655"
       y1="-77.414635"
       x2="-106.02655"
       y2="75.185547"
       gradientUnits="userSpaceOnUse"
       gradientTransform="matrix(0,-0.32818036,0.32818036,0,-95.448873,11.804003)" /><linearGradient
       inkscape:collect="always"
       xlink:href="#linearGradient6442"
       id="linearGradient5401"
       x1="-81.831665"
       y1="-75.994568"
       x2="-81.831665"
       y2="71.271912"
       gradientUnits="userSpaceOnUse"
       gradientTransform="matrix(0,-0.32818036,0.32818036,0,-95.448873,11.804003)" /><linearGradient
       inkscape:collect="always"
       xlink:href="#linearGradient11416"
       id="linearGradient11418"
       x1="-37.708141"
       y1="-79.320335"
       x2="-37.708141"
       y2="74.597443"
       gradientUnits="userSpaceOnUse"
       gradientTransform="matrix(0,-0.32818036,0.32818036,0,-95.448873,11.804003)" /></defs><sodipodi:namedview
     id="namedview18"
     pagecolor="#ffffff"
     bordercolor="#999999"
     borderopacity="1"
     inkscape:showpageshadow="0"
     inkscape:pageopacity="0"
     inkscape:pagecheckerboard="0"
     inkscape:deskcolor="#d1d1d1"
     showgrid="false"
     inkscape:zoom="4.0117188"
     inkscape:cx="101.32814"
     inkscape:cy="-25.176241"
     inkscape:window-width="3840"
     inkscape:window-height="2074"
     inkscape:window-x="1920"
     inkscape:window-y="0"
     inkscape:window-maximized="1"
     inkscape:current-layer="svg16" /><metadata
     id="metadata2"><rdf:RDF><cc:Work
         rdf:about=""><dc:format>image/svg+xml</dc:format><dc:type
           rdf:resource="http://purl.org/dc/dcmitype/StillImage" /><dc:title /></cc:Work></rdf:RDF></metadata><g
     id="g13770"
     transform="matrix(1.1198707,0,0,1.1198707,139.75823,-16.583092)"><path
       id="path430"
       style="opacity:1;fill:url(#linearGradient1103);fill-opacity:1;fill-rule:evenodd;stroke-width:0.951201;stroke-linecap:square;paint-order:stroke fill markers"
       d="m -121.67318,40.165063 a 25.449346,25.563067 0 0 0 25.449366,25.563456 25.449346,25.563067 0 0 0 25.449361,-25.563456 V 30.640784 A 25.449346,25.563067 0 0 1 -96.223814,56.204239 25.449346,25.563067 0 0 1 -121.67318,30.640784 Z" /><path
       id="path997"
       style="opacity:1;fill:#c35c78;fill-rule:evenodd;stroke-width:0.951201;stroke-linecap:square;paint-order:stroke fill markers"
       d="m -121.67318,30.640784 a 25.449346,25.563067 0 0 0 25.449366,25.563455 25.449346,25.563067 0 0 0 25.449361,-25.563455 V 21.037019 A 25.449346,25.563067 0 0 1 -96.223814,46.600478 25.449346,25.563067 0 0 1 -121.67318,21.037019 Z" /><path
       id="path1015"
       style="opacity:1;fill:url(#linearGradient5401);fill-opacity:1;fill-rule:evenodd;stroke-width:0.951201;stroke-linecap:square;paint-order:stroke fill markers"
       d="m -121.67318,30.640784 a 25.449346,25.563067 0 0 0 25.449366,25.563455 25.449346,25.563067 0 0 0 25.449361,-25.563455 V 21.037019 A 25.449346,25.563067 0 0 1 -96.223814,46.600478 25.449346,25.563067 0 0 1 -121.67318,21.037019 Z" /><path
       id="path1034"
       style="opacity:1;fill:url(#linearGradient11418);fill-opacity:1;fill-rule:evenodd;stroke-width:0.951201;stroke-linecap:square;paint-order:stroke fill markers"
       d="m -70.774453,21.037019 c -0.771276,0.04381 -1.519423,0.107725 -2.244702,0.191014 -0.725279,0.08329 -1.42748,0.186255 -2.108174,0.306386 -0.680694,0.12013 -1.339893,0.257808 -1.977415,0.412148 -0.637522,0.15434 -1.253458,0.324945 -1.849219,0.510859 -0.595762,0.185914 -1.171379,0.387026 -1.726793,0.601876 -0.555415,0.214853 -1.09045,0.443411 -1.60693,0.684565 -0.51648,0.241156 -1.013878,0.494735 -1.492836,0.759557 -0.478958,0.264825 -0.939739,0.541008 -1.382588,0.826863 -0.442849,0.285852 -0.868034,0.581578 -1.276186,0.885828 -0.408152,0.304253 -0.799403,0.617097 -1.17427,0.937109 -0.374868,0.320012 -0.733205,0.646916 -1.076201,0.980055 -0.342996,0.333139 -0.670722,0.67232 -0.983259,1.015948 -0.312537,0.343631 -0.610032,0.692027 -0.893522,1.043512 -0.283491,0.351484 -0.553057,0.706037 -0.808914,1.062739 -0.255856,0.356703 -0.497873,0.715634 -0.727509,1.074919 -0.229635,0.359289 -0.446406,0.718889 -0.651233,1.078125 -0.204827,0.359236 -0.398013,0.717727 -0.579443,1.074279 -0.181431,0.356548 -0.351412,0.711511 -0.510859,1.06274 -0.159447,0.351225 -0.308526,0.698958 -0.447402,1.042228 -0.138877,0.34327 -0.267433,0.681992 -0.387151,1.014668 -0.119717,0.332677 -0.230054,0.659325 -0.332026,0.978772 -0.101972,0.319447 -0.19575,0.631599 -0.281389,0.935186 -0.171278,0.60717 -0.311188,1.180301 -0.425609,1.708205 -0.114421,0.527901 -0.20355,1.010799 -0.272415,1.438352 -0.06886,0.42755 -0.117303,0.799569 -0.151912,1.105686 -0.06922,0.612233 -0.0814,0.960185 -0.0814,0.960185 -0.09479,-0.740659 -0.208341,-1.457973 -0.339718,-2.153045 -0.131376,-0.69507 -0.280714,-1.367502 -0.44612,-2.018438 -0.165406,-0.650932 -0.347305,-1.280074 -0.54419,-1.888317 -0.196882,-0.608246 -0.408756,-1.195685 -0.634567,-1.762689 -0.225811,-0.567004 -0.465067,-1.11369 -0.717254,-1.640902 -0.252187,-0.527208 -0.516878,-1.034739 -0.792887,-1.523603 -0.276013,-0.488861 -0.563554,-0.959465 -0.860834,-1.411432 -0.29729,-0.451963 -0.60444,-0.885309 -0.92045,-1.301822 -0.31601,-0.416514 -0.64082,-0.816119 -0.973,-1.19863 -0.33218,-0.382511 -0.67207,-0.748038 -1.01787,-1.097993 -0.3458,-0.349955 -0.69754,-0.684282 -1.05441,-1.003129 -0.35687,-0.318847 -0.71851,-0.622283 -1.08389,-0.911469 -0.36539,-0.289189 -0.73434,-0.563964 -1.10569,-0.82494 -0.37135,-0.260972 -0.74502,-0.50804 -1.11979,-0.742252 -0.37476,-0.234209 -0.7512,-0.4558 -1.12683,-0.664693 -0.37564,-0.20889 -0.75097,-0.405316 -1.12492,-0.590338 -0.37394,-0.185024 -0.74623,-0.358514 -1.11594,-0.521114 -0.36971,-0.162603 -0.73636,-0.314108 -1.09928,-0.455737 -0.36292,-0.141627 -0.72198,-0.273381 -1.07556,-0.395481 -0.35358,-0.122103 -0.70182,-0.235056 -1.04351,-0.339079 -0.68337,-0.208047 -1.34088,-0.381181 -1.96139,-0.5256 -0.6205,-0.14442 -1.20431,-0.259526 -1.74153,-0.351898 -0.53722,-0.09237 -1.02726,-0.162181 -1.46079,-0.214086 -0.43353,-0.05191 -0.81036,-0.08594 -1.11979,-0.108965 -0.61886,-0.04604 -0.96916,-0.04615 -0.96916,-0.04615 a 25.449346,25.563067 0 0 0 25.44937,25.562816 25.449346,25.563067 0 0 0 25.449361,-25.562816 z" /></g></svg>
