<?xml version="1.0" encoding="UTF-8" standalone="no"?>
<svg
   width="64"
   height="64"
   viewBox="0 0 64 64"
   version="1.1"
   id="svg83"
   sodipodi:docname="akonadiconsole.svg"
   inkscape:version="1.2.1 (9c6d41e410, 2022-07-14)"
   xmlns:inkscape="http://www.inkscape.org/namespaces/inkscape"
   xmlns:sodipodi="http://sodipodi.sourceforge.net/DTD/sodipodi-0.dtd"
   xmlns:xlink="http://www.w3.org/1999/xlink"
   xmlns="http://www.w3.org/2000/svg"
   xmlns:svg="http://www.w3.org/2000/svg">
  <sodipodi:namedview
     id="namedview85"
     pagecolor="#ffffff"
     bordercolor="#999999"
     borderopacity="1"
     inkscape:showpageshadow="0"
     inkscape:pageopacity="0"
     inkscape:pagecheckerboard="0"
     inkscape:deskcolor="#d1d1d1"
     showgrid="false"
     inkscape:zoom="5.6734271"
     inkscape:cx="46.268331"
     inkscape:cy="29.082951"
     inkscape:window-width="3840"
     inkscape:window-height="2072"
     inkscape:window-x="1919"
     inkscape:window-y="0"
     inkscape:window-maximized="1"
     inkscape:current-layer="svg83" />
  <defs
     id="defs62">
    <linearGradient
       inkscape:collect="always"
       id="linearGradient29752">
      <stop
         style="stop-color:#7e7e7e;stop-opacity:1"
         offset="0"
         id="stop29748" />
      <stop
         style="stop-color:#5c5c5c;stop-opacity:1"
         offset="1"
         id="stop29750" />
    </linearGradient>
    <linearGradient
       inkscape:collect="always"
       id="linearGradient28535">
      <stop
         style="stop-color:#9b9b9b;stop-opacity:1"
         offset="0"
         id="stop28531" />
      <stop
         style="stop-color:#949494;stop-opacity:1"
         offset="1"
         id="stop28533" />
    </linearGradient>
    <linearGradient
       inkscape:collect="always"
       id="linearGradient25417">
      <stop
         style="stop-color:#b3b3b3;stop-opacity:1"
         offset="0"
         id="stop25413" />
      <stop
         style="stop-color:#9f9f9f;stop-opacity:1"
         offset="1"
         id="stop25415" />
    </linearGradient>
    <linearGradient
       inkscape:collect="always"
       id="linearGradient18300">
      <stop
         style="stop-color:#767676;stop-opacity:1"
         offset="0"
         id="stop18296" />
      <stop
         style="stop-color:#5a5a5a;stop-opacity:1"
         offset="1"
         id="stop18298" />
    </linearGradient>
    <linearGradient
       id="linearGradient11931">
      <stop
         stop-color="#019cfa"
         offset="0"
         id="stop11927"
         style="stop-color:#949494;stop-opacity:1" />
      <stop
         stop-color="#40bcfc"
         offset="1"
         id="stop11929"
         style="stop-color:#9b9b9b;stop-opacity:1" />
    </linearGradient>
    <linearGradient
       id="linearGradient9786">
      <stop
         stop-color="#03d0fa"
         offset="0"
         id="stop9782"
         style="stop-color:#b3b3b3;stop-opacity:1" />
      <stop
         stop-color="#009ffe"
         offset="1"
         id="stop9784"
         style="stop-color:#9e9e9e;stop-opacity:1" />
    </linearGradient>
    <linearGradient
       id="linearGradient5772">
      <stop
         stop-color="#0072d5"
         offset="0"
         id="stop5768"
         style="stop-color:#777777;stop-opacity:1" />
      <stop
         stop-color="#0049c5"
         offset="1"
         id="stop5770"
         style="stop-color:#5a5a5a;stop-opacity:1" />
    </linearGradient>
    <linearGradient
       id="linear0"
       gradientUnits="userSpaceOnUse"
       x1="-306.171"
       y1="15.2498"
       x2="-273.6694"
       y2="15.2498"
       gradientTransform="matrix(1.8462,0,0,-1.8462,567.2244,64.1528)">
      <stop
         offset="0"
         style="stop-color:rgb(86.27451%,86.27451%,86.27451%);stop-opacity:1;"
         id="stop2" />
      <stop
         offset="1"
         style="stop-color:rgb(70.588235%,70.588235%,70.588235%);stop-opacity:1;"
         id="stop4" />
    </linearGradient>
    <linearGradient
       id="linear1"
       gradientUnits="userSpaceOnUse"
       x1="-284.5038"
       y1="28.2501"
       x2="-273.6702"
       y2="28.2501"
       gradientTransform="matrix(1.8462,0,0,-1.8462,567.2244,64.1528)">
      <stop
         offset="0"
         style="stop-color:rgb(47.058824%,47.058824%,47.058824%);stop-opacity:1;"
         id="stop7" />
      <stop
         offset="1"
         style="stop-color:rgb(35.294118%,35.294118%,35.294118%);stop-opacity:1;"
         id="stop9" />
    </linearGradient>
    <linearGradient
       id="linear2"
       gradientUnits="userSpaceOnUse"
       x1="-295.3374"
       y1="28.2501"
       x2="-284.5038"
       y2="28.2501"
       gradientTransform="matrix(1.8462,0,0,-1.8462,567.2244,64.1528)">
      <stop
         offset="0"
         style="stop-color:rgb(58.823529%,58.823529%,58.823529%);stop-opacity:1;"
         id="stop12" />
      <stop
         offset="1"
         style="stop-color:rgb(62.745098%,62.745098%,62.745098%);stop-opacity:1;"
         id="stop14" />
    </linearGradient>
    <linearGradient
       id="linear3"
       gradientUnits="userSpaceOnUse"
       x1="-306.171"
       y1="28.2501"
       x2="-295.3374"
       y2="28.2501"
       gradientTransform="matrix(1.8462,0,0,-1.8462,567.2244,64.1528)">
      <stop
         offset="0"
         style="stop-color:rgb(62.745098%,62.745098%,62.745098%);stop-opacity:1;"
         id="stop17" />
      <stop
         offset="1"
         style="stop-color:rgb(70.588235%,70.588235%,70.588235%);stop-opacity:1;"
         id="stop19" />
    </linearGradient>
    <linearGradient
       id="linear4"
       gradientUnits="userSpaceOnUse"
       x1="-142.9862"
       y1="223.0275"
       x2="-116.9567"
       y2="229.1687"
       gradientTransform="matrix(0.4692,-0.4692,-0.4692,-0.4692,183.9172,84.8652)">
      <stop
         offset="0"
         style="stop-color:rgb(47.058824%,47.058824%,47.058824%);stop-opacity:1;"
         id="stop22" />
      <stop
         offset="1"
         style="stop-color:rgb(31.372549%,31.372549%,31.372549%);stop-opacity:1;"
         id="stop24" />
    </linearGradient>
    <filter
       id="alpha"
       filterUnits="objectBoundingBox"
       x="0"
       y="0"
       width="1"
       height="1">
      <feColorMatrix
         type="matrix"
         in="SourceGraphic"
         values="0 0 0 0 1 0 0 0 0 1 0 0 0 0 1 0 0 0 1 0"
         id="feColorMatrix27" />
    </filter>
    <mask
       id="mask0">
      <g
         filter="url(#alpha)"
         id="g32">
        <rect
           x="0"
           y="0"
           width="64"
           height="64"
           style="fill:rgb(0%,0%,0%);fill-opacity:0.6;stroke:none;"
           id="rect30" />
      </g>
    </mask>
    <clipPath
       id="clip1">
      <rect
         x="0"
         y="0"
         width="64"
         height="64"
         id="rect35" />
    </clipPath>
    <g
       id="surface5"
       clip-path="url(#clip1)">
      <path
         style=" stroke:none;fill-rule:nonzero;fill:rgb(0%,0%,0%);fill-opacity:1;"
         d="M 8.210938 26.542969 L 21.179688 38.84375 C 21.464844 39.109375 21.910156 39.109375 22.195312 38.84375 L 25.753906 35.464844 C 25.890625 35.34375 25.964844 35.167969 25.964844 34.984375 C 25.964844 34.800781 25.890625 34.625 25.753906 34.5 L 12.789062 22.199219 C 12.5 21.933594 12.058594 21.933594 11.769531 22.199219 L 8.210938 25.578125 C 8.078125 25.703125 8 25.875 8 26.058594 C 8 26.242188 8.078125 26.417969 8.210938 26.542969 Z M 8.210938 26.542969 "
         id="path38" />
    </g>
    <linearGradient
       id="linear5"
       gradientUnits="userSpaceOnUse"
       x1="-224.7546"
       y1="141.1896"
       x2="-198.7251"
       y2="147.3308"
       gradientTransform="matrix(0.469236,0.469236,-0.469236,0.469236,183.8518,61.9014)">
      <stop
         offset="0"
         style="stop-color:rgb(50.980392%,50.980392%,50.980392%);stop-opacity:1;"
         id="stop41" />
      <stop
         offset="1"
         style="stop-color:rgb(39.215686%,39.215686%,39.215686%);stop-opacity:1;"
         id="stop43" />
    </linearGradient>
    <mask
       id="mask1">
      <g
         filter="url(#alpha)"
         id="g48">
        <rect
           x="0"
           y="0"
           width="64"
           height="64"
           style="fill:rgb(0%,0%,0%);fill-opacity:0.6;stroke:none;"
           id="rect46" />
      </g>
    </mask>
    <clipPath
       id="clip2">
      <rect
         x="0"
         y="0"
         width="64"
         height="64"
         id="rect51" />
    </clipPath>
    <g
       id="surface8"
       clip-path="url(#clip2)">
      <path
         style=" stroke:none;fill-rule:nonzero;fill:rgb(0%,0%,0%);fill-opacity:1;"
         d="M 38.65625 48 L 55.34375 48 C 55.519531 48 55.6875 47.925781 55.8125 47.800781 C 55.933594 47.675781 56 47.507812 56 47.332031 L 56 42.667969 C 56 42.492188 55.933594 42.324219 55.8125 42.199219 C 55.6875 42.074219 55.519531 42 55.34375 42 L 38.65625 42 C 38.480469 42 38.3125 42.074219 38.1875 42.199219 C 38.066406 42.324219 38 42.492188 38 42.667969 L 38 47.332031 C 38 47.507812 38.066406 47.675781 38.1875 47.800781 C 38.3125 47.925781 38.480469 48 38.65625 48 Z M 38.65625 48 "
         id="path54" />
    </g>
    <linearGradient
       id="linear6"
       gradientUnits="userSpaceOnUse"
       x1="-241.3418"
       y1="90.8886"
       x2="-216.6895"
       y2="96.7048"
       gradientTransform="matrix(0.6636,0,0,0.6636,198.666,-17.3138)">
      <stop
         offset="0"
         style="stop-color:rgb(50.980392%,50.980392%,50.980392%);stop-opacity:1;"
         id="stop57" />
      <stop
         offset="1"
         style="stop-color:rgb(39.215686%,39.215686%,39.215686%);stop-opacity:1;"
         id="stop59" />
    </linearGradient>
    <linearGradient
       id="linearGradient14243"
       x1="137.71001"
       x2="145.64"
       y1="10.479"
       y2="46.808998"
       gradientUnits="userSpaceOnUse"
       xlink:href="#linearGradient16015" />
    <linearGradient
       id="linearGradient16015">
      <stop
         stop-color="#03d0fa"
         offset="0"
         id="stop2330" />
      <stop
         stop-color="#009ffe"
         offset="1"
         id="stop2332" />
    </linearGradient>
    <linearGradient
       id="linearGradient26282"
       x1="110.29"
       x2="131.03999"
       y1="52.965"
       y2="32.213001"
       gradientUnits="userSpaceOnUse"
       xlink:href="#linearGradient26280" />
    <linearGradient
       id="linearGradient26280">
      <stop
         stop-color="#019cfa"
         offset="0"
         id="stop2325" />
      <stop
         stop-color="#40bcfc"
         offset="1"
         id="stop2327" />
    </linearGradient>
    <linearGradient
       id="linearGradient2465"
       x1="111.05"
       x2="131.03999"
       y1="12.213"
       y2="32.213001"
       gradientUnits="userSpaceOnUse"
       xlink:href="#linearGradient2463" />
    <linearGradient
       id="linearGradient2463">
      <stop
         stop-color="#0072d5"
         offset="0"
         id="stop2335" />
      <stop
         stop-color="#0049c5"
         offset="1"
         id="stop2337" />
    </linearGradient>
    <linearGradient
       id="linearGradient34349"
       x1="137.71001"
       x2="145.64"
       y1="10.479"
       y2="46.808998"
       gradientTransform="matrix(0.69884,0,0,0.69884,-77.077,8.8948)"
       gradientUnits="userSpaceOnUse"
       xlink:href="#linearGradient9786" />
    <linearGradient
       id="linearGradient34351"
       x1="110.29"
       x2="131.03999"
       y1="52.965"
       y2="32.213001"
       gradientTransform="matrix(0.69884,0,0,0.69884,-77.077,8.8948)"
       gradientUnits="userSpaceOnUse"
       xlink:href="#linearGradient11931" />
    <linearGradient
       id="linearGradient34353"
       x1="111.05"
       x2="131.03999"
       y1="12.213"
       y2="32.213001"
       gradientTransform="matrix(0.69884,0,0,0.69884,-77.077,8.8948)"
       gradientUnits="userSpaceOnUse"
       xlink:href="#linearGradient5772" />
    <linearGradient
       id="linearGradient34716"
       x1="-15.924"
       x2="30.697001"
       y1="52.897999"
       y2="52.897999"
       gradientTransform="matrix(0.75075,0,0,0.85514,40.954948,4.1509165)"
       gradientUnits="userSpaceOnUse">
      <stop
         stop-color="#fdb508"
         offset="0"
         id="stop2346"
         style="stop-color:#7f7f7f;stop-opacity:1" />
      <stop
         stop-color="#ec3624"
         offset="1"
         id="stop2348"
         style="stop-color:#5c5c5c;stop-opacity:1" />
    </linearGradient>
    <linearGradient
       inkscape:collect="always"
       xlink:href="#linearGradient18300"
       id="linearGradient18302"
       x1="0.52820998"
       y1="17.4298"
       x2="14.505423"
       y2="31.406765"
       gradientUnits="userSpaceOnUse"
       gradientTransform="matrix(1.0584,0,0,1.1833,-5.2e-5,-5.8664835)" />
    <linearGradient
       inkscape:collect="always"
       xlink:href="#linearGradient25417"
       id="linearGradient25135"
       x1="19.028687"
       y1="15.974987"
       x2="24.702"
       y2="41.606998"
       gradientUnits="userSpaceOnUse"
       gradientTransform="matrix(1.0584,0,0,1.1833,-5.2e-5,-5.8664835)" />
    <linearGradient
       inkscape:collect="always"
       xlink:href="#linearGradient28535"
       id="linearGradient28460"
       x1="14.5015"
       y1="31.407101"
       x2="9.9999997e-05"
       y2="45.90918"
       gradientUnits="userSpaceOnUse"
       gradientTransform="matrix(1.0584,0,0,1.1833,-5.2e-5,-5.8664835)" />
    <linearGradient
       inkscape:collect="always"
       xlink:href="#linearGradient29752"
       id="linearGradient29754"
       x1="28.999947"
       y1="49.385918"
       x2="63.999947"
       y2="49.385918"
       gradientUnits="userSpaceOnUse" />
  </defs>
  <g
     transform="matrix(0.73965226,0,0,0.82693737,-81.578349,4.6587333)"
     id="g2359">
    <path
       d="m 125.68,2.832 c -5.5675,0.069377 -9.543,4.3047 -9.543,4.3047 l -4.9258,4.9258 -0.16211,0.15039 19.996,20 3.584,-3.584 c 0,0 3.3077,-3.4921 4.2676,-7.0742 0.95969,-3.5816 0.87982,-9.8136 -3.4492,-14.145 -9.3e-4,-9.286e-4 -10e-4,-0.00102 -0.002,-0.00195 -0.017,-0.016985 -0.0317,-0.031727 -0.0488,-0.048828 -3.4473,-3.4583 -6.8005,-4.5637 -9.7168,-4.5273 z"
       fill="url(#linearGradient2465)"
       id="path2357"
       style="fill:url(#linearGradient2465)" />
  </g>
  <path
     id="path2361"
     d="m 11.866729,7.0125537 c 0.07824,0.00414 0.156474,0.011005 0.235473,0.017761 -0.07885,-0.00674 -0.157384,-0.013679 -0.235473,-0.017761 z m -1.00692,0.016152 c -0.04312,0.00367 -0.08576,0.00852 -0.128574,0.012922 0.04268,-0.00438 0.08561,-0.00923 0.128574,-0.012922 z m 1.617976,0.041995 c 0.04542,0.00627 0.09013,0.01065 0.135793,0.017761 -0.04564,-0.0071 -0.09036,-0.011478 -0.135793,-0.017761 z m -2.221899,0.032304 c -0.04046,0.00674 -0.07972,0.015312 -0.119906,0.022613 0.04016,-0.00734 0.07948,-0.015927 0.119906,-0.022613 z m -0.4290644,0.0856 C 9.3977356,7.2842394 8.9861556,7.410888 8.5960082,7.5616996 8.9861979,7.4109235 9.397725,7.2842157 9.8268216,7.1886047 Z m 3.3097224,0.0032 c 0.0642,0.014815 0.128977,0.03176 0.193582,0.048456 C 13.265476,7.223524 13.200821,7.206638 13.136544,7.1918 Z m 0.613978,0.1695905 c 0.04379,0.01401 0.0875,0.025465 0.131464,0.040374 -0.04401,-0.014945 -0.08759,-0.02634 -0.131464,-0.040374 z m 0.706429,0.2616513 c 0.0398,0.016909 0.07999,0.035617 0.119906,0.053296 -0.03987,-0.01769 -0.08014,-0.036375 -0.119906,-0.053296 z m -6.0328799,0.00805 C 8.2763502,7.6916141 8.1319951,7.7555123 7.9906775,7.8216706 8.1318363,7.7556188 8.2765196,7.6915194 8.4240711,7.6310883 Z m -0.5648575,0.25196 c -0.091266,0.04435 -0.1774407,0.091091 -0.2658171,0.1372865 0.0881,-0.04603 0.1748476,-0.093102 0.2658171,-0.1372865 z m 7.2044234,0.029074 c 0.04816,0.024944 0.09619,0.048184 0.144471,0.074299 -0.04822,-0.026104 -0.09638,-0.049355 -0.144471,-0.074299 z m 0.733884,0.4199295 c 0.03092,0.019643 0.06146,0.042847 0.09245,0.062987 -0.03106,-0.020187 -0.06146,-0.043309 -0.09245,-0.062987 z m -8.8310784,0.041995 c -0.042382,0.025891 -0.087028,0.049805 -0.1285744,0.075909 0.041346,-0.02595 0.086407,-0.050184 0.1285744,-0.075909 z m 9.4710924,0.4005471 c 0.03624,0.026802 0.07204,0.053249 0.108348,0.08076 -0.03624,-0.027512 -0.07212,-0.053947 -0.108348,-0.08076 z M 6.1921172,8.8876582 C 6.1399709,8.9254291 6.0920487,8.9615316 6.0418773,8.9991014 6.0914348,8.9619931 6.140644,8.9249558 6.1921172,8.8876582 Z M 17.165608,9.356032 c 0.02685,0.023204 0.05407,0.049071 0.0809,0.072678 -0.02692,-0.023666 -0.054,-0.049415 -0.0809,-0.072678 z M 5.0532788,9.8196253 c -0.048966,0.045249 -0.09006,0.083707 -0.1343533,0.1259741 0.042604,-0.040611 0.087449,-0.082654 0.1343533,-0.1259741 z m 12.7558372,0.134056 c 0.04039,0.039546 0.08095,0.079033 0.121356,0.1195137 -0.04046,-0.04052 -0.08097,-0.079944 -0.121356,-0.1195137 z M 4.7780948,10.082898 c -0.1206364,0.119312 -0.1707305,0.169543 -0.2427017,0.247108 0.065681,-0.06972 0.1454877,-0.150942 0.2427017,-0.247108 z m 13.8279962,0.705803 c 3.200601,3.581375 3.259554,8.733819 2.549791,11.695145 -0.709943,2.962273 -3.156572,5.849999 -3.156572,5.849999 l -2.650974,2.963693 10.794621,12.06966 c 0,0 2.15522,-2.409554 2.880647,-3.220588 4.560329,-5.1909 3.444775,-13.859993 -0.426164,-18.187321 0,0 -2.615942,-2.898493 -9.99119,-11.170233 z"
     style="fill:url(#linearGradient25135);fill-opacity:1;stroke-width:1.11911" />
  <path
     d="m 26.144545,43.36708 -9.653772,10.792997 c 0,0 -5.306501,6.801609 -11.9757964,-0.654507 L 5.384e-5,48.457849 15.350029,31.296449 Z"
     id="path2363"
     style="fill:url(#linearGradient28460);fill-opacity:1;stroke-width:1.11911" />
  <path
     d="M 11.380923,7.0007207 C 7.2629005,7.0580871 4.3223478,10.560442 4.3223478,10.560442 L 0.6789116,14.633834 0.55900546,14.758199 15.349087,31.297183 18.000062,28.33349 c 0,0 2.446597,-2.887726 3.156572,-5.849999 0.709837,-2.9618 0.650768,-8.115308 -2.551273,-11.696684 -6.88e-4,-7.68e-4 -7.4e-4,-8.42e-4 -0.0015,-0.0017 -0.01257,-0.01405 -0.02344,-0.02623 -0.03609,-0.04037 -2.549775,-2.8597599 -5.03003,-3.7738591 -7.187049,-3.7438033 z"
     id="path2365"
     style="fill:url(#linearGradient18302);fill-opacity:1;stroke-width:1.11911" />
  <rect
     x="28.999947"
     y="41.771416"
     width="35"
     height="15.229"
     ry="7.6142998"
     fill-rule="evenodd"
     id="rect2369"
     style="fill-opacity:1;fill:url(#linearGradient29754)" />
</svg>
