<?xml version="1.0" encoding="UTF-8" standalone="no"?>
<svg
   width="64"
   height="64"
   version="1.1"
   viewBox="0 0 16.933 16.933"
   id="svg115"
   sodipodi:docname="akregator.svg"
   xml:space="preserve"
   inkscape:version="1.2.1 (9c6d41e410, 2022-07-14)"
   xmlns:inkscape="http://www.inkscape.org/namespaces/inkscape"
   xmlns:sodipodi="http://sodipodi.sourceforge.net/DTD/sodipodi-0.dtd"
   xmlns:xlink="http://www.w3.org/1999/xlink"
   xmlns="http://www.w3.org/2000/svg"
   xmlns:svg="http://www.w3.org/2000/svg"
   xmlns:rdf="http://www.w3.org/1999/02/22-rdf-syntax-ns#"
   xmlns:cc="http://creativecommons.org/ns#"
   xmlns:dc="http://purl.org/dc/elements/1.1/"><sodipodi:namedview
     id="namedview117"
     pagecolor="#ffffff"
     bordercolor="#999999"
     borderopacity="1"
     inkscape:showpageshadow="0"
     inkscape:pageopacity="0"
     inkscape:pagecheckerboard="0"
     inkscape:deskcolor="#d1d1d1"
     showgrid="false"
     inkscape:zoom="8.0234375"
     inkscape:cx="34.710808"
     inkscape:cy="3.2405063"
     inkscape:window-width="3840"
     inkscape:window-height="2072"
     inkscape:window-x="1919"
     inkscape:window-y="0"
     inkscape:window-maximized="1"
     inkscape:current-layer="svg115"><inkscape:grid
       type="xygrid"
       id="grid14632" /></sodipodi:namedview><defs
     id="defs7"><linearGradient
       inkscape:collect="always"
       id="linearGradient40610"><stop
         style="stop-color:#ff7f01;stop-opacity:1"
         offset="0"
         id="stop40606" /><stop
         style="stop-color:#f2ae44;stop-opacity:1"
         offset="1"
         id="stop40608" /></linearGradient><linearGradient
       inkscape:collect="always"
       id="linearGradient39979"><stop
         style="stop-color:#ff7f01;stop-opacity:1"
         offset="0"
         id="stop39975" /><stop
         style="stop-color:#f2ae44;stop-opacity:1"
         offset="1"
         id="stop39977" /></linearGradient><linearGradient
       id="linearGradient889"
       x1="-27.781"
       x2="-42.333"
       y1="1.0583"
       y2="15.611"
       gradientTransform="translate(-5.9143816,0.1322)"
       gradientUnits="userSpaceOnUse"><stop
         stop-color="#ff8c55"
         offset="0"
         id="stop2" /><stop
         stop-color="#ff5a1e"
         offset="1"
         id="stop4" /></linearGradient><linearGradient
       inkscape:collect="always"
       xlink:href="#linearGradient39979"
       id="linearGradient39981"
       x1="15.467513"
       y1="0.79373413"
       x2="1.465486"
       y2="16.139265"
       gradientUnits="userSpaceOnUse" /><linearGradient
       inkscape:collect="always"
       xlink:href="#linearGradient40610"
       id="linearGradient39983"
       x1="15.467513"
       y1="0.79373413"
       x2="1.465486"
       y2="16.139265"
       gradientUnits="userSpaceOnUse" /></defs><metadata
     id="metadata9"><rdf:RDF><cc:Work
         rdf:about=""><dc:format>image/svg+xml</dc:format><dc:type
           rdf:resource="http://purl.org/dc/dcmitype/StillImage" /><dc:title /></cc:Work></rdf:RDF></metadata><path
     d="m 3.655228,0.79375851 c -0.333517,0 -0.602005,0.26846439 -0.602005,0.60200509 V 5.180583 c 6.1362757,0 8.3848,3.7777459 9.317407,6.650691 h 2.494878 c 0.333517,0 0.602005,-0.268476 0.602005,-0.602005 V 1.3957392 c 0,-0.3335163 -0.268452,-0.60200508 -0.602005,-0.60200508 z"
     stroke-width="0.776367"
     id="path13"
     style="fill:url(#linearGradient39981);fill-opacity:1" /><path
     d="m 3.062638,6.5552601 v 1.5972733 c 3.528953,0 6.389215,2.8602616 6.389215,6.3892156 h 1.597273 c 0,-4.412777 -3.575663,-7.986367 -7.986366,-7.986367 m 0,3.1946686 v 1.5972734 c 1.76411,0 3.194668,1.430314 3.194668,3.194669 h 1.597274 c 0,-2.646228 -2.145471,-4.7919424 -4.791942,-4.7919424 m 0,3.1946684 c -0.882117,0 -1.597274,0.715169 -1.597274,1.597274 0,0.882152 0.71517,1.597273 1.597274,1.597273 0.882116,0 1.597273,-0.715169 1.597273,-1.597273 0,-0.882153 -0.715169,-1.597274 -1.597273,-1.597274"
     stroke-linejoin="round"
     stroke-width="1.77472"
     id="path15"
     style="fill:url(#linearGradient39983);fill-opacity:1" /><path
     d="m 3.053491,5.1803147 c 0.767025,0 1.473121,0.059213 2.12364,0.1681058 C 5.8277,5.4573271 6.422192,5.6156897 6.966243,5.8152239 7.510392,6.0147458 8.003806,6.2551356 8.45156,6.526966 8.899338,6.7988086 9.3016017,7.1023234 9.6630462,7.4282296 9.7699051,7.5245756 9.8491407,7.6343861 9.9490114,7.7344398 H 15.466233 V 5.1804123 H 3.05343 Z"
     stroke-width="0.887763"
     id="path37"
     style="fill:#ffffff;fill-opacity:1" /></svg>
