<?xml version="1.0" encoding="UTF-8" standalone="no"?>
<svg
   width="64"
   height="64"
   version="1.1"
   viewBox="0 0 16.933 16.933"
   id="svg71"
   sodipodi:docname="alacritty-simple.svg"
   xml:space="preserve"
   inkscape:version="1.2.1 (9c6d41e410, 2022-07-14)"
   xmlns:inkscape="http://www.inkscape.org/namespaces/inkscape"
   xmlns:sodipodi="http://sodipodi.sourceforge.net/DTD/sodipodi-0.dtd"
   xmlns:xlink="http://www.w3.org/1999/xlink"
   xmlns="http://www.w3.org/2000/svg"
   xmlns:svg="http://www.w3.org/2000/svg"
   xmlns:rdf="http://www.w3.org/1999/02/22-rdf-syntax-ns#"
   xmlns:cc="http://creativecommons.org/ns#"
   xmlns:dc="http://purl.org/dc/elements/1.1/"><sodipodi:namedview
     id="namedview73"
     pagecolor="#ffffff"
     bordercolor="#999999"
     borderopacity="1"
     inkscape:showpageshadow="0"
     inkscape:pageopacity="0"
     inkscape:pagecheckerboard="0"
     inkscape:deskcolor="#d1d1d1"
     showgrid="false"
     inkscape:zoom="4"
     inkscape:cx="-35.875"
     inkscape:cy="32.375"
     inkscape:window-width="1920"
     inkscape:window-height="1005"
     inkscape:window-x="0"
     inkscape:window-y="0"
     inkscape:window-maximized="1"
     inkscape:current-layer="svg71" /><defs
     id="defs37"><linearGradient
       inkscape:collect="always"
       id="linearGradient15646"><stop
         style="stop-color:#16c8be;stop-opacity:1"
         offset="0"
         id="stop15642" /><stop
         style="stop-color:#d7edf6;stop-opacity:1;"
         offset="1"
         id="stop15644" /></linearGradient><linearGradient
       inkscape:collect="always"
       id="linearGradient6934"><stop
         style="stop-color:#07e1b7;stop-opacity:1"
         offset="0"
         id="stop6930" /><stop
         style="stop-color:#7035e8;stop-opacity:1"
         offset="1"
         id="stop6932" /></linearGradient><linearGradient
       inkscape:collect="always"
       id="linearGradient2878"><stop
         style="stop-color:#fe4880;stop-opacity:1"
         offset="0"
         id="stop2874" /><stop
         style="stop-color:#feba71;stop-opacity:1"
         offset="1"
         id="stop2876" /></linearGradient><linearGradient
       id="linearGradient1058"
       x1="66.501"
       x2="66.501"
       y1="32.071"
       y2="105.31"
       gradientTransform="matrix(0.11127,0,0,0.11127,1.4271,1.2298)"
       gradientUnits="userSpaceOnUse"><stop
         stop-color="#f35f38"
         offset="0"
         id="stop2" /><stop
         stop-color="#d98775"
         offset="1"
         id="stop4" /></linearGradient><linearGradient
       id="linearGradient1060"
       x1="-17.133"
       x2="91.4"
       y1="34.298"
       y2="83.184"
       gradientTransform="matrix(0.11127,0,0,0.11127,1.2992,1.3725)"
       gradientUnits="userSpaceOnUse"><stop
         stop-color="#f3f038"
         offset="0"
         id="stop7" /><stop
         stop-color="#f3f038"
         stop-opacity="0"
         offset="1"
         id="stop9" /></linearGradient><linearGradient
       id="linearGradient1062"
       x1="17.035"
       x2="17.035"
       y1="20.053"
       y2="27.336"
       gradientTransform="matrix(0.42057,0,0,0.42057,1.2993,1.3725)"
       gradientUnits="userSpaceOnUse"><stop
         stop-color="#12a1f4"
         offset="0"
         id="stop12" /><stop
         stop-color="#2fc5f5"
         stop-opacity=".98182"
         offset="1"
         id="stop14" /></linearGradient><linearGradient
       id="linearGradient1064"
       x1="59.967"
       x2="63.122"
       y1="71.893"
       y2="81.853"
       gradientTransform="matrix(0.11127,0,0,0.11127,1.2993,1.3725)"
       gradientUnits="userSpaceOnUse"><stop
         stop-color="#54cbf7"
         offset="0"
         id="stop17" /><stop
         stop-color="#54cbf7"
         stop-opacity="0"
         offset="1"
         id="stop19" /></linearGradient><linearGradient
       id="linearGradient1983"
       x1="-13.253"
       x2="-13.253"
       y1="-.79376"
       y2="12.435"
       gradientTransform="matrix(0.91664,0,0,1,21.937,2.6458)"
       gradientUnits="userSpaceOnUse"><stop
         stop-color="#a7a7a7"
         offset="0"
         id="stop22" /><stop
         stop-color="#434343"
         offset="1"
         id="stop24" /></linearGradient><linearGradient
       id="linearGradient15455"
       x1="-13.253"
       x2="-13.253"
       y1="-.79376"
       y2="12.435"
       gradientTransform="matrix(0.78331,0,0,0.84002,19.997,3.5771)"
       gradientUnits="userSpaceOnUse"><stop
         stop-color="#fff"
         offset="0"
         id="stop27" /><stop
         stop-color="#e6e6e6"
         offset="1"
         id="stop29" /></linearGradient><linearGradient
       id="linearGradient41603"
       x1="2.1166"
       x2="15.081"
       y1="7.4082"
       y2="7.4082"
       gradientTransform="translate(0,0.26458)"
       gradientUnits="userSpaceOnUse"><stop
         stop-color="#e22702"
         offset="0"
         id="stop32" /><stop
         stop-color="#f3af13"
         offset="1"
         id="stop34" /></linearGradient><linearGradient
       inkscape:collect="always"
       xlink:href="#linearGradient6934"
       id="linearGradient6936"
       x1="24.595703"
       y1="1.0742188"
       x2="28.546865"
       y2="5.0253806"
       gradientUnits="userSpaceOnUse" /><linearGradient
       inkscape:collect="always"
       xlink:href="#linearGradient15646"
       id="linearGradient15502"
       x1="8.4663515"
       y1="24.808371"
       x2="8.4663515"
       y2="28.695608"
       gradientUnits="userSpaceOnUse" /><linearGradient
       inkscape:collect="always"
       xlink:href="#linearGradient2878"
       id="linearGradient19690"
       x1="8.5701332"
       y1="17.670094"
       x2="8.5701332"
       y2="29.200933"
       gradientUnits="userSpaceOnUse" /></defs><metadata
     id="metadata39"><rdf:RDF><cc:Work
         rdf:about=""><dc:format>image/svg+xml</dc:format><dc:type
           rdf:resource="http://purl.org/dc/dcmitype/StillImage" /></cc:Work></rdf:RDF></metadata><path
     d="m -17.557878,18.627877 -3.677828,9.398893 c -0.312901,0.836759 1.110934,1.512958 1.63459,0 l 2.860533,-7.202691 2.860532,7.202691 c 0.553054,1.41664 1.913505,0.98938 1.63459,0 l -3.677827,-9.398893 c -0.409588,-0.932307 -1.232939,-0.931875 -1.63459,0 z"
     style="clip-rule:evenodd;fill:none;fill-rule:evenodd;stroke:#000000;stroke-width:0.529156;stroke-linecap:round;stroke-linejoin:round;stroke-dasharray:none;stroke-opacity:1;paint-order:normal;enable-background:new"
     id="path606"
     sodipodi:nodetypes="cccccccc" /><g
     id="g19696"
     transform="matrix(1.099593,0,0,1.099593,-0.84321103,-18.497415)"><path
       id="rect19675"
       style="fill:url(#linearGradient19690);fill-opacity:1;fill-rule:evenodd;stroke:none;stroke-width:0.529156;stroke-linecap:round;stroke-linejoin:round;stroke-dasharray:none;stroke-opacity:1;paint-order:stroke fill markers"
       d="m 8.4670168,17.664207 c -0.4410182,7.8e-5 -0.8299326,0.333093 -1.0567623,0.859362 a 0.26460447,0.26460447 0 0 0 -0.00362,0.0078 l -3.6777393,9.398207 a 0.26460447,0.26460447 0 0 0 -0.00207,0.0041 c -0.1053769,0.281799 -0.065086,0.577381 0.072346,0.798902 0.1374312,0.221521 0.3640141,0.376251 0.6232055,0.433557 0.5183865,0.114631 1.1470386,-0.214596 1.4370933,-1.052628 l 2.6116755,-6.574663 2.6132265,6.586031 c 0.30672,0.783955 0.895584,1.140513 1.413839,1.066581 0.259319,-0.03699 0.494078,-0.183179 0.633024,-0.408236 0.138946,-0.225056 0.174168,-0.522162 0.08785,-0.828357 a 0.26460447,0.26460447 0 0 0 -0.0078,-0.02532 L 9.5335973,18.531321 a 0.26460447,0.26460447 0 0 0 -0.00413,-0.0098 C 9.2984045,17.995565 8.908035,17.66413 8.4670168,17.664207 Z m -0.210319,0.592717 c -0.012154,0.0074 -0.02394,0.01594 -0.036173,0.0248 -0.012352,0.009 -0.024826,0.01843 -0.037206,0.02894 -0.01238,0.01051 -0.024843,0.02198 -0.037206,0.03411 -0.012362,0.01213 -0.024909,0.02495 -0.037206,0.03876 -0.012297,0.01381 -0.024505,0.02836 -0.036689,0.04392 -0.012186,0.01556 -0.024146,0.03222 -0.036173,0.04961 -0.012028,0.01739 -0.023834,0.0355 -0.035656,0.05478 -0.011822,0.01928 -0.023569,0.03974 -0.035139,0.06098 -0.011571,0.02123 -0.023351,0.0434 -0.034623,0.06666 -0.011272,0.02326 -0.022146,0.04751 -0.033072,0.07286 l -3.6736053,9.386839 c -0.00638,0.01707 -0.011805,0.03351 -0.016019,0.04961 -0.00421,0.0161 -0.00764,0.0318 -0.00982,0.04703 -0.00218,0.01521 -0.00334,0.03003 -0.00362,0.04444 -2.74e-4,0.01441 5.691e-4,0.02817 0.00207,0.04186 0.0015,0.01369 0.00359,0.02725 0.00672,0.04031 0.00313,0.01306 0.00725,0.02573 0.011885,0.03824 0.00463,0.01251 0.010016,0.02464 0.016019,0.03669 0.006,0.01205 0.012399,0.02399 0.019637,0.03566 0.00724,0.01167 0.015658,0.02302 0.024287,0.03411 0.00863,0.01108 0.017473,0.02219 0.027388,0.03256 -0.019936,-0.02082 -0.037655,-0.04323 -0.052192,-0.06666 -0.057898,-0.09333 -0.078461,-0.197243 -0.027388,-0.333823 l 3.674122,-9.386839 c 0.1092629,-0.253502 0.2368992,-0.400667 0.3596609,-0.475414 z m 0.2139362,2.304724 a 0.26460447,0.26460447 0 0 1 0.043924,0.0036 0.26460447,0.26460447 0 0 0 -0.088365,0 0.26460447,0.26460447 0 0 1 0.044441,-0.0036 z m 0.044441,0.0036 a 0.26460447,0.26460447 0 0 1 0.083714,0.02997 0.26460447,0.26460447 0 0 0 -0.083714,-0.02997 z m -0.090949,5.17e-4 a 0.26460447,0.26460447 0 0 0 -0.080097,0.02842 0.26460447,0.26460447 0 0 1 0.080097,-0.02842 z m 0.1751796,0.02946 a 0.26460447,0.26460447 0 0 1 0.069762,0.05581 0.26460447,0.26460447 0 0 1 0.047025,0.07545 l 2.8612674,7.203036 c 0.01541,0.03947 0.03124,0.07695 0.04754,0.112653 0.0163,0.0357 0.03306,0.06971 0.05013,0.1018 0.01707,0.03209 0.03449,0.06231 0.05219,0.09095 0.0177,0.02864 0.03553,0.05579 0.05374,0.08113 0.01822,0.02535 0.03669,0.04911 0.05529,0.07131 0.0186,0.0222 0.03747,0.04279 0.05633,0.06201 0.01885,0.01922 0.03786,0.03683 0.05684,0.05323 0.01898,0.01639 0.03786,0.03176 0.05684,0.04547 0.01898,0.01372 0.03799,0.02601 0.05684,0.03721 0.01885,0.0112 0.03773,0.02113 0.05633,0.02997 0.01845,0.0087 0.03619,0.01666 0.05426,0.02325 -0.200353,-0.07298 -0.427883,-0.274855 -0.597368,-0.708987 L 8.7150587,20.726492 A 0.26460447,0.26460447 0 0 0 8.5993058,20.595237 Z m -0.2609608,0.0026 a 0.26460447,0.26460447 0 0 0 -0.059944,0.04806 0.26460447,0.26460447 0 0 1 0.059944,-0.04806 z m -0.071829,0.06149 a 0.26460447,0.26460447 0 0 0 -0.03824,0.06201 0.26460447,0.26460447 0 0 1 0.03824,-0.06201 z M 4.369156,28.576506 c 0.012166,0.0086 0.025109,0.01682 0.03824,0.02429 0.012999,0.0074 0.025958,0.01448 0.03979,0.02067 -0.027845,-0.01242 -0.053797,-0.02794 -0.07803,-0.04496 z m 0.078547,0.04496 c 0.01399,0.0062 0.028664,0.01165 0.043407,0.01654 -0.014915,-0.0049 -0.029259,-0.01024 -0.043407,-0.01654 z" /><path
       d="M 8.4665,24.75042 7.6504008,26.655375 8.4665,28.695979 9.2825992,26.655375 Z"
       style="clip-rule:evenodd;fill:url(#linearGradient15502);fill-opacity:1;fill-rule:evenodd;stroke-width:0.394556;paint-order:normal;enable-background:new"
       id="path6922" /><path
       style="color:#000000;fill:url(#linearGradient6936);fill-opacity:1;fill-rule:evenodd;stroke-linecap:round;stroke-linejoin:round;paint-order:stroke fill markers"
       d="m 24.595703,1.0742187 a 0.32491348,0.32491348 0 0 0 -0.324219,0.3242188 v 3.625 a 0.32491348,0.32491348 0 0 0 0.324219,0.3242187 h 3.625 a 0.32491348,0.32491348 0 0 0 0.326172,-0.3242187 v -3.625 A 0.32491348,0.32491348 0 0 0 28.220703,1.0742187 Z m 0.326172,0.6503907 h 2.974609 v 2.9746093 h -2.974609 z"
       id="rect6918"
       transform="matrix(0.36497195,0.93101852,-0.36497195,0.93101852,0,0)" /></g><rect
     style="fill:none;fill-opacity:1;fill-rule:evenodd;stroke:#000000;stroke-width:0.649762;stroke-linecap:round;stroke-linejoin:round;stroke-dasharray:none;stroke-opacity:1;paint-order:stroke fill markers"
     id="rect6924"
     width="3.6244247"
     height="3.6244247"
     x="-9.7505007"
     y="35.746151"
     ry="0"
     transform="matrix(0.36497195,0.93101852,-0.36497195,0.93101852,0,0)" /></svg>
