<?xml version="1.0" encoding="UTF-8" standalone="no"?>
<svg
   width="64"
   height="64"
   version="1.1"
   viewBox="0 0 16.933 16.933"
   id="svg36"
   sodipodi:docname="applications-science.svg"
   inkscape:version="1.2.1 (9c6d41e410, 2022-07-14)"
   xmlns:inkscape="http://www.inkscape.org/namespaces/inkscape"
   xmlns:sodipodi="http://sodipodi.sourceforge.net/DTD/sodipodi-0.dtd"
   xmlns:xlink="http://www.w3.org/1999/xlink"
   xmlns="http://www.w3.org/2000/svg"
   xmlns:svg="http://www.w3.org/2000/svg"
   xmlns:rdf="http://www.w3.org/1999/02/22-rdf-syntax-ns#"
   xmlns:cc="http://creativecommons.org/ns#"
   xmlns:dc="http://purl.org/dc/elements/1.1/">
  <sodipodi:namedview
     id="namedview38"
     pagecolor="#ffffff"
     bordercolor="#999999"
     borderopacity="1"
     inkscape:showpageshadow="0"
     inkscape:pageopacity="0"
     inkscape:pagecheckerboard="0"
     inkscape:deskcolor="#d1d1d1"
     showgrid="false"
     inkscape:zoom="4.839262"
     inkscape:cx="69.948682"
     inkscape:cy="19.114485"
     inkscape:window-width="1920"
     inkscape:window-height="1005"
     inkscape:window-x="0"
     inkscape:window-y="0"
     inkscape:window-maximized="1"
     inkscape:current-layer="svg36" />
  <defs
     id="defs20">
    <linearGradient
       inkscape:collect="always"
       id="linearGradient23703">
      <stop
         style="stop-color:#017ad4;stop-opacity:1"
         offset="0"
         id="stop23699" />
      <stop
         style="stop-color:#1ebbdf;stop-opacity:1"
         offset="1"
         id="stop23701" />
    </linearGradient>
    <linearGradient
       inkscape:collect="always"
       id="linearGradient19691">
      <stop
         style="stop-color:#1710b8;stop-opacity:1"
         offset="0"
         id="stop19687" />
      <stop
         style="stop-color:#26e7ef;stop-opacity:1"
         offset="1"
         id="stop19689" />
    </linearGradient>
    <linearGradient
       inkscape:collect="always"
       id="linearGradient15819">
      <stop
         style="stop-color:#0179d4;stop-opacity:1"
         offset="0"
         id="stop15815" />
      <stop
         style="stop-color:#1fbcdf;stop-opacity:1"
         offset="1"
         id="stop15817" />
    </linearGradient>
    <radialGradient
       id="radialGradient2747"
       cx="-12.56"
       cy="-2.1153"
       r="7.9373"
       gradientTransform="matrix(0.91669,0,0,0.91669,-0.257047,9.7702)"
       gradientUnits="userSpaceOnUse">
      <stop
         stop-color="#32e6e6"
         offset="0"
         id="stop2" />
      <stop
         stop-color="#0078d4"
         offset="1"
         id="stop4" />
    </radialGradient>
    <filter
       id="filter2765"
       x="-0.096465677"
       y="-0.14351154"
       width="1.1929314"
       height="1.2870231"
       color-interpolation-filters="sRGB">
      <feGaussianBlur
         stdDeviation="0.16637114"
         id="feGaussianBlur7" />
    </filter>
    <linearGradient
       id="linearGradient2733"
       x1="-20.825"
       x2="-20.825"
       y1="5.166"
       y2="15.875"
       gradientTransform="translate(-8.5287687,-2.3749)"
       gradientUnits="userSpaceOnUse">
      <stop
         stop-color="#fafafa"
         offset="0"
         id="stop10" />
      <stop
         stop-color="#f0f0f0"
         offset="1"
         id="stop12" />
    </linearGradient>
    <linearGradient
       id="linearGradient2719"
       x1="-26.707"
       x2="-26.707"
       y1="18.671"
       y2="15.934"
       gradientTransform="translate(-2.5367687,-2.3749)"
       gradientUnits="userSpaceOnUse">
      <stop
         stop-color="#232220"
         offset="0"
         id="stop15" />
      <stop
         stop-color="#656b70"
         offset="1"
         id="stop17" />
    </linearGradient>
    <linearGradient
       id="linearGradient4815"
       x1="1.7607"
       x2="45.457001"
       y1="-37.255001"
       y2="-46.375999"
       gradientUnits="userSpaceOnUse">
      <stop
         stop-color="#fe7a19"
         offset="0"
         id="stop271"
         style="stop-color:#1710b8;stop-opacity:1;" />
      <stop
         stop-color="#e94800"
         offset="1"
         id="stop273"
         style="stop-color:#26e7ef;stop-opacity:1;" />
    </linearGradient>
    <linearGradient
       id="linearGradient29713"
       x1="22.136"
       x2="11.974"
       y1="-60.115002"
       y2="-49.952999"
       gradientUnits="userSpaceOnUse">
      <stop
         stop-color="#fbd140"
         offset="0"
         id="stop276"
         style="stop-color:#1fbcdf;stop-opacity:1" />
      <stop
         stop-color="#fd9a03"
         offset="1"
         id="stop278"
         style="stop-color:#0179d4;stop-opacity:1" />
    </linearGradient>
    <linearGradient
       id="linearGradient43587"
       x1="35.424999"
       x2="27.826"
       y1="-33.291"
       y2="-23.290001"
       gradientUnits="userSpaceOnUse">
      <stop
         stop-color="#f37429"
         offset="0"
         id="stop281"
         style="stop-color:#017ad4;stop-opacity:1" />
      <stop
         stop-color="#fbd140"
         offset="1"
         id="stop283"
         style="stop-color:#1ebbdf;stop-opacity:1" />
    </linearGradient>
    <linearGradient
       id="linearGradient4815-3"
       x1="1.7607"
       x2="45.457001"
       y1="-37.255001"
       y2="-46.375999"
       gradientUnits="userSpaceOnUse">
      <stop
         stop-color="#fe7a19"
         offset="0"
         id="stop271-6" />
      <stop
         stop-color="#e94800"
         offset="1"
         id="stop273-7" />
    </linearGradient>
    <linearGradient
       id="linearGradient29713-5"
       x1="22.136"
       x2="11.974"
       y1="-60.115002"
       y2="-49.952999"
       gradientUnits="userSpaceOnUse">
      <stop
         stop-color="#fbd140"
         offset="0"
         id="stop276-3" />
      <stop
         stop-color="#fd9a03"
         offset="1"
         id="stop278-5" />
    </linearGradient>
    <linearGradient
       id="linearGradient43587-6"
       x1="35.424999"
       x2="27.826"
       y1="-33.291"
       y2="-23.290001"
       gradientUnits="userSpaceOnUse">
      <stop
         stop-color="#f37429"
         offset="0"
         id="stop281-2" />
      <stop
         stop-color="#fbd140"
         offset="1"
         id="stop283-9" />
    </linearGradient>
    <linearGradient
       inkscape:collect="always"
       xlink:href="#linearGradient15819"
       id="linearGradient15821"
       x1="5.4713931"
       y1="6.8821316"
       x2="7.7554274"
       y2="4.7116618"
       gradientUnits="userSpaceOnUse" />
    <linearGradient
       inkscape:collect="always"
       xlink:href="#linearGradient19691"
       id="linearGradient19693"
       x1="2.8845217"
       y1="9.3398142"
       x2="12.980367"
       y2="8.2425995"
       gradientUnits="userSpaceOnUse" />
    <linearGradient
       inkscape:collect="always"
       xlink:href="#linearGradient23703"
       id="linearGradient23559"
       x1="10.765022"
       y1="10.25602"
       x2="9.211648"
       y2="12.660089"
       gradientUnits="userSpaceOnUse" />
  </defs>
  <metadata
     id="metadata22">
    <rdf:RDF>
      <cc:Work
         rdf:about="">
        <dc:format>image/svg+xml</dc:format>
        <dc:type
           rdf:resource="http://purl.org/dc/dcmitype/StillImage" />
        <dc:title />
      </cc:Work>
    </rdf:RDF>
  </metadata>
  <path
     id="rect15812"
     style="fill:url(#linearGradient23559);fill-opacity:1;fill-rule:evenodd;stroke-width:0.396867;stroke-linecap:round;stroke-linejoin:round;paint-order:stroke fill markers"
     d="M 10.765022 10.25602 L 8.1357773 10.25757 L 7.0082198 15.733614 L 7.0092533 15.73413 A 0.57139866 0.57139866 0 0 0 6.999435 15.83283 A 0.57139866 0.57139866 0 0 0 7.5709651 16.403844 A 0.57139866 0.57139866 0 0 0 8.0546469 16.136682 L 11.615083 11.39753 L 11.6156 11.397013 L 11.669342 11.325701 A 0.72055096 0.72055096 0 0 0 11.67606 11.316399 L 11.687429 11.301413 L 11.725152 11.249738 A 0.72354936 0.72354936 0 0 0 11.77166 11.162923 A 0.72354936 0.72354936 0 0 0 11.777344 11.149488 A 0.72354936 0.72354936 0 0 0 11.781995 11.136569 A 0.72354936 0.72354936 0 0 0 11.787162 11.122616 A 0.72354936 0.72354936 0 0 0 11.791296 11.109181 A 0.72354936 0.72354936 0 0 0 11.79543 11.095745 A 0.72354936 0.72354936 0 0 0 11.799564 11.08231 A 0.72354936 0.72354936 0 0 0 11.803698 11.068357 A 0.72354936 0.72354936 0 0 0 11.806799 11.054405 A 0.72354936 0.72354936 0 0 0 11.809899 11.040969 A 0.72354936 0.72354936 0 0 0 11.813 11.027017 A 0.72354936 0.72354936 0 0 0 11.815584 11.012548 A 0.72354936 0.72354936 0 0 0 11.818167 10.998595 A 0.72354936 0.72354936 0 0 0 11.819718 10.984643 A 0.72354936 0.72354936 0 0 0 11.821785 10.970691 A 0.72354936 0.72354936 0 0 0 11.823335 10.956738 A 0.72354936 0.72354936 0 0 0 11.824885 10.942269 A 0.72354936 0.72354936 0 0 0 11.825402 10.928317 A 0.72354936 0.72354936 0 0 0 11.826435 10.913848 A 0.72354936 0.72354936 0 0 0 11.826952 10.899895 A 0.72354936 0.72354936 0 0 0 11.826952 10.899379 A 0.72354936 0.72354936 0 0 0 11.826952 10.898862 A 0.72354936 0.72354936 0 0 0 11.826952 10.898345 A 0.72354936 0.72354936 0 0 0 11.826952 10.897828 A 0.72354936 0.72354936 0 0 0 11.826952 10.897312 A 0.72354936 0.72354936 0 0 0 11.826952 10.896795 A 0.72354936 0.72354936 0 0 0 11.826952 10.896278 A 0.72354936 0.72354936 0 0 0 11.826952 10.895761 A 0.72354936 0.72354936 0 0 0 11.826952 10.895245 A 0.72354936 0.72354936 0 0 0 11.826952 10.894728 A 0.72354936 0.72354936 0 0 0 11.826952 10.894211 A 0.72354936 0.72354936 0 0 0 11.826952 10.893694 A 0.72354936 0.72354936 0 0 0 11.826952 10.893177 A 0.72354936 0.72354936 0 0 0 11.826952 10.892661 A 0.72354936 0.72354936 0 0 0 11.826952 10.892144 A 0.72354936 0.72354936 0 0 0 11.826952 10.891627 A 0.72354936 0.72354936 0 0 0 11.826952 10.89111 A 0.72354936 0.72354936 0 0 0 11.826952 10.890594 A 0.72354936 0.72354936 0 0 0 11.826952 10.890077 A 0.72354936 0.72354936 0 0 0 11.826952 10.88956 A 0.72354936 0.72354936 0 0 0 11.826952 10.889043 A 0.72354936 0.72354936 0 0 0 11.826952 10.888527 A 0.72354936 0.72354936 0 0 0 11.826952 10.88801 A 0.72354936 0.72354936 0 0 0 11.826952 10.887493 A 0.72354936 0.72354936 0 0 0 11.826952 10.886976 A 0.72354936 0.72354936 0 0 0 11.826952 10.88646 A 0.72354936 0.72354936 0 0 0 11.826952 10.885943 A 0.72354936 0.72354936 0 0 0 11.826952 10.885426 A 0.72354936 0.72354936 0 0 0 11.826952 10.884909 A 0.72354936 0.72354936 0 0 0 11.826952 10.884393 A 0.72354936 0.72354936 0 0 0 11.826952 10.883876 A 0.72354936 0.72354936 0 0 0 11.826952 10.883359 A 0.72354936 0.72354936 0 0 0 11.826952 10.882842 A 0.72354936 0.72354936 0 0 0 11.826952 10.882326 A 0.72354936 0.72354936 0 0 0 11.826952 10.881809 A 0.72354936 0.72354936 0 0 0 11.826952 10.881292 A 0.72354936 0.72354936 0 0 0 11.826952 10.880775 A 0.72354936 0.72354936 0 0 0 11.826952 10.880259 A 0.72354936 0.72354936 0 0 0 11.826952 10.879742 A 0.72354936 0.72354936 0 0 0 11.826952 10.879225 A 0.72354936 0.72354936 0 0 0 11.826952 10.878708 A 0.72354936 0.72354936 0 0 0 11.826952 10.878192 A 0.72354936 0.72354936 0 0 0 11.826952 10.877675 A 0.72354936 0.72354936 0 0 0 11.826952 10.877158 A 0.72354936 0.72354936 0 0 0 11.826952 10.876641 A 0.72354936 0.72354936 0 0 0 11.826952 10.876125 A 0.72354936 0.72354936 0 0 0 11.826952 10.875608 A 0.72354936 0.72354936 0 0 0 11.826952 10.875091 A 0.72354936 0.72354936 0 0 0 11.826952 10.874574 A 0.72354936 0.72354936 0 0 0 11.826952 10.874058 A 0.72354936 0.72354936 0 0 0 11.826952 10.873541 A 0.72354936 0.72354936 0 0 0 11.826952 10.873024 A 0.72354936 0.72354936 0 0 0 11.826952 10.872507 A 0.72354936 0.72354936 0 0 0 11.826952 10.871991 A 0.72354936 0.72354936 0 0 0 11.826952 10.871474 A 0.72354936 0.72354936 0 0 0 11.826952 10.870957 A 0.72354936 0.72354936 0 0 0 11.826952 10.87044 A 0.72354936 0.72354936 0 0 0 11.826952 10.869924 A 0.72354936 0.72354936 0 0 0 11.826435 10.865273 A 0.72354936 0.72354936 0 0 0 11.826435 10.864756 A 0.72354936 0.72354936 0 0 0 11.826435 10.864239 A 0.72354936 0.72354936 0 0 0 11.826435 10.863723 A 0.72354936 0.72354936 0 0 0 11.826435 10.863206 A 0.72354936 0.72354936 0 0 0 11.826435 10.862689 A 0.72354936 0.72354936 0 0 0 11.826435 10.862172 A 0.72354936 0.72354936 0 0 0 11.826435 10.861655 A 0.72354936 0.72354936 0 0 0 11.826435 10.861139 A 0.72354936 0.72354936 0 0 0 11.826435 10.860622 A 0.72354936 0.72354936 0 0 0 11.826435 10.860105 A 0.72354936 0.72354936 0 0 0 11.826435 10.859588 A 0.72354936 0.72354936 0 0 0 11.826435 10.859072 A 0.72354936 0.72354936 0 0 0 11.826435 10.858555 A 0.72354936 0.72354936 0 0 0 11.826435 10.858038 A 0.72354936 0.72354936 0 0 0 11.826435 10.857521 A 0.72354936 0.72354936 0 0 0 11.826435 10.857005 A 0.72354936 0.72354936 0 0 0 11.826435 10.856488 A 0.72354936 0.72354936 0 0 0 11.826435 10.855971 A 0.72354936 0.72354936 0 0 0 11.826435 10.855454 A 0.72354936 0.72354936 0 0 0 11.825919 10.850287 A 0.72354936 0.72354936 0 0 0 11.825919 10.84977 A 0.72354936 0.72354936 0 0 0 11.825919 10.849253 A 0.72354936 0.72354936 0 0 0 11.825919 10.848737 A 0.72354936 0.72354936 0 0 0 11.825919 10.84822 A 0.72354936 0.72354936 0 0 0 11.825919 10.847703 A 0.72354936 0.72354936 0 0 0 11.825919 10.847186 A 0.72354936 0.72354936 0 0 0 11.825919 10.84667 A 0.72354936 0.72354936 0 0 0 11.825919 10.846153 A 0.72354936 0.72354936 0 0 0 11.825919 10.845636 A 0.72354936 0.72354936 0 0 0 11.825919 10.845119 A 0.72354936 0.72354936 0 0 0 11.825402 10.839952 A 0.72354936 0.72354936 0 0 0 11.825402 10.839435 A 0.72354936 0.72354936 0 0 0 11.825402 10.838918 A 0.72354936 0.72354936 0 0 0 11.825402 10.838402 A 0.72354936 0.72354936 0 0 0 11.825402 10.837885 A 0.72354936 0.72354936 0 0 0 11.825402 10.837368 A 0.72354936 0.72354936 0 0 0 11.825402 10.836851 A 0.72354936 0.72354936 0 0 0 11.825402 10.836335 A 0.72354936 0.72354936 0 0 0 11.825402 10.835818 A 0.72354936 0.72354936 0 0 0 11.825402 10.835301 A 0.72354936 0.72354936 0 0 0 11.824885 10.830133 A 0.72354936 0.72354936 0 0 0 11.824368 10.825483 A 0.72354936 0.72354936 0 0 0 11.824368 10.820315 A 0.72354936 0.72354936 0 0 0 11.823852 10.815664 A 0.72354936 0.72354936 0 0 0 11.823335 10.810497 A 0.72354936 0.72354936 0 0 0 11.822818 10.805846 A 0.72354936 0.72354936 0 0 0 11.822301 10.800678 A 0.72354936 0.72354936 0 0 0 11.821785 10.795511 A 0.72354936 0.72354936 0 0 0 11.821268 10.790343 A 0.72354936 0.72354936 0 0 0 11.820234 10.785693 A 0.72354936 0.72354936 0 0 0 11.819718 10.781042 A 0.72354936 0.72354936 0 0 0 11.798014 10.680275 A 0.72354936 0.72354936 0 0 0 11.761324 10.583642 A 0.72354936 0.72354936 0 0 0 11.712233 10.49321 A 0.72354936 0.72354936 0 0 0 11.650222 10.410012 A 0.72354936 0.72354936 0 0 0 11.57736 10.337667 A 0.72354936 0.72354936 0 0 0 11.494679 10.27514 A 0.72354936 0.72354936 0 0 0 11.45954 10.25602 L 10.765022 10.25602 z " />
  <path
     id="rect15809"
     style="fill:url(#linearGradient19693);fill-opacity:1;fill-rule:evenodd;stroke-width:0.396867;stroke-linecap:round;stroke-linejoin:round;paint-order:stroke fill markers"
     d="M 5.2326525 5.8233025 L 4.4601051 6.8821318 L 3.0752039 8.7801698 L 3.0762375 8.78172 A 0.91801344 0.91801344 0 0 0 2.8845217 9.3398145 A 0.91801344 0.91801344 0 0 0 3.8027938 10.25757 L 11.45954 10.25757 A 0.72354936 0.72354936 0 0 1 11.494679 10.27669 A 0.72354936 0.72354936 0 0 1 11.57736 10.339217 A 0.72354936 0.72354936 0 0 1 11.650222 10.412079 A 0.72354936 0.72354936 0 0 1 11.712233 10.49476 A 0.72354936 0.72354936 0 0 1 11.761324 10.585192 A 0.72354936 0.72354936 0 0 1 11.798014 10.682342 A 0.72354936 0.72354936 0 0 1 11.819718 10.783109 A 0.72354936 0.72354936 0 0 1 11.820234 10.78776 A 0.72354936 0.72354936 0 0 1 11.821268 10.79241 A 0.72354936 0.72354936 0 0 1 11.821785 10.797578 A 0.72354936 0.72354936 0 0 1 11.822301 10.802229 A 0.72354936 0.72354936 0 0 1 11.822818 10.807396 A 0.72354936 0.72354936 0 0 1 11.823335 10.812047 A 0.72354936 0.72354936 0 0 1 11.823852 10.817215 A 0.72354936 0.72354936 0 0 1 11.823852 10.821865 A 0.72354936 0.72354936 0 0 1 11.824368 10.827033 A 0.72354936 0.72354936 0 0 1 11.824885 10.831684 A 0.72354936 0.72354936 0 0 1 11.825402 10.836851 A 0.72354936 0.72354936 0 0 1 11.825402 10.837368 A 0.72354936 0.72354936 0 0 1 11.825402 10.837885 A 0.72354936 0.72354936 0 0 1 11.825402 10.838402 A 0.72354936 0.72354936 0 0 1 11.825402 10.838918 A 0.72354936 0.72354936 0 0 1 11.825402 10.839435 A 0.72354936 0.72354936 0 0 1 11.825402 10.839952 A 0.72354936 0.72354936 0 0 1 11.825402 10.840469 A 0.72354936 0.72354936 0 0 1 11.825402 10.840985 A 0.72354936 0.72354936 0 0 1 11.825402 10.841502 A 0.72354936 0.72354936 0 0 1 11.825402 10.842019 A 0.72354936 0.72354936 0 0 1 11.825919 10.847186 A 0.72354936 0.72354936 0 0 1 11.825919 10.847703 A 0.72354936 0.72354936 0 0 1 11.825919 10.84822 A 0.72354936 0.72354936 0 0 1 11.825919 10.848737 A 0.72354936 0.72354936 0 0 1 11.825919 10.849253 A 0.72354936 0.72354936 0 0 1 11.825919 10.84977 A 0.72354936 0.72354936 0 0 1 11.825919 10.850287 A 0.72354936 0.72354936 0 0 1 11.825919 10.850804 A 0.72354936 0.72354936 0 0 1 11.825919 10.85132 A 0.72354936 0.72354936 0 0 1 11.825919 10.851837 A 0.72354936 0.72354936 0 0 1 11.826435 10.857005 A 0.72354936 0.72354936 0 0 1 11.826435 10.857521 A 0.72354936 0.72354936 0 0 1 11.826435 10.858038 A 0.72354936 0.72354936 0 0 1 11.826435 10.858555 A 0.72354936 0.72354936 0 0 1 11.826435 10.859072 A 0.72354936 0.72354936 0 0 1 11.826435 10.859588 A 0.72354936 0.72354936 0 0 1 11.826435 10.860105 A 0.72354936 0.72354936 0 0 1 11.826435 10.860622 A 0.72354936 0.72354936 0 0 1 11.826435 10.861139 A 0.72354936 0.72354936 0 0 1 11.826435 10.861655 A 0.72354936 0.72354936 0 0 1 11.826435 10.862172 A 0.72354936 0.72354936 0 0 1 11.826435 10.862689 A 0.72354936 0.72354936 0 0 1 11.826435 10.863206 A 0.72354936 0.72354936 0 0 1 11.826435 10.863723 A 0.72354936 0.72354936 0 0 1 11.826435 10.864239 A 0.72354936 0.72354936 0 0 1 11.826435 10.864756 A 0.72354936 0.72354936 0 0 1 11.826435 10.865273 A 0.72354936 0.72354936 0 0 1 11.826435 10.86579 A 0.72354936 0.72354936 0 0 1 11.826435 10.866306 A 0.72354936 0.72354936 0 0 1 11.826435 10.866823 A 0.72354936 0.72354936 0 0 1 11.826435 10.86734 A 0.72354936 0.72354936 0 0 1 11.826952 10.871991 A 0.72354936 0.72354936 0 0 1 11.826952 10.872507 A 0.72354936 0.72354936 0 0 1 11.826952 10.873024 A 0.72354936 0.72354936 0 0 1 11.826952 10.873541 A 0.72354936 0.72354936 0 0 1 11.826952 10.874058 A 0.72354936 0.72354936 0 0 1 11.826952 10.874574 A 0.72354936 0.72354936 0 0 1 11.826952 10.875091 A 0.72354936 0.72354936 0 0 1 11.826952 10.875608 A 0.72354936 0.72354936 0 0 1 11.826952 10.876125 A 0.72354936 0.72354936 0 0 1 11.826952 10.876641 A 0.72354936 0.72354936 0 0 1 11.826952 10.877158 A 0.72354936 0.72354936 0 0 1 11.826952 10.877675 A 0.72354936 0.72354936 0 0 1 11.826952 10.878192 A 0.72354936 0.72354936 0 0 1 11.826952 10.878708 A 0.72354936 0.72354936 0 0 1 11.826952 10.879225 A 0.72354936 0.72354936 0 0 1 11.826952 10.879742 A 0.72354936 0.72354936 0 0 1 11.826952 10.880259 A 0.72354936 0.72354936 0 0 1 11.826952 10.880775 A 0.72354936 0.72354936 0 0 1 11.826952 10.881292 A 0.72354936 0.72354936 0 0 1 11.826952 10.881809 A 0.72354936 0.72354936 0 0 1 11.826952 10.882326 A 0.72354936 0.72354936 0 0 1 11.826952 10.882842 A 0.72354936 0.72354936 0 0 1 11.826952 10.883359 A 0.72354936 0.72354936 0 0 1 11.826952 10.883876 A 0.72354936 0.72354936 0 0 1 11.826952 10.884393 A 0.72354936 0.72354936 0 0 1 11.826952 10.884909 A 0.72354936 0.72354936 0 0 1 11.826952 10.885426 A 0.72354936 0.72354936 0 0 1 11.826952 10.885943 A 0.72354936 0.72354936 0 0 1 11.826952 10.88646 A 0.72354936 0.72354936 0 0 1 11.826952 10.886976 A 0.72354936 0.72354936 0 0 1 11.826952 10.887493 A 0.72354936 0.72354936 0 0 1 11.826952 10.88801 A 0.72354936 0.72354936 0 0 1 11.826952 10.888527 A 0.72354936 0.72354936 0 0 1 11.826952 10.889043 A 0.72354936 0.72354936 0 0 1 11.826952 10.88956 A 0.72354936 0.72354936 0 0 1 11.826952 10.890077 A 0.72354936 0.72354936 0 0 1 11.826952 10.890594 A 0.72354936 0.72354936 0 0 1 11.826952 10.89111 A 0.72354936 0.72354936 0 0 1 11.826952 10.891627 A 0.72354936 0.72354936 0 0 1 11.826952 10.892144 A 0.72354936 0.72354936 0 0 1 11.826952 10.892661 A 0.72354936 0.72354936 0 0 1 11.826952 10.893177 A 0.72354936 0.72354936 0 0 1 11.826952 10.893694 A 0.72354936 0.72354936 0 0 1 11.826952 10.894211 A 0.72354936 0.72354936 0 0 1 11.826952 10.894728 A 0.72354936 0.72354936 0 0 1 11.826952 10.895245 A 0.72354936 0.72354936 0 0 1 11.826952 10.895761 A 0.72354936 0.72354936 0 0 1 11.826952 10.896278 A 0.72354936 0.72354936 0 0 1 11.826952 10.896795 A 0.72354936 0.72354936 0 0 1 11.826952 10.897312 A 0.72354936 0.72354936 0 0 1 11.826952 10.897828 A 0.72354936 0.72354936 0 0 1 11.826952 10.898345 A 0.72354936 0.72354936 0 0 1 11.826952 10.898862 A 0.72354936 0.72354936 0 0 1 11.826952 10.899379 A 0.72354936 0.72354936 0 0 1 11.826952 10.899895 A 0.72354936 0.72354936 0 0 1 11.826952 10.900412 A 0.72354936 0.72354936 0 0 1 11.826952 10.900929 A 0.72354936 0.72354936 0 0 1 11.826952 10.901446 A 0.72354936 0.72354936 0 0 1 11.826435 10.915915 A 0.72354936 0.72354936 0 0 1 11.825402 10.930384 A 0.72354936 0.72354936 0 0 1 11.824368 10.944336 A 0.72354936 0.72354936 0 0 1 11.823335 10.958289 A 0.72354936 0.72354936 0 0 1 11.821785 10.972241 A 0.72354936 0.72354936 0 0 1 11.819718 10.986193 A 0.72354936 0.72354936 0 0 1 11.818167 11.000662 A 0.72354936 0.72354936 0 0 1 11.815584 11.014615 A 0.72354936 0.72354936 0 0 1 11.813 11.028567 A 0.72354936 0.72354936 0 0 1 11.809899 11.042519 A 0.72354936 0.72354936 0 0 1 11.806799 11.055955 A 0.72354936 0.72354936 0 0 1 11.803182 11.070424 A 0.72354936 0.72354936 0 0 1 11.799564 11.08386 A 0.72354936 0.72354936 0 0 1 11.79543 11.097295 A 0.72354936 0.72354936 0 0 1 11.791296 11.111248 A 0.72354936 0.72354936 0 0 1 11.787162 11.124683 A 0.72354936 0.72354936 0 0 1 11.781995 11.138119 A 0.72354936 0.72354936 0 0 1 11.777344 11.151555 A 0.72354936 0.72354936 0 0 1 11.77166 11.164473 A 0.72354936 0.72354936 0 0 1 11.725152 11.251805 L 12.457392 10.25912 L 13.878983 8.3331774 L 13.877949 8.3316272 A 0.91801344 0.91801344 0 0 0 14.048478 7.7998871 A 0.91801344 0.91801344 0 0 0 13.130723 6.8821318 L 5.4713929 6.8821318 A 0.72055096 0.72055096 0 0 1 5.2982803 6.7663788 A 0.72055096 0.72055096 0 0 1 5.1422206 6.532806 A 0.72055096 0.72055096 0 0 1 5.0874446 6.2568593 A 0.72055096 0.72055096 0 0 1 5.1422206 5.9814293 A 0.72055096 0.72055096 0 0 1 5.2326525 5.8233025 z " />
  <path
     id="rect15806"
     style="fill:url(#linearGradient15821);fill-opacity:1;fill-rule:evenodd;stroke-width:0.396867;stroke-linecap:round;stroke-linejoin:round;paint-order:stroke fill markers"
     d="M 9.4343805 0.52915625 A 0.57139866 0.57139866 0 0 0 8.9713688 0.76789667 L 8.9698185 0.76737991 L 5.2383368 5.8155512 A 0.72055096 0.72055096 0 0 0 5.1422206 5.9809125 A 0.72055096 0.72055096 0 0 0 5.0874446 6.2563425 A 0.72055096 0.72055096 0 0 0 5.1422206 6.5322892 A 0.72055096 0.72055096 0 0 0 5.2982803 6.7663788 A 0.72055096 0.72055096 0 0 0 5.4713929 6.8821318 L 8.8003232 6.8821318 L 9.9955755 1.2092047 L 9.994542 1.208688 A 0.57139866 0.57139866 0 0 0 10.005911 1.1001696 A 0.57139866 0.57139866 0 0 0 9.4343805 0.52915625 z " />
</svg>
