<?xml version="1.0" encoding="UTF-8"?>
<svg width="64" height="64" version="1.1" viewBox="0 0 16.933 16.933" xmlns="http://www.w3.org/2000/svg" xmlns:cc="http://creativecommons.org/ns#" xmlns:dc="http://purl.org/dc/elements/1.1/" xmlns:rdf="http://www.w3.org/1999/02/22-rdf-syntax-ns#" xmlns:xlink="http://www.w3.org/1999/xlink">
 <defs>
  <linearGradient id="linearGradient20310">
   <stop stop-color="#38a8fe" offset="0"/>
   <stop stop-color="#bd4afe" offset="1"/>
  </linearGradient>
  <linearGradient id="linearGradient32211" x1="29.236" x2="29.236" y1="27.317" y2="38.032" gradientTransform="matrix(1.1959,0,0,1.1959,-43.427,-30.608)" gradientUnits="userSpaceOnUse" xlink:href="#linearGradient20310"/>
  <linearGradient id="linearGradient32231" x1="29.236" x2="29.236" y1="27.317" y2="38.032" gradientTransform="matrix(0,-1.1959,1.1959,0,-30.608,43.427)" gradientUnits="userSpaceOnUse" xlink:href="#linearGradient20310"/>
  <linearGradient id="linearGradient88600" x1="18.101" x2="43.996" y1="46.199" y2="29.257" gradientTransform="matrix(.29194 0 0 .29194 -.082086 -.36197)" gradientUnits="userSpaceOnUse">
   <stop stop-color="#5296fe" offset="0"/>
   <stop stop-color="#01fefd" offset="1"/>
  </linearGradient>
 </defs>
 <metadata>
  <rdf:RDF>
   <cc:Work rdf:about="">
    <dc:format>image/svg+xml</dc:format>
    <dc:type rdf:resource="http://purl.org/dc/dcmitype/StillImage"/>
   </cc:Work>
  </rdf:RDF>
 </metadata>
 <g transform="translate(-.7937 -.51367)">
  <g transform="matrix(1.1034 0 0 1.1034 -.082086 -.36197)">
   <g fill="url(#linearGradient32211)" fill-rule="evenodd" stroke-linecap="round" stroke-linejoin="round" stroke-width="6.378">
    <circle transform="rotate(-90)" cx="-8.4645" cy="6.3308" r="1.2656" style="paint-order:stroke fill markers"/>
    <circle transform="rotate(-90)" cx="-8.4645" cy="10.602" r="1.2656" style="paint-order:stroke fill markers"/>
    <circle transform="rotate(-90)" cx="-8.4645" cy="2.0593" r="1.2656" style="paint-order:stroke fill markers"/>
    <circle transform="rotate(-90)" cx="-4.7655" cy="4.2002" r="1.2656" style="paint-order:stroke fill markers"/>
    <circle transform="rotate(-90)" cx="-12.167" cy="4.2002" r="1.2656" style="paint-order:stroke fill markers"/>
    <circle transform="rotate(-90)" cx="-4.7655" cy="8.4716" r="1.2656" style="paint-order:stroke fill markers"/>
    <circle transform="rotate(-90)" cx="-12.167" cy="8.4716" r="1.2656" style="paint-order:stroke fill markers"/>
    <circle transform="rotate(-90)" cx="-4.7655" cy="12.743" r="1.2656" style="paint-order:stroke fill markers"/>
    <circle transform="rotate(-90)" cx="-12.167" cy="12.743" r="1.2656" style="paint-order:stroke fill markers"/>
    <circle transform="rotate(-90)" cx="-8.4645" cy="14.874" r="1.2656" style="paint-order:stroke fill markers"/>
   </g>
   <g fill="url(#linearGradient32231)">
    <path d="m3.3175 8.3274c0.12213-1.9304 1.4544-2.4327 1.4544-2.4327l-1.8373-1.1291s0.15417 1.8127-1.4477 2.5705z"/>
    <path d="m4.6893 11c-1.4109-0.63177-1.3716-2.4006-1.3716-2.4006l-1.9656 0.9145s1.7666 1.0178 1.5825 2.6534z"/>
    <path d="m7.8347 13.261c-1.4073-0.86804-3.1514 0.07617-3.1514 0.07617l0.2113-2.2279s1.2794 0.79172 2.8296 0.0368z"/>
    <path d="m11.227 9.5654c-1.3994 0.96942-1.4894 2.6021-1.4894 2.6021l-1.8097-1.1427s1.4117-0.49056 1.4387-2.2878z"/>
    <path d="m7.206 4.7655c0.11502 1.9409-1.4469 2.5699-1.4469 2.5699l1.8373 1.1291s-0.12003-1.6082 1.4477-2.5705z"/>
    <path d="m11.866 3.8529c-1.1491 0.7895-2.7746-0.19076-2.7746-0.19076l0.12914 2.1235s1.2687-0.69242 2.7651-0.00606z"/>
    <path d="m13.616 8.321c-0.15167-1.8917-1.4915-2.4512-1.4915-2.4512l1.884-1.1043s-0.04296 1.5753 1.3904 2.5476z"/>
    <path d="m14.009 12.167c0.07677-1.7322 1.4305-2.5707 1.4305-2.5707l-1.8189-0.95662s-0.17782 1.7645-1.504 2.4279z"/>
   </g>
  </g>
  <path d="m11.617 7.5815a1.3965 1.3965 0 0 0-1.3964 1.3964 1.3965 1.3965 0 0 0 0.03307 0.3005h-5.71e-4c-0.02519 1.6733-1.1376 2.3202-1.4848 2.4815a1.3965 1.3965 0 0 0-0.3273 0.17847v-0.0011c-1.7105 0.83296-3.1217-0.041093-3.1217-0.041093l-0.23321 2.4587s1.9243-1.0422 3.477-0.08439a1.3965 1.3965 0 0 0 0.70306 0.18988 1.3965 1.3965 0 0 0 1.3964-1.3964s0.09914-1.8018 1.6433-2.8715a1.3965 1.3965 0 0 0 0.70761-1.2145 1.3965 1.3965 0 0 0-1.3964-1.3964z" fill="url(#linearGradient88600)" fill-rule="evenodd" stroke-linecap="round" stroke-linejoin="round" stroke-width="7.0376" style="paint-order:stroke fill markers"/>
 </g>
</svg>
