<?xml version="1.0" encoding="UTF-8"?>
<svg width="64" height="64" version="1.1" viewBox="0 0 16.933 16.933" xmlns="http://www.w3.org/2000/svg" xmlns:cc="http://creativecommons.org/ns#" xmlns:dc="http://purl.org/dc/elements/1.1/" xmlns:rdf="http://www.w3.org/1999/02/22-rdf-syntax-ns#" xmlns:xlink="http://www.w3.org/1999/xlink">
 <defs>
  <style type="text/css"/>
  <style type="text/css"/>
  <linearGradient id="linearGradient10376" x1="30.393" x2="30.393" y1="10.498" y2="18.433" gradientTransform="matrix(1.0835 0 0 1.0838 -24.971 -6.351)" gradientUnits="userSpaceOnUse">
   <stop stop-color="#0183fb" offset="0"/>
   <stop stop-color="#08e083" offset="1"/>
  </linearGradient>
 </defs>
 <metadata>
  <rdf:RDF>
   <cc:Work rdf:about="">
    <dc:format>image/svg+xml</dc:format>
    <dc:type rdf:resource="http://purl.org/dc/dcmitype/StillImage"/>
   </cc:Work>
  </rdf:RDF>
 </metadata>
 <g transform="translate(-21.834 .89695)" fill="#5e4aa6" stroke-width=".26458">
  <circle cx="-330.35" cy="-328.38" r="0"/>
  <circle cx="-312.11" cy="-326.25" r="0"/>
  <circle cx="-306.02" cy="-333.07" r="0"/>
  <circle cx="-308.84" cy="-326.01" r="0"/>
 </g>
 <g transform="translate(21.668 -4.305)" fill="#5e4aa6" stroke-width=".26458">
  <circle cx="-322.63" cy="-345.67" r="0"/>
  <circle cx="-31.726" cy="-10.849" r="0" fill-rule="evenodd"/>
  <circle cx="-306.92" cy="-328.72" r="0"/>
 </g>
 <path d="m3.705 3.0198c-1.0168-0.012055-2.0802 0.47248-2.57 2.2834-0.36325 1.343-0.34238 5.8977-0.34043 7.0723 0.00195 1.1492 1.6502 2.0137 2.7565 1.2469 1.1063-0.76676 2.0166-2.1064 2.7867-2.1064h4.2123c0.08008 0.08413 0.20003 0.22445 0.35051 0.42274 0.33824 0.4457 0.73181 1.0635 1.402 1.5437 0.79238 0.56769 1.7529 0.52244 2.4726 0.16574 0.71966-0.3567 1.3618-1.0855 1.3634-2.0829 8.61e-4 -0.46075 5e-3 -1.6103-0.02632-2.7845-0.031215-1.1742-0.051575-2.265-0.2738-3.1143-0.23347-0.89222-0.65387-1.6016-1.2273-2.0532-0.57348-0.45158-1.2453-0.60048-1.8136-0.59351-1.0513 0.012883-1.7428 0.38706-2.0835 0.59519h-4.6227s-1.1587-0.58065-2.3858-0.59519zm9.1054 1.135c0.77884-0.00955 1.5929 0.37415 1.9681 1.808 0.27825 1.0634 0.26241 4.6697 0.26092 5.5998-0.0015 0.90994-1.264 1.5948-2.1115 0.9877-0.84742-0.60712-1.5445-2.1697-2.1344-2.1697h-2.0531v-5.63h2.2418s0.88816-0.58424 1.8281-0.59575z" fill="url(#linearGradient10376)"/>
 <g transform="translate(.18474)">
  <path d="m5.8749 7.5461h-0.65898v0.67729c0 0.14646-0.10984 0.25628-0.25628 0.25628h-0.58576c-0.14646 0-0.25628-0.10982-0.25628-0.25628v-0.67729h-0.65898c-0.14646 0-0.25628-0.10982-0.25628-0.25628v-0.58577c0-0.14646 0.10982-0.25628 0.25628-0.25628h0.65898v-0.65898c0-0.14646 0.10982-0.25628 0.25628-0.25628h0.58576c0.14646 0 0.25628 0.10982 0.25628 0.25628v0.65898h0.65898c0.14646 0 0.25628 0.10982 0.25628 0.25628v0.58577c0 0.14646-0.10982 0.25628-0.25628 0.25628z" fill="#fefefe" stroke-width=".046478"/>
  <g transform="translate(-.26458)" stroke-width=".047982">
   <path d="m12.964 5.5325c-0.35906 0-0.66144 0.30239-0.66144 0.66144 0 0.35906 0.30239 0.66145 0.66144 0.66145 0.35906 0 0.66145-0.30239 0.66145-0.66145-4.7e-5 -0.35909-0.30239-0.66144-0.66145-0.66144z" fill="#01eafd"/>
   <path d="m11.377 7.1568c-0.35906 0-0.66145 0.30239-0.66145 0.66145s0.30239 0.66144 0.66145 0.66144 0.66144-0.30239 0.66144-0.66144c0-0.35906-0.30239-0.66145-0.66144-0.66145z" fill="#0083fb"/>
  </g>
 </g>
</svg>
