<?xml version="1.0" encoding="UTF-8" standalone="no"?>
<svg
   width="64"
   height="64"
   version="1.1"
   id="svg32"
   sodipodi:docname="applications-engineering.svg"
   xml:space="preserve"
   inkscape:version="1.2.1 (9c6d41e410, 2022-07-14)"
   xmlns:inkscape="http://www.inkscape.org/namespaces/inkscape"
   xmlns:sodipodi="http://sodipodi.sourceforge.net/DTD/sodipodi-0.dtd"
   xmlns:xlink="http://www.w3.org/1999/xlink"
   xmlns="http://www.w3.org/2000/svg"
   xmlns:svg="http://www.w3.org/2000/svg"
   xmlns:rdf="http://www.w3.org/1999/02/22-rdf-syntax-ns#"
   xmlns:cc="http://creativecommons.org/ns#"
   xmlns:dc="http://purl.org/dc/elements/1.1/"><sodipodi:namedview
     id="namedview34"
     pagecolor="#ffffff"
     bordercolor="#999999"
     borderopacity="1"
     inkscape:showpageshadow="0"
     inkscape:pageopacity="0"
     inkscape:pagecheckerboard="0"
     inkscape:deskcolor="#d1d1d1"
     showgrid="false"
     inkscape:zoom="4.839262"
     inkscape:cx="18.287912"
     inkscape:cy="46.598014"
     inkscape:window-width="1920"
     inkscape:window-height="1005"
     inkscape:window-x="0"
     inkscape:window-y="0"
     inkscape:window-maximized="1"
     inkscape:current-layer="svg32" /><metadata
     id="metadata2"><rdf:RDF><cc:Work
         rdf:about=""><dc:format>image/svg+xml</dc:format><dc:type
           rdf:resource="http://purl.org/dc/dcmitype/StillImage" /></cc:Work></rdf:RDF></metadata><defs
     id="defs20"><linearGradient
       id="linearGradient21887"
       x1="282.37"
       x2="281.84"
       y1="644.85"
       y2="10.592"
       gradientUnits="userSpaceOnUse"><stop
         stop-color="#e3e3e3"
         offset="0"
         id="stop21883"
         style="stop-color:#0adbb7;stop-opacity:1" /><stop
         stop-color="#fffcff"
         offset="1"
         id="stop21885"
         style="stop-color:#2399ec;stop-opacity:1" /></linearGradient><linearGradient
       inkscape:collect="always"
       id="linearGradient1219"><stop
         style="stop-color:#2b83fe;stop-opacity:1"
         offset="0"
         id="stop1215" /><stop
         style="stop-color:#00f5a2;stop-opacity:1"
         offset="1"
         id="stop1217" /></linearGradient><linearGradient
       id="a"
       x1="399.57"
       x2="399.57"
       y1="545.8"
       y2="517.8"
       gradientTransform="matrix(1.9175 0 0 1.9175 -736.22 -987.8)"
       gradientUnits="userSpaceOnUse"><stop
         stop-color="#3889e9"
         offset="0"
         id="stop4" /><stop
         stop-color="#5ea5fb"
         offset="1"
         id="stop6" /></linearGradient><linearGradient
       id="c"
       x1="282.37"
       x2="281.84"
       y1="644.85"
       y2="10.592"
       gradientUnits="userSpaceOnUse"><stop
         stop-color="#e3e3e3"
         offset="0"
         id="stop9" /><stop
         stop-color="#fffcff"
         offset="1"
         id="stop11" /></linearGradient><linearGradient
       id="linearGradient962"
       x1="282.37"
       x2="281.84"
       y1="644.85"
       y2="10.592"
       gradientTransform="matrix(0.035991,-0.037151,0.037151,0.035991,10.029,-60.883035)"
       gradientUnits="userSpaceOnUse"
       xlink:href="#c" /><linearGradient
       id="linearGradient877"
       x1="-47.197"
       x2="-34.186"
       y1="8.2269"
       y2="-5.2946"
       gradientTransform="matrix(3.4644,0,0,3.4644,173.03,56.100035)"
       gradientUnits="userSpaceOnUse"><stop
         stop-color="#4d4d4d"
         offset="0"
         id="stop15" /><stop
         stop-color="#1a1a1a"
         offset="1"
         id="stop17" /></linearGradient><linearGradient
       inkscape:collect="always"
       xlink:href="#linearGradient1219"
       id="linearGradient21526"
       gradientUnits="userSpaceOnUse"
       x1="112.24219"
       y1="2"
       x2="112.24219"
       y2="62"
       gradientTransform="translate(-80.242189)" /><linearGradient
       inkscape:collect="always"
       xlink:href="#linearGradient1219"
       id="linearGradient22969"
       x1="12.377938"
       y1="13.369869"
       x2="51.622063"
       y2="51.622063"
       gradientUnits="userSpaceOnUse" /></defs><circle
     cx="31.872"
     cy="31.913"
     r="0"
     fill="url(#a)"
     stroke-width="1.9175"
     id="circle24" /><circle
     style="opacity:1;fill:#000000;fill-opacity:1;fill-rule:evenodd;stroke:none;stroke-width:3.61198;stroke-linecap:round;stroke-linejoin:round;paint-order:stroke fill markers"
     id="circle21514"
     cx="32"
     cy="32"
     r="30" /><path
     id="path21516"
     style="fill:url(#linearGradient21526);fill-opacity:1;fill-rule:evenodd;stroke-width:1.23898;stroke-linecap:round;stroke-linejoin:round;paint-order:stroke fill markers"
     d="M 32 2 A 30 30 0 0 0 2 32 A 30 30 0 0 0 32 62 A 30 30 0 0 0 62 32 A 30 30 0 0 0 32 2 z M 32 8.4785156 A 23.522364 23.522364 0 0 1 55.521484 32 A 23.522364 23.522364 0 0 1 32 55.521484 A 23.522364 23.522364 0 0 1 8.4785156 32 A 23.522364 23.522364 0 0 1 32 8.4785156 z " /><path
     id="rect22966"
     style="opacity:1;fill:url(#linearGradient22969);fill-opacity:1;fill-rule:evenodd;stroke:none;stroke-width:1.5;stroke-linecap:round;stroke-linejoin:round;paint-order:stroke fill markers"
     d="M 31.767578 12.378906 C 30.423298 12.392747 29.094214 12.548478 27.740234 12.849609 C 27.214113 12.966686 26.840584 13.200288 26.503906 13.621094 C 23.812828 16.984646 24.071425 21.584645 27.277344 27.423828 C 26.899102 27.814266 26.580823 28.23647 26.308594 28.707031 C 22.603207 24.706291 21.016225 21.031282 21.546875 17.681641 C 21.703356 16.69407 20.563533 16.029729 19.78125 16.652344 C 18.044933 18.034713 16.638344 19.597991 15.447266 21.470703 C 15.158039 21.925387 15.057558 22.353085 15.117188 22.888672 C 15.592701 27.170005 19.029654 30.241491 25.425781 32.103516 C 25.434481 32.646991 25.506295 33.16999 25.646484 33.695312 C 20.197315 33.486497 16.47592 32.011366 14.482422 29.267578 C 13.894702 28.458626 12.620628 28.793719 12.507812 29.787109 C 12.257468 31.992326 12.3678 34.093228 12.849609 36.259766 C 12.966686 36.785887 13.200288 37.159416 13.621094 37.496094 C 16.984646 40.187172 21.584645 39.928575 27.423828 36.722656 C 27.814266 37.100898 28.23647 37.419177 28.707031 37.691406 C 24.706291 41.396793 21.031282 42.983775 17.681641 42.453125 C 16.69407 42.296644 16.029729 43.436467 16.652344 44.21875 C 18.034713 45.955067 19.597823 47.361656 21.470703 48.552734 C 21.925387 48.841961 22.353085 48.942442 22.888672 48.882812 C 27.170005 48.407299 30.241491 44.970346 32.103516 38.574219 C 32.646991 38.565519 33.16999 38.493705 33.695312 38.353516 C 33.486497 43.802685 32.011366 47.52408 29.267578 49.517578 C 28.458626 50.105298 28.793651 51.379372 29.787109 51.492188 C 31.992326 51.742532 34.093229 51.6322 36.259766 51.150391 C 36.785886 51.033314 37.159416 50.799712 37.496094 50.378906 C 40.187174 47.015354 39.928575 42.415355 36.722656 36.576172 C 37.100897 36.185734 37.419244 35.763581 37.691406 35.292969 C 41.396793 39.293709 42.983775 42.968719 42.453125 46.318359 C 42.296644 47.305931 43.436467 47.97027 44.21875 47.347656 C 45.955067 45.965288 47.361656 44.402178 48.552734 42.529297 C 48.841961 42.074614 48.942442 41.646915 48.882812 41.111328 C 48.407299 36.829995 44.970346 33.758509 38.574219 31.896484 C 38.565519 31.353011 38.493705 30.830009 38.353516 30.304688 C 43.802685 30.513502 47.52408 31.988634 49.517578 34.732422 C 50.105298 35.541374 51.379372 35.20635 51.492188 34.212891 C 51.742532 32.007675 51.6322 29.906601 51.150391 27.740234 C 51.033314 27.214116 50.799712 26.840583 50.378906 26.503906 C 47.015354 23.812827 42.415355 24.071427 36.576172 27.277344 C 36.185734 26.899104 35.76353 26.580822 35.292969 26.308594 C 39.293709 22.603205 42.968718 21.016226 46.318359 21.546875 C 47.30593 21.703356 47.970271 20.563535 47.347656 19.78125 C 45.965354 18.044933 44.402178 16.638342 42.529297 15.447266 C 42.074614 15.158039 41.646914 15.057558 41.111328 15.117188 C 36.829996 15.592701 33.758509 19.029654 31.896484 25.425781 C 31.353009 25.434481 30.830012 25.506295 30.304688 25.646484 C 30.513504 20.197315 31.988634 16.47592 34.732422 14.482422 C 35.541373 13.894702 35.206348 12.620628 34.212891 12.507812 C 33.385934 12.413933 32.574146 12.370602 31.767578 12.378906 z M 31.912109 26.519531 C 33.314374 26.497271 34.725584 27.011528 35.8125 28.064453 C 37.986163 30.170256 38.041421 33.638669 35.935547 35.8125 C 33.829743 37.986162 30.361332 38.041422 28.1875 35.935547 C 26.013838 33.829743 25.958579 30.361332 28.064453 28.1875 C 29.117355 27.10067 30.509845 26.541792 31.912109 26.519531 z " /></svg>
