<?xml version="1.0" encoding="UTF-8"?>
<svg width="64" height="64" version="1.1" viewBox="0 0 16.933 16.933" xmlns="http://www.w3.org/2000/svg" xmlns:cc="http://creativecommons.org/ns#" xmlns:dc="http://purl.org/dc/elements/1.1/" xmlns:rdf="http://www.w3.org/1999/02/22-rdf-syntax-ns#">
 <defs>
  <linearGradient id="linearGradient6493" x1="-52.688" x2="-49.627" y1="12.917" y2="-.93749" gradientTransform="translate(60.217,2.4389)" gradientUnits="userSpaceOnUse">
   <stop stop-color="#4f61fd" offset="0"/>
   <stop stop-color="#01bdfd" offset="1"/>
  </linearGradient>
  <linearGradient id="linearGradient1088" x1="-52.342" x2="-47.964" y1="5.4936" y2="8.0212" gradientTransform="rotate(240 -20.826 -10.148)" gradientUnits="userSpaceOnUse">
   <stop stop-color="#02d3fe" offset="0"/>
   <stop stop-color="#11aafd" offset="1"/>
  </linearGradient>
 </defs>
 <metadata>
  <rdf:RDF>
   <cc:Work rdf:about="">
    <dc:format>image/svg+xml</dc:format>
    <dc:type rdf:resource="http://purl.org/dc/dcmitype/StillImage"/>
   </cc:Work>
  </rdf:RDF>
 </metadata>
 <g stroke-linejoin="round">
  <g transform="translate(60.028 -.11259)" fill="#820000">
   <path d="m-57.413 7.6873a1.323 1.323 0 0 0-0.04755 0.022026 1.323 1.323 0 0 0-0.04681 0.026413c0.03073-0.017437 0.06234-0.033565 0.09434-0.048464z" color="#000000" opacity=".61069" style="-inkscape-stroke:none"/>
   <path d="m-57.317 7.6473a1.323 1.323 0 0 0-0.06291 0.024367 1.323 1.323 0 0 0-0.03333 0.01566c0.03156-0.014643 0.06357-0.027927 0.09623-0.040036z" color="#000000" opacity=".61069" style="-inkscape-stroke:none"/>
   <path d="m-57.094 7.5864a1.323 1.323 0 0 0-0.03049 0.00507 1.323 1.323 0 0 0-0.08695 0.020963 1.323 1.323 0 0 0-0.08545 0.026665 1.323 1.323 0 0 0-0.01065 0.0043c0.06945-0.024945 0.14087-0.044012 0.21351-0.057035z" color="#000000" opacity=".61069" style="-inkscape-stroke:none"/>
   <path d="m-56.97 7.57a1.323 1.323 0 0 0-0.06605 0.00651 1.323 1.323 0 0 0-0.04445 0.00776c0.03657-0.00641 0.07355-0.010965 0.1105-0.014273z" color="#000000" opacity=".61069" style="-inkscape-stroke:none"/>
   <path d="m-56.858 7.5644a1.323 1.323 0 0 0-0.08895 0.00302 1.323 1.323 0 0 0-0.02255 0.00228c0.03711-0.00331 0.07422-0.00514 0.1115-0.0053z" color="#000000" opacity=".61069" style="-inkscape-stroke:none"/>
   <path d="m-50.218 7.6134a1.323 1.323 0 0 0-0.01489-0.00512 1.323 1.323 0 0 0-0.1455-0.028775c0.05497 8e-3 0.10837 0.019552 0.16039 0.033897z" color="#000000" opacity=".61069" style="-inkscape-stroke:none"/>
   <path d="m-50.057 7.6693a1.323 1.323 0 0 0-0.01144-0.00535 1.323 1.323 0 0 0-0.09924-0.033404c0.0374 0.011977 0.07505 0.023655 0.11067 0.038732z" color="#000000" opacity=".61069" style="-inkscape-stroke:none"/>
   <path d="m-49.903 7.7473a1.323 1.323 0 0 0-0.0099-0.00681 1.323 1.323 0 0 0-0.07182-0.035509c0.0275 0.01373 0.05547 0.026796 0.08172 0.042322z" color="#000000" opacity=".61069" style="-inkscape-stroke:none"/>
   <path d="m-49.761 7.8441a1.323 1.323 0 0 0-0.0083-0.00715 1.323 1.323 0 0 0-0.06802-0.045462c0.02564 0.017378 0.05209 0.033549 0.07631 0.0526z" color="#000000" opacity=".61069" style="-inkscape-stroke:none"/>
   <path d="m-49.3 8.5339a1.323 1.323 0 0 0-0.05157-0.15341 1.323 1.323 0 0 0-0.07671-0.15561 1.323 1.323 0 0 0-0.09614-0.14379 1.323 1.323 0 0 0-0.11454-0.13018 1.323 1.323 0 0 0-0.08481-0.074551c0.20304 0.17239 0.35183 0.40225 0.42378 0.65754z" color="#000000" opacity=".61069" style="-inkscape-stroke:none"/>
   <path d="m-49.278 8.6363a1.323 1.323 0 0 0-0.01822-0.091508 1.323 1.323 0 0 0-0.0039-0.010885c0.0094 0.033487 0.01532 0.068149 0.02212 0.10239z" color="#000000" opacity=".61069" style="-inkscape-stroke:none"/>
   <path d="m-49.259 8.7673a1.323 1.323 0 0 0-0.0036-0.052798 1.323 1.323 0 0 0-0.0016-0.00683c0.0028 0.019716 0.0033 0.039764 0.0052 0.059651z" color="#000000" opacity=".61069" style="-inkscape-stroke:none"/>
   <path d="m-49.254 8.931a1.323 1.323 0 0 0 0.0029-0.043468 1.323 1.323 0 0 0-6.65e-4 -0.00735c1.35e-4 0.016873-0.0017 0.033903-0.0023 0.050838z" color="#000000" opacity=".61069" style="-inkscape-stroke:none"/>
   <path d="m-49.269 9.0918a1.323 1.323 0 0 0 0.0062-0.031629 1.323 1.323 0 0 0 2.34e-4 -0.00371c-0.0015 0.011741-0.0046 0.023571-0.0064 0.035348z" color="#000000" opacity=".61069" style="-inkscape-stroke:none"/>
   <path d="m-49.319 9.2967a1.323 1.323 0 0 0 0.02239-0.066633 1.323 1.323 0 0 0 0.0012-0.00614c-0.0065 0.024344-0.01564 0.048487-0.02365 0.072727z" color="#000000" opacity=".61069" style="-inkscape-stroke:none"/>
   <path d="m-52.669 15.136a1.323 1.323 0 0 0 0.0017-0.0022 1.323 1.323 0 0 0 0.09602-0.14375c-0.02996 0.05187-0.0628 0.10016-0.09774 0.14593z" color="#000000" opacity=".61069" style="-inkscape-stroke:none"/>
   <path d="m-53.548 15.64a1.323 1.323 0 0 0 0.0046-2.48e-4 1.323 1.323 0 0 0 0.05078-0.01022c-0.01849 0.0032-0.03678 0.0082-0.05539 0.01051z" color="#000000" opacity=".61069" style="-inkscape-stroke:none"/>
   <path d="m-53.801 15.646a1.323 1.323 0 0 0 0.08438 0.0056 1.323 1.323 0 0 0 0.11669-0.0077c-0.06701 0.0059-0.13394 0.0063-0.20106 0.0021z" color="#000000" opacity=".61069" style="-inkscape-stroke:none"/>
   <path d="m-54.862 14.991a1.323 1.323 0 0 0 0.09614 0.14379 1.323 1.323 0 0 0 0.0035 4e-3c-0.03557-0.04631-0.06916-0.09515-0.09962-0.14774z" color="#000000" opacity=".61069" style="-inkscape-stroke:none"/>
  </g>
  <path d="m15.618 8.0615c1.7814-3.0866-0.44547-6.9442-4.0092-6.9451l-0.76191-1.244e-4 -0.52924-4.88e-5c-0.0092 1.62e-5 -0.01801 2.389e-4 -0.02711 4.581e-4 -0.0091 2.761e-4 -0.01835 4.339e-4 -0.02737 9.082e-4 -9e-3 4.493e-4 -0.01821 9.27e-4 -0.02718 0.0016-9e-3 6.725e-4 -0.01766 0.00165-0.02655 0.00257-0.0089 8.458e-4 -0.01842 0.00162-0.02725 0.00276-0.0088 0.00116-0.01739 0.00265-0.02616 0.00402-0.0088 0.00138-0.01703 0.00268-0.02572 0.00423-0.0087 0.00155-0.01781 0.00266-0.02644 0.00441-0.0086 0.00173-0.01749 0.00386-0.02607 0.00581-0.0085 0.0019-0.01668 0.0042-0.02517 0.00633-0.0085 0.00212-0.01676 0.00402-0.02517 0.00633-0.0084 0.00243-0.01648 0.00524-0.02479 0.00773-0.0083 0.0026-0.01656 0.00506-0.02479 0.00773-0.0082 0.00278-0.01675 0.00597-0.02485 0.00892s-0.01592 0.00631-0.02395 0.00944c-8e-3 0.00312-0.0165 0.00583-0.02438 0.00923-0.0079 0.0033-0.01549 0.00687-0.02329 0.010443-0.0078 0.00354-0.01519 0.00692-0.02287 0.010665-0.0077 0.00372-0.01574 0.0077-0.02339 0.011543-0.0076 0.0039-0.01545 0.00776-0.02293 0.011851-0.0075 0.00407-0.01489 0.00854-0.0223 0.012782-0.0074 0.00424-0.01461 0.00863-0.02185 0.013041-0.0073 0.00441-0.01423 0.00872-0.0214 0.013298-0.0072 0.00459-0.01491 0.00945-0.02194 0.014166-7e-3 0.00472-0.01342 0.0096-0.02033 0.014508-0.0069 0.00489-0.0138 0.00993-0.02057 0.014993-0.0068 0.00507-0.01348 0.00998-0.02014 0.01521-0.0067 0.00524-0.01342 0.010518-0.01995 0.015906-0.0065 0.00536-0.0131 0.010683-0.01948 0.016214-0.0064 0.00554-0.01263 0.011448-0.01887 0.017132-0.0063 0.00571-0.01205 0.011113-0.01816 0.01695-0.0061 0.00583-0.01224 0.012146-0.01821 0.018136-6e-3 0.00601-0.01237 0.011992-0.01821 0.018136-0.0058 0.00613-0.01166 0.012389-0.01731 0.018655-0.0057 0.0063-0.01109 0.012058-0.01661 0.018478-0.0055 0.00642-0.01087 0.013323-0.01622 0.019876-0.0054 0.0066-0.01073 0.012776-0.016 0.019396-0.0052 0.00667-0.01029 0.013561-0.01534 0.0204-0.0051 0.00676-0.01 0.013741-0.0149 0.020634-0.0049 0.00688-0.01013 0.013587-0.0149 0.020634-0.0047 0.00709-9e-3 0.014215-0.01356 0.02141-0.0046 0.00718-0.0091 0.014143-0.01355 0.021413-0.0044 0.0073-0.0087 0.014963-0.01292 0.022379-0.0042 0.00737-0.0086 0.014436-0.01266 0.021929-0.0041 0.00746-0.0082 0.015251-0.01204 0.022895-0.0039 0.00758-0.0079 0.015421-0.01158 0.023149-0.0037 0.00766-0.0076 0.015585-0.01113 0.023409-0.0035 0.00778-0.0064 0.015119-0.0097 0.023028-0.0033 0.0079-0.0062 0.016429-0.0093 0.024447-0.0031 0.00803-0.0065 0.015622-0.0095 0.023739-3e-3 0.00809-0.0061 0.016502-0.0089 0.0247-0.0028 0.0082-0.0052 0.016477-0.0077 0.024769-0.0026 0.00831-0.0053 0.016384-0.0077 0.024768-0.0024 0.00832-0.0046 0.016823-0.0068 0.025289-0.0021 0.00849-4e-3 0.017253-0.0059 0.025806-0.0021 0.0086-0.0039 0.01673-0.0057 0.025357-0.0019 0.00861-3e-3 0.017864-0.0046 0.026581-0.0016 0.00866-0.0028 0.016905-0.0041 0.025681-0.0013 0.00883-0.0035 0.017735-0.0046 0.026581-0.0011 0.00884-0.0012 0.017805-0.0023 0.026719-7.92e-4 0.00889-0.0018 0.018187-0.0026 0.027169-8.04e-4 0.00901-0.0011 0.01748-0.0016 0.026525-5.21e-4 0.00908-6.88e-4 0.018388-9.57e-4 0.027492-1.01e-4 0.00907-2.42e-4 0.018141-2.49e-4 0.027302l-1.54e-4 0.26485-1.31e-4 0.24517-3.5e-5 1.7209 2.27e-4 0.1505-2.2e-4 1.1724 2.3814 9.14e-5 -3.1419 5.4419-3.1426-5.4417 2.3159-1.36e-4 -2.27e-4 -1.1726 2.21e-4 -0.15024 3.6e-5 -1.7209-3.18e-4 -0.24543 1.54e-4 -0.26484c-2e-6 -0.036637-2e-3 -0.072551-0.0055-0.10822-0.0036-0.035668-0.0084-0.07106-0.01543-0.10557-7e-3 -0.034513-0.0165-0.068209-0.02679-0.10139-0.01027-0.033182-0.02178-0.065587-0.03514-0.097264-0.01337-0.031665-0.02795-0.062935-0.0442-0.092941-0.01624-0.029999-0.03459-0.058883-0.05358-0.087024-0.01897-0.028144-0.03912-0.054859-0.06066-0.080967-0.02153-0.026113-0.04428-0.051247-0.06818-0.07517-0.02394-0.023867-0.04897-0.046874-0.07507-0.0684-0.02611-0.021541-0.05317-0.041724-0.08132-0.060679-0.02812-0.019007-0.05728-0.037206-0.08732-0.053394-0.03-0.016258-0.0608-0.031109-0.09249-0.04444-0.03168-0.013326-0.06429-0.024518-0.09746-0.034791-0.03319-0.01027-0.06645-0.019637-0.10096-0.026662-0.03451-0.00703-0.0699-0.011987-0.10556-0.015599-0.03566-0.0036-0.07184-0.00536-0.10849-0.00535l-0.52924-4.9e-5 -0.7612-3.13e-4c-3.564 4.524e-4 -5.7915 3.8587-4.01 6.9455l3.1429 5.4413c1.7825 3.086 6.2372 3.0858 8.0197-1.86e-4l0.64672-1.1201c0.03578-0.06246 0.06504-0.12637 0.087-0.19203 0.02234-0.0668 0.03767-0.13483 0.04622-0.20304 0.0085-0.06822 0.01007-0.13684 0.0053-0.20457-0.0047-0.06772-0.01609-0.13487-0.03359-0.20019-0.0175-0.06533-0.04079-0.12889-0.07056-0.18991-0.02976-0.06102-0.06565-0.11925-0.10716-0.17405s-0.0888-0.10605-0.14155-0.15273-0.11095-0.08912-0.17442-0.12576l-0.4417-0.25502-2.58e-4 4.47e-4 -1.4898-0.86014 0.79425-1.3757 1.4898 0.86014-2.59e-4 4.487e-4 0.4417 0.25502c0.03173 0.01832 0.06388 0.035068 0.09656 0.049781 0.03269 0.014716 0.06591 0.027661 0.0993 0.038833 0.0334 0.011167 0.06676 0.020577 0.10064 0.028269 0.03387 0.00769 0.0683 0.013683 0.10241 0.01796 0.0341 0.00427 0.06822 0.00684 0.10233 0.00776 0.03411 9.185e-4 0.06812 3.826e-4 0.10198-0.00198 0.03386-0.00237 0.06737-0.00665 0.10075-0.012243 0.03338-0.00559 0.06633-0.012856 0.099-0.021605 0.03269-0.00871 0.06483-0.018931 0.09654-0.030785 0.03172-0.011845 0.06311-0.025351 0.09363-0.040223 0.03052-0.014852 0.06065-0.031207 0.08975-0.049043 0.02907-0.017849 0.05733-0.037141 0.08472-0.05792s0.05352-0.042965 0.07901-0.066563c0.02548-0.023603 0.05038-0.048614 0.07372-0.074986 0.02334-0.026374 0.04518-0.054458 0.06613-0.083546 0.02055-0.028527 0.04012-0.058267 0.05815-0.089344l0.26613-0.46095zm-1.342-0.81237-0.52838 0.91518-1.4898-0.86014 0.52786-0.91429a1.323 1.323 0 0 0 0.02172-0.041755 1.323 1.323 0 0 0-1.166-1.9429l-1.0592 9.02e-5 3.4e-5 -1.7209 1.0589 3.559e-4a3.043 3.043 0 0 1 0.3739 0.023138 3.043 3.043 0 0 1 0.36793 0.068617 3.043 3.043 0 0 1 0.35734 0.11382 3.043 3.043 0 0 1 0.34042 0.15656 3.043 3.043 0 0 1 0.31806 0.19736 3.043 3.043 0 0 1 0.29245 0.23449 3.043 3.043 0 0 1 0.2605 0.26915 3.043 3.043 0 0 1 0.22583 0.29924 3.043 3.043 0 0 1 0.18706 0.324 3.043 3.043 0 0 1 0.1462 0.34517 3.043 3.043 0 0 1 0.10223 0.36035 3.043 3.043 0 0 1 0.05764 0.37041 3.043 3.043 0 0 1 0.01134 0.37412 3.043 3.043 0 0 1-0.03467 0.37321 3.043 3.043 0 0 1-0.07982 0.36563 3.043 3.043 0 0 1-0.1247 0.35345 3.043 3.043 0 0 1-0.04442 0.099662 3.043 3.043 0 0 1-0.12251 0.23597zm-2.6455 4.5822-0.49738 0.86148a3.043 3.043 0 0 1-0.17992 0.27443 3.043 3.043 0 0 1-0.24185 0.29178 3.043 3.043 0 0 1-0.5412 0.4537 3.043 3.043 0 0 1-0.63116 0.31703 3.043 3.043 0 0 1-0.6872 0.16295 3.043 3.043 0 0 1-0.7066 1.87e-4 3.043 3.043 0 0 1-0.68709-0.16279 3.043 3.043 0 0 1-0.63128-0.31733 3.043 3.043 0 0 1-0.54113-0.45384 3.043 3.043 0 0 1-0.42186-0.56637l-3.1423-5.4433a3.043 3.043 0 0 1-0.2801-0.64862 3.043 3.043 0 0 1-0.12259-0.69612 3.043 3.043 0 0 1 0.0407-0.70507 3.043 3.043 0 0 1 0.20267-0.67659 3.043 3.043 0 0 1 0.35346-0.61221 3.043 3.043 0 0 1 0.48461-0.51382 3.043 3.043 0 0 1 0.59052-0.38823 3.043 3.043 0 0 1 0.6637-0.24215 3.043 3.043 0 0 1 0.70132-0.081997l0.99342 1.294e-4 -3.4e-5 1.7209-0.99298 1.288e-4a1.323 1.323 0 0 0-1.1445 1.9844l3.1406 5.4411a1.323 1.323 0 0 0 2.2358 0.0879 1.323 1.323 0 0 0 0.05551-0.08789l0.4966-0.86014z" color="#000000" fill="url(#linearGradient6493)" style="-inkscape-stroke:none"/>
  <path d="m5.3593 4.4047a1.323 1.323 0 0 0-1.1472 1.9844l3.1424 5.4435a1.323 1.323 0 0 0 2.2918 0l3.1424-5.4435a1.323 1.323 0 0 0-1.1467-1.9844h-2.3812v1.3234h-1.5875v-1.3234h-2.314z" fill="url(#linearGradient1088)" style="-inkscape-stroke:none"/>
 </g>
</svg>
