<?xml version="1.0" encoding="UTF-8"?>
<svg id="Apps-Visual-Studio-Code" width="64" height="64" enable-background="new 0 0 1024 1024" image-rendering="optimizeSpeed" version="1.1" viewBox="0 0 64 64" xmlns="http://www.w3.org/2000/svg" xmlns:cc="http://creativecommons.org/ns#" xmlns:dc="http://purl.org/dc/elements/1.1/" xmlns:rdf="http://www.w3.org/1999/02/22-rdf-syntax-ns#" xmlns:xlink="http://www.w3.org/1999/xlink">
 <metadata>
  <rdf:RDF>
   <cc:Work rdf:about="">
    <dc:format>image/svg+xml</dc:format>
    <dc:type rdf:resource="http://purl.org/dc/dcmitype/StillImage"/>
   </cc:Work>
  </rdf:RDF>
 </metadata>
 <defs>
  <linearGradient id="linearGradient2057">
   <stop stop-color="#12c66f" offset="0"/>
   <stop stop-color="#1bfb7f" offset="1"/>
  </linearGradient>
  <style type="text/css"/>
  <style type="text/css"/>
  <linearGradient id="linearGradient11464" x1="71.057" x2="110.68" y1="29.605" y2="29.605" gradientTransform="matrix(1.3879 0 0 1.3879 -94.12 -9.0884)" gradientUnits="userSpaceOnUse" xlink:href="#linearGradient2057"/>
 </defs>
 <g fill="url(#linearGradient11464)" fill-rule="evenodd" stroke-linecap="round" stroke-linejoin="round">
  <g stroke-width="5.5516">
   <path d="m32 4.5a8.3275 8.3275 0 0 0-8.3281 8.3281 8.3275 8.3275 0 0 0 8.3281 8.3262 8.3275 8.3275 0 0 0 8.3281-8.3262 8.3275 8.3275 0 0 0-8.3281-8.3281zm0 2.8281a5.5 5.5 0 0 1 5.5 5.5 5.5 5.5 0 0 1-5.5 5.5 5.5 5.5 0 0 1-5.5-5.5 5.5 5.5 0 0 1 5.5-5.5z" color="#000000" style="-inkscape-stroke:none;paint-order:stroke fill markers"/>
   <path d="m32 42.846a8.3275 8.3275 0 0 0-8.3281 8.3262 8.3275 8.3275 0 0 0 8.3281 8.3281 8.3275 8.3275 0 0 0 8.3281-8.3281 8.3275 8.3275 0 0 0-8.3281-8.3262zm0 2.8262a5.5 5.5 0 0 1 5.5 5.5 5.5 5.5 0 0 1-5.5 5.5 5.5 5.5 0 0 1-5.5-5.5 5.5 5.5 0 0 1 5.5-5.5z" color="#000000" style="-inkscape-stroke:none;paint-order:stroke fill markers"/>
   <path d="m51.172 23.672a8.3275 8.3275 0 0 0-8.3262 8.3281 8.3275 8.3275 0 0 0 8.3262 8.3281 8.3275 8.3275 0 0 0 8.3281-8.3281 8.3275 8.3275 0 0 0-8.3281-8.3281zm0 2.8281a5.5 5.5 0 0 1 5.5 5.5 5.5 5.5 0 0 1-5.5 5.5 5.5 5.5 0 0 1-5.5-5.5 5.5 5.5 0 0 1 5.5-5.5z" color="#000000" style="-inkscape-stroke:none;paint-order:stroke fill markers"/>
   <path d="m12.828 23.672a8.3275 8.3275 0 0 0-8.3281 8.3281 8.3275 8.3275 0 0 0 8.3281 8.3281 8.3275 8.3275 0 0 0 8.3262-8.3281 8.3275 8.3275 0 0 0-8.3262-8.3281zm0 2.8281a5.5 5.5 0 0 1 5.5 5.5 5.5 5.5 0 0 1-5.5 5.5 5.5 5.5 0 0 1-5.5-5.5 5.5 5.5 0 0 1 5.5-5.5z" color="#000000" style="-inkscape-stroke:none;paint-order:stroke fill markers"/>
  </g>
  <g stroke-width="7.0341">
   <circle cx="12.827" cy="12.827" r="8.3275" style="paint-order:stroke fill markers"/>
   <circle cx="51.173" cy="12.827" r="8.3275" style="paint-order:stroke fill markers"/>
   <circle cx="12.827" cy="51.173" r="8.3275" style="paint-order:stroke fill markers"/>
   <circle cx="51.173" cy="51.173" r="8.3275" style="paint-order:stroke fill markers"/>
  </g>
  <path d="m12.57 12.571v8.3329c0.08577-0.0019 0.1713-0.0054 0.25752-0.0054 6.0993 0 11.103 5.004 11.103 11.103 0 6.0993-5.004 11.103-11.103 11.103-0.08622 0-0.17175-0.0035-0.25752-0.0054v8.3329h8.3329c-0.0021-0.08666-0.0054-0.17311-0.0054-0.26023 0-6.0993 5.004-11.103 11.103-11.103 6.0993 0 11.103 5.004 11.103 11.103 0 0.08713-0.0033 0.17356-0.0054 0.26023h8.3329v-8.3329c-0.08577 0.0019-0.1713 0.0054-0.25751 0.0054-6.0993 0-11.103-5.004-11.103-11.103 0-6.0993 5.004-11.103 11.103-11.103 0.08619 0 0.17175 0.0035 0.25751 0.0054v-8.3329h-8.3329c0.0019 0.08577 0.0054 0.1713 0.0054 0.25752 0 6.0993-5.004 11.103-11.103 11.103-6.0993 0-11.103-5.004-11.103-11.103 0-0.08622 0.0035-0.17175 0.0054-0.25752z" stroke-width="5.5378" style="paint-order:stroke fill markers"/>
 </g>
</svg>
