<?xml version="1.0" encoding="UTF-8"?>
<svg width="64" height="64" version="1.1" viewBox="0 0 16.933 16.933" xmlns="http://www.w3.org/2000/svg" xmlns:cc="http://creativecommons.org/ns#" xmlns:dc="http://purl.org/dc/elements/1.1/" xmlns:rdf="http://www.w3.org/1999/02/22-rdf-syntax-ns#" xmlns:xlink="http://www.w3.org/1999/xlink">
 <defs>
  <linearGradient id="linearGradient123863">
   <stop stop-color="#18e5dd" offset="0"/>
   <stop stop-color="#2652fd" offset="1"/>
  </linearGradient>
  <linearGradient id="linearGradient5571" x1="-25.929" x2="-16.933" y1="-2.2489" y2="-2.2489" gradientTransform="matrix(1.1429,0,0,1.1429,30.691,13.153)" gradientUnits="userSpaceOnUse">
   <stop stop-color="#227cf4" offset="0"/>
   <stop stop-color="#264cfe" offset="1"/>
  </linearGradient>
  <linearGradient id="linearGradient18529" x1="-22.225" x2="-12.964" y1="-5.953" y2="-5.953" gradientTransform="translate(-11.112,7.9373)" gradientUnits="userSpaceOnUse">
   <stop stop-color="#18e5dd" offset="0"/>
   <stop stop-color="#19b2df" offset="1"/>
  </linearGradient>
  <linearGradient id="linearGradient50845" x1="-33.337" x2="-26.193" y1="3.8364" y2="3.8364" gradientTransform="scale(3.7796)" gradientUnits="userSpaceOnUse">
   <stop stop-color="#1d96e8" offset="0"/>
   <stop stop-color="#19bfdf" offset="1"/>
  </linearGradient>
  <linearGradient id="linearGradient119785" x1="-33.337" x2="-26.193" y1="3.8364" y2="3.8364" gradientTransform="translate(36.247,7.6728)" gradientUnits="userSpaceOnUse" xlink:href="#linearGradient123863"/>
  <linearGradient id="linearGradient145446" x1="-33.337" x2="-26.193" y1="3.8364" y2="3.8364" gradientTransform="translate(36.247,5.027)" gradientUnits="userSpaceOnUse" xlink:href="#linearGradient123863"/>
  <linearGradient id="linearGradient145454" x1="-33.337" x2="-26.193" y1="3.8364" y2="3.8364" gradientTransform="matrix(.81481 0 0 1 30.074 2.6458)" gradientUnits="userSpaceOnUse" xlink:href="#linearGradient123863"/>
 </defs>
 <metadata>
  <rdf:RDF>
   <cc:Work rdf:about="">
    <dc:format>image/svg+xml</dc:format>
    <dc:type rdf:resource="http://purl.org/dc/dcmitype/StillImage"/>
   </cc:Work>
  </rdf:RDF>
 </metadata>
 <g transform="matrix(1.0357 0 0 1.0357 -.30183 -.30212)" fill-rule="evenodd">
  <path d="m4.0821 5.2916c-1.6752 0-3.0237 1.3486-3.0237 3.0238v4.5356c0 1.6752 1.3486 3.0238 3.0237 3.0238h4.5356c1.6752 0 3.0238-1.3486 3.0238-3.0238v-1.2095h-5.1404v-2.1166l2.1166-2.1166v-0.30238h-2.419v-1.8142z" fill="url(#linearGradient5571)" style="paint-order:stroke fill markers"/>
  <rect x="2.9104" y="10.054" width="7.1436" height="1.5875" ry=".79373" fill="url(#linearGradient145446)" style="paint-order:stroke fill markers"/>
  <rect x="2.9104" y="7.6728" width="5.8207" height="1.5875" ry=".79373" fill="url(#linearGradient145454)" style="paint-order:stroke fill markers"/>
  <g transform="matrix(1.1429,0,0,1.1429,43.391,4.0821)">
   <path d="m-30.691-2.6458c-1.4658 0-2.6458 1.18-2.6458 2.6458v1.852c0 0.43973 0.354 0.79373 0.79373 0.79373h2.0443l-2.6034 2.6034c-0.14677 0.14677-0.2244 0.33573-0.23357 0.52709-6.6e-5 0.00121 6.1e-5 0.00241 0 0.00362-5.48e-4 0.012587-0.0011 0.025126-1e-3 0.037723-6e-6 0.00104 0 0.00206 0 0.0031 8.2e-5 0.0107 5.21e-4 0.021348 1e-3 0.032039 0.01636 0.414 0.34666 0.7443 0.76066 0.76066 0.01068 4.22e-4 0.02125 0.00103 0.03204 0.00103 0.0021 1.61e-5 0.0041 0 0.0062 0h5.8145c1.4658 0 2.6458-1.18 2.6458-2.6458v-3.9687c0-1.4658-1.18-2.6458-2.6458-2.6458zm0 1.5875h3.9687c0.5863 0 1.0583 0.47201 1.0583 1.0583v3.9687c0 0.58631-0.47201 1.0583-1.0583 1.0583h-3.8963l2.6034-2.6034c0.14769-0.14769 0.22522-0.33811 0.23357-0.53071 5.79e-4 -0.011507 9.44e-4 -0.022989 1e-3 -0.034622 0-0.00207 1.6e-5 -0.00413 0-0.0062 0-0.42894-0.33701-0.77592-0.7617-0.7927-0.01069-5.125e-4 -0.02134-9.503e-4 -0.03204-0.00103h-3.1749v-1.0583c0-0.58631 0.47201-1.0583 1.0583-1.0583z" fill="url(#linearGradient18529)" style="paint-order:stroke fill markers"/>
   <path transform="scale(.26458)" d="m-123 4c-1.662 0-3 1.338-3 3s1.338 3 3 3h7.7266l-9.8398 9.8398c-0.55472 0.55472-0.84814 1.2689-0.88281 1.9922-2.5e-4 0.0046 2.3e-4 0.0091 0 0.01367-2e-3 0.04757-4e-3 0.09497-4e-3 0.14258-2e-5 0.0039 0 0.0078 0 0.01172 3.1e-4 0.04044 2e-3 0.08069 4e-3 0.12109 0.0618 1.5648 1.3102 2.8132 2.875 2.875 0.0404 0.0016 0.0803 0.0039 0.12109 0.0039 8e-3 6.1e-5 0.0156 0 0.0234 0h20.977c1.662 0 3-1.338 3-3s-1.338-3-3-3h-13.727l9.8398-9.8398c0.55822-0.55821 0.85122-1.2779 0.88281-2.0059 2e-3 -0.04349 4e-3 -0.086888 4e-3 -0.13086 0-0.00782 6e-5 -0.015617 0-0.023437 0-1.6212-1.2738-2.9327-2.8789-2.9961-0.0405-0.00193-0.0807-0.00359-0.12118-0.0039z" fill="url(#linearGradient50845)" style="paint-order:stroke fill markers"/>
  </g>
  <rect x="2.9104" y="12.7" width="7.1436" height="1.5875" ry=".79373" fill="url(#linearGradient119785)" style="paint-order:stroke fill markers"/>
 </g>
</svg>
