<?xml version="1.0" encoding="UTF-8" standalone="no"?>
<svg
   width="64"
   height="64"
   viewBox="0 0 64 64"
   version="1.1"
   id="svg110"
   sodipodi:docname="assistant5.svg"
   xml:space="preserve"
   inkscape:version="1.2.1 (9c6d41e410, 2022-07-14)"
   xmlns:inkscape="http://www.inkscape.org/namespaces/inkscape"
   xmlns:sodipodi="http://sodipodi.sourceforge.net/DTD/sodipodi-0.dtd"
   xmlns="http://www.w3.org/2000/svg"
   xmlns:svg="http://www.w3.org/2000/svg"><sodipodi:namedview
     id="namedview112"
     pagecolor="#ffffff"
     bordercolor="#999999"
     borderopacity="1"
     inkscape:showpageshadow="0"
     inkscape:pageopacity="0"
     inkscape:pagecheckerboard="0"
     inkscape:deskcolor="#d1d1d1"
     showgrid="false"
     inkscape:zoom="2.419631"
     inkscape:cx="-147.12987"
     inkscape:cy="2.2730739"
     inkscape:window-width="1920"
     inkscape:window-height="1005"
     inkscape:window-x="0"
     inkscape:window-y="0"
     inkscape:window-maximized="1"
     inkscape:current-layer="svg110" /><defs
     id="defs83"><linearGradient
       id="linear0"
       gradientUnits="userSpaceOnUse"
       x1="-306.171"
       y1="15.2498"
       x2="-273.6694"
       y2="15.2498"
       gradientTransform="matrix(1.8462,0,0,-1.8462,567.2244,64.1528)"><stop
         offset="0"
         style="stop-color:rgb(31.372549%,31.372549%,31.372549%);stop-opacity:1;"
         id="stop2" /><stop
         offset="1"
         style="stop-color:rgb(19.607843%,19.607843%,19.607843%);stop-opacity:1;"
         id="stop4" /></linearGradient><linearGradient
       id="linear1"
       gradientUnits="userSpaceOnUse"
       x1="-284.5038"
       y1="28.2501"
       x2="-273.6702"
       y2="28.2501"
       gradientTransform="matrix(1.8462,0,0,-1.8462,567.2244,64.1528)"><stop
         offset="0"
         style="stop-color:rgb(38.823529%,38.823529%,38.823529%);stop-opacity:1;"
         id="stop7" /><stop
         offset="1"
         style="stop-color:rgb(39.215686%,39.215686%,39.215686%);stop-opacity:1;"
         id="stop9" /></linearGradient><linearGradient
       id="linear2"
       gradientUnits="userSpaceOnUse"
       x1="-295.3374"
       y1="28.2501"
       x2="-284.5038"
       y2="28.2501"
       gradientTransform="matrix(1.8462,0,0,-1.8462,567.2244,64.1528)"><stop
         offset="0"
         style="stop-color:rgb(59.607843%,59.607843%,59.607843%);stop-opacity:1;"
         id="stop12" /><stop
         offset="1"
         style="stop-color:rgb(60%,60%,60%);stop-opacity:1;"
         id="stop14" /></linearGradient><linearGradient
       id="linear3"
       gradientUnits="userSpaceOnUse"
       x1="-306.171"
       y1="28.2501"
       x2="-295.3374"
       y2="28.2501"
       gradientTransform="matrix(1.8462,0,0,-1.8462,567.2244,64.1528)"><stop
         offset="0"
         style="stop-color:rgb(80.784314%,80.784314%,80.784314%);stop-opacity:1;"
         id="stop17" /><stop
         offset="1"
         style="stop-color:rgb(81.568627%,81.568627%,81.568627%);stop-opacity:1;"
         id="stop19" /></linearGradient><linearGradient
       id="linear4"
       gradientUnits="userSpaceOnUse"
       x1="-178.2472"
       y1="260.3181"
       x2="-150.2084"
       y2="266.9333"
       gradientTransform="matrix(0.4302,-0.4302,-0.4302,-0.4302,231.1082,83.5458)"><stop
         offset="0"
         style="stop-color:rgb(66.27451%,66.27451%,66.27451%);stop-opacity:1;"
         id="stop22" /><stop
         offset="1"
         style="stop-color:rgb(54.901961%,54.901961%,54.901961%);stop-opacity:1;"
         id="stop24" /></linearGradient><filter
       id="alpha"
       filterUnits="objectBoundingBox"
       x="0"
       y="0"
       width="1"
       height="1"><feColorMatrix
         type="matrix"
         in="SourceGraphic"
         values="0 0 0 0 1 0 0 0 0 1 0 0 0 0 1 0 0 0 1 0"
         id="feColorMatrix27" /></filter><mask
       id="mask0"><g
         filter="url(#alpha)"
         id="g32"><rect
           x="0"
           y="0"
           width="64"
           height="64"
           style="fill:rgb(0%,0%,0%);fill-opacity:0.6;stroke:none;"
           id="rect30" /></g></mask><clipPath
       id="clip1"><rect
         x="0"
         y="0"
         width="64"
         height="64"
         id="rect35" /></clipPath><g
       id="surface5"
       clip-path="url(#clip1)"><path
         style=" stroke:none;fill-rule:nonzero;fill:rgb(0%,0%,0%);fill-opacity:1;"
         d="M 39.128906 27.425781 L 51.09375 39.871094 C 51.214844 40 51.382812 40.070312 51.5625 40.070312 C 51.738281 40.070312 51.910156 40 52.03125 39.871094 L 55.316406 36.453125 C 55.574219 36.179688 55.574219 35.75 55.316406 35.476562 L 43.351562 23.035156 C 43.226562 22.90625 43.058594 22.832031 42.878906 22.832031 C 42.703125 22.832031 42.535156 22.90625 42.410156 23.035156 L 39.128906 26.449219 C 38.867188 26.722656 38.867188 27.152344 39.128906 27.425781 Z M 39.128906 27.425781 "
         id="path38" /></g><linearGradient
       id="linear5"
       gradientUnits="userSpaceOnUse"
       x1="-264.3354"
       y1="174.1841"
       x2="-236.2965"
       y2="180.7993"
       gradientTransform="matrix(0.430062,0.430062,-0.430062,0.430062,231.0568,62.498)"><stop
         offset="0"
         style="stop-color:rgb(89.803922%,89.803922%,89.803922%);stop-opacity:1;"
         id="stop41" /><stop
         offset="1"
         style="stop-color:rgb(80.784314%,80.784314%,80.784314%);stop-opacity:1;"
         id="stop43" /></linearGradient><mask
       id="mask1"><g
         filter="url(#alpha)"
         id="g48"><rect
           x="0"
           y="0"
           width="64"
           height="64"
           style="fill:rgb(0%,0%,0%);fill-opacity:0.6;stroke:none;"
           id="rect46" /></g></mask><clipPath
       id="clip2"><rect
         x="0"
         y="0"
         width="64"
         height="64"
         id="rect51" /></clipPath><g
       id="surface8"
       clip-path="url(#clip2)"><path
         style=" stroke:none;fill-rule:nonzero;fill:rgb(0%,0%,0%);fill-opacity:1;"
         d="M 32.699219 44.398438 L 37.078125 27.398438 C 37.175781 27.039062 36.96875 26.664062 36.609375 26.554688 L 32.121094 25.304688 C 31.949219 25.257812 31.765625 25.285156 31.613281 25.375 C 31.460938 25.46875 31.351562 25.617188 31.308594 25.792969 L 26.929688 42.792969 C 26.832031 43.15625 27.039062 43.53125 27.398438 43.636719 L 31.886719 44.886719 C 32.058594 44.933594 32.242188 44.90625 32.394531 44.816406 C 32.546875 44.722656 32.65625 44.574219 32.699219 44.398438 Z M 32.699219 44.398438 "
         id="path54" /></g><linearGradient
       id="linear6"
       gradientUnits="userSpaceOnUse"
       x1="-127.7624"
       y1="89.47"
       x2="-99.6985"
       y2="96.0911"
       gradientTransform="matrix(0.157466,-0.587669,0.587669,0.157466,-4.7648,-46.052)"><stop
         offset="0"
         style="stop-color:rgb(89.803922%,89.803922%,89.803922%);stop-opacity:1;"
         id="stop57" /><stop
         offset="1"
         style="stop-color:rgb(80.784314%,80.784314%,80.784314%);stop-opacity:1;"
         id="stop59" /></linearGradient><linearGradient
       id="linear7"
       gradientUnits="userSpaceOnUse"
       x1="-99.1914"
       y1="181.2644"
       x2="-71.1526"
       y2="187.8796"
       gradientTransform="matrix(-0.430062,-0.430062,0.430062,-0.430062,-99.105,83.5466)"><stop
         offset="0"
         style="stop-color:rgb(66.27451%,66.27451%,66.27451%);stop-opacity:1;"
         id="stop62" /><stop
         offset="1"
         style="stop-color:rgb(54.901961%,54.901961%,54.901961%);stop-opacity:1;"
         id="stop64" /></linearGradient><mask
       id="mask2"><g
         filter="url(#alpha)"
         id="g69"><rect
           x="0"
           y="0"
           width="64"
           height="64"
           style="fill:rgb(0%,0%,0%);fill-opacity:0.6;stroke:none;"
           id="rect67" /></g></mask><clipPath
       id="clip3"><rect
         x="0"
         y="0"
         width="64"
         height="64"
         id="rect72" /></clipPath><g
       id="surface11"
       clip-path="url(#clip3)"><path
         style=" stroke:none;fill-rule:nonzero;fill:rgb(0%,0%,0%);fill-opacity:1;"
         d="M 24.875 27.425781 L 12.910156 39.871094 C 12.789062 40 12.617188 40.070312 12.441406 40.070312 C 12.261719 40.070312 12.09375 40 11.972656 39.871094 L 8.6875 36.453125 C 8.425781 36.179688 8.425781 35.75 8.6875 35.476562 L 20.652344 23.03125 C 20.773438 22.902344 20.945312 22.832031 21.121094 22.832031 C 21.300781 22.832031 21.46875 22.902344 21.589844 23.03125 L 24.875 26.449219 C 25.132812 26.722656 25.132812 27.152344 24.875 27.425781 Z M 24.875 27.425781 "
         id="path75" /></g><linearGradient
       id="linear8"
       gradientUnits="userSpaceOnUse"
       x1="-185.2675"
       y1="95.1169"
       x2="-157.2286"
       y2="101.7321"
       gradientTransform="matrix(-0.4302,0.4302,0.4302,0.4302,-99.0416,62.4968)"><stop
         offset="0"
         style="stop-color:rgb(89.803922%,89.803922%,89.803922%);stop-opacity:1;"
         id="stop78" /><stop
         offset="1"
         style="stop-color:rgb(80.784314%,80.784314%,80.784314%);stop-opacity:1;"
         id="stop80" /></linearGradient></defs><g
     id="g22515"
     transform="matrix(0.83504831,0,0,0.83504831,100.92735,44.188933)"><g
       id="g22489"><path
         id="path1914"
         style="opacity:1;fill:#347174;fill-opacity:1;fill-rule:evenodd;stroke-width:3.83825;stroke-linecap:round;stroke-linejoin:round;paint-order:stroke fill markers"
         d="M -89.648438,6.8613284 H -101.97461 A 15.295701,15.295701 0 0 0 -117.27148,-8.4335938 V -20.759766 a 27.622187,27.622187 0 0 1 27.623042,27.6210944 z" /><path
         id="path574"
         style="opacity:1;fill:#00d47c;fill-opacity:1;fill-rule:evenodd;stroke-width:3.83825;stroke-linecap:round;stroke-linejoin:round;paint-order:stroke fill markers"
         d="m -89.648438,-36.054688 h -12.326172 a 15.295701,15.295701 0 0 1 -15.29687,15.294922 v 12.3261722 a 27.622187,27.622187 0 0 0 27.623042,-27.6210942 z" /><path
         id="path1916"
         style="opacity:1;fill:#ff590f;fill-opacity:1;fill-rule:evenodd;stroke-width:3.83825;stroke-linecap:round;stroke-linejoin:round;paint-order:stroke fill markers"
         d="m -75.437463,-36.054688 h 12.32617 a 15.295701,15.295701 0 0 0 15.296872,15.294922 V -8.4335938 A 27.622187,27.622187 0 0 1 -75.437463,-36.054688 Z" /><path
         id="path1918"
         style="opacity:1;fill:#ffbf0c;fill-opacity:1;fill-rule:evenodd;stroke-width:3.83825;stroke-linecap:round;stroke-linejoin:round;paint-order:stroke fill markers"
         d="m -75.437463,6.8613284 h 12.32617 A 15.295701,15.295701 0 0 1 -47.814421,-8.4335938 V -20.759766 A 27.622187,27.622187 0 0 0 -75.437463,6.8613284 Z" /><path
         style="fill:#30d1fe;fill-opacity:1;stroke:none;stroke-width:1px;stroke-linecap:butt;stroke-linejoin:miter;stroke-opacity:1"
         d="M -63.111293,-36.054688 H -77.30961 l -24.665,42.9160164 h 13.79935 z"
         id="path1920" /></g><g
       id="g22501"><path
         id="path22491"
         style="opacity:1;fill:#347174;fill-opacity:1;fill-rule:evenodd;stroke-width:3.83825;stroke-linecap:round;stroke-linejoin:round;paint-order:stroke fill markers"
         d="M -89.648438,6.8613284 H -101.97461 A 15.295701,15.295701 0 0 0 -117.27148,-8.4335938 V -20.759766 a 27.622187,27.622187 0 0 1 27.623042,27.6210944 z" /><path
         id="path22493"
         style="opacity:1;fill:#00d47c;fill-opacity:1;fill-rule:evenodd;stroke-width:3.83825;stroke-linecap:round;stroke-linejoin:round;paint-order:stroke fill markers"
         d="m -89.648438,-36.054688 h -12.326172 a 15.295701,15.295701 0 0 1 -15.29687,15.294922 v 12.3261722 a 27.622187,27.622187 0 0 0 27.623042,-27.6210942 z" /><path
         id="path22495"
         style="opacity:1;fill:#ff590f;fill-opacity:1;fill-rule:evenodd;stroke-width:3.83825;stroke-linecap:round;stroke-linejoin:round;paint-order:stroke fill markers"
         d="m -75.437463,-36.054688 h 12.32617 a 15.295701,15.295701 0 0 0 15.296872,15.294922 V -8.4335938 A 27.622187,27.622187 0 0 1 -75.437463,-36.054688 Z" /><path
         id="path22497"
         style="opacity:1;fill:#ffbf0c;fill-opacity:1;fill-rule:evenodd;stroke-width:3.83825;stroke-linecap:round;stroke-linejoin:round;paint-order:stroke fill markers"
         d="m -75.437463,6.8613284 h 12.32617 A 15.295701,15.295701 0 0 1 -47.814421,-8.4335938 V -20.759766 A 27.622187,27.622187 0 0 0 -75.437463,6.8613284 Z" /><path
         style="fill:#30d1fe;fill-opacity:1;stroke:none;stroke-width:1px;stroke-linecap:butt;stroke-linejoin:miter;stroke-opacity:1"
         d="M -63.111293,-36.054688 H -77.30961 l -24.665,42.9160164 h 13.79935 z"
         id="path22499" /></g></g></svg>
