<?xml version="1.0" encoding="UTF-8" standalone="no"?>
<svg
   width="64"
   height="64"
   version="1.1"
   viewBox="0 0 64 64"
   id="svg24"
   sodipodi:docname="atom.svg"
   xml:space="preserve"
   inkscape:version="1.2.1 (9c6d41e410, 2022-07-14)"
   xmlns:inkscape="http://www.inkscape.org/namespaces/inkscape"
   xmlns:sodipodi="http://sodipodi.sourceforge.net/DTD/sodipodi-0.dtd"
   xmlns:xlink="http://www.w3.org/1999/xlink"
   xmlns="http://www.w3.org/2000/svg"
   xmlns:svg="http://www.w3.org/2000/svg"
   xmlns:rdf="http://www.w3.org/1999/02/22-rdf-syntax-ns#"
   xmlns:cc="http://creativecommons.org/ns#"
   xmlns:dc="http://purl.org/dc/elements/1.1/"><sodipodi:namedview
     id="namedview26"
     pagecolor="#ffffff"
     bordercolor="#999999"
     borderopacity="1"
     inkscape:showpageshadow="0"
     inkscape:pageopacity="0"
     inkscape:pagecheckerboard="0"
     inkscape:deskcolor="#d1d1d1"
     showgrid="false"
     inkscape:zoom="3.421875"
     inkscape:cx="-39.305936"
     inkscape:cy="56.547945"
     inkscape:window-width="1920"
     inkscape:window-height="1005"
     inkscape:window-x="0"
     inkscape:window-y="0"
     inkscape:window-maximized="1"
     inkscape:current-layer="svg24"><inkscape:grid
       type="xygrid"
       id="grid4387" /></sodipodi:namedview><metadata
     id="metadata2"><rdf:RDF><cc:Work
         rdf:about=""><dc:format>image/svg+xml</dc:format><dc:type
           rdf:resource="http://purl.org/dc/dcmitype/StillImage" /><dc:title>Template icons dark</dc:title></cc:Work></rdf:RDF></metadata><title
     id="title4">Template icons dark</title><defs
     id="defs18"><linearGradient
       inkscape:collect="always"
       id="linearGradient17735"><stop
         style="stop-color:#09bf9d;stop-opacity:1"
         offset="0"
         id="stop17731" /><stop
         style="stop-color:#1eb7c1;stop-opacity:1"
         offset="1"
         id="stop17733" /></linearGradient><linearGradient
       inkscape:collect="always"
       id="linearGradient15866"><stop
         style="stop-color:#09bf9d;stop-opacity:1"
         offset="0"
         id="stop15862" /><stop
         style="stop-color:#1eb7c1;stop-opacity:1"
         offset="1"
         id="stop15864" /></linearGradient><linearGradient
       id="c"
       x1="24.535"
       x2="24.535"
       y1="7.0931"
       y2="44.483"
       gradientTransform="matrix(1.4364,0,0,1.4364,85.437929,-4.714)"
       gradientUnits="userSpaceOnUse"><stop
         stop-color="#76dd38"
         offset="0"
         id="stop6" /><stop
         stop-color="#42c440"
         offset=".48433"
         id="stop8" /><stop
         stop-color="#14ab4b"
         offset="1"
         id="stop10" /></linearGradient><linearGradient
       id="linearGradient852"
       x1="30.38"
       x2="35.442"
       y1="20.303"
       y2="52.039"
       gradientUnits="userSpaceOnUse"
       gradientTransform="translate(88.030929)"><stop
         stop-color="#fff"
         offset="0"
         id="stop13" /><stop
         stop-color="#aaf8ad"
         offset="1"
         id="stop15" /></linearGradient><linearGradient
       inkscape:collect="always"
       xlink:href="#linearGradient17735"
       id="linearGradient6944"
       x1="-105.90116"
       y1="3.0683594"
       x2="-105.90116"
       y2="60.204189"
       gradientUnits="userSpaceOnUse" /><linearGradient
       inkscape:collect="always"
       xlink:href="#linearGradient15866"
       id="linearGradient11087"
       x1="-105.90116"
       y1="3.0683594"
       x2="-105.90116"
       y2="60.204189"
       gradientUnits="userSpaceOnUse" /></defs><g
     id="g20570"
     transform="matrix(1.015539,0,0,1.015539,139.54736,-0.12786988)"><path
       id="path4396"
       style="fill:#ffffff;fill-opacity:1;fill-rule:evenodd;stroke:none;stroke-width:3.21624;stroke-linecap:round;stroke-linejoin:round;stroke-dasharray:none;stroke-opacity:1;paint-order:stroke fill markers"
       d="m -98.721421,20.431641 -3.535159,3.535156 7.669924,7.669922 -7.779294,7.777343 3.535154,3.535157 7.779296,-7.779297 3.533204,-3.535156 -3.533204,-3.533204 z" /><path
       id="path6130"
       style="fill:#ffffff;fill-opacity:1;fill-rule:evenodd;stroke:none;stroke-width:3.21624;stroke-linecap:round;stroke-linejoin:round;stroke-dasharray:none;stroke-opacity:1;paint-order:stroke fill markers"
       d="m -112.97337,20.322266 -11.30079,11.378906 3.53516,3.535156 0.008,-0.0078 7.75782,7.720703 3.53515,-3.535157 -7.76953,-7.732421 7.76953,-7.824219 z" /><path
       id="path6128"
       style="fill:url(#linearGradient11087);fill-opacity:1;fill-rule:evenodd;stroke:none;stroke-width:3.21624;stroke-linecap:round;stroke-linejoin:round;stroke-dasharray:none;stroke-opacity:1;paint-order:stroke fill markers"
       d="m -90.346421,3.0683594 c -3.323041,0 -6.645124,1.2720779 -9.191407,3.8183594 l -2.830082,2.828125 3.53516,3.5351562 2.830079,-2.828125 c 3.133882,-3.1338857 8.180568,-3.1338857 11.314453,0 1.358955,1.358956 2.126261,3.07738 2.306641,4.84375 0.235594,2.307053 -0.531712,4.695774 -2.306641,6.470703 l -2.828125,2.830078 3.535156,3.535156 2.828125,-2.830078 c 2.754135,-2.754135 4.006071,-6.417156 3.78125,-10.005859 -0.190886,-3.047027 -1.442822,-6.0404786 -3.78125,-8.3789062 -2.546281,-2.5462815 -5.870321,-3.8183594 -9.193359,-3.8183594 z M -127.82103,35.171875 -130.65111,38 c -3.03026,3.030264 -4.24199,7.158809 -3.66601,11.080078 0.39199,2.668688 1.60371,5.242389 3.66601,7.304688 5.09256,5.092563 13.2922,5.092563 18.38477,0 l 2.82812,-2.830078 -3.53515,-3.535157 -2.82813,2.830078 c -3.13388,3.133885 -8.18057,3.133885 -11.31445,0 -1.08088,-1.080877 -1.77995,-2.390535 -2.11524,-3.769531 -0.63684,-2.61925 0.0622,-5.491914 2.11524,-7.544922 l 2.83008,-2.828125 z" /><path
       id="path4467"
       style="fill:url(#linearGradient6944);fill-opacity:1;stroke:none;stroke-width:1px;stroke-linecap:butt;stroke-linejoin:miter;stroke-opacity:1"
       d="m -121.45775,3.0683594 c -3.32303,0 -6.64708,1.2720804 -9.19336,3.8183594 -2.33842,2.3384252 -3.59036,5.3318822 -3.78125,8.3789062 -0.22482,3.588699 1.02712,7.251727 3.78125,10.005859 l 2.83008,2.830078 3.53516,-3.535156 -2.83008,-2.830078 c -1.77493,-1.774927 -2.54224,-4.163652 -2.30664,-6.470703 0.18038,-1.766368 0.94769,-3.484795 2.30664,-4.84375 3.13388,-3.1338826 8.18057,-3.1338826 11.31445,0 l 2.82813,2.828125 7.56836,7.568359 3.53515,-3.535156 -7.56836,-7.5683592 -2.82812,-2.828125 c -2.54628,-2.546279 -5.86837,-3.8183594 -9.19141,-3.8183594 z m 37.476563,32.1035156 -3.535156,3.535156 2.828125,2.828125 c 1.800082,1.800082 2.560796,4.231096 2.292969,6.56836 -0.198452,1.731837 -0.959166,3.412291 -2.292969,4.746093 -3.133885,3.133885 -8.180571,3.133885 -11.314453,0 l -2.830079,-2.830078 -7.36328,-7.36914 -3.52734,3.542968 7.35546,7.361329 2.830082,2.830078 c 5.092563,5.092563 13.292203,5.092563 18.384766,0 2.313431,-2.313431 3.563834,-5.267994 3.775391,-8.28125 C -77.123527,44.48368 -78.37393,40.779132 -81.153062,38 Z" /></g><path
     id="path6144"
     style="fill:#37be43;fill-opacity:1;fill-rule:evenodd;stroke:none;stroke-width:3.21624;stroke-linecap:round;stroke-linejoin:round;stroke-dasharray:none;stroke-opacity:1;paint-order:stroke fill markers"
     d="m -212.18657,28.101562 -11.31445,11.3125 3.53516,3.535157 11.3125,-11.314453 z" /><path
     id="path6146"
     style="fill:#37be43;fill-opacity:1;fill-rule:evenodd;stroke:none;stroke-width:3.21624;stroke-linecap:round;stroke-linejoin:round;stroke-dasharray:none;stroke-opacity:1;paint-order:stroke fill markers"
     d="m -234.10844,20.322266 -11.30078,11.378906 3.53515,3.535156 11.30079,-11.378906 z" /><path
     id="path6148"
     style="fill:#37be43;fill-opacity:1;fill-rule:evenodd;stroke:none;stroke-width:3.21624;stroke-linecap:round;stroke-linejoin:round;stroke-dasharray:none;stroke-opacity:1;paint-order:stroke fill markers"
     d="m -255.45219,49.080078 c 0.39199,2.668691 1.60371,5.242387 3.66602,7.304688 5.09256,5.092568 13.29219,5.092568 18.38476,0 l 2.82813,-2.830078 -3.53516,-3.535157 -2.82813,2.830078 c -3.13388,3.133888 -8.18056,3.133888 -11.31445,0 -1.08088,-1.080878 -1.77994,-2.390534 -2.11523,-3.769531 z" /><path
     id="path6150"
     style="fill:#37be43;fill-opacity:1;fill-rule:evenodd;stroke:none;stroke-width:3.21624;stroke-linecap:round;stroke-linejoin:round;stroke-dasharray:none;stroke-opacity:1;paint-order:stroke fill markers"
     d="m -255.45219,49.080078 h 5.08594 c -0.63685,-2.619253 0.0622,-5.491912 2.11523,-7.544922 l 2.83008,-2.828125 -3.53516,-3.535156 L -251.78617,38 c -3.03027,3.030267 -4.242,7.158805 -3.66602,11.080078 z" /><path
     id="path6152"
     style="fill:#37be43;fill-opacity:1;fill-rule:evenodd;stroke:none;stroke-width:3.21624;stroke-linecap:round;stroke-linejoin:round;stroke-dasharray:none;stroke-opacity:1;paint-order:stroke fill markers"
     d="m -198.50688,15.265625 h -5.00976 c 0.23559,2.307055 -0.53171,4.695772 -2.30664,6.470703 l -2.82813,2.830078 3.53516,3.535156 2.82812,-2.830078 c 2.75414,-2.754138 4.00607,-6.417152 3.78125,-10.005859 z" /><path
     id="path6154"
     style="fill:#37be43;fill-opacity:1;fill-rule:evenodd;stroke:none;stroke-width:3.21624;stroke-linecap:round;stroke-linejoin:round;stroke-dasharray:none;stroke-opacity:1;paint-order:stroke fill markers"
     d="m -211.48149,3.0683594 c -3.32304,0 -6.64512,1.2720754 -9.1914,3.8183594 l -2.83008,2.828125 3.53515,3.5351562 2.83008,-2.828125 c 3.13389,-3.1338888 8.18057,-3.1338888 11.31446,0 1.35895,1.358957 2.12626,3.077378 2.30664,4.84375 h 5.00976 c -0.19088,-3.04703 -1.44282,-6.0404762 -3.78125,-8.3789062 -2.54628,-2.546284 -5.87031,-3.8183594 -9.19336,-3.8183594 z" /><path
     id="path6156"
     style="color:#000000;fill:#37be43;fill-rule:evenodd;stroke-width:10;stroke-linecap:round;stroke-linejoin:round;paint-order:stroke fill markers"
     d="m -242.59282,3.0683594 c -3.32304,0 -6.64707,1.2720729 -9.19335,3.8183594 -5.09258,5.0925732 -5.09258,13.2921922 0,18.3847652 l 2.83007,2.830078 3.53516,-3.535156 -2.83008,-2.830078 c -3.13389,-3.133891 -3.13389,-8.180562 0,-11.314453 3.13389,-3.1338919 8.18056,-3.1338919 11.31445,0 l 2.82813,2.828125 3.53516,-3.5351562 -2.82813,-2.828125 c -2.54629,-2.5462865 -5.86836,-3.8183594 -9.19141,-3.8183594 z m 22.7354,17.3623446 -3.53516,3.535157 11.20504,11.205037 3.53515,-3.535156 z m -22.01713,7.7346 -3.53516,3.535156 11.30127,11.248759 3.53516,-3.535157 z m 36.7583,7.006571 -3.53516,3.535156 2.82813,2.828125 c 3.13389,3.133891 3.13389,8.180562 0,11.314453 -3.13389,3.133891 -8.18057,3.133891 -11.31446,0 l -2.83008,-2.830078 -3.53515,3.535157 2.83008,2.830078 c 5.09257,5.092573 13.29219,5.092573 18.38476,0 5.09258,-5.092573 5.09258,-13.292193 0,-18.384766 z"
     sodipodi:nodetypes="sssccsssccssccccccccccccsssccsssc" /><path
     style="fill:#ffffff;fill-opacity:1;stroke:none;stroke-width:1px;stroke-linecap:butt;stroke-linejoin:miter;stroke-opacity:1"
     d="m -234.10844,13.25 7.56836,7.568359 3.53516,-3.535156 -7.56836,-7.5683591 z"
     id="path6158"
     sodipodi:nodetypes="ccccc" /><path
     style="fill:#37be43;fill-opacity:1;stroke:none;stroke-width:1px;stroke-linecap:butt;stroke-linejoin:miter;stroke-opacity:1"
     d="m -223.50297,53.554688 -7.35554,-7.360533 3.5269,-3.543369 7.36378,7.368762 z"
     id="path6160"
     sodipodi:nodetypes="ccccc" /><path
     id="path6162"
     style="color:#000000;fill:#37be43;fill-rule:evenodd;stroke-width:10;stroke-linecap:round;stroke-linejoin:round;paint-order:stroke fill markers"
     d="m -241.87407,28.166016 -3.53515,3.535156 11.30078,11.248047 3.53516,-3.535157 z" /><path
     id="path6164"
     style="color:#000000;fill:#37be43;fill-rule:evenodd;stroke-width:10;stroke-linecap:round;stroke-linejoin:round;paint-order:stroke fill markers"
     d="m -203.53031,48.103516 c -0.19846,1.731839 -0.95917,3.412289 -2.29297,4.746093 -3.13389,3.133888 -8.18057,3.133888 -11.31446,0 l -2.83008,-2.830078 -3.53515,3.535157 2.83008,2.830078 c 5.09256,5.092568 13.29219,5.092568 18.38476,0 2.31344,-2.313433 3.56384,-5.267991 3.77539,-8.28125 z" /><path
     id="path6166"
     style="color:#000000;fill:#37be43;fill-rule:evenodd;stroke-width:10;stroke-linecap:round;stroke-linejoin:round;paint-order:stroke fill markers"
     d="m -203.53031,48.103516 h 5.01757 C -198.25859,44.483677 -199.50899,40.779135 -202.28813,38 l -2.82812,-2.828125 -3.53516,3.535156 2.82813,2.828125 c 1.80008,1.800084 2.56079,4.231094 2.29297,6.56836 z" /><path
     id="path6168"
     style="color:#000000;fill:#37be43;fill-rule:evenodd;stroke-width:10;stroke-linecap:round;stroke-linejoin:round;paint-order:stroke fill markers"
     d="m -250.55766,15.265625 h -5.00976 c -0.22483,3.588707 1.02711,7.251721 3.78125,10.005859 l 2.83007,2.830078 3.53516,-3.535156 -2.83008,-2.830078 c -1.77493,-1.774931 -2.54223,-4.163648 -2.30664,-6.470703 z" /><path
     id="path6170"
     style="color:#000000;fill:#37be43;fill-rule:evenodd;stroke-width:10;stroke-linecap:round;stroke-linejoin:round;paint-order:stroke fill markers"
     d="m -242.59282,3.0683594 c -3.32304,0 -6.64707,1.2720754 -9.19335,3.8183594 -2.33843,2.33843 -3.59037,5.3318762 -3.78125,8.3789062 h 5.00976 c 0.18038,-1.766372 0.94769,-3.484793 2.30664,-4.84375 3.13389,-3.1338888 8.18057,-3.1338888 11.31445,0 l 2.82813,2.828125 3.53516,-3.5351562 -2.82813,-2.828125 c -2.54628,-2.546284 -5.86836,-3.8183594 -9.19141,-3.8183594 z" /></svg>
