<?xml version="1.0" encoding="UTF-8" standalone="no"?>
<svg
   width="64"
   height="64"
   version="1"
   id="svg27"
   sodipodi:docname="audacity.svg"
   xml:space="preserve"
   inkscape:version="1.2.1 (9c6d41e410, 2022-07-14)"
   xmlns:inkscape="http://www.inkscape.org/namespaces/inkscape"
   xmlns:sodipodi="http://sodipodi.sourceforge.net/DTD/sodipodi-0.dtd"
   xmlns:xlink="http://www.w3.org/1999/xlink"
   xmlns="http://www.w3.org/2000/svg"
   xmlns:svg="http://www.w3.org/2000/svg"
   xmlns:rdf="http://www.w3.org/1999/02/22-rdf-syntax-ns#"
   xmlns:cc="http://creativecommons.org/ns#"
   xmlns:dc="http://purl.org/dc/elements/1.1/"><sodipodi:namedview
     id="namedview29"
     pagecolor="#ffffff"
     bordercolor="#999999"
     borderopacity="1"
     inkscape:showpageshadow="0"
     inkscape:pageopacity="0"
     inkscape:pagecheckerboard="0"
     inkscape:deskcolor="#d1d1d1"
     showgrid="true"
     inkscape:zoom="2.8284271"
     inkscape:cx="-47.199378"
     inkscape:cy="18.031223"
     inkscape:window-width="1920"
     inkscape:window-height="936"
     inkscape:window-x="0"
     inkscape:window-y="40"
     inkscape:window-maximized="1"
     inkscape:current-layer="svg27"><inkscape:grid
       type="xygrid"
       id="grid324" /></sodipodi:namedview><metadata
     id="metadata2"><rdf:RDF><cc:Work
         rdf:about=""><dc:format>image/svg+xml</dc:format><dc:type
           rdf:resource="http://purl.org/dc/dcmitype/StillImage" /></cc:Work></rdf:RDF></metadata><defs
     id="defs9"><linearGradient
       inkscape:collect="always"
       id="linearGradient81658"><stop
         style="stop-color:#e15688;stop-opacity:1"
         offset="0"
         id="stop81654" /><stop
         style="stop-color:#ff9655;stop-opacity:1"
         offset="1"
         id="stop81656" /></linearGradient><linearGradient
       inkscape:collect="always"
       id="linearGradient9611"><stop
         style="stop-color:#dbe98e;stop-opacity:1"
         offset="0"
         id="stop9607" /><stop
         style="stop-color:#be466e;stop-opacity:1"
         offset="1"
         id="stop9609" /></linearGradient><linearGradient
       id="linearGradient877"
       x1="-39.988"
       x2="-39.988"
       y1="-6.0569"
       y2="9.5749"
       gradientTransform="matrix(3.4644 0 0 3.4644 173.03 26.33)"
       gradientUnits="userSpaceOnUse"><stop
         stop-color="#ff9655"
         offset="0"
         id="stop4" /><stop
         stop-color="#a85fb2"
         offset="1"
         id="stop6" /></linearGradient><linearGradient
       inkscape:collect="always"
       xlink:href="#linearGradient81658"
       id="linearGradient1169"
       x1="100"
       y1="5.2675056"
       x2="100"
       y2="34.89901"
       gradientUnits="userSpaceOnUse" /><linearGradient
       inkscape:collect="always"
       xlink:href="#linearGradient81658"
       id="linearGradient9613"
       x1="77.5"
       y1="45"
       x2="77.5"
       y2="59.727077"
       gradientUnits="userSpaceOnUse" /><linearGradient
       inkscape:collect="always"
       xlink:href="#linearGradient81658"
       id="linearGradient28251"
       x1="122.39665"
       y1="45.294861"
       x2="122.39665"
       y2="60.078266"
       gradientUnits="userSpaceOnUse" /><linearGradient
       inkscape:collect="always"
       xlink:href="#linearGradient9611"
       id="linearGradient56698"
       gradientUnits="userSpaceOnUse"
       x1="77.5"
       y1="45"
       x2="77.5"
       y2="59.727077" /><linearGradient
       inkscape:collect="always"
       xlink:href="#linearGradient9611"
       id="linearGradient56700"
       gradientUnits="userSpaceOnUse"
       x1="122.39665"
       y1="45.294861"
       x2="122.39665"
       y2="60.078266" /></defs><path
     style="opacity:0.8;fill:none;fill-opacity:1;fill-rule:evenodd;stroke:#000000;stroke-width:15;stroke-linecap:round;stroke-linejoin:round;stroke-dasharray:none;stroke-opacity:1;paint-order:stroke fill markers"
     id="path1093"
     sodipodi:type="arc"
     sodipodi:cx="100"
     sodipodi:cy="-42.5"
     sodipodi:rx="22.5"
     sodipodi:ry="22.5"
     sodipodi:start="3.1415927"
     sodipodi:end="0"
     sodipodi:open="true"
     sodipodi:arc-type="arc"
     d="M 77.5,-42.5 A 22.5,22.5 0 0 1 100,-65 a 22.5,22.5 0 0 1 22.5,22.5" /><circle
     style="opacity:0.8;fill:#ffffff;fill-opacity:1;fill-rule:evenodd;stroke:none;stroke-width:14.7011;stroke-linecap:round;stroke-linejoin:round;stroke-dasharray:none;stroke-opacity:1;paint-order:stroke fill markers"
     id="circle1095"
     cx="77.5"
     cy="-22.5"
     r="7.5" /><circle
     style="opacity:0.8;fill:#ffffff;fill-opacity:1;fill-rule:evenodd;stroke:none;stroke-width:14.7011;stroke-linecap:round;stroke-linejoin:round;stroke-dasharray:none;stroke-opacity:1;paint-order:stroke fill markers"
     id="circle1097"
     cx="122.5"
     cy="-22.5"
     r="7.5" /><g
     id="g56696"
     transform="matrix(0.91666667,0,0,0.91666667,2.6666666,2.6666666)"><g
       id="g28274"
       transform="translate(-68,0.75)"><path
         style="color:#000000;opacity:1;fill:url(#linearGradient1169);fill-opacity:1;fill-rule:evenodd;stroke-linecap:round;stroke-linejoin:round;paint-order:stroke fill markers"
         d="m 100,2.5 c -16.479691,0 -30,13.520309 -30,30 A 7.5,7.5 0 0 0 77.5,40 7.5,7.5 0 0 0 85,32.5 c 0,-8.373098 6.626902,-15 15,-15 8.3731,0 15,6.626902 15,15 a 7.5,7.5 0 0 0 7.5,7.5 7.5,7.5 0 0 0 7.5,-7.5 c 0,-16.479691 -13.52031,-30 -30,-30 z"
         id="path432" /><circle
         style="opacity:1;fill:url(#linearGradient56698);fill-opacity:1;fill-rule:evenodd;stroke:none;stroke-width:14.7011;stroke-linecap:round;stroke-linejoin:round;stroke-dasharray:none;stroke-opacity:1;paint-order:stroke fill markers"
         id="path1087"
         cx="77.5"
         cy="52.5"
         r="7.5" /><circle
         style="opacity:1;fill:url(#linearGradient56700);fill-opacity:1;fill-rule:evenodd;stroke:none;stroke-width:14.7011;stroke-linecap:round;stroke-linejoin:round;stroke-dasharray:none;stroke-opacity:1;paint-order:stroke fill markers"
         id="circle1089"
         cx="122.5"
         cy="52.5"
         r="7.5" /></g><g
       id="g54477"
       style="opacity:0.8"><path
         id="path54463"
         style="fill:#ffffff;fill-opacity:1;stroke-width:4.17547;-inkscape-stroke:none"
         d="m 61.664062,28.794922 c -0.681934,0.791958 -1.377506,1.734457 -2.195312,2.849609 -3.129871,4.266176 -6.386902,6.484644 -10.230469,6.939453 a 7.5,7.5 0 0 0 0.544922,0.419922 C 53.571453,38.404317 56.817968,36.094029 59.867188,31.9375 60.56557,30.985171 61.173095,30.166198 61.75,29.464844 61.72146,29.24157 61.69755,29.016686 61.66406,28.794922 Z" /><path
         id="path54455"
         style="fill:#ffffff;fill-opacity:1;stroke-width:4.17547;-inkscape-stroke:none"
         d="m 44.357422,24.683594 c 0.0331,0.04804 0.07097,0.09217 0.103516,0.140625 0.05912,0.08802 0.106778,0.184072 0.164062,0.273437 2.520989,-1.483281 5.227872,-2.308262 7.894531,-2.621094 0.889507,-0.104358 1.774087,-0.15217 2.644531,-0.148437 0.320997,0.0014 0.638341,0.0163 0.955079,0.03125 -2.785549,2.033308 -4.961694,5.096209 -6.683594,8.132813 V 30.5 c -0.671947,1.269821 -1.462979,2.40311 -2.347656,3.412109 a 7.5,7.5 0 0 0 0.08398,0.634766 c 1.024703,-1.11067 1.935999,-2.374108 2.697266,-3.810547 1.810936,-3.193121 4.111676,-6.367874 7.046875,-8.324219 1.123434,0.09334 2.205385,0.275468 3.238281,0.517579 -0.07113,-0.192138 -0.151614,-0.380011 -0.226563,-0.570313 -0.747661,-0.163056 -1.519485,-0.294735 -2.3125,-0.382813 0.575477,-0.333112 1.176669,-0.613746 1.798828,-0.845703 -0.06695,-0.149984 -0.135745,-0.298567 -0.205078,-0.447265 -0.852527,0.318997 -1.662741,0.726898 -2.425781,1.220703 -1.401502,-0.104053 -2.852176,-0.08826 -4.320312,0.08398 -2.731891,0.320508 -5.514859,1.17002 -8.105469,2.695313 z" /><path
         id="path54447"
         style="fill:#ffffff;fill-opacity:1;stroke-width:4.17547;-inkscape-stroke:none"
         d="m 3.9628906,22.636719 c -0.042814,0.111985 -0.091313,0.221374 -0.1328125,0.333984 -0.019258,0.05226 -0.035714,0.105812 -0.054687,0.158203 0.5640525,0.0072 1.1288323,0.05036 1.6894532,0.154297 2.383029,0.441752 4.6938017,1.808578 6.5644537,4.771485 0.503342,0.796862 1.025139,1.658777 1.580078,2.542968 -1.900586,0.03924 -3.7964388,0.273262 -5.5996099,0.632813 -1.4490846,-3.240884 -3.0097365,-5.41492 -4.6523437,-6.876953 -8.026e-4,0.0026 -0.00115,0.0053 -0.00195,0.0078 -0.05108,0.163047 -0.092286,0.32994 -0.140625,0.494141 1.5028064,1.393009 2.9414837,3.448254 4.3066406,6.478515 C 5.507637,31.763797 3.6314873,32.33851 2.0078161,32.947254 2.006788,33.048596 2,33.148443 2,33.25 a 7.5,7.5 0 0 0 0.029297,0.222656 c 1.6657527,-0.631564 3.6129743,-1.232318 5.7089843,-1.671875 1.5517324,3.52245 3.4191687,6.120973 5.5488277,7.917969 a 7.5,7.5 0 0 0 0.388672,-0.298828 c -2.075877,-1.723665 -3.9033163,-4.246235 -5.4453121,-7.716797 1.8369301,-0.359309 3.7668461,-0.594346 5.6894531,-0.615234 0.836854,1.311411 1.763545,2.659576 2.847656,3.93164 a 7.5,7.5 0 0 0 0.08789,-0.669922 c -0.866469,-1.055842 -1.6361,-2.161827 -2.341797,-3.253906 0.879106,0.01075 1.753948,0.06875 2.615234,0.177735 0.01399,-0.109377 0.02474,-0.219548 0.04102,-0.328126 0.0084,-0.0558 0.02033,-0.110432 0.0293,-0.166015 -0.99145,-0.12834 -1.997608,-0.188191 -3.00586,-0.189453 C 13.578479,29.61936 13.00226,28.666874 12.445312,27.785156 10.512353,24.723597 8.0610407,23.259904 5.5527344,22.794922 5.0228003,22.696683 4.4924147,22.652697 3.9628906,22.636719 Z" /></g><g
       id="g54441"
       transform="translate(-68,0.75)"><circle
         style="opacity:1;fill:url(#linearGradient9613);fill-opacity:1.0;fill-rule:evenodd;stroke:none;stroke-width:14.7011;stroke-linecap:round;stroke-linejoin:round;stroke-dasharray:none;stroke-opacity:1;paint-order:stroke fill markers"
         id="circle54437"
         cx="77.5"
         cy="52.5"
         r="7.5" /><circle
         style="opacity:1;fill:url(#linearGradient28251);fill-opacity:1.0;fill-rule:evenodd;stroke:none;stroke-width:14.7011;stroke-linecap:round;stroke-linejoin:round;stroke-dasharray:none;stroke-opacity:1;paint-order:stroke fill markers"
         id="circle54439"
         cx="122.5"
         cy="52.5"
         r="7.5" /></g></g></svg>
