<?xml version="1.0" encoding="UTF-8"?>
<!-- Created with Inkscape (http://www.inkscape.org/) -->
<svg width="64" height="64" version="1.1" xmlns="http://www.w3.org/2000/svg">
 <defs>
  <linearGradient id="linearGradient1885" x1="-129.38" x2="-129.38" y1=".67578" y2="49.598" gradientTransform="matrix(1.0286,0,0,1.0286,160.55,5.87)" gradientUnits="userSpaceOnUse">
   <stop stop-color="#05adea" offset="0"/>
   <stop stop-color="#59ff4d" offset="1"/>
  </linearGradient>
 </defs>
 <path d="m27.47 4a4.6287 4.6287 0 0 0-4.6287 4.6287 4.6287 4.6287 0 0 0 0.016 0.22903l-9.1067 9.1067 4.3635 4.3635 9.4462 9.4442 4.3635-4.3635-9.4442-9.4462 4.7231-4.7231a4.6287 4.6287 0 0 0 0.2672 0.0181 4.6287 4.6287 0 0 0 4.6287-4.6287 4.6287 4.6287 0 0 0-4.6287-4.6287zm18.117 0a4.6287 4.6287 0 0 0-4.6287 4.6287 4.6287 4.6287 0 0 0 0.016 0.22903l-4.7432 4.7412-4.3635 4.3655 13.81 13.808 4.2952 4.2952a4.6287 4.6287 0 0 0-0.0201 0.2652 4.6287 4.6287 0 0 0 4.6287 4.6287 4.6287 4.6287 0 0 0 4.6287-4.6287 4.6287 4.6287 0 0 0-4.6287-4.6287 4.6287 4.6287 0 0 0-0.22904 0.016l-9.1047-9.1067-4.6508-4.6508 4.7231-4.7231a4.6287 4.6287 0 0 0 0.2672 0.0181 4.6287 4.6287 0 0 0 4.6287-4.6287 4.6287 4.6287 0 0 0-4.6287-4.6287zm-18.117 2.5715a2.0572 2.0572 0 0 1 2.0572 2.0572 2.0572 2.0572 0 0 1-2.0572 2.0572 2.0572 2.0572 0 0 1-2.0572-2.0572 2.0572 2.0572 0 0 1 2.0572-2.0572zm18.117 0a2.0572 2.0572 0 0 1 2.0572 2.0572 2.0572 2.0572 0 0 1-2.0572 2.0572 2.0572 2.0572 0 0 1-2.0572-2.0572 2.0572 2.0572 0 0 1 2.0572-2.0572zm-36.156 16.468a4.6287 4.6287 0 0 0-4.6287 4.6287 4.6287 4.6287 0 0 0 4.6287 4.6287 4.6287 4.6287 0 0 0 0.22902-0.0161l4.3113 4.3113 4.7954 4.7934 4.6508 4.6508-4.7171 4.7171a4.6287 4.6287 0 0 0-0.27523-0.0103 4.6287 4.6287 0 0 0-4.6287 4.6287 4.6287 4.6287 0 0 0 4.6287 4.6287 4.6287 4.6287 0 0 0 4.6287-4.6287 4.6287 4.6287 0 0 0-4e-3 -0.23907l4.7311-4.7331 4.3635-4.3635-13.808-13.808-4.2952-4.2932a4.6287 4.6287 0 0 0 0.0181-0.26719 4.6287 4.6287 0 0 0-4.6287-4.6287zm0 2.5715a2.0572 2.0572 0 0 1 2.0572 2.0572 2.0572 2.0572 0 0 1-2.0572 2.0572 2.0572 2.0572 0 0 1-2.0572-2.0572 2.0572 2.0572 0 0 1 2.0572-2.0572zm27.214 6.6176-4.3655 4.3635 9.4462 9.4442-4.7171 4.7171a4.6287 4.6287 0 0 0-0.27522-0.0103 4.6287 4.6287 0 0 0-4.6287 4.6287 4.6287 4.6287 0 0 0 4.6287 4.6287 4.6287 4.6287 0 0 0 4.6287-4.6287 4.6287 4.6287 0 0 0-4e-3 -0.23907l4.7311-4.7331 4.3635-4.3635-4.3635-4.3635zm17.936 2.0472a2.0572 2.0572 0 0 1 2.0572 2.0572 2.0572 2.0572 0 0 1-2.0572 2.0572 2.0572 2.0572 0 0 1-2.0572-2.0572 2.0572 2.0572 0 0 1 2.0572-2.0572zm-36.156 19.039a2.0572 2.0572 0 0 1 2.0572 2.0572 2.0572 2.0572 0 0 1-2.0572 2.0572 2.0572 2.0572 0 0 1-2.0572-2.0572 2.0572 2.0572 0 0 1 2.0572-2.0572zm18.308 0a2.0572 2.0572 0 0 1 2.0572 2.0572 2.0572 2.0572 0 0 1-2.0572 2.0572 2.0572 2.0572 0 0 1-2.0572-2.0572 2.0572 2.0572 0 0 1 2.0572-2.0572z" fill="url(#linearGradient1885)" fill-rule="evenodd" style="paint-order:stroke fill markers"/>
</svg>
