<?xml version="1.0" encoding="UTF-8"?>
<svg id="App-Store" width="64" height="64" enable-background="new 0 0 1024 1024" image-rendering="optimizeSpeed" version="1.1" viewBox="0 0 64 64" xmlns="http://www.w3.org/2000/svg">
 <defs>
  <linearGradient id="linearGradient1302" x1="32.424" x2="32.424" y1="6.5793" y2="57.801" gradientTransform="matrix(1.0714 0 0 1.0714 -2.2857 -2.2857)" gradientUnits="userSpaceOnUse">
   <stop stop-color="#1f79dd" offset="0"/>
   <stop stop-color="#46b9ff" offset="1"/>
  </linearGradient>
 </defs>
 <path d="m32 2c-11.871 0-21.428 9.5563-21.428 21.428v17.145c0 11.871 9.5563 21.428 21.428 21.428s21.428-9.5563 21.428-21.428v-17.145c0-11.871-9.5563-21.428-21.428-21.428zm-1.6777 8.5c0.14882-1.89e-4 0.29611 0.01065 0.44336 0.03125 0.589 0.082396 1.1551 0.33109 1.623 0.73242l11.668 10.004v0.001953c0.70664 0.60608 1.1121 1.4946 1.1055 2.4258-0.006719 0.93106-0.42539 1.8142-1.1406 2.4102l-7.0781 5.8965 7.0781 5.8984c0.71527 0.596 1.1343 1.4806 1.1406 2.4121 0.006377 0.93096-0.40053 1.8197-1.1074 2.4258l-11.666 10c-0.93612 0.80226-2.2646 0.98793-3.3848 0.47266-1.1201-0.51523-1.8418-1.6438-1.8418-2.877v-10.184l-3.1406 2.6152c-1.33 1.108-3.3509 0.92379-4.459-0.40625h-0.001953c-1.1079-1.3301-0.92376-3.351 0.40625-4.459l7.084-5.9004-7.084-5.9004c-1.3299-1.1082-1.5125-3.131-0.4043-4.4609 1.1082-1.3299 3.1291-1.5125 4.459-0.4043l3.1406 2.6172v-10.186c0-1.2332 0.72329-2.3618 1.8438-2.877 0.42012-0.19313 0.86993-0.28849 1.3164-0.28906zm3.1719 10.055v6.0781l3.5957-2.9941-3.5957-3.084zm0 16.816v6.0762l3.5957-3.0801-3.5957-2.9961z" fill="url(#linearGradient1302)"/>
</svg>
