<?xml version="1.0" encoding="UTF-8"?>
<svg width="64" height="64" version="1.1" viewBox="0 0 16.933 16.933" xmlns="http://www.w3.org/2000/svg" xmlns:cc="http://creativecommons.org/ns#" xmlns:dc="http://purl.org/dc/elements/1.1/" xmlns:rdf="http://www.w3.org/1999/02/22-rdf-syntax-ns#">
 <metadata>
  <rdf:RDF>
   <cc:Work rdf:about="">
    <dc:format>image/svg+xml</dc:format>
    <dc:type rdf:resource="http://purl.org/dc/dcmitype/StillImage"/>
   </cc:Work>
  </rdf:RDF>
 </metadata>
 <defs>
  <linearGradient id="linearGradient5683" x1="22.225" x2="34.395" y1="5.1593" y2="5.1593" gradientUnits="userSpaceOnUse">
   <stop stop-color="#3ba2e5" offset="0"/>
   <stop stop-color="#03decd" offset="1"/>
  </linearGradient>
  <linearGradient id="linearGradient13727" x1="22.225" x2="34.395" y1="12.435" y2="12.435" gradientUnits="userSpaceOnUse">
   <stop stop-color="#07decd" offset="0"/>
   <stop stop-color="#2aa6f2" offset="1"/>
  </linearGradient>
  <linearGradient id="linearGradient22356" x1="23.811" x2="25.664" y1="9.5259" y2="7.6728" gradientUnits="userSpaceOnUse">
   <stop stop-color="#0bd8d1" offset="0"/>
   <stop stop-color="#0aa8a7" offset="1"/>
  </linearGradient>
  <linearGradient id="linearGradient65902" x1="31.008" x2="32.847" y1="7.6949" y2="9.5346" gradientUnits="userSpaceOnUse">
   <stop stop-color="#2273ba" offset="0"/>
   <stop stop-color="#26acee" offset="1"/>
  </linearGradient>
 </defs>
 <g fill="#5e4aa6" stroke-width=".26458">
  <circle cx="-330.38" cy="-328.37" r="0"/>
  <circle cx="-312.55" cy="-328.38" r="0"/>
  <circle cx="-295.13" cy="-341.25" r="0"/>
 </g>
 <g transform="matrix(1.2174 0 0 1.2174 -25.996 -2.1623)">
  <path d="m32.014 10.054h2.3812v3.4328c0 0.73665-0.59296 1.3296-1.3296 1.3296h-9.5114c-0.73665 0-1.3296-0.59296-1.3296-1.3296v-3.4328h2.3812v1.572c0 0.4484 0.36084 0.80924 0.80924 0.80924h5.7897c0.4484 0 0.80924-0.36084 0.80924-0.80924z" fill="url(#linearGradient13727)" fill-rule="evenodd" stroke-linecap="round" stroke-linejoin="round" stroke-width=".57414" style="paint-order:stroke fill markers"/>
  <path d="m34.395 7.6728h-2.3812v-1.8365c0-0.4484-0.36084-0.80924-0.80924-0.80924h-5.7897c-0.44839 0-0.80924 0.36084-0.80924 0.80924v1.8365h-2.3812v-3.6974c0-0.73665 0.59296-1.3296 1.3296-1.3296h9.5114c0.73665 0 1.3296 0.59296 1.3296 1.3296z" fill="url(#linearGradient5683)" fill-rule="evenodd" stroke-linecap="round" stroke-linejoin="round" stroke-width=".57414" style="paint-order:stroke fill markers"/>
  <path d="m29.897 7.6728 2.1166 2.3812h2.3812l-2.3812-2.3812z" fill="url(#linearGradient65902)"/>
  <path d="m26.722 7.6728-2.1166 2.3812h-2.3812l2.3812-2.3812z" fill="url(#linearGradient22356)"/>
  <path d="m32.014 10.054h2.3812v3.4328c0 0.73665-0.59296 1.3296-1.3296 1.3296h-9.5114c-0.73665 0-1.3296-0.59296-1.3296-1.3296v-3.4328h2.3812v1.572c0 0.4484 0.36084 0.80924 0.80924 0.80924h5.7897c0.4484 0 0.80924-0.36084 0.80924-0.80924z" fill="url(#linearGradient13727)" fill-rule="evenodd" stroke-linecap="round" stroke-linejoin="round" stroke-width=".57414" style="paint-order:stroke fill markers"/>
  <path d="m34.395 7.6728h-2.3812v-1.8365c0-0.4484-0.36084-0.80924-0.80924-0.80924h-5.7897c-0.44839 0-0.80924 0.36084-0.80924 0.80924v1.8365h-2.3812v-3.6974c0-0.73665 0.59296-1.3296 1.3296-1.3296h9.5114c0.73665 0 1.3296 0.59296 1.3296 1.3296z" fill="url(#linearGradient5683)" fill-rule="evenodd" stroke-linecap="round" stroke-linejoin="round" stroke-width=".57414" style="paint-order:stroke fill markers"/>
  <path d="m29.897 7.6728 2.1166 2.3812h2.3812l-2.3812-2.3812z" fill="url(#linearGradient65902)"/>
  <path d="m26.722 7.6728-2.1166 2.3812h-2.3812l2.3812-2.3812z" fill="url(#linearGradient22356)"/>
 </g>
</svg>
