<?xml version="1.0" encoding="UTF-8"?>
<!-- Created with Inkscape (http://www.inkscape.org/) -->
<svg width="64" height="64" version="1.1" viewBox="0 0 16.933 16.933" xmlns="http://www.w3.org/2000/svg" xmlns:xlink="http://www.w3.org/1999/xlink">
 <defs>
  <linearGradient id="linearGradient2152" x1="122.19" x2="135.87" y1="43.248" y2="21.378" gradientUnits="userSpaceOnUse">
   <stop stop-color="#ff6341" offset="0"/>
   <stop stop-color="#fff900" offset="1"/>
  </linearGradient>
  <linearGradient id="linearGradient6062" x1="35.52" x2="38.997" y1="4.9654" y2="3.4294" gradientUnits="userSpaceOnUse">
   <stop stop-color="#fff801" offset="0"/>
   <stop stop-color="#fff900" offset="1"/>
  </linearGradient>
  <linearGradient id="linearGradient16854" x1="121.2" x2="150.05" y1="42.982" y2="61.215" gradientUnits="userSpaceOnUse">
   <stop stop-color="#ff6540" offset="0"/>
   <stop stop-color="#ff00f0" offset=".44554"/>
   <stop stop-color="#5f26ff" offset="1"/>
  </linearGradient>
  <linearGradient id="linearGradient28585" x1="149.86" x2="142.13" y1="60.795" y2="35.032" gradientUnits="userSpaceOnUse">
   <stop stop-color="#5f26ff" offset="0"/>
   <stop stop-color="#00ddbf" offset="1"/>
  </linearGradient>
  <linearGradient id="linearGradient34904" x1="36.464" x2="37.686" y1="8.3848" y2="8.3848" gradientUnits="userSpaceOnUse">
   <stop stop-color="#00d383" offset="0"/>
   <stop stop-color="#00dec3" offset="1"/>
  </linearGradient>
 </defs>
 <g transform="translate(-27.613 -1.9311)">
  <path transform="scale(.26458)" d="m151.12 65.525c5.0642-3.1721 8.7215-7.931 9.7539-12.99 1.8899-9.2616-1.1724-15.652-6.7949-20.494-5.6225-4.8418-13.33-3.6992-13.33-3.6992l0.77864 6.7131s10.269-1.002 11.757 10.084c0.67451 5.0255-1.9104 9.4885-5.8594 12.145 0.10821 0.11481 0.21694 0.22619 0.32422 0.34766 0.17183 0.19456 0.34238 0.39748 0.50976 0.60938s0.33178 0.43254 0.49219 0.66211c0.0802 0.11479 0.15834 0.23229 0.23633 0.35156 0.078 0.11927 0.15501 0.24144 0.23047 0.36524 0.0755 0.1238 0.15004 0.25054 0.22265 0.37891 0.0726 0.12836 0.14345 0.25765 0.21289 0.39062 0.0695 0.13298 0.13716 0.26862 0.20313 0.40625 0.066 0.13763 0.13118 0.2776 0.19336 0.41992 0.0622 0.14232 0.12162 0.28653 0.17969 0.43359 0.0581 0.14706 0.11432 0.29738 0.16796 0.44922 0.0537 0.15184 0.1054 0.30623 0.1543 0.46289s0.0948 0.31503 0.13867 0.47656c0.0438 0.16153 0.0846 0.32575 0.12305 0.49219 0.0385 0.16644 0.0746 0.33447 0.10742 0.50586 0.0328 0.17139 0.0631 0.34706 0.0898 0.52344 0.0268 0.17638 0.0498 0.35374 0.0703 0.53516 0.016 0.14165 0.0271 0.2869 0.0391 0.43164z" fill="url(#linearGradient28585)"/>
  <path transform="scale(.26458)" d="m151.12 65.525c-0.012-0.14474-0.0231-0.28999-0.0391-0.43164-0.0205-0.18141-0.0435-0.35878-0.0703-0.53516s-0.0571-0.35205-0.0898-0.52344c-0.0328-0.17139-0.0689-0.33942-0.10742-0.50586-0.0385-0.16644-0.0792-0.33066-0.12305-0.49219-0.0439-0.16153-0.0898-0.3199-0.13867-0.47656-0.0489-0.15666-0.10065-0.31105-0.1543-0.46289-0.0536-0.15184-0.1099-0.30216-0.16796-0.44922-0.0581-0.14706-0.11752-0.29127-0.17969-0.43359-0.0622-0.14232-0.12739-0.28229-0.19336-0.41992-0.066-0.13763-0.13368-0.27328-0.20313-0.40625-0.0694-0.13298-0.14028-0.26226-0.21289-0.39062-0.0726-0.12836-0.1472-0.25511-0.22265-0.37891-0.0755-0.1238-0.15248-0.24596-0.23047-0.36524-0.078-0.11927-0.15613-0.23678-0.23633-0.35156-0.16041-0.22957-0.32481-0.45022-0.49219-0.66211s-0.33793-0.41482-0.50976-0.60938c-0.10728-0.12146-0.21601-0.23284-0.32422-0.34766-4.762 3.2029-11.51 3.7753-16.955-0.50195-5.1728-4.0636-7.0734-8.9298-7.3027-13.309-0.3328-0.07028-0.66025-0.14533-0.98047-0.22461-0.33878-0.08387-0.67112-0.17208-0.9961-0.26562-0.32498-0.09355-0.64361-0.1921-0.95508-0.29492-0.31146-0.10282-0.61582-0.20863-0.91406-0.32031-0.29823-0.11168-0.58971-0.22947-0.875-0.34961-0.28528-0.12014-0.56527-0.24291-0.83789-0.37109-0.27261-0.12819-0.5386-0.26065-0.79883-0.39648s-0.51359-0.2749-0.76172-0.41797c-0.24812-0.14307-0.49026-0.28955-0.72656-0.43945s-0.46665-0.30461-0.6914-0.46094c-0.22476-0.15633-0.44471-0.31422-0.65821-0.47656s-0.42052-0.32814-0.62304-0.49609c-0.20252-0.16796-0.39998-0.33856-0.5918-0.51172s-0.37914-0.34938-0.56055-0.52734-0.35803-0.35866-0.52929-0.54102c-0.021-0.02238-0.0397-0.04592-0.0606-0.06836-0.47514 3.4211-0.40051 6.7105 0.0977 9.5781 2.198 12.652 12.543 21.841 24.574 22.51 5.4591 0.30335 10.635-1.2381 14.842-3.873z" fill="url(#linearGradient16854)"/>
  <path transform="scale(.26458)" d="m111.61 37.311c0.0209 0.02244 0.0395 0.04598 0.0606 0.06836 0.17127 0.18236 0.34788 0.36305 0.52929 0.54102s0.36873 0.35418 0.56055 0.52734 0.38928 0.34376 0.5918 0.51172 0.40954 0.33375 0.62304 0.49609 0.43345 0.32024 0.65821 0.47656c0.22475 0.15633 0.4551 0.31104 0.6914 0.46094s0.47844 0.29638 0.72656 0.43945c0.24813 0.14307 0.50149 0.28214 0.76172 0.41797s0.52622 0.2683 0.79883 0.39648c0.27262 0.12819 0.55261 0.25096 0.83789 0.37109 0.28529 0.12014 0.57677 0.23793 0.875 0.34961 0.29824 0.11168 0.6026 0.21749 0.91406 0.32031 0.31147 0.10282 0.6301 0.20137 0.95508 0.29492s0.65732 0.18175 0.9961 0.26562c0.32022 0.07928 0.64767 0.15433 0.98047 0.22461-0.2122-4.0523 1.0063-7.6886 2.4023-9.8809 2.9046-4.5613 7.9821-9.1707 15.469-10.023 7.4866-0.85278-1.0144-14.336-1.0144-14.336-19.755 3.2656-26.796 16.405-28.417 28.078z" fill="url(#linearGradient2152)"/>
  <circle cx="37.317" cy="4.3298" r="1.906" fill="url(#linearGradient6062)" fill-rule="evenodd" stroke-linecap="round" stroke-linejoin="round" stroke-width="1.3352" style="paint-order:stroke fill markers"/>
  <circle cx="37.359" cy="8.3848" r=".89428" fill="url(#linearGradient34904)" fill-rule="evenodd" stroke-linecap="round" stroke-linejoin="round" stroke-width=".62645" style="paint-order:stroke fill markers"/>
  <path transform="scale(.26458)" d="m151.12 65.525c5.0642-3.1721 8.7215-7.931 9.7539-12.99 1.8899-9.2616-1.1724-15.652-6.7949-20.494-5.6225-4.8418-13.33-3.6992-13.33-3.6992l0.77864 6.7131s10.269-1.002 11.757 10.084c0.67451 5.0255-1.9104 9.4885-5.8594 12.145 0.10821 0.11481 0.21694 0.22619 0.32422 0.34766 0.17183 0.19456 0.34238 0.39748 0.50976 0.60938s0.33178 0.43254 0.49219 0.66211c0.0802 0.11479 0.15834 0.23229 0.23633 0.35156 0.078 0.11927 0.15501 0.24144 0.23047 0.36524 0.0755 0.1238 0.15004 0.25054 0.22265 0.37891 0.0726 0.12836 0.14345 0.25765 0.21289 0.39062 0.0695 0.13298 0.13716 0.26862 0.20313 0.40625 0.066 0.13763 0.13118 0.2776 0.19336 0.41992 0.0622 0.14232 0.12162 0.28653 0.17969 0.43359 0.0581 0.14706 0.11432 0.29738 0.16796 0.44922 0.0537 0.15184 0.1054 0.30623 0.1543 0.46289s0.0948 0.31503 0.13867 0.47656c0.0438 0.16153 0.0846 0.32575 0.12305 0.49219 0.0385 0.16644 0.0746 0.33447 0.10742 0.50586 0.0328 0.17139 0.0631 0.34706 0.0898 0.52344 0.0268 0.17638 0.0498 0.35374 0.0703 0.53516 0.016 0.14165 0.0271 0.2869 0.0391 0.43164z" fill="url(#linearGradient28585)"/>
  <path transform="scale(.26458)" d="m151.12 65.525c-0.012-0.14474-0.0231-0.28999-0.0391-0.43164-0.0205-0.18141-0.0435-0.35878-0.0703-0.53516s-0.0571-0.35205-0.0898-0.52344c-0.0328-0.17139-0.0689-0.33942-0.10742-0.50586-0.0385-0.16644-0.0792-0.33066-0.12305-0.49219-0.0439-0.16153-0.0898-0.3199-0.13867-0.47656-0.0489-0.15666-0.10065-0.31105-0.1543-0.46289-0.0536-0.15184-0.1099-0.30216-0.16796-0.44922-0.0581-0.14706-0.11752-0.29127-0.17969-0.43359-0.0622-0.14232-0.12739-0.28229-0.19336-0.41992-0.066-0.13763-0.13368-0.27328-0.20313-0.40625-0.0694-0.13298-0.14028-0.26226-0.21289-0.39062-0.0726-0.12836-0.1472-0.25511-0.22265-0.37891-0.0755-0.1238-0.15248-0.24596-0.23047-0.36524-0.078-0.11927-0.15613-0.23678-0.23633-0.35156-0.16041-0.22957-0.32481-0.45022-0.49219-0.66211s-0.33793-0.41482-0.50976-0.60938c-0.10728-0.12146-0.21601-0.23284-0.32422-0.34766-4.762 3.2029-11.51 3.7753-16.955-0.50195-5.1728-4.0636-7.0734-8.9298-7.3027-13.309-0.3328-0.07028-0.66025-0.14533-0.98047-0.22461-0.33878-0.08387-0.67112-0.17208-0.9961-0.26562-0.32498-0.09355-0.64361-0.1921-0.95508-0.29492-0.31146-0.10282-0.61582-0.20863-0.91406-0.32031-0.29823-0.11168-0.58971-0.22947-0.875-0.34961-0.28528-0.12014-0.56527-0.24291-0.83789-0.37109-0.27261-0.12819-0.5386-0.26065-0.79883-0.39648s-0.51359-0.2749-0.76172-0.41797c-0.24812-0.14307-0.49026-0.28955-0.72656-0.43945s-0.46665-0.30461-0.6914-0.46094c-0.22476-0.15633-0.44471-0.31422-0.65821-0.47656s-0.42052-0.32814-0.62304-0.49609c-0.20252-0.16796-0.39998-0.33856-0.5918-0.51172s-0.37914-0.34938-0.56055-0.52734-0.35803-0.35866-0.52929-0.54102c-0.021-0.02238-0.0397-0.04592-0.0606-0.06836-0.47514 3.4211-0.40051 6.7105 0.0977 9.5781 2.198 12.652 12.543 21.841 24.574 22.51 5.4591 0.30335 10.635-1.2381 14.842-3.873z" fill="url(#linearGradient16854)"/>
  <path transform="scale(.26458)" d="m111.61 37.311c0.0209 0.02244 0.0395 0.04598 0.0606 0.06836 0.17127 0.18236 0.34788 0.36305 0.52929 0.54102s0.36873 0.35418 0.56055 0.52734 0.38928 0.34376 0.5918 0.51172 0.40954 0.33375 0.62304 0.49609 0.43345 0.32024 0.65821 0.47656c0.22475 0.15633 0.4551 0.31104 0.6914 0.46094s0.47844 0.29638 0.72656 0.43945c0.24813 0.14307 0.50149 0.28214 0.76172 0.41797s0.52622 0.2683 0.79883 0.39648c0.27262 0.12819 0.55261 0.25096 0.83789 0.37109 0.28529 0.12014 0.57677 0.23793 0.875 0.34961 0.29824 0.11168 0.6026 0.21749 0.91406 0.32031 0.31147 0.10282 0.6301 0.20137 0.95508 0.29492s0.65732 0.18175 0.9961 0.26562c0.32022 0.07928 0.64767 0.15433 0.98047 0.22461-0.2122-4.0523 1.0063-7.6886 2.4023-9.8809 2.9046-4.5613 7.9821-9.1707 15.469-10.023 7.4866-0.85278-1.0144-14.336-1.0144-14.336-19.755 3.2656-26.796 16.405-28.417 28.078z" fill="url(#linearGradient2152)"/>
  <circle cx="37.317" cy="4.3298" r="1.906" fill="url(#linearGradient6062)" fill-rule="evenodd" stroke-linecap="round" stroke-linejoin="round" stroke-width="1.3352" style="paint-order:stroke fill markers"/>
  <circle cx="37.359" cy="8.3848" r=".89428" fill="url(#linearGradient34904)" fill-rule="evenodd" stroke-linecap="round" stroke-linejoin="round" stroke-width=".62645" style="paint-order:stroke fill markers"/>
 </g>
</svg>
