<?xml version="1.0" encoding="UTF-8"?>
<!-- Created with Inkscape (http://www.inkscape.org/) -->
<svg width="64" height="64" version="1.1" viewBox="0 0 64 64" xmlns="http://www.w3.org/2000/svg" xmlns:cc="http://creativecommons.org/ns#" xmlns:dc="http://purl.org/dc/elements/1.1/" xmlns:rdf="http://www.w3.org/1999/02/22-rdf-syntax-ns#" xmlns:xlink="http://www.w3.org/1999/xlink">
 <metadata>
  <rdf:RDF>
   <cc:Work rdf:about="">
    <dc:format>image/svg+xml</dc:format>
    <dc:type rdf:resource="http://purl.org/dc/dcmitype/StillImage"/>
   </cc:Work>
  </rdf:RDF>
 </metadata>
 <defs>
  <linearGradient id="linearGradient18093">
   <stop stop-color="#2df3e2" offset="0"/>
   <stop stop-color="#42a9f4" offset="1"/>
  </linearGradient>
  <linearGradient id="linearGradient13011">
   <stop stop-color="#488efd" offset="0"/>
   <stop stop-color="#2aefe4" offset="1"/>
  </linearGradient>
  <linearGradient id="linearGradient2762">
   <stop stop-color="#38c9ec" offset="0"/>
   <stop stop-color="#42a9f4" offset="1"/>
  </linearGradient>
  <linearGradient id="linearGradient2764" x1="-28.874" x2="-38.218" y1="80.094" y2="80.094" gradientUnits="userSpaceOnUse" xlink:href="#linearGradient2762"/>
  <linearGradient id="linearGradient13013" x1="-68.965" x2="-49.752" y1="85.867" y2="105.08" gradientUnits="userSpaceOnUse" xlink:href="#linearGradient13011"/>
  <linearGradient id="linearGradient18095" x1="-11.432" x2="-36.497" y1="93.359" y2="107.85" gradientUnits="userSpaceOnUse" xlink:href="#linearGradient18093"/>
 </defs>
 <g fill="#5e4aa6">
  <g transform="matrix(3.7796 0 0 3.7796 -71.985 -28.735)" stroke-width=".26458">
   <circle cx="-330.35" cy="-328.38" r="0"/>
   <circle cx="-312.11" cy="-326.25" r="0"/>
   <circle cx="-306.02" cy="-333.07" r="0"/>
   <circle cx="-308.84" cy="-326.01" r="0"/>
  </g>
  <circle cx="-1328.7" cy="-1277.1" r="0"/>
  <circle cx="-229.1" cy="-11.553" r="0" fill-rule="evenodd"/>
 </g>
 <g transform="matrix(.93804 0 0 .93804 72.041 -50.426)" fill-rule="evenodd" stroke-linecap="round" stroke-linejoin="round">
  <path d="m-26.055 80.395a15.93 15.93 0 0 0-0.02734-0.96289 15.93 15.93 0 0 0-2e-3 -0.01563h-0.0039a15.93 15.93 0 0 1 0.0332 0.97852z" fill="#3c3c3c" stroke-width="3.2634" style="paint-order:stroke fill markers"/>
  <path d="m-26.875 85.328a15.93 15.93 0 0 0 0.19336-0.52344h1.8945c5.8396 0 10.541 4.7014 10.541 10.541s-4.7014 10.541-10.541 10.541h-12.588a25.638 25.638 0 0 1-3.3418 5.3887h16.215c8.8252 0 15.93-7.1045 15.93-15.93 0-8.8252-7.1045-15.93-15.93-15.93h-1.582a15.93 15.93 0 0 1 2e-3 0.01563 15.93 15.93 0 0 1 0.02734 0.96289 15.93 15.93 0 0 1-0.24023 2.7656 15.93 15.93 0 0 1-0.58008 2.168z" fill="url(#linearGradient18095)" stroke-width="3.2634" style="paint-order:stroke fill markers"/>
  <path d="m-41.984 64.465a15.93 15.93 0 0 0-0.29297 0.02344 15.93 15.93 0 0 0-2.166 0.18945 15.93 15.93 0 0 0-1.6777 0.39453 15.93 15.93 0 0 0-0.67578 0.18164 15.93 15.93 0 0 0-1.8594 0.74024 15.93 15.93 0 0 0-0.32812 0.1543 15.93 15.93 0 0 0-1.9297 1.127 15.93 15.93 0 0 0-3.457 3.2363 25.638 25.638 0 0 1 2.2031 0.68359 25.638 25.638 0 0 0-2.2598-0.69531 15.93 15.93 0 0 0-1.3516 1.9297 15.93 15.93 0 0 0-1.1738 2.5176 15.93 15.93 0 0 0-0.07617 0.28516 20.455 20.455 0 0 1 16.748 20.113 20.455 20.455 0 0 1-0.01758 0.83203 20.455 20.455 0 0 1-7.6113 15.098h7.2559a25.638 25.638 0 0 0 5.5566-15.93 25.638 25.638 0 0 0-0.01172-0.64648 25.638 25.638 0 0 0 0-0.0098 15.93 15.93 0 0 0 6.2988-5.4414 15.93 15.93 0 0 0 0.33984-0.48438 15.93 15.93 0 0 0 0.67969-1.2559 15.93 15.93 0 0 0 0.51562-1.1055 15.93 15.93 0 0 0 0.40039-1.0742 15.93 15.93 0 0 0 0.58008-2.168 15.93 15.93 0 0 0 0.24023-2.7656 15.93 15.93 0 0 0-0.15625-2.1973 15.93 15.93 0 0 0-0.02539-0.15625 15.93 15.93 0 0 0-0.44141-2.0332 15.93 15.93 0 0 0-0.04492-0.16602 15.93 15.93 0 0 0-0.76562-2.0488 15.93 15.93 0 0 0-0.02344-0.05078 15.93 15.93 0 0 0-1.0215-1.8711 15.93 15.93 0 0 0-0.11328-0.17578 15.93 15.93 0 0 0-1.2441-1.6621 15.93 15.93 0 0 0-0.0918-0.10938 15.93 15.93 0 0 0-1.543-1.541 15.93 15.93 0 0 0-0.08008-0.06836 15.93 15.93 0 0 0-1.6816-1.2598 15.93 15.93 0 0 0-0.17383-0.11133 15.93 15.93 0 0 0-1.8711-1.0215 15.93 15.93 0 0 0-0.05078-0.02344 15.93 15.93 0 0 0-2.0527-0.76563 15.93 15.93 0 0 0-0.15039-0.04297 15.93 15.93 0 0 0-2.041-0.44336 15.93 15.93 0 0 0-0.16211-0.02539 15.93 15.93 0 0 0-2.1953-0.15625zm0 5.4902a10.439 10.439 0 0 1 10.439 10.439 10.439 10.439 0 0 1-4.3848 8.4941 25.638 25.638 0 0 1 0.0918 0.41992 25.638 25.638 0 0 0-13.475-16.895 25.638 25.638 0 0 1 0.43359 0.20508 10.439 10.439 0 0 1 6.8945-2.6641zm-9.6055 1.4629a25.638 25.638 0 0 1 1.5508 0.65039 25.638 25.638 0 0 0-1.5508-0.65039zm15.928 18.688a25.638 25.638 0 0 1 0.26562 1.4961 25.638 25.638 0 0 0-0.26562-1.4961zm0.38476 2.3535a25.638 25.638 0 0 1 0.14453 1.9316 25.638 25.638 0 0 0-0.14453-1.9316z" fill="url(#linearGradient2764)" stroke-width="3.2634" style="paint-order:stroke fill markers"/>
  <path d="m-60.967 79.145c-4.1003 0.06179-8.117 1.6912-11.129 4.7031-4.5896 4.5896-5.9663 11.511-3.4824 17.508 2.4099 5.818 8.0067 9.6733 14.266 9.8984 0.10692 0.0132 0.21557 0.0215 0.32617 0.0215h6.582c1.4498 0 2.6172-1.1674 2.6172-2.6172s-1.1674-2.6172-2.6172-2.6172h-6.3203a2.6176 2.6176 0 0 0-0.01172-2e-3c-4.3883 0-8.3265-2.6313-10.006-6.6855-1.6793-4.0542-0.75532-8.7017 2.3477-11.805 3.103-3.103 7.7485-4.027 11.803-2.3477 4.0542 1.6793 6.6875 5.6195 6.6875 10.008a2.6176 2.6176 0 0 0 2.6172 2.6172 2.6176 2.6176 0 0 0 2.6172-2.6172c0-6.4907-3.9214-12.36-9.918-14.844-1.4992-0.62097-3.0552-1.0019-4.6191-1.1504-0.5865-0.05568-1.174-0.07914-1.7598-0.07031z" color="#000000" fill="url(#linearGradient13013)" style="-inkscape-stroke:none;paint-order:stroke fill markers"/>
  <path d="m-26.055 80.395a15.93 15.93 0 0 0-0.02734-0.96289 15.93 15.93 0 0 0-2e-3 -0.01563h-0.0039a15.93 15.93 0 0 1 0.0332 0.97852z" fill="#3c3c3c" stroke-width="3.2634" style="paint-order:stroke fill markers"/>
  <path d="m-26.875 85.328a15.93 15.93 0 0 0 0.19336-0.52344h1.8945c5.8396 0 10.541 4.7014 10.541 10.541s-4.7014 10.541-10.541 10.541h-12.588a25.638 25.638 0 0 1-3.3418 5.3887h16.215c8.8252 0 15.93-7.1045 15.93-15.93 0-8.8252-7.1045-15.93-15.93-15.93h-1.582a15.93 15.93 0 0 1 2e-3 0.01563 15.93 15.93 0 0 1 0.02734 0.96289 15.93 15.93 0 0 1-0.24023 2.7656 15.93 15.93 0 0 1-0.58008 2.168z" fill="url(#linearGradient18095)" stroke-width="3.2634" style="paint-order:stroke fill markers"/>
  <path d="m-41.984 64.465a15.93 15.93 0 0 0-0.29297 0.02344 15.93 15.93 0 0 0-2.166 0.18945 15.93 15.93 0 0 0-1.6777 0.39453 15.93 15.93 0 0 0-0.67578 0.18164 15.93 15.93 0 0 0-1.8594 0.74024 15.93 15.93 0 0 0-0.32812 0.1543 15.93 15.93 0 0 0-1.9297 1.127 15.93 15.93 0 0 0-3.457 3.2363 25.638 25.638 0 0 1 2.2031 0.68359 25.638 25.638 0 0 0-2.2598-0.69531 15.93 15.93 0 0 0-1.3516 1.9297 15.93 15.93 0 0 0-1.1738 2.5176 15.93 15.93 0 0 0-0.07617 0.28516 20.455 20.455 0 0 1 16.748 20.113 20.455 20.455 0 0 1-0.01758 0.83203 20.455 20.455 0 0 1-7.6113 15.098h7.2559a25.638 25.638 0 0 0 5.5566-15.93 25.638 25.638 0 0 0-0.01172-0.64648 25.638 25.638 0 0 0 0-0.0098 15.93 15.93 0 0 0 6.2988-5.4414 15.93 15.93 0 0 0 0.33984-0.48438 15.93 15.93 0 0 0 0.67969-1.2559 15.93 15.93 0 0 0 0.51562-1.1055 15.93 15.93 0 0 0 0.40039-1.0742 15.93 15.93 0 0 0 0.58008-2.168 15.93 15.93 0 0 0 0.24023-2.7656 15.93 15.93 0 0 0-0.15625-2.1973 15.93 15.93 0 0 0-0.02539-0.15625 15.93 15.93 0 0 0-0.44141-2.0332 15.93 15.93 0 0 0-0.04492-0.16602 15.93 15.93 0 0 0-0.76562-2.0488 15.93 15.93 0 0 0-0.02344-0.05078 15.93 15.93 0 0 0-1.0215-1.8711 15.93 15.93 0 0 0-0.11328-0.17578 15.93 15.93 0 0 0-1.2441-1.6621 15.93 15.93 0 0 0-0.0918-0.10938 15.93 15.93 0 0 0-1.543-1.541 15.93 15.93 0 0 0-0.08008-0.06836 15.93 15.93 0 0 0-1.6816-1.2598 15.93 15.93 0 0 0-0.17383-0.11133 15.93 15.93 0 0 0-1.8711-1.0215 15.93 15.93 0 0 0-0.05078-0.02344 15.93 15.93 0 0 0-2.0527-0.76563 15.93 15.93 0 0 0-0.15039-0.04297 15.93 15.93 0 0 0-2.041-0.44336 15.93 15.93 0 0 0-0.16211-0.02539 15.93 15.93 0 0 0-2.1953-0.15625zm0 5.4902a10.439 10.439 0 0 1 10.439 10.439 10.439 10.439 0 0 1-4.3848 8.4941 25.638 25.638 0 0 1 0.0918 0.41992 25.638 25.638 0 0 0-13.475-16.895 25.638 25.638 0 0 1 0.43359 0.20508 10.439 10.439 0 0 1 6.8945-2.6641zm-9.6055 1.4629a25.638 25.638 0 0 1 1.5508 0.65039 25.638 25.638 0 0 0-1.5508-0.65039zm15.928 18.688a25.638 25.638 0 0 1 0.26562 1.4961 25.638 25.638 0 0 0-0.26562-1.4961zm0.38476 2.3535a25.638 25.638 0 0 1 0.14453 1.9316 25.638 25.638 0 0 0-0.14453-1.9316z" fill="url(#linearGradient2764)" stroke-width="3.2634" style="paint-order:stroke fill markers"/>
  <path d="m-60.967 79.145c-4.1003 0.06179-8.117 1.6912-11.129 4.7031-4.5896 4.5896-5.9663 11.511-3.4824 17.508 2.4099 5.818 8.0067 9.6733 14.266 9.8984 0.10692 0.0132 0.21557 0.0215 0.32617 0.0215h6.582c1.4498 0 2.6172-1.1674 2.6172-2.6172s-1.1674-2.6172-2.6172-2.6172h-6.3203a2.6176 2.6176 0 0 0-0.01172-2e-3c-4.3883 0-8.3265-2.6313-10.006-6.6855-1.6793-4.0542-0.75532-8.7017 2.3477-11.805 3.103-3.103 7.7485-4.027 11.803-2.3477 4.0542 1.6793 6.6875 5.6195 6.6875 10.008a2.6176 2.6176 0 0 0 2.6172 2.6172 2.6176 2.6176 0 0 0 2.6172-2.6172c0-6.4907-3.9214-12.36-9.918-14.844-1.4992-0.62097-3.0552-1.0019-4.6191-1.1504-0.5865-0.05568-1.174-0.07914-1.7598-0.07031z" color="#000000" fill="url(#linearGradient13013)" style="-inkscape-stroke:none;paint-order:stroke fill markers"/>
 </g>
</svg>
