<?xml version="1.0" encoding="UTF-8"?>
<svg width="64" height="64" version="1.1" viewBox="0 0 16.933 16.933" xmlns="http://www.w3.org/2000/svg" xmlns:cc="http://creativecommons.org/ns#" xmlns:dc="http://purl.org/dc/elements/1.1/" xmlns:rdf="http://www.w3.org/1999/02/22-rdf-syntax-ns#">
 <metadata>
  <rdf:RDF>
   <cc:Work rdf:about="">
    <dc:format>image/svg+xml</dc:format>
    <dc:type rdf:resource="http://purl.org/dc/dcmitype/StillImage"/>
   </cc:Work>
  </rdf:RDF>
 </metadata>
 <defs>
  <style type="text/css"/>
  <style type="text/css"/>
  <style type="text/css"/>
  <style type="text/css"/>
  <style type="text/css"/>
  <style type="text/css"/>
  <style type="text/css"/>
  <style type="text/css"/>
  <style type="text/css"/>
  <linearGradient id="linearGradient28549" x1="33.301" x2="33.301" y1="21.788" y2="49.376" gradientTransform="matrix(.3157 0 0 .3157 -1.6354 -2.0106)" gradientUnits="userSpaceOnUse">
   <stop stop-color="#a83ce8" offset="0"/>
   <stop stop-color="#17c0ed" offset="1"/>
  </linearGradient>
 </defs>
 <g fill="#5e4aa6" stroke-width=".26458">
  <circle cx="-330.38" cy="-328.51" r="0"/>
  <circle cx="-39.461" cy="6.3115" r="0" fill-rule="evenodd"/>
  <circle cx="-330.35" cy="-328.38" r="0"/>
  <circle cx="-39.434" cy="6.44" r="0" fill-rule="evenodd"/>
  <g transform="translate(-40.279 -8.6753)">
   <circle cx="-330.35" cy="-328.38" r="0"/>
   <circle cx="-312.11" cy="-326.25" r="0"/>
   <circle cx="-306.02" cy="-333.07" r="0"/>
   <circle cx="-308.84" cy="-326.01" r="0"/>
  </g>
  <circle cx="-316.69" cy="-348.06" r="0"/>
  <g transform="translate(13.673 -19.684)">
   <circle cx="-299.02" cy="-338.77" r="0"/>
   <circle cx="-8.1062" cy="-3.9487" r="0" fill-rule="evenodd"/>
   <circle cx="-278.25" cy="-357.69" r="0"/>
   <circle cx="12.663" cy="-22.859" r="0" fill-rule="evenodd"/>
  </g>
  <g transform="matrix(.92951 0 0 .92951 .62172 1.3756)">
   <circle cx="-330.35" cy="-328.38" r="0"/>
   <circle cx="-39.434" cy="6.44" r="0" fill-rule="evenodd"/>
   <circle cx="-330.38" cy="-328.5" r="0"/>
   <circle cx="-301.7" cy="-344.43" r="0"/>
   <circle cx="-337.3" cy="-348.73" r="0"/>
   <g transform="translate(-29.861,-19.474)" image-rendering="optimizeSpeed">
    <circle cx="-330.35" cy="-328.38" r="0"/>
    <circle cx="-312.11" cy="-326.25" r="0"/>
    <circle cx="-306.02" cy="-333.07" r="0"/>
    <circle cx="-308.84" cy="-326.01" r="0"/>
   </g>
  </g>
  <g transform="matrix(.92951 0 0 .92951 .81277 .62031)">
   <circle cx="-330.35" cy="-328.38" r="0"/>
   <circle cx="-39.434" cy="6.44" r="0" fill-rule="evenodd"/>
   <g transform="translate(2.581 -.053009)">
    <circle cx="-322.63" cy="-345.67" r="0"/>
    <circle cx="-31.726" cy="-10.849" r="0" fill-rule="evenodd"/>
    <circle cx="-306.92" cy="-328.72" r="0"/>
   </g>
  </g>
 </g>
 <path d="m8.4671 1.4437a3.9463 3.9463 0 0 0-3.9463 3.9463 3.9463 3.9463 0 0 0 3.9463 3.9463 3.9463 3.9463 0 0 0 3.9463-3.9463 3.9463 3.9463 0 0 0-3.9463-3.9463zm-4.8613 8.2428-2.6798 2.6798c1.9992 1.9992 4.7138 3.1229 7.5411 3.1231h6.166e-4c2.8275 0 5.5399-1.1238 7.5392-3.1231l-2.6779-2.6798c-1.2899 1.2899-3.0372 2.0157-4.8613 2.0157h-6.166e-4c-1.8239-1.64e-4 -3.5716-0.72595-4.8613-2.0157z" fill="url(#linearGradient28549)" fill-rule="evenodd" stroke-linecap="round" stroke-linejoin="round" stroke-width="14.092" style="paint-order:stroke fill markers"/>
</svg>
