<?xml version="1.0" encoding="UTF-8"?>
<svg width="64" height="64" version="1.1" viewBox="0 0 64 64" xmlns="http://www.w3.org/2000/svg" xmlns:xlink="http://www.w3.org/1999/xlink">
 <defs>
  <linearGradient id="linearGradient1316" x1="202.45" x2="230.9" y1="39.68" y2="68.133" gradientTransform="matrix(.68116 0 0 .68116 -104.46 -18.9)" gradientUnits="userSpaceOnUse">
   <stop stop-color="#861b98" offset="0"/>
   <stop stop-color="#085ee0" offset="1"/>
  </linearGradient>
  <linearGradient id="linearGradient1320" x1="202.53" x2="202.53" y1="104.19" y2="42.725" gradientTransform="matrix(.67441 0 0 .68116 -103.42 -12.444)" gradientUnits="userSpaceOnUse">
   <stop stop-color="#075e91" offset="0"/>
   <stop stop-color="#077faa" stop-opacity="0" offset=".2"/>
   <stop stop-color="#07effe" stop-opacity="0" offset="1"/>
  </linearGradient>
  <linearGradient id="linearGradient1352" x1="-63.464" x2="-63.464" y1="29.374" y2="57.358" gradientTransform="matrix(.89129 0 0 .89129 87.209 6.968)" gradientUnits="userSpaceOnUse">
   <stop stop-color="#03bdfe" offset="0"/>
   <stop stop-color="#675afe" offset="1"/>
  </linearGradient>
 </defs>
 <g fill-rule="evenodd">
  <path d="m9.2461 5.0625c-3.6201 0-6.5352 3.4151-6.5352 7.0352v6.7188h3.8086v-5.7656c0-2.1491 1.7298-3.8789 3.8789-3.8789h45.912c2.1491 0 3.8809 1.7298 3.8809 3.8789v16.254h3.8086v-17.709c0-3.6201-2.9151-6.5332-6.5352-6.5332z" fill="url(#linearGradient1316)" stroke-width=".68116" style="paint-order:stroke fill markers"/>
  <path d="m5.818 15.18c-3.1835 0-5.9975 2.6521-5.809 6.0335l0.86081 15.442 0.087838 1.6045c6.2863e-4 0.0072 0.001299 0.01431 0.001999 0.02147 0.028013 0.44949 0.036938 0.42579 0.015621 0.14835-0.002299-0.02926 0.005097 0.05308 0.001999 0.01562l0.92328 14.191c0 5.7187 1.0394 6.3009 6.4746 6.3009h51.727c2.1413 0 3.8917-1.7882 3.8917-3.6767l2e-3 -16.585c0-0.18451 2e-3 -0.37063 2e-3 -0.61096v-9.6837c0-0.41191-0.04225-0.81878-0.12102-1.2102v-2e-3c-0.07913-0.39247-0.1965-0.77365-0.3494-1.1399-0.15002-0.35947-0.33516-0.70728-0.5524-1.0326-0.21889-0.32779-0.46431-0.62559-0.73394-0.8979-0.26948-0.27217-0.56723-0.52305-0.894-0.74565-0.32411-0.22078-0.6705-0.40882-1.0306-0.56216-0.36686-0.15622-0.7506-0.27595-1.1458-0.35721-0.39467-0.08116-0.8033-0.12492-1.218-0.12492h-16.318c-6.8157 0-7.093 0.09908-8.4562-3.4082-0.15008-0.35964-0.33523-0.70542-0.5524-1.0306-0.21892-0.32784-0.46635-0.62761-0.73589-0.89985-0.26955-0.27225-0.56536-0.52114-0.89204-0.7437-0.32415-0.22081-0.67248-0.41079-1.0326-0.56412-0.36682-0.15619-0.74865-0.27595-1.1438-0.35721-0.39463-0.08115-0.80525-0.12493-1.22-0.12493h-13.781zm5.0439 6.9958h12.801c0.29809 0.0073 2.666 0.12688 3.5604 2.0691-0.06916-0.16925-0.13192-0.35455-0.18739-0.5446 0.07163 0.22506 0.15087 0.4492 0.24204 0.66757h-2e-3c0.10181 0.24393 0.21598 0.47778 0.33769 0.70466 0.12109 0.2257 0.2536 0.44908 0.3982 0.66562 0.15124 0.22649 0.30686 0.43233 0.46066 0.62072 0.1547 0.18948 0.32501 0.38168 0.51532 0.57388 0.18075 0.18257 0.37055 0.35672 0.56802 0.52117 0.19835 0.16519 0.40279 0.32007 0.61487 0.46457h2e-3c0.21127 0.14392 0.4301 0.28119 0.66171 0.40796h2e-3c0.241 0.1319 0.47694 0.24268 0.70466 0.33964 0.2269 0.09662 0.47369 0.19135 0.74174 0.27523 0.26481 0.08281 0.52225 0.14753 0.77298 0.1991 0.26498 0.0545 0.53286 0.09569 0.8003 0.12297 0.2665 0.02713 0.54118 0.04099 0.81982 0.04099h18.12s4.2065 0 4.2065 4.3802v4.3802c0 0.18562-2e-3 0.37148-2e-3 0.61096l-2e-3 8.7039c-0.31224 4.4562-4.2182 4.5617-4.2182 4.5617h-40.204c-0.34674-0.01057-3.1447-0.20842-3.9351-3.7907l-0.68709-10.211c-0.0016-0.0293-0.0035-0.05858-0.0059-0.08784-0.01099-0.12946-0.01125-0.13861-0.015617-0.19324l-0.078084-1.3917-0.57192-10.263v-0.0039c-5.6e-5 -0.0421 0.00869-3.2492 3.5799-3.8239zm16.414 2.192c-0.01415-0.03434-0.02791-0.06823-0.04294-0.1015 0.01429 0.03437 0.02808 0.06878 0.04294 0.1015z" color="#000000" fill="url(#linearGradient1352)" stroke-linecap="round" stroke-linejoin="round" stroke-width=".9994" style="-inkscape-stroke:none;paint-order:stroke fill markers"/>
  <path d="m2.6437 16.375c-1.4399 0-2.6798 1.1728-2.5988 2.6249l0.96547 17.317 0.10011 1.7974c2e-3 0.03236 0.01039 0.06239 0.01309 0.09445l1.0432 17.351c0.11221 1.8677 1.4905 3.3779 3.3431 3.3779h55.004c1.8526 0 3.4413-1.5067 3.4414-3.3779l5.8e-4 -16.76c0-0.23771 3e-3 -0.44637 3e-3 -0.68518v-10.86c0-0.19983-0.01999-0.39453-0.05786-0.58271-0.03798-0.18818-0.09384-0.37007-0.16598-0.5428-0.07206-0.17274-0.15964-0.33612-0.26212-0.48959s-0.21995-0.29667-0.34905-0.42706-0.27088-0.24905-0.42283-0.35256c-0.15194-0.10351-0.31371-0.19193-0.48473-0.26475-0.17101-0.07282-0.3511-0.12932-0.53742-0.16763-0.18631-0.03832-0.37908-0.05853-0.57692-0.05853h-26.101c-0.17566 0-0.34933-0.0092-0.52029-0.0266-0.17096-0.01743-0.33907-0.04314-0.50449-0.07716s-0.32831-0.07531-0.48736-0.12506c-0.15906-0.04976-0.31446-0.1083-0.46629-0.17295-0.15184-0.06465-0.30011-0.1355-0.44389-0.21419-0.14379-0.0787-0.28397-0.16487-0.41888-0.25676-0.1349-0.09191-0.2647-0.18976-0.38989-0.29402-0.12518-0.10426-0.24498-0.21417-0.3596-0.32994-0.11463-0.11577-0.22345-0.23809-0.32668-0.36453-0.10322-0.12644-0.20143-0.25754-0.29242-0.39379-0.09095-0.13625-0.17498-0.2765-0.2529-0.42174-0.07795-0.14523-0.14938-0.29498-0.21339-0.44834-0.06406-0.15336-0.12066-0.31032-0.16991-0.47096-0.04927-0.16065-0.09145-0.32517-0.12514-0.49225-0.03368-0.16708-0.05917-0.33687-0.07635-0.50954-0.01679-0.16747-0.02579-0.33758-0.02638-0.50954 0-0.19982-0.01999-0.39453-0.05787-0.58271-0.03798-0.18818-0.09384-0.37007-0.16597-0.5428-0.07206-0.17273-0.15964-0.33612-0.26212-0.48958-0.10248-0.15347-0.21996-0.29667-0.34905-0.42706-0.1291-0.1304-0.27088-0.24905-0.42283-0.35256-0.15194-0.10351-0.31371-0.19193-0.48473-0.26475s-0.3511-0.12932-0.53742-0.16763c-0.18632-0.03832-0.37908-0.05853-0.57692-0.05853h-15.454z" fill="url(#linearGradient1320)" opacity=".8" stroke-width=".68116" style="paint-order:stroke fill markers"/>
 </g>
</svg>
