<?xml version="1.0" encoding="UTF-8"?>
<svg width="64" height="64" version="1.1" viewBox="0 0 16.933 16.933" xmlns="http://www.w3.org/2000/svg" xmlns:cc="http://creativecommons.org/ns#" xmlns:dc="http://purl.org/dc/elements/1.1/" xmlns:rdf="http://www.w3.org/1999/02/22-rdf-syntax-ns#" xmlns:xlink="http://www.w3.org/1999/xlink">
 <metadata>
  <rdf:RDF>
   <cc:Work rdf:about="">
    <dc:format>image/svg+xml</dc:format>
    <dc:type rdf:resource="http://purl.org/dc/dcmitype/StillImage"/>
   </cc:Work>
  </rdf:RDF>
 </metadata>
 <defs>
  <linearGradient id="linearGradient1111" x1="21.447" x2="37.738" y1="26.07" y2="56.19" gradientTransform="matrix(1.3462 0 0 1.3462 -13.908 3.654)" gradientUnits="userSpaceOnUse">
   <stop stop-color="#ffb314" offset="0"/>
   <stop stop-color="#f91358" offset="1"/>
  </linearGradient>
 </defs>
 <g transform="translate(-21.833 .89722)" fill="#5e4aa6" stroke-width=".26458">
  <circle cx="-330.35" cy="-328.38" r="0"/>
  <circle cx="-312.11" cy="-326.25" r="0"/>
  <circle cx="-306.02" cy="-333.07" r="0"/>
  <circle cx="-308.84" cy="-326.01" r="0"/>
 </g>
 <g transform="matrix(1.3462 0 0 1.3462 -3.6797 .78383)">
  <path transform="matrix(.19654 0 0 .19654 2.7335 -.18918)" d="m56.328 6.3477c-2.515-0.03577-6.5166 0.67671-9.9785 4.7344 0 0-14.212-4.2447-28.715 0 0 0-3.1066-5.4925-12.102-4.4629 0 0-4.8323 5.2028-2.1191 14.121 0 0-15.308 27.736 18.906 35.977 0.01279 0.0031 0.02627 0.0047 0.03906 0.0078 0.25984 0.06241 0.5313 0.1215 0.79688 0.18164 0.18768 0.04001 0.32695 0.07398 0.58203 0.12109 0.23081 0.04265 0.48927 0.08588 0.77344 0.13086 0.28417 0.04496 0.5939 0.09081 0.92969 0.13477 0.33579 0.04395 0.69831 0.08539 1.084 0.125s0.79665 0.07941 1.2305 0.11133c0.43382 0.03193 0.88892 0.05722 1.3691 0.07813s0.98488 0.03641 1.5098 0.04297c0.52489 0.0066 1.0709 0.0053 1.6387-0.0059 0.56782-0.01117 1.1566-0.03425 1.7656-0.06641 0.3045-0.01607 0.61326-0.03272 0.92774-0.05469 0.31448-0.02196 0.63671-0.04792 0.96094-0.07617 0.32423-0.02826 0.65256-0.05879 0.98633-0.09375 0.33377-0.03497 0.67058-0.07508 1.0137-0.11719 0.34309-0.04211 0.69273-0.08707 1.0449-0.13672 0.82744-0.1302 1.5784-0.26081 2.2812-0.36719 0.31059-0.05606 0.62293-0.11355 0.93945-0.17578 7.526-1.5242 30.315-8.4885 18.443-35.715 0 0 3.4955-4.6977-1.8242-14.182 0 0-0.97536-0.29104-2.4844-0.3125zm-38.547 17.26c3.2561 0.03967 7.0662 1.0868 10.17 1.8379 4.7293 1.1445 8.0293 0 8.0293 0l2e-3 -2e-3c2.4833-1.0532 10.035-2.3211 13.342-1.5898 3.3069 0.73127 8.0856 4.838 7.9082 14.15-0.17725 9.3124-5.2427 11.886-13.709 13.729-8.4663 1.8425-31.793 2.8138-35.297-7.7266-3.5036-10.54 1.5258-17.355 5.0762-19.445 1.2206-0.71864 2.7729-0.9739 4.4785-0.95312z" fill="url(#linearGradient1111)" stroke-width="1.3462"/>
  <ellipse cx="6.2162" cy="7.2364" rx=".79917" ry="1.1298" fill="#fffffe" fill-rule="evenodd" stroke-width="1.2263" style="paint-order:stroke fill markers"/>
  <ellipse cx="11.87" cy="7.2364" rx=".79917" ry="1.1298" fill="#fffffe" fill-rule="evenodd" stroke-width="1.2263" style="paint-order:stroke fill markers"/>
 </g>
</svg>
