<?xml version="1.0" encoding="UTF-8"?>
<svg id="Flamingo" width="64" height="64" enable-background="new 0 0 1024 1024" image-rendering="optimizeSpeed" version="1.1" viewBox="0 0 64 64" xmlns="http://www.w3.org/2000/svg" xmlns:cc="http://creativecommons.org/ns#" xmlns:dc="http://purl.org/dc/elements/1.1/" xmlns:rdf="http://www.w3.org/1999/02/22-rdf-syntax-ns#">
 <g transform="matrix(.9129 0 0 .9129 81.542 20.017)">
  <path d="m-46.419 8.3066s-13.243 20.959-14.906 23.627c-1.6631 2.6675-3.0299 6.5799-1.3301 9.5664 1.6999 2.9865 4.051 4.4883 8.2715 4.4883s7.291-5.9727 7.291-5.9727 10.454-16.659 13.369-21.309c2.9153-4.6497 4.1426-9.4662 4.1426-15.234 0-5.7682-3.4888-12.252-6.7383-15.654-0.48356-0.50635-1.1328-1.1057-1.9043-1.7363 0.05117 0.07611 0.10846 0.15251 0.15625 0.22852 0.12056 0.19172 0.22997 0.38176 0.33008 0.57226s0.1923 0.38183 0.27344 0.57031c0.08113 0.18848 0.15121 0.37487 0.21484 0.56055 0.06362 0.18568 0.12038 0.37065 0.16797 0.55273s0.08612 0.36137 0.11914 0.53906c0.06605 0.35539 0.10448 0.70206 0.12109 1.0352 0.01661 0.3331 0.0113 0.65254-0.0098 0.95703-0.02106 0.30449-0.05655 0.59373-0.10352 0.86328-0.04696 0.26955-0.10491 0.51976-0.16601 0.74805-0.06111 0.22829-0.12598 0.43453-0.18946 0.61523-0.06347 0.1807-0.1256 0.3361-0.17968 0.46289-0.10817 0.25358-0.18555 0.39258-0.18555 0.39258z" fill="url(#linearGradient15046)"/>
  <path d="m-69.853-14.297c-7.2497 5.7203-8.6197 13.843-8.916 15.66-1.0211 6.2636 2.1296 20.749 9.3164 20.687 8.0361-0.06841 9.1973-5.8917 9.1973-8.1348 0-2.243-1.9648-5.1875-1.9648-5.1875-6.6e-4 -0.00161-0.0013-0.00617-2e-3 -0.00781-0.88453-1.409-0.98401-1.5606-2.0879-3.3262-1.4386-2.301-2.9556-4.7359-4.2695-6.8613-1.314-2.1255-2.4241-3.9419-3.0508-5.0078-0.07834-0.13324-0.14719-0.26967-0.20703-0.4082-0.05985-0.13853-0.10995-0.27867-0.15234-0.42188-0.0424-0.14321-0.07755-0.29022-0.10352-0.4375s-0.0441-0.29653-0.05469-0.44727c-0.02117-0.30147-0.01267-0.60828 0.02149-0.91992 0.03415-0.31164 0.09458-0.62642 0.17578-0.94336s0.18472-0.63577 0.30468-0.95312c0.11997-0.31736 0.2558-0.63437 0.40626-0.94727 0.15045-0.3129 0.31561-0.62222 0.48828-0.92578s0.35246-0.60128 0.53906-0.89062c0.11717-0.18169 0.23936-0.35283 0.35937-0.52734z" fill="url(#linearGradient10484)"/>
  <path d="m-69.853-14.297c-0.12001 0.17452-0.2422 0.34566-0.35937 0.52734-0.1866 0.28934-0.36639 0.58707-0.53906 0.89062-0.17267 0.30356-0.33783 0.61289-0.48828 0.92578-0.15046 0.3129-0.28629 0.62991-0.40626 0.94727-0.11996 0.31736-0.22348 0.63619-0.30468 0.95312-0.0812 0.31694-0.14163 0.63172-0.17578 0.94336-0.03416 0.31164-0.04266 0.61845-0.02149 0.91992 0.01059 0.15073 0.02872 0.29999 0.05469 0.44727s0.06112 0.29429 0.10352 0.4375c0.04239 0.14321 0.09249 0.28334 0.15234 0.42188 0.05984 0.13853 0.12869 0.27496 0.20703 0.4082 0.62668 1.066 1.7368 2.8823 3.0508 5.0078s2.8309 4.5604 4.2695 6.8613c1.1039 1.7656 1.2034 1.9172 2.0879 3.3262-0.19606-0.48748-0.64644-2.1341-0.6582-4.2793-0.01182-2.1524 1.513-5.4555 5.2012-7.1113 3.6881-1.6558 8.3316-0.44693 10.531 2.9629 2.1997 3.4098 0.72852 8.0137 0.72852 8.0137l8.7441-14.127s0.07738-0.139 0.18555-0.39258c0.05408-0.12679 0.11621-0.28219 0.17968-0.46289 0.06348-0.1807 0.12835-0.38695 0.18946-0.61523 0.0611-0.22829 0.11905-0.4785 0.16601-0.74805 0.04697-0.26955 0.08246-0.55879 0.10352-0.86328s0.02638-0.62393 0.0098-0.95703c-0.01661-0.3331-0.05505-0.67976-0.12109-1.0352-0.03302-0.1777-0.07155-0.35698-0.11914-0.53906s-0.10435-0.36706-0.16797-0.55273c-0.06363-0.18568-0.13371-0.37206-0.21484-0.56055-0.08114-0.18848-0.17333-0.37981-0.27344-0.57031s-0.20952-0.38054-0.33008-0.57226c-0.04779-0.07601-0.10508-0.1524-0.15625-0.22852-4.4127-3.607-13.337-8.362-24.727-4.1953-2.7549 1.0079-5.0227 2.3333-6.9024 3.8164z" fill="url(#linearGradient1797)"/>
 </g>
 <metadata>
  <rdf:RDF>
   <cc:Work rdf:about="">
    <dc:format>image/svg+xml</dc:format>
    <dc:type rdf:resource="http://purl.org/dc/dcmitype/StillImage"/>
   </cc:Work>
  </rdf:RDF>
 </metadata>
 <defs>
  <style type="text/css"/>
  <style type="text/css"/>
  <linearGradient id="linearGradient1797" x1="-54.373" x2="-54.373" y1="-17.955" y2="6.7499" gradientUnits="userSpaceOnUse">
   <stop stop-color="#7222ff" offset="0"/>
   <stop stop-color="#861ce2" offset="1"/>
  </linearGradient>
  <linearGradient id="linearGradient10484" x1="-73.065" x2="-73.065" y1="-9.9712" y2="19.934" gradientUnits="userSpaceOnUse">
   <stop stop-color="#13cbd9" offset="0"/>
   <stop stop-color="#2bd4a3" offset="1"/>
  </linearGradient>
  <linearGradient id="linearGradient15046" x1="-47.786" x2="-47.786" y1="-11.66" y2="42.941" gradientUnits="userSpaceOnUse">
   <stop stop-color="#fe44f1" offset="0"/>
   <stop stop-color="#ff7e78" offset="1"/>
  </linearGradient>
 </defs>
</svg>
