<?xml version="1.0" encoding="UTF-8"?>
<!-- Created with Inkscape (http://www.inkscape.org/) -->
<svg width="64" height="64" version="1.1" viewBox="0 0 16.933 16.933" xmlns="http://www.w3.org/2000/svg" xmlns:cc="http://creativecommons.org/ns#" xmlns:dc="http://purl.org/dc/elements/1.1/" xmlns:rdf="http://www.w3.org/1999/02/22-rdf-syntax-ns#" xmlns:xlink="http://www.w3.org/1999/xlink">
 <defs>
  <linearGradient id="linearGradient85443" x1="10.848" x2="17.462" y1="-14.552" y2="-14.552" gradientTransform="matrix(0 1.1579 -1.1579 0 -24.286 -11.767)" gradientUnits="userSpaceOnUse">
   <stop stop-color="#77f2fc" offset="0"/>
   <stop stop-color="#49a7c0" offset="1"/>
  </linearGradient>
  <linearGradient id="linearGradient85445" x1="15.875" x2="15.875" y1="-12.964" y2="-6.3983" gradientTransform="matrix(4.3765 0 0 4.3765 -111.48 88.79)" gradientUnits="userSpaceOnUse">
   <stop stop-color="#693f86" offset="0"/>
   <stop stop-color="#a161e8" offset="1"/>
  </linearGradient>
  <linearGradient id="linearGradient85447" x1="17.462" x2="24.077" y1="-11.401" y2="-11.401" gradientTransform="matrix(4.3765 0 0 4.3765 -111.48 88.79)" gradientUnits="userSpaceOnUse">
   <stop stop-color="#e59f0d" offset="0"/>
   <stop stop-color="#fdd20a" offset="1"/>
  </linearGradient>
  <linearGradient id="linearGradient85449" x1="10.848" x2="17.462" y1="-14.552" y2="-14.552" gradientTransform="matrix(4.3765 0 0 4.3765 -111.48 88.79)" gradientUnits="userSpaceOnUse">
   <stop stop-color="#f35ecd" offset="0"/>
   <stop stop-color="#c94085" offset="1"/>
  </linearGradient>
 </defs>
 <metadata>
  <rdf:RDF>
   <cc:Work rdf:about="">
    <dc:format>image/svg+xml</dc:format>
    <dc:type rdf:resource="http://purl.org/dc/dcmitype/StillImage"/>
   </cc:Work>
  </rdf:RDF>
 </metadata>
 <g transform="translate(17.741 -3.983e-5)">
  <path transform="scale(.26458)" d="m-50.105 18.156c-13.895 0-13.895 13.896-13.895 13.896h20.842c8.1054 0 8.1055-6.9492 8.1055-6.9492v-6.9473zm-7.3945 6.8438a2.5 2.5 0 0 1 2.5 2.5 2.5 2.5 0 0 1-2.5 2.5 2.5 2.5 0 0 1-2.5-2.5 2.5 2.5 0 0 1 2.5-2.5z" fill="url(#linearGradient85449)"/>
  <path transform="scale(.26458)" d="m-26.947 31.947c-8.1054 0-8.1055 6.9473-8.1055 6.9473v6.9473h15.053c13.895 0 13.895-13.895 13.895-13.895zm14.447 2.0527a2.5 2.5 0 0 1 2.5 2.5 2.5 2.5 0 0 1-2.5 2.5 2.5 2.5 0 0 1-2.5-2.5 2.5 2.5 0 0 1 2.5-2.5z" fill="url(#linearGradient85447)"/>
  <path transform="scale(.26458)" d="m-48.947 32.053v15.053c-3e-6 13.895 13.895 13.895 13.895 13.895v-20.842c4e-6 -8.1054-6.9473-8.1055-6.9473-8.1055zm9.4473 19.947a2.5 2.5 0 0 1 2.5 2.5 2.5 2.5 0 0 1-2.5 2.5 2.5 2.5 0 0 1-2.5-2.5 2.5 2.5 0 0 1 2.5-2.5z" fill="url(#linearGradient85445)"/>
  <path d="m-9.2742 0.79381v5.5143c0 2.1445 1.8381 2.1445 1.8381 2.1445h1.8381v-3.9826c0-3.6763-3.6762-3.6762-3.6762-3.6762zm0.8759 1.28s1.9244-1.132e-4 1.9244 1.9244v3.5666h-0.96219s-0.9622 2.381e-4 -0.9622-1.1224z" fill="url(#linearGradient85443)"/>
  <circle cx="-7.6728" cy="3.4395" r=".52916" fill="#76f1fb" fill-rule="evenodd" style="paint-order:stroke fill markers"/>
 </g>
</svg>
