<?xml version="1.0" encoding="UTF-8"?>
<svg id="Iterm" width="64" height="64" enable-background="new 0 0 1024 1024" image-rendering="optimizeSpeed" version="1.1" viewBox="0 0 64 64" xmlns="http://www.w3.org/2000/svg" xmlns:cc="http://creativecommons.org/ns#" xmlns:dc="http://purl.org/dc/elements/1.1/" xmlns:rdf="http://www.w3.org/1999/02/22-rdf-syntax-ns#">
 <metadata>
  <rdf:RDF>
   <cc:Work rdf:about="">
    <dc:format>image/svg+xml</dc:format>
    <dc:type rdf:resource="http://purl.org/dc/dcmitype/StillImage"/>
   </cc:Work>
  </rdf:RDF>
 </metadata>
 <defs>
  <style type="text/css"/>
  <linearGradient id="linearGradient4815" x1="1.7607" x2="45.457" y1="-37.255" y2="-46.376" gradientUnits="userSpaceOnUse">
   <stop stop-color="#fe7a19" offset="0"/>
   <stop stop-color="#e94800" offset="1"/>
  </linearGradient>
  <linearGradient id="linearGradient29713" x1="22.136" x2="11.974" y1="-60.115" y2="-49.953" gradientUnits="userSpaceOnUse">
   <stop stop-color="#fbd140" offset="0"/>
   <stop stop-color="#fd9a03" offset="1"/>
  </linearGradient>
  <linearGradient id="linearGradient43587" x1="35.425" x2="27.826" y1="-33.291" y2="-23.29" gradientUnits="userSpaceOnUse">
   <stop stop-color="#f37429" offset="0"/>
   <stop stop-color="#fbd140" offset="1"/>
  </linearGradient>
 </defs>
 <mask>
  <g id="g">
   <path d="m969.75 392.05c-1.1-4.35-2.35-9-3.65-13.6-1-3.4-2-6.85-3.15-10.5-1.6-5.15-3.4-10.5-5.3-15.85-6.45-18.25-14.15-36.05-23.15-53.65-3.8-7.4-7.95-14.95-12.3-22.4-20.3-34.5-45.8-67.2-76.35-97.75-72.6-72.6-157.15-116.65-253.65-132.05-16.25-2.6-32.8-4.4-50.05-5.35-9.7-0.55-19.85-0.85-30.1-0.85-9.35 0-18.6 0.25-27.9 0.75-118.35 6.1-220.3 51.95-305.85 137.5q-138.25 138.25-138.25 333.75c0 130.35 46.1 241.65 138.25 333.8 56.7 56.65 120.55 95.9 191.1 117.55 36.75 11.25 74.8 17.85 114.75 19.95h0.4c8.5 0.45 16.6 0.7 24.5 0.7h3c10.3 0 20.5-0.3 30.1-0.8 2.5-0.15 4.75-0.3 6.95-0.45 20.2-1.45 39.9-4.05 58.7-7.7 7.95-1.55 15.8-3.3 23.4-5.15 80.8-20.3 152.15-61.6 214.65-124.1 48.6-48.6 84.4-102.5 107.35-161.8 18.45-47.65 28.65-98.8 30.55-153.5 0.2-6.05 0.3-12.25 0.3-18.5v-3c-0.2-40.65-4.95-79.5-14.3-117z" fill="#fff"/>
  </g>
 </mask>
 <g transform="matrix(.90662 0 0 .90662 10.863 70.052)">
  <path d="m9.832-52.99-3.2207 4.4141-5.7734 7.9121 0.003906 0.0078a3.8271 3.8271 0 0 0-0.79883 2.3262 3.8271 3.8271 0 0 0 3.8281 3.8262h31.92a3.0164 3.0164 0 0 1 0.14648 0.08008 3.0164 3.0164 0 0 1 0.34375 0.25977 3.0164 3.0164 0 0 1 0.30469 0.30273 3.0164 3.0164 0 0 1 0.25781 0.3457 3.0164 3.0164 0 0 1 0.20508 0.37695 3.0164 3.0164 0 0 1 0.15234 0.4043 3.0164 3.0164 0 0 1 0.0918 0.41992 3.0164 3.0164 0 0 1 2e-3 0.01953 3.0164 3.0164 0 0 1 0.0039 0.01953 3.0164 3.0164 0 0 1 2e-3 0.02148 3.0164 3.0164 0 0 1 2e-3 0.01953 3.0164 3.0164 0 0 1 2e-3 0.02148 3.0164 3.0164 0 0 1 2e-3 0.01953 3.0164 3.0164 0 0 1 2e-3 0.02148 3.0164 3.0164 0 0 1 2e-3 0.01953 3.0164 3.0164 0 0 1 2e-3 0.02148 3.0164 3.0164 0 0 1 2e-3 0.01953 3.0164 3.0164 0 0 1 2e-3 0.02148 3.0164 3.0164 0 0 1 0 2e-3 3.0164 3.0164 0 0 1 0 2e-3 3.0164 3.0164 0 0 1 0 2e-3 3.0164 3.0164 0 0 1 0 2e-3 3.0164 3.0164 0 0 1 0 2e-3 3.0164 3.0164 0 0 1 0 2e-3 3.0164 3.0164 0 0 1 0 2e-3 3.0164 3.0164 0 0 1 0 2e-3 3.0164 3.0164 0 0 1 0 2e-3 3.0164 3.0164 0 0 1 0 2e-3 3.0164 3.0164 0 0 1 2e-3 0.02148 3.0164 3.0164 0 0 1 0 2e-3 3.0164 3.0164 0 0 1 0 2e-3 3.0164 3.0164 0 0 1 0 2e-3 3.0164 3.0164 0 0 1 0 2e-3 3.0164 3.0164 0 0 1 0 2e-3 3.0164 3.0164 0 0 1 0 2e-3 3.0164 3.0164 0 0 1 0 2e-3 3.0164 3.0164 0 0 1 0 2e-3 3.0164 3.0164 0 0 1 0 2e-3 3.0164 3.0164 0 0 1 0 2e-3 3.0164 3.0164 0 0 1 2e-3 0.02148 3.0164 3.0164 0 0 1 0 2e-3 3.0164 3.0164 0 0 1 0 2e-3 3.0164 3.0164 0 0 1 0 2e-3 3.0164 3.0164 0 0 1 0 2e-3 3.0164 3.0164 0 0 1 0 2e-3 3.0164 3.0164 0 0 1 0 2e-3 3.0164 3.0164 0 0 1 0 2e-3 3.0164 3.0164 0 0 1 0 2e-3 3.0164 3.0164 0 0 1 0 2e-3 3.0164 3.0164 0 0 1 0 2e-3 3.0164 3.0164 0 0 1 0 2e-3 3.0164 3.0164 0 0 1 0 2e-3 3.0164 3.0164 0 0 1 0 2e-3 3.0164 3.0164 0 0 1 0 2e-3 3.0164 3.0164 0 0 1 0 2e-3 3.0164 3.0164 0 0 1 0 2e-3 3.0164 3.0164 0 0 1 0 2e-3 3.0164 3.0164 0 0 1 0 2e-3 3.0164 3.0164 0 0 1 0 2e-3 3.0164 3.0164 0 0 1 0 2e-3 3.0164 3.0164 0 0 1 0 2e-3 3.0164 3.0164 0 0 1 2e-3 0.01953 3.0164 3.0164 0 0 1 0 2e-3 3.0164 3.0164 0 0 1 0 2e-3 3.0164 3.0164 0 0 1 0 2e-3 3.0164 3.0164 0 0 1 0 2e-3 3.0164 3.0164 0 0 1 0 2e-3 3.0164 3.0164 0 0 1 0 2e-3 3.0164 3.0164 0 0 1 0 2e-3 3.0164 3.0164 0 0 1 0 2e-3 3.0164 3.0164 0 0 1 0 2e-3 3.0164 3.0164 0 0 1 0 2e-3 3.0164 3.0164 0 0 1 0 2e-3 3.0164 3.0164 0 0 1 0 2e-3 3.0164 3.0164 0 0 1 0 2e-3 3.0164 3.0164 0 0 1 0 2e-3 3.0164 3.0164 0 0 1 0 2e-3 3.0164 3.0164 0 0 1 0 2e-3 3.0164 3.0164 0 0 1 0 2e-3 3.0164 3.0164 0 0 1 0 2e-3 3.0164 3.0164 0 0 1 0 2e-3 3.0164 3.0164 0 0 1 0 2e-3 3.0164 3.0164 0 0 1 0 2e-3 3.0164 3.0164 0 0 1 0 2e-3 3.0164 3.0164 0 0 1 0 2e-3 3.0164 3.0164 0 0 1 0 2e-3 3.0164 3.0164 0 0 1 0 2e-3 3.0164 3.0164 0 0 1 0 2e-3 3.0164 3.0164 0 0 1 0 2e-3 3.0164 3.0164 0 0 1 0 2e-3 3.0164 3.0164 0 0 1 0 2e-3 3.0164 3.0164 0 0 1 0 2e-3 3.0164 3.0164 0 0 1 0 2e-3 3.0164 3.0164 0 0 1 0 2e-3 3.0164 3.0164 0 0 1 0 2e-3 3.0164 3.0164 0 0 1 0 2e-3 3.0164 3.0164 0 0 1 0 2e-3 3.0164 3.0164 0 0 1 0 2e-3 3.0164 3.0164 0 0 1 0 2e-3 3.0164 3.0164 0 0 1 0 2e-3 3.0164 3.0164 0 0 1 0 2e-3 3.0164 3.0164 0 0 1 0 2e-3 3.0164 3.0164 0 0 1 0 2e-3 3.0164 3.0164 0 0 1 0 2e-3 3.0164 3.0164 0 0 1 0 2e-3 3.0164 3.0164 0 0 1 0 2e-3 3.0164 3.0164 0 0 1 0 2e-3 3.0164 3.0164 0 0 1 0 2e-3 3.0164 3.0164 0 0 1 0 2e-3 3.0164 3.0164 0 0 1 0 2e-3 3.0164 3.0164 0 0 1 0 2e-3 3.0164 3.0164 0 0 1 0 2e-3 3.0164 3.0164 0 0 1 0 2e-3 3.0164 3.0164 0 0 1 0 2e-3 3.0164 3.0164 0 0 1 0 2e-3 3.0164 3.0164 0 0 1 0 2e-3 3.0164 3.0164 0 0 1 0 2e-3 3.0164 3.0164 0 0 1 0 2e-3 3.0164 3.0164 0 0 1 0 2e-3 3.0164 3.0164 0 0 1 0 2e-3 3.0164 3.0164 0 0 1 0 2e-3 3.0164 3.0164 0 0 1 0 2e-3 3.0164 3.0164 0 0 1 0 2e-3 3.0164 3.0164 0 0 1 0 2e-3 3.0164 3.0164 0 0 1-2e-3 0.05859 3.0164 3.0164 0 0 1-0.0039 0.06055 3.0164 3.0164 0 0 1-0.0039 0.05859 3.0164 3.0164 0 0 1-0.0059 0.05859 3.0164 3.0164 0 0 1-0.0059 0.05859 3.0164 3.0164 0 0 1-0.0078 0.05859 3.0164 3.0164 0 0 1-0.0078 0.05859 3.0164 3.0164 0 0 1-0.0098 0.05859 3.0164 3.0164 0 0 1-0.01172 0.05859 3.0164 3.0164 0 0 1-0.01172 0.05859 3.0164 3.0164 0 0 1-0.01367 0.05664 3.0164 3.0164 0 0 1-0.01367 0.05859 3.0164 3.0164 0 0 1-0.01563 0.05664 3.0164 3.0164 0 0 1-0.01758 0.05664 3.0164 3.0164 0 0 1-0.01758 0.05664 3.0164 3.0164 0 0 1-0.01758 0.05664 3.0164 3.0164 0 0 1-0.02148 0.05664 3.0164 3.0164 0 0 1-0.01953 0.05469 3.0164 3.0164 0 0 1-0.02344 0.05469 3.0164 3.0164 0 0 1-0.19336 0.36328l3.0527-4.1367 5.9258-8.0293-0.0039-0.0078a3.8271 3.8271 0 0 0 0.71046-2.2137 3.8271 3.8271 0 0 0-3.8262-3.8262h-31.93a3.0039 3.0039 0 0 1-0.72266-0.48242 3.0039 3.0039 0 0 1-0.65039-0.97461 3.0039 3.0039 0 0 1-0.22852-1.1504 3.0039 3.0039 0 0 1 0.22852-1.1484 3.0039 3.0039 0 0 1 0.37695-0.6582z" fill="url(#linearGradient4815)"/>
  <path d="m27.348-75.061a2.3821 2.3821 0 0 0-1.9297 0.99609l-0.0059-2e-3 -15.557 21.045a3.0039 3.0039 0 0 0-0.40039 0.68945 3.0039 3.0039 0 0 0-0.22852 1.1484 3.0039 3.0039 0 0 0 0.22852 1.1504 3.0039 3.0039 0 0 0 0.65039 0.97461 3.0039 3.0039 0 0 0 0.72266 0.48242h13.877l4.9824-23.65-0.0039-2e-3a2.3821 2.3821 0 0 0 0.04687-0.45117 2.3821 2.3821 0 0 0-2.3828-2.3809zm-15.633 20.924a3.0039 3.0039 0 0 0-0.13672 0.02539 3.0039 3.0039 0 0 1 0.13672-0.02539zm-1.0898 0.42188a3.0039 3.0039 0 0 0-0.11914 0.07813 3.0039 3.0039 0 0 1 0.11914-0.07813zm4.6055 2.6797a3.0039 3.0039 0 0 1-0.0059 0.08789 3.0039 3.0039 0 0 0 0.0059-0.08789zm-0.46875 1.457a3.0039 3.0039 0 0 1-0.07813 0.11914 3.0039 3.0039 0 0 0 0.07813-0.11914z" fill="url(#linearGradient29713)"/>
  <path d="m21.934-34.504-4.6992 22.828 0.0039 2e-3a2.3821 2.3821 0 0 0-0.04102 0.41211 2.3821 2.3821 0 0 0 2.3828 2.3809 2.3821 2.3821 0 0 0 2.0156-1.1133l14.844-19.758 2e-3 -2e-3 0.22266-0.29688a3.0039 3.0039 0 0 0 0.0293-0.03906l0.04687-0.0625 0.1582-0.21484a3.0164 3.0164 0 0 0 0.19336-0.36328 3.0164 3.0164 0 0 0 0.02344-0.05469 3.0164 3.0164 0 0 0 0.01953-0.05469 3.0164 3.0164 0 0 0 0.02148-0.05664 3.0164 3.0164 0 0 0 0.01758-0.05664 3.0164 3.0164 0 0 0 0.01758-0.05664 3.0164 3.0164 0 0 0 0.01758-0.05664 3.0164 3.0164 0 0 0 0.01563-0.05664 3.0164 3.0164 0 0 0 0.01367-0.05859 3.0164 3.0164 0 0 0 0.01367-0.05664 3.0164 3.0164 0 0 0 0.01172-0.05859 3.0164 3.0164 0 0 0 0.01172-0.05859 3.0164 3.0164 0 0 0 0.0098-0.05859 3.0164 3.0164 0 0 0 0.0078-0.05859 3.0164 3.0164 0 0 0 0.0078-0.05859 3.0164 3.0164 0 0 0 0.0059-0.05859 3.0164 3.0164 0 0 0 0.0059-0.05859 3.0164 3.0164 0 0 0 0.0039-0.05859 3.0164 3.0164 0 0 0 0.0039-0.06055 3.0164 3.0164 0 0 0 2e-3 -0.05859 3.0164 3.0164 0 0 0 0-2e-3 3.0164 3.0164 0 0 0 0-2e-3 3.0164 3.0164 0 0 0 0-2e-3 3.0164 3.0164 0 0 0 0-2e-3 3.0164 3.0164 0 0 0 0-2e-3 3.0164 3.0164 0 0 0 0-2e-3 3.0164 3.0164 0 0 0 0-2e-3 3.0164 3.0164 0 0 0 0-2e-3 3.0164 3.0164 0 0 0 0-2e-3 3.0164 3.0164 0 0 0 0-2e-3 3.0164 3.0164 0 0 0 0-2e-3 3.0164 3.0164 0 0 0 0-2e-3 3.0164 3.0164 0 0 0 0-2e-3 3.0164 3.0164 0 0 0 0-2e-3 3.0164 3.0164 0 0 0 0-2e-3 3.0164 3.0164 0 0 0 0-2e-3 3.0164 3.0164 0 0 0 0-2e-3 3.0164 3.0164 0 0 0 0-2e-3 3.0164 3.0164 0 0 0 0-2e-3 3.0164 3.0164 0 0 0 0-2e-3 3.0164 3.0164 0 0 0 0-2e-3 3.0164 3.0164 0 0 0 0-2e-3 3.0164 3.0164 0 0 0 0-2e-3 3.0164 3.0164 0 0 0 0-2e-3 3.0164 3.0164 0 0 0 0-2e-3 3.0164 3.0164 0 0 0 0-2e-3 3.0164 3.0164 0 0 0 0-2e-3 3.0164 3.0164 0 0 0 0-2e-3 3.0164 3.0164 0 0 0 0-2e-3 3.0164 3.0164 0 0 0 0-2e-3 3.0164 3.0164 0 0 0 0-2e-3 3.0164 3.0164 0 0 0 0-2e-3 3.0164 3.0164 0 0 0 0-2e-3 3.0164 3.0164 0 0 0 0-2e-3 3.0164 3.0164 0 0 0 0-2e-3 3.0164 3.0164 0 0 0 0-2e-3 3.0164 3.0164 0 0 0 0-2e-3 3.0164 3.0164 0 0 0 0-2e-3 3.0164 3.0164 0 0 0 0-2e-3 3.0164 3.0164 0 0 0 0-2e-3 3.0164 3.0164 0 0 0 0-2e-3 3.0164 3.0164 0 0 0 0-2e-3 3.0164 3.0164 0 0 0 0-2e-3 3.0164 3.0164 0 0 0 0-2e-3 3.0164 3.0164 0 0 0 0-2e-3 3.0164 3.0164 0 0 0 0-2e-3 3.0164 3.0164 0 0 0 0-2e-3 3.0164 3.0164 0 0 0 0-2e-3 3.0164 3.0164 0 0 0 0-2e-3 3.0164 3.0164 0 0 0 0-2e-3 3.0164 3.0164 0 0 0 0-2e-3 3.0164 3.0164 0 0 0 0-2e-3 3.0164 3.0164 0 0 0 0-2e-3 3.0164 3.0164 0 0 0 0-2e-3 3.0164 3.0164 0 0 0 0-2e-3 3.0164 3.0164 0 0 0 0-2e-3 3.0164 3.0164 0 0 0 0-2e-3 3.0164 3.0164 0 0 0 0-2e-3 3.0164 3.0164 0 0 0 0-2e-3 3.0164 3.0164 0 0 0 0-2e-3 3.0164 3.0164 0 0 0 0-2e-3 3.0164 3.0164 0 0 0 0-2e-3 3.0164 3.0164 0 0 0-2e-3 -0.01953 3.0164 3.0164 0 0 0 0-2e-3 3.0164 3.0164 0 0 0 0-2e-3 3.0164 3.0164 0 0 0 0-2e-3 3.0164 3.0164 0 0 0 0-2e-3 3.0164 3.0164 0 0 0 0-2e-3 3.0164 3.0164 0 0 0 0-2e-3 3.0164 3.0164 0 0 0 0-2e-3 3.0164 3.0164 0 0 0 0-2e-3 3.0164 3.0164 0 0 0 0-2e-3 3.0164 3.0164 0 0 0 0-2e-3 3.0164 3.0164 0 0 0 0-2e-3 3.0164 3.0164 0 0 0 0-2e-3 3.0164 3.0164 0 0 0 0-2e-3 3.0164 3.0164 0 0 0 0-2e-3 3.0164 3.0164 0 0 0 0-2e-3 3.0164 3.0164 0 0 0 0-2e-3 3.0164 3.0164 0 0 0 0-2e-3 3.0164 3.0164 0 0 0 0-2e-3 3.0164 3.0164 0 0 0 0-2e-3 3.0164 3.0164 0 0 0 0-2e-3 3.0164 3.0164 0 0 0 0-2e-3 3.0164 3.0164 0 0 0-2e-3 -0.02148 3.0164 3.0164 0 0 0 0-2e-3 3.0164 3.0164 0 0 0 0-2e-3 3.0164 3.0164 0 0 0 0-2e-3 3.0164 3.0164 0 0 0 0-2e-3 3.0164 3.0164 0 0 0 0-2e-3 3.0164 3.0164 0 0 0 0-2e-3 3.0164 3.0164 0 0 0 0-2e-3 3.0164 3.0164 0 0 0 0-2e-3 3.0164 3.0164 0 0 0 0-2e-3 3.0164 3.0164 0 0 0 0-2e-3 3.0164 3.0164 0 0 0-2e-3 -0.02148 3.0164 3.0164 0 0 0 0-2e-3 3.0164 3.0164 0 0 0 0-2e-3 3.0164 3.0164 0 0 0 0-2e-3 3.0164 3.0164 0 0 0 0-2e-3 3.0164 3.0164 0 0 0 0-2e-3 3.0164 3.0164 0 0 0 0-2e-3 3.0164 3.0164 0 0 0 0-2e-3 3.0164 3.0164 0 0 0 0-2e-3 3.0164 3.0164 0 0 0 0-2e-3 3.0164 3.0164 0 0 0 0-2e-3 3.0164 3.0164 0 0 0-2e-3 -0.02148 3.0164 3.0164 0 0 0-2e-3 -0.01953 3.0164 3.0164 0 0 0-2e-3 -0.02148 3.0164 3.0164 0 0 0-2e-3 -0.01953 3.0164 3.0164 0 0 0-2e-3 -0.02148 3.0164 3.0164 0 0 0-2e-3 -0.01953 3.0164 3.0164 0 0 0-2e-3 -0.02148 3.0164 3.0164 0 0 0-2e-3 -0.01953 3.0164 3.0164 0 0 0-2e-3 -0.02148 3.0164 3.0164 0 0 0-0.0039-0.01953 3.0164 3.0164 0 0 0-2e-3 -0.01953 3.0164 3.0164 0 0 0-0.0918-0.41992 3.0164 3.0164 0 0 0-0.15234-0.4043 3.0164 3.0164 0 0 0-0.20508-0.37695 3.0164 3.0164 0 0 0-0.25781-0.3457 3.0164 3.0164 0 0 0-0.30469-0.30273 3.0164 3.0164 0 0 0-0.34375-0.25977 3.0164 3.0164 0 0 0-0.14648-0.08008h-2.8965z" fill="url(#linearGradient43587)"/>
 </g>
</svg>
