<?xml version="1.0" encoding="UTF-8"?>
<svg width="64" height="64" version="1.1" viewBox="0 0 16.933 16.933" xmlns="http://www.w3.org/2000/svg">
 <g transform="matrix(.81351 0 0 .81351 34.335 1.4136)">
  <path d="m-27.409 15.681 4.5097-2.3192-4.5831-2.3931-4.4436 2.3797z" fill="#5d2379"/>
  <path d="m-27.409 15.681-4.5169-2.3326-4.3102 2.3083 4.4374 2.282z" fill="#7a2d8e"/>
  <path d="m-27.482 10.969 4.5831 2.3931v-4.8477z" fill="#9d122f"/>
  <path d="m-31.926 13.348-4.3976-2.2706-4.3743 2.2841 4.4617 2.2949z" fill="#e22f8b"/>
  <path d="m-31.798 8.7145-4.5252 2.3631 4.3976 2.2706 4.4436-2.3797z" fill="#c00e60"/>
  <path d="m-31.798 8.7145 4.3159 2.2541 4.3542-2.3321-4.2462-2.2324z" fill="#b5143f"/>
  <path d="m-27.374 6.4041 4.2462 2.2324 0.22892-0.12247v-4.4472z" fill="#de071b"/>
  <path d="m-36.323 11.078-4.3743-2.2587v4.5428z" fill="#faa58d"/>
  <path d="m-36.172 6.4305-4.5262 2.3884 4.3743 2.2587 4.5252-2.3631z" fill="#f7866f"/>
  <path d="m-36.172 6.4305 4.3733 2.2841 4.4239-2.3104-4.381-2.3037z" fill="#fc7f03"/>
  <path d="m-31.755 4.1004 4.381 2.3037 4.4751-2.3373-4.4105-2.3125z" fill="#f3470a"/>
  <path d="m-40.698 4.0669v4.7521l4.5262-2.3884z" fill="#ffd66f"/>
  <path d="m-40.698 4.0669 4.5262 2.3636 4.4162-2.33-4.4973-2.3647z" fill="#ffc857"/>
  <path d="m-36.253 1.7358 4.4973 2.3647 4.4456-2.3461-4.489-2.3538z" fill="#ffb113"/>
  <path d="m-27.409 15.681 4.5097-2.3192-4.5831-2.3931-4.4436 2.3797z" fill="#5d2379"/>
  <path d="m-27.409 15.681-4.5169-2.3326-4.3102 2.3083 4.4374 2.282z" fill="#7a2d8e"/>
  <path d="m-27.482 10.969 4.5831 2.3931v-4.8477z" fill="#9d122f"/>
  <path d="m-31.926 13.348-4.3976-2.2706-4.3743 2.2841 4.4617 2.2949z" fill="#e22f8b"/>
  <path d="m-31.798 8.7145-4.5252 2.3631 4.3976 2.2706 4.4436-2.3797z" fill="#c00e60"/>
  <path d="m-31.798 8.7145 4.3159 2.2541 4.3542-2.3321-4.2462-2.2324z" fill="#b5143f"/>
  <path d="m-27.374 6.4041 4.2462 2.2324 0.22892-0.12247v-4.4472z" fill="#de071b"/>
  <path d="m-36.323 11.078-4.3743-2.2587v4.5428z" fill="#faa58d"/>
  <path d="m-36.172 6.4305-4.5262 2.3884 4.3743 2.2587 4.5252-2.3631z" fill="#f7866f"/>
  <path d="m-36.172 6.4305 4.3733 2.2841 4.4239-2.3104-4.381-2.3037z" fill="#fc7f03"/>
  <path d="m-31.755 4.1004 4.381 2.3037 4.4751-2.3373-4.4105-2.3125z" fill="#f3470a"/>
  <path d="m-40.698 4.0669v4.7521l4.5262-2.3884z" fill="#ffd66f"/>
  <path d="m-40.698 4.0669 4.5262 2.3636 4.4162-2.33-4.4973-2.3647z" fill="#ffc857"/>
  <path d="m-36.253 1.7358 4.4973 2.3647 4.4456-2.3461-4.489-2.3538z" fill="#ffb113"/>
 </g>
</svg>
