<?xml version="1.0" encoding="UTF-8"?>
<svg width="64" height="64" version="1.1" viewBox="0 0 16.933 16.933" xmlns="http://www.w3.org/2000/svg" xmlns:cc="http://creativecommons.org/ns#" xmlns:dc="http://purl.org/dc/elements/1.1/" xmlns:rdf="http://www.w3.org/1999/02/22-rdf-syntax-ns#">
 <defs>
  <linearGradient id="linearGradient2943" x1="-28.979" x2="-71.549" y1="9.7361" y2="9.7361" gradientUnits="userSpaceOnUse">
   <stop stop-color="#006fff" offset="0"/>
   <stop stop-color="#00ffb6" offset="1"/>
  </linearGradient>
  <linearGradient id="linearGradient8677" x1="-61.396" x2="-43.392" y1="18.368" y2="55.031" gradientUnits="userSpaceOnUse">
   <stop stop-color="#0074fc" offset="0"/>
   <stop stop-color="#00feb6" offset="1"/>
  </linearGradient>
  <linearGradient id="linearGradient13422" x1="-41.612" x2="-24.41" y1="42.91" y2="20.689" gradientUnits="userSpaceOnUse">
   <stop stop-color="#006fff" offset="0"/>
   <stop stop-color="#00ffb6" offset="1"/>
  </linearGradient>
 </defs>
 <metadata>
  <rdf:RDF>
   <cc:Work rdf:about="">
    <dc:format>image/svg+xml</dc:format>
    <dc:type rdf:resource="http://purl.org/dc/dcmitype/StillImage"/>
   </cc:Work>
  </rdf:RDF>
 </metadata>
 <g transform="matrix(1.0004 0 0 1.0004 20.902 .86037)">
  <path transform="scale(.26458)" d="m-48.232 39.986c0.1654 0.19146 0.32487 0.39836 0.49414 0.57812 0.37244 0.39554 0.75499 0.7624 1.1445 1.1035 0.38954 0.34111 0.78702 0.65564 1.1914 0.94531 0.40438 0.28968 0.81545 0.55566 1.2324 0.79688s0.84026 0.45855 1.2676 0.6543c0.42732 0.19575 0.85952 0.37017 1.2949 0.52344 0.4354 0.15326 0.87321 0.28467 1.3145 0.39844s0.88525 0.20986 1.3301 0.28711c0.44483 0.07725 0.89173 0.13596 1.3379 0.17969 0.44616 0.04372 0.89069 0.07081 1.3359 0.08398 0.44524 0.01318 0.88996 0.01243 1.332-2e-3 0.44207-0.01438 0.88171-0.04112 1.3184-0.08008s0.86985-0.08985 1.2988-0.15039 0.85438-0.13179 1.2734-0.21094c0.41906-0.07915 0.83335-0.16695 1.2402-0.26172 0.26834-0.0625 0.52878-0.131 0.79102-0.19922 5.2453-6.4212 9.3608-15.765 8.4141-29.051l-12.514 8.123a14.072 14.072 0 0 1 0.22461 2.2734 14.072 14.072 0 0 1-14.072 14.072 14.072 14.072 0 0 1-1.25-0.06445z" fill="url(#linearGradient13422)"/>
  <path transform="scale(.26458)" d="m-56.824 15.947c-0.12177-0.0018-0.22026-7e-3 -0.35938-0.0059-0.3062 0.0025-0.65137 0.01279-1.0312 0.03711s-0.79304 0.06245-1.2324 0.11914c-0.43938 0.05669-0.90594 0.13284-1.3906 0.23242-0.48469 0.09958-0.9881 0.22202-1.5039 0.375-0.2579 0.07649-0.51823 0.16209-0.78125 0.25391s-0.52856 0.19038-0.79492 0.29883c-0.26637 0.10845-0.5348 0.22516-0.80273 0.35156s-0.535 0.26253-0.80274 0.4082-0.53502 0.3025-0.80078 0.46875-0.53096 0.3431-0.79297 0.53125-0.52086 0.3863-0.77734 0.59766c-0.25649 0.21136-0.51058 0.43599-0.75977 0.67188s-0.49425 0.48437-0.73438 0.74609-0.4758 0.53534-0.70508 0.82422-0.45131 0.59281-0.66797 0.91016c-0.21666 0.31734-0.42664 0.64897-0.62891 0.99609s-0.39788 0.70967-0.58398 1.0879c-0.1861 0.37822-0.36309 0.77101-0.53125 1.1816-0.12489 0.30496-0.23938 0.62966-0.35352 0.95312 3.9941 23.586 25.863 30.238 25.863 30.238s10.213-3.1067 17.961-12.592c-0.26224 0.06822-0.52267 0.13672-0.79102 0.19922-0.40688 0.09477-0.82118 0.18257-1.2402 0.26172-0.41906 0.07915-0.84446 0.15039-1.2734 0.21094-0.42898 0.06054-0.86218 0.11144-1.2988 0.15039-0.43665 0.03896-0.87628 0.0657-1.3184 0.08008s-0.88679 0.01513-1.332 2e-3c-0.44524-0.01318-0.88978-0.04026-1.3359-0.08398s-0.89306-0.10244-1.3379-0.17969c-0.44483-0.07725-0.88884-0.17334-1.3301-0.28711s-0.87905-0.24517-1.3145-0.39844c-0.4354-0.15327-0.86761-0.32769-1.2949-0.52344-0.42731-0.19575-0.8506-0.41308-1.2676-0.6543s-0.82804-0.5072-1.2324-0.79688c-0.40438-0.28967-0.80187-0.6042-1.1914-0.94531-0.38954-0.34112-0.77209-0.70798-1.1445-1.1035-0.16927-0.17977-0.32874-0.38667-0.49414-0.57812a14.072 14.072 0 0 1-12.822-14.008 14.072 14.072 0 0 1 4.2305-10.031z" fill="url(#linearGradient8677)"/>
  <path transform="scale(.26458)" d="m-46.982 0.24805c-17.169 0-25.986 11.682-25.986 11.682-0.76055 5.6548-0.63673 10.651 0.10938 15.057 0.11414-0.32347 0.22863-0.64817 0.35352-0.95312 0.16816-0.41063 0.34515-0.80342 0.53125-1.1816 0.1861-0.37822 0.38172-0.74077 0.58398-1.0879 0.20227-0.34712 0.41225-0.67875 0.62891-0.99609s0.43869-0.62128 0.66797-0.91016 0.46496-0.5625 0.70508-0.82422 0.48518-0.51021 0.73438-0.74609 0.50328-0.46052 0.75977-0.67188 0.51533-0.40951 0.77734-0.59766 0.52721-0.365 0.79297-0.53125 0.53304-0.32308 0.80078-0.46875 0.5348-0.2818 0.80274-0.4082 0.53637-0.24311 0.80273-0.35156c0.26637-0.10845 0.5319-0.20701 0.79492-0.29883 0.26302-0.09181 0.52335-0.17741 0.78125-0.25391 0.51581-0.15298 1.0192-0.27542 1.5039-0.375 0.48469-0.09958 0.95124-0.17573 1.3906-0.23242 0.43938-0.05669 0.85254-0.09482 1.2324-0.11914s0.72505-0.03464 1.0312-0.03711c0.13912-0.0011 0.2376 4e-3 0.35938 0.0059a14.072 14.072 0 0 1 9.8418-4.0391 14.072 14.072 0 0 1 9.5566 3.7988l12.146-7.9414c-4.1972-3.3565-11.448-7.5176-21.703-7.5176z" fill="url(#linearGradient2943)"/>
 </g>
</svg>
