<?xml version="1.0" encoding="UTF-8"?>
<svg width="64" height="64" version="1.1" viewBox="0 0 16.933 16.933" xmlns="http://www.w3.org/2000/svg" xmlns:cc="http://creativecommons.org/ns#" xmlns:dc="http://purl.org/dc/elements/1.1/" xmlns:rdf="http://www.w3.org/1999/02/22-rdf-syntax-ns#">
 <metadata>
  <rdf:RDF>
   <cc:Work rdf:about="">
    <dc:format>image/svg+xml</dc:format>
    <dc:type rdf:resource="http://purl.org/dc/dcmitype/StillImage"/>
   </cc:Work>
  </rdf:RDF>
 </metadata>
 <defs>
  <linearGradient id="linearGradient59278" x1="-157.45" x2="-157.45" y1="-13.691" y2="67.425" gradientTransform="matrix(.14315 0 0 .14315 30.632 2.7606)" gradientUnits="userSpaceOnUse">
   <stop stop-color="#01dfff" offset="0"/>
   <stop stop-color="#d546fb" offset="1"/>
  </linearGradient>
  <linearGradient id="linearGradient74124" x1="-40.247" x2="-40.247" y1="5.5148" y2="10.201" gradientTransform="matrix(.54105 0 0 .45486 30.632 3.6398)" gradientUnits="userSpaceOnUse">
   <stop stop-color="#682e99" offset="0"/>
   <stop stop-color="#8d7afc" stop-opacity="0" offset="1"/>
  </linearGradient>
  <linearGradient id="linearGradient88101" x1="-41.18" x2="-41.18" y1="19.054" y2="24.63" gradientTransform="matrix(.62899 0 0 .62899 33.794 .52546)" gradientUnits="userSpaceOnUse">
   <stop stop-color="#d049fb" offset="0"/>
   <stop stop-color="#03ddff" offset="1"/>
  </linearGradient>
 </defs>
 <g transform="translate(-21.833 .89722)" fill="#5e4aa6" stroke-width=".26458">
  <circle cx="-330.35" cy="-328.38" r="0"/>
  <circle cx="-312.11" cy="-326.25" r="0"/>
  <circle cx="-306.02" cy="-333.07" r="0"/>
  <circle cx="-308.84" cy="-326.01" r="0"/>
 </g>
 <g transform="matrix(1.0386 0 0 1.0386 .13165 -.29521)">
  <circle cx="7.813" cy="14.235" r="1.8434" fill="url(#linearGradient88101)" fill-rule="evenodd" style="paint-order:stroke fill markers"/>
  <g transform="matrix(1.1643 0 0 .92856 -1.8327 .056706)">
   <path d="m11.223 0.79374c-0.09899-1.1995e-4 -0.15797 0.00699-0.15797 0.00699h-6.8594s-0.6657-0.089513-0.6657 0.67045c0 0.75996 0.75725 2.4811 2.4025 2.4811h4.9057s0.4862 0.049754 0.4862-0.55582c0-0.60557-0.64389-0.57288-0.64389-0.57288h-4.649s-1.0096-0.00485-1.2458-0.88657h5.8381s1.578-0.096688 1.578 1.4007c0 1.4974-1.5998 1.5064-1.5998 1.5064h-2.4363c0-1e-7 -1.4825 0.03205-1.4804 1.6264l0.00195 1.5293v2.6698c0 0.46073 0.060635 1.7533 1.6308 1.7533 1.5702 0 1.5403-1.4343 1.5403-1.4343v-4.8392h0.34333c0.0066-1.091e-4 0.02292-0.00168 0.02292-0.00168h0.76104c1.7163 0 2.7802-2.0358 2.268-3.7693-0.42757-1.4472-1.6115-1.5842-2.0404-1.5847zm-2.875 5.3557c0.00162 0 0.00314 5.465e-4 0.00476 5.573e-4v-5.573e-4h0.50298v4.6653c0 0.28122-0.22652 0.50745-0.50773 0.50745-0.28122 0-0.50745-0.22624-0.50745-0.50745v-4.0305c0-0.39179 0.22624-0.63476 0.50745-0.63476z" fill="url(#linearGradient59278)"/>
   <path d="m9.8684 6.1483h-1.0124v2.1314h1.0124z" fill="url(#linearGradient74124)"/>
  </g>
 </g>
</svg>
