<?xml version="1.0" encoding="UTF-8"?>
<svg width="64" height="64" version="1.1" viewBox="0 0 64 64" xmlns="http://www.w3.org/2000/svg" xmlns:xlink="http://www.w3.org/1999/xlink">
 <defs>
  <linearGradient id="linearGradient1059" x1="163.41" x2="186" y1="-10.41" y2="-29.162" gradientTransform="matrix(.9001 0 0 .7133 -124.38 -36.514)" gradientUnits="userSpaceOnUse">
   <stop stop-color="#9b39c5" offset="0"/>
   <stop stop-color="#df86f4" offset="1"/>
  </linearGradient>
  <linearGradient id="linearGradient1061" x1="153.34" x2="162.86" y1="-23.453" y2="-3.5996" gradientTransform="matrix(.9001 0 0 .7133 -124.38 -36.514)" gradientUnits="userSpaceOnUse">
   <stop stop-color="#6a21b4" offset="0"/>
   <stop stop-color="#3b0c92" offset="1"/>
  </linearGradient>
  <linearGradient id="linearGradient1063" x1="152.29" x2="165.24" y1="-19.549" y2="-1.3359" gradientTransform="matrix(.9001 0 0 .7133 -124.38 -36.514)" gradientUnits="userSpaceOnUse">
   <stop stop-color="#441381" offset="0"/>
   <stop stop-color="#280779" offset="1"/>
  </linearGradient>
  <linearGradient id="linearGradient1065" x1="159.08" x2="163.26" y1="-36.709" y2="-9.7539" gradientTransform="matrix(.9001 0 0 .7133 -124.38 -36.514)" gradientUnits="userSpaceOnUse">
   <stop stop-color="#b244d9" offset="0"/>
   <stop stop-color="#7520bb" offset="1"/>
  </linearGradient>
  <linearGradient id="linearGradient1067" x1="194.86" x2="194.94" y1="7.0853" y2="-9.9609" gradientTransform="matrix(.9001 0 0 .7133 -124.38 -36.514)" gradientUnits="userSpaceOnUse">
   <stop stop-color="#22bfed" offset="0"/>
   <stop stop-color="#209be5" offset="1"/>
  </linearGradient>
  <linearGradient id="linearGradient1069" x1="175.82" x2="189.43" y1="-17.188" y2="3.7852" gradientTransform="matrix(.9001 0 0 .7133 -124.38 -36.514)" gradientUnits="userSpaceOnUse">
   <stop stop-color="#1b5fca" offset="0"/>
   <stop stop-color="#1b9aed" offset="1"/>
  </linearGradient>
  <linearGradient id="linearGradient1071" x1="147.14" x2="170.53" y1="6.6777" y2="36.178" gradientTransform="matrix(.9001 0 0 .7133 -124.38 -36.514)" gradientUnits="userSpaceOnUse">
   <stop stop-color="#f7c43e" offset="0"/>
   <stop stop-color="#f8995d" offset="1"/>
  </linearGradient>
  <linearGradient id="linearGradient1073" x1="155.58" x2="170.53" y1="1.4211" y2="36.178" gradientTransform="matrix(.9001 0 0 .7133 -124.38 -36.514)" gradientUnits="userSpaceOnUse">
   <stop stop-color="#fce57d" offset="0"/>
   <stop stop-color="#feb076" offset="1"/>
  </linearGradient>
 </defs>
 <g transform="translate(-.7193 72.305)">
  <g stroke-width=".80127">
   <path d="m22.714-43.94c1.0549-3.4153 3.3974-7.5817 6.9335-11.002 8.0213-7.7593 13.402-2.3739 13.402-2.3739-6.1348-10.187-10.799-12.072-10.799-12.072 0 1e-6 -4.3881-2.2119-7.6016 0.23266-1.4703 1.1185-3.6628 3.4119-5.8366 6.4559-0.0072 0.16392-0.01728 0.32869-0.01755 0.49039-4.05e-4 0.25312 0.0081 0.50301 0.02809 0.74533 0.0198 0.24233 0.05131 0.47718 0.09493 0.70215 0.04365 0.22498 0.09931 0.4398 0.17052 0.64086 0.03565 0.10053 0.07461 0.19786 0.11778 0.29117 0.04321 0.09332 0.09118 0.1822 0.1424 0.26749s0.10553 0.16737 0.16525 0.24381c0.05967 0.07644 0.12471 0.14778 0.19338 0.21455 0.06867 0.06676 0.14166 0.12902 0.21975 0.18529 0.07812 0.05627 0.16168 0.1069 0.24964 0.15186 0.17593 0.08993 0.36105 0.16909 0.55376 0.23963 0.19272 0.07053 0.39142 0.13218 0.59596 0.18808 0.20456 0.05589 0.4144 0.10584 0.62584 0.15186s0.42477 0.08729 0.63816 0.12817c0.42676 0.08177 0.85212 0.15821 1.257 0.24799 0.20242 0.04489 0.40116 0.09366 0.59069 0.14767 0.18952 0.05402 0.36979 0.11321 0.54146 0.18111 0.17168 0.06791 0.33457 0.14472 0.48345 0.23127 0.07444 0.04327 0.14491 0.0891 0.21272 0.13792 0.06778 0.04883 0.13281 0.09967 0.19338 0.15464s0.11781 0.11383 0.17052 0.17554c0.05275 0.06171 0.09993 0.1274 0.14415 0.19644 0.04419 0.06904 0.08443 0.14175 0.11955 0.21873 0.03511 0.07697 0.06597 0.15831 0.09141 0.24381 0.02539 0.0855 0.04645 0.17427 0.06157 0.26888s0.02403 0.19382 0.02808 0.29814c0.0045 0.10432 0.0018 0.21416-0.0054 0.32879s-0.0208 0.2353-0.04042 0.36083-0.04491 0.25585-0.07731 0.39287c-0.03241 0.13702-0.07191 0.27998-0.11778 0.42909-0.04591 0.14911-0.09829 0.30492-0.15822 0.46671-0.05995 0.16179-0.12758 0.32926-0.20217 0.50432-0.29836 0.70027-0.57748 1.362-0.83857 1.9867-0.26109 0.62472-0.50281 1.2127-0.7243 1.7693-0.22148 0.55666-0.42345 1.0809-0.60299 1.577-0.17954 0.49612-0.33763 0.96402-0.4729 1.4071-0.13528 0.4431-0.24711 0.86188-0.33578 1.2594-0.04437 0.19878-0.0838 0.39214-0.11602 0.58095-0.03223 0.1888-0.05752 0.37331-0.07731 0.55309z" fill="url(#linearGradient1059)"/>
   <path d="m22.213-39.082c-0.25769-1.0804-0.12999-2.6171 0.36566-4.3899-0.21241-0.10522-0.39375-0.19409-0.6364-0.31625-0.24801-0.12486-0.51166-0.25997-0.79286-0.4068-0.2812-0.14684-0.57884-0.3061-0.89482-0.47925-0.31599-0.17315-0.64969-0.36043-1.0021-0.56424-0.35238-0.2038-0.72421-0.42436-1.1146-0.66315-0.19518-0.11939-0.38156-0.24107-0.5608-0.36501s-0.35116-0.2496-0.5151-0.37755c-0.16392-0.12794-0.32013-0.25727-0.46938-0.38869s-0.29197-0.26548-0.42719-0.39984-0.26319-0.27004-0.38501-0.4068c-0.12181-0.13677-0.23727-0.27374-0.34632-0.41237-0.10905-0.13864-0.2125-0.27797-0.30941-0.41795s-0.18708-0.28135-0.2725-0.42213-0.16453-0.28108-0.23908-0.42213c-0.07453-0.14106-0.14488-0.28273-0.2092-0.42352-0.06436-0.14079-0.12283-0.28074-0.17756-0.42073-0.05473-0.14-0.1054-0.27928-0.15119-0.41795-0.04573-0.13866-0.0874-0.27697-0.12481-0.41377-0.03744-0.1368-0.07048-0.2724-0.1002-0.4068-0.02979-0.13441-0.05643-0.26836-0.07912-0.39984-0.02268-0.13148-0.04168-0.26068-0.05797-0.38869-0.03258-0.25602-0.05257-0.50499-0.06328-0.74397-0.0018-0.03983-4.95e-4 -0.07495-0.0018-0.11424-0.35194 0.90924-0.66909 1.8391-0.94582 2.7849 0.0054 0.20432 0.0111 0.41757 0.02637 0.65897 0.0092 0.14545 0.02124 0.29725 0.03519 0.45417 0.01396 0.15693 0.02979 0.3193 0.04924 0.48621s0.04284 0.33728 0.06858 0.51268 0.05338 0.35534 0.08614 0.53776 0.07012 0.36793 0.11076 0.55588c0.04059 0.18794 0.08434 0.37784 0.13361 0.5698 0.04924 0.19196 0.10477 0.38644 0.16349 0.58095 0.05869 0.1945 0.12093 0.38958 0.18987 0.58513 0.06895 0.19555 0.1433 0.39142 0.22326 0.58653 0.07993 0.19511 0.16667 0.38916 0.25843 0.58234s0.18924 0.38562 0.29359 0.57538c0.10434 0.18976 0.21452 0.3766 0.33226 0.56145 0.11773 0.18484 0.24254 0.36768 0.37445 0.54612 0.06598 0.08922 0.13428 0.17735 0.20392 0.2647 0.06967 0.08734 0.14104 0.17385 0.21448 0.25913 0.07345 0.08527 0.14945 0.16914 0.22678 0.25216 0.07732 0.08303 0.15601 0.16461 0.23733 0.2452 0.08128 0.08059 0.16424 0.16026 0.24963 0.23823 0.08542 0.07796 0.17237 0.15472 0.26194 0.22987 0.08956 0.07515 0.18214 0.14797 0.276 0.22012s0.19006 0.14279 0.28831 0.21176c0.09825 0.06898 0.19789 0.1364 0.30062 0.20201 0.10272 0.0656 0.20737 0.1302 0.31468 0.19226 0.1073 0.06205 0.21852 0.12141 0.3305 0.17972 0.11198 0.0583 0.22606 0.11558 0.34281 0.16996 0.11676 0.05438 0.23525 0.10717 0.35688 0.15743 0.12163 0.05027 0.24609 0.09753 0.37269 0.14349 0.12661 0.04596 0.25509 0.08948 0.38676 0.13096s0.26573 0.08162 0.40258 0.11842c0.13685 0.03681 0.27629 0.07115 0.41841 0.10309 0.14212 0.03195 0.28674 0.06087 0.43422 0.08777s0.29886 0.05077 0.4518 0.07244c0.15295 0.02167 0.30736 0.04087 0.46587 0.05712 0.15852 0.01625 0.32103 0.02975 0.4852 0.0404 0.04726 0.0031 0.09645 0.0044 0.14416 7e-3z" fill="url(#linearGradient1061)"/>
   <path d="m22.213-39.082c-0.0477-0.0026-0.09691-0.0039-0.14416-7e-3 -0.16418-0.01065-0.32669-0.02415-0.48521-0.0404s-0.31292-0.03545-0.46587-0.05712c-0.15294-0.02167-0.30432-0.04554-0.4518-0.07244s-0.29211-0.05582-0.43422-0.08777c-0.14212-0.03194-0.28156-0.06629-0.41841-0.10309-0.13684-0.03681-0.2709-0.07694-0.40258-0.11842s-0.26016-0.085-0.38676-0.13095c-0.12661-0.04597-0.25106-0.09323-0.37269-0.1435s-0.24012-0.10305-0.35688-0.15742c-0.11675-0.05438-0.23083-0.11166-0.34281-0.16996-0.11198-0.05831-0.2232-0.11767-0.3305-0.17972-0.10731-0.06205-0.21196-0.12665-0.31468-0.19226-0.10273-0.0656-0.20238-0.13304-0.30062-0.20201-0.09825-0.06898-0.19445-0.13961-0.28831-0.21176-0.09386-0.07216-0.18643-0.14496-0.276-0.22012-0.08956-0.07515-0.17654-0.15191-0.26195-0.22987-0.08542-0.07796-0.16832-0.15765-0.24963-0.23823-0.08128-0.08059-0.16001-0.16217-0.23733-0.2452s-0.15335-0.16688-0.22678-0.25217c-0.07345-0.08527-0.14483-0.17178-0.21448-0.25913-0.06967-0.08734-0.13797-0.17548-0.20392-0.2647-0.13191-0.17845-0.25672-0.36127-0.37445-0.54612-0.11774-0.18484-0.22791-0.37169-0.33226-0.56144-0.10436-0.18976-0.20183-0.3822-0.29359-0.57538-0.09175-0.19318-0.17847-0.38724-0.25843-0.58234-0.07993-0.19511-0.15432-0.39097-0.22326-0.58652-0.06895-0.19555-0.13115-0.39062-0.18986-0.58513-0.05869-0.1945-0.11422-0.38898-0.16349-0.58095-0.04933-0.19196-0.09298-0.38187-0.13361-0.56981-0.04059-0.18793-0.07795-0.37346-0.11076-0.55588-0.03276-0.18242-0.06039-0.36235-0.08614-0.53776-0.02565-0.17541-0.04915-0.34577-0.06858-0.51268-0.01945-0.16691-0.03528-0.32929-0.04924-0.48621s-0.02592-0.30872-0.03519-0.45417c-0.01531-0.2414-0.02115-0.45464-0.02637-0.65897-0.10735 0.36692-0.20993 0.73598-0.30413 1.1075-2.5722 10.147 6.614 12.823 11.958 11.884-1.1677 0.15847-1.8707-0.473-2.143-1.6147z" fill="url(#linearGradient1063)"/>
   <path d="m18.811-62.699c-1.9015 2.6628-3.7881 5.9025-5.1632 9.4555 9.01e-4 0.03929-2.7e-5 0.07441 0.0018 0.11424 0.01073 0.23896 0.03069 0.48792 0.06327 0.74397 0.01629 0.12801 0.03528 0.25722 0.05797 0.38869 0.02268 0.13148 0.04933 0.26543 0.07912 0.39984s0.06274 0.27 0.1002 0.4068c0.03744 0.1368 0.07903 0.2751 0.12481 0.41377 0.04582 0.13866 0.09646 0.27795 0.15119 0.41795 0.05473 0.13999 0.11323 0.27994 0.17756 0.42073 0.06436 0.14079 0.13464 0.28247 0.2092 0.42352 0.07453 0.14106 0.15367 0.28135 0.23908 0.42213 0.08542 0.14078 0.17558 0.28215 0.27249 0.42213s0.20036 0.27931 0.30941 0.41795 0.22451 0.27561 0.34632 0.41237c0.12182 0.13676 0.24979 0.27244 0.38501 0.4068s0.27794 0.26842 0.42719 0.39984 0.30546 0.26075 0.46938 0.38869c0.16393 0.12794 0.33586 0.25361 0.5151 0.37755s0.36562 0.24562 0.5608 0.36501c0.39037 0.23878 0.7622 0.45934 1.1146 0.66315 0.35237 0.2038 0.68607 0.39108 1.0021 0.56423 0.31598 0.17315 0.61362 0.33241 0.89482 0.47925 0.2812 0.14683 0.54484 0.28195 0.79286 0.4068 0.24265 0.12216 0.42399 0.21103 0.63639 0.31625 0.04347-0.15536 0.08632-0.30932 0.13537-0.4681 0.01989-0.17977 0.0451-0.36428 0.07731-0.55309 0.03223-0.1888 0.07174-0.38217 0.11602-0.58095 0.08866-0.39756 0.2005-0.8163 0.33578-1.2594s0.29336-0.91096 0.4729-1.4071c0.17954-0.49612 0.38151-1.0204 0.60299-1.577 0.22149-0.55666 0.46321-1.1446 0.7243-1.7693 0.26109-0.62471 0.54021-1.2864 0.83856-1.9867 0.07461-0.17506 0.14224-0.34253 0.20217-0.50432 0.05995-0.16179 0.11234-0.3176 0.15822-0.46671 0.04591-0.14911 0.08533-0.29208 0.11778-0.42909 0.03241-0.13702 0.05769-0.26734 0.07732-0.39287 0.01962-0.12553 0.03295-0.2462 0.04042-0.36083 0.0072-0.11463 0.0093-0.22446 0.0054-0.32879-0.0045-0.10432-0.01305-0.20352-0.02808-0.29814-0.01512-0.09461-0.03609-0.18339-0.06157-0.26888-0.02539-0.0855-0.05625-0.16683-0.09141-0.24381-0.03511-0.07697-0.07533-0.14969-0.11955-0.21873-0.04419-0.06904-0.09144-0.13473-0.14415-0.19644-0.05275-0.06171-0.10996-0.12057-0.17052-0.17554-0.06057-0.05497-0.12557-0.10582-0.19338-0.15464-0.06778-0.04883-0.13827-0.09465-0.21272-0.13792-0.14888-0.08654-0.31177-0.16336-0.48345-0.23127s-0.35194-0.1271-0.54146-0.18111c-0.18952-0.05402-0.38826-0.10279-0.59069-0.14768-0.40484-0.08977-0.8302-0.16621-1.257-0.24799-0.21338-0.04089-0.42672-0.08216-0.63816-0.12817-0.21144-0.04602-0.42129-0.09596-0.62584-0.15186-0.20455-0.05589-0.40324-0.11754-0.59596-0.18808-0.19272-0.07053-0.37783-0.1497-0.55377-0.23963-0.08794-0.04496-0.17155-0.09558-0.24964-0.15185-0.07812-0.05627-0.15107-0.11852-0.21975-0.18529s-0.13366-0.13811-0.19338-0.21455c-0.05967-0.07644-0.11404-0.15852-0.16525-0.24381-0.05122-0.08529-0.09922-0.17417-0.1424-0.26749-0.04321-0.09332-0.08217-0.19064-0.11778-0.29117-0.07119-0.20106-0.12686-0.41588-0.17052-0.64086-0.04365-0.22498-0.07516-0.45983-0.09493-0.70215-0.0198-0.24233-0.02853-0.49223-0.02808-0.74533 2.62e-4 -0.16171 0.01035-0.32648 0.01755-0.49039z" fill="url(#linearGradient1065)"/>
   <path d="m51.095-43.62c-0.05752-0.0045-0.11194-0.01312-0.17052-0.01532-0.08217-0.0031-0.16576-0.0034-0.24964-0.0014-0.08389 2e-3 -0.16812 0.0061-0.25315 0.01393-0.08506 0.0078-0.17104 0.01912-0.25666 0.03343-0.08559 0.01431-0.171 0.03141-0.25667 0.05294-0.08569 0.02154-0.17151 0.04716-0.25667 0.07662-0.08515 0.02946-0.17082 0.06361-0.25491 0.1017-0.08407 0.0381-0.16717 0.08072-0.24963 0.12817-0.08245 0.04745-0.16408 0.09853-0.24437 0.15603-0.08029 0.05751-0.15801 0.1212-0.23557 0.18947-0.07759 0.06827-0.15427 0.14177-0.22853 0.22152-0.07426 0.07974-0.14757 0.16581-0.218 0.25774-0.07039 0.09192-0.1379 0.18914-0.20392 0.29396-0.06607 0.10482-0.13055 0.21734-0.19162 0.33575-0.06102 0.11841-0.11848 0.24343-0.17404 0.37615-0.05554 0.13272-0.10872 0.27299-0.15822 0.42073s-0.096 0.30324-0.13888 0.46671c-0.04284 0.16347-0.08208 0.33417-0.11778 0.51408-0.03574 0.1799-0.06697 0.36858-0.09493 0.56562-0.05599 0.3941-0.10198 0.76088-0.13888 1.1034-0.03691 0.34253-0.06462 0.66104-0.08794 0.95568-0.04654 0.58934-0.07209 1.087-0.09669 1.5074-0.01224 0.21021-0.02376 0.4004-0.0387 0.57398-0.01494 0.17359-0.0333 0.33019-0.05626 0.47089-0.02304 0.1407-0.0514 0.26598-0.08794 0.37755-0.01827 0.05578-0.03888 0.10823-0.06157 0.15743-0.02259 0.0492-0.04789 0.09484-0.07561 0.13792s-0.05797 0.08377-0.09141 0.1212c-0.03348 0.03743-0.06913 0.07224-0.109 0.10448-0.03988 0.03226-0.08308 0.06162-0.13009 0.08916-0.01136 0.0066-0.02511 0.01173-0.03691 0.01811 2.368 2.1291 4.1278 3.455 7.3854 1.5534 3.35-1.9557-0.86635-8.5282-1.5136-9.7116-0.09338-0.17076-0.60393-1.095-0.90712-1.6467z" fill="url(#linearGradient1067)"/>
   <path d="m42.773-51.906c-0.28778-0.0017-0.56874 0.0051-0.84384 0.01811-0.2751 0.013-0.54438 0.03201-0.80693 0.05851-0.26255 0.02651-0.51811 0.06007-0.76824 0.09891-0.25014 0.03885-0.49525 0.08372-0.73309 0.13374s-0.46873 0.10437-0.6944 0.16439c-0.22568 0.06002-0.44561 0.12479-0.65925 0.19365-0.21365 0.06886-0.4206 0.1422-0.62233 0.21873-0.20174 0.07652-0.39897 0.1566-0.58893 0.23963-0.18996 0.08302-0.37369 0.16939-0.55201 0.25774s-0.35006 0.17916-0.51685 0.27167c-0.1668 0.0925-0.32804 0.18593-0.48345 0.28142-0.1554 0.0955-0.3059 0.19246-0.45005 0.28978-0.14414 0.09731-0.28187 0.19599-0.41488 0.29396-0.13302 0.09796-0.26124 0.19512-0.38324 0.29257-0.13574 0.1084-0.24866 0.21281-0.37094 0.31904 3.8023 4.8336 9.983 12.919 12.048 14.785 0.06832 0.06171 0.13142 0.11508 0.19865 0.17554 0.01174-0.0064 0.02557-0.01147 0.0369-0.01811 0.04698-0.02754 0.09021-0.05691 0.13009-0.08916s0.07552-0.06705 0.109-0.10448 0.06372-0.07812 0.09141-0.1212c0.02772-0.04308 0.05292-0.08873 0.07561-0.13792 0.02259-0.0492 0.0433-0.10165 0.06157-0.15743 0.03646-0.11156 0.0649-0.23684 0.08794-0.37755 0.02295-0.14071 0.04131-0.2973 0.05625-0.47089 0.01494-0.17358 0.02637-0.36378 0.0387-0.57398 0.02457-0.42041 0.05013-0.91809 0.09669-1.5074 0.02331-0.29467 0.05103-0.6132 0.08794-0.95568s0.08289-0.70929 0.13888-1.1034c0.02799-0.19705 0.05922-0.38572 0.09493-0.56562 0.03574-0.1799 0.07489-0.35061 0.11778-0.51408 0.04284-0.16347 0.08938-0.31897 0.13889-0.46671 0.0495-0.14775 0.10265-0.28801 0.15822-0.42073 0.05554-0.13272 0.11298-0.25774 0.17404-0.37615 0.06111-0.11842 0.12559-0.23094 0.19162-0.33575 0.06607-0.10481 0.1335-0.20204 0.20392-0.29396 0.07039-0.09192 0.14373-0.178 0.21799-0.25774s0.15098-0.15325 0.22854-0.22152c0.07759-0.06827 0.15528-0.13197 0.23557-0.18947 0.08029-0.05751 0.1619-0.10858 0.24437-0.15603 0.08245-0.04745 0.16554-0.09007 0.24963-0.12817 0.08407-0.0381 0.16975-0.07224 0.25491-0.1017 0.08515-0.02946 0.171-0.0551 0.25667-0.07662 0.08569-0.02153 0.17104-0.03863 0.25667-0.05294 0.08561-0.01431 0.17163-0.02564 0.25666-0.03343 0.08506-0.0078 0.16927-0.01193 0.25315-0.01393 0.08389-2e-3 0.16746-0.0017 0.24964 0.0014 0.0586 0.0022 0.11305 0.01084 0.17052 0.01532-0.98812-1.798-2.6223-4.7596-4.3721-7.8171-0.06139-0.01359-0.12538-0.03164-0.18635-0.04458-0.33977-0.0721-0.67373-0.13533-1.0003-0.18808-0.32658-0.05274-0.64636-0.09501-0.95986-0.12956-0.31351-0.03455-0.62061-0.06048-0.92116-0.07802-0.30058-0.01753-0.59474-0.02757-0.88251-0.02926z" fill="url(#linearGradient1069)"/>
   <path d="m33.884-48.774c0.12228-0.10623 0.2352-0.21063 0.37094-0.31904 0.12201-0.09744 0.25023-0.1946 0.38324-0.29257s0.27074-0.19664 0.41488-0.29396c0.14415-0.09731 0.29465-0.19429 0.45005-0.28978 0.15541-0.0955 0.31665-0.18891 0.48345-0.28142s0.33853-0.18332 0.51685-0.27167 0.36206-0.17472 0.55201-0.25774c0.18996-0.08302 0.3872-0.1631 0.58893-0.23963 0.20174-0.07652 0.40869-0.14986 0.62233-0.21873 0.21364-0.06886 0.43357-0.13362 0.65925-0.19365 0.22567-0.06002 0.45656-0.11437 0.6944-0.16439s0.48296-0.0949 0.73309-0.13374c0.25013-0.03885 0.50569-0.07241 0.76824-0.09891 0.26255-0.02651 0.53182-0.04552 0.80693-0.05851 0.2751-0.013 0.55606-0.01979 0.84384-0.01811 0.28777 0.0017 0.58193 0.01172 0.88251 0.02926 0.30059 0.01753 0.60768 0.04346 0.92116 0.07802 0.31351 0.03455 0.63329 0.07682 0.95986 0.12956s0.66053 0.11598 1.0003 0.18808c0.06094 0.01294 0.12494 0.03099 0.18635 0.04458-1.4351-2.5074-2.7501-4.7236-3.3209-5.4626-0.09605-0.12436-0.2094-0.25876-0.33929-0.39844-0.19063-0.07895-0.39035-0.15819-0.61179-0.23266-0.25452-0.0856-0.52864-0.16619-0.81922-0.23545-0.14529-0.03462-0.29492-0.06629-0.44829-0.09473-0.15338-0.02845-0.3103-0.05296-0.47115-0.07384-0.16085-0.02087-0.32631-0.03825-0.49399-0.05015-0.1677-0.01191-0.33765-0.01936-0.51158-0.0209-0.17394-0.0016-0.35138 0.0024-0.53092 0.01254-0.17954 0.01021-0.36221 0.02678-0.54674 0.05015s-0.37014 0.05403-0.55904 0.09195c-0.18891 0.03791-0.38044 0.08407-0.57311 0.13792-0.19266 0.05385-0.3861 0.11549-0.5819 0.18668s-0.39412 0.1511-0.59244 0.24102-0.3975 0.18948-0.59772 0.29953c-0.20023 0.11005-0.4015 0.23066-0.60299 0.36222-0.2015 0.13157-0.40259 0.27461-0.60476 0.42909s-0.4043 0.31996-0.60651 0.49875-0.40487 0.37089-0.60651 0.57538c-0.20163 0.20449-0.40254 0.4218-0.60299 0.6534-0.20044 0.2316-0.40084 0.4769-0.59947 0.73698s-0.39625 0.53478-0.59245 0.82472c-0.14667 0.21677-0.29097 0.45128-0.43598 0.68544 0.48148 0.51076 1.5122 1.7942 2.811 3.4453z" fill="#1037ba"/>
   <path d="m31.073-52.219c0.14501-0.23416 0.28931-0.46867 0.43598-0.68544 0.1962-0.28997 0.39382-0.56467 0.59245-0.82472 0.19863-0.26008 0.39903-0.50539 0.59947-0.73698 0.20045-0.23159 0.40136-0.4489 0.60299-0.6534 0.20164-0.20449 0.4043-0.39659 0.60651-0.57538 0.20222-0.17879 0.40434-0.34428 0.60651-0.49875 0.20217-0.15448 0.40325-0.29753 0.60476-0.42909 0.2015-0.13157 0.40276-0.25218 0.60299-0.36222 0.20022-0.11005 0.3994-0.20961 0.59772-0.29953s0.39664-0.16982 0.59244-0.24102c0.19581-0.07119 0.38924-0.13283 0.5819-0.18668 0.19267-0.05385 0.3842-0.10001 0.57311-0.13792 0.1889-0.03791 0.37451-0.06858 0.55904-0.09195s0.36719-0.03994 0.54674-0.05015c0.17954-0.01021 0.35699-0.01408 0.53092-0.01254 0.17392 0.0016 0.34388 9e-3 0.51158 0.0209 0.16769 0.01191 0.33314 0.02928 0.49399 0.05015s0.31777 0.04539 0.47115 0.07384 0.303 0.06011 0.44829 0.09473c0.29058 0.06926 0.5647 0.14984 0.81922 0.23545 0.22143 0.07447 0.42116 0.15371 0.61179 0.23266-1.9148-2.0592-7.4843-5.2749-16.102 5.3679 0 0 2.3754-2.0313 4.0012-0.41098 0.02764 0.02756 0.07803 0.08649 0.11076 0.1212z" fill="#0d1680"/>
   <path d="m29.117-10.709c0.04464-0.0293 0.09087-0.05393 0.13536-0.08359 0.38489-0.25654 0.76696-0.52664 1.1427-0.80803s0.74666-0.57428 1.1111-0.87772c0.36439-0.30342 0.72149-0.61778 1.0724-0.94041 0.35088-0.3226 0.69501-0.65436 1.0302-0.99334 0.33519-0.33896 0.66191-0.68542 0.97921-1.0379 0.31729-0.35249 0.62571-0.71094 0.92296-1.0742 0.29723-0.36319 0.58291-0.73092 0.8579-1.102 0.27499-0.37105 0.53878-0.7454 0.78934-1.1215 0.25056-0.37612 0.48805-0.75296 0.71199-1.1312 0.22394-0.37829 0.43421-0.75774 0.62936-1.1354s0.37553-0.75424 0.53971-1.1284c0.16418-0.3742 0.31199-0.74526 0.44302-1.1131 0.13102-0.36791 0.24537-0.73206 0.34105-1.0908s0.17214-0.71337 0.2303-1.0602c0.05815-0.34684 0.09758-0.68636 0.11603-1.0184 0.01845-0.33205 0.01638-0.65661-0.0072-0.97102-0.01174-0.15721-0.02835-0.31164-0.05094-0.46392s-0.05068-0.3016-0.08434-0.4486c-0.03375-0.14699-0.07263-0.29192-0.11778-0.43327-0.04519-0.14135-0.09782-0.27981-0.1547-0.41516-0.05689-0.13535-0.11925-0.26666-0.1881-0.39566-0.06886-0.129-0.14393-0.25525-0.22502-0.37755-0.0811-0.1223-0.16834-0.24141-0.26195-0.35665-0.09361-0.11523-0.19246-0.22654-0.29886-0.33436-0.10641-0.10782-0.21983-0.21201-0.33929-0.31207-0.11947-0.10006-0.24517-0.19645-0.37798-0.28839-0.1328-0.09194-0.27199-0.17984-0.4184-0.26331-0.14641-0.08346-0.3003-0.1622-0.4606-0.23684-0.16029-0.07463-0.32834-0.14491-0.50278-0.21037-0.17445-0.06545-0.3561-0.12659-0.54498-0.1825-0.18888-0.05592-0.3836-0.10582-0.58717-0.15185-0.20358-0.04603-0.4161-0.08821-0.63464-0.12399-0.21855-0.03579-0.44304-0.06537-0.67684-0.09055-0.23379-0.02519-0.47674-0.04567-0.72605-0.0599s-0.50665-0.02215-0.77176-0.02508c-0.2651-0.0029-0.53806-3.73e-4 -0.81923 0.0084-0.28116 0.0087-0.56918 0.02384-0.86669 0.04458-0.2975 0.02074-0.60356 0.0463-0.91765 0.07941-0.31411 0.03311-0.63766 0.07259-0.96868 0.11842-0.33099 0.04584-0.66973 0.09852-1.0179 0.15742-0.79226 0.13406-1.5573 0.25664-2.2977 0.36779-0.74044 0.11115-1.4562 0.21146-2.1465 0.30093-0.69037 0.08946-1.3568 0.16786-1.9988 0.23684-0.64206 0.06898-1.2592 0.12862-1.8547 0.17832-0.59548 0.0497-1.1687 0.08958-1.7194 0.1212-0.55065 0.03163-1.0799 0.05489-1.5875 0.06966-0.50756 0.01477-0.9929 0.02039-1.4591 0.0195-0.46622-8.55e-4 -0.91297-0.0083-1.3396-0.02368-0.42663-0.01534-0.83304-0.03829-1.2218-0.06687-0.38878-0.02858-0.76015-0.06248-1.1128-0.10309-0.35268-0.04062-0.68727-0.08787-1.0056-0.13932-0.31831-0.05144-0.61967-0.10751-0.9054-0.16857-0.2857-0.06107-0.5556-0.12696-0.81044-0.19644-0.22012-0.06001-0.42403-0.12402-0.62234-0.18947-0.00719 0.15867-0.022146 0.32076-0.026373 0.47785-0.21261 7.8484 4.3376 8.1038 11.462 5.6451 7.1245-2.4585 15.726-5.3928 13.848 1.6537-1.8789 7.0464-10.505 7.8064-5.8735 12.247 0.48801 0.46791 1.0417 0.79825 1.6384 1.0184z" fill="url(#linearGradient1071)"/>
   <path d="m12.314-49.049s-3.8894 9.529-4.2456 17.298c0.19831 0.06545 0.40222 0.12946 0.62234 0.18947 0.25483 0.06947 0.52474 0.13537 0.81044 0.19644s0.58706 0.11713 0.90541 0.16858c0.31831 0.05144 0.6529 0.0987 1.0056 0.13931 0.35267 0.04062 0.72404 0.07451 1.1128 0.10309 0.38877 0.02858 0.79518 0.05154 1.2218 0.06687 0.42662 0.01534 0.87337 0.0228 1.3396 0.02368 0.46622 8.56e-4 0.95158-0.0047 1.4591-0.0195 0.50756-0.01477 1.0368-0.03803 1.5875-0.06966 0.55064-0.03163 1.1239-0.0715 1.7194-0.1212 0.59548-0.0497 1.2126-0.10935 1.8547-0.17832 0.64205-0.06898 1.3085-0.14738 1.9988-0.23684 0.69038-0.08946 1.406-0.18977 2.1465-0.30093 0.74044-0.11115 1.5054-0.23374 2.2977-0.36779 0.34815-0.05891 0.68689-0.1116 1.0179-0.15743 0.33099-0.04584 0.65455-0.0853 0.96868-0.11842 0.31412-0.03311 0.62017-0.05866 0.91765-0.07941 0.29751-0.02074 0.58553-0.03585 0.86669-0.04458 0.28117-0.0087 0.55413-0.01128 0.81923-0.0084 0.2651 0.0029 0.52245 0.01084 0.77176 0.02508 0.24932 0.01423 0.49226 0.03472 0.72605 0.0599 0.2338 0.02519 0.45828 0.05477 0.67684 0.09055 0.21854 0.03578 0.43106 0.07796 0.63464 0.12399 0.20357 0.04603 0.39829 0.09594 0.58717 0.15186 0.18888 0.05591 0.37053 0.11705 0.54498 0.1825s0.3425 0.13573 0.50278 0.21037c0.1603 0.07463 0.31419 0.15337 0.4606 0.23684 0.14641 0.08346 0.2856 0.17137 0.4184 0.26331 0.13281 0.09194 0.25851 0.18832 0.37798 0.28839 0.11946 0.10006 0.23288 0.20425 0.33929 0.31207 0.1064 0.10782 0.20525 0.21912 0.29886 0.33436s0.18085 0.23436 0.26195 0.35665c0.0811 0.1223 0.15617 0.24855 0.22502 0.37755 0.06886 0.129 0.13122 0.26031 0.1881 0.39566 0.05689 0.13535 0.10952 0.27382 0.1547 0.41516 0.04519 0.14135 0.08407 0.28628 0.11778 0.43327 0.03375 0.14699 0.06174 0.29632 0.08434 0.4486 0.02259 0.15228 0.03925 0.30671 0.05094 0.46392 0.02341 0.31443 0.02548 0.63899 0.0072 0.97102-0.01845 0.33205-0.05787 0.67157-0.11603 1.0184-0.05815 0.34684-0.13462 0.70141-0.2303 1.0602-0.09567 0.35877-0.21003 0.72293-0.34105 1.0908-0.13103 0.36791-0.27884 0.73891-0.44302 1.1131-0.16418 0.3742-0.34456 0.75082-0.53971 1.1284-0.19516 0.37766-0.40542 0.75717-0.62936 1.1354-0.22394 0.37829-0.46143 0.75517-0.71199 1.1312-0.25056 0.37605-0.51435 0.75046-0.78934 1.1215-0.27499 0.37105-0.56067 0.73884-0.8579 1.102-0.29724 0.36319-0.60566 0.72165-0.92296 1.0742-0.3173 0.35249-0.64403 0.69894-0.97921 1.0379s-0.6793 0.67072-1.0302 0.99334c-0.35088 0.3226-0.70798 0.63697-1.0724 0.94042-0.3644 0.30342-0.73532 0.5963-1.1111 0.87772-0.37574 0.28139-0.75781 0.5515-1.1427 0.80803-0.04447 0.02965-0.09077 0.05429-0.13537 0.08359 5.0676 1.8691 11.865-2.9143 15.049-10.948 7.9077-19.957-16.274-16.062-21.674-15.665-3.8106 0.21457-8.3743-2.1417-9.3826-4.5989-1.0081-2.4571-1.5636-4.7195-0.79461-7.1288z" fill="url(#linearGradient1073)"/>
  </g>
  <g transform="matrix(.7133 0 0 .7133 -87.654 -34.584)" fill-rule="evenodd" stroke-linecap="round" stroke-linejoin="round" stroke-width="2.5152">
   <path d="m195.1 18.957a4.6043 4.6043 0 0 0 3.6562 1.8379 4.6043 4.6043 0 0 0 4.6055-4.6055 4.6043 4.6043 0 0 0-1.5644-3.457c-0.015 0.0049-0.0299 0.0086-0.0449 0.01367-0.087 0.02933-0.17475 0.06032-0.26172 0.09375-0.087 0.03343-0.17322 0.06963-0.25977 0.10742-0.0865 0.03779-0.17212 0.07674-0.25781 0.11914-0.0857 0.0424-0.17143 0.08751-0.25586 0.13477-0.0844 0.04725-0.16725 0.09803-0.25 0.15039-0.0828 0.05236-0.16544 0.10634-0.24609 0.16406-0.0807 0.05773-0.16014 0.1183-0.23828 0.18164-0.0781 0.06334-0.15526 0.13002-0.23047 0.19922-0.0752 0.0692-0.14883 0.14148-0.22071 0.2168-0.0719 0.07532-0.14086 0.15269-0.20898 0.23438-0.0681 0.08168-0.13528 0.16756-0.19922 0.25586-0.0639 0.0883-0.12619 0.18022-0.18555 0.27539-0.1187 0.19033-0.23746 0.37436-0.35742 0.55469s-0.23974 0.35528-0.36133 0.52539-0.24555 0.33643-0.36914 0.49609-0.24708 0.31388-0.37304 0.46289c-0.063 0.07451-0.12777 0.14694-0.19141 0.21875-0.0637 0.0718-0.12705 0.14186-0.19141 0.21094-0.0643 0.06907-0.12825 0.13681-0.19336 0.20312-0.0651 0.06632-0.13135 0.13178-0.19726 0.19531-0.0659 0.06353-0.13246 0.12678-0.19922 0.1875-0.0668 0.06072-0.13352 0.11985-0.20117 0.17773-0.0677 0.05788-0.13648 0.11295-0.20508 0.16797s-0.13744 0.10998-0.20703 0.16211c-0.0696 0.05213-0.13836 0.10118-0.20899 0.15039-0.0706 0.04921-0.14314 0.09827-0.21484 0.14453s-0.14396 0.09148-0.2168 0.13477c-0.0501 0.02976-0.0998 0.05759-0.15039 0.08594z" fill="#fa8d66" style="paint-order:stroke fill markers"/>
   <path d="m195.1 18.957c0.0506-0.02835 0.10032-0.05618 0.15039-0.08594 0.0728-0.04329 0.1451-0.0885 0.2168-0.13477 0.0717-0.04626 0.14422-0.09532 0.21484-0.14453 0.0706-0.04921 0.1394-0.09827 0.20899-0.15039 0.0696-0.05213 0.13843-0.10709 0.20703-0.16211s0.13742-0.11009 0.20508-0.16797c0.0677-0.05788 0.13441-0.11701 0.20117-0.17773 0.0668-0.06072 0.13331-0.12397 0.19922-0.1875 0.0659-0.06353 0.13215-0.129 0.19726-0.19531 0.0651-0.06632 0.12901-0.13405 0.19336-0.20312 0.0644-0.06907 0.12776-0.13913 0.19141-0.21094 0.0636-0.0718 0.12842-0.14424 0.19141-0.21875 0.12596-0.14902 0.24945-0.30322 0.37304-0.46289s0.24755-0.32599 0.36914-0.49609 0.24137-0.34506 0.36133-0.52539 0.23872-0.36435 0.35742-0.55469c0.0594-0.09517 0.12161-0.18709 0.18555-0.27539 0.0639-0.0883 0.1311-0.17418 0.19922-0.25586 0.0681-0.08168 0.13711-0.15906 0.20898-0.23438 0.0719-0.07531 0.14549-0.1476 0.22071-0.2168 0.0752-0.0692 0.15232-0.13588 0.23047-0.19922 0.0781-0.06334 0.15762-0.12392 0.23828-0.18164 0.0807-0.05773 0.16334-0.1117 0.24609-0.16406 0.0828-0.05236 0.16557-0.10314 0.25-0.15039 0.0844-0.04725 0.17016-0.09237 0.25586-0.13477s0.17127-0.08135 0.25781-0.11914c0.0866-0.03779 0.17279-0.07399 0.25977-0.10742 0.087-0.03343 0.17472-0.06442 0.26172-0.09375 0.015-0.0051 0.0299-0.0087 0.0449-0.01367a4.6043 4.6043 0 0 0-3.041-1.1465 4.6043 4.6043 0 0 0-4.6035 4.6035 4.6043 4.6043 0 0 0 0.94726 2.7676z" fill="#fec380" style="paint-order:stroke fill markers"/>
  </g>
  <g transform="matrix(.7133 0 0 .7133 -122.5 -30.204)" fill-rule="evenodd" stroke-linecap="round" stroke-linejoin="round" stroke-width="2.5152">
   <path d="m195.1 18.957a4.6043 4.6043 0 0 0 3.6562 1.8379 4.6043 4.6043 0 0 0 4.6055-4.6055 4.6043 4.6043 0 0 0-1.5644-3.457c-0.015 0.0049-0.0299 0.0086-0.0449 0.01367-0.087 0.02933-0.17475 0.06032-0.26172 0.09375-0.087 0.03343-0.17322 0.06963-0.25977 0.10742-0.0865 0.03779-0.17212 0.07674-0.25781 0.11914-0.0857 0.0424-0.17143 0.08751-0.25586 0.13477-0.0844 0.04725-0.16725 0.09803-0.25 0.15039-0.0828 0.05236-0.16544 0.10634-0.24609 0.16406-0.0807 0.05773-0.16014 0.1183-0.23828 0.18164-0.0781 0.06334-0.15526 0.13002-0.23047 0.19922-0.0752 0.0692-0.14883 0.14148-0.22071 0.2168-0.0719 0.07532-0.14086 0.15269-0.20898 0.23438-0.0681 0.08168-0.13528 0.16756-0.19922 0.25586-0.0639 0.0883-0.12619 0.18022-0.18555 0.27539-0.1187 0.19033-0.23746 0.37436-0.35742 0.55469s-0.23974 0.35528-0.36133 0.52539-0.24555 0.33643-0.36914 0.49609-0.24708 0.31388-0.37304 0.46289c-0.063 0.07451-0.12777 0.14694-0.19141 0.21875-0.0637 0.0718-0.12705 0.14186-0.19141 0.21094-0.0643 0.06907-0.12825 0.13681-0.19336 0.20312-0.0651 0.06632-0.13135 0.13178-0.19726 0.19531-0.0659 0.06353-0.13246 0.12678-0.19922 0.1875-0.0668 0.06072-0.13352 0.11985-0.20117 0.17773-0.0677 0.05788-0.13648 0.11295-0.20508 0.16797s-0.13744 0.10998-0.20703 0.16211c-0.0696 0.05213-0.13836 0.10118-0.20899 0.15039-0.0706 0.04921-0.14314 0.09827-0.21484 0.14453s-0.14396 0.09148-0.2168 0.13477c-0.0501 0.02976-0.0998 0.05759-0.15039 0.08594z" fill="#fa8d66" style="paint-order:stroke fill markers"/>
   <path d="m195.1 18.957c0.0506-0.02835 0.10032-0.05618 0.15039-0.08594 0.0728-0.04329 0.1451-0.0885 0.2168-0.13477 0.0717-0.04626 0.14422-0.09532 0.21484-0.14453 0.0706-0.04921 0.1394-0.09827 0.20899-0.15039 0.0696-0.05213 0.13843-0.10709 0.20703-0.16211s0.13742-0.11009 0.20508-0.16797c0.0677-0.05788 0.13441-0.11701 0.20117-0.17773 0.0668-0.06072 0.13331-0.12397 0.19922-0.1875 0.0659-0.06353 0.13215-0.129 0.19726-0.19531 0.0651-0.06632 0.12901-0.13405 0.19336-0.20312 0.0644-0.06907 0.12776-0.13913 0.19141-0.21094 0.0636-0.0718 0.12842-0.14424 0.19141-0.21875 0.12596-0.14902 0.24945-0.30322 0.37304-0.46289s0.24755-0.32599 0.36914-0.49609 0.24137-0.34506 0.36133-0.52539 0.23872-0.36435 0.35742-0.55469c0.0594-0.09517 0.12161-0.18709 0.18555-0.27539 0.0639-0.0883 0.1311-0.17418 0.19922-0.25586 0.0681-0.08168 0.13711-0.15906 0.20898-0.23438 0.0719-0.07531 0.14549-0.1476 0.22071-0.2168 0.0752-0.0692 0.15232-0.13588 0.23047-0.19922 0.0781-0.06334 0.15762-0.12392 0.23828-0.18164 0.0807-0.05773 0.16334-0.1117 0.24609-0.16406 0.0828-0.05236 0.16557-0.10314 0.25-0.15039 0.0844-0.04725 0.17016-0.09237 0.25586-0.13477s0.17127-0.08135 0.25781-0.11914c0.0866-0.03779 0.17279-0.07399 0.25977-0.10742 0.087-0.03343 0.17472-0.06442 0.26172-0.09375 0.015-0.0051 0.0299-0.0087 0.0449-0.01367a4.6043 4.6043 0 0 0-3.041-1.1465 4.6043 4.6043 0 0 0-4.6035 4.6035 4.6043 4.6043 0 0 0 0.94726 2.7676z" fill="#fec380" style="paint-order:stroke fill markers"/>
  </g>
  <g stroke-width=".80127">
   <path d="m22.714-43.94c1.0549-3.4153 3.3974-7.5817 6.9335-11.002 8.0213-7.7593 13.402-2.3739 13.402-2.3739-6.1348-10.187-10.799-12.072-10.799-12.072 0 1e-6 -4.3881-2.2119-7.6016 0.23266-1.4703 1.1185-3.6628 3.4119-5.8366 6.4559-0.0072 0.16392-0.01728 0.32869-0.01755 0.49039-4.05e-4 0.25312 0.0081 0.50301 0.02809 0.74533 0.0198 0.24233 0.05131 0.47718 0.09493 0.70215 0.04365 0.22498 0.09931 0.4398 0.17052 0.64086 0.03565 0.10053 0.07461 0.19786 0.11778 0.29117 0.04321 0.09332 0.09118 0.1822 0.1424 0.26749s0.10553 0.16737 0.16525 0.24381c0.05967 0.07644 0.12471 0.14778 0.19338 0.21455 0.06867 0.06676 0.14166 0.12902 0.21975 0.18529 0.07812 0.05627 0.16168 0.1069 0.24964 0.15186 0.17593 0.08993 0.36105 0.16909 0.55376 0.23963 0.19272 0.07053 0.39142 0.13218 0.59596 0.18808 0.20456 0.05589 0.4144 0.10584 0.62584 0.15186s0.42477 0.08729 0.63816 0.12817c0.42676 0.08177 0.85212 0.15821 1.257 0.24799 0.20242 0.04489 0.40116 0.09366 0.59069 0.14767 0.18952 0.05402 0.36979 0.11321 0.54146 0.18111 0.17168 0.06791 0.33457 0.14472 0.48345 0.23127 0.07444 0.04327 0.14491 0.0891 0.21272 0.13792 0.06778 0.04883 0.13281 0.09967 0.19338 0.15464s0.11781 0.11383 0.17052 0.17554c0.05275 0.06171 0.09993 0.1274 0.14415 0.19644 0.04419 0.06904 0.08443 0.14175 0.11955 0.21873 0.03511 0.07697 0.06597 0.15831 0.09141 0.24381 0.02539 0.0855 0.04645 0.17427 0.06157 0.26888s0.02403 0.19382 0.02808 0.29814c0.0045 0.10432 0.0018 0.21416-0.0054 0.32879s-0.0208 0.2353-0.04042 0.36083-0.04491 0.25585-0.07731 0.39287c-0.03241 0.13702-0.07191 0.27998-0.11778 0.42909-0.04591 0.14911-0.09829 0.30492-0.15822 0.46671-0.05995 0.16179-0.12758 0.32926-0.20217 0.50432-0.29836 0.70027-0.57748 1.362-0.83857 1.9867-0.26109 0.62472-0.50281 1.2127-0.7243 1.7693-0.22148 0.55666-0.42345 1.0809-0.60299 1.577-0.17954 0.49612-0.33763 0.96402-0.4729 1.4071-0.13528 0.4431-0.24711 0.86188-0.33578 1.2594-0.04437 0.19878-0.0838 0.39214-0.11602 0.58095-0.03223 0.1888-0.05752 0.37331-0.07731 0.55309z" fill="url(#linearGradient1059)"/>
   <path d="m22.213-39.082c-0.25769-1.0804-0.12999-2.6171 0.36566-4.3899-0.21241-0.10522-0.39375-0.19409-0.6364-0.31625-0.24801-0.12486-0.51166-0.25997-0.79286-0.4068-0.2812-0.14684-0.57884-0.3061-0.89482-0.47925-0.31599-0.17315-0.64969-0.36043-1.0021-0.56424-0.35238-0.2038-0.72421-0.42436-1.1146-0.66315-0.19518-0.11939-0.38156-0.24107-0.5608-0.36501s-0.35116-0.2496-0.5151-0.37755c-0.16392-0.12794-0.32013-0.25727-0.46938-0.38869s-0.29197-0.26548-0.42719-0.39984-0.26319-0.27004-0.38501-0.4068c-0.12181-0.13677-0.23727-0.27374-0.34632-0.41237-0.10905-0.13864-0.2125-0.27797-0.30941-0.41795s-0.18708-0.28135-0.2725-0.42213-0.16453-0.28108-0.23908-0.42213c-0.07453-0.14106-0.14488-0.28273-0.2092-0.42352-0.06436-0.14079-0.12283-0.28074-0.17756-0.42073-0.05473-0.14-0.1054-0.27928-0.15119-0.41795-0.04573-0.13866-0.0874-0.27697-0.12481-0.41377-0.03744-0.1368-0.07048-0.2724-0.1002-0.4068-0.02979-0.13441-0.05643-0.26836-0.07912-0.39984-0.02268-0.13148-0.04168-0.26068-0.05797-0.38869-0.03258-0.25602-0.05257-0.50499-0.06328-0.74397-0.0018-0.03983-4.95e-4 -0.07495-0.0018-0.11424-0.35194 0.90924-0.66909 1.8391-0.94582 2.7849 0.0054 0.20432 0.0111 0.41757 0.02637 0.65897 0.0092 0.14545 0.02124 0.29725 0.03519 0.45417 0.01396 0.15693 0.02979 0.3193 0.04924 0.48621s0.04284 0.33728 0.06858 0.51268 0.05338 0.35534 0.08614 0.53776 0.07012 0.36793 0.11076 0.55588c0.04059 0.18794 0.08434 0.37784 0.13361 0.5698 0.04924 0.19196 0.10477 0.38644 0.16349 0.58095 0.05869 0.1945 0.12093 0.38958 0.18987 0.58513 0.06895 0.19555 0.1433 0.39142 0.22326 0.58653 0.07993 0.19511 0.16667 0.38916 0.25843 0.58234s0.18924 0.38562 0.29359 0.57538c0.10434 0.18976 0.21452 0.3766 0.33226 0.56145 0.11773 0.18484 0.24254 0.36768 0.37445 0.54612 0.06598 0.08922 0.13428 0.17735 0.20392 0.2647 0.06967 0.08734 0.14104 0.17385 0.21448 0.25913 0.07345 0.08527 0.14945 0.16914 0.22678 0.25216 0.07732 0.08303 0.15601 0.16461 0.23733 0.2452 0.08128 0.08059 0.16424 0.16026 0.24963 0.23823 0.08542 0.07796 0.17237 0.15472 0.26194 0.22987 0.08956 0.07515 0.18214 0.14797 0.276 0.22012s0.19006 0.14279 0.28831 0.21176c0.09825 0.06898 0.19789 0.1364 0.30062 0.20201 0.10272 0.0656 0.20737 0.1302 0.31468 0.19226 0.1073 0.06205 0.21852 0.12141 0.3305 0.17972 0.11198 0.0583 0.22606 0.11558 0.34281 0.16996 0.11676 0.05438 0.23525 0.10717 0.35688 0.15743 0.12163 0.05027 0.24609 0.09753 0.37269 0.14349 0.12661 0.04596 0.25509 0.08948 0.38676 0.13096s0.26573 0.08162 0.40258 0.11842c0.13685 0.03681 0.27629 0.07115 0.41841 0.10309 0.14212 0.03195 0.28674 0.06087 0.43422 0.08777s0.29886 0.05077 0.4518 0.07244c0.15295 0.02167 0.30736 0.04087 0.46587 0.05712 0.15852 0.01625 0.32103 0.02975 0.4852 0.0404 0.04726 0.0031 0.09645 0.0044 0.14416 7e-3z" fill="url(#linearGradient1061)"/>
   <path d="m22.213-39.082c-0.0477-0.0026-0.09691-0.0039-0.14416-7e-3 -0.16418-0.01065-0.32669-0.02415-0.48521-0.0404s-0.31292-0.03545-0.46587-0.05712c-0.15294-0.02167-0.30432-0.04554-0.4518-0.07244s-0.29211-0.05582-0.43422-0.08777c-0.14212-0.03194-0.28156-0.06629-0.41841-0.10309-0.13684-0.03681-0.2709-0.07694-0.40258-0.11842s-0.26016-0.085-0.38676-0.13095c-0.12661-0.04597-0.25106-0.09323-0.37269-0.1435s-0.24012-0.10305-0.35688-0.15742c-0.11675-0.05438-0.23083-0.11166-0.34281-0.16996-0.11198-0.05831-0.2232-0.11767-0.3305-0.17972-0.10731-0.06205-0.21196-0.12665-0.31468-0.19226-0.10273-0.0656-0.20238-0.13304-0.30062-0.20201-0.09825-0.06898-0.19445-0.13961-0.28831-0.21176-0.09386-0.07216-0.18643-0.14496-0.276-0.22012-0.08956-0.07515-0.17654-0.15191-0.26195-0.22987-0.08542-0.07796-0.16832-0.15765-0.24963-0.23823-0.08128-0.08059-0.16001-0.16217-0.23733-0.2452s-0.15335-0.16688-0.22678-0.25217c-0.07345-0.08527-0.14483-0.17178-0.21448-0.25913-0.06967-0.08734-0.13797-0.17548-0.20392-0.2647-0.13191-0.17845-0.25672-0.36127-0.37445-0.54612-0.11774-0.18484-0.22791-0.37169-0.33226-0.56144-0.10436-0.18976-0.20183-0.3822-0.29359-0.57538-0.09175-0.19318-0.17847-0.38724-0.25843-0.58234-0.07993-0.19511-0.15432-0.39097-0.22326-0.58652-0.06895-0.19555-0.13115-0.39062-0.18986-0.58513-0.05869-0.1945-0.11422-0.38898-0.16349-0.58095-0.04933-0.19196-0.09298-0.38187-0.13361-0.56981-0.04059-0.18793-0.07795-0.37346-0.11076-0.55588-0.03276-0.18242-0.06039-0.36235-0.08614-0.53776-0.02565-0.17541-0.04915-0.34577-0.06858-0.51268-0.01945-0.16691-0.03528-0.32929-0.04924-0.48621s-0.02592-0.30872-0.03519-0.45417c-0.01531-0.2414-0.02115-0.45464-0.02637-0.65897-0.10735 0.36692-0.20993 0.73598-0.30413 1.1075-2.5722 10.147 6.614 12.823 11.958 11.884-1.1677 0.15847-1.8707-0.473-2.143-1.6147z" fill="url(#linearGradient1063)"/>
   <path d="m18.811-62.699c-1.9015 2.6628-3.7881 5.9025-5.1632 9.4555 9.01e-4 0.03929-2.7e-5 0.07441 0.0018 0.11424 0.01073 0.23896 0.03069 0.48792 0.06327 0.74397 0.01629 0.12801 0.03528 0.25722 0.05797 0.38869 0.02268 0.13148 0.04933 0.26543 0.07912 0.39984s0.06274 0.27 0.1002 0.4068c0.03744 0.1368 0.07903 0.2751 0.12481 0.41377 0.04582 0.13866 0.09646 0.27795 0.15119 0.41795 0.05473 0.13999 0.11323 0.27994 0.17756 0.42073 0.06436 0.14079 0.13464 0.28247 0.2092 0.42352 0.07453 0.14106 0.15367 0.28135 0.23908 0.42213 0.08542 0.14078 0.17558 0.28215 0.27249 0.42213s0.20036 0.27931 0.30941 0.41795 0.22451 0.27561 0.34632 0.41237c0.12182 0.13676 0.24979 0.27244 0.38501 0.4068s0.27794 0.26842 0.42719 0.39984 0.30546 0.26075 0.46938 0.38869c0.16393 0.12794 0.33586 0.25361 0.5151 0.37755s0.36562 0.24562 0.5608 0.36501c0.39037 0.23878 0.7622 0.45934 1.1146 0.66315 0.35237 0.2038 0.68607 0.39108 1.0021 0.56423 0.31598 0.17315 0.61362 0.33241 0.89482 0.47925 0.2812 0.14683 0.54484 0.28195 0.79286 0.4068 0.24265 0.12216 0.42399 0.21103 0.63639 0.31625 0.04347-0.15536 0.08632-0.30932 0.13537-0.4681 0.01989-0.17977 0.0451-0.36428 0.07731-0.55309 0.03223-0.1888 0.07174-0.38217 0.11602-0.58095 0.08866-0.39756 0.2005-0.8163 0.33578-1.2594s0.29336-0.91096 0.4729-1.4071c0.17954-0.49612 0.38151-1.0204 0.60299-1.577 0.22149-0.55666 0.46321-1.1446 0.7243-1.7693 0.26109-0.62471 0.54021-1.2864 0.83856-1.9867 0.07461-0.17506 0.14224-0.34253 0.20217-0.50432 0.05995-0.16179 0.11234-0.3176 0.15822-0.46671 0.04591-0.14911 0.08533-0.29208 0.11778-0.42909 0.03241-0.13702 0.05769-0.26734 0.07732-0.39287 0.01962-0.12553 0.03295-0.2462 0.04042-0.36083 0.0072-0.11463 0.0093-0.22446 0.0054-0.32879-0.0045-0.10432-0.01305-0.20352-0.02808-0.29814-0.01512-0.09461-0.03609-0.18339-0.06157-0.26888-0.02539-0.0855-0.05625-0.16683-0.09141-0.24381-0.03511-0.07697-0.07533-0.14969-0.11955-0.21873-0.04419-0.06904-0.09144-0.13473-0.14415-0.19644-0.05275-0.06171-0.10996-0.12057-0.17052-0.17554-0.06057-0.05497-0.12557-0.10582-0.19338-0.15464-0.06778-0.04883-0.13827-0.09465-0.21272-0.13792-0.14888-0.08654-0.31177-0.16336-0.48345-0.23127s-0.35194-0.1271-0.54146-0.18111c-0.18952-0.05402-0.38826-0.10279-0.59069-0.14768-0.40484-0.08977-0.8302-0.16621-1.257-0.24799-0.21338-0.04089-0.42672-0.08216-0.63816-0.12817-0.21144-0.04602-0.42129-0.09596-0.62584-0.15186-0.20455-0.05589-0.40324-0.11754-0.59596-0.18808-0.19272-0.07053-0.37783-0.1497-0.55377-0.23963-0.08794-0.04496-0.17155-0.09558-0.24964-0.15185-0.07812-0.05627-0.15107-0.11852-0.21975-0.18529s-0.13366-0.13811-0.19338-0.21455c-0.05967-0.07644-0.11404-0.15852-0.16525-0.24381-0.05122-0.08529-0.09922-0.17417-0.1424-0.26749-0.04321-0.09332-0.08217-0.19064-0.11778-0.29117-0.07119-0.20106-0.12686-0.41588-0.17052-0.64086-0.04365-0.22498-0.07516-0.45983-0.09493-0.70215-0.0198-0.24233-0.02853-0.49223-0.02808-0.74533 2.62e-4 -0.16171 0.01035-0.32648 0.01755-0.49039z" fill="url(#linearGradient1065)"/>
   <path d="m51.095-43.62c-0.05752-0.0045-0.11194-0.01312-0.17052-0.01532-0.08217-0.0031-0.16576-0.0034-0.24964-0.0014-0.08389 2e-3 -0.16812 0.0061-0.25315 0.01393-0.08506 0.0078-0.17104 0.01912-0.25666 0.03343-0.08559 0.01431-0.171 0.03141-0.25667 0.05294-0.08569 0.02154-0.17151 0.04716-0.25667 0.07662-0.08515 0.02946-0.17082 0.06361-0.25491 0.1017-0.08407 0.0381-0.16717 0.08072-0.24963 0.12817-0.08245 0.04745-0.16408 0.09853-0.24437 0.15603-0.08029 0.05751-0.15801 0.1212-0.23557 0.18947-0.07759 0.06827-0.15427 0.14177-0.22853 0.22152-0.07426 0.07974-0.14757 0.16581-0.218 0.25774-0.07039 0.09192-0.1379 0.18914-0.20392 0.29396-0.06607 0.10482-0.13055 0.21734-0.19162 0.33575-0.06102 0.11841-0.11848 0.24343-0.17404 0.37615-0.05554 0.13272-0.10872 0.27299-0.15822 0.42073s-0.096 0.30324-0.13888 0.46671c-0.04284 0.16347-0.08208 0.33417-0.11778 0.51408-0.03574 0.1799-0.06697 0.36858-0.09493 0.56562-0.05599 0.3941-0.10198 0.76088-0.13888 1.1034-0.03691 0.34253-0.06462 0.66104-0.08794 0.95568-0.04654 0.58934-0.07209 1.087-0.09669 1.5074-0.01224 0.21021-0.02376 0.4004-0.0387 0.57398-0.01494 0.17359-0.0333 0.33019-0.05626 0.47089-0.02304 0.1407-0.0514 0.26598-0.08794 0.37755-0.01827 0.05578-0.03888 0.10823-0.06157 0.15743-0.02259 0.0492-0.04789 0.09484-0.07561 0.13792s-0.05797 0.08377-0.09141 0.1212c-0.03348 0.03743-0.06913 0.07224-0.109 0.10448-0.03988 0.03226-0.08308 0.06162-0.13009 0.08916-0.01136 0.0066-0.02511 0.01173-0.03691 0.01811 2.368 2.1291 4.1278 3.455 7.3854 1.5534 3.35-1.9557-0.86635-8.5282-1.5136-9.7116-0.09338-0.17076-0.60393-1.095-0.90712-1.6467z" fill="url(#linearGradient1067)"/>
   <path d="m42.773-51.906c-0.28778-0.0017-0.56874 0.0051-0.84384 0.01811-0.2751 0.013-0.54438 0.03201-0.80693 0.05851-0.26255 0.02651-0.51811 0.06007-0.76824 0.09891-0.25014 0.03885-0.49525 0.08372-0.73309 0.13374s-0.46873 0.10437-0.6944 0.16439c-0.22568 0.06002-0.44561 0.12479-0.65925 0.19365-0.21365 0.06886-0.4206 0.1422-0.62233 0.21873-0.20174 0.07652-0.39897 0.1566-0.58893 0.23963-0.18996 0.08302-0.37369 0.16939-0.55201 0.25774s-0.35006 0.17916-0.51685 0.27167c-0.1668 0.0925-0.32804 0.18593-0.48345 0.28142-0.1554 0.0955-0.3059 0.19246-0.45005 0.28978-0.14414 0.09731-0.28187 0.19599-0.41488 0.29396-0.13302 0.09796-0.26124 0.19512-0.38324 0.29257-0.13574 0.1084-0.24866 0.21281-0.37094 0.31904 3.8023 4.8336 9.983 12.919 12.048 14.785 0.06832 0.06171 0.13142 0.11508 0.19865 0.17554 0.01174-0.0064 0.02557-0.01147 0.0369-0.01811 0.04698-0.02754 0.09021-0.05691 0.13009-0.08916s0.07552-0.06705 0.109-0.10448 0.06372-0.07812 0.09141-0.1212c0.02772-0.04308 0.05292-0.08873 0.07561-0.13792 0.02259-0.0492 0.0433-0.10165 0.06157-0.15743 0.03646-0.11156 0.0649-0.23684 0.08794-0.37755 0.02295-0.14071 0.04131-0.2973 0.05625-0.47089 0.01494-0.17358 0.02637-0.36378 0.0387-0.57398 0.02457-0.42041 0.05013-0.91809 0.09669-1.5074 0.02331-0.29467 0.05103-0.6132 0.08794-0.95568s0.08289-0.70929 0.13888-1.1034c0.02799-0.19705 0.05922-0.38572 0.09493-0.56562 0.03574-0.1799 0.07489-0.35061 0.11778-0.51408 0.04284-0.16347 0.08938-0.31897 0.13889-0.46671 0.0495-0.14775 0.10265-0.28801 0.15822-0.42073 0.05554-0.13272 0.11298-0.25774 0.17404-0.37615 0.06111-0.11842 0.12559-0.23094 0.19162-0.33575 0.06607-0.10481 0.1335-0.20204 0.20392-0.29396 0.07039-0.09192 0.14373-0.178 0.21799-0.25774s0.15098-0.15325 0.22854-0.22152c0.07759-0.06827 0.15528-0.13197 0.23557-0.18947 0.08029-0.05751 0.1619-0.10858 0.24437-0.15603 0.08245-0.04745 0.16554-0.09007 0.24963-0.12817 0.08407-0.0381 0.16975-0.07224 0.25491-0.1017 0.08515-0.02946 0.171-0.0551 0.25667-0.07662 0.08569-0.02153 0.17104-0.03863 0.25667-0.05294 0.08561-0.01431 0.17163-0.02564 0.25666-0.03343 0.08506-0.0078 0.16927-0.01193 0.25315-0.01393 0.08389-2e-3 0.16746-0.0017 0.24964 0.0014 0.0586 0.0022 0.11305 0.01084 0.17052 0.01532-0.98812-1.798-2.6223-4.7596-4.3721-7.8171-0.06139-0.01359-0.12538-0.03164-0.18635-0.04458-0.33977-0.0721-0.67373-0.13533-1.0003-0.18808-0.32658-0.05274-0.64636-0.09501-0.95986-0.12956-0.31351-0.03455-0.62061-0.06048-0.92116-0.07802-0.30058-0.01753-0.59474-0.02757-0.88251-0.02926z" fill="url(#linearGradient1069)"/>
   <path d="m33.884-48.774c0.12228-0.10623 0.2352-0.21063 0.37094-0.31904 0.12201-0.09744 0.25023-0.1946 0.38324-0.29257s0.27074-0.19664 0.41488-0.29396c0.14415-0.09731 0.29465-0.19429 0.45005-0.28978 0.15541-0.0955 0.31665-0.18891 0.48345-0.28142s0.33853-0.18332 0.51685-0.27167 0.36206-0.17472 0.55201-0.25774c0.18996-0.08302 0.3872-0.1631 0.58893-0.23963 0.20174-0.07652 0.40869-0.14986 0.62233-0.21873 0.21364-0.06886 0.43357-0.13362 0.65925-0.19365 0.22567-0.06002 0.45656-0.11437 0.6944-0.16439s0.48296-0.0949 0.73309-0.13374c0.25013-0.03885 0.50569-0.07241 0.76824-0.09891 0.26255-0.02651 0.53182-0.04552 0.80693-0.05851 0.2751-0.013 0.55606-0.01979 0.84384-0.01811 0.28777 0.0017 0.58193 0.01172 0.88251 0.02926 0.30059 0.01753 0.60768 0.04346 0.92116 0.07802 0.31351 0.03455 0.63329 0.07682 0.95986 0.12956s0.66053 0.11598 1.0003 0.18808c0.06094 0.01294 0.12494 0.03099 0.18635 0.04458-1.4351-2.5074-2.7501-4.7236-3.3209-5.4626-0.09605-0.12436-0.2094-0.25876-0.33929-0.39844-0.19063-0.07895-0.39035-0.15819-0.61179-0.23266-0.25452-0.0856-0.52864-0.16619-0.81922-0.23545-0.14529-0.03462-0.29492-0.06629-0.44829-0.09473-0.15338-0.02845-0.3103-0.05296-0.47115-0.07384-0.16085-0.02087-0.32631-0.03825-0.49399-0.05015-0.1677-0.01191-0.33765-0.01936-0.51158-0.0209-0.17394-0.0016-0.35138 0.0024-0.53092 0.01254-0.17954 0.01021-0.36221 0.02678-0.54674 0.05015s-0.37014 0.05403-0.55904 0.09195c-0.18891 0.03791-0.38044 0.08407-0.57311 0.13792-0.19266 0.05385-0.3861 0.11549-0.5819 0.18668s-0.39412 0.1511-0.59244 0.24102-0.3975 0.18948-0.59772 0.29953c-0.20023 0.11005-0.4015 0.23066-0.60299 0.36222-0.2015 0.13157-0.40259 0.27461-0.60476 0.42909s-0.4043 0.31996-0.60651 0.49875-0.40487 0.37089-0.60651 0.57538c-0.20163 0.20449-0.40254 0.4218-0.60299 0.6534-0.20044 0.2316-0.40084 0.4769-0.59947 0.73698s-0.39625 0.53478-0.59245 0.82472c-0.14667 0.21677-0.29097 0.45128-0.43598 0.68544 0.48148 0.51076 1.5122 1.7942 2.811 3.4453z" fill="#1037ba"/>
   <path d="m31.073-52.219c0.14501-0.23416 0.28931-0.46867 0.43598-0.68544 0.1962-0.28997 0.39382-0.56467 0.59245-0.82472 0.19863-0.26008 0.39903-0.50539 0.59947-0.73698 0.20045-0.23159 0.40136-0.4489 0.60299-0.6534 0.20164-0.20449 0.4043-0.39659 0.60651-0.57538 0.20222-0.17879 0.40434-0.34428 0.60651-0.49875 0.20217-0.15448 0.40325-0.29753 0.60476-0.42909 0.2015-0.13157 0.40276-0.25218 0.60299-0.36222 0.20022-0.11005 0.3994-0.20961 0.59772-0.29953s0.39664-0.16982 0.59244-0.24102c0.19581-0.07119 0.38924-0.13283 0.5819-0.18668 0.19267-0.05385 0.3842-0.10001 0.57311-0.13792 0.1889-0.03791 0.37451-0.06858 0.55904-0.09195s0.36719-0.03994 0.54674-0.05015c0.17954-0.01021 0.35699-0.01408 0.53092-0.01254 0.17392 0.0016 0.34388 9e-3 0.51158 0.0209 0.16769 0.01191 0.33314 0.02928 0.49399 0.05015s0.31777 0.04539 0.47115 0.07384 0.303 0.06011 0.44829 0.09473c0.29058 0.06926 0.5647 0.14984 0.81922 0.23545 0.22143 0.07447 0.42116 0.15371 0.61179 0.23266-1.9148-2.0592-7.4843-5.2749-16.102 5.3679 0 0 2.3754-2.0313 4.0012-0.41098 0.02764 0.02756 0.07803 0.08649 0.11076 0.1212z" fill="#0d1680"/>
   <path d="m29.117-10.709c0.04464-0.0293 0.09087-0.05393 0.13536-0.08359 0.38489-0.25654 0.76696-0.52664 1.1427-0.80803s0.74666-0.57428 1.1111-0.87772c0.36439-0.30342 0.72149-0.61778 1.0724-0.94041 0.35088-0.3226 0.69501-0.65436 1.0302-0.99334 0.33519-0.33896 0.66191-0.68542 0.97921-1.0379 0.31729-0.35249 0.62571-0.71094 0.92296-1.0742 0.29723-0.36319 0.58291-0.73092 0.8579-1.102 0.27499-0.37105 0.53878-0.7454 0.78934-1.1215 0.25056-0.37612 0.48805-0.75296 0.71199-1.1312 0.22394-0.37829 0.43421-0.75774 0.62936-1.1354s0.37553-0.75424 0.53971-1.1284c0.16418-0.3742 0.31199-0.74526 0.44302-1.1131 0.13102-0.36791 0.24537-0.73206 0.34105-1.0908s0.17214-0.71337 0.2303-1.0602c0.05815-0.34684 0.09758-0.68636 0.11603-1.0184 0.01845-0.33205 0.01638-0.65661-0.0072-0.97102-0.01174-0.15721-0.02835-0.31164-0.05094-0.46392s-0.05068-0.3016-0.08434-0.4486c-0.03375-0.14699-0.07263-0.29192-0.11778-0.43327-0.04519-0.14135-0.09782-0.27981-0.1547-0.41516-0.05689-0.13535-0.11925-0.26666-0.1881-0.39566-0.06886-0.129-0.14393-0.25525-0.22502-0.37755-0.0811-0.1223-0.16834-0.24141-0.26195-0.35665-0.09361-0.11523-0.19246-0.22654-0.29886-0.33436-0.10641-0.10782-0.21983-0.21201-0.33929-0.31207-0.11947-0.10006-0.24517-0.19645-0.37798-0.28839-0.1328-0.09194-0.27199-0.17984-0.4184-0.26331-0.14641-0.08346-0.3003-0.1622-0.4606-0.23684-0.16029-0.07463-0.32834-0.14491-0.50278-0.21037-0.17445-0.06545-0.3561-0.12659-0.54498-0.1825-0.18888-0.05592-0.3836-0.10582-0.58717-0.15185-0.20358-0.04603-0.4161-0.08821-0.63464-0.12399-0.21855-0.03579-0.44304-0.06537-0.67684-0.09055-0.23379-0.02519-0.47674-0.04567-0.72605-0.0599s-0.50665-0.02215-0.77176-0.02508c-0.2651-0.0029-0.53806-3.73e-4 -0.81923 0.0084-0.28116 0.0087-0.56918 0.02384-0.86669 0.04458-0.2975 0.02074-0.60356 0.0463-0.91765 0.07941-0.31411 0.03311-0.63766 0.07259-0.96868 0.11842-0.33099 0.04584-0.66973 0.09852-1.0179 0.15742-0.79226 0.13406-1.5573 0.25664-2.2977 0.36779-0.74044 0.11115-1.4562 0.21146-2.1465 0.30093-0.69037 0.08946-1.3568 0.16786-1.9988 0.23684-0.64206 0.06898-1.2592 0.12862-1.8547 0.17832-0.59548 0.0497-1.1687 0.08958-1.7194 0.1212-0.55065 0.03163-1.0799 0.05489-1.5875 0.06966-0.50756 0.01477-0.9929 0.02039-1.4591 0.0195-0.46622-8.55e-4 -0.91297-0.0083-1.3396-0.02368-0.42663-0.01534-0.83304-0.03829-1.2218-0.06687-0.38878-0.02858-0.76015-0.06248-1.1128-0.10309-0.35268-0.04062-0.68727-0.08787-1.0056-0.13932-0.31831-0.05144-0.61967-0.10751-0.9054-0.16857-0.2857-0.06107-0.5556-0.12696-0.81044-0.19644-0.22012-0.06001-0.42403-0.12402-0.62234-0.18947-0.00719 0.15867-0.022146 0.32076-0.026373 0.47785-0.21261 7.8484 4.3376 8.1038 11.462 5.6451 7.1245-2.4585 15.726-5.3928 13.848 1.6537-1.8789 7.0464-10.505 7.8064-5.8735 12.247 0.48801 0.46791 1.0417 0.79825 1.6384 1.0184z" fill="url(#linearGradient1071)"/>
   <path d="m12.314-49.049s-3.8894 9.529-4.2456 17.298c0.19831 0.06545 0.40222 0.12946 0.62234 0.18947 0.25483 0.06947 0.52474 0.13537 0.81044 0.19644s0.58706 0.11713 0.90541 0.16858c0.31831 0.05144 0.6529 0.0987 1.0056 0.13931 0.35267 0.04062 0.72404 0.07451 1.1128 0.10309 0.38877 0.02858 0.79518 0.05154 1.2218 0.06687 0.42662 0.01534 0.87337 0.0228 1.3396 0.02368 0.46622 8.56e-4 0.95158-0.0047 1.4591-0.0195 0.50756-0.01477 1.0368-0.03803 1.5875-0.06966 0.55064-0.03163 1.1239-0.0715 1.7194-0.1212 0.59548-0.0497 1.2126-0.10935 1.8547-0.17832 0.64205-0.06898 1.3085-0.14738 1.9988-0.23684 0.69038-0.08946 1.406-0.18977 2.1465-0.30093 0.74044-0.11115 1.5054-0.23374 2.2977-0.36779 0.34815-0.05891 0.68689-0.1116 1.0179-0.15743 0.33099-0.04584 0.65455-0.0853 0.96868-0.11842 0.31412-0.03311 0.62017-0.05866 0.91765-0.07941 0.29751-0.02074 0.58553-0.03585 0.86669-0.04458 0.28117-0.0087 0.55413-0.01128 0.81923-0.0084 0.2651 0.0029 0.52245 0.01084 0.77176 0.02508 0.24932 0.01423 0.49226 0.03472 0.72605 0.0599 0.2338 0.02519 0.45828 0.05477 0.67684 0.09055 0.21854 0.03578 0.43106 0.07796 0.63464 0.12399 0.20357 0.04603 0.39829 0.09594 0.58717 0.15186 0.18888 0.05591 0.37053 0.11705 0.54498 0.1825s0.3425 0.13573 0.50278 0.21037c0.1603 0.07463 0.31419 0.15337 0.4606 0.23684 0.14641 0.08346 0.2856 0.17137 0.4184 0.26331 0.13281 0.09194 0.25851 0.18832 0.37798 0.28839 0.11946 0.10006 0.23288 0.20425 0.33929 0.31207 0.1064 0.10782 0.20525 0.21912 0.29886 0.33436s0.18085 0.23436 0.26195 0.35665c0.0811 0.1223 0.15617 0.24855 0.22502 0.37755 0.06886 0.129 0.13122 0.26031 0.1881 0.39566 0.05689 0.13535 0.10952 0.27382 0.1547 0.41516 0.04519 0.14135 0.08407 0.28628 0.11778 0.43327 0.03375 0.14699 0.06174 0.29632 0.08434 0.4486 0.02259 0.15228 0.03925 0.30671 0.05094 0.46392 0.02341 0.31443 0.02548 0.63899 0.0072 0.97102-0.01845 0.33205-0.05787 0.67157-0.11603 1.0184-0.05815 0.34684-0.13462 0.70141-0.2303 1.0602-0.09567 0.35877-0.21003 0.72293-0.34105 1.0908-0.13103 0.36791-0.27884 0.73891-0.44302 1.1131-0.16418 0.3742-0.34456 0.75082-0.53971 1.1284-0.19516 0.37766-0.40542 0.75717-0.62936 1.1354-0.22394 0.37829-0.46143 0.75517-0.71199 1.1312-0.25056 0.37605-0.51435 0.75046-0.78934 1.1215-0.27499 0.37105-0.56067 0.73884-0.8579 1.102-0.29724 0.36319-0.60566 0.72165-0.92296 1.0742-0.3173 0.35249-0.64403 0.69894-0.97921 1.0379s-0.6793 0.67072-1.0302 0.99334c-0.35088 0.3226-0.70798 0.63697-1.0724 0.94042-0.3644 0.30342-0.73532 0.5963-1.1111 0.87772-0.37574 0.28139-0.75781 0.5515-1.1427 0.80803-0.04447 0.02965-0.09077 0.05429-0.13537 0.08359 5.0676 1.8691 11.865-2.9143 15.049-10.948 7.9077-19.957-16.274-16.062-21.674-15.665-3.8106 0.21457-8.3743-2.1417-9.3826-4.5989-1.0081-2.4571-1.5636-4.7195-0.79461-7.1288z" fill="url(#linearGradient1073)"/>
  </g>
  <g transform="matrix(.7133 0 0 .7133 -87.654 -34.584)" fill-rule="evenodd" stroke-linecap="round" stroke-linejoin="round" stroke-width="2.5152">
   <path d="m195.1 18.957a4.6043 4.6043 0 0 0 3.6562 1.8379 4.6043 4.6043 0 0 0 4.6055-4.6055 4.6043 4.6043 0 0 0-1.5644-3.457c-0.015 0.0049-0.0299 0.0086-0.0449 0.01367-0.087 0.02933-0.17475 0.06032-0.26172 0.09375-0.087 0.03343-0.17322 0.06963-0.25977 0.10742-0.0865 0.03779-0.17212 0.07674-0.25781 0.11914-0.0857 0.0424-0.17143 0.08751-0.25586 0.13477-0.0844 0.04725-0.16725 0.09803-0.25 0.15039-0.0828 0.05236-0.16544 0.10634-0.24609 0.16406-0.0807 0.05773-0.16014 0.1183-0.23828 0.18164-0.0781 0.06334-0.15526 0.13002-0.23047 0.19922-0.0752 0.0692-0.14883 0.14148-0.22071 0.2168-0.0719 0.07532-0.14086 0.15269-0.20898 0.23438-0.0681 0.08168-0.13528 0.16756-0.19922 0.25586-0.0639 0.0883-0.12619 0.18022-0.18555 0.27539-0.1187 0.19033-0.23746 0.37436-0.35742 0.55469s-0.23974 0.35528-0.36133 0.52539-0.24555 0.33643-0.36914 0.49609-0.24708 0.31388-0.37304 0.46289c-0.063 0.07451-0.12777 0.14694-0.19141 0.21875-0.0637 0.0718-0.12705 0.14186-0.19141 0.21094-0.0643 0.06907-0.12825 0.13681-0.19336 0.20312-0.0651 0.06632-0.13135 0.13178-0.19726 0.19531-0.0659 0.06353-0.13246 0.12678-0.19922 0.1875-0.0668 0.06072-0.13352 0.11985-0.20117 0.17773-0.0677 0.05788-0.13648 0.11295-0.20508 0.16797s-0.13744 0.10998-0.20703 0.16211c-0.0696 0.05213-0.13836 0.10118-0.20899 0.15039-0.0706 0.04921-0.14314 0.09827-0.21484 0.14453s-0.14396 0.09148-0.2168 0.13477c-0.0501 0.02976-0.0998 0.05759-0.15039 0.08594z" fill="#fa8d66" style="paint-order:stroke fill markers"/>
   <path d="m195.1 18.957c0.0506-0.02835 0.10032-0.05618 0.15039-0.08594 0.0728-0.04329 0.1451-0.0885 0.2168-0.13477 0.0717-0.04626 0.14422-0.09532 0.21484-0.14453 0.0706-0.04921 0.1394-0.09827 0.20899-0.15039 0.0696-0.05213 0.13843-0.10709 0.20703-0.16211s0.13742-0.11009 0.20508-0.16797c0.0677-0.05788 0.13441-0.11701 0.20117-0.17773 0.0668-0.06072 0.13331-0.12397 0.19922-0.1875 0.0659-0.06353 0.13215-0.129 0.19726-0.19531 0.0651-0.06632 0.12901-0.13405 0.19336-0.20312 0.0644-0.06907 0.12776-0.13913 0.19141-0.21094 0.0636-0.0718 0.12842-0.14424 0.19141-0.21875 0.12596-0.14902 0.24945-0.30322 0.37304-0.46289s0.24755-0.32599 0.36914-0.49609 0.24137-0.34506 0.36133-0.52539 0.23872-0.36435 0.35742-0.55469c0.0594-0.09517 0.12161-0.18709 0.18555-0.27539 0.0639-0.0883 0.1311-0.17418 0.19922-0.25586 0.0681-0.08168 0.13711-0.15906 0.20898-0.23438 0.0719-0.07531 0.14549-0.1476 0.22071-0.2168 0.0752-0.0692 0.15232-0.13588 0.23047-0.19922 0.0781-0.06334 0.15762-0.12392 0.23828-0.18164 0.0807-0.05773 0.16334-0.1117 0.24609-0.16406 0.0828-0.05236 0.16557-0.10314 0.25-0.15039 0.0844-0.04725 0.17016-0.09237 0.25586-0.13477s0.17127-0.08135 0.25781-0.11914c0.0866-0.03779 0.17279-0.07399 0.25977-0.10742 0.087-0.03343 0.17472-0.06442 0.26172-0.09375 0.015-0.0051 0.0299-0.0087 0.0449-0.01367a4.6043 4.6043 0 0 0-3.041-1.1465 4.6043 4.6043 0 0 0-4.6035 4.6035 4.6043 4.6043 0 0 0 0.94726 2.7676z" fill="#fec380" style="paint-order:stroke fill markers"/>
  </g>
  <g transform="matrix(.7133 0 0 .7133 -122.5 -30.204)" fill-rule="evenodd" stroke-linecap="round" stroke-linejoin="round" stroke-width="2.5152">
   <path d="m195.1 18.957a4.6043 4.6043 0 0 0 3.6562 1.8379 4.6043 4.6043 0 0 0 4.6055-4.6055 4.6043 4.6043 0 0 0-1.5644-3.457c-0.015 0.0049-0.0299 0.0086-0.0449 0.01367-0.087 0.02933-0.17475 0.06032-0.26172 0.09375-0.087 0.03343-0.17322 0.06963-0.25977 0.10742-0.0865 0.03779-0.17212 0.07674-0.25781 0.11914-0.0857 0.0424-0.17143 0.08751-0.25586 0.13477-0.0844 0.04725-0.16725 0.09803-0.25 0.15039-0.0828 0.05236-0.16544 0.10634-0.24609 0.16406-0.0807 0.05773-0.16014 0.1183-0.23828 0.18164-0.0781 0.06334-0.15526 0.13002-0.23047 0.19922-0.0752 0.0692-0.14883 0.14148-0.22071 0.2168-0.0719 0.07532-0.14086 0.15269-0.20898 0.23438-0.0681 0.08168-0.13528 0.16756-0.19922 0.25586-0.0639 0.0883-0.12619 0.18022-0.18555 0.27539-0.1187 0.19033-0.23746 0.37436-0.35742 0.55469s-0.23974 0.35528-0.36133 0.52539-0.24555 0.33643-0.36914 0.49609-0.24708 0.31388-0.37304 0.46289c-0.063 0.07451-0.12777 0.14694-0.19141 0.21875-0.0637 0.0718-0.12705 0.14186-0.19141 0.21094-0.0643 0.06907-0.12825 0.13681-0.19336 0.20312-0.0651 0.06632-0.13135 0.13178-0.19726 0.19531-0.0659 0.06353-0.13246 0.12678-0.19922 0.1875-0.0668 0.06072-0.13352 0.11985-0.20117 0.17773-0.0677 0.05788-0.13648 0.11295-0.20508 0.16797s-0.13744 0.10998-0.20703 0.16211c-0.0696 0.05213-0.13836 0.10118-0.20899 0.15039-0.0706 0.04921-0.14314 0.09827-0.21484 0.14453s-0.14396 0.09148-0.2168 0.13477c-0.0501 0.02976-0.0998 0.05759-0.15039 0.08594z" fill="#fa8d66" style="paint-order:stroke fill markers"/>
   <path d="m195.1 18.957c0.0506-0.02835 0.10032-0.05618 0.15039-0.08594 0.0728-0.04329 0.1451-0.0885 0.2168-0.13477 0.0717-0.04626 0.14422-0.09532 0.21484-0.14453 0.0706-0.04921 0.1394-0.09827 0.20899-0.15039 0.0696-0.05213 0.13843-0.10709 0.20703-0.16211s0.13742-0.11009 0.20508-0.16797c0.0677-0.05788 0.13441-0.11701 0.20117-0.17773 0.0668-0.06072 0.13331-0.12397 0.19922-0.1875 0.0659-0.06353 0.13215-0.129 0.19726-0.19531 0.0651-0.06632 0.12901-0.13405 0.19336-0.20312 0.0644-0.06907 0.12776-0.13913 0.19141-0.21094 0.0636-0.0718 0.12842-0.14424 0.19141-0.21875 0.12596-0.14902 0.24945-0.30322 0.37304-0.46289s0.24755-0.32599 0.36914-0.49609 0.24137-0.34506 0.36133-0.52539 0.23872-0.36435 0.35742-0.55469c0.0594-0.09517 0.12161-0.18709 0.18555-0.27539 0.0639-0.0883 0.1311-0.17418 0.19922-0.25586 0.0681-0.08168 0.13711-0.15906 0.20898-0.23438 0.0719-0.07531 0.14549-0.1476 0.22071-0.2168 0.0752-0.0692 0.15232-0.13588 0.23047-0.19922 0.0781-0.06334 0.15762-0.12392 0.23828-0.18164 0.0807-0.05773 0.16334-0.1117 0.24609-0.16406 0.0828-0.05236 0.16557-0.10314 0.25-0.15039 0.0844-0.04725 0.17016-0.09237 0.25586-0.13477s0.17127-0.08135 0.25781-0.11914c0.0866-0.03779 0.17279-0.07399 0.25977-0.10742 0.087-0.03343 0.17472-0.06442 0.26172-0.09375 0.015-0.0051 0.0299-0.0087 0.0449-0.01367a4.6043 4.6043 0 0 0-3.041-1.1465 4.6043 4.6043 0 0 0-4.6035 4.6035 4.6043 4.6043 0 0 0 0.94726 2.7676z" fill="#fec380" style="paint-order:stroke fill markers"/>
  </g>
 </g>
</svg>
