<?xml version="1.0" encoding="UTF-8"?>
<svg id="Iterm" width="64" height="64" enable-background="new 0 0 1024 1024" image-rendering="optimizeSpeed" version="1.1" viewBox="0 0 64 64" xmlns="http://www.w3.org/2000/svg" xmlns:cc="http://creativecommons.org/ns#" xmlns:dc="http://purl.org/dc/elements/1.1/" xmlns:rdf="http://www.w3.org/1999/02/22-rdf-syntax-ns#" xmlns:xlink="http://www.w3.org/1999/xlink">
 <metadata>
  <rdf:RDF>
   <cc:Work rdf:about="">
    <dc:format>image/svg+xml</dc:format>
    <dc:type rdf:resource="http://purl.org/dc/dcmitype/StillImage"/>
   </cc:Work>
  </rdf:RDF>
 </metadata>
 <defs>
  <linearGradient id="linearGradient1358">
   <stop stop-color="#fb6ba7" offset="0"/>
   <stop stop-color="#ff8c7a" offset=".47604"/>
   <stop stop-color="#d15741" offset="1"/>
  </linearGradient>
  <linearGradient id="linearGradient1360" x1="29.148" x2="29.148" y1="7.3993" y2="59" gradientUnits="userSpaceOnUse" xlink:href="#linearGradient1358"/>
  <linearGradient id="linearGradient89705" x1="34.852" x2="34.852" y1="6.8672" y2="58.663" gradientUnits="userSpaceOnUse" xlink:href="#linearGradient1358"/>
 </defs>
 <mask>
  <g id="g">
   <path d="m969.75 392.05c-1.1-4.35-2.35-9-3.65-13.6-1-3.4-2-6.85-3.15-10.5-1.6-5.15-3.4-10.5-5.3-15.85-6.45-18.25-14.15-36.05-23.15-53.65-3.8-7.4-7.95-14.95-12.3-22.4-20.3-34.5-45.8-67.2-76.35-97.75-72.6-72.6-157.15-116.65-253.65-132.05-16.25-2.6-32.8-4.4-50.05-5.35-9.7-0.55-19.85-0.85-30.1-0.85-9.35 0-18.6 0.25-27.9 0.75-118.35 6.1-220.3 51.95-305.85 137.5q-138.25 138.25-138.25 333.75c0 130.35 46.1 241.65 138.25 333.8 56.7 56.65 120.55 95.9 191.1 117.55 36.75 11.25 74.8 17.85 114.75 19.95h0.4c8.5 0.45 16.6 0.7 24.5 0.7h3c10.3 0 20.5-0.3 30.1-0.8 2.5-0.15 4.75-0.3 6.95-0.45 20.2-1.45 39.9-4.05 58.7-7.7 7.95-1.55 15.8-3.3 23.4-5.15 80.8-20.3 152.15-61.6 214.65-124.1 48.6-48.6 84.4-102.5 107.35-161.8 18.45-47.65 28.65-98.8 30.55-153.5 0.2-6.05 0.3-12.25 0.3-18.5v-3c-0.2-40.65-4.95-79.5-14.3-117z" fill="#fff"/>
  </g>
 </mask>
 <path d="m25.004 3.498c-6.7369 0-12.178 5.4408-12.178 12.178v6.9961 18.656c0 10.613 8.5612 19.174 19.174 19.174 10.613 0 19.174-8.5612 19.174-19.174v-18.656-6.9961c0-6.7369-5.4408-12.178-12.178-12.178h-13.992zm0 3.3691h4.1445v15.514c0 1.7 1.2475 3.1426 2.8516 3.1426 1.604 0 2.8516-1.4426 2.8516-3.1426v-15.514h4.1445c4.8901 0 8.8086 3.9185 8.8086 8.8086v6.9961 18.656c0 8.7658-7.0389 15.805-15.805 15.805-8.7658 0-15.805-7.0389-15.805-15.805v-18.656-6.9961c0-4.8901 3.9185-8.8086 8.8086-8.8086z" color="#000000" fill="url(#linearGradient1360)" stroke="url(#linearGradient89705)" stroke-linecap="round" stroke-linejoin="round" stroke-width="2"/>
</svg>
