<?xml version="1.0" encoding="UTF-8"?>
<svg width="64" height="64" version="1.1" viewBox="0 0 64 64" xmlns="http://www.w3.org/2000/svg">
 <defs>
  <linearGradient id="linearGradient25212" x1="-339.09" x2="-292.92" y1="-22.676" y2="-56.568" gradientTransform="matrix(1.1017 0 0 1.2949 380.03 83.707)" gradientUnits="userSpaceOnUse">
   <stop stop-color="#6e82ff" offset="0"/>
   <stop stop-color="#0ca9dc" offset=".36778"/>
   <stop stop-color="#2ad678" offset="1"/>
  </linearGradient>
 </defs>
 <path d="m16.535 7.2122s-1.1293 0.12835-1.8892 1.9488c-0.75986 1.8204-14.3 34.257-14.3 34.257s-0.77926 1.5489 0 3.4158c0.77926 1.8669 3.5956 8.6181 3.5956 8.6181s0.58191 1.3339 1.6697 1.3339h7.5655s0.86166 0.135 1.8203-2.1618l12.521-29.994s0.55566-1.4235 1.5492-1.4235h4.5101s1.2078 0.27321 2.1625-2.0141c0.95476-2.2873 1.8462-4.4301 1.8462-4.4301s0.86139-1.6504 0.2453-3.026c-0.61609-1.3756-1.9172-4.9821-1.9172-4.9821s-0.48067-1.4767-1.7752-1.4767c-1.2945 0-14.406-0.065363-14.406-0.065363zm34.29 0.00242s-0.86382-0.135-1.8225 2.1618l-12.521 29.994s-0.55566 1.4235-1.5492 1.4235h-4.5079s-1.2099-0.27321-2.1646 2.0141c-0.95476 2.2873-1.8462 4.4301-1.8462 4.4301s-0.86139 1.6504-0.2453 3.026 1.9194 4.9821 1.9194 4.9821 0.48067 1.4767 1.7752 1.4767c1.2945 0 14.403 0.06536 14.403 0.06536h3.1974s1.1293-0.12835 1.8892-1.9488c0.75986-1.8204 14.3-34.257 14.3-34.257s0.77926-1.5489 0-3.4158c-0.77926-1.8669-3.5956-8.6181-3.5956-8.6181s-0.58191-1.3339-1.6697-1.3339zm-33.094 4.9264h5.5751l10.042 0.01694 0.91449 2.1908-1.7192 4.1178h-6.5844l-13.877 33.246h-5.4762l-2.6962-6.4636zm13.676 14.023c-0.21475-0.01493-1.1235 0.04529-1.9258 1.9706-0.91686 2.2002-3.5224 8.4294-3.5224 8.4294s-0.54541 1.5366 0.88867 1.5469c1.4341 0.01025 5.6225 0.03389 5.6225 0.03389s1.0911 0.23195 1.8526-1.5226c0.7666-1.7662 3.744-9.0612 3.744-9.0612s0.52265-1.4522-1.2179-1.392c-1.6946-0.0054-3.5535-0.0078-4.9791-0.0024l-0.41528 0.0048s-0.01666-0.0052-0.04734-0.0073zm-0.75741 25.678 15.62 0.01694h-5.5773z" fill="url(#linearGradient25212)" stroke-width="1.1017"/>
</svg>
