<?xml version="1.0" encoding="UTF-8"?>
<svg width="64" height="64" version="1.1" viewBox="0 0 64 64" xmlns="http://www.w3.org/2000/svg" xmlns:xlink="http://www.w3.org/1999/xlink">
 <defs>
  <linearGradient id="linearGradient1817" x1="182.6" x2="182.6" y1="-2.6484" y2="95.016" gradientTransform="matrix(.59387 0 0 .59387 -76.439 4.5731)" gradientUnits="userSpaceOnUse">
   <stop stop-color="#70aef9" offset="0"/>
   <stop stop-color="#87fcee" offset="1"/>
  </linearGradient>
  <linearGradient id="linearGradient38522" x1="173.21" x2="196.07" y1="8.9285" y2="42.816" gradientTransform="matrix(.59387 0 0 .59387 -76.439 4.5731)" gradientUnits="userSpaceOnUse">
   <stop stop-color="#5795f2" offset="0"/>
   <stop stop-color="#87c5fe" stop-opacity="0" offset="1"/>
  </linearGradient>
  <linearGradient id="linearGradient61286" x1="9.0261" x2="31.853" y1="15.023" y2="6.9876" gradientUnits="userSpaceOnUse">
   <stop stop-color="#cfecfc" offset="0"/>
   <stop stop-color="#96cefa" offset="1"/>
  </linearGradient>
 </defs>
 <path d="m32 3c-1.3736 0-2.7471 0.30068-3.7891 0.90234l-18.648 10.768c-2.0839 1.2033-3.7891 4.1561-3.7891 6.5625v21.535c0 2.4068 1.7052 5.3591 3.7891 6.5625l18.648 10.768c2.0839 1.2034 5.4943 1.2034 7.5781 0l18.648-10.768c2.0844-1.2034 3.791-4.1557 3.791-6.5625v-21.535c0-2.4063-1.7066-5.3592-3.791-6.5625l-18.648-10.768c-1.0419-0.60167-2.4155-0.90234-3.7891-0.90234zm-11.5 23h23c1.385 0 2.5 1.115 2.5 2.5s-1.115 2.5-2.5 2.5h-23c-1.385 0-2.5-1.115-2.5-2.5s1.115-2.5 2.5-2.5zm0 12h23c1.385 0 2.5 1.115 2.5 2.5s-1.115 2.5-2.5 2.5h-23c-1.385 0-2.5-1.115-2.5-2.5s1.115-2.5 2.5-2.5z" fill="url(#linearGradient1817)" stroke-width=".062281"/>
 <path d="m32 3c-1.3736 0-2.7471 0.30068-3.7891 0.90234l-18.65 10.768c-2.0839 1.2033-3.7891 4.1561-3.7891 6.5625v21.535c0 2.4068 1.7052 5.3591 3.7891 6.5625l18.65 10.768c2.0838 1.2034 5.4943 1.2034 7.5781 0l18.648-10.768c2.0844-1.2034 3.791-4.1557 3.791-6.5625v-21.535c0-2.4063-1.7066-5.3592-3.791-6.5625l-18.648-10.768c-1.0419-0.60167-2.4155-0.90234-3.7891-0.90234zm-11.5 23h23c1.385 0 2.5 1.115 2.5 2.5s-1.115 2.5-2.5 2.5h-23c-1.385 0-2.5-1.115-2.5-2.5s1.115-2.5 2.5-2.5z" fill="url(#linearGradient38522)" stroke-width=".062281"/>
 <path d="m32 3.0003c-1.3736 0-2.7475 0.30073-3.7894 0.9024l-18.649 10.767c-1.6151 0.93267-2.9917 2.9163-3.5342 4.882 0.67684-2.0813 3.8717-2.4532 3.8717-2.4532h18.179c4.1214 0 3.7743-3.3683 3.7743-3.3683v-7.305c0-3.1316 3.0943-2.9039 3.134-2.9009-0.89894-0.34823-1.9418-0.52427-2.9867-0.52427z" fill="url(#linearGradient61286)"/>
</svg>
