<?xml version="1.0" encoding="UTF-8"?>
<svg width="64px" height="64px" version="1.1" viewBox="0 0 64 64" xmlns="http://www.w3.org/2000/svg">
 <defs>
  <linearGradient id="linearGradient3105" x1="-126.38" x2="-86.65" y1="2.3787" y2="33.754" gradientTransform="translate(0 -.15136)" gradientUnits="userSpaceOnUse">
   <stop stop-color="#00e8ca" offset="0"/>
   <stop stop-color="#06beeb" offset="1"/>
  </linearGradient>
  <linearGradient id="linearGradient21504" x1="-126.96" x2="-109.69" y1="34.415" y2="4.505" gradientTransform="translate(0 -.15136)" gradientUnits="userSpaceOnUse">
   <stop stop-color="#02d9d6" offset="0"/>
   <stop stop-color="#02bebf" offset=".75914"/>
   <stop stop-color="#021131" offset="1"/>
  </linearGradient>
  <linearGradient id="linearGradient70514" x1="-108.87" x2="-92.093" y1="33.108" y2="4.0578" gradientTransform="translate(0 -.15136)" gradientUnits="userSpaceOnUse">
   <stop stop-color="#04cddf" offset="0"/>
   <stop stop-color="#04c8d4" offset=".75914"/>
   <stop stop-color="#021131" offset="1"/>
  </linearGradient>
  <linearGradient id="linearGradient112168" x1="-128.11" x2="-91.148" y1="34.876" y2="34.876" gradientUnits="userSpaceOnUse">
   <stop stop-color="#02dad5" offset="0"/>
   <stop stop-color="#09aff4" offset="1"/>
  </linearGradient>
  <linearGradient id="linearGradient169005" x1="-127.22" x2="-109.38" y1="65.132" y2="34.225" gradientUnits="userSpaceOnUse">
   <stop stop-color="#07c1e5" offset="0"/>
   <stop stop-color="#07bfea" offset=".71105"/>
   <stop stop-color="#021131" offset="1"/>
  </linearGradient>
  <linearGradient id="linearGradient184523" x1="-109.51" x2="-91.486" y1="65.153" y2="33.939" gradientUnits="userSpaceOnUse">
   <stop stop-color="#08b7ee" offset="0"/>
   <stop stop-color="#06b5ed" offset=".75914"/>
   <stop stop-color="#021131" offset="1"/>
  </linearGradient>
  <linearGradient id="linearGradient203574" x1="-134.56" x2="-86.762" y1="44.972" y2="55.348" gradientTransform="rotate(180 -109.6 49.025)" gradientUnits="userSpaceOnUse">
   <stop stop-color="#09aaf8" offset="0"/>
   <stop stop-color="#06c7e1" offset="1"/>
  </linearGradient>
  <linearGradient id="linearGradient236750" x1="-88.133" x2="-92.749" y1="55.033" y2="64.682" gradientTransform="rotate(180 -109.6 49.025)" gradientUnits="userSpaceOnUse">
   <stop stop-color="#06c7e1" offset="0"/>
   <stop stop-color="#011232" offset="1"/>
  </linearGradient>
 </defs>
 <g transform="matrix(.78989 0 0 .78989 118.61 5.3611)">
  <path d="m-77.477 31.703c-0.31424-0.0085-0.52372 0.02221-0.57813 0.03125h-50.428l-12.213 21.008c-0.40405 0.69501-0.74139 1.3592-1.0332 2-1.0244 2.2495-1.3716 4.184-1.0508 5.9141 0.41228 2.2229 2.0212 3.7454 3.6133 4.5176s3.2842 1.051 4.5781 1.1367c0.0384 0.0025 0.0678 0.0017 0.10547 0.0039h1.7226c0.1109-0.0085 0.2498-0.01649 0.27735-0.01953h7.1875s26.977-0.0039 30.416-0.0039c4.5772 0 6.541-4.1426 6.541-4.1426l-0.10156 0.20312s6.7702-11.815 10.965-19.053c1.2692-2.19 2.3695-4.0809 2.8906-4.9473 0.70535-1.1726 1.1027-2.2475 0.99414-3.4043-0.10854-1.1568-0.91736-2.1541-1.666-2.5918-0.88122-0.51518-1.697-0.63825-2.2207-0.65234zm-7.1445 0.03516c0.32348 0.02144 0.67164 0.05521 1.0371 0.10547 0.36547 0.05026 0.74873 0.11661 1.1406 0.20508 0.39189 0.08847 0.79257 0.19792 1.1953 0.33398 0.20137 0.06803 0.40235 0.14292 0.60352 0.22461 0.20116 0.08169 0.40255 0.17105 0.60156 0.26758s0.39854 0.20435 0.5957 0.32422c0.19717 0.11987 0.39145 0.2515 0.58203 0.39453s0.37738 0.2969 0.55664 0.46289c0.17926 0.16598 0.35243 0.34445 0.51562 0.5332 0.1632 0.18875 0.3166 0.38829 0.45898 0.59961s0.27378 0.43427 0.39062 0.66797 0.21813 0.4785 0.30469 0.73438 0.15745 0.52291 0.20898 0.80078c0.05154 0.27787 0.08604 0.56084 0.10352 0.84961 0.01747 0.28877 0.01879 0.58414 2e-3 0.88476-0.01684 0.30062-0.05213 0.60649-0.10352 0.91992s-0.1189 0.63374-0.20508 0.96094c-0.08619 0.3272-0.19128 0.66198-0.3125 1.0039-0.12122 0.34193-0.25951 0.69122-0.41602 1.0488 0.1565-0.35761 0.29479-0.7069 0.41602-1.0488 0.12122-0.34193 0.22632-0.6767 0.3125-1.0039s0.15369-0.6475 0.20508-0.96094c0.05139-0.31343 0.08668-0.6193 0.10352-0.91992s0.01552-0.596-2e-3 -0.88476c-0.01747-0.28877-0.05198-0.57174-0.10352-0.84961s-0.12242-0.5449-0.20898-0.80078-0.18784-0.50068-0.30469-0.73438-0.24824-0.45665-0.39062-0.66797-0.29579-0.41086-0.45898-0.59961-0.33637-0.36722-0.51562-0.5332c-0.17926-0.16599-0.36606-0.31986-0.55664-0.46289s-0.38487-0.27466-0.58203-0.39453-0.3967-0.22769-0.5957-0.32422c-0.19901-0.09653-0.4004-0.18588-0.60156-0.26758-0.20116-0.08169-0.40214-0.15658-0.60352-0.22461-0.40274-0.13606-0.80342-0.24552-1.1953-0.33398-0.39189-0.08847-0.77516-0.15482-1.1406-0.20508-0.36547-0.05026-0.71363-0.08403-1.0371-0.10547zm-44.695 2.0898c-0.26577 0.25891-0.49588 0.51899-0.6914 0.76172 0.19552-0.24273 0.42563-0.50281 0.6914-0.76172zm-1.1758 1.4258c-0.25562 0.38837-0.3789 0.64648-0.3789 0.64648s0.12328-0.25812 0.3789-0.64648zm52.652 0.47656s0.05617 6e-3 0.07617 0.0098c-0.0429 0.15173 0.01 0.1225-0.24805 0.55078-0.56945 0.94669-1.7035 2.893-3.0254 5.1738-4.2389 7.3141-10.873 18.898-10.873 18.898l-0.05664 0.09961-0.04492 0.10352-2e-3 0.0059c-0.0023 7e-3 -0.09953 0.2793-0.35352 0.60742-0.38409 0.4962-1.132 1.1113-2.5117 1.1113-3.4422 0-30.416 0.0039-30.416 0.0039h-7.3457l-0.0801 0.0059s-2.9927 0.10118-4.6992-0.72656c-0.85328-0.41387-1.2694-0.80333-1.4258-1.6465-0.11689-0.63025-0.0267-1.7194 0.67382-3.3438 0.23664-0.54874 0.54175-1.158 0.9336-1.832l10.041-17.27 2e-3 -0.0059 0.35156-0.60352 0.66211-1.1387h48.275z" color="#000000" fill="url(#linearGradient203574)" style="-inkscape-stroke:none"/>
  <path d="m-109.02 33.125a2 2 0 0 0-2.7324 0.73242l-16.568 28.699a2 2 0 0 0 0.73047 2.7324 2 2 0 0 0 2.7324-0.73242l16.57-28.699a2 2 0 0 0-0.73242-2.7324z" color="#000000" fill="url(#linearGradient169005)" stroke-linecap="round" style="-inkscape-stroke:none"/>
  <path d="m-92.982 32.926a2 2 0 0 0-1.2148 0.93164l-16.57 28.699a2 2 0 0 0 0.73242 2.7324 2 2 0 0 0 2.7324-0.73242l16.57-28.699a2 2 0 0 0-0.73242-2.7324 2 2 0 0 0-1.5176-0.19922z" color="#000000" fill="url(#linearGradient184523)" stroke-linecap="round" style="-inkscape-stroke:none"/>
  <path d="m-135.21 43.305h4.627l3.3848-5.8223 2e-3 -0.0059 0.35156-0.60352 0.66211-1.1387h6.9473l2.3086-4h-11.557z" color="#000000" fill="url(#linearGradient236750)" style="-inkscape-stroke:none"/>
  <path d="m-110.63 2.3545a2 2 0 0 0-1.2148 0.93359l-16.57 28.699a2 2 0 0 0 0.73242 2.7324 2 2 0 0 0 2.7324-0.73242l16.57-28.699a2 2 0 0 0-0.73242-2.7324 2 2 0 0 0-1.5176-0.20117z" color="#000000" fill="url(#linearGradient21504)" stroke-linecap="round" style="-inkscape-stroke:none"/>
  <path d="m-91.561 2.5557a2 2 0 0 0-2.7324 0.73242l-16.57 28.699a2 2 0 0 0 0.73242 2.7324 2 2 0 0 0 2.7305-0.73242l16.57-28.699a2 2 0 0 0-0.73047-2.7324z" color="#000000" fill="url(#linearGradient70514)" stroke-linecap="round" style="-inkscape-stroke:none"/>
  <path d="m-84.717 1.1689c-1.2939-0.085739-2.1895 0.021484-2.1895 0.021484l0.16016-0.00586h-7.2656s-26.977 0.00391-30.416 0.00391c-4.5772 0-6.5391 4.1426-6.5391 4.1426l0.0996-0.20312s-11.612 20.268-13.855 23.998c-0.70534 1.1726-1.1027 2.2494-0.99414 3.4062 0.10854 1.1568 0.91932 2.1541 1.668 2.5918 1.4973 0.87535 2.8516 0.61523 2.8516 0.61523l-0.13281 0.0059h50.508l12.213-21.008c1.8224-3.1347 2.4943-5.6911 2.082-7.9141s-2.0193-3.7454-3.6113-4.5176c-1.5921-0.77221-3.2842-1.051-4.5781-1.1367zm-1.8691 4.0078s2.9946-0.099222 4.7012 0.72852c0.85328 0.41387 1.2694 0.80333 1.4258 1.6465 0.15638 0.84315-0.0575 2.5064-1.6094 5.1758l-11.055 19.018h-48.275l-0.0664 0.0039s-0.058-0.0075-0.0801-0.01172c0.0429-0.15172-8e-3 -0.12052 0.25-0.54883 2.3956-3.9826 13.9-24.072 13.9-24.072l0.0566-0.099609 0.0449-0.10352s0.56125-1.7246 2.8652-1.7246c3.442 0 30.413-0.00391 30.416-0.00391h7.3458z" color="#000000" fill="url(#linearGradient3105)" style="-inkscape-stroke:none"/>
  <path d="m-93.914 31.754s-26.977 0.0039-30.416 0.0039c-4.3046 0-6.229 3.5518-6.4512 3.9883h40.266l2.013-3.9922zm-36.855 3.9434s-0.0272 0.04862-0.0273 0.04883h4e-3z" color="#000000" fill="url(#linearGradient112168)" style="-inkscape-stroke:none"/>
 </g>
</svg>
