<?xml version="1.0" encoding="UTF-8"?>
<svg width="64" height="64" version="1.1" viewBox="0 0 16.933 16.933" xmlns="http://www.w3.org/2000/svg" xmlns:cc="http://creativecommons.org/ns#" xmlns:dc="http://purl.org/dc/elements/1.1/" xmlns:rdf="http://www.w3.org/1999/02/22-rdf-syntax-ns#" xmlns:xlink="http://www.w3.org/1999/xlink">
 <defs>
  <linearGradient id="linearGradient3717">
   <stop stop-color="#953cfb" offset="0"/>
   <stop stop-color="#4723b7" offset="1"/>
  </linearGradient>
  <linearGradient id="linearGradient3675" x1="-3.5798" x2="-19.036" y1="-19.389" y2="-9.055" gradientTransform="matrix(.9546 0 0 .9546 19.476 19.58)" gradientUnits="userSpaceOnUse" xlink:href="#linearGradient3717"/>
  <linearGradient id="linearGradient37633" x1="58.605" x2="6.2449" y1="57.268" y2="21.004" gradientUnits="userSpaceOnUse">
   <stop stop-color="#ca00b2" offset="0"/>
   <stop stop-color="#fab003" offset=".66223"/>
   <stop stop-color="#fc5466" offset="1"/>
  </linearGradient>
  <linearGradient id="linearGradient41224" x1="11.864" x2="5.3643" y1="8.9834" y2="11.707" gradientUnits="userSpaceOnUse" xlink:href="#linearGradient3717"/>
  <linearGradient id="linearGradient41942" x1="3.1002" x2="7.9074" y1="8.4513" y2="8.4513" gradientUnits="userSpaceOnUse" xlink:href="#linearGradient3717"/>
 </defs>
 <metadata>
  <rdf:RDF>
   <cc:Work rdf:about="">
    <dc:format>image/svg+xml</dc:format>
    <dc:type rdf:resource="http://purl.org/dc/dcmitype/StillImage"/>
   </cc:Work>
  </rdf:RDF>
 </metadata>
 <path transform="scale(.26458)" d="m11.717 17.127s-6.0599 2.3283-8.3398 8.0996c0 0-1.2409 8.5566 6.7129 8.5566s10.722-0.78682 15.26 2.6641c4.5374 3.4509 31.953 24.004 31.953 24.004s1.4089 0.83357 3.0996-0.14258 1.5957-2.5969 1.5957-4.4844v-11.508s0.082572-1.378-1.2227-2.4453c-1.3052-1.0673-15.578-12.158-15.578-12.158l-9.5488-7.457s-3.5789-3.1776-5.7617-3.4395v2.2109l-2.2656-0.18359v14.186l-6.0352-3.4844h-7.4844l0.36524-11.766-2.75-0.22266v-2.4297z" fill="url(#linearGradient37633)"/>
 <rect x="3.1002" y=".85507" width="4.8071" height="15.192" ry="1.247" fill="url(#linearGradient41942)" fill-rule="evenodd" style="paint-order:stroke fill markers"/>
 <rect x="4.057" y="1.85" width="2.8937" height="13.202" ry=".70083" fill="url(#linearGradient41224)" fill-rule="evenodd" style="paint-order:stroke fill markers"/>
 <path d="m15.498 0.8511c-0.27151 0.004647-0.44079 0.16536-0.44079 0.16536l-6.0554 4.5278c0.24844 0.18451 0.43047 0.34417 0.43047 0.34417l0.3085 0.24081 5.7686-4.2907v3.2824s-1.7436 1.3408-3.5507 2.7403c0 0 0.51905 0.40407 0.75241 0.58549 1.6109-1.2513 3.1485-2.446 3.303-2.5657 0.33226-0.25714 0.32969-0.73482 0.32969-0.73482v-2.6143c0-0.50916 0.09122-1.2663-0.41857-1.5606-0.15931-0.091979-0.30395-0.12252-0.42735-0.12041zm-14.604 5.8234c-0.4342 0.86782-0.42724 2.1813-0.2527 2.8546 0.17455 0.67325 0.9 2.6606 3.4803 3.0525 2.5804 0.39187 4.7966-1.1885 4.7966-1.1885s0.055985-0.04326 0.056842-0.04393c-0.26884-0.20214-0.52419-0.39441-0.74982-0.5643-0.012364 0.01012-0.03149 0.02575-0.042891 0.03514-1.1569 0.95241-3.7295 1.2065-5.2384 0.44907-1.3224-0.66378-1.5287-2.3798-1.5596-2.7942-0.26149-0.26449-0.39155-0.60364-0.45423-0.91725-0.11757-0.47696-0.036173-0.88314-0.036173-0.88314z" fill="url(#linearGradient3675)" stroke-width=".26458"/>
</svg>
