<?xml version="1.0" encoding="UTF-8"?>
<svg width="64" height="64" version="1" xmlns="http://www.w3.org/2000/svg" xmlns:xlink="http://www.w3.org/1999/xlink">
 <defs>
  <linearGradient id="linearGradient18235" x1="-42.856" x2="-42.856" y1="36.222" y2="6.4276" gradientUnits="userSpaceOnUse">
   <stop stop-color="#535354" offset="0"/>
   <stop stop-color="#7f8181" offset="1"/>
  </linearGradient>
  <linearGradient id="linearGradient23561" x1="3.8207" x2="29.115" y1="21.829" y2="36.432" gradientTransform="matrix(.59955 0 0 .59955 40.848 -33.995)" gradientUnits="userSpaceOnUse">
   <stop stop-color="#808282" offset="0"/>
   <stop stop-color="#535354" offset="1"/>
  </linearGradient>
  <linearGradient id="linearGradient23563" x1="-18.137" x2="-46.349" y1="-12.734" y2="-5.1744" gradientTransform="matrix(.59955 0 0 .59955 -4.8461 52.922)" gradientUnits="userSpaceOnUse">
   <stop stop-color="#808282" offset="0"/>
   <stop stop-color="#535354" offset="1"/>
  </linearGradient>
  <linearGradient id="linearGradient23565" x1="-16.994" x2="-16.994" y1="14.223" y2="43.43" gradientTransform="matrix(.59955 0 0 .59955 49.865 18.378)" gradientUnits="userSpaceOnUse">
   <stop stop-color="#808282" offset="0"/>
   <stop stop-color="#535354" offset="1"/>
  </linearGradient>
  <linearGradient id="linearGradient23569" x1="-1.9592" x2="18.693" y1="22.074" y2="42.726" gradientTransform="matrix(.59955 0 0 .59955 48.255 -22.264)" gradientUnits="userSpaceOnUse">
   <stop stop-color="#808282" offset="0"/>
   <stop stop-color="#535354" offset="1"/>
  </linearGradient>
  <linearGradient id="linearGradient23571" x1="22.074" x2="42.726" y1="-1.9592" y2="18.693" gradientTransform="matrix(.59955 0 0 .59955 -22.264 48.255)" gradientUnits="userSpaceOnUse">
   <stop stop-color="#808282" offset="0"/>
   <stop stop-color="#535354" offset="1"/>
  </linearGradient>
 </defs>
 <g transform="translate(71.723 -1.373)">
  <path d="m-57.723 6.4277c-1.6568 1.657e-4 -2.9998 1.3432-3 3v48c1.66e-4 1.6568 1.3432 2.9998 3 3h36c1.6568-1.66e-4 2.9998-1.3432 3-3v-26.832a2.9974 2.9974 0 0 0 0-2e-3 2.9974 2.9974 0 0 0-2.998-2.9941 2.9974 2.9974 0 0 0-2.9961 2.9941h-0.0059v23.834h-30v-42h11.867v-0.0059a2.9974 2.9974 0 0 0 2.9961-2.9961 2.9974 2.9974 0 0 0-2.9961-2.998z" color="#000000" fill="url(#linearGradient18235)" stroke-linecap="round" stroke-linejoin="round" style="-inkscape-stroke:none"/>
  <path d="m-32.895 6.3184a3.0003 3.0003 0 0 0-2.1211 5.1211l11.172 11.172a3.0003 3.0003 0 0 0 5.1211-2.1211v-11.172a3.0003 3.0003 0 0 0-3-3z" color="#000000" fill="#808282" stroke-linecap="round" stroke-linejoin="round" style="-inkscape-stroke:none"/>
 </g>
 <g fill-rule="evenodd" stroke-linecap="round" stroke-linejoin="round">
  <rect transform="rotate(60)" x="39.276" y="-1.26" width="11.991" height="1.7986" ry=".89932" fill="url(#linearGradient23561)" stroke-width=".57467" style="font-variation-settings:'wght' 700;paint-order:stroke fill markers"/>
  <rect transform="rotate(-75)" x="-36.26" y="35.005" width="17.986" height="1.7986" ry=".89932" fill="url(#linearGradient23563)" stroke-width=".70382" style="font-variation-settings:'wght' 700;paint-order:stroke fill markers"/>
  <rect x="28.912" y="26.906" width="15.588" height="1.7986" ry=".89932" fill="url(#linearGradient23565)" stroke-width=".65522" style="font-variation-settings:'wght' 700;paint-order:stroke fill markers"/>
  <rect transform="rotate(45)" x="47.289" y=".24845" width="13.79" height="1.7986" ry=".89932" fill="url(#linearGradient23569)" stroke-width=".61626" style="font-variation-settings:'wght' 700;paint-order:stroke fill markers"/>
  <rect transform="matrix(-.70711 .70711 .70711 .70711 0 0)" x="-5.747" y="53.284" width="13.79" height="1.7986" ry=".89932" fill="url(#linearGradient23571)" stroke-width=".61626" style="font-variation-settings:'wght' 700;paint-order:stroke fill markers"/>
 </g>
</svg>
