<?xml version="1.0" encoding="UTF-8"?>
<svg width="64" height="64" version="1" xmlns="http://www.w3.org/2000/svg" xmlns:xlink="http://www.w3.org/1999/xlink">
 <defs>
  <linearGradient id="linearGradient18235" x1="-42.856" x2="-42.856" y1="36.222" y2="6.4276" gradientUnits="userSpaceOnUse">
   <stop stop-color="#a85ba6" offset="0"/>
   <stop stop-color="#be77b3" offset="1"/>
  </linearGradient>
  <linearGradient id="linearGradient104402" x1="32" x2="32" y1="27.604" y2="50.6" gradientTransform="translate(0 -2.0996)" gradientUnits="userSpaceOnUse">
   <stop stop-color="#debad8" offset="0"/>
   <stop stop-color="#a85ba6" offset="1"/>
  </linearGradient>
 </defs>
 <g transform="translate(0 -1.373)">
  <g transform="translate(71.723)">
   <path d="m-57.723 6.4277c-1.6568 1.657e-4 -2.9998 1.3432-3 3v48c1.66e-4 1.6568 1.3432 2.9998 3 3h36c1.6568-1.66e-4 2.9998-1.3432 3-3v-26.832a2.9974 2.9974 0 0 0 0-2e-3 2.9974 2.9974 0 0 0-2.998-2.9941 2.9974 2.9974 0 0 0-2.9961 2.9941h-0.0059v23.834h-30v-42h11.867v-0.0059a2.9974 2.9974 0 0 0 2.9961-2.9961 2.9974 2.9974 0 0 0-2.9961-2.998z" color="#000000" fill="url(#linearGradient18235)" stroke-linecap="round" stroke-linejoin="round" style="-inkscape-stroke:none"/>
   <path d="m-32.895 6.3184a3.0003 3.0003 0 0 0-2.1211 5.1211l11.172 11.172a3.0003 3.0003 0 0 0 5.1211-2.1211v-11.172a3.0003 3.0003 0 0 0-3-3z" color="#000000" fill="#a75ba6" stroke-linecap="round" stroke-linejoin="round" style="-inkscape-stroke:none"/>
  </g>
  <path d="m32.004 25.5-0.0039 0.0039c-4.1948 0-7.7789 1.422-9.2637 3.4355-0.12464 0.16904-0.23406 0.34066-0.32812 0.51758-0.0894 0.16814-0.16638 0.33929-0.22656 0.51367a10 5.498 0 0 0-0.04102 0.16016c-0.03428 0.11818-0.07144 0.23685-0.0918 0.35742a10 5.498 0 0 0-0.04883 0.51367c5.5e-4 0.17865 0.01874 0.35801 0.05078 0.53516a10 5.498 0 0 0 0.13672 0.51367 10 5.498 0 0 0 0.23047 0.51367 10 5.498 0 0 0 0.31836 0.5 10 5.498 0 0 0 9.2637 3.4355 10 5.498 0 0 0 9.2637-3.4355 10 5.498 0 0 0 2e-3 -0.0059 10 5.498 0 0 0 0.27148-0.42383c0.0158-0.02787 0.03572-0.056 0.05078-0.08398a10 5.498 0 0 0 0.16406-0.36523c0.02332-0.05752 0.05233-0.11398 0.07227-0.17188a10 5.498 0 0 0 0.08203-0.30469c0.0192-0.08061 0.03997-0.1611 0.05273-0.24219a10 5.498 0 0 0 0.04102-0.46484 10 5.498 0 0 0-0.05273-0.54688c-0.092-0.53605-0.32969-1.0434-0.67969-1.5176-1.486-2.0143-5.0697-3.4375-9.2637-3.4375zm-9.2676 10a10 5.0905 0 0 0-0.73633 1.9102 10 5.0905 0 0 0 10 5.0898 10 5.0905 0 0 0 10-5.0918 10 5.0905 0 0 0-0.73633-1.9082 10 5.0905 0 0 1-9.2637 3.1816 10 5.0905 0 0 1-9.2637-3.1816zm0 6a10 5.0905 0 0 0-0.73633 1.9082 10 5.0905 0 0 0 10 5.0918 10 5.0905 0 0 0 10-5.0898 10 5.0905 0 0 0-0.73633-1.9102 10 5.0905 0 0 1-9.2637 3.1836 10 5.0905 0 0 1-9.2637-3.1836z" fill="url(#linearGradient104402)"/>
 </g>
</svg>
