<?xml version="1.0" encoding="UTF-8"?>
<svg id="Apps-Visual-Studio-Code" width="64" height="64" enable-background="new 0 0 1024 1024" image-rendering="optimizeSpeed" version="1.1" viewBox="0 0 64 64" xmlns="http://www.w3.org/2000/svg" xmlns:cc="http://creativecommons.org/ns#" xmlns:dc="http://purl.org/dc/elements/1.1/" xmlns:rdf="http://www.w3.org/1999/02/22-rdf-syntax-ns#">
 <metadata>
  <rdf:RDF>
   <cc:Work rdf:about="">
    <dc:format>image/svg+xml</dc:format>
    <dc:type rdf:resource="http://purl.org/dc/dcmitype/StillImage"/>
   </cc:Work>
  </rdf:RDF>
 </metadata>
 <defs>
  <style type="text/css"/>
  <style type="text/css"/>
  <linearGradient id="linearGradient7801" x1="-19.225" x2="-44.818" y1="17.815" y2="44.665" gradientTransform="matrix(1.3934 0 0 1.3934 77.025 -10.024)" gradientUnits="userSpaceOnUse">
   <stop stop-color="#fc9d34" offset="0"/>
   <stop stop-color="#d91bad" offset="1"/>
  </linearGradient>
 </defs>
 <path d="m36.518 3.5073c-6.2801 0.13667-13.704 2.1893-19.443 8.9022-6.0524 7.0802-5.8987 14.59-4.0034 19.769 1.8953 5.1792 5.3451 8.483 5.3451 8.483a2.7869 2.7869 0 0 0 3.9408-0.05987 2.7869 2.7869 0 0 0-0.06259-3.9408s-2.5795-2.542-3.9898-6.3956c-1.4102-3.8536-1.8385-8.565 3.0073-14.234 5.2411-6.1312 11.827-7.25 17.483-6.91s9.9527 2.2344 9.9527 2.2344a2.7869 2.7869 0 0 0 3.6795-1.4152 2.7869 2.7869 0 0 0-1.4152-3.6768s-5.1444-2.3002-11.882-2.7052c-0.84223-0.05064-1.7155-0.07123-2.6127-0.05171zm-27.599 7.5115a2.7869 2.7869 0 0 0-2.5501 1.7554c-2.8573 7.1656-3.6433 14.212-2.1201 20.539s5.4127 11.848 11.381 15.744c6.6134 4.3174 13.318 3.3764 17.861 1.3172 4.5437-2.0592 7.4108-5.2009 7.4108-5.2009a2.7869 2.7869 0 0 0-0.15785-3.9381 2.7869 2.7869 0 0 0-3.9381 0.16057s-2.199 2.3548-5.6145 3.9027-7.5634 2.3244-12.516-0.909c-4.9094-3.205-7.8084-7.3964-9.0083-12.38-1.1999-4.9839-0.64447-10.845 1.8779-17.17a2.7869 2.7869 0 0 0-1.5567-3.6224 2.7869 2.7869 0 0 0-1.0696-0.19867zm29.744 0.87089c-3.0709-0.04695-5.8819 0.70401-8.1537 1.7336-4.5437 2.0592-7.4135 5.2009-7.4135 5.2009a2.7869 2.7869 0 0 0 0.16057 3.9381 2.7869 2.7869 0 0 0 3.9381-0.16057s2.199-2.3521 5.6145-3.9 7.5607-2.3272 12.514 0.90627c4.9094 3.205 7.8084 7.3991 9.0083 12.383s0.64447 10.845-1.8779 17.17a2.7869 2.7869 0 0 0 1.5567 3.6197 2.7869 2.7869 0 0 0 3.6224-1.5567c2.8573-7.1656 3.6433-14.212 2.1201-20.539-1.5233-6.327-5.4127-11.848-11.381-15.744-3.3067-2.1587-6.6369-3.0039-9.7077-3.0509zm4.9369 10.66a2.7869 2.7869 0 0 0-1.9568 0.84912 2.7869 2.7869 0 0 0 0.05988 3.9408s2.5823 2.542 3.9925 6.3956 1.8385 8.5623-3.0073 14.231c-5.2411 6.1312-11.827 7.25-17.483 6.91s-9.9554-2.2344-9.9554-2.2344a2.7869 2.7869 0 0 0-3.6768 1.4152 2.7869 2.7869 0 0 0 1.4152 3.6795s5.1444 2.3002 11.882 2.7052c6.7378 0.40504 15.495-1.1814 22.053-8.8532 6.0524-7.0802 5.9015-14.59 4.0061-19.769-1.8953-5.1792-5.3451-8.483-5.3451-8.483a2.7869 2.7869 0 0 0-1.984-0.78653z" color="#000000" fill="url(#linearGradient7801)" stroke-linecap="round" stroke-width="1.3934" style="-inkscape-stroke:none"/>
</svg>
