<?xml version="1.0" encoding="UTF-8"?>
<svg id="SimpleNote" width="64" height="64" enable-background="new 0 0 1024 1024" image-rendering="optimizeSpeed" version="1.1" viewBox="0 0 64 64" xmlns="http://www.w3.org/2000/svg" xmlns:cc="http://creativecommons.org/ns#" xmlns:dc="http://purl.org/dc/elements/1.1/" xmlns:rdf="http://www.w3.org/1999/02/22-rdf-syntax-ns#">
 <metadata>
  <rdf:RDF>
   <cc:Work rdf:about="">
    <dc:format>image/svg+xml</dc:format>
    <dc:type rdf:resource="http://purl.org/dc/dcmitype/StillImage"/>
   </cc:Work>
  </rdf:RDF>
 </metadata>
 <defs>
  <linearGradient id="i" x1="400.4" x2="400.4" y1="545.62" y2="517.62" gradientTransform="matrix(1.5862 0 0 1.5862 -585.75 -804.34)" gradientUnits="userSpaceOnUse">
   <stop stop-color="#d3d3d3" offset="0"/>
   <stop stop-color="#fcf9f9" offset="1"/>
  </linearGradient>
  <linearGradient id="f" x1="400.4" x2="400.4" y1="545.62" y2="517.62" gradientTransform="matrix(1.6382 0 0 1.6382 -660.38 -809.85)" gradientUnits="userSpaceOnUse">
   <stop stop-color="#8d3aff" offset="0"/>
   <stop stop-color="#ff3680" offset="1"/>
  </linearGradient>
  <radialGradient id="radialGradient1813" cx="-41.678" cy="-40.516" r="28" gradientTransform="matrix(1.0015,0,0,1,73.742,72.516)" gradientUnits="userSpaceOnUse">
   <stop stop-color="#e74b86" offset="0"/>
   <stop stop-color="#e44c89" offset="1"/>
  </radialGradient>
  <linearGradient id="linearGradient31502" x1="10.796" x2="9.8303" y1="19.263" y2="26.26" gradientUnits="userSpaceOnUse">
   <stop stop-color="#e74b86" stop-opacity="0" offset="0"/>
   <stop stop-color="#922153" offset="1"/>
  </linearGradient>
  <linearGradient id="linearGradient37204" x1="10.796" x2="9.8303" y1="19.263" y2="26.26" gradientTransform="rotate(120,32.035,32.048)" gradientUnits="userSpaceOnUse">
   <stop stop-color="#e74b86" stop-opacity="0" offset="0"/>
   <stop stop-color="#922153" offset="1"/>
  </linearGradient>
  <linearGradient id="linearGradient37208" x1="10.796" x2="9.8303" y1="19.263" y2="26.26" gradientTransform="rotate(240 32.147 32.089)" gradientUnits="userSpaceOnUse">
   <stop stop-color="#e74b86" stop-opacity="0" offset="0"/>
   <stop stop-color="#922153" offset="1"/>
  </linearGradient>
 </defs>
 <circle cx="49.639" cy="39.205" r="0" fill="url(#i)"/>
 <circle cx="-4.1496" cy="61.361" r="0" fill="none" stroke="url(#f)" stroke-width="2.1297"/>
 <path d="m32 4a28 28 0 0 0-26.85 20.072c0.06037 0.81101 0.31455 1.9082 1.2598 1.9082h10.646s1.0469-0.08509 1.0469-1.1152v-10.125s-0.10078-2.1201 1.748-3.1875c1.8488-1.0674 3.5453-0.74735 5.5332 0.40039l8.459 4.8828s2.5255 1.4472 1.5898 4.5488c-0.75784 2.5121-5.772 8.2871-11.598 8.2871h-17.656s-1.2997 0.17861-2.1543 1.9727a28 28 0 0 0-0.02539 0.35547 28 28 0 0 0 28 28 28 28 0 0 0 7.2871-1.0039c0.44978-0.4374 0.77322-0.9844 0.43945-1.5625l-5.3242-9.2207s-0.5981-0.86273-1.4902-0.34766l-8.7676 5.0625s-1.7859 1.1455-3.6348 0.07813c-1.8488-1.0674-2.4199-2.6947-2.4199-4.9902v-9.7676s-0.0094-2.9119 3.1445-3.6523c2.5544-0.59973 10.064 0.85522 12.977 5.9004l8.8281 15.291s0.62341 0.80281 2.123 0.88867a28 28 0 0 0 14.838-24.676 28 28 0 0 0-7.7051-19.287c-0.72854-0.33547-1.7397-0.60808-2.1934 0.17773l-5.3223 9.2188s-0.44877 0.95172 0.44336 1.4668l8.7676 5.0625s1.8867 0.97259 1.8867 3.1074c0 2.1348-1.1234 3.4421-3.1113 4.5898l-8.4609 4.8848s-2.5162 1.4646-4.7344-0.89648c-1.7966-1.9123-4.2898-9.1423-1.377-14.188l8.8281-15.293s0.49514-1.2235-0.64648-2.8691a28 28 0 0 0-14.375-3.9746z" fill="url(#radialGradient1813)" fill-rule="evenodd" style="paint-order:stroke fill markers"/>
 <g fill-rule="evenodd">
  <path d="m8.2461 17.24a28 28 0 0 0-3.0957 6.832c0.06037 0.81101 0.31455 1.9082 1.2598 1.9082h10.646s1.0469-0.08509 1.0469-1.1152v-4.8574l-9.8574-2.7676z" fill="url(#linearGradient31502)" style="paint-order:stroke fill markers"/>
  <path d="m56.754 18.849a28 28 0 0 0-4.3689-6.097c-0.73254-0.35322-1.8098-0.68169-2.2824 0.13689l-5.3232 9.2201s-0.44975 0.94917 0.44238 1.4642l4.2067 2.4287z" fill="url(#linearGradient37204)" style="paint-order:stroke fill markers"/>
  <path d="m31.164 59.955c2.5099 0.09087 5.0948 0.10187 7.5388-0.47682 0.67217-0.45779 1.4953-1.2265 1.0227-2.0451l-5.3232-9.2201s-0.59713-0.86408-1.4893-0.349l-4.2066 2.4287z" fill="url(#linearGradient37208)" style="paint-order:stroke fill markers"/>
 </g>
</svg>
