<?xml version="1.0" encoding="UTF-8"?>
<svg width="64" height="64" version="1.1" viewBox="0 0 16.933 16.933" xmlns="http://www.w3.org/2000/svg" xmlns:cc="http://creativecommons.org/ns#" xmlns:dc="http://purl.org/dc/elements/1.1/" xmlns:rdf="http://www.w3.org/1999/02/22-rdf-syntax-ns#">
 <metadata>
  <rdf:RDF>
   <cc:Work rdf:about="">
    <dc:format>image/svg+xml</dc:format>
    <dc:type rdf:resource="http://purl.org/dc/dcmitype/StillImage"/>
   </cc:Work>
  </rdf:RDF>
 </metadata>
 <defs>
  <linearGradient id="linearGradient3071" x1="9.1628" x2="9.1628" y1="4.0822" y2="13.078" gradientTransform="matrix(1.5086 0 0 1.5086 -4.3062 -4.3062)" gradientUnits="userSpaceOnUse">
   <stop stop-color="#ff4b00" offset="0"/>
   <stop stop-color="#f5102c" offset="1"/>
  </linearGradient>
 </defs>
 <circle cx="-330.35" cy="-322.6" r="0" fill="#5e4aa6" stroke-width=".26236"/>
 <circle cx="-39.434" cy="6.6138" r="0" fill="#5e4aa6" fill-rule="evenodd" stroke-width=".26236"/>
 <path d="m9.8611 8.9274a1.2035 1.2035 0 0 1-1.2246 1.1805c-0.74995 0-1.1629-0.65819-1.2299-1.267-0.12706-1.1646 0.50468-1.7981 1.0552-2.1228 0.2241-0.13231 0.47114-0.23469 0.72702-0.31056 0 0 0.59643 1.8245 0.64231 2.1069 0.05117 0.31233 0.02823 0.41292 0.02823 0.41292m2.9256-3.6579a4.7873 4.7873 0 0 0-2.2957-0.67936l-0.18705-0.65466 0.0071 0.00754-0.02118-0.058232-0.05294-0.1941c-0.12706-0.56114 0.10234-0.82759 0.22057-0.92288l0.06353-0.044052c0.54349-0.34763 1.3129 0.20822 1.357 0.24174 0.34234 0.31762 0.96876 0.39702 1.3058 0.070603 0.34233-0.32821 0.26115-0.94406-0.079417-1.2723-0.53114-0.51174-2.1652-1.334-3.5538-0.44115-1.2476 0.80112-1.274 1.9286-1.0676 2.5799l0.24882 0.8823a4.9056 4.9056 0 0 0-1.1823 0.4976c-1.3676 0.80641-2.0522 2.1704-1.8811 3.7338 0.17646 1.6076 1.424 2.7757 2.968 2.7757 1.6411 0 2.9751-1.2846 2.9751-2.8639-0.02293-0.37586-0.01765-0.37233-0.07059-0.70936-0.05294-0.32821-0.55585-1.874-0.55585-1.874 0.31056 0.070603 0.59996 0.18174 0.84876 0.33702 2.8197 1.7646 1.6463 4.5756 1.5934 4.6974-0.77642 1.7946-2.4704 2.8674-4.6462 2.9398a5.3219 5.3219 0 0 1-3.8257-1.4364 5.4244 5.4244 0 0 1-1.7399-3.9527c0-2.2358 1.4575-4.265 3.6297-5.0484 0.4535-0.16409 0.817-0.62995 0.56819-1.1699-0.19763-0.4235-0.73053-0.57173-1.1823-0.40586-2.8516 1.0288-4.7662 3.6916-4.7662 6.6225 0 1.9393 0.82936 3.8221 2.2763 5.1667a7.0936 7.0936 0 0 0 5.1032 1.9075c2.8481-0.09534 5.1649-1.581 6.1972-3.9667 0.64407-1.4487 1.004-4.729-2.2534-6.7654" fill="url(#linearGradient3071)" stroke-width="1.7646"/>
</svg>
