<?xml version="1.0" encoding="UTF-8"?>
<svg id="Apps-Visual-Studio-Code" width="64" height="64" enable-background="new 0 0 1024 1024" image-rendering="optimizeSpeed" version="1.1" viewBox="0 0 64 64" xmlns="http://www.w3.org/2000/svg" xmlns:cc="http://creativecommons.org/ns#" xmlns:dc="http://purl.org/dc/elements/1.1/" xmlns:rdf="http://www.w3.org/1999/02/22-rdf-syntax-ns#">
 <metadata>
  <rdf:RDF>
   <cc:Work rdf:about="">
    <dc:format>image/svg+xml</dc:format>
    <dc:type rdf:resource="http://purl.org/dc/dcmitype/StillImage"/>
   </cc:Work>
  </rdf:RDF>
 </metadata>
 <defs>
  <style type="text/css"/>
  <style type="text/css"/>
  <linearGradient id="linearGradient7525" x1="86.84" x2="86.84" y1="-5.6608" y2="102.47" gradientTransform="matrix(.44444 0 0 .44444 -73.628 1.0505)" gradientUnits="userSpaceOnUse">
   <stop stop-color="#2d5fed" offset="0"/>
   <stop stop-color="#a743df" offset="1"/>
  </linearGradient>
 </defs>
 <g transform="matrix(.44444 0 0 .44444 -6.7488 10.675)">
  <path transform="matrix(2.25 0 0 2.25 165.66 -2.3636)" d="m-33.881-5.2656 0.03516 0.023437h-1.5098l0.01172-0.00586h-8.0625s-3.5377-0.019564-6.375 1.584c-3.12 1.7667-5.7188 6.4805-5.7188 6.4805l-2.8281 4.8984 0.02148-0.013672-1.3398 2.3203-3.418 5.9219s-1.7866 3.0587-1.8145 6.3184c-0.032 3.5825 2.75 8.1895 2.75 8.1895l6.6289 11.482s2.6021 4.7169 5.7207 6.4805c2.8368 1.6057 6.377 1.5879 6.377 1.5879l5.9062-2e-3 0.03711 0.01758h6.7207l0.0059-0.0039 2.4805-2e-3s5.3842 0.10902 8.4727-1.7129c2.8055-1.6587 4.5586-4.7285 4.5586-4.7285l1.1699-2.0234 0.01953-0.0098 7.334-12.709s1.7872-3.0589 1.8184-6.3203c0.031955-3.5825-2.7559-8.1914-2.7559-8.1914l-3.5684-6.1816 0.04883 0.025391-4.0312-6.9844s-1.7581-3.0725-4.5645-4.7305c-3.0899-1.819-8.4746-1.7109-8.4746-1.7109zm-1.0059 9.8652a17.778 17.778 0 0 1 2.3047 0.15234 17.778 17.778 0 0 1 0.08203 0.00977 17.778 17.778 0 0 1 2.2637 0.45898 17.778 17.778 0 0 1 0.03516 0.00977 17.778 17.778 0 0 1 9.5723 6.5371 17.778 17.778 0 0 1 2e-3 0.0039 8.0946 27.206 73.331 0 1 0.01367-2e-3 17.778 17.778 0 0 1 0.01172 0.01563 17.778 17.778 0 0 1 0.50391 0.71484 17.778 17.778 0 0 1 0.4668 0.73633 17.778 17.778 0 0 1 0.42969 0.75977 17.778 17.778 0 0 1 0.39258 0.7793 17.778 17.778 0 0 1 0.35352 0.79688 17.778 17.778 0 0 1 0.31445 0.81445 17.778 17.778 0 0 1 0.27344 0.82812 17.778 17.778 0 0 1 0.23242 0.8418 17.778 17.778 0 0 1 0.19141 0.84961 17.778 17.778 0 0 1 0.13867 0.80273 8.1768 26.932 75.605 0 0 0.27344-0.17188 8.1768 26.932 75.605 0 0 0.95312-0.65234 8.1768 26.932 75.605 0 0 0.86719-0.65039 8.1768 26.932 75.605 0 0 0.48633-0.4043 20.666 20.666 0 0 0-0.14844-0.64062 20.666 20.666 0 0 0-0.28711-1.0059 20.666 20.666 0 0 0-0.33984-0.99024 20.666 20.666 0 0 0-0.38867-0.97266 20.666 20.666 0 0 0-0.4375-0.95117 20.666 20.666 0 0 0-0.48438-0.92773 20.666 20.666 0 0 0-0.36719-0.625 8.0946 27.206 73.331 0 1 8.3223 3.0332 8.0946 27.206 73.331 0 1 0.12305 0.99414 8.0946 27.206 73.331 0 1-0.10938 0.51367 8.0946 27.206 73.331 0 1-0.15625 0.57813 8.0946 27.206 73.331 0 1-0.33398 0.6543 8.0946 27.206 73.331 0 1-0.30664 0.51758 8.0946 27.206 73.331 0 1-0.58398 0.75391 8.0946 27.206 73.331 0 1-0.41602 0.47266 8.0946 27.206 73.331 0 1-0.85938 0.84766 8.0946 27.206 73.331 0 1-0.46289 0.4082 8.0946 27.206 73.331 0 1-1.1582 0.93555 8.0946 27.206 73.331 0 1-0.43945 0.31836 8.0946 27.206 73.331 0 1-0.6582 0.45508 8.0946 27.206 73.331 0 1-0.85156 0.58594 8.0946 27.206 73.331 0 1-0.22656 0.14062 8.0946 27.206 73.331 0 1-1.9297 1.1582 8.0946 27.206 73.331 0 1-0.01563 0.0098 17.778 17.778 0 0 1 0 0.0059 8.0946 27.206 73.331 0 1-2.2754 1.2246 8.0946 27.206 73.331 0 1-2.8965 1.3691 8.0946 27.206 73.331 0 1-3.1094 1.3027 8.0946 27.206 73.331 0 1-3.2695 1.2109 8.0946 27.206 73.331 0 1-3.373 1.0996 8.0946 27.206 73.331 0 1-1.1699 0.34766 8.0946 27.206 73.331 0 1-1.1738 0.33008 8.0946 27.206 73.331 0 1-1.1758 0.31641 8.0946 27.206 73.331 0 1-1.1719 0.29688 8.0946 27.206 73.331 0 1-1.168 0.2793 8.0946 27.206 73.331 0 1-1.1621 0.26172 8.0946 27.206 73.331 0 1-1.1543 0.24219 8.0946 27.206 73.331 0 1-1.1426 0.2207 8.0946 27.206 73.331 0 1-1.1289 0.20313 8.0946 27.206 73.331 0 1-1.1133 0.18164 8.0946 27.206 73.331 0 1-1.0957 0.16016 8.0946 27.206 73.331 0 1-1.0762 0.14062 8.0946 27.206 73.331 0 1-1.0547 0.11914 8.0946 27.206 73.331 0 1-1.0273 0.09766 8.0946 27.206 73.331 0 1-0.68164 0.05078 8.0946 27.206 73.331 0 1-0.01563 0 8.0946 27.206 73.331 0 1-0.0098 2e-3 8.0946 27.206 73.331 0 1-2.4277 0.10742 8.0946 27.206 73.331 0 1-1.0723-0.01562 8.0946 27.206 73.331 0 1-1.1367-0.01758 8.0946 27.206 73.331 0 1-0.0293 0 8.0946 27.206 73.331 0 1-1.959-0.17188 8.0946 27.206 73.331 0 1-0.03711-0.0059 8.0946 27.206 73.331 0 1-1.6895-0.30859 8.0946 27.206 73.331 0 1-0.02148-0.0059 8.0946 27.206 73.331 0 1-1.4023-0.43945 8.0946 27.206 73.331 0 1-0.05078-0.02148 8.0946 27.206 73.331 0 1-1.8906-1.252 8.0946 27.206 73.331 0 1-0.03711-0.04492 8.0946 27.206 73.331 0 1-0.46484-0.79102 8.0946 27.206 73.331 0 1-0.12109-0.99024 8.0946 27.206 73.331 0 1 0.10938-0.52539 8.0946 27.206 73.331 0 1 0.15039-0.56055 8.0946 27.206 73.331 0 1 0.33984-0.66602 8.0946 27.206 73.331 0 1 0.29883-0.50195 8.0946 27.206 73.331 0 1 0.58984-0.76367 8.0946 27.206 73.331 0 1 0.39648-0.45508 8.0946 27.206 73.331 0 1 0.86914-0.85938 8.0946 27.206 73.331 0 1 0.43945-0.38672 8.0946 27.206 73.331 0 1 1.1777-0.95508 8.0946 27.206 73.331 0 1 0.37695-0.27344 8.0946 27.206 73.331 0 1 0.7832-0.54297 20.666 20.666 0 0 0 0.1582 2.2031 20.666 20.666 0 0 0 0.62695 2.8809 20.666 20.666 0 0 0 0.53516 1.4316 8.1768 26.932 75.605 0 0 0.05273 2e-3 8.1768 26.932 75.605 0 0 0.44336 0.0078 8.1768 26.932 75.605 0 0 0.45312 0.0039 8.1768 26.932 75.605 0 0 0.45898-2e-3 8.1768 26.932 75.605 0 0 0.4668-0.0078 8.1768 26.932 75.605 0 0 0.47266-0.0098 8.1768 26.932 75.605 0 0 0.47852-0.01758 8.1768 26.932 75.605 0 0 0.23438-0.0098 17.778 17.778 0 0 1-0.82422-2.207 17.778 17.778 0 0 1-0.53906-2.4785 17.778 17.778 0 0 1-0.18164-2.5312 17.778 17.778 0 0 1 0.0957-1.3203 17.778 17.778 0 0 1 0.26758-2.0391 17.778 17.778 0 0 1 0.08203-0.375 17.778 17.778 0 0 1 0.54102-1.9863 17.778 17.778 0 0 1 0.14062-0.37305 17.778 17.778 0 0 1 0.80469-1.8848 17.778 17.778 0 0 1 0.19336-0.35352 17.778 17.778 0 0 1 1.0527-1.75 17.778 17.778 0 0 1 0.25-0.33594 17.778 17.778 0 0 1 1.2734-1.582 17.778 17.778 0 0 1 0.30078-0.29883 17.778 17.778 0 0 1 1.4707-1.3887 17.778 17.778 0 0 1 0.35742-0.26562 17.778 17.778 0 0 1 1.6289-1.1621 17.778 17.778 0 0 1 0.42578-0.23242 17.778 17.778 0 0 1 1.7383-0.9082 17.778 17.778 0 0 1 0.50781-0.18945 17.778 17.778 0 0 1 1.8008-0.64648 17.778 17.778 0 0 1 0.60547-0.13281 17.778 17.778 0 0 1 1.7891-0.37695 17.778 17.778 0 0 1 2.4453-0.17383zm16.811 23.268a17.778 17.778 0 0 1-16.818 12.285 17.778 17.778 0 0 1-10.631-3.6152 8.0946 27.206 73.331 0 0 0.51953-0.06641 8.0946 27.206 73.331 0 0 0.8125-0.11523 8.0946 27.206 73.331 0 0 0.82226-0.12695 8.0946 27.206 73.331 0 0 0.83203-0.13867 8.0946 27.206 73.331 0 0 0.83984-0.14844 8.0946 27.206 73.331 0 0 0.84766-0.16211 8.0946 27.206 73.331 0 0 0.85547-0.17188 8.0946 27.206 73.331 0 0 0.85938-0.18164 8.0946 27.206 73.331 0 0 0.86524-0.19336 8.0946 27.206 73.331 0 0 0.86914-0.20312 8.0946 27.206 73.331 0 0 0.87109-0.21484 8.0946 27.206 73.331 0 0 0.87305-0.22266 8.0946 27.206 73.331 0 0 0.875-0.23438 8.0946 27.206 73.331 0 0 0.87305-0.24219 8.0946 27.206 73.331 0 0 0.875-0.25 8.0946 27.206 73.331 0 0 0.87109-0.26172 8.0946 27.206 73.331 0 0 2.5371-0.8125 8.0946 27.206 73.331 0 0 2.4883-0.87891 8.0946 27.206 73.331 0 0 2.4121-0.93555 8.0946 27.206 73.331 0 0 2.3145-0.98437 8.0946 27.206 73.331 0 0 2.1953-1.0234 8.0946 27.206 73.331 0 0 2.0527-1.0508 8.0946 27.206 73.331 0 0 0.08789-0.05078z" fill="url(#linearGradient7525)"/>
 </g>
</svg>
