<?xml version="1.0" encoding="UTF-8"?>
<!-- Created with Inkscape (http://www.inkscape.org/) -->
<svg width="64" height="64" version="1.1" viewBox="0 0 16.933 16.933" xmlns="http://www.w3.org/2000/svg" xmlns:xlink="http://www.w3.org/1999/xlink">
 <defs>
  <linearGradient id="linearGradient2445">
   <stop stop-color="#c80000" offset="0"/>
   <stop stop-color="#c80000" stop-opacity="0" offset="1"/>
  </linearGradient>
  <linearGradient id="linearGradient2447" x1="-78.579" x2="-60.006" y1="87.88" y2="87.88" gradientUnits="userSpaceOnUse" xlink:href="#linearGradient2445"/>
  <linearGradient id="linearGradient2676" x1="-46.631" x2="-46.631" y1="82.563" y2="98.479" gradientTransform="matrix(.85476 0 0 .85476 48.325 -68.059)" gradientUnits="userSpaceOnUse">
   <stop stop-color="#ffffb0" offset="0"/>
   <stop stop-color="#19e9ed" offset="1"/>
  </linearGradient>
 </defs>
 <g transform="translate(41.709 -79.414)" fill="none" stroke="url(#linearGradient2447)" stroke-linecap="round" stroke-linejoin="round" stroke-width="1.3229">
  <path d="m-63.537 85.079a6.4003 6.4003 0 0 1-1.3678 7.4607 6.4003 6.4003 0 0 1-7.5296 0.91576 6.4003 6.4003 0 0 1-3.1162-6.9154 6.4003 6.4003 0 0 1 5.6738-5.034" style="paint-order:stroke fill markers"/>
  <circle cx="-69.292" cy="87.88" r="8.6252" style="paint-order:stroke fill markers"/>
  <path d="m-67.761 81.666a6.4003 6.4003 0 0 1 0.0082 2e-3" style="paint-order:stroke fill markers"/>
  <path d="m-70.755 91.538a3.9347 3.9347 0 0 1-2.467-3.8611 3.9347 3.9347 0 0 1 2.8611-3.5788 3.9347 3.9347 0 0 1 4.3095 1.5564 3.9347 3.9347 0 0 1-0.08593 4.5811" style="paint-order:stroke fill markers"/>
  <path d="m-67.981 91.595a3.9347 3.9347 0 0 1-0.03915 0.01361" style="paint-order:stroke fill markers"/>
 </g>
 <path d="m8.4674 0.52827c-4.3773 0-7.9382 3.561-7.9382 7.9382 0 4.3773 3.561 7.9382 7.9382 7.9382 4.3773 0 7.9365-3.561 7.9365-7.9382 0-4.3773-3.5592-7.9382-7.9365-7.9382zm0 1.1321c3.7662 0 6.8061 3.04 6.8061 6.8062 0 3.7662-3.04 6.8079-6.8061 6.8079-3.7662 0-6.8079-3.0418-6.8079-6.8079 0-3.7662 3.0418-6.8062 6.8079-6.8062zm-0.55257 0.79639c-2.6279 0.2411-4.7984 2.1673-5.3508 4.7478-0.55232 2.5805 0.63918 5.2252 2.9382 6.5208 2.299 1.2956 5.1807 0.94586 7.1021-0.86308 1.9214-1.8089 2.445-4.6638 1.2902-7.0367a0.56538 0.56538 0 0 0-0.75619-0.2606 0.56538 0.56538 0 0 0-0.26016 0.75486c0.9403 1.9322 0.51597 4.2466-1.0486 5.7196-1.5646 1.473-3.8992 1.756-5.7712 0.70098-1.872-1.055-2.8389-3.1991-2.3892-5.3004 0.44974-2.1012 2.2091-3.6619 4.349-3.8582a0.56538 0.56538 0 0 0 0.51104-0.61441 0.56538 0.56538 0 0 0-0.6144-0.5106zm1.871 0.13383a0.56538 0.56538 0 0 0-0.55875 0.42845 0.56538 0.56538 0 0 0 0.41211 0.68463l0.0084 0.00179a0.56538 0.56538 0 0 0 0.68463-0.41255 0.56538 0.56538 0 0 0-0.41387-0.68419l-0.0071-0.00179a0.56538 0.56538 0 0 0-0.12544-0.016343zm-1.3167 1.9523c-0.35542-4.231e-4 -0.71475 0.047764-1.0685 0.14753-1.617 0.45607-2.7676 1.8947-2.8565 3.5725-0.08887 1.6777 0.9027 3.2304 2.4625 3.8547a0.56538 0.56538 0 0 0 0.73455-0.31361 0.56538 0.56538 0 0 0-0.31405-0.73455c-1.1142-0.44599-1.8179-1.548-1.7544-2.7465 0.06348-1.1985 0.87983-2.2184 2.0349-2.5442 1.1551-0.32578 2.3833 0.11824 3.0636 1.1069 0.68035 0.98867 0.65687 2.2946-0.06007 3.2571a0.56538 0.56538 0 0 0 0.11528 0.79108 0.56538 0.56538 0 0 0 0.79108-0.11484c1.0037-1.3474 1.0377-3.1902 0.08525-4.5742-0.74409-1.0813-1.9643-1.7004-3.2337-1.7019zm1.095 6.5345a0.56538 0.56538 0 0 0-0.1652 0.03181c-0.0093 0.0032-0.01898 7e-3 -0.02827 0.01015a0.56538 0.56538 0 0 0-0.35248 0.71776 0.56538 0.56538 0 0 0 0.7182 0.35248c0.01305-0.0044 0.02675-0.01042 0.03976-0.01502a0.56538 0.56538 0 0 0 0.34408-0.7213 0.56538 0.56538 0 0 0-0.5561-0.37589z" color="#000000" fill="url(#linearGradient2676)" fill-rule="evenodd" stroke-linecap="round" stroke-linejoin="round" stroke-width=".85476" style="-inkscape-stroke:none;paint-order:stroke fill markers"/>
</svg>
