<?xml version="1.0" encoding="UTF-8"?>
<svg width="64" height="64" version="1.1" viewBox="0 0 64 64" xmlns="http://www.w3.org/2000/svg" xmlns:xlink="http://www.w3.org/1999/xlink">
 <defs>
  <linearGradient id="linearGradient11115" x1="-173.52" x2="-181.22" y1="-90.817" y2="-86.373" gradientTransform="matrix(.762 0 0 .762 190.24 84.714)" gradientUnits="userSpaceOnUse">
   <stop stop-color="#c66dfe" offset="0"/>
   <stop stop-color="#9f3ffe" offset="1"/>
  </linearGradient>
  <linearGradient id="linearGradient11117" x1="-207.35" x2="-207.35" y1="-31.274" y2="-37.776" gradientTransform="matrix(.762 0 0 .762 190.24 84.714)" gradientUnits="userSpaceOnUse">
   <stop stop-color="#b845fe" offset="0"/>
   <stop stop-color="#9f3ffe" offset="1"/>
  </linearGradient>
  <linearGradient id="linearGradient11119" x1="-242.45" x2="-233.54" y1="-91.413" y2="-86.27" gradientTransform="matrix(.762 0 0 .762 190.24 84.714)" gradientUnits="userSpaceOnUse">
   <stop stop-color="#c76efe" offset="0"/>
   <stop stop-color="#9f3ffe" offset="1"/>
  </linearGradient>
  <radialGradient id="radialGradient11121" cx="32.038" cy="34.339" r="22.179" gradientTransform="matrix(1 0 0 .92521 .0001245 2.5679)" gradientUnits="userSpaceOnUse">
   <stop stop-color="#fefefe" offset="0"/>
   <stop stop-color="#9f3ffe" offset="1"/>
  </radialGradient>
  <linearGradient id="linearGradient11123" x1="-242.46" x2="-234.33" y1="-46.919" y2="-51.615" gradientTransform="matrix(.762 0 0 .762 190.24 84.714)" gradientUnits="userSpaceOnUse">
   <stop stop-color="#37b1fd" offset="0"/>
   <stop stop-color="#327df0" offset="1"/>
  </linearGradient>
  <linearGradient id="linearGradient11125" x1="-173.15" x2="-181.89" y1="-46.655" y2="-51.703" gradientTransform="matrix(.762 0 0 .762 190.24 84.714)" gradientUnits="userSpaceOnUse">
   <stop stop-color="#37b1fd" offset="0"/>
   <stop stop-color="#327df0" offset="1"/>
  </linearGradient>
  <radialGradient id="radialGradient11127" cx="32.01" cy="29.66" r="22.151" gradientTransform="matrix(1 0 0 .92643 .0001245 2.182)" gradientUnits="userSpaceOnUse">
   <stop stop-color="#fefefe" offset="0"/>
   <stop stop-color="#327df0" offset="1"/>
  </radialGradient>
  <linearGradient id="linearGradient11129" x1="-207.45" x2="-207.45" y1="-107.45" y2="-100.65" gradientTransform="matrix(.762 0 0 .762 190.24 84.714)" gradientUnits="userSpaceOnUse">
   <stop stop-color="#15a6f0" offset="0"/>
   <stop stop-color="#327df0" offset="1"/>
  </linearGradient>
  <linearGradient id="linearGradient11453" x1="-173.52" x2="-181.22" y1="-90.817" y2="-86.373" gradientTransform="matrix(.762 0 0 .762 190.24 84.714)" gradientUnits="userSpaceOnUse">
   <stop stop-color="#868ffe" offset="0"/>
   <stop stop-color="#735afd" offset="1"/>
  </linearGradient>
  <linearGradient id="linearGradient11457" x1="-242.45" x2="-234.16" y1="-91.413" y2="-86.629" gradientTransform="matrix(.762 0 0 .762 190.24 84.714)" gradientUnits="userSpaceOnUse">
   <stop stop-color="#c76efe" offset="0"/>
   <stop stop-color="#7342fe" offset="1"/>
  </linearGradient>
  <linearGradient id="linearGradient11459" x1="-242.46" x2="-234.33" y1="-46.919" y2="-51.615" gradientTransform="matrix(.762 0 0 .762 190.24 84.714)" gradientUnits="userSpaceOnUse">
   <stop stop-color="#a083fe" offset="0"/>
   <stop stop-color="#5069f8" offset="1"/>
  </linearGradient>
  <linearGradient id="linearGradient11461" x1="-173.15" x2="-182.96" y1="-46.655" y2="-52.321" gradientTransform="matrix(.762 0 0 .762 190.24 84.714)" gradientUnits="userSpaceOnUse">
   <stop stop-color="#37b1fd" offset="0"/>
   <stop stop-color="#4c7cfd" offset="1"/>
  </linearGradient>
 </defs>
 <g fill-rule="evenodd" stroke-linecap="round" stroke-linejoin="round" stroke-width="1.7169">
  <path d="m54.217 26.649 2.2399-1.2933c3.6559-2.1107 4.8998-6.7531 2.789-10.409s-6.7531-4.8998-10.409-2.789l-2.9379 1.6966a22.86 22.86 0 0 1 0.90041 0.72182 22.86 22.86 0 0 1 0.92125 0.82748 22.86 22.86 0 0 1 0.8751 0.87511 22.86 22.86 0 0 1 0.82748 0.92125 22.86 22.86 0 0 1 0.7754 0.96589 22.86 22.86 0 0 1 0.72182 1.0046 22.86 22.86 0 0 1 0.66675 1.0433 22.86 22.86 0 0 1 0.61019 1.079 22.86 22.86 0 0 1 0.54917 1.1088 22.86 22.86 0 0 1 0.48965 1.137 22.86 22.86 0 0 1 0.42713 1.1623 22.86 22.86 0 0 1 0.36315 1.1832 22.86 22.86 0 0 1 0.1905 0.76498z" fill="url(#linearGradient11453)" style="paint-order:stroke fill markers"/>
  <path d="m24.46 53.544v0.83641c0 4.2215 3.3985 7.62 7.62 7.62s7.62-3.3985 7.62-7.62v-0.9019a22.86 22.86 0 0 1-0.6355 0.26343 22.86 22.86 0 0 1-3.4885 0.83641 22.86 22.86 0 0 1-3.5763 0.28128 22.86 22.86 0 0 1-3.5763-0.28128 22.86 22.86 0 0 1-3.487-0.83641 22.86 22.86 0 0 1-0.47625-0.19794z" fill="url(#linearGradient11117)" style="paint-order:stroke fill markers"/>
  <path d="m18.199 13.818-3.0361-1.7532c-1.1425-0.6596-2.3813-0.99077-3.6091-1.0239-2.7011-0.07296-5.3488 1.2995-6.8 3.813-2.1107 3.6559-0.86687 8.2983 2.789 10.409l2.3158 1.3365a22.86 22.86 0 0 1 0.40035-1.6639 22.86 22.86 0 0 1 1.3722-3.3144 22.86 22.86 0 0 1 1.8752-3.0584 22.86 22.86 0 0 1 2.3292-2.728 22.86 22.86 0 0 1 2.3634-2.0166z" fill="url(#linearGradient11457)" style="paint-order:stroke fill markers"/>
  <path d="m18.199 13.818a22.86 22.86 0 0 0-2.3634 2.0166 22.86 22.86 0 0 0-2.3292 2.728 22.86 22.86 0 0 0-1.8752 3.0584 22.86 22.86 0 0 0-1.3722 3.3144 22.86 22.86 0 0 0-0.40035 1.6639l10.726 6.1927 0.0015 0.0015c2.8258 1.6315 3.6602 3.9903 3.874 5.657v15.093a22.86 22.86 0 0 0 0.47625 0.19794 22.86 22.86 0 0 0 3.487 0.83641 22.86 22.86 0 0 0 3.5763 0.28128 22.86 22.86 0 0 0 3.5763-0.28128 22.86 22.86 0 0 0 3.4885-0.83641 22.86 22.86 0 0 0 0.6355-0.26343v-14.863c0-2.5396 0.98211-3.9236 1.841-4.6479l12.676-7.3179a22.86 22.86 0 0 0-0.1905-0.76498 22.86 22.86 0 0 0-0.36315-1.1832 22.86 22.86 0 0 0-0.42713-1.1623 22.86 22.86 0 0 0-0.48965-1.137 22.86 22.86 0 0 0-0.54917-1.1088 22.86 22.86 0 0 0-0.61019-1.079 22.86 22.86 0 0 0-0.66675-1.0433 22.86 22.86 0 0 0-0.72182-1.0046 22.86 22.86 0 0 0-0.7754-0.96589 22.86 22.86 0 0 0-0.82748-0.92125 22.86 22.86 0 0 0-0.8751-0.87511 22.86 22.86 0 0 0-0.92125-0.82748 22.86 22.86 0 0 0-0.90041-0.72182l-8.9252 5.1524c-4.9239 2.8262-9.6798 0.06251-9.6798 0.06251z" fill="url(#radialGradient11121)" style="paint-order:stroke fill markers"/>
  <path d="m18.198 50.182a22.86 22.86 0 0 1-2.3619-2.0181 22.86 22.86 0 0 1-2.3292-2.7265 22.86 22.86 0 0 1-1.8752-3.0584 22.86 22.86 0 0 1-1.3722-3.3144 22.86 22.86 0 0 1-0.40035-1.6654l-2.3158 1.3365c-3.6559 2.1107-4.8998 6.7531-2.789 10.409 2.1107 3.6559 6.7531 4.8998 10.409 2.789z" fill="url(#linearGradient11459)" style="paint-order:stroke fill markers"/>
  <path d="m54.16 37.318a22.86 22.86 0 0 1-0.41969 1.7458 22.86 22.86 0 0 1-1.3722 3.3144 22.86 22.86 0 0 1-1.8737 3.0584 22.86 22.86 0 0 1-2.3306 2.7265 22.86 22.86 0 0 1-2.2979 1.963l2.9706 1.716c3.6559 2.1107 8.2983 0.86687 10.409-2.789 2.1107-3.6559 0.86687-8.2983-2.789-10.409z" fill="url(#linearGradient11461)" style="paint-order:stroke fill markers"/>
  <path d="m39.7 10.483a22.86 22.86 0 0 0-0.40184-0.14734 22.86 22.86 0 0 0-1.1832-0.36314 22.86 22.86 0 0 0-1.201-0.29914 22.86 22.86 0 0 0-1.2159-0.23217 22.86 22.86 0 0 0-1.2263-0.16818 22.86 22.86 0 0 0-1.2338-0.099715 22.86 22.86 0 0 0-1.2382-0.034229 22.86 22.86 0 0 0-3.5763 0.28129 22.86 22.86 0 0 0-3.487 0.8379 22.86 22.86 0 0 0-0.47625 0.19645v15.094c-0.21283 1.6588-1.0417 4.0025-3.8353 5.6331l-10.766 6.2165a22.86 22.86 0 0 0 0.40035 1.6654 22.86 22.86 0 0 0 1.3722 3.3144 22.86 22.86 0 0 0 1.8752 3.0584 22.86 22.86 0 0 0 2.3292 2.7265 22.86 22.86 0 0 0 2.3619 2.0181l9.0949-5.2521 0.0015 0.0015s4.7703-2.773 9.7021 0.07442l8.8701 5.1212a22.86 22.86 0 0 0 2.2979-1.963 22.86 22.86 0 0 0 2.3306-2.7265 22.86 22.86 0 0 0 1.8737-3.0584 22.86 22.86 0 0 0 1.3722-3.3144 22.86 22.86 0 0 0 0.41969-1.7458l-11.357-6.5573h-0.0015l-1.2606-0.72777-0.0015-0.0015c-0.85889-0.7243-1.8395-2.1068-1.8395-4.6464z" fill="url(#radialGradient11127)" style="paint-order:stroke fill markers"/>
  <path d="m32.08 1.9998c-4.2215 0-7.62 3.3985-7.62 7.62v0.83492a22.86 22.86 0 0 1 0.47625-0.19645 22.86 22.86 0 0 1 3.487-0.8379 22.86 22.86 0 0 1 3.5763-0.28129 22.86 22.86 0 0 1 1.2382 0.034229 22.86 22.86 0 0 1 1.2338 0.099715 22.86 22.86 0 0 1 1.2263 0.16818 22.86 22.86 0 0 1 1.2159 0.23217 22.86 22.86 0 0 1 1.201 0.29914 22.86 22.86 0 0 1 1.1832 0.36314 22.86 22.86 0 0 1 0.40184 0.14734v-0.8632c0-4.2215-3.3985-7.62-7.62-7.62z" fill="url(#linearGradient11129)" style="paint-order:stroke fill markers"/>
  <path d="m54.217 26.649 2.2399-1.2933c3.6559-2.1107 4.8998-6.7531 2.789-10.409s-6.7531-4.8998-10.409-2.789l-2.9379 1.6966a22.86 22.86 0 0 1 0.90041 0.72182 22.86 22.86 0 0 1 0.92125 0.82748 22.86 22.86 0 0 1 0.8751 0.87511 22.86 22.86 0 0 1 0.82748 0.92125 22.86 22.86 0 0 1 0.7754 0.96589 22.86 22.86 0 0 1 0.72182 1.0046 22.86 22.86 0 0 1 0.66675 1.0433 22.86 22.86 0 0 1 0.61019 1.079 22.86 22.86 0 0 1 0.54917 1.1088 22.86 22.86 0 0 1 0.48965 1.137 22.86 22.86 0 0 1 0.42713 1.1623 22.86 22.86 0 0 1 0.36315 1.1832 22.86 22.86 0 0 1 0.1905 0.76498z" fill="url(#linearGradient11115)" style="paint-order:stroke fill markers"/>
  <path d="m24.46 53.544v0.83641c0 4.2215 3.3985 7.62 7.62 7.62s7.62-3.3985 7.62-7.62v-0.9019a22.86 22.86 0 0 1-0.6355 0.26343 22.86 22.86 0 0 1-3.4885 0.83641 22.86 22.86 0 0 1-3.5763 0.28128 22.86 22.86 0 0 1-3.5763-0.28128 22.86 22.86 0 0 1-3.487-0.83641 22.86 22.86 0 0 1-0.47625-0.19794z" fill="url(#linearGradient11117)" style="paint-order:stroke fill markers"/>
  <path d="m18.199 13.818-3.0361-1.7532c-1.1425-0.6596-2.3813-0.99077-3.6091-1.0239-2.7011-0.07296-5.3488 1.2995-6.8 3.813-2.1107 3.6559-0.86687 8.2983 2.789 10.409l2.3158 1.3365a22.86 22.86 0 0 1 0.40035-1.6639 22.86 22.86 0 0 1 1.3722-3.3144 22.86 22.86 0 0 1 1.8752-3.0584 22.86 22.86 0 0 1 2.3292-2.728 22.86 22.86 0 0 1 2.3634-2.0166z" fill="url(#linearGradient11119)" style="paint-order:stroke fill markers"/>
  <path d="m18.199 13.818a22.86 22.86 0 0 0-2.3634 2.0166 22.86 22.86 0 0 0-2.3292 2.728 22.86 22.86 0 0 0-1.8752 3.0584 22.86 22.86 0 0 0-1.3722 3.3144 22.86 22.86 0 0 0-0.40035 1.6639l10.726 6.1927 0.0015 0.0015c2.8258 1.6315 3.6602 3.9903 3.874 5.657v15.093a22.86 22.86 0 0 0 0.47625 0.19794 22.86 22.86 0 0 0 3.487 0.83641 22.86 22.86 0 0 0 3.5763 0.28128 22.86 22.86 0 0 0 3.5763-0.28128 22.86 22.86 0 0 0 3.4885-0.83641 22.86 22.86 0 0 0 0.6355-0.26343v-14.863c0-2.5396 0.98211-3.9236 1.841-4.6479l12.676-7.3179a22.86 22.86 0 0 0-0.1905-0.76498 22.86 22.86 0 0 0-0.36315-1.1832 22.86 22.86 0 0 0-0.42713-1.1623 22.86 22.86 0 0 0-0.48965-1.137 22.86 22.86 0 0 0-0.54917-1.1088 22.86 22.86 0 0 0-0.61019-1.079 22.86 22.86 0 0 0-0.66675-1.0433 22.86 22.86 0 0 0-0.72182-1.0046 22.86 22.86 0 0 0-0.7754-0.96589 22.86 22.86 0 0 0-0.82748-0.92125 22.86 22.86 0 0 0-0.8751-0.87511 22.86 22.86 0 0 0-0.92125-0.82748 22.86 22.86 0 0 0-0.90041-0.72182l-8.9252 5.1524c-4.9239 2.8262-9.6798 0.06251-9.6798 0.06251z" fill="url(#radialGradient11121)" style="paint-order:stroke fill markers"/>
  <path d="m18.198 50.182a22.86 22.86 0 0 1-2.3619-2.0181 22.86 22.86 0 0 1-2.3292-2.7265 22.86 22.86 0 0 1-1.8752-3.0584 22.86 22.86 0 0 1-1.3722-3.3144 22.86 22.86 0 0 1-0.40035-1.6654l-2.3158 1.3365c-3.6559 2.1107-4.8998 6.7531-2.789 10.409 2.1107 3.6559 6.7531 4.8998 10.409 2.789z" fill="url(#linearGradient11123)" style="paint-order:stroke fill markers"/>
  <path d="m54.16 37.318a22.86 22.86 0 0 1-0.41969 1.7458 22.86 22.86 0 0 1-1.3722 3.3144 22.86 22.86 0 0 1-1.8737 3.0584 22.86 22.86 0 0 1-2.3306 2.7265 22.86 22.86 0 0 1-2.2979 1.963l2.9706 1.716c3.6559 2.1107 8.2983 0.86687 10.409-2.789 2.1107-3.6559 0.86687-8.2983-2.789-10.409z" fill="url(#linearGradient11125)" style="paint-order:stroke fill markers"/>
  <path d="m39.7 10.483a22.86 22.86 0 0 0-0.40184-0.14734 22.86 22.86 0 0 0-1.1832-0.36314 22.86 22.86 0 0 0-1.201-0.29914 22.86 22.86 0 0 0-1.2159-0.23217 22.86 22.86 0 0 0-1.2263-0.16818 22.86 22.86 0 0 0-1.2338-0.099715 22.86 22.86 0 0 0-1.2382-0.034229 22.86 22.86 0 0 0-3.5763 0.28129 22.86 22.86 0 0 0-3.487 0.8379 22.86 22.86 0 0 0-0.47625 0.19645v15.094c-0.21283 1.6588-1.0417 4.0025-3.8353 5.6331l-10.766 6.2165a22.86 22.86 0 0 0 0.40035 1.6654 22.86 22.86 0 0 0 1.3722 3.3144 22.86 22.86 0 0 0 1.8752 3.0584 22.86 22.86 0 0 0 2.3292 2.7265 22.86 22.86 0 0 0 2.3619 2.0181l9.0949-5.2521 0.0015 0.0015s4.7703-2.773 9.7021 0.07442l8.8701 5.1212a22.86 22.86 0 0 0 2.2979-1.963 22.86 22.86 0 0 0 2.3306-2.7265 22.86 22.86 0 0 0 1.8737-3.0584 22.86 22.86 0 0 0 1.3722-3.3144 22.86 22.86 0 0 0 0.41969-1.7458l-11.357-6.5573h-0.0015l-1.2606-0.72777-0.0015-0.0015c-0.85889-0.7243-1.8395-2.1068-1.8395-4.6464z" fill="url(#radialGradient11127)" style="paint-order:stroke fill markers"/>
  <path d="m32.08 1.9998c-4.2215 0-7.62 3.3985-7.62 7.62v0.83492a22.86 22.86 0 0 1 0.47625-0.19645 22.86 22.86 0 0 1 3.487-0.8379 22.86 22.86 0 0 1 3.5763-0.28129 22.86 22.86 0 0 1 1.2382 0.034229 22.86 22.86 0 0 1 1.2338 0.099715 22.86 22.86 0 0 1 1.2263 0.16818 22.86 22.86 0 0 1 1.2159 0.23217 22.86 22.86 0 0 1 1.201 0.29914 22.86 22.86 0 0 1 1.1832 0.36314 22.86 22.86 0 0 1 0.40184 0.14734v-0.8632c0-4.2215-3.3985-7.62-7.62-7.62z" fill="url(#linearGradient11129)" style="paint-order:stroke fill markers"/>
 </g>
</svg>
