<?xml version="1.0" encoding="UTF-8"?>
<svg id="Apps-Visual-Studio-Code" width="64" height="64" enable-background="new 0 0 1024 1024" image-rendering="optimizeSpeed" version="1.1" viewBox="0 0 64 64" xmlns="http://www.w3.org/2000/svg" xmlns:cc="http://creativecommons.org/ns#" xmlns:dc="http://purl.org/dc/elements/1.1/" xmlns:rdf="http://www.w3.org/1999/02/22-rdf-syntax-ns#" xmlns:xlink="http://www.w3.org/1999/xlink">
 <metadata>
  <rdf:RDF>
   <cc:Work rdf:about="">
    <dc:format>image/svg+xml</dc:format>
    <dc:type rdf:resource="http://purl.org/dc/dcmitype/StillImage"/>
   </cc:Work>
  </rdf:RDF>
 </metadata>
 <defs>
  <style type="text/css"/>
  <style type="text/css"/>
  <linearGradient id="linearGradient1043" x1="-6.3238" x2="-6.3238" y1="15.513" y2="51.408" gradientTransform="matrix(1.3619 0 0 1.3619 41.203 -11.89)" gradientUnits="userSpaceOnUse">
   <stop stop-color="#2ca8fd" offset="0"/>
   <stop stop-color="#2b59b2" offset="1"/>
  </linearGradient>
 </defs>
 <path d="m32.267 3.0901a8.1711 8.1711 0 0 0-8.1714 8.1714 8.1711 8.1711 0 0 0 8.1714 8.1714 8.1711 8.1711 0 0 0 8.1714-8.1714 8.1711 8.1711 0 0 0-8.1714-8.1714zm-21.03 20.992c-1.6474 0.0089-8.2366 0.50806-8.2366 7.9257 0 6.4793 3.9781 8.1957 12.97 7.9506 1.6935-0.04615 3.0278 0.21629 4.0828 0.66799 1.1957-4.7291 3.581-9.8786 7.8489-14.179-4.8555-2.5235-8.799-2.3572-8.799-2.3572h-7.4976s-0.13321-0.0089-0.36855-0.0077zm41.529 0c-0.2353-0.0013-0.37047 0.0077-0.37046 0.0077h-7.4976s-6.1762-0.27719-12.594 4.818c-4.254 3.7653-6.3751 8.4813-7.5034 12.987-0.43986 1.7567-0.70536 3.4601-0.86186 5.0387 0.0025 0.06403 0.0066 0.13406 0.0077 0.19387-0.04574 0.63908-0.07203 1.2401-0.09022 1.8139-0.02038 0.39584-0.03382 0.90795-0.02495 1.5126 0.0017 1.9661 0.12477 3.244 0.12477 3.244s0.06904 2.6303 2.0155 4.7143c0.0011 0.0014 0.0028 0.0025 0.0038 0.0038 1.0989 1.4579 2.7432 2.4768 5.1884 2.4934 0.2886 2e-3 0.56675-0.0055 0.83691-0.01919 0.27073 0.01372 0.54766 0.02117 0.83691 0.01919 2.4452-0.0167 4.0896-1.0355 5.1884-2.4934 0.0012-0.0013 0.0027-0.0026 0.0038-0.0038 1.9464-2.084 2.0155-4.7143 2.0155-4.7143s0.12305-1.2779 0.12477-3.244c0.0088-0.60462-0.0046-1.1167-0.02495-1.5126-0.01819-0.5738-0.04447-1.1749-0.09022-1.8139 0.04123-2.1984 0.88507-7.3626 7.9756-7.1694 8.9921 0.24504 12.97-1.4713 12.97-7.9506 0-7.4176-6.5876-7.9168-8.2347-7.9257z" fill="url(#linearGradient1043)" stroke-width=".98279"/>
</svg>
