<?xml version="1.0" encoding="UTF-8"?>
<!-- Created with Inkscape (http://www.inkscape.org/) -->
<svg width="64" height="64" version="1.1" viewBox="0 0 16.933 16.933" xmlns="http://www.w3.org/2000/svg" xmlns:cc="http://creativecommons.org/ns#" xmlns:dc="http://purl.org/dc/elements/1.1/" xmlns:rdf="http://www.w3.org/1999/02/22-rdf-syntax-ns#">
 <defs>
  <linearGradient id="linearGradient911" x1="119.52" x2="119.52" y1="-19.528" y2="68.237" gradientTransform="matrix(.64008 0 0 .64008 -40.729 17.935)" gradientUnits="userSpaceOnUse">
   <stop stop-color="#02d4a8" offset="0"/>
   <stop stop-color="#274aeb" offset=".35101"/>
   <stop stop-color="#fe4bf5" offset="1"/>
  </linearGradient>
 </defs>
 <metadata>
  <rdf:RDF>
   <cc:Work rdf:about="">
    <dc:format>image/svg+xml</dc:format>
    <dc:type rdf:resource="http://purl.org/dc/dcmitype/StillImage"/>
   </cc:Work>
  </rdf:RDF>
 </metadata>
 <path transform="scale(.26458)" d="m31.996 2a24.643 24.643 0 0 0-3.8438 0.30273 24.643 24.643 0 0 0-3.752 0.89844 24.643 24.643 0 0 0-3.5645 1.4727 24.643 24.643 0 0 0-3.291 2.0117 24.643 24.643 0 0 0-2.9375 2.5c0.18567 0.67503 0.38624 1.3566 0.60547 2.0391 0.21923 0.68245 0.45654 1.366 0.71289 2.043 0.17636 0.46572 0.3623 0.9274 0.55664 1.3828 0.19434 0.45536 0.39719 0.90475 0.60938 1.3457s0.43413 0.8726 0.66406 1.2949c0.22991 0.42231 0.46739 0.83477 0.71484 1.2344 0.24748 0.39961 0.5046 0.78737 0.76953 1.1602 0.26492 0.3728 0.53813 0.7304 0.82031 1.0723 0.28222 0.34187 0.57366 0.66776 0.87305 0.97461 0.29938 0.30684 0.60739 0.59558 0.92383 0.86328 0.26844 0.22709 0.54142 0.44201 0.82031 0.64258 0.27892 0.20058 0.56365 0.38666 0.85547 0.55859 0.29181 0.17194 0.5913 0.32756 0.89844 0.46875 0.30711 0.14118 0.6205 0.26668 0.94531 0.375 0.32482 0.10832 0.66092 0.20011 1.0059 0.27344 0.34493 0.073329 0.70089 0.12784 1.0684 0.16406 0.36746 0.036209 0.7463 0.053778 1.1387 0.050781 0.39239-0.003008 0.7971-0.025962 1.2168-0.070312 0.010545-0.52803 0.042166-1.0458 0.09375-1.5547 0.051591-0.50883 0.12301-1.0084 0.21289-1.498 0.089879-0.48966 0.19875-0.9688 0.32422-1.4395 0.12547-0.47065 0.26743-0.93313 0.42578-1.3848 0.15834-0.45165 0.33298-0.89342 0.52148-1.3262 0.1885-0.43276 0.39147-0.85566 0.60742-1.2695 0.21594-0.41388 0.44488-0.81972 0.68555-1.2148 0.24068-0.39508 0.4932-0.77995 0.75586-1.1562 0.26266-0.3763 0.5364-0.74389 0.81836-1.1016 0.28199-0.3577 0.57254-0.70581 0.87109-1.0449 0.29857-0.33911 0.60357-0.66962 0.91602-0.99023 0.31244-0.3206 0.63151-0.63144 0.95508-0.93359s0.6523-0.59518 0.98438-0.87891c0.33204-0.28375 0.66809-0.55879 1.0059-0.82422 0.33774-0.26543 0.67687-0.52038 1.0176-0.76758s0.6824-0.48587 1.0234-0.71484c0.50233-0.3373 1.0053-0.65696 1.5059-0.96094 0.50065-0.30395 0.99859-0.59116 1.4902-0.86328a24.643 24.643 0 0 0-2.8301-1.3555 24.643 24.643 0 0 0-2.9805-0.98242 24.643 24.643 0 0 0-3.082-0.59766 24.643 24.643 0 0 0-3.1328-0.19922zm16.162 6.0391c-0.3658 0.17728-0.73936 0.3644-1.1191 0.5625-0.37976 0.19811-0.76528 0.40743-1.1543 0.62695-0.38897 0.21955-0.78223 0.44987-1.1758 0.69141-0.39313 0.24124-0.78871 0.49399-1.1816 0.75781-0.5771 0.3875-1.1465 0.79545-1.7031 1.2227-0.27831 0.21361-0.55345 0.43224-0.82422 0.65625-0.27077 0.22402-0.53717 0.45273-0.79883 0.6875-0.26165 0.2348-0.5186 0.47486-0.76953 0.7207-0.25094 0.24585-0.49581 0.49862-0.73438 0.75586-0.23856 0.25722-0.47069 0.5201-0.69531 0.78906-0.22465 0.26899-0.44132 0.54321-0.65039 0.82422-0.20908 0.28101-0.41161 0.56794-0.60352 0.86133-0.1919 0.29339-0.37375 0.59235-0.54688 0.89844-0.17313 0.30606-0.33553 0.61838-0.48828 0.9375-0.15274 0.31908-0.29698 0.64605-0.42774 0.97852-0.13076 0.33246-0.24831 0.67143-0.35547 1.0176-0.10716 0.34616-0.2032 0.69843-0.28516 1.0586-0.081949 0.36017-0.1499 0.72903-0.20508 1.1035-0.055144 0.37451-0.096363 0.75539-0.12305 1.1445 0.28008-0.023282 0.55817-0.039265 0.83398-0.048828 0.27581-0.009575 0.54893-0.013529 0.82031-0.009765 0.2714 0.003779 0.53985 0.014544 0.80664 0.03125 0.26677 0.016693 0.53285 0.041086 0.79492 0.070312 0.52416 0.058452 1.0367 0.13986 1.541 0.24609h0.001953c0.50374 0.10617 0.9996 0.23602 1.4824 0.38672 0.48345 0.15089 0.95471 0.32323 1.416 0.51562 0.4613 0.1924 0.91156 0.40595 1.3496 0.63672 0.43807 0.23076 0.86373 0.48007 1.2773 0.74609 0.41362 0.26602 0.8151 0.5476 1.2031 0.8457 0.43634 0.33514 0.85821 0.68703 1.2656 1.0547 0.2037 0.18383 0.40267 0.37139 0.59961 0.5625h0.001954c0.19659 0.1908 0.39046 0.38621 0.58008 0.58398 0.37989 0.39621 0.74402 0.80575 1.0977 1.2266 0.35364 0.42079 0.69475 0.8534 1.0234 1.2949 0.3287 0.44153 0.64612 0.89323 0.95117 1.3516 0.30508 0.45836 0.59813 0.92331 0.88086 1.3945 0.28273 0.47123 0.55469 0.94949 0.81641 1.4297 0.13085 0.2401 0.25895 0.47915 0.38476 0.7207v0.001953c0.12581 0.24156 0.2501 0.48198 0.37109 0.72461a24.643 24.643 0 0 0 0.44336-0.88867 24.643 24.643 0 0 0 0.4082-0.9043 24.643 24.643 0 0 0 0.37109-0.92188 24.643 24.643 0 0 0 0.88672-2.8418 24.643 24.643 0 0 0 0.39648-1.9453 24.643 24.643 0 0 0 0.14062-0.98242 24.643 24.643 0 0 1 0-0.001953 24.643 24.643 0 0 0 0.099609-0.98633 24.643 24.643 0 0 0 0.080078-1.9844 24.643 24.643 0 0 0 0-0.16211 24.643 24.643 0 0 0-0.001953-0.095703 24.643 24.643 0 0 0 0-0.033204 24.643 24.643 0 0 0 0-0.03125 24.643 24.643 0 0 0 0-0.033203 24.643 24.643 0 0 0-0.001953-0.0625 24.643 24.643 0 0 1 0-0.001953 24.643 24.643 0 0 0 0-0.03125 24.643 24.643 0 0 0 0-0.033203 24.643 24.643 0 0 0-0.001953-0.03125 24.643 24.643 0 0 0 0-0.033203 24.643 24.643 0 0 0 0-0.03125 24.643 24.643 0 0 0-0.001953-0.033203 24.643 24.643 0 0 0 0-0.03125 24.643 24.643 0 0 0-0.001954-0.033203 24.643 24.643 0 0 0 0-0.03125 24.643 24.643 0 0 0-0.001953-0.033203 24.643 24.643 0 0 0 0-0.03125 24.643 24.643 0 0 0-0.001953-0.033203 24.643 24.643 0 0 0 0-0.03125 24.643 24.643 0 0 0-0.001953-0.033204 24.643 24.643 0 0 0 0-0.03125 24.643 24.643 0 0 0-0.013672-0.28906 24.643 24.643 0 0 0-0.001953-0.064453 24.643 24.643 0 0 0-0.029297-0.48242 24.643 24.643 0 0 0-0.005859-0.064453 24.643 24.643 0 0 0-0.003906-0.064453 24.643 24.643 0 0 0-0.00586-0.064453 24.643 24.643 0 0 0-0.009765-0.12891 24.643 24.643 0 0 0-0.00586-0.064453 24.643 24.643 0 0 0-0.017578-0.19336 24.643 24.643 0 0 0-0.001953-0.03125 24.643 24.643 0 0 0-0.013672-0.12891 24.643 24.643 0 0 0-0.005859-0.0625 24.643 24.643 0 0 0-0.025391-0.22461 24.643 24.643 0 0 0-0.005859-0.064453 24.643 24.643 0 0 0-0.035157-0.28906 24.643 24.643 0 0 0-0.013671-0.095704 24.643 24.643 0 0 0-0.011719-0.095703 24.643 24.643 0 0 0-0.009766-0.0625 24.643 24.643 0 0 0-0.013672-0.097656 24.643 24.643 0 0 0-0.003906-0.03125 24.643 24.643 0 0 0-0.74609-3.4316 24.643 24.643 0 0 0-1.2246-3.291 24.643 24.643 0 0 0-1.6816-3.0801 24.643 24.643 0 0 0-2.1016-2.8125 24.643 24.643 0 0 1 0-0.001953 24.643 24.643 0 0 0-0.78711-0.86719 24.643 24.643 0 0 0-1.6934-1.6172zm-36.934 5.377a24.643 24.643 0 0 0-1.6641 3.0664 24.643 24.643 0 0 0-1.2129 3.2715 24.643 24.643 0 0 0-0.74023 3.4102 24.643 24.643 0 0 0-0.25 3.4785 24.643 24.643 0 0 0 0.22266 3.2891 24.643 24.643 0 0 0 0.66016 3.2305 24.643 24.643 0 0 0 1.084 3.1133 24.643 24.643 0 0 0 1.4922 2.9414 24.643 24.643 0 0 0 1.8711 2.7148 24.643 24.643 0 0 0 2.2148 2.4414c0.67324-0.25335 1.3627-0.52894 2.0566-0.82812 0.69391-0.29919 1.3933-0.6225 2.0898-0.97266 0.38611-0.19412 0.76999-0.39607 1.1504-0.60547 0.38037-0.20943 0.7574-0.42583 1.1289-0.65039 0.3715-0.22455 0.73832-0.45772 1.0977-0.69726 0.35938-0.23955 0.71058-0.48589 1.0547-0.74024 0.34412-0.25437 0.68012-0.51609 1.0059-0.78516 0.3257-0.26907 0.64121-0.54646 0.94531-0.83008 0.3041-0.28363 0.59765-0.57305 0.87695-0.87109 0.27933-0.29803 0.54552-0.60372 0.79688-0.91602 0.20082-0.24947 0.39164-0.50248 0.57422-0.75976s0.35638-0.519 0.51953-0.78516c0.16314-0.26613 0.31644-0.53651 0.45898-0.8125 0.14255-0.27601 0.27377-0.5568 0.39453-0.84375 0.12076-0.28692 0.23033-0.58007 0.32812-0.87891 0.097805-0.29886 0.18415-0.60417 0.25781-0.91602 0.073661-0.31183 0.13525-0.62926 0.18359-0.95508 0.048326-0.32584 0.083622-0.65909 0.10547-1-0.27286 0.019654-0.54447 0.03082-0.8125 0.037109-0.26802 0.006274-0.53193 0.006798-0.79492 0-0.52603-0.013454-1.0437-0.051943-1.5488-0.11523-0.50516-0.063285-0.99935-0.15156-1.4824-0.26172-0.48309-0.11016-0.95423-0.24435-1.4141-0.39844-0.45983-0.15409-0.90837-0.32837-1.3438-0.52344-0.4354-0.19506-0.8578-0.4095-1.2676-0.64258-0.40977-0.23308-0.80649-0.48379-1.1895-0.75195-0.38295-0.26815-0.7525-0.55324-1.1074-0.85352-0.21414-0.18116-0.42396-0.36817-0.62891-0.55859-0.20495-0.1904-0.40555-0.38488-0.60156-0.58398-0.39202-0.39821-0.76518-0.81282-1.123-1.2422-0.35783-0.4294-0.69965-0.87421-1.0254-1.3301-0.32574-0.45586-0.63597-0.92264-0.93164-1.4004s-0.57604-0.96616-0.84375-1.4609c-0.26768-0.49484-0.52187-0.99664-0.76367-1.5039s-0.47152-1.0182-0.68945-1.5332c-0.21795-0.51503-0.4249-1.0347-0.62109-1.5527-0.18075-0.47733-0.35013-0.95539-0.51367-1.4336zm24.549 15.299c-0.43388 0.005376-0.88228 0.038529-1.3418 0.091797-0.005761 0.51494-0.035135 1.0207-0.085938 1.5176-0.050822 0.49683-0.12221 0.98482-0.21484 1.4629-0.092626 0.47802-0.20634 0.9477-0.33789 1.4062-0.13155 0.45853-0.28167 0.90536-0.44922 1.3438-0.16755 0.43839-0.35211 0.86763-0.55273 1.2852-0.20063 0.41748-0.41766 0.82286-0.64844 1.2188-0.23078 0.39592-0.47439 0.78257-0.73242 1.1562-0.25802 0.37365-0.53015 0.73518-0.8125 1.0859-0.32401 0.4025-0.6616 0.79067-1.0117 1.166-0.35011 0.37531-0.71133 0.73658-1.084 1.0859-0.37262 0.34931-0.7569 0.68726-1.1484 1.0117-0.39154 0.32444-0.79238 0.63681-1.1992 0.9375-0.40686 0.30074-0.81973 0.591-1.2383 0.86914-0.41861 0.27814-0.84279 0.54402-1.2695 0.80078-0.42675 0.25671-0.85582 0.50382-1.2871 0.74023-0.4313 0.23645-0.86463 0.46237-1.2969 0.67969-0.69295 0.34837-1.3863 0.67179-2.0742 0.97461a24.643 24.643 0 0 0 2.8164 1.5 24.643 24.643 0 0 0 2.9844 1.1211 24.643 24.643 0 0 0 3.1074 0.72656v11.104c1.0478-0.56059 2.0467-1.1161 3-1.666 0.95327-0.54988 1.8615-1.094 2.7246-1.6309 0.86308-0.53686 1.6818-1.0664 2.459-1.5879 0.77718-0.52152 1.5115-1.0353 2.207-1.5391 0.69551-0.50385 1.3505-0.99859 1.9688-1.4824 0.61822-0.48386 1.2009-0.95641 1.7461-1.418 0.5452-0.46156 1.0548-0.91074 1.5312-1.3477 0.4765-0.43693 0.91995-0.86151 1.332-1.2715 0.41208-0.40997 0.79255-0.80684 1.1445-1.1875 0.35196-0.38069 0.67454-0.74465 0.9707-1.0938 0.29617-0.34908 0.56589-0.68287 0.81055-0.99805 0.24465-0.31518 0.46464-0.61362 0.66211-0.89258 0.19748-0.27894 0.37279-0.53889 0.52734-0.7793 0.15458-0.24038 0.28831-0.4607 0.4043-0.66016 0.23195-0.39899 0.39075-0.71401 0.49414-0.93555a24.643 24.643 0 0 0 1.0234-1.0566c-0.24814-0.57799-0.50634-1.1549-0.78125-1.7285-0.22375-0.46693-0.45581-0.92945-0.69727-1.3867-0.24146-0.45728-0.49309-0.90812-0.75195-1.3516-0.25886-0.44345-0.52481-0.88105-0.80078-1.3066-0.27597-0.42559-0.56085-0.83868-0.85352-1.2422-0.29265-0.40346-0.59327-0.79663-0.90234-1.1738-0.30904-0.37722-0.62611-0.73908-0.95117-1.0859-0.32506-0.34686-0.65916-0.67794-1-0.99023-0.34084-0.3123-0.68878-0.60724-1.0449-0.88086-0.26711-0.20521-0.53652-0.39999-0.81055-0.58398-0.27402-0.184-0.55178-0.35622-0.83398-0.51758-0.28222-0.16135-0.56959-0.31193-0.86133-0.44922-0.29175-0.13728-0.58806-0.26126-0.89062-0.37305-0.3026-0.11179-0.61104-0.21005-0.92578-0.29492-0.31473-0.084864-0.63669-0.15638-0.96484-0.21289-0.32819-0.056513-0.6629-0.098263-1.0059-0.125-0.34297-0.026722-0.69371-0.037671-1.0527-0.033203v-0.001953z" fill="url(#linearGradient911)" fill-rule="evenodd" stroke-width=".64008" style="paint-order:stroke fill markers"/>
 <g fill="#5e4aa6" stroke-width=".26458">
  <g transform="translate(55.677 -3.157)">
   <circle cx="-322.63" cy="-345.67" r="0"/>
   <circle cx="-31.726" cy="-10.849" r="0" fill-rule="evenodd"/>
   <circle cx="-306.92" cy="-328.72" r="0"/>
  </g>
  <g transform="translate(47.177 -15.995)" image-rendering="optimizeSpeed">
   <circle cx="-330.35" cy="-328.38" r="0"/>
   <circle cx="-312.11" cy="-326.25" r="0"/>
   <circle cx="-306.02" cy="-333.07" r="0"/>
   <circle cx="-308.84" cy="-326.01" r="0"/>
   <circle cx="-330.35" cy="-328.38" r="0"/>
   <circle cx="-312.11" cy="-326.25" r="0"/>
   <circle cx="-306.02" cy="-333.07" r="0"/>
   <circle cx="-308.84" cy="-326.01" r="0"/>
  </g>
 </g>
</svg>
