<?xml version="1.0" encoding="UTF-8"?>
<svg width="64" height="64" version="1.1" xmlns="http://www.w3.org/2000/svg" xmlns:cc="http://creativecommons.org/ns#" xmlns:dc="http://purl.org/dc/elements/1.1/" xmlns:rdf="http://www.w3.org/1999/02/22-rdf-syntax-ns#" xmlns:xlink="http://www.w3.org/1999/xlink">
 <defs>
  <linearGradient id="linearGradient1756">
   <stop stop-color="#fc9432" offset="0"/>
   <stop stop-color="#a102f8" offset="1"/>
  </linearGradient>
  <linearGradient id="linearGradient1758" x1="79.533" x2="79.533" y1="6.1032" y2="61.421" gradientTransform="translate(-48,-2)" gradientUnits="userSpaceOnUse" xlink:href="#linearGradient1756"/>
  <linearGradient id="linearGradient853" x1="38" x2="38" y1="4" y2="60" gradientTransform="translate(101.85)" gradientUnits="userSpaceOnUse" xlink:href="#linearGradient1756"/>
  <linearGradient id="linearGradient855" x1="79.533" x2="79.533" y1="6.1032" y2="61.421" gradientTransform="translate(53.849,-2)" gradientUnits="userSpaceOnUse" xlink:href="#linearGradient1756"/>
  <linearGradient id="linearGradient1373" x1="32.064" x2="32.064" y1="4.1382" y2="55.891" gradientTransform="matrix(1.125,0,0,1,-4,0)" gradientUnits="userSpaceOnUse" xlink:href="#linearGradient1756"/>
 </defs>
 <metadata>
  <rdf:RDF>
   <cc:Work rdf:about="">
    <dc:format>image/svg+xml</dc:format>
    <dc:type rdf:resource="http://purl.org/dc/dcmitype/StillImage"/>
   </cc:Work>
  </rdf:RDF>
 </metadata>
 <g fill-rule="evenodd" stroke-linecap="round" stroke-linejoin="round">
  <g stroke-width="9.3278">
   <path d="m18 3c-3.324 0-6 2.676-6 6v46c0 3.324 2.676 6 6 6h28c3.324 0 6-2.676 6-6v-46c0-3.324-2.676-6-6-6zm3 5h22c2.216 0 4 1.784 4 4v40c0 2.216-1.784 4-4 4h-22c-2.216 0-4-1.784-4-4v-40c0-2.216 1.784-4 4-4zm5.5 40c-1.385 0-2.5 1.115-2.5 2.5s1.115 2.5 2.5 2.5h11c1.385 0 2.5-1.115 2.5-2.5s-1.115-2.5-2.5-2.5z" fill="url(#linearGradient1758)" style="paint-order:stroke fill markers"/>
   <path d="m119.85 3c-3.324 0-6 2.676-6 6v46c0 3.324 2.676 6 6 6h28c3.324 0 6-2.676 6-6v-46c0-3.324-2.676-6-6-6zm3 5h22c2.216 0 4 1.784 4 4v40c0 2.216-1.784 4-4 4h-22c-2.216 0-4-1.784-4-4v-40c0-2.216 1.784-4 4-4zm5.5 40c-1.385 0-2.5 1.115-2.5 2.5s1.115 2.5 2.5 2.5h11c1.385 0 2.5-1.115 2.5-2.5s-1.115-2.5-2.5-2.5z" fill="url(#linearGradient855)" style="paint-order:stroke fill markers"/>
   <path d="m133.85 3v42h5.5c3.047 0 5.5 2.453 5.5 5.5s-2.453 5.5-5.5 5.5h-5.5v5h14c3.324 0 6-2.676 6-6v-46c0-3.324-2.676-6-6-6z" fill="url(#linearGradient853)" style="paint-order:stroke fill markers"/>
  </g>
  <rect x="23" y="3" width="18" height="10" ry="5" fill="url(#linearGradient1373)" stroke-width="10" style="paint-order:stroke fill markers"/>
 </g>
</svg>
