<?xml version="1.0" encoding="UTF-8"?>
<svg width="64" height="64" version="1.1" xmlns="http://www.w3.org/2000/svg">
 <defs>
  <linearGradient id="linearGradient13611" x1="-229.79" x2="-189.78" y1="59.311" y2="41.666" gradientTransform="matrix(.54923 0 0 .54923 161.42 9.1159)" gradientUnits="userSpaceOnUse">
   <stop stop-color="#b648fe" offset="0"/>
   <stop stop-color="#02a0fd" offset="1"/>
  </linearGradient>
  <linearGradient id="linearGradient64678" x1="-228.95" x2="-189.78" y1="23.361" y2="41.666" gradientTransform="matrix(.54923 0 0 .54923 161.42 9.1159)" gradientUnits="userSpaceOnUse">
   <stop stop-color="#96f534" offset="0"/>
   <stop stop-color="#0a9cfd" offset="1"/>
  </linearGradient>
  <linearGradient id="linearGradient22984" x1="-142.07" x2="-124.57" y1="-209.74" y2="-209.74" gradientTransform="matrix(.54923 0 0 .54923 120.59 107.7)" gradientUnits="userSpaceOnUse">
   <stop stop-color="#d737ee" offset="0"/>
   <stop stop-color="#b548fe" offset="1"/>
  </linearGradient>
  <linearGradient id="linearGradient88405" x1="-200.99" x2="-218.49" y1="-159.57" y2="-159.57" gradientTransform="matrix(.54923 0 0 .54923 107.7 120.59)" gradientUnits="userSpaceOnUse">
   <stop stop-color="#fa533e" offset="0"/>
   <stop stop-color="#fde205" offset="1"/>
  </linearGradient>
  <linearGradient id="linearGradient108774" x1="-233.14" x2="-217.94" y1="-174.76" y2="-159.57" gradientTransform="matrix(.54923 0 0 .54923 107.7 120.59)" gradientUnits="userSpaceOnUse">
   <stop stop-color="#fbb104" offset="0"/>
   <stop stop-color="#fbe106" stop-opacity="0" offset="1"/>
  </linearGradient>
  <linearGradient id="linearGradient46849" x1="-218.49" x2="-183.49" y1="-150.82" y2="-150.82" gradientTransform="matrix(.54923 0 0 .54923 107.7 120.59)" gradientUnits="userSpaceOnUse">
   <stop stop-color="#fde105" offset="0"/>
   <stop stop-color="#95f534" offset="1"/>
  </linearGradient>
 </defs>
 <g fill="#08b7ee" fill-rule="evenodd" stroke-linecap="round" stroke-linejoin="round">
  <path d="m41.781 12.777a19.223 19.223 0 0 0-19.223 19.223 19.223 19.223 0 0 0 19.223 19.223 19.223 19.223 0 0 0 19.223-19.223 19.223 19.223 0 0 0-19.223-19.223zm0 7.6305c0.15467 0 0.3093 0.0077 0.46341 0.02253 0.15411 0.01481 0.30778 0.03688 0.46019 0.06651 0.15241 0.02963 0.30416 0.06712 0.45376 0.11156 0.14959 0.04444 0.29739 0.09628 0.44303 0.15554 0.14563 0.05926 0.28853 0.12545 0.42909 0.19952 0.14055 0.07408 0.27866 0.15569 0.41299 0.24458 0.13434 0.08889 0.26562 0.18485 0.39262 0.28856 0.12699 0.1037 0.24942 0.2151 0.36794 0.33361l6.7473 6.7473c0.11852 0.11852 0.22884 0.24095 0.33254 0.36794s0.20074 0.25828 0.28964 0.39261c0.08889 0.13434 0.1705 0.27245 0.24458 0.41299 0.07408 0.14055 0.14026 0.28345 0.19952 0.42909 0.05926 0.14563 0.1111 0.29344 0.15554 0.44303 0.04443 0.14959 0.08193 0.30134 0.11156 0.45376 0.0296 0.15242 0.05168 0.30609 0.06651 0.46019 0.01483 0.15411 0.02252 0.30874 0.02252 0.46341s-0.0077 0.3093-0.02252 0.46341c-0.01483 0.15411-0.03685 0.30778-0.06651 0.46019s-0.06712 0.3031-0.11156 0.45269c-0.04443 0.14959-0.09628 0.2974-0.15554 0.44303-0.05926 0.14563-0.12545 0.28961-0.19952 0.43016-0.07408 0.14055-0.15569 0.27759-0.24458 0.41192-0.08889 0.13434-0.18593 0.26562-0.28964 0.39261-0.1029 0.12602-0.2129 0.24812-0.3304 0.3658l-6.7495 6.7495c-0.11852 0.11852-0.24095 0.22991-0.36794 0.33361-0.127 0.10371-0.25828 0.19967-0.39262 0.28856-0.13434 0.08889-0.27244 0.1705-0.41299 0.24458-0.14055 0.07408-0.28345 0.14026-0.42909 0.19952-0.14564 0.05926-0.29344 0.1111-0.44303 0.15554-0.14959 0.04444-0.30135 0.08193-0.45376 0.11156-0.15242 0.02963-0.30609 0.05169-0.4602 0.06651-0.15411 0.01481-0.30874 0.02253-0.46341 0.02253-0.15468 0-0.3093-0.0077-0.46341-0.02253-0.15411-0.01481-0.30778-0.03688-0.46019-0.06651-0.15242-0.02963-0.3031-0.06712-0.45269-0.11156-0.14959-0.04444-0.2974-0.09629-0.44303-0.15554-0.14564-0.05926-0.28961-0.12545-0.43016-0.19952-0.14055-0.07408-0.27758-0.15569-0.41192-0.24458-0.13434-0.08889-0.26562-0.18485-0.39261-0.28856-0.12699-0.1037-0.25049-0.2151-0.36902-0.33361l-10.17-10.17 10.172-10.172c0.11768-0.1175 0.23978-0.22856 0.3658-0.33147 0.12699-0.1037 0.25828-0.19967 0.39261-0.28856 0.13434-0.08889 0.27138-0.1705 0.41192-0.24458 0.14055-0.07408 0.28452-0.14026 0.43016-0.19952 0.14563-0.05926 0.29344-0.1111 0.44303-0.15554 0.14959-0.04444 0.30027-0.08193 0.45269-0.11156 0.15241-0.02963 0.30608-0.05169 0.4602-0.06651 0.15411-0.01481 0.30873-0.02253 0.46341-0.02253z" stroke-width="3.4454" style="paint-order:stroke fill markers"/>
  <rect transform="rotate(-45)" x="-12.306" y="32.946" width="19.223" height="9.6115" ry="0" stroke-width="1.9662" style="paint-order:stroke fill markers"/>
  <rect transform="matrix(.70711 .70711 .70711 -.70711 0 0)" x="32.946" y="-12.307" width="19.223" height="9.6116" ry="0" stroke-width="1.9662" style="paint-order:stroke fill markers"/>
 </g>
 <g fill-rule="evenodd" stroke-linecap="round" stroke-linejoin="round">
  <path d="m22.558 32a19.223 19.223 0 0 0 19.223 19.223 19.223 19.223 0 0 0 19.223-19.223h-7.6305c0 0.15467-0.0077 0.3093-0.02252 0.46341-0.01483 0.15411-0.03685 0.30778-0.06651 0.46019s-0.06712 0.3031-0.11156 0.45269c-0.04443 0.14959-0.09628 0.2974-0.15554 0.44303-0.05926 0.14563-0.12545 0.28961-0.19952 0.43016-0.07408 0.14055-0.15569 0.27759-0.24458 0.41192-0.08889 0.13434-0.18593 0.26562-0.28964 0.39261-0.1029 0.12602-0.2129 0.24812-0.3304 0.3658l-6.7495 6.7495c-0.11852 0.11852-0.24095 0.22991-0.36794 0.33361-0.127 0.10371-0.25828 0.19967-0.39262 0.28856-0.13434 0.08889-0.27244 0.1705-0.41299 0.24458-0.14055 0.07408-0.28345 0.14026-0.42909 0.19952-0.14564 0.05926-0.29344 0.1111-0.44303 0.15554-0.14959 0.04444-0.30135 0.08193-0.45376 0.11156-0.15242 0.02963-0.30608 0.05169-0.46019 0.06651-0.15411 0.01481-0.30874 0.02253-0.46341 0.02253-0.15468 0-0.3093-0.0077-0.46341-0.02253-0.15411-0.01481-0.30778-0.03688-0.4602-0.06651-0.15242-0.02963-0.3031-0.06712-0.45269-0.11156-0.14959-0.04444-0.2974-0.09629-0.44303-0.15554-0.14564-0.05926-0.28961-0.12545-0.43016-0.19952-0.14055-0.07408-0.27758-0.15569-0.41192-0.24458-0.13434-0.08889-0.26562-0.18485-0.39261-0.28856-0.12699-0.1037-0.25049-0.21509-0.36902-0.33361l-10.17-10.17z" fill="url(#linearGradient13611)" stroke-width="3.4454" style="paint-order:stroke fill markers"/>
  <path d="m22.558 32h5.6307l10.172-10.172c0.11768-0.1175 0.23978-0.22856 0.3658-0.33147 0.12699-0.10371 0.25828-0.19967 0.39261-0.28856 0.13434-0.08889 0.27137-0.1705 0.41192-0.24458 0.14055-0.07407 0.28452-0.14026 0.43016-0.19952 0.14563-0.05926 0.29344-0.1111 0.44303-0.15554 0.14959-0.04444 0.30027-0.08193 0.45269-0.11156 0.15241-0.02963 0.30608-0.05169 0.46019-0.06651 0.15411-0.01481 0.30873-0.02253 0.46341-0.02253 0.15467 0 0.3093 0.0077 0.46341 0.02253 0.15411 0.01481 0.30778 0.03688 0.46019 0.06651 0.15241 0.02963 0.30416 0.06712 0.45376 0.11156 0.14959 0.04444 0.29739 0.09629 0.44303 0.15554 0.14563 0.05926 0.28853 0.12545 0.42909 0.19952 0.14055 0.07408 0.27866 0.15569 0.41299 0.24458 0.13434 0.08889 0.26562 0.18485 0.39262 0.28856 0.12699 0.10371 0.24942 0.2151 0.36794 0.33361l6.7473 6.7473c0.11852 0.11852 0.22884 0.24095 0.33254 0.36794 0.1037 0.12699 0.20074 0.25828 0.28964 0.39261 0.08889 0.13434 0.1705 0.27244 0.24458 0.41299 0.07408 0.14055 0.14026 0.28345 0.19952 0.42909 0.05926 0.14563 0.1111 0.29344 0.15554 0.44303 0.04443 0.14959 0.08193 0.30134 0.11156 0.45376 0.0296 0.15242 0.05168 0.30609 0.06651 0.4602 0.01483 0.15411 0.02252 0.30874 0.02252 0.46341h7.6304a19.223 19.223 0 0 0-19.223-19.223 19.223 19.223 0 0 0-19.223 19.223z" fill="url(#linearGradient64678)" stroke-width="3.4454" style="paint-order:stroke fill markers"/>
  <rect transform="matrix(.70711 .70711 .70711 -.70711 0 0)" x="32.946" y="-12.307" width="19.223" height="9.6116" ry="0" fill="url(#linearGradient22984)" stroke-width="1.9662" style="paint-order:stroke fill markers"/>
  <rect transform="rotate(-45)" x="-21.918" y="23.335" width="19.223" height="19.223" ry="4.8408" fill="url(#linearGradient88405)" stroke-width="2.7807" style="paint-order:stroke fill markers"/>
  <rect transform="rotate(-45)" x="-21.918" y="23.335" width="19.223" height="19.223" ry="4.8408" fill="url(#linearGradient108774)" stroke-width="2.7807" style="paint-order:stroke fill markers"/>
  <rect transform="rotate(-45)" x="-12.306" y="32.946" width="19.223" height="9.6115" ry="0" fill="url(#linearGradient46849)" stroke-width="1.9662" style="paint-order:stroke fill markers"/>
 </g>
</svg>
