<?xml version="1.0" encoding="UTF-8"?>
<svg width="64" height="64" version="1.1" viewBox="0 0 16.933 16.933" xmlns="http://www.w3.org/2000/svg" xmlns:cc="http://creativecommons.org/ns#" xmlns:dc="http://purl.org/dc/elements/1.1/" xmlns:rdf="http://www.w3.org/1999/02/22-rdf-syntax-ns#" xmlns:xlink="http://www.w3.org/1999/xlink">
 <defs>
  <linearGradient id="linearGradient40446-3" x1="-13.067" x2="-23.088" y1="7.4493" y2="13.235" gradientUnits="userSpaceOnUse">
   <stop stop-color="#694eb3" offset="0"/>
   <stop stop-color="#6239d5" offset="1"/>
  </linearGradient>
  <linearGradient id="linearGradient52342-6" x1="-17.257" x2="-27.622" y1="13.445" y2="7.46" gradientUnits="userSpaceOnUse">
   <stop stop-color="#1082ff" offset="0"/>
   <stop stop-color="#0a49f3" offset="1"/>
  </linearGradient>
  <linearGradient id="linearGradient29650-7" x1="-16.437" x2="-16.437" y1=".86498" y2="14.149" gradientUnits="userSpaceOnUse">
   <stop stop-color="#0f68ff" offset="0"/>
   <stop stop-color="#39c1f2" offset="1"/>
  </linearGradient>
  <linearGradient id="linearGradient64483-5" x1="-24.104" x2="-24.104" y1=".78493" y2="14.069" gradientUnits="userSpaceOnUse">
   <stop stop-color="#1655c5" offset="0"/>
   <stop stop-color="#ccc7e6" offset="1"/>
  </linearGradient>
  <linearGradient id="linearGradient2061-3" x1="-23.411" x2="-11.725" y1="-1.4097" y2="5.437" gradientUnits="userSpaceOnUse">
   <stop stop-color="#4c64d9" offset="0"/>
   <stop stop-color="#a799de" offset="1"/>
  </linearGradient>
  <linearGradient id="linearGradient12631-5" x1="-16.233" x2="-28.903" y1="-.82346" y2="6.4898" gradientUnits="userSpaceOnUse">
   <stop stop-color="#2ec2fb" offset="0"/>
   <stop stop-color="#298ff4" offset="1"/>
  </linearGradient>
 </defs>
 <metadata>
  <rdf:RDF>
   <cc:Work rdf:about="">
    <dc:format>image/svg+xml</dc:format>
    <dc:type rdf:resource="http://purl.org/dc/dcmitype/StillImage"/>
   </cc:Work>
  </rdf:RDF>
 </metadata>
 <g transform="matrix(.87787 0 0 .87787 26.299 2.7519)">
  <path d="m-23.088 14.464s0.36492 0.04372 0.68418-0.1467c0.31926-0.19043 9.9994-5.7244 9.9994-5.7244s0.38537-0.20867 0.48321-0.39104c0.09785-0.18237-2.8004-1.7103-2.8004-1.7103l-8.3663 4.83z" fill="url(#linearGradient40446-3)"/>
  <path d="m-28.728 8.0946s0.14078 0.27022 0.43779 0.44772c0.29701 0.1775 10.147 5.8586 10.147 5.8586s0.23315 0.14296 0.68962 0.14296c0.45647 0 0-3.064 0-3.064l-8.3663-5.0554z" fill="url(#linearGradient52342-6)"/>
  <path d="m-14.834 0.19798s0.11272 0.19682 0.11272 0.64846v11.6s0.0281 0.71657-0.54127 1.038c-0.56937 0.3214-1.5603 0.8844-1.5603 0.8844s-0.34024 0.17543-0.6297 0.17543v-13.092l2.032-1.1732s0.42296-0.27719 0.58652-0.080402z" fill="url(#linearGradient29650-7)"/>
  <path d="m-25.707 0.11794s-0.11272 0.19682-0.11272 0.64846v11.6s-0.0281 0.71657 0.54127 1.038c0.56937 0.3214 1.5603 0.8844 1.5603 0.8844s0.34024 0.17543 0.6297 0.17543v-13.092l-2.032-1.1732s-0.42296-0.27719-0.58652-0.080402z" fill="url(#linearGradient64483-5)"/>
  <path d="m-11.921 8.2016s-0.04315-0.12888-0.25385-0.23915-13.531-7.8445-13.531-7.8445 0.16473-0.29727 0.34116-0.39914c0.17643-0.10186 1.9546-1.1285 1.9546-1.1285s0.50236-0.29628 1.1345 0.062616c0.63214 0.35891 9.9801 5.8039 9.9801 5.8039s0.59569 0.35074 0.57088 0.98023c-0.02482 0.62948 1e-6 2.0824 1e-6 2.0824s0.03245 0.32905-0.19587 0.68214z" fill="url(#linearGradient2061-3)"/>
  <path d="m-14.834 0.19798s-0.13319-0.02707-0.33403 0.10027c-0.20084 0.12734-13.559 7.7963-13.559 7.7963s-0.17508-0.29129-0.17508-0.49502v-2.257s-0.0054-0.5832 0.62147-0.95119c0.62689-0.36799 10.016-5.7411 10.016-5.7411s0.6016-0.34051 1.1343-0.00428c0.53274 0.33623 1.8035 1.0412 1.8035 1.0412s0.30119 0.13642 0.49282 0.5107z" fill="url(#linearGradient12631-5)"/>
 </g>
</svg>
