<?xml version="1.0" encoding="UTF-8"?>
<svg width="64" height="64" version="1.1" viewBox="0 0 16.933 16.933" xmlns="http://www.w3.org/2000/svg" xmlns:cc="http://creativecommons.org/ns#" xmlns:dc="http://purl.org/dc/elements/1.1/" xmlns:rdf="http://www.w3.org/1999/02/22-rdf-syntax-ns#">
 <metadata>
  <rdf:RDF>
   <cc:Work rdf:about="">
    <dc:format>image/svg+xml</dc:format>
    <dc:type rdf:resource="http://purl.org/dc/dcmitype/StillImage"/>
   </cc:Work>
  </rdf:RDF>
 </metadata>
 <g transform="matrix(.48552 0 0 .48552 -45.252 3.1276)">
  <path transform="scale(.26458)" d="m437.96 57.225c-0.0372 5e-3 -0.0741 0.01062-0.11133 0.01563-0.50726 0.0682-1.0146 0.13167-1.5254 0.19141-0.51078 0.05973-1.0232 0.11518-1.5371 0.16602s-1.0301 0.09716-1.5469 0.13867c-0.5168 0.04151-1.0354 0.07958-1.5547 0.11133-0.51931 0.03175-1.0391 0.05852-1.5606 0.08008s-1.045 0.03791-1.5684 0.04883c-0.52331 0.01093-1.0475 0.01576-1.5723 0.01563-0.52481-1.38e-4 -1.0502-0.0059-1.5762-0.01758-0.52596-0.01163-1.0513-0.02917-1.5781-0.05273s-1.0548-0.05392-1.582-0.08984c-0.52728-0.03593-1.0546-0.07823-1.582-0.12695-0.52743-0.04873-1.0548-0.10406-1.582-0.16602-0.52723-0.06196-1.0534-0.12945-1.5801-0.20508-0.52671-0.07562-1.0542-0.15833-1.5801-0.24805s-1.0515-0.18676-1.5762-0.29102-1.0472-0.21672-1.5703-0.33594c-0.5231-0.11922-1.0452-0.24624-1.5664-0.38086s-1.0415-0.27532-1.5606-0.42578c-0.42909-0.12439-0.85746-0.25884-1.2852-0.39453l-14.32 20.891c10.669 3.7251 24.325 6.5212 33.641 6.2891z" fill="#0374f6"/>
  <path transform="scale(.26458)" d="m437.96 57.225-10.275 25.213c0.0477-0.0012 0.099-6.05e-4 0.14648-2e-3 13.955-0.39615 34.473-2.4196 38.295-17.48 1.0595-4.1753 2.7064-10.747 4.3848-17.494-0.23807 0.10835-0.46125 0.21412-0.70703 0.32422-0.61945 0.27749-1.2631 0.56151-1.9297 0.84766-0.66656 0.28615-1.3574 0.57584-2.0684 0.86719s-1.4426 0.58388-2.1953 0.87695-1.5247 0.58563-2.3164 0.87695c-0.79172 0.29133-1.6036 0.58108-2.4316 0.86719s-1.6735 0.56828-2.5352 0.8457c-0.86165 0.27742-1.7382 0.55114-2.6308 0.81641-0.89261 0.26527-1.7999 0.52184-2.7207 0.77148-0.92083 0.24964-1.8564 0.49211-2.8027 0.72266-0.47319 0.11527-0.94867 0.22804-1.4277 0.33789-0.47906 0.10985-0.9607 0.21632-1.4453 0.32031-0.4846 0.10399-0.97308 0.20503-1.4629 0.30273s-0.98188 0.19223-1.4766 0.2832c-0.49468 0.09098-0.99103 0.1779-1.4902 0.26172-0.4992 0.08382-1.0005 0.16401-1.5039 0.24024-0.46649 0.07063-0.93625 0.13741-1.4062 0.20117z" fill="#0056e9"/>
  <path transform="scale(.26458)" d="m385.3 49.129c-0.13916-0.02739-0.28602-0.05918-0.42382-0.08594-0.69329-0.13459-1.3694-0.26134-2.0274-0.37891-0.65791-0.11757-1.2969-0.22656-1.9199-0.32812-0.62303-0.10157-1.2298-0.19467-1.8184-0.28125-0.58861-0.08658-1.1602-0.16568-1.7148-0.23828-0.55467-0.0726-1.0921-0.13957-1.6133-0.19922-0.52121-0.05965-1.0255-0.11245-1.5137-0.16016-0.48821-0.0477-0.96032-0.09018-1.416-0.12695-0.4557-0.03677-0.89471-0.06884-1.3184-0.0957s-0.83252-0.04844-1.2246-0.06641c-0.39209-0.01796-0.76791-0.03093-1.1289-0.04102-0.36099-0.01008-0.70673-0.01827-1.0371-0.02148-0.14532-0.0014-0.25701 0.0041-0.39648 0.0039-3.1663 2.0423-9.9805 6.4551-9.9805 6.4551s-3.5953 2.7828 0.84766 6.1387c2.1489 1.6231 5.4601 2.6677 9.2871 4.0098z" fill="#52b5f9"/>
  <path transform="scale(.26458)" d="m385.3 49.129-17.398 14.584c4.0855 1.4327 8.7608 3.2053 13.297 6.4141 2.9188 2.0647 7.5085 4.1586 12.844 6.0215l14.32-20.891c-0.0896-0.02844-0.18004-0.05314-0.26953-0.08203-1.0329-0.33345-2.0458-0.65364-3.0391-0.96094-0.99329-0.30729-1.9658-0.60066-2.9199-0.88281s-1.8892-0.55252-2.8047-0.81055-1.8122-0.50532-2.6894-0.74023-1.7347-0.4571-2.5742-0.66992-1.6607-0.41568-2.4629-0.60742c-0.80223-0.19174-1.5861-0.37325-2.3516-0.54492-0.76544-0.17167-1.5131-0.3337-2.2422-0.48633-0.5842-0.12229-1.148-0.23333-1.709-0.34375z" fill="#1c98f8"/>
  <path transform="scale(.26458)" d="m448.65 31.004c-0.24759 0.06418-0.49444 0.13245-0.74218 0.19531-0.90168 0.2288-1.804 0.4493-2.7051 0.66016-0.90111 0.21086-1.8023 0.41111-2.6992 0.60156-0.44846 0.09522-0.89506 0.18768-1.3418 0.27734-0.44673 0.08966-0.89333 0.17793-1.3379 0.26172-0.44456 0.08379-0.88814 0.16458-1.3301 0.24219-0.44193 0.07761-0.88146 0.15153-1.3203 0.22266-0.43885 0.07112-0.87718 0.1388-1.3125 0.20312-0.43532 0.06433-0.86749 0.12442-1.2988 0.18164-0.43134 0.05722-0.86215 0.1123-1.2891 0.16211-0.4269 0.04981-0.85142 0.09463-1.2734 0.13672-0.42201 0.04209-0.84113 0.08117-1.2578 0.11523-0.41668 0.03406-0.82934 0.06412-1.2402 0.08984-0.41089 0.02573-0.81996 0.04737-1.2246 0.06445s-0.80517 0.02898-1.2031 0.03711c-0.39795 0.0081-0.79278 0.0109-1.1836 0.0098s-0.7789-0.0069-1.1621-0.01758c-0.38322-0.0107-0.76155-0.0263-1.1367-0.04687-0.29685-0.01628-0.58919-0.03811-0.88086-0.06055l-14.342 20.918c0.4277 0.1357 0.85607 0.27014 1.2852 0.39453 0.51902 0.15046 1.0393 0.29116 1.5606 0.42578s1.0433 0.26164 1.5664 0.38086c0.52311 0.11922 1.0457 0.23168 1.5703 0.33594s1.0503 0.20129 1.5762 0.29102c0.52584 0.08972 1.0534 0.17242 1.5801 0.24805 0.5267 0.07562 1.0528 0.14312 1.5801 0.20508 0.52724 0.06196 1.0546 0.11729 1.582 0.16602 0.52742 0.04873 1.0548 0.09103 1.582 0.12695 0.52727 0.03593 1.0552 0.06628 1.582 0.08984s1.0522 0.0411 1.5781 0.05273c0.52597 0.01163 1.0514 0.01744 1.5762 0.01758 0.52478 1.35e-4 1.049-0.0047 1.5723-0.01563 0.52331-0.01092 1.0469-0.02727 1.5684-0.04883 0.52148-0.02155 1.0412-0.04833 1.5606-0.08008s1.0379-0.06981 1.5547-0.11133c0.51681-0.04151 1.0329-0.08783 1.5469-0.13867 0.51396-0.05084 1.0263-0.10628 1.5371-0.16602 0.51077-0.05973 1.0181-0.12321 1.5254-0.19141 0.0372-5e-3 0.0741-0.01058 0.11133-0.01563z" fill="#1c98f8"/>
  <path transform="scale(.26458)" d="m448.65 31.004-10.686 26.221c0.47-0.06376 0.93976-0.13054 1.4062-0.20117 0.5034-0.07622 1.0047-0.15642 1.5039-0.24024 0.49921-0.08382 0.99556-0.17074 1.4902-0.26172 0.49468-0.09097 0.98675-0.1855 1.4766-0.2832s0.97829-0.19874 1.4629-0.30273c0.48461-0.10399 0.96625-0.21046 1.4453-0.32031 0.47907-0.10985 0.95455-0.22262 1.4277-0.33789 0.94637-0.23055 1.8819-0.47301 2.8027-0.72266 0.92084-0.24964 1.8281-0.50622 2.7207-0.77148 0.8926-0.26527 1.7692-0.53898 2.6308-0.81641 0.86168-0.27742 1.7071-0.55959 2.5352-0.8457s1.6399-0.57586 2.4316-0.86719c0.79172-0.29132 1.5637-0.58388 2.3164-0.87695s1.4843-0.58561 2.1953-0.87695 1.4018-0.58104 2.0684-0.86719c0.66656-0.28615 1.3102-0.57017 1.9297-0.84766 0.24578-0.1101 0.46896-0.21587 0.70703-0.32422 2.1709-8.7274 4.4626-18.044 6.3125-25.92-0.58153 0.23336-1.1771 0.47166-1.7949 0.71484-0.66947 0.2635-1.3597 0.53202-2.0684 0.80469s-1.4355 0.54875-2.1797 0.82812-1.5051 0.56209-2.2812 0.8457-1.5666 0.56813-2.3711 0.85352c-0.80451 0.28539-1.6239 0.57077-2.4531 0.85547-0.82922 0.2847-1.6692 0.57002-2.5195 0.85156s-1.7103 0.56001-2.5781 0.83594c-0.8678 0.27592-1.7433 0.54857-2.625 0.81641-0.88168 0.26784-1.7701 0.53177-2.6621 0.78906-0.89199 0.25729-1.7869 0.50768-2.6856 0.75195-0.65173 0.17716-1.3055 0.34622-1.959 0.51562z" fill="#147ef8"/>
  <path transform="scale(.26458)" d="m403.52 33.863c-0.40958 0.01336-0.82107 0.02518-1.2226 0.04102-0.5979 0.02358-1.186 0.05128-1.7656 0.08008-0.57967 0.0288-1.1503 0.05838-1.7109 0.0918s-1.1117 0.06999-1.6524 0.10742c-0.54065 0.03744-1.0719 0.07633-1.5918 0.11719-1.0397 0.08171-2.0368 0.16992-2.9883 0.26172-0.95148 0.0918-1.8565 0.18806-2.7129 0.28516-0.8564 0.09709-1.6634 0.19537-2.418 0.29297-0.5455 0.07056-1.0303 0.13836-1.5195 0.20703-7.6854 5.0023-12.415 8.0407-18.184 11.762 0.13947 2.27e-4 0.25116-0.0053 0.39648-0.0039 0.33038 0.0032 0.67612 0.0114 1.0371 0.02148 0.361 0.01008 0.73682 0.02305 1.1289 0.04102s0.80096 0.03954 1.2246 0.06641c0.42365 0.02686 0.86266 0.05893 1.3184 0.0957 0.45569 0.03677 0.9278 0.07925 1.416 0.12695 0.48822 0.0477 0.99247 0.10051 1.5137 0.16016 0.5212 0.05965 1.0586 0.12661 1.6133 0.19922 0.55467 0.07261 1.1262 0.1517 1.7148 0.23828 0.58861 0.08658 1.1953 0.17968 1.8184 0.28125 0.62303 0.10156 1.262 0.21056 1.9199 0.32812 0.65792 0.11757 1.3341 0.24432 2.0274 0.37891 0.1378 0.02675 0.28466 0.05854 0.42382 0.08594z" fill="#7ccffb"/>
  <path transform="scale(.26458)" d="m403.52 33.863-18.213 15.266c0.56099 0.11042 1.1248 0.22146 1.709 0.34375 0.72912 0.15262 1.4768 0.31465 2.2422 0.48633 0.76543 0.17168 1.5493 0.35318 2.3516 0.54492 0.80222 0.19174 1.6234 0.3946 2.4629 0.60742s1.697 0.43501 2.5742 0.66992 1.774 0.48221 2.6894 0.74023 1.8506 0.5284 2.8047 0.81055 1.9266 0.57552 2.9199 0.88281c0.9933 0.30729 2.0061 0.62749 3.0391 0.96094 0.0895 0.02889 0.1799 0.05359 0.26953 0.08203l14.342-20.918c-0.0769-0.0059-0.15588-0.0092-0.23242-0.01563-0.73333-0.06152-1.4619-0.11765-2.1856-0.16797-0.72362-0.05032-1.4412-0.09506-2.1543-0.13477-0.71307-0.03971-1.4214-0.07381-2.123-0.10352-0.70165-0.0297-1.3966-0.05393-2.0859-0.07422s-1.3726-0.03735-2.0488-0.04883-1.3475-0.01821-2.0098-0.02148c-0.6623-0.0033-1.3174-0.0024-1.9648 2e-3 -0.64747 0.0043-1.2862 0.01208-1.918 0.02344-0.63181 0.01135-1.2558 0.0252-1.8711 0.04297-0.20202 0.0058-0.39743 0.01496-0.59766 0.02148z" fill="#53b4fb"/>
  <path transform="scale(.26458)" d="m403.52 33.863 17.875-14.984c-0.49067 0.16216-2.082 0.69141-2.082 0.69141 0 0-14.848 3.5177-23.324 9.1836-2.2028 1.4725-5.871 3.8732-10.051 6.5938 0.4892-0.06867 0.97403-0.13647 1.5195-0.20703 0.75453-0.09759 1.5616-0.19588 2.418-0.29297 0.85642-0.09709 1.7614-0.19336 2.7129-0.28516 0.95148-0.09179 1.9486-0.18001 2.9883-0.26172 0.51984-0.04086 1.0512-0.07975 1.5918-0.11719 0.54067-0.03742 1.0918-0.074 1.6524-0.10742 0.56059-0.03341 1.1313-0.063 1.7109-0.0918 0.57968-0.0288 1.1677-0.05649 1.7656-0.08008 0.40158-0.01584 0.81308-0.02766 1.2226-0.04102z" fill="#a3defc"/>
  <path transform="scale(.26458)" d="m422.71 34.34 14.162-20.656c-7.8222 2.6573-13.29 4.4721-15.479 5.1953l-17.875 14.984c0.20023-0.0065 0.39564-0.01565 0.59766-0.02148 0.61528-0.01776 1.2393-0.0316 1.8711-0.04297 0.63179-0.01134 1.2705-0.01909 1.918-0.02344 0.64749-0.0043 1.3026-0.0052 1.9648-2e-3 0.6623 0.0033 1.3335 0.01003 2.0098 0.02148 0.67629 0.01149 1.3595 0.02853 2.0488 0.04883 0.6894 0.0203 1.3843 0.04451 2.0859 0.07422 0.70164 0.02971 1.41 0.06381 2.123 0.10352 0.71306 0.03971 1.4307 0.08445 2.1543 0.13477 0.72365 0.05031 1.4522 0.10644 2.1856 0.16797 0.0765 0.0064 0.15547 0.0097 0.23242 0.01563z" fill="#8bd5fc"/>
  <path transform="scale(.26458)" d="m458.84 6.0059c-6.4918 2.3726-14.686 5.2044-21.967 7.6777l-14.162 20.656c0.29166 0.02244 0.58401 0.04427 0.88086 0.06055 0.37532 0.02056 0.75351 0.03617 1.1367 0.04687s0.7713 0.01644 1.1621 0.01758c0.39081 0.0011 0.78564-0.0017 1.1836-0.0098 0.39796-0.0081 0.79848-0.02002 1.2031-0.03711 0.40464-0.01708 0.81369-0.03873 1.2246-0.06445 0.41088-0.02574 0.82357-0.05578 1.2402-0.08984 0.4167-0.03405 0.83582-0.07315 1.2578-0.11523 0.42203-0.04209 0.84654-0.08691 1.2734-0.13672 0.42691-0.04981 0.85774-0.10489 1.2891-0.16211 0.43137-0.05722 0.8635-0.11731 1.2988-0.18164 0.4353-0.06432 0.87365-0.132 1.3125-0.20312 0.43885-0.07113 0.8784-0.14505 1.3203-0.22266 0.44195-0.07761 0.88553-0.15839 1.3301-0.24219 0.44456-0.08379 0.89114-0.17206 1.3379-0.26172 0.44671-0.08966 0.89335-0.18212 1.3418-0.27734 0.8969-0.19046 1.7981-0.3907 2.6992-0.60156 0.90109-0.21086 1.8034-0.43136 2.7051-0.66016 0.24774-0.06287 0.49459-0.13113 0.74218-0.19531z" fill="#6dbefd"/>
  <path transform="scale(.26458)" d="m458.84 6.0059-10.189 24.998c0.65353-0.1694 1.3073-0.33846 1.959-0.51562 0.89864-0.24428 1.7935-0.49466 2.6856-0.75195 0.89194-0.25729 1.7804-0.52122 2.6621-0.78906 0.88171-0.26784 1.7572-0.54048 2.625-0.81641 0.86784-0.27592 1.7278-0.55439 2.5781-0.83594 0.85037-0.28154 1.6903-0.56686 2.5195-0.85156 0.82921-0.2847 1.6486-0.57008 2.4531-0.85547 0.80448-0.28539 1.5949-0.5699 2.3711-0.85352 0.77614-0.28361 1.537-0.56633 2.2812-0.8457 0.7442-0.27938 1.471-0.55545 2.1797-0.82812 0.70864-0.27267 1.3989-0.54118 2.0684-0.80469 0.61785-0.24319 1.2134-0.48148 1.7949-0.71484 1.8788-7.999 3.2026-14.077 3.1504-15.127-0.10744-2.1622-1.2747-5.8124-5.7246-5.7402-1.4833 0.024065-3.3321 0.46157-5.627 1.5059-2.0193 0.91888-5.5483 2.277-9.7871 3.8262z" fill="#4eb0fb"/>
  <path transform="scale(.26458)" d="m437.96 57.225c-0.0372 5e-3 -0.0741 0.01062-0.11133 0.01563-0.50726 0.0682-1.0146 0.13167-1.5254 0.19141-0.51078 0.05973-1.0232 0.11518-1.5371 0.16602s-1.0301 0.09716-1.5469 0.13867c-0.5168 0.04151-1.0354 0.07958-1.5547 0.11133-0.51931 0.03175-1.0391 0.05852-1.5606 0.08008s-1.045 0.03791-1.5684 0.04883c-0.52331 0.01093-1.0475 0.01576-1.5723 0.01563-0.52481-1.38e-4 -1.0502-0.0059-1.5762-0.01758-0.52596-0.01163-1.0513-0.02917-1.5781-0.05273s-1.0548-0.05392-1.582-0.08984c-0.52728-0.03593-1.0546-0.07823-1.582-0.12695-0.52743-0.04873-1.0548-0.10406-1.582-0.16602-0.52723-0.06196-1.0534-0.12945-1.5801-0.20508-0.52671-0.07562-1.0542-0.15833-1.5801-0.24805s-1.0515-0.18676-1.5762-0.29102-1.0472-0.21672-1.5703-0.33594c-0.5231-0.11922-1.0452-0.24624-1.5664-0.38086s-1.0415-0.27532-1.5606-0.42578c-0.42909-0.12439-0.85746-0.25884-1.2852-0.39453l-14.32 20.891c10.669 3.7251 24.325 6.5212 33.641 6.2891z" fill="#0374f6"/>
  <path transform="scale(.26458)" d="m437.96 57.225-10.275 25.213c0.0477-0.0012 0.099-6.05e-4 0.14648-2e-3 13.955-0.39615 34.473-2.4196 38.295-17.48 1.0595-4.1753 2.7064-10.747 4.3848-17.494-0.23807 0.10835-0.46125 0.21412-0.70703 0.32422-0.61945 0.27749-1.2631 0.56151-1.9297 0.84766-0.66656 0.28615-1.3574 0.57584-2.0684 0.86719s-1.4426 0.58388-2.1953 0.87695-1.5247 0.58563-2.3164 0.87695c-0.79172 0.29133-1.6036 0.58108-2.4316 0.86719s-1.6735 0.56828-2.5352 0.8457c-0.86165 0.27742-1.7382 0.55114-2.6308 0.81641-0.89261 0.26527-1.7999 0.52184-2.7207 0.77148-0.92083 0.24964-1.8564 0.49211-2.8027 0.72266-0.47319 0.11527-0.94867 0.22804-1.4277 0.33789-0.47906 0.10985-0.9607 0.21632-1.4453 0.32031-0.4846 0.10399-0.97308 0.20503-1.4629 0.30273s-0.98188 0.19223-1.4766 0.2832c-0.49468 0.09098-0.99103 0.1779-1.4902 0.26172-0.4992 0.08382-1.0005 0.16401-1.5039 0.24024-0.46649 0.07063-0.93625 0.13741-1.4062 0.20117z" fill="#0056e9"/>
  <path transform="scale(.26458)" d="m385.3 49.129c-0.13916-0.02739-0.28602-0.05918-0.42382-0.08594-0.69329-0.13459-1.3694-0.26134-2.0274-0.37891-0.65791-0.11757-1.2969-0.22656-1.9199-0.32812-0.62303-0.10157-1.2298-0.19467-1.8184-0.28125-0.58861-0.08658-1.1602-0.16568-1.7148-0.23828-0.55467-0.0726-1.0921-0.13957-1.6133-0.19922-0.52121-0.05965-1.0255-0.11245-1.5137-0.16016-0.48821-0.0477-0.96032-0.09018-1.416-0.12695-0.4557-0.03677-0.89471-0.06884-1.3184-0.0957s-0.83252-0.04844-1.2246-0.06641c-0.39209-0.01796-0.76791-0.03093-1.1289-0.04102-0.36099-0.01008-0.70673-0.01827-1.0371-0.02148-0.14532-0.0014-0.25701 0.0041-0.39648 0.0039-3.1663 2.0423-9.9805 6.4551-9.9805 6.4551s-3.5953 2.7828 0.84766 6.1387c2.1489 1.6231 5.4601 2.6677 9.2871 4.0098z" fill="#52b5f9"/>
  <path transform="scale(.26458)" d="m385.3 49.129-17.398 14.584c4.0855 1.4327 8.7608 3.2053 13.297 6.4141 2.9188 2.0647 7.5085 4.1586 12.844 6.0215l14.32-20.891c-0.0896-0.02844-0.18004-0.05314-0.26953-0.08203-1.0329-0.33345-2.0458-0.65364-3.0391-0.96094-0.99329-0.30729-1.9658-0.60066-2.9199-0.88281s-1.8892-0.55252-2.8047-0.81055-1.8122-0.50532-2.6894-0.74023-1.7347-0.4571-2.5742-0.66992-1.6607-0.41568-2.4629-0.60742c-0.80223-0.19174-1.5861-0.37325-2.3516-0.54492-0.76544-0.17167-1.5131-0.3337-2.2422-0.48633-0.5842-0.12229-1.148-0.23333-1.709-0.34375z" fill="#1c98f8"/>
  <path transform="scale(.26458)" d="m448.65 31.004c-0.24759 0.06418-0.49444 0.13245-0.74218 0.19531-0.90168 0.2288-1.804 0.4493-2.7051 0.66016-0.90111 0.21086-1.8023 0.41111-2.6992 0.60156-0.44846 0.09522-0.89506 0.18768-1.3418 0.27734-0.44673 0.08966-0.89333 0.17793-1.3379 0.26172-0.44456 0.08379-0.88814 0.16458-1.3301 0.24219-0.44193 0.07761-0.88146 0.15153-1.3203 0.22266-0.43885 0.07112-0.87718 0.1388-1.3125 0.20312-0.43532 0.06433-0.86749 0.12442-1.2988 0.18164-0.43134 0.05722-0.86215 0.1123-1.2891 0.16211-0.4269 0.04981-0.85142 0.09463-1.2734 0.13672-0.42201 0.04209-0.84113 0.08117-1.2578 0.11523-0.41668 0.03406-0.82934 0.06412-1.2402 0.08984-0.41089 0.02573-0.81996 0.04737-1.2246 0.06445s-0.80517 0.02898-1.2031 0.03711c-0.39795 0.0081-0.79278 0.0109-1.1836 0.0098s-0.7789-0.0069-1.1621-0.01758c-0.38322-0.0107-0.76155-0.0263-1.1367-0.04687-0.29685-0.01628-0.58919-0.03811-0.88086-0.06055l-14.342 20.918c0.4277 0.1357 0.85607 0.27014 1.2852 0.39453 0.51902 0.15046 1.0393 0.29116 1.5606 0.42578s1.0433 0.26164 1.5664 0.38086c0.52311 0.11922 1.0457 0.23168 1.5703 0.33594s1.0503 0.20129 1.5762 0.29102c0.52584 0.08972 1.0534 0.17242 1.5801 0.24805 0.5267 0.07562 1.0528 0.14312 1.5801 0.20508 0.52724 0.06196 1.0546 0.11729 1.582 0.16602 0.52742 0.04873 1.0548 0.09103 1.582 0.12695 0.52727 0.03593 1.0552 0.06628 1.582 0.08984s1.0522 0.0411 1.5781 0.05273c0.52597 0.01163 1.0514 0.01744 1.5762 0.01758 0.52478 1.35e-4 1.049-0.0047 1.5723-0.01563 0.52331-0.01092 1.0469-0.02727 1.5684-0.04883 0.52148-0.02155 1.0412-0.04833 1.5606-0.08008s1.0379-0.06981 1.5547-0.11133c0.51681-0.04151 1.0329-0.08783 1.5469-0.13867 0.51396-0.05084 1.0263-0.10628 1.5371-0.16602 0.51077-0.05973 1.0181-0.12321 1.5254-0.19141 0.0372-5e-3 0.0741-0.01058 0.11133-0.01563z" fill="#1c98f8"/>
  <path transform="scale(.26458)" d="m448.65 31.004-10.686 26.221c0.47-0.06376 0.93976-0.13054 1.4062-0.20117 0.5034-0.07622 1.0047-0.15642 1.5039-0.24024 0.49921-0.08382 0.99556-0.17074 1.4902-0.26172 0.49468-0.09097 0.98675-0.1855 1.4766-0.2832s0.97829-0.19874 1.4629-0.30273c0.48461-0.10399 0.96625-0.21046 1.4453-0.32031 0.47907-0.10985 0.95455-0.22262 1.4277-0.33789 0.94637-0.23055 1.8819-0.47301 2.8027-0.72266 0.92084-0.24964 1.8281-0.50622 2.7207-0.77148 0.8926-0.26527 1.7692-0.53898 2.6308-0.81641 0.86168-0.27742 1.7071-0.55959 2.5352-0.8457s1.6399-0.57586 2.4316-0.86719c0.79172-0.29132 1.5637-0.58388 2.3164-0.87695s1.4843-0.58561 2.1953-0.87695 1.4018-0.58104 2.0684-0.86719c0.66656-0.28615 1.3102-0.57017 1.9297-0.84766 0.24578-0.1101 0.46896-0.21587 0.70703-0.32422 2.1709-8.7274 4.4626-18.044 6.3125-25.92-0.58153 0.23336-1.1771 0.47166-1.7949 0.71484-0.66947 0.2635-1.3597 0.53202-2.0684 0.80469s-1.4355 0.54875-2.1797 0.82812-1.5051 0.56209-2.2812 0.8457-1.5666 0.56813-2.3711 0.85352c-0.80451 0.28539-1.6239 0.57077-2.4531 0.85547-0.82922 0.2847-1.6692 0.57002-2.5195 0.85156s-1.7103 0.56001-2.5781 0.83594c-0.8678 0.27592-1.7433 0.54857-2.625 0.81641-0.88168 0.26784-1.7701 0.53177-2.6621 0.78906-0.89199 0.25729-1.7869 0.50768-2.6856 0.75195-0.65173 0.17716-1.3055 0.34622-1.959 0.51562z" fill="#147ef8"/>
  <path transform="scale(.26458)" d="m403.52 33.863c-0.40958 0.01336-0.82107 0.02518-1.2226 0.04102-0.5979 0.02358-1.186 0.05128-1.7656 0.08008-0.57967 0.0288-1.1503 0.05838-1.7109 0.0918s-1.1117 0.06999-1.6524 0.10742c-0.54065 0.03744-1.0719 0.07633-1.5918 0.11719-1.0397 0.08171-2.0368 0.16992-2.9883 0.26172-0.95148 0.0918-1.8565 0.18806-2.7129 0.28516-0.8564 0.09709-1.6634 0.19537-2.418 0.29297-0.5455 0.07056-1.0303 0.13836-1.5195 0.20703-7.6854 5.0023-12.415 8.0407-18.184 11.762 0.13947 2.27e-4 0.25116-0.0053 0.39648-0.0039 0.33038 0.0032 0.67612 0.0114 1.0371 0.02148 0.361 0.01008 0.73682 0.02305 1.1289 0.04102s0.80096 0.03954 1.2246 0.06641c0.42365 0.02686 0.86266 0.05893 1.3184 0.0957 0.45569 0.03677 0.9278 0.07925 1.416 0.12695 0.48822 0.0477 0.99247 0.10051 1.5137 0.16016 0.5212 0.05965 1.0586 0.12661 1.6133 0.19922 0.55467 0.07261 1.1262 0.1517 1.7148 0.23828 0.58861 0.08658 1.1953 0.17968 1.8184 0.28125 0.62303 0.10156 1.262 0.21056 1.9199 0.32812 0.65792 0.11757 1.3341 0.24432 2.0274 0.37891 0.1378 0.02675 0.28466 0.05854 0.42382 0.08594z" fill="#7ccffb"/>
  <path transform="scale(.26458)" d="m403.52 33.863-18.213 15.266c0.56099 0.11042 1.1248 0.22146 1.709 0.34375 0.72912 0.15262 1.4768 0.31465 2.2422 0.48633 0.76543 0.17168 1.5493 0.35318 2.3516 0.54492 0.80222 0.19174 1.6234 0.3946 2.4629 0.60742s1.697 0.43501 2.5742 0.66992 1.774 0.48221 2.6894 0.74023 1.8506 0.5284 2.8047 0.81055 1.9266 0.57552 2.9199 0.88281c0.9933 0.30729 2.0061 0.62749 3.0391 0.96094 0.0895 0.02889 0.1799 0.05359 0.26953 0.08203l14.342-20.918c-0.0769-0.0059-0.15588-0.0092-0.23242-0.01563-0.73333-0.06152-1.4619-0.11765-2.1856-0.16797-0.72362-0.05032-1.4412-0.09506-2.1543-0.13477-0.71307-0.03971-1.4214-0.07381-2.123-0.10352-0.70165-0.0297-1.3966-0.05393-2.0859-0.07422s-1.3726-0.03735-2.0488-0.04883-1.3475-0.01821-2.0098-0.02148c-0.6623-0.0033-1.3174-0.0024-1.9648 2e-3 -0.64747 0.0043-1.2862 0.01208-1.918 0.02344-0.63181 0.01135-1.2558 0.0252-1.8711 0.04297-0.20202 0.0058-0.39743 0.01496-0.59766 0.02148z" fill="#53b4fb"/>
  <path transform="scale(.26458)" d="m403.52 33.863 17.875-14.984c-0.49067 0.16216-2.082 0.69141-2.082 0.69141 0 0-14.848 3.5177-23.324 9.1836-2.2028 1.4725-5.871 3.8732-10.051 6.5938 0.4892-0.06867 0.97403-0.13647 1.5195-0.20703 0.75453-0.09759 1.5616-0.19588 2.418-0.29297 0.85642-0.09709 1.7614-0.19336 2.7129-0.28516 0.95148-0.09179 1.9486-0.18001 2.9883-0.26172 0.51984-0.04086 1.0512-0.07975 1.5918-0.11719 0.54067-0.03742 1.0918-0.074 1.6524-0.10742 0.56059-0.03341 1.1313-0.063 1.7109-0.0918 0.57968-0.0288 1.1677-0.05649 1.7656-0.08008 0.40158-0.01584 0.81308-0.02766 1.2226-0.04102z" fill="#a3defc"/>
  <path transform="scale(.26458)" d="m422.71 34.34 14.162-20.656c-7.8222 2.6573-13.29 4.4721-15.479 5.1953l-17.875 14.984c0.20023-0.0065 0.39564-0.01565 0.59766-0.02148 0.61528-0.01776 1.2393-0.0316 1.8711-0.04297 0.63179-0.01134 1.2705-0.01909 1.918-0.02344 0.64749-0.0043 1.3026-0.0052 1.9648-2e-3 0.6623 0.0033 1.3335 0.01003 2.0098 0.02148 0.67629 0.01149 1.3595 0.02853 2.0488 0.04883 0.6894 0.0203 1.3843 0.04451 2.0859 0.07422 0.70164 0.02971 1.41 0.06381 2.123 0.10352 0.71306 0.03971 1.4307 0.08445 2.1543 0.13477 0.72365 0.05031 1.4522 0.10644 2.1856 0.16797 0.0765 0.0064 0.15547 0.0097 0.23242 0.01563z" fill="#8bd5fc"/>
  <path transform="scale(.26458)" d="m458.84 6.0059c-6.4918 2.3726-14.686 5.2044-21.967 7.6777l-14.162 20.656c0.29166 0.02244 0.58401 0.04427 0.88086 0.06055 0.37532 0.02056 0.75351 0.03617 1.1367 0.04687s0.7713 0.01644 1.1621 0.01758c0.39081 0.0011 0.78564-0.0017 1.1836-0.0098 0.39796-0.0081 0.79848-0.02002 1.2031-0.03711 0.40464-0.01708 0.81369-0.03873 1.2246-0.06445 0.41088-0.02574 0.82357-0.05578 1.2402-0.08984 0.4167-0.03405 0.83582-0.07315 1.2578-0.11523 0.42203-0.04209 0.84654-0.08691 1.2734-0.13672 0.42691-0.04981 0.85774-0.10489 1.2891-0.16211 0.43137-0.05722 0.8635-0.11731 1.2988-0.18164 0.4353-0.06432 0.87365-0.132 1.3125-0.20312 0.43885-0.07113 0.8784-0.14505 1.3203-0.22266 0.44195-0.07761 0.88553-0.15839 1.3301-0.24219 0.44456-0.08379 0.89114-0.17206 1.3379-0.26172 0.44671-0.08966 0.89335-0.18212 1.3418-0.27734 0.8969-0.19046 1.7981-0.3907 2.6992-0.60156 0.90109-0.21086 1.8034-0.43136 2.7051-0.66016 0.24774-0.06287 0.49459-0.13113 0.74218-0.19531z" fill="#6dbefd"/>
  <path transform="scale(.26458)" d="m458.84 6.0059-10.189 24.998c0.65353-0.1694 1.3073-0.33846 1.959-0.51562 0.89864-0.24428 1.7935-0.49466 2.6856-0.75195 0.89194-0.25729 1.7804-0.52122 2.6621-0.78906 0.88171-0.26784 1.7572-0.54048 2.625-0.81641 0.86784-0.27592 1.7278-0.55439 2.5781-0.83594 0.85037-0.28154 1.6903-0.56686 2.5195-0.85156 0.82921-0.2847 1.6486-0.57008 2.4531-0.85547 0.80448-0.28539 1.5949-0.5699 2.3711-0.85352 0.77614-0.28361 1.537-0.56633 2.2812-0.8457 0.7442-0.27938 1.471-0.55545 2.1797-0.82812 0.70864-0.27267 1.3989-0.54118 2.0684-0.80469 0.61785-0.24319 1.2134-0.48148 1.7949-0.71484 1.8788-7.999 3.2026-14.077 3.1504-15.127-0.10744-2.1622-1.2747-5.8124-5.7246-5.7402-1.4833 0.024065-3.3321 0.46157-5.627 1.5059-2.0193 0.91888-5.5483 2.277-9.7871 3.8262z" fill="#4eb0fb"/>
 </g>
</svg>
