<?xml version="1.0" encoding="UTF-8"?>
<svg id="Iterm" width="64" height="64" enable-background="new 0 0 1024 1024" image-rendering="optimizeSpeed" version="1.1" viewBox="0 0 64 64" xmlns="http://www.w3.org/2000/svg" xmlns:cc="http://creativecommons.org/ns#" xmlns:dc="http://purl.org/dc/elements/1.1/" xmlns:rdf="http://www.w3.org/1999/02/22-rdf-syntax-ns#" xmlns:xlink="http://www.w3.org/1999/xlink">
 <metadata>
  <rdf:RDF>
   <cc:Work rdf:about="">
    <dc:format>image/svg+xml</dc:format>
    <dc:type rdf:resource="http://purl.org/dc/dcmitype/StillImage"/>
   </cc:Work>
  </rdf:RDF>
 </metadata>
 <defs>
  <linearGradient id="linearGradient2426" x1="-67.046" x2="-31.38" y1="41.321" y2="8.5332" gradientUnits="userSpaceOnUse">
   <stop stop-color="#53f2bf" offset="0"/>
   <stop stop-color="#2db1b2" offset="1"/>
  </linearGradient>
  <linearGradient id="linearGradient16219" x1="-37.682" x2="-27.077" y1="12.516" y2="19.214" gradientUnits="userSpaceOnUse">
   <stop stop-color="#0f928a" offset="0"/>
   <stop stop-color="#a1e3e3" offset="1"/>
  </linearGradient>
  <linearGradient id="linearGradient48930" x1="-39.235" x2="-3.5677" y1="52.39" y2="19.604" gradientUnits="userSpaceOnUse">
   <stop stop-color="#28b2ab" offset="0"/>
   <stop stop-color="#6edafc" offset="1"/>
  </linearGradient>
  <linearGradient id="linearGradient61932" x1="-33.317" x2="-43.181" y1="49.086" y2="41.819" gradientUnits="userSpaceOnUse">
   <stop stop-color="#0e8e8c" offset="0"/>
   <stop stop-color="#a4e7e3" offset="1"/>
  </linearGradient>
 </defs>
 <mask>
  <g id="g">
   <path d="m969.75 392.05c-1.1-4.35-2.35-9-3.65-13.6-1-3.4-2-6.85-3.15-10.5-1.6-5.15-3.4-10.5-5.3-15.85-6.45-18.25-14.15-36.05-23.15-53.65-3.8-7.4-7.95-14.95-12.3-22.4-20.3-34.5-45.8-67.2-76.35-97.75-72.6-72.6-157.15-116.65-253.65-132.05-16.25-2.6-32.8-4.4-50.05-5.35-9.7-0.55-19.85-0.85-30.1-0.85-9.35 0-18.6 0.25-27.9 0.75-118.35 6.1-220.3 51.95-305.85 137.5q-138.25 138.25-138.25 333.75c0 130.35 46.1 241.65 138.25 333.8 56.7 56.65 120.55 95.9 191.1 117.55 36.75 11.25 74.8 17.85 114.75 19.95h0.4c8.5 0.45 16.6 0.7 24.5 0.7h3c10.3 0 20.5-0.3 30.1-0.8 2.5-0.15 4.75-0.3 6.95-0.45 20.2-1.45 39.9-4.05 58.7-7.7 7.95-1.55 15.8-3.3 23.4-5.15 80.8-20.3 152.15-61.6 214.65-124.1 48.6-48.6 84.4-102.5 107.35-161.8 18.45-47.65 28.65-98.8 30.55-153.5 0.2-6.05 0.3-12.25 0.3-18.5v-3c-0.2-40.65-4.95-79.5-14.3-117z" fill="#fff"/>
  </g>
 </mask>
 <g transform="matrix(.97672 0 0 .97672 66.485 2.2469)">
  <path d="m-30.261 9.7971 5.4497 9.7148-6.2717 10.875-8.4161-14.704 2.8923-8.4035 5.2264 1.2539z" fill="url(#linearGradient16219)"/>
  <path d="m-30.261 9.7971s-4.1937-3.0728-6.262 0.66791c-2.0683 3.7407-17.815 30.856-17.815 30.856h-12.709l17.789-30.811s2.4101-5.4927 8.6036-5.4927c3.4342 0 6.4803 0.00403 10.393 4.7804z" fill="url(#linearGradient2426)"/>
  <path d="m-40.353 51.128-5.4497-9.7148 6.2717-10.875 8.4161 14.704-2.8923 8.4035-5.2264-1.2539z" fill="url(#linearGradient61932)"/>
  <path d="m-40.353 51.128s4.1937 3.0728 6.262-0.66791c2.0683-3.7407 17.815-30.856 17.815-30.856h12.709l-17.789 30.811s-2.4101 5.4927-8.6036 5.4927c-3.4342 0-6.4803-4e-3 -10.393-4.7804z" fill="url(#linearGradient48930)"/>
 </g>
</svg>
