<?xml version="1.0" encoding="UTF-8"?>
<svg width="64" height="64" version="1.1" xmlns="http://www.w3.org/2000/svg" xmlns:cc="http://creativecommons.org/ns#" xmlns:dc="http://purl.org/dc/elements/1.1/" xmlns:rdf="http://www.w3.org/1999/02/22-rdf-syntax-ns#" xmlns:xlink="http://www.w3.org/1999/xlink">
 <defs>
  <linearGradient id="linearGradient1420" x1="-86.049" x2="-35.818" y1="-44.457" y2="-44.457" gradientUnits="userSpaceOnUse">
   <stop stop-color="#e604cf" offset="0"/>
   <stop stop-color="#5905e8" offset="1"/>
  </linearGradient>
  <linearGradient id="linearGradient14016" x1="-86.049" x2="-35.818" y1="-14.515" y2="-14.515" gradientUnits="userSpaceOnUse">
   <stop stop-color="#4518f6" offset="0"/>
   <stop stop-color="#15e6f2" offset="1"/>
  </linearGradient>
 </defs>
 <metadata>
  <rdf:RDF>
   <cc:Work rdf:about="">
    <dc:format>image/svg+xml</dc:format>
    <dc:type rdf:resource="http://purl.org/dc/dcmitype/StillImage"/>
   </cc:Work>
  </rdf:RDF>
 </metadata>
 <g transform="translate(92.934 61.486)" fill-rule="evenodd" stroke-linecap="round" stroke-linejoin="round" stroke-width=".20802">
  <path d="m-74.172-60.785v6.0039h-5.7168v5.873h-6.1602v8.9004h6.1602v5.873h5.7168v6.0039h8.9004v-11.877h29.453v-8.9004h-29.453v-11.877zm3.0508 3.1465h3v3h-3zm-5.9238 5.9004h3v3h-3zm5.9238 0h3v3h-3zm-11.803 5.8984h3v3h-3zm5.873 0h3v3h-3zm5.873 0h3v3h-3zm5.873 0h3v3h-3zm5.873 0h3v3h-3zm5.873 0h3v3h-3zm5.873 0h3v3h-3zm5.875 0h3v3h-3zm-35.234 5.8984h3v3h-3zm5.9238 0h3v3h-3zm0 5.8984h3v3h-3z" fill="url(#linearGradient1420)" style="paint-order:stroke fill markers"/>
  <path d="m-47.695 1.8125v-6.0039h5.7168v-5.873h6.1602v-8.9004h-6.1602v-5.873h-5.7168v-6.0039h-8.9004v11.877h-29.453v8.9004h29.453v11.877zm-3.0508-3.1465h-3v-3h3zm5.9238-5.9004h-3v-3h3zm-5.9238 0h-3v-3h3zm11.803-5.8984h-3v-3h3zm-5.873 0h-3v-3h3zm-5.873 0h-3v-3h3zm-5.873 0h-3v-3h3zm-5.873 0h-3v-3h3zm-5.873 0h-3v-3h3zm-5.873 0h-3v-3h3zm-5.875 0h-3v-3h3zm35.234-5.8984h-3v-3h3zm-5.9238 0h-3v-3h3zm0-5.8984h-3v-3h3z" fill="url(#linearGradient14016)" style="paint-order:stroke fill markers"/>
 </g>
</svg>
