<?xml version="1.0" encoding="UTF-8"?>
<svg width="64" height="64" version="1.1" viewBox="0 0 64 64" xmlns="http://www.w3.org/2000/svg" xmlns:xlink="http://www.w3.org/1999/xlink">
 <defs>
  <linearGradient id="linearGradient2982" x1="2.0977" x2="43.824" y1="22.485" y2="22.485" gradientUnits="userSpaceOnUse">
   <stop stop-color="#005cfd" offset="0"/>
   <stop stop-color="#01f1ce" offset="1"/>
  </linearGradient>
  <linearGradient id="linearGradient13054" x1="17.011" x2="47.583" y1="22.485" y2="22.485" gradientUnits="userSpaceOnUse">
   <stop stop-color="#ff00e6" offset="0"/>
   <stop stop-color="#00f7cf" offset="1"/>
  </linearGradient>
 </defs>
 <path d="m27.112 6.6489c-12.498 0.0088-23.124 9.1242-25.036 21.475 0.21608 0.69261 1.0642 0.66809 1.0642 0.66809h3.4424c0.84224 0 2.0678-1.5727 2.0678-1.5727 2.1748-8.4239 9.761-14.319 18.461-14.345 7.0975 3.06e-4 13.288 3.9326 16.587 9.6745h6.9026c-3.7621-9.2838-12.856-15.9-23.489-15.9zm24.15 28.547c-0.02369 2e-3 -0.03695 0.0044-0.03695 0.0044h-3.4557c-1.5258 0-2.2541 2.022-2.2541 2.022h-0.0059c-2.2732 8.0228-9.6465 13.902-18.398 13.903-8.4459-0.01352-15.883-5.5653-18.297-13.659-0.04631-0.08592-0.08518-0.17613-0.11085-0.27196-0.36088-1.3468-2.3486-1.8579-2.3486-1.8579h-4.3559c1.6723 12.594 12.408 22.005 25.112 22.014 12.477-5.8e-4 22.842-9.0169 24.951-20.888 0.0113-1.2549-0.63706-1.2807-0.80111-1.2667z" fill="url(#linearGradient2982)" fill-rule="evenodd" stroke-linecap="round" stroke-linejoin="round" stroke-width="1.7039" style="paint-order:stroke fill markers"/>
 <path d="m27.143 19.215a12.789 12.789 0 0 0-12.788 12.79 12.789 12.789 0 0 0 12.788 12.788 12.789 12.789 0 0 0 11.921-8.2491c0.19314-1.1709-0.9637-1.4116-0.9637-1.4116h-4.3248c-0.56395 0-1.3377 0.83067-1.3377 0.83067l-0.02956-0.0044a6.6099 6.6099 0 0 1-5.2649 2.6561 6.6099 6.6099 0 0 1-6.6099-6.6099 6.6099 6.6099 0 0 1 6.6099-6.6099 6.6099 6.6099 0 0 1 5.3979 2.8187c0.0388 0.01742 0.06647 0.04588 0.07834 0.09016 8.79e-4 0.0033 0.0035 0.0056 0.0044 0.0089a6.6099 6.6099 0 0 1 0.09607 0.17146c0.3121 0.33945 1.144 0.27492 1.144 0.27492h5.6462a12.789 12.789 0 0 0-0.0089-0.02808h19.247c3.3895 0 3.2503-2.8601 3.2503-2.8601v-2.6221c0-0.73073-0.80111-0.76416-0.80111-0.76416h-25.517v0.0015a12.789 12.789 0 0 0-8.5373-3.271z" fill="url(#linearGradient13054)" fill-rule="evenodd" style="paint-order:stroke fill markers"/>
</svg>
