<?xml version="1.0" encoding="UTF-8"?>
<svg width="64" height="64" version="1.1" xmlns="http://www.w3.org/2000/svg">
 <defs>
  <linearGradient id="linearGradient13611" x1="-229.79" x2="-189.78" y1="59.311" y2="41.666" gradientUnits="userSpaceOnUse">
   <stop stop-color="#b648fe" offset="0"/>
   <stop stop-color="#02a0fd" offset="1"/>
  </linearGradient>
  <linearGradient id="linearGradient22984" x1="-142.07" x2="-124.57" y1="-209.74" y2="-209.74" gradientUnits="userSpaceOnUse">
   <stop stop-color="#d737ee" offset="0"/>
   <stop stop-color="#b548fe" offset="1"/>
  </linearGradient>
  <linearGradient id="linearGradient46849" x1="-218.49" x2="-183.49" y1="-150.82" y2="-150.82" gradientUnits="userSpaceOnUse">
   <stop stop-color="#fde105" offset="0"/>
   <stop stop-color="#95f534" offset="1"/>
  </linearGradient>
  <linearGradient id="linearGradient64678" x1="-228.95" x2="-189.78" y1="23.361" y2="41.666" gradientUnits="userSpaceOnUse">
   <stop stop-color="#96f534" offset="0"/>
   <stop stop-color="#0a9cfd" offset="1"/>
  </linearGradient>
  <linearGradient id="linearGradient88405" x1="-200.99" x2="-218.49" y1="-159.57" y2="-159.57" gradientUnits="userSpaceOnUse">
   <stop stop-color="#fa533e" offset="0"/>
   <stop stop-color="#fde205" offset="1"/>
  </linearGradient>
  <linearGradient id="linearGradient108774" x1="-233.14" x2="-217.94" y1="-174.76" y2="-159.57" gradientUnits="userSpaceOnUse">
   <stop stop-color="#fbb104" offset="0"/>
   <stop stop-color="#fbe106" stop-opacity="0" offset="1"/>
  </linearGradient>
 </defs>
 <g transform="matrix(.54923 0 0 .54923 161.42 9.1159)" fill-rule="evenodd" stroke-linecap="round" stroke-linejoin="round">
  <g fill="#08b7ee">
   <path d="m-217.83 6.666a35 35 0 0 0-35 35 35 35 0 0 0 35 35 35 35 0 0 0 35-35 35 35 0 0 0-35-35zm0 13.893c0.28162 0 0.56315 0.01404 0.84375 0.04102 0.28059 0.02697 0.56038 0.06715 0.83789 0.12109 0.2775 0.05395 0.5538 0.1222 0.82617 0.20312 0.27236 0.08092 0.54147 0.17531 0.80664 0.2832 0.26516 0.1079 0.52534 0.22841 0.78125 0.36328s0.50736 0.28347 0.75195 0.44531 0.48362 0.33657 0.71485 0.52539c0.23122 0.18882 0.45412 0.39163 0.66992 0.60742l12.285 12.285c0.2158 0.21579 0.41665 0.4387 0.60547 0.66992s0.3655 0.47025 0.52735 0.71484c0.16184 0.24459 0.31044 0.49605 0.44531 0.75195 0.13487 0.25591 0.25538 0.51609 0.36328 0.78125s0.20228 0.53428 0.2832 0.80664c0.0809 0.27236 0.14918 0.54866 0.20313 0.82617 0.0539 0.27751 0.0941 0.5573 0.12109 0.83789 0.027 0.28059 0.041 0.56213 0.041 0.84375s-0.014 0.56316-0.041 0.84375-0.0671 0.56038-0.12109 0.83789c-0.054 0.27751-0.1222 0.55186-0.20313 0.82422-0.0809 0.27236-0.1753 0.54148-0.2832 0.80664s-0.22841 0.5273-0.36328 0.7832-0.28347 0.50541-0.44531 0.75c-0.16185 0.24459-0.33853 0.48362-0.52735 0.71484-0.18736 0.22944-0.38764 0.45176-0.60156 0.66602l-12.289 12.289c-0.2158 0.21579-0.4387 0.4186-0.66992 0.60742-0.23123 0.18882-0.47026 0.36355-0.71485 0.52539s-0.49604 0.31044-0.75195 0.44531-0.51609 0.25538-0.78125 0.36328c-0.26517 0.1079-0.53428 0.20228-0.80664 0.2832-0.27237 0.08092-0.54867 0.14918-0.82617 0.20312-0.27751 0.05395-0.5573 0.09412-0.83789 0.12109-0.2806 0.02697-0.56213 0.04102-0.84375 0.04102-0.28163 0-0.56316-0.01404-0.84375-0.04102-0.2806-0.02697-0.56039-0.06715-0.83789-0.12109-0.27751-0.05395-0.55186-0.1222-0.82422-0.20312-0.27237-0.08092-0.54148-0.17531-0.80664-0.2832-0.26517-0.1079-0.5273-0.22841-0.78321-0.36328-0.2559-0.13487-0.5054-0.28347-0.75-0.44531-0.24459-0.16184-0.48362-0.33657-0.71484-0.52539s-0.45608-0.39163-0.67188-0.60742l-18.516-18.516 18.521-18.521c0.21426-0.21393 0.43658-0.41615 0.66602-0.60352 0.23122-0.18882 0.47025-0.36355 0.71484-0.52539 0.2446-0.16184 0.4941-0.31044 0.75-0.44531 0.25591-0.13487 0.51804-0.25538 0.78321-0.36328 0.26516-0.1079 0.53427-0.20228 0.80664-0.2832 0.27236-0.08092 0.54671-0.14918 0.82422-0.20312 0.2775-0.05395 0.55729-0.09412 0.83789-0.12109 0.28059-0.02697 0.56212-0.04102 0.84375-0.04102z" stroke-width="6.2731" style="paint-order:stroke fill markers"/>
   <rect transform="rotate(-45)" x="-218.49" y="-159.57" width="35" height="17.5" ry="0" stroke-width="3.58" style="paint-order:stroke fill markers"/>
   <rect transform="matrix(.70711 .70711 .70711 -.70711 0 0)" x="-159.57" y="-218.49" width="35" height="17.5" ry="0" stroke-width="3.58" style="paint-order:stroke fill markers"/>
  </g>
  <g stroke-width="6.2731">
   <path d="m-252.83 41.666a35 35 0 0 0 35 35 35 35 0 0 0 35-35h-13.893c0 0.28162-0.014 0.56316-0.041 0.84375s-0.0671 0.56038-0.12109 0.83789c-0.054 0.27751-0.1222 0.55186-0.20313 0.82422-0.0809 0.27236-0.1753 0.54148-0.2832 0.80664s-0.22841 0.5273-0.36328 0.7832-0.28347 0.50541-0.44531 0.75c-0.16185 0.24459-0.33853 0.48362-0.52735 0.71484-0.18736 0.22944-0.38764 0.45176-0.60156 0.66602l-12.289 12.289c-0.2158 0.21579-0.4387 0.4186-0.66992 0.60742-0.23123 0.18882-0.47026 0.36355-0.71485 0.52539s-0.49604 0.31044-0.75195 0.44531-0.51609 0.25538-0.78125 0.36328c-0.26517 0.1079-0.53428 0.20228-0.80664 0.2832-0.27237 0.08092-0.54867 0.14918-0.82617 0.20312-0.27751 0.05395-0.5573 0.09412-0.83789 0.12109-0.2806 0.02697-0.56213 0.04102-0.84375 0.04102-0.28163 0-0.56316-0.01404-0.84375-0.04102-0.2806-0.02697-0.56039-0.06715-0.83789-0.12109-0.27751-0.05395-0.55186-0.1222-0.82422-0.20312-0.27237-0.08092-0.54148-0.17531-0.80664-0.2832-0.26517-0.1079-0.5273-0.22841-0.78321-0.36328-0.2559-0.13487-0.5054-0.28347-0.75-0.44531-0.24459-0.16184-0.48362-0.33657-0.71484-0.52539s-0.45608-0.39163-0.67188-0.60742l-18.516-18.516z" fill="url(#linearGradient13611)" style="paint-order:stroke fill markers"/>
   <path d="m-252.83 41.666h10.252l18.521-18.521c0.21426-0.21393 0.43658-0.41615 0.66602-0.60352 0.23122-0.18882 0.47025-0.36355 0.71484-0.52539 0.2446-0.16184 0.4941-0.31044 0.75-0.44531 0.25591-0.13487 0.51804-0.25538 0.78321-0.36328 0.26516-0.1079 0.53427-0.20228 0.80664-0.2832 0.27236-0.08092 0.54671-0.14918 0.82422-0.20312 0.2775-0.05395 0.55729-0.09412 0.83789-0.12109 0.28059-0.02697 0.56212-0.04102 0.84375-0.04102 0.28162 0 0.56315 0.01404 0.84375 0.04102 0.28059 0.02697 0.56038 0.06715 0.83789 0.12109 0.2775 0.05395 0.5538 0.1222 0.82617 0.20312 0.27236 0.08092 0.54147 0.17531 0.80664 0.2832 0.26516 0.1079 0.52534 0.22841 0.78125 0.36328s0.50736 0.28347 0.75195 0.44531 0.48362 0.33657 0.71485 0.52539c0.23122 0.18882 0.45412 0.39163 0.66992 0.60742l12.285 12.285c0.2158 0.21579 0.41665 0.4387 0.60547 0.66992s0.3655 0.47025 0.52735 0.71484c0.16184 0.24459 0.31044 0.49605 0.44531 0.75195 0.13487 0.25591 0.25538 0.51609 0.36328 0.78125s0.20228 0.53428 0.2832 0.80664c0.0809 0.27236 0.14918 0.54866 0.20313 0.82617 0.0539 0.27751 0.0941 0.5573 0.12109 0.83789 0.027 0.28059 0.041 0.56213 0.041 0.84375h13.893a35 35 0 0 0-35-35 35 35 0 0 0-35 35z" fill="url(#linearGradient64678)" style="paint-order:stroke fill markers"/>
  </g>
  <rect transform="matrix(.70711 .70711 .70711 -.70711 0 0)" x="-159.57" y="-218.49" width="35" height="17.5" ry="0" fill="url(#linearGradient22984)" stroke-width="3.58" style="paint-order:stroke fill markers"/>
  <rect transform="rotate(-45)" x="-235.99" y="-177.07" width="35" height="35" ry="8.8138" fill="url(#linearGradient88405)" stroke-width="5.0629" style="paint-order:stroke fill markers"/>
  <rect transform="rotate(-45)" x="-235.99" y="-177.07" width="35" height="35" ry="8.8138" fill="url(#linearGradient108774)" stroke-width="5.0629" style="paint-order:stroke fill markers"/>
  <rect transform="rotate(-45)" x="-218.49" y="-159.57" width="35" height="17.5" ry="0" fill="url(#linearGradient46849)" stroke-width="3.58" style="paint-order:stroke fill markers"/>
 </g>
</svg>
