<?xml version="1.0" encoding="UTF-8"?>
<svg width="64" height="64" version="1.1" xmlns="http://www.w3.org/2000/svg" xmlns:cc="http://creativecommons.org/ns#" xmlns:dc="http://purl.org/dc/elements/1.1/" xmlns:rdf="http://www.w3.org/1999/02/22-rdf-syntax-ns#" xmlns:xlink="http://www.w3.org/1999/xlink">
 <metadata>
  <rdf:RDF>
   <cc:Work rdf:about="">
    <dc:format>image/svg+xml</dc:format>
    <dc:type rdf:resource="http://purl.org/dc/dcmitype/StillImage"/>
   </cc:Work>
  </rdf:RDF>
 </metadata>
 <defs>
  <linearGradient id="b" x1="399.57" x2="399.57" y1="545.8" y2="517.8" gradientTransform="matrix(2.1429 0 0 2.1429 -826.36 -1107.5)" gradientUnits="userSpaceOnUse">
   <stop stop-color="#3889e9" offset="0"/>
   <stop stop-color="#5ea5fb" offset="1"/>
  </linearGradient>
  <style type="text/css"/>
  <style type="text/css"/>
  <style type="text/css"/>
  <linearGradient id="linearGradient78655" x1="17" x2="17" y1="7.4423" y2="48.575" gradientTransform="matrix(1.0371 0 0 1.0455 13.333 1.7386)" gradientUnits="userSpaceOnUse">
   <stop stop-color="#00ffdb" offset="0"/>
   <stop stop-color="#2680df" offset=".5"/>
   <stop stop-color="#5c4ac6" offset="1"/>
  </linearGradient>
 </defs>
 <circle cx="32.02" cy="32.044" r="0" fill="url(#b)" stroke-width="1.5715"/>
 <path d="m10.879 9c3.32 1.7752 6.0327 4.0393 8.1973 6.6191 4.363 5.2 6.5262 11.568 7.5234 17.674 1.5022 9.1969 0.38555 17.94-0.25976 21.707h11.32c-0.64531-3.767-1.762-12.51-0.25976-21.707 0.99726-6.1054 3.1604-12.474 7.5234-17.674 2.1646-2.5798 4.8773-4.8439 8.1973-6.6191h-42.242zm-6.7695 1.4863c-0.068081 0.20856-0.10938 0.42972-0.10938 0.66211v7.332c3.2714 1.1068 5.9833 2.7983 8.1621 4.8848 3.9857 3.8168 6.199 8.8113 7.4297 13.682 1.9585 7.7505 1.4906 15.157 1.2109 17.953h1.4609c0.47745-2.4775 1.9654-11.41 0.38867-21.062-0.91961-5.63-2.8968-11.284-6.6406-15.746-2.8096-3.3485-6.6034-6.0855-11.902-7.7051zm55.781 0c-5.2989 1.6196-9.0928 4.3566-11.902 7.7051-3.7439 4.462-5.721 10.116-6.6406 15.746-1.5767 9.653-0.088777 18.585 0.38867 21.062h1.4609c-0.27965-2.7964-0.74754-10.203 1.2109-17.953 1.2307-4.8704 3.444-9.8649 7.4297-13.682 2.1788-2.0865 4.8907-3.778 8.1621-4.8848v-7.332c0-0.23239-0.041294-0.45354-0.10938-0.66211zm-55.891 12.236v8.7207c1.3046 0.59992 2.4848 1.3296 3.5254 2.1738 3.1561 2.5607 5.0871 6.0005 6.2871 9.3633 1.7438 4.8865 1.9974 9.7221 2.0078 12.02h0.95508c0.20866-1.8639 0.87595-9.3111-1.0605-16.975-1.1094-4.3903-3.0651-8.6523-6.3203-11.77-1.4907-1.4275-3.2588-2.6376-5.3945-3.5332zm56 0c-2.1357 0.89558-3.9038 2.1057-5.3945 3.5332-3.2552 3.1172-5.2109 7.3793-6.3203 11.77-1.9365 7.6635-1.2692 15.111-1.0605 16.975h0.95508c0.010372-2.2974 0.26401-7.133 2.0078-12.02 1.2001-3.3628 3.131-6.8026 6.2871-9.3633 1.0406-0.84424 2.2208-1.5739 3.5254-2.1738v-8.7207zm-56 13.264v16.865c0 1.1899 0.95854 2.1484 2.1484 2.1484h5.668c-0.018693-2.0305-0.25192-6.4157-1.7715-10.674-1.0326-2.8936-2.6311-5.6499-5.0391-7.6035-0.3192-0.25898-0.65609-0.5037-1.0059-0.73633zm56 0c-0.34976 0.23263-0.68666 0.47735-1.0059 0.73633-2.4079 1.9537-4.0065 4.7099-5.0391 7.6035-1.5196 4.2582-1.7528 8.6434-1.7715 10.674h5.668c1.1899 0 2.1484-0.95855 2.1484-2.1484v-16.865z" fill="url(#linearGradient78655)" stroke-linecap="round" stroke-linejoin="round" style="paint-order:stroke fill markers"/>
</svg>
