<?xml version="1.0" encoding="UTF-8"?>
<svg id="Apps-Visual-Studio-Code" width="64" height="64" enable-background="new 0 0 1024 1024" image-rendering="optimizeSpeed" version="1.1" viewBox="0 0 64 64" xmlns="http://www.w3.org/2000/svg" xmlns:cc="http://creativecommons.org/ns#" xmlns:dc="http://purl.org/dc/elements/1.1/" xmlns:rdf="http://www.w3.org/1999/02/22-rdf-syntax-ns#" xmlns:xlink="http://www.w3.org/1999/xlink">
 <metadata>
  <rdf:RDF>
   <cc:Work rdf:about="">
    <dc:format>image/svg+xml</dc:format>
    <dc:type rdf:resource="http://purl.org/dc/dcmitype/StillImage"/>
   </cc:Work>
  </rdf:RDF>
 </metadata>
 <defs>
  <linearGradient id="linearGradient12987">
   <stop stop-color="#24a0fe" offset="0"/>
   <stop stop-color="#5200f0" offset="1"/>
  </linearGradient>
  <linearGradient id="linearGradient2173">
   <stop stop-color="#f82eb0" offset="0"/>
   <stop stop-color="#6e07e7" offset="1"/>
  </linearGradient>
  <style type="text/css"/>
  <style type="text/css"/>
  <linearGradient id="linearGradient12817" x1="95.52" x2="117.96" y1="10.865" y2="33.302" gradientTransform="translate(37.74)" gradientUnits="userSpaceOnUse" xlink:href="#linearGradient2173"/>
  <linearGradient id="linearGradient23314" x1="138.91" x2="161.34" y1="11.241" y2="33.672" gradientTransform="rotate(180 156.46 31.234)" gradientUnits="userSpaceOnUse" xlink:href="#linearGradient12987"/>
 </defs>
 <g transform="matrix(1.3094 0 0 1.3094 -168.94 -8.899)" fill-rule="evenodd" stroke-linecap="round" stroke-linejoin="round">
  <g fill="url(#linearGradient23314)">
   <path d="m147.65 53.31c-8e-3 -0.09696-0.0161-0.19397-0.0234-0.29102 1.7e-4 -15.279 12.387-27.666 27.666-27.666 0.10161 0.0066 0.20317 0.01376 0.30469 0.02148v-4.1094c-0.0338-0.44214-0.32685-1.5352-2.3398-2.082-17.159 1.0173-30.881 14.792-31.811 31.975 0.027 1.8918 2.3086 2.1523 2.3086 2.1523z" stroke-width=".11411" style="paint-order:stroke fill markers"/>
   <path d="m160.34 53.31c-9e-3 -0.09692-0.0179-0.19393-0.0254-0.29102 4e-5 -8.2756 6.7088-14.984 14.984-14.984 0.10164 0.0068 0.20321 0.01459 0.30469 0.02344v-6.4844c-0.10151-0.0072-0.20308-0.01374-0.30469-0.01953-11.854 2.59e-4 -21.464 9.6106-21.463 21.465 6e-3 0.09705 0.0137 0.19406 0.0215 0.29102z" stroke-width=".072242" style="paint-order:stroke fill markers"/>
   <path d="m166.16 53.273h3.2754c0.10633 0 0.21144-0.0025 0.31641-0.0078 0.10496-0.0053 0.20902-0.01299 0.3125-0.02344s0.20673-0.02358 0.30859-0.03906c0.10187-0.01548 0.20261-0.0343 0.30274-0.05469s0.19861-0.04319 0.29687-0.06836c0.0983-0.02516 0.1967-0.05221 0.29297-0.08203 0.0963-0.02982 0.19101-0.06136 0.28516-0.0957 0.0941-0.03434 0.18739-0.07063 0.27929-0.10938 0.0919-0.03874 0.18196-0.08003 0.27149-0.12305 0.0895-0.04302 0.17859-0.0876 0.26562-0.13477 0.087-0.04716 0.17341-0.09725 0.25782-0.14844 0.0844-0.05118 0.16639-0.10313 0.24804-0.1582 0.0817-0.05508 0.16146-0.11303 0.24024-0.17188 0.0788-0.05884 0.15665-0.11916 0.23242-0.18164 0.0758-0.06248 0.15002-0.12737 0.22266-0.19336 0.0726-0.06599 0.14351-0.13375 0.21289-0.20312 0.0694-0.06938 0.13713-0.14025 0.20312-0.21289 0.066-0.07264 0.13088-0.14688 0.19336-0.22266 0.0625-0.07577 0.1228-0.15364 0.18164-0.23242 0.0588-0.07878 0.11485-0.15858 0.16992-0.24024 0.0551-0.08166 0.10898-0.16364 0.16016-0.24805 0.0512-0.08441 0.10127-0.17078 0.14844-0.25781 0.0472-0.08703 0.0918-0.17609 0.13476-0.26562 0.043-0.08953 0.0843-0.17958 0.12305-0.27148 0.0387-0.09191 0.075-0.18514 0.10937-0.2793 0.0343-0.09415 0.0659-0.18889 0.0957-0.28516s0.0569-0.19471 0.082-0.29297c0.0252-0.09826 0.048-0.19675 0.0684-0.29688s0.0392-0.20087 0.0547-0.30274c0.0155-0.10187 0.0286-0.20511 0.0391-0.30859s0.0182-0.20754 0.0234-0.3125c5e-3 -0.10497 8e-3 -0.21008 8e-3 -0.31641v-3.2324a9.1493 9.1493 0 0 0-0.27734-0.03125 9.1493 9.1493 0 0 0-9.1484 9.1504 9.1493 9.1493 0 0 0 0.01 0.25391z" stroke-width=".030795" style="paint-order:stroke fill markers"/>
  </g>
  <g fill="url(#linearGradient12817)">
   <path d="m159.26 9.1582c8e-3 0.096963 0.0161 0.19397 0.0234 0.29102-1.7e-4 15.279-12.387 27.666-27.666 27.666-0.10161-0.0066-0.20317-0.01376-0.30469-0.02148v4.1094c0.0338 0.44214 0.32685 1.5352 2.3398 2.082 17.159-1.0173 30.881-14.792 31.811-31.975-0.027-1.8918-2.3086-2.1523-2.3086-2.1523z" stroke-width=".11411" style="paint-order:stroke fill markers"/>
   <path d="m146.57 9.1582c9e-3 0.09692 0.0179 0.19393 0.0254 0.29102-4e-5 8.2756-6.7088 14.984-14.984 14.984-0.10164-0.0068-0.20321-0.01459-0.30469-0.02344v6.4844c0.10151 0.0072 0.20308 0.01374 0.30469 0.01953 11.854-2.59e-4 21.464-9.6106 21.463-21.465-6e-3 -0.097053-0.0137-0.19406-0.0215-0.29102z" stroke-width=".072242" style="paint-order:stroke fill markers"/>
   <path d="m140.75 9.1953h-3.2754c-0.10633 0-0.21144 0.00253-0.31641 0.00781-0.10496 0.00529-0.20902 0.012991-0.3125 0.023437s-0.20673 0.023583-0.30859 0.039063c-0.10187 0.015479-0.20261 0.034302-0.30274 0.054687-0.10013 0.020386-0.19861 0.043194-0.29687 0.068359-0.0983 0.025165-0.1967 0.052213-0.29297 0.082031-0.0963 0.029818-0.19101 0.061359-0.28516 0.095703-0.0941 0.034345-0.18739 0.070631-0.27929 0.10938s-0.18196 0.08003-0.27149 0.12305c-0.0895 0.043017-0.17859 0.087603-0.26562 0.13477-0.087 0.047163-0.17341 0.097255-0.25782 0.14844-0.0844 0.05118-0.16639 0.10313-0.24804 0.1582-0.0817 0.05508-0.16146 0.11303-0.24024 0.17188-0.0788 0.05884-0.15665 0.11916-0.23242 0.18164-0.0758 0.06248-0.15002 0.12737-0.22266 0.19336-0.0726 0.06599-0.14351 0.13375-0.21289 0.20312-0.0694 0.06938-0.13713 0.14025-0.20312 0.21289-0.066 0.07264-0.13088 0.14688-0.19336 0.22266-0.0625 0.07577-0.1228 0.15364-0.18164 0.23242-0.0588 0.07878-0.11485 0.15858-0.16992 0.24024-0.0551 0.08166-0.10898 0.16364-0.16016 0.24805-0.0512 0.08441-0.10127 0.17078-0.14844 0.25781-0.0472 0.08703-0.0918 0.17609-0.13476 0.26562-0.043 0.08953-0.0843 0.17958-0.12305 0.27148-0.0387 0.09191-0.075 0.18514-0.10937 0.2793-0.0343 0.09415-0.0659 0.18889-0.0957 0.28516s-0.0569 0.19471-0.082 0.29297c-0.0252 0.09826-0.048 0.19675-0.0684 0.29688s-0.0392 0.20087-0.0547 0.30274c-0.0155 0.10187-0.0286 0.20511-0.0391 0.30859s-0.0182 0.20754-0.0234 0.3125c-5e-3 0.10497-8e-3 0.21008-8e-3 0.31641v3.2324a9.1493 9.1493 0 0 0 0.27734 0.03125 9.1493 9.1493 0 0 0 9.1484-9.1504 9.1493 9.1493 0 0 0-0.01-0.25391z" stroke-width=".030795" style="paint-order:stroke fill markers"/>
  </g>
  <path d="m166.7 20.229c-1.1336 0.29641-2.2421 0.653-3.3262 1.0605-3.4181 9.1666-10.684 16.451-19.84 19.893-0.39041 1.0472-0.73263 2.1177-1.0195 3.2109 2.7193-0.71071 5.3031-1.7523 7.7109-3.0762 2.7509-5.8833 7.5097-10.636 13.396-13.381 1.3259-2.4059 2.3649-4.9893 3.0781-7.707z" fill="#4200aa" stroke-width=".11411" style="paint-order:stroke fill markers"/>
 </g>
</svg>
