<?xml version="1.0" encoding="UTF-8"?>
<svg width="64px" height="64px" version="1.1" viewBox="0 0 64 64" xmlns="http://www.w3.org/2000/svg" xmlns:xlink="http://www.w3.org/1999/xlink">
 <path d="m53.087 49.037 10.913 0.67955-4.5348-6.52-11.463-1.4555z" fill="#e23a53"/>
 <path d="m53.087 49.037-5.0848-7.296-12.77 1.894 7.7643 8.4232z" fill="#f74a5d"/>
 <path d="m42.996 52.058-7.7643-8.4232-10.664-2.794 6.5616 8.7331z" fill="#f75756"/>
 <path d="m31.13 49.574-6.5616-8.7331-11.352-0.032136 7.951 9.8488z" fill="#f98075"/>
 <path d="m48.002 41.741 11.463 1.4555-0.06054-0.08724-5.1218-7.8194-12.388 0.70251z" fill="#713d9b"/>
 <path d="m48.002 41.741-6.1075-5.7486-11.946-0.87469-0.19176-0.009144 5.475 8.5265z" fill="#8b5eac"/>
 <path d="m35.232 43.635-5.475-8.5265-10.519-0.50737 5.3304 6.2399z" fill="#9571b6"/>
 <path d="m24.568 40.841-5.3304-6.2399-11.768-2.3118 5.7459 8.5196z" fill="#a386c1"/>
 <path d="m41.895 35.992 12.388-0.7025-5.1756-12.482-11.978 0.50277z" fill="#0886b5"/>
 <path d="m41.895 35.992-4.7652-12.682-11.695 2.2636 4.3228 9.5343 0.19176 0.0091z" fill="#0e9cd4"/>
 <path d="m29.757 35.108-4.3228-9.5343-10.355-1.2191 4.158 10.246z" fill="#01a3e5"/>
 <path d="m19.238 34.601-4.158-10.246-0.09588-0.011465-12.124-1.8573 4.6105 9.8029z" fill="#27b0e8"/>
 <path d="m37.129 23.311 11.978-0.50277-2.9688-9.9774-11.461 0.88158z" fill="#15a787"/>
 <path d="m37.129 23.311-2.4524-9.5986-11.554 2.1718 2.3111 9.6904z" fill="#1ab98b"/>
 <path d="m25.434 25.574-2.3111-9.6904-10.972-0.09641 2.9284 8.5678z" fill="#13be9f"/>
 <path d="m15.08 24.355-2.9284-8.5678-12.151-3.8454 2.8595 10.544 12.124 1.8573z" fill="#59c6ab"/>
 <path d="m53.087 49.037 10.913 0.67955-4.5348-6.52-11.463-1.4555z" fill="#e23a53"/>
 <path d="m53.087 49.037-5.0848-7.296-12.77 1.894 7.7643 8.4232z" fill="#f74a5d"/>
 <path d="m42.996 52.058-7.7643-8.4232-10.664-2.794 6.5616 8.7331z" fill="#f75756"/>
 <path d="m31.13 49.574-6.5616-8.7331-11.352-0.032136 7.951 9.8488z" fill="#f98075"/>
 <path d="m48.002 41.741 11.463 1.4555-0.06054-0.08724-5.1218-7.8194-12.388 0.70251z" fill="#713d9b"/>
 <path d="m48.002 41.741-6.1075-5.7486-11.946-0.87469-0.19176-0.009144 5.475 8.5265z" fill="#8b5eac"/>
 <path d="m35.232 43.635-5.475-8.5265-10.519-0.50737 5.3304 6.2399z" fill="#9571b6"/>
 <path d="m24.568 40.841-5.3304-6.2399-11.768-2.3118 5.7459 8.5196z" fill="#a386c1"/>
 <path d="m41.895 35.992 12.388-0.7025-5.1756-12.482-11.978 0.50277z" fill="#0886b5"/>
 <path d="m41.895 35.992-4.7652-12.682-11.695 2.2636 4.3228 9.5343 0.19176 0.0091z" fill="#0e9cd4"/>
 <path d="m29.757 35.108-4.3228-9.5343-10.355-1.2191 4.158 10.246z" fill="#01a3e5"/>
 <path d="m19.238 34.601-4.158-10.246-0.09588-0.011465-12.124-1.8573 4.6105 9.8029z" fill="#27b0e8"/>
 <path d="m37.129 23.311 11.978-0.50277-2.9688-9.9774-11.461 0.88158z" fill="#15a787"/>
 <path d="m37.129 23.311-2.4524-9.5986-11.554 2.1718 2.3111 9.6904z" fill="#1ab98b"/>
 <path d="m25.434 25.574-2.3111-9.6904-10.972-0.09641 2.9284 8.5678z" fill="#13be9f"/>
 <path d="m15.08 24.355-2.9284-8.5678-12.151-3.8454 2.8595 10.544 12.124 1.8573z" fill="#59c6ab"/>
</svg>
