<?xml version="1.0" encoding="UTF-8"?>
<svg width="64" height="64" version="1.1" xmlns="http://www.w3.org/2000/svg" xmlns:cc="http://creativecommons.org/ns#" xmlns:dc="http://purl.org/dc/elements/1.1/" xmlns:rdf="http://www.w3.org/1999/02/22-rdf-syntax-ns#">
 <defs>
  <linearGradient id="linearGradient30483" x1="31.504" x2="31.504" y1="25.318" y2="62.408" gradientTransform="translate(1.3352e-4,-12.731)" gradientUnits="userSpaceOnUse">
   <stop stop-color="#00c1b6" offset="0"/>
   <stop stop-color="#01f17c" offset="1"/>
  </linearGradient>
 </defs>
 <metadata>
  <rdf:RDF>
   <cc:Work rdf:about="">
    <dc:format>image/svg+xml</dc:format>
    <dc:type rdf:resource="http://purl.org/dc/dcmitype/StillImage"/>
   </cc:Work>
  </rdf:RDF>
 </metadata>
 <path d="m32.051 10.15c-17.31 0-24.283 1.9098-27.283 5.1621-2.9998 3.2523-2.8203 6.1133-2.8203 6.1133v14.479c0 1.5137 1.0504 3.954 3.4863 5.3809 2.436 1.4268 8.1484 1.0605 8.1484 1.0605h0.01758v-6.793c0-1.3711 1.1036-2.4746 2.4746-2.4746h31.982c1.3711 0 2.4746 1.1036 2.4746 2.4746v6.8672c1.0498 0.07384 5.0864 0.26999 7.9238-0.97266 3.2598-1.4277 3.5664-4.7812 3.5664-4.7812v-15.959s0.39048-0.88356-1.5137-4.1816c-1.9041-3.2981-7.8878-6.375-28.457-6.375zm20.771 8.709c1.5531 5.69e-4 2.8119 1.2594 2.8125 2.8125 5.1e-4 1.5538-1.2587 2.8139-2.8125 2.8145-1.5546 5.1e-4 -2.815-1.2599-2.8145-2.8145 5.69e-4 -1.5538 1.2606-2.813 2.8145-2.8125zm-34.826 19.119v8.3555c0 4.1638 3.3518 7.5156 7.5156 7.5156h12.977c4.1638 0 7.5156-3.3518 7.5156-7.5156v-8.3555h-4.6895v8.6211c0 1.4464-1.165 2.6094-2.6113 2.6094h-13.408c-1.4464 0-2.6094-1.163-2.6094-2.6094v-8.6211h-4.6895z" color="#000000" fill="url(#linearGradient30483)" stroke-width="9.3784" style="-inkscape-stroke:none"/>
</svg>
