<?xml version="1.0" encoding="UTF-8"?>
<svg id="SimpleNote" width="64" height="64" enable-background="new 0 0 1024 1024" image-rendering="optimizeSpeed" version="1.1" viewBox="0 0 64 64" xmlns="http://www.w3.org/2000/svg">
 <defs>
  <linearGradient id="linearGradient925" x1="32.791" x2="32.791" y1="54.857" y2="4.8769" gradientTransform="matrix(1.2057,0,0,1.2057,-7.5118,-4.0322)" gradientUnits="userSpaceOnUse">
   <stop stop-color="#f4441b" offset="0"/>
   <stop stop-color="#f0e86b" offset="1"/>
  </linearGradient>
  <linearGradient id="linearGradient933" x1="34.203" x2="34.203" y1="51.464" y2="7.1759" gradientTransform="matrix(1.2057 0 0 1.2057 -7.5118 -4.0322)" gradientUnits="userSpaceOnUse">
   <stop stop-color="#1f5971" offset="0"/>
   <stop stop-color="#65f6d7" offset="1"/>
  </linearGradient>
  <linearGradient id="b" x1="399.57" x2="399.57" y1="545.8" y2="517.8" gradientTransform="matrix(2.1429,0,0,2.1429,-826.36,-1107.5)" gradientUnits="userSpaceOnUse">
   <stop stop-color="#3889e9" offset="0"/>
   <stop stop-color="#5ea5fb" offset="1"/>
  </linearGradient>
 </defs>
 <path d="m48.58 1.8477s-0.53085 4.8252-5.7441 10.439a22.5 22.5 0 0 1 11.664 19.713 22.5 22.5 0 0 1-9.1504 18.041c-0.10612 0.31782-0.22389 0.63617-0.37305 0.95312-1.9781 4.2154-5.9581 6.8056-13.611 7.0176-5.9308 0.16417-10.251-2.8741-11.824-7.3047a22.5 22.5 0 0 1-10.041-18.707 22.5 22.5 0 0 1 12.076-19.879l-0.4082-0.68945 0.21289-2.543s4.7799 0.61145 13.188-1.0605c3.8386-0.77712 7.0648-2.0471 9.4668-3.2246-3.6737-1.6013-7.7476-2.498-12.01-2.498-16.555 0-30.002 13.425-30.002 30.004 0 16.555 13.423 30.002 30.002 30.002 16.555 0 30.002-13.423 30.002-30.002-0.047094-10.056-4.9456-18.911-12.482-24.375l-0.96484-5.8867z" fill="url(#linearGradient925)"/>
 <path d="m48.581 1.848s-5.5341 4.2626-14.036 5.9578c-8.407 1.672-13.188 1.0597-13.188 1.0597l-0.21194 2.5434 14.883 25.127s-6.3819-0.63584-10.22 0.84776c-4.0975 1.5778-7.6537 5.8168-6.8056 11.28 0.84776 5.5341 5.5341 9.5374 12.339 9.3492 7.6537-0.21196 11.633-2.8023 13.611-7.0176 1.6955-3.6266 0.42388-7.4417 0.42388-7.4417l-13.399-23.196s5.6989-3.2263 8.9252-6.1698c7.041-6.3819 7.6771-12.339 7.6771-12.339z" fill="url(#linearGradient933)" stroke-width="1.2057" p-id="737"/>
 <g transform="translate(-.045322 .10667)" stroke-width="1.5715">
  <circle cx="32.02" cy="32.044" r="30.001" fill-opacity="0"/>
  <circle cx="32.02" cy="32.044" r="0" fill="url(#b)"/>
 </g>
</svg>
