<?xml version="1.0" encoding="UTF-8"?>
<svg width="64" height="64" version="1.1" xmlns="http://www.w3.org/2000/svg" xmlns:cc="http://creativecommons.org/ns#" xmlns:dc="http://purl.org/dc/elements/1.1/" xmlns:rdf="http://www.w3.org/1999/02/22-rdf-syntax-ns#" xmlns:xlink="http://www.w3.org/1999/xlink">
 <metadata>
  <rdf:RDF>
   <cc:Work rdf:about="">
    <dc:format>image/svg+xml</dc:format>
    <dc:type rdf:resource="http://purl.org/dc/dcmitype/StillImage"/>
   </cc:Work>
  </rdf:RDF>
 </metadata>
 <defs>
  <linearGradient id="linearGradient1573" x1="-25.678" x2="-47.354" y1="18.738" y2="47.012" gradientTransform="translate(68.074,1.1782)" gradientUnits="userSpaceOnUse">
   <stop stop-color="#30f6f4" offset="0"/>
   <stop stop-color="#8b72fe" offset="1"/>
  </linearGradient>
  <radialGradient id="radialGradient16019" cx="22.113" cy="19.717" r="30" gradientTransform="matrix(1.4197 0 0 1.4197 -9.5057 -7.6617)" gradientUnits="userSpaceOnUse">
   <stop stop-color="#554c89" offset="0"/>
   <stop stop-color="#182c41" offset=".77588"/>
   <stop stop-color="#0471cb" offset=".93276"/>
   <stop stop-color="#0092fb" offset="1"/>
  </radialGradient>
  <linearGradient id="linearGradient251395" x1="16.614" x2="21.08" y1="43.423" y2="36.728" gradientUnits="userSpaceOnUse">
   <stop stop-color="#8b72fe" offset="0"/>
   <stop stop-color="#6ca0fb" offset="1"/>
  </linearGradient>
  <linearGradient id="linearGradient258533" x1="37.542" x2="41.246" y1="31.179" y2="23.544" gradientUnits="userSpaceOnUse">
   <stop stop-color="#5ab9f9" offset="0"/>
   <stop stop-color="#30f6f4" offset="1"/>
  </linearGradient>
 </defs>
 <circle cx="32" cy="32" r="30" color="#000000" fill="url(#radialGradient16019)"/>
 <path d="m39.697 16.445a11 11 0 0 0-10.83 9.166l-7.6543 5.6816a9.6219 9.6219 0 0 0-2.8848-0.44336 9.6219 9.6219 0 0 0-4.75 1.2812c-3.864-2.4844-8.9139-5.6563-10.863-6.5273a30 30 0 0 0-0.30469 1.4531 30 30 0 0 0-0.30664 2.4609 30 30 0 0 0-0.10352 2.4766 30 30 0 0 0 0.10352 2.4785 30 30 0 0 0 0.30664 2.4609 30 30 0 0 0 0.011719 0.060547l6.2949 3.3496a9.6219 9.6219 0 0 0-0.0097657 0.12695 9.6219 9.6219 0 0 0 9.6211 9.623 9.6219 9.6219 0 0 0 9.4121-7.7383l8.7148-4.4082a11 11 0 0 0 3.2422 0.49805 11 11 0 0 0 11-11 11 11 0 0 0-11-11zm0 3.3242a7.6773 7.6773 0 0 1 7.6777 7.6758 7.6773 7.6773 0 0 1-7.6777 7.6777 7.6773 7.6773 0 0 1-7.6777-7.6777 7.6773 7.6773 0 0 1 7.6777-7.6758zm-21.369 14.346a6.3562 6.3562 0 0 1 6.3574 6.3555 6.3562 6.3562 0 0 1-6.3574 6.3574 6.3562 6.3562 0 0 1-6.3555-6.3574 6.3562 6.3562 0 0 1 6.3555-6.3555zm18.662 0.83789a8 8 0 0 0 0.17774 0.066406 8 8 0 0 1-0.16406-0.044922l-0.013672-0.021484zm-11.785 6.748 0.007813 0.015625a6.9978 6.9978 0 0 1-0.060547 0.22656 6.9978 6.9978 0 0 0 0.052734-0.24219zm-13.734 0.10742 0.005859 0.003906a6.9978 6.9978 0 0 0 0.027344 0.12305 6.9978 6.9978 0 0 1-0.033203-0.12695z" fill="url(#linearGradient1573)"/>
 <circle cx="18.329" cy="40.471" r="4.5348" fill="url(#linearGradient251395)" fill-rule="evenodd" stroke-width="1.0368"/>
 <circle cx="39.697" cy="27.446" r="5.4862" fill="url(#linearGradient258533)" fill-rule="evenodd" stroke-width="1.0972"/>
</svg>
