<?xml version="1.0" encoding="UTF-8"?>
<svg id="Activity-Monitor" width="64" height="64" enable-background="new 0 0 1024 1024" image-rendering="optimizeSpeed" version="1.1" viewBox="0 0 64 64" xmlns="http://www.w3.org/2000/svg" xmlns:cc="http://creativecommons.org/ns#" xmlns:dc="http://purl.org/dc/elements/1.1/" xmlns:rdf="http://www.w3.org/1999/02/22-rdf-syntax-ns#" xmlns:xlink="http://www.w3.org/1999/xlink">
 <metadata>
  <rdf:RDF>
   <cc:Work rdf:about="">
    <dc:format>image/svg+xml</dc:format>
    <dc:type rdf:resource="http://purl.org/dc/dcmitype/StillImage"/>
   </cc:Work>
  </rdf:RDF>
 </metadata>
 <defs>
  <linearGradient id="linearGradient4161" x1="223.87" x2="232.42" y1="4.8965" y2="32.338" gradientUnits="userSpaceOnUse">
   <stop stop-color="#68e5f4" offset="0"/>
   <stop stop-color="#60d3ff" offset="1"/>
  </linearGradient>
  <linearGradient id="linearGradient14440" x1="221.53" x2="256.04" y1="47.963" y2="24.889" gradientUnits="userSpaceOnUse">
   <stop stop-color="#009fff" offset="0"/>
   <stop stop-color="#009eff" offset="1"/>
  </linearGradient>
  <linearGradient id="linearGradient62177" x1="223.87" x2="232.42" y1="4.8965" y2="32.338" gradientTransform="rotate(180 136.67 67.72)" gradientUnits="userSpaceOnUse">
   <stop stop-color="#009fff" offset="0"/>
   <stop stop-color="#009eff" offset="1"/>
  </linearGradient>
  <linearGradient id="linearGradient62179" x1="221.53" x2="256.04" y1="47.963" y2="24.889" gradientTransform="rotate(180 136.67 67.72)" gradientUnits="userSpaceOnUse">
   <stop stop-color="#68e5f4" offset="0"/>
   <stop stop-color="#62d6fd" offset="1"/>
  </linearGradient>
  <linearGradient id="linearGradient62181" x1="198.66" x2="220.37" y1="30.317" y2="30.317" gradientTransform="matrix(1.1071 0 0 1 -172.7 74.805)" gradientUnits="userSpaceOnUse">
   <stop stop-color="#009eff" offset="0"/>
   <stop stop-color="#62d7fd" offset="1"/>
  </linearGradient>
 </defs>
 <g transform="matrix(.6727 0 0 .6727 -9.4706 -38.715)">
  <rect x="42.832" y="97.126" width="37.632" height="15.993" ry=".43209" fill="url(#linearGradient62181)" fill-rule="evenodd" style="paint-order:stroke fill markers"/>
  <path d="m48.274 130.76c0.37593-2e-3 0.77522-0.0655 1.1914-0.21484 2.2196-0.79629 2.3887-2.6294 2.3887-3.875v-9.2949s0.01-3.1616-1.7949-4.2539c0 0-12.172-7.7429 0-15.994l-9.1445 5.9766-10.24 6.6914s-0.1229 0.0719-0.32032 0.20703c-0.19741 0.13516-0.46974 0.3346-0.77343 0.58984-0.15185 0.12762-0.31133 0.26902-0.47266 0.42383s-0.32495 0.32183-0.48437 0.50195-0.31482 0.37264-0.46094 0.57617c-0.14612 0.20354-0.28287 0.41946-0.4043 0.64454-0.12143 0.22507-0.22716 0.46035-0.3125 0.70507-0.0427 0.12236-0.0798 0.24613-0.11133 0.37305-0.0315 0.12692-0.0572 0.25743-0.0762 0.38867-0.0189 0.13124-0.0322 0.26311-0.0371 0.39844-5e-3 0.13533-3e-3 0.27293 8e-3 0.41211 0.0105 0.13918 0.0293 0.28103 0.0566 0.42383 0.0274 0.14279 0.0637 0.28741 0.10938 0.43359 0.0456 0.14618 0.10069 0.29404 0.16602 0.44336 0.0653 0.14932 0.1401 0.29894 0.22656 0.45117 0.0864 0.15223 0.18396 0.30603 0.29297 0.46094 0.109 0.1549 0.2303 0.31141 0.36328 0.46875 0.13297 0.15734 0.27913 0.31506 0.4375 0.47461 0.15837 0.15954 0.32848 0.32091 0.51367 0.48242s0.38422 0.32309 0.59766 0.48633c0.18478 0.14132 0.3868 0.28332 0.59375 0.42578 7.2554 4.9171 14.889 10.094 14.889 10.094s1.1698 1.1102 2.7988 1.0996z" fill="url(#linearGradient62177)"/>
  <path d="m30.586 119.56c-0.20695-0.14246-0.40897-0.28446-0.59375-0.42578-0.21344-0.16324-0.41247-0.32482-0.59766-0.48633s-0.3553-0.32288-0.51367-0.48242c-0.15837-0.15955-0.30453-0.31727-0.4375-0.47461-0.13298-0.15734-0.25428-0.31385-0.36328-0.46875-0.10901-0.15491-0.20652-0.30871-0.29297-0.46094-0.0865-0.15223-0.16123-0.30185-0.22656-0.45117-0.0653-0.14932-0.12039-0.29718-0.16602-0.44336-0.0456-0.14618-0.082-0.2908-0.10938-0.43359-0.0274-0.1428-0.0461-0.28465-0.0566-0.42383s-0.0127-0.27678-8e-3 -0.41211c5e-3 -0.13533 0.0182-0.2672 0.0371-0.39844s0.0447-0.26175 0.0762-0.38867 0.0687-0.25069 0.11133-0.37305c0.0853-0.24472 0.19107-0.48 0.3125-0.70507 0.12143-0.22508 0.25818-0.441 0.4043-0.64454 0.14612-0.20353 0.30152-0.39605 0.46094-0.57617s0.32304-0.34714 0.48437-0.50195 0.32081-0.29621 0.47266-0.42383c0.30369-0.25524 0.57602-0.45468 0.77343-0.58984 0.19742-0.13516 0.32032-0.20703 0.32032-0.20703l10.24-6.6914 9.1445-5.9766s1.748-0.70962 1.748-5.2402v-8.8164s0.0793-1.9107-1.375-2.8496c-1.4542-0.9389-2.934-0.98501-4.334-0.07617-1.4 0.90883-29.131 19.713-29.131 19.713s-2.8887 1.912-2.8887 5.0508 1.7841 4.6653 3.2109 5.6445c0.67312 0.46194 6.8174 4.6224 13.297 9.0137z" fill="url(#linearGradient62179)"/>
  <g transform="translate(-150.04 74.805)">
   <path d="m225.06 4.6816c-0.37593 0.00245-0.77522 0.065539-1.1914 0.21484-2.2196 0.79629-2.3887 2.6294-2.3887 3.875v9.2949s-0.01 3.1616 1.7949 4.2539c0 0 12.172 7.7429 0 15.994l9.1445-5.9766 10.24-6.6914s0.1229-0.07187 0.32032-0.20703c0.19741-0.13516 0.46974-0.3346 0.77343-0.58984 0.15185-0.12762 0.31133-0.26902 0.47266-0.42383s0.32495-0.32184 0.48437-0.50195c0.15942-0.18012 0.31482-0.37263 0.46094-0.57617s0.28287-0.41946 0.4043-0.64453 0.22716-0.46036 0.3125-0.70508c0.0427-0.12236 0.0798-0.24613 0.11133-0.37305 0.0315-0.12692 0.0572-0.25743 0.0762-0.38867 0.0189-0.13124 0.0322-0.26311 0.0371-0.39844 5e-3 -0.13533 3e-3 -0.27293-8e-3 -0.41211-0.0105-0.13918-0.0293-0.28103-0.0566-0.42383-0.0274-0.1428-0.0637-0.28742-0.10938-0.43359-0.0456-0.14618-0.10069-0.29404-0.16602-0.44336-0.0653-0.14932-0.1401-0.29894-0.22656-0.45117-0.0864-0.15223-0.18396-0.30603-0.29297-0.46094-0.109-0.15491-0.2303-0.31141-0.36328-0.46875-0.13297-0.15734-0.27913-0.31506-0.4375-0.47461s-0.32848-0.32091-0.51367-0.48242-0.38422-0.32309-0.59766-0.48633c-0.18478-0.14133-0.3868-0.28332-0.59375-0.42578-7.2554-4.9171-14.889-10.094-14.889-10.094s-1.1698-1.1102-2.7988-1.0996z" fill="url(#linearGradient4161)"/>
   <path d="m242.75 15.875c0.20695 0.14246 0.40897 0.28446 0.59375 0.42578 0.21344 0.16324 0.41247 0.32482 0.59766 0.48633s0.3553 0.32288 0.51367 0.48242 0.30453 0.31727 0.4375 0.47461c0.13298 0.15734 0.25428 0.31384 0.36328 0.46875 0.10901 0.1549 0.20652 0.3087 0.29297 0.46094 0.0865 0.15223 0.16123 0.30185 0.22656 0.45117 0.0653 0.14932 0.12039 0.29718 0.16602 0.44336 0.0456 0.14618 0.082 0.2908 0.10938 0.43359 0.0274 0.1428 0.0461 0.28465 0.0566 0.42383s0.0127 0.27678 8e-3 0.41211c-5e-3 0.13533-0.0182 0.26719-0.0371 0.39844s-0.0447 0.26175-0.0762 0.38867-0.0687 0.25069-0.11133 0.37305c-0.0853 0.24472-0.19107 0.48-0.3125 0.70508s-0.25818 0.44099-0.4043 0.64453-0.30152 0.39606-0.46094 0.57617c-0.15942 0.18012-0.32304 0.34714-0.48437 0.50195s-0.32081 0.29621-0.47266 0.42383c-0.30369 0.25524-0.57602 0.45468-0.77343 0.58984-0.19742 0.13516-0.32032 0.20703-0.32032 0.20703l-10.24 6.6914-9.1445 5.9766s-1.748 0.70962-1.748 5.2402v8.8164s-0.0793 1.9107 1.375 2.8496c1.4542 0.9389 2.934 0.98501 4.334 0.07617 1.4-0.90883 29.131-19.713 29.131-19.713s2.8887-1.912 2.8887-5.0508-1.7841-4.6653-3.2109-5.6445c-0.67312-0.46194-6.8174-4.6224-13.297-9.0137z" fill="url(#linearGradient14440)"/>
  </g>
 </g>
</svg>
