<?xml version="1.0" encoding="UTF-8"?>
<svg width="64" height="64" version="1.1" xmlns="http://www.w3.org/2000/svg" xmlns:cc="http://creativecommons.org/ns#" xmlns:dc="http://purl.org/dc/elements/1.1/" xmlns:rdf="http://www.w3.org/1999/02/22-rdf-syntax-ns#" xmlns:xlink="http://www.w3.org/1999/xlink">
 <metadata>
  <rdf:RDF>
   <cc:Work rdf:about="">
    <dc:format>image/svg+xml</dc:format>
    <dc:type rdf:resource="http://purl.org/dc/dcmitype/StillImage"/>
   </cc:Work>
  </rdf:RDF>
 </metadata>
 <defs>
  <linearGradient id="b" x1="399.57" x2="399.57" y1="545.8" y2="517.8" gradientTransform="matrix(2.1429 0 0 2.1429 -826.36 -1107.5)" gradientUnits="userSpaceOnUse">
   <stop stop-color="#3889e9" offset="0"/>
   <stop stop-color="#5ea5fb" offset="1"/>
  </linearGradient>
  <style type="text/css"/>
  <style type="text/css"/>
  <style type="text/css"/>
  <linearGradient id="linearGradient88101" x1="-41.18" x2="-41.18" y1="19.054" y2="24.63" gradientTransform="matrix(2.3885 0 0 2.3885 130.66 2.9403)" gradientUnits="userSpaceOnUse">
   <stop stop-color="#d049fb" offset="0"/>
   <stop stop-color="#03ddff" offset="1"/>
  </linearGradient>
  <linearGradient id="linearGradient1899" x1="74.126" x2="74.126" y1="3.6257" y2="42.51" gradientTransform="translate(-42)" gradientUnits="userSpaceOnUse">
   <stop stop-color="#05dcff" offset="0"/>
   <stop stop-color="#d447fb" offset="1"/>
  </linearGradient>
 </defs>
 <circle cx="32.02" cy="32.044" r="0" fill="url(#b)" stroke-width="1.5715"/>
 <g fill-rule="evenodd">
  <circle cx="32" cy="55" r="7" fill="url(#linearGradient88101)" stroke-width="3.7973" style="paint-order:stroke fill markers"/>
  <path d="m32 2c-3.878 0-7 3.122-7 7v28c0 3.878 3.122 7 7 7s7-3.122 7-7v-28c0-3.878-3.122-7-7-7zm0 4c1.662 0 3 1.338 3 3v28c0 1.662-1.338 3-3 3s-3-1.338-3-3v-28c0-1.662 1.338-3 3-3z" fill="url(#linearGradient1899)" style="paint-order:stroke fill markers"/>
 </g>
</svg>
