<?xml version="1.0" encoding="UTF-8"?>
<svg width="64" height="64" version="1.1" viewBox="0 0 64 64" xmlns="http://www.w3.org/2000/svg" xmlns:xlink="http://www.w3.org/1999/xlink">
 <defs>
  <clipPath>
   <rect width="64" height="64"/>
  </clipPath>
  <linearGradient id="linearGradient31436" x1="11.745" x2="18.418" y1="39.12" y2="38.886" gradientUnits="userSpaceOnUse">
   <stop stop-color="#ff8153" offset="0"/>
   <stop stop-color="#fcbc34" offset=".52016"/>
   <stop stop-color="#fee628" offset="1"/>
  </linearGradient>
  <linearGradient id="linearGradient4022" x1="8.0963" x2="5.8738" y1="38.075" y2="35.75" gradientUnits="userSpaceOnUse">
   <stop stop-color="#ff2aee" offset="0"/>
   <stop stop-color="#3b3db1" offset="1"/>
  </linearGradient>
  <linearGradient id="linearGradient70295" x1="19.832" x2="15.057" y1="35.498" y2="40.195" gradientUnits="userSpaceOnUse">
   <stop stop-color="#0eddd5" offset="0"/>
   <stop stop-color="#00daee" stop-opacity="0" offset="1"/>
  </linearGradient>
  <linearGradient id="linearGradient28038" x1="8.2151" x2="11.657" y1="39.255" y2="38.877" gradientUnits="userSpaceOnUse">
   <stop stop-color="#ff2aee" offset="0"/>
   <stop stop-color="#ff8252" offset="1"/>
  </linearGradient>
 </defs>
 <g transform="matrix(3.9867 0 0 3.9867 -13.409 -124.43)">
  <path d="m13.605 34.041c-0.08022-0.0018-0.16611 0.0064-0.25889 0.02584-0.74226 0.15578-1.0598 0.9202-1.6965 3.0054-0.21636 0.70852-0.40874 1.3439-0.5922 1.8805 0.03895 0.10887 0.07354 0.21538 0.10128 0.31625 0.19797 0.71964 1.1159 3.5857 2.6706 4.6632 1.5547 1.0775 3.4609 0.26957 4.2131-1.0216 0.75221-1.2912 1.0838-3.1604 0.73172-4.4327s-1.1528-1.584-1.9032-1.0842c-0.75044 0.49981-0.80724 1.9331-1.3198 1.5492-0.51255-0.3839-0.55398-2.8535-0.85109-3.6659-0.25998-0.71085-0.53348-1.2234-1.095-1.2361zm-0.06821 0.77668c0.25306 0.0026 0.32368 0.49533 0.401 0.75911 0.09897 0.33764 0.28519 2.6681 0.62476 3.5387 0.33957 0.87059 0.95885 0.92541 1.51 0.8206 0.55111-0.1048 0.96761-1.219 1.0645-1.4691 0.0969-0.25008 0.4385-0.68966 0.53226-0.07183s-0.14547 1.509-0.509 2.2572c-0.36353 0.74822-1.1455 1.7169-2.2009 1.4185-1.0554-0.29844-2.7486-3.9764-2.7486-3.9764s0.24769-1.1179 0.31264-1.3678c0.06495-0.24994 0.28053-1.3603 0.75394-1.7802 0.10356-0.09187 0.18855-0.1294 0.25941-0.12867z" fill="url(#linearGradient31436)"/>
  <path d="m6.1163 35.985c-0.20138-0.0015-0.29972 0.04444-0.29972 0.04444s-1.4233 0.39224-1.8701 3.7604c-0.44687 3.3682 1.0392 4.3993 2.2489 4.2865 1.2097-0.11284 2.087-1.3169 2.7843-4.1991 0.00905-0.0374 0.017436-0.06896 0.026354-0.10542l-5.167e-4 -0.0016-5.167e-4 -0.0026c-0.4307-0.65457-0.83857-1.4671-1.0035-1.8024-0.30113-0.61199-0.88675-1.7577-1.4102-1.9058-0.1963-0.055551-0.35407-0.073484-0.4749-0.074412zm0.15193 0.69814c0.3127 0.0032 0.44717 0.43051 0.62217 0.74568 0.20741 0.37352 0.74361 1.8365 0.74361 1.8365s-0.24483 0.75907-0.58548 1.574c-0.34065 0.81496-0.42022 0.96372-0.84748 1.4593-0.42726 0.4956-0.77489-0.58803-0.86763-1.0216-0.092744-0.43358-0.17599-1.1514-0.11782-2.1673 0.058171-1.0159 0.40155-2.177 0.85936-2.3812 0.071534-0.0319 0.13536-0.04606 0.19327-0.04547z" fill="url(#linearGradient4022)"/>
  <path d="m13.605 34.041c-0.08022-0.0018-0.16611 0.0064-0.25889 0.02584-0.74226 0.15578-1.0598 0.9202-1.6965 3.0054-0.21636 0.70852-0.40874 1.3439-0.5922 1.8805 0.03895 0.10887 0.07354 0.21538 0.10128 0.31625 0.19797 0.71964 1.1159 3.5857 2.6706 4.6632 1.5547 1.0775 3.4609 0.26957 4.2131-1.0216 0.75221-1.2912 1.0838-3.1604 0.73172-4.4327s-1.1528-1.584-1.9032-1.0842c-0.75044 0.49981-0.80724 1.9331-1.3198 1.5492-0.51255-0.3839-0.55398-2.8535-0.85109-3.6659-0.25998-0.71085-0.53348-1.2234-1.095-1.2361zm-0.06821 0.77668c0.25306 0.0026 0.32368 0.49533 0.401 0.75911 0.09897 0.33764 0.28519 2.6681 0.62476 3.5387 0.33957 0.87059 0.95885 0.92541 1.51 0.8206 0.55111-0.1048 0.96761-1.219 1.0645-1.4691 0.0969-0.25008 0.4385-0.68966 0.53226-0.07183s-0.14547 1.509-0.509 2.2572c-0.36353 0.74822-1.1455 1.7169-2.2009 1.4185-1.0554-0.29844-2.7486-3.9764-2.7486-3.9764s0.24769-1.1179 0.31264-1.3678c0.06495-0.24994 0.28053-1.3603 0.75394-1.7802 0.10356-0.09187 0.18855-0.1294 0.25941-0.12867z" fill="url(#linearGradient70295)"/>
  <path d="m9.9351 35.851c-0.034419 8.6e-4 -0.069117 0.0032-0.10438 0.0067-1.0334 0.10376-1.7616 2.2437-1.7616 2.2437s-0.038838 2.3859 0.55034 3.068c0.58918 0.68198 1.1144 0.8374 1.8076 0.67798 0.69317-0.15941 1.1756-1.265 1.1756-1.265l0.05478-3.5356s-0.65536-1.2224-1.7223-1.1958zm0.1049 1.2717c0.06471 0.0016 0.12099 0.05354 0.17208 0.12557 0.18995 0.26778 0.60645 1.0369 0.84541 1.7048-0.35647 1.0427-0.67743 1.7048-1.0624 1.7544-0.26335 0.033932-0.63346-0.39802-0.98855-0.93739 0.51915-2.1214 0.82211-2.6527 1.0335-2.6473z" fill="url(#linearGradient28038)"/>
 </g>
</svg>
