<?xml version="1.0" encoding="UTF-8"?>
<svg id="Calculator" width="64" height="64" enable-background="new 0 0 1024 1024" image-rendering="optimizeSpeed" version="1.1" viewBox="0 0 64 64" xmlns="http://www.w3.org/2000/svg" xmlns:cc="http://creativecommons.org/ns#" xmlns:dc="http://purl.org/dc/elements/1.1/" xmlns:rdf="http://www.w3.org/1999/02/22-rdf-syntax-ns#" xmlns:xlink="http://www.w3.org/1999/xlink">
 <metadata>
  <rdf:RDF>
   <cc:Work rdf:about="">
    <dc:format>image/svg+xml</dc:format>
    <dc:type rdf:resource="http://purl.org/dc/dcmitype/StillImage"/>
   </cc:Work>
  </rdf:RDF>
 </metadata>
 <defs>
  <linearGradient id="linearGradient2417" x1="129.75" x2="91.551" y1="63.62" y2="92.003" gradientUnits="userSpaceOnUse">
   <stop stop-color="#24b9df" offset="0"/>
   <stop stop-color="#00b3eb" offset="1"/>
  </linearGradient>
  <linearGradient id="linearGradient13501" x1="127.79" x2="99.411" y1="70.303" y2="98.862" gradientUnits="userSpaceOnUse">
   <stop stop-color="#003eb0" offset="0"/>
   <stop stop-color="#006ce7" offset=".12106"/>
   <stop stop-color="#00b3eb" offset="1"/>
  </linearGradient>
  <linearGradient id="linearGradient18743" x1="134.31" x2="171.28" y1="63.558" y2="94.335" gradientUnits="userSpaceOnUse">
   <stop stop-color="#0051ee" offset="0"/>
   <stop stop-color="#8851f2" offset="1"/>
  </linearGradient>
  <linearGradient id="linearGradient35570" x1="133.89" x2="163.74" y1="73.714" y2="99.26" gradientUnits="userSpaceOnUse">
   <stop stop-color="#23b9df" offset="0"/>
   <stop stop-color="#8851f2" offset="1"/>
  </linearGradient>
 </defs>
 <g transform="matrix(.70388 0 0 .70388 -59.93 -23.84)">
  <path d="m132.33 72.182-7.9824-5.291s-8.3096 14.324-13.473 22.402c-3.3981 5.3165-8.693 4.6963-11.926 3.6523l-7.0586 7.2402c2.4198 1.4274 5.3118 2.5703 8.2988 2.5703 6.8472 0 14.463-1.1863 19.062-8.9199 3.1408-5.2813 8.9178-15.492 13.078-21.654z" fill="url(#linearGradient13501)"/>
  <path d="m132.23 62.096-10.264 3.873s4.2435 1.1961 7.1133 6.2812c2.483 4.3998 5.6564 9.6728 6.5918 11.225l4.4258 7.4668s4.7535 9.1223 14.611 11.305c4.2352 0.93763 9.1864 0.099 13.256-1.5684l-6.7207-7.2031c-7.0891 1.896-10.081-3.0055-10.955-3.9883-1.0224-1.1495-13.639-22.373-13.639-22.373l-1.5645-0.45508z" fill="url(#linearGradient35570)"/>
  <path d="m142.44 55.908c-3.8208 0.01973-7.2201 1.4172-12.006 3.8984-2.1152 1.0966-3.0482 2.7381-3.2949 4.5371l9.5176 2.7695c2.5085-1.4352 4.7439-1.9598 6.7109-1.8945 5.9011 0.19584 9.3912 5.698 10.635 7.8301 1.658 2.8427 11.215 18.828 11.215 18.828-1.4477 0.76515-2.7646 1.2761-3.9668 1.5977l6.7207 7.2031c5.4158-2.219 9.2679-5.906 7.7734-8.8301-2.6173-5.1212-13.064-22.668-13.064-22.668s-4.552-8.9746-12.516-11.756c-2.9863-1.043-5.4321-1.5275-7.7246-1.5156z" fill="url(#linearGradient18743)"/>
  <path d="m118.97 56.02c-12.48 0-16.763 6.5735-22.555 16.545-5.7917 9.9715-10.584 17.967-10.584 17.967s-1.4566 2.8994-0.14844 4.5566c0.73749 0.9343 3.0761 3.2531 6.2031 5.0977l7.0586-7.2402c-1.6791-0.54221-2.8125-1.1973-2.8125-1.1973s2.9412-5.1504 7.6484-13.188c4.7072-8.0371 5.3893-9.6985 9.7578-12.303 1.3652-0.81382 2.932-1.058 4.4414-1.0078 3.3206 0.11035 6.3633 1.6406 6.3633 1.6406l7.9824 5.291c1.9318-2.8615 3.5164-4.8566 4.3242-5.0684 0 0-5.1992-11.094-17.68-11.094z" fill="url(#linearGradient2417)"/>
  <path d="m132.33 72.182-7.9824-5.291s-8.3096 14.324-13.473 22.402c-3.3981 5.3165-8.693 4.6963-11.926 3.6523l-7.0586 7.2402c2.4198 1.4274 5.3118 2.5703 8.2988 2.5703 6.8472 0 14.463-1.1863 19.062-8.9199 3.1408-5.2813 8.9178-15.492 13.078-21.654z" fill="url(#linearGradient13501)"/>
  <path d="m132.23 62.096-10.264 3.873s4.2435 1.1961 7.1133 6.2812c2.483 4.3998 5.6564 9.6728 6.5918 11.225l4.4258 7.4668s4.7535 9.1223 14.611 11.305c4.2352 0.93763 9.1864 0.099 13.256-1.5684l-6.7207-7.2031c-7.0891 1.896-10.081-3.0055-10.955-3.9883-1.0224-1.1495-13.639-22.373-13.639-22.373l-1.5645-0.45508z" fill="url(#linearGradient35570)"/>
  <path d="m142.44 55.908c-3.8208 0.01973-7.2201 1.4172-12.006 3.8984-2.1152 1.0966-3.0482 2.7381-3.2949 4.5371l9.5176 2.7695c2.5085-1.4352 4.7439-1.9598 6.7109-1.8945 5.9011 0.19584 9.3912 5.698 10.635 7.8301 1.658 2.8427 11.215 18.828 11.215 18.828-1.4477 0.76515-2.7646 1.2761-3.9668 1.5977l6.7207 7.2031c5.4158-2.219 9.2679-5.906 7.7734-8.8301-2.6173-5.1212-13.064-22.668-13.064-22.668s-4.552-8.9746-12.516-11.756c-2.9863-1.043-5.4321-1.5275-7.7246-1.5156z" fill="url(#linearGradient18743)"/>
  <path d="m118.97 56.02c-12.48 0-16.763 6.5735-22.555 16.545-5.7917 9.9715-10.584 17.967-10.584 17.967s-1.4566 2.8994-0.14844 4.5566c0.73749 0.9343 3.0761 3.2531 6.2031 5.0977l7.0586-7.2402c-1.6791-0.54221-2.8125-1.1973-2.8125-1.1973s2.9412-5.1504 7.6484-13.188c4.7072-8.0371 5.3893-9.6985 9.7578-12.303 1.3652-0.81382 2.932-1.058 4.4414-1.0078 3.3206 0.11035 6.3633 1.6406 6.3633 1.6406l7.9824 5.291c1.9318-2.8615 3.5164-4.8566 4.3242-5.0684 0 0-5.1992-11.094-17.68-11.094z" fill="url(#linearGradient2417)"/>
 </g>
</svg>
