<?xml version="1.0" encoding="UTF-8"?>
<svg id="Calculator" width="64" height="64" enable-background="new 0 0 1024 1024" image-rendering="optimizeSpeed" version="1.1" viewBox="0 0 64 64" xmlns="http://www.w3.org/2000/svg" xmlns:cc="http://creativecommons.org/ns#" xmlns:dc="http://purl.org/dc/elements/1.1/" xmlns:rdf="http://www.w3.org/1999/02/22-rdf-syntax-ns#">
 <metadata>
  <rdf:RDF>
   <cc:Work rdf:about="">
    <dc:format>image/svg+xml</dc:format>
    <dc:type rdf:resource="http://purl.org/dc/dcmitype/StillImage"/>
   </cc:Work>
  </rdf:RDF>
 </metadata>
 <defs>
  <linearGradient id="linearGradient1077" x1="413.99" x2="407.69" y1="545.2" y2="502.91" gradientTransform="matrix(1.25,0,0,1.25,-478.71,-622.75)" gradientUnits="userSpaceOnUse">
   <stop stop-color="#ed4139" offset="0"/>
   <stop stop-color="#ffc228" offset="1"/>
  </linearGradient>
  <linearGradient id="linearGradient1117" x1="29.309" x2="23.171" y1="10.284" y2="46.567" gradientUnits="userSpaceOnUse">
   <stop stop-color="#fdb72a" offset="0"/>
   <stop stop-color="#f26434" offset="1"/>
  </linearGradient>
  <linearGradient id="linearGradient10706" x1="-3.7919" x2="-3.7919" y1="139.67" y2="75.777" gradientTransform="matrix(.31451 0 0 .32087 16.36 16.416)" gradientUnits="userSpaceOnUse">
   <stop stop-color="#ec4338" offset="0"/>
   <stop stop-color="#f8d69b" offset="1"/>
  </linearGradient>
 </defs>
 <g fill-rule="evenodd" stroke-width="1.25">
  <path d="m8.8628 55.692s-0.77646 0.83754-0.98184 1.5174c-0.14352 0.47508-0.19955 1.1834 0.0595 1.6066 0.19007 0.31059 0.4392 0.62476 0.80332 0.62481 15.831 0.0025 33.338 0.02562 45.656 0.0595 0.417 0.0012 1.208-0.072 1.5323-0.53555 0.33051-0.47245 0.32234-1.5256 0.08925-2.0529-0.24545-0.55534-1.3984-0.80332-1.3984-0.80332l-45.76-0.41654z" fill="#962711"/>
  <path d="m14.696 38.99c-0.72329 0-1.4742 0.55725-1.6837 1.2512l-5.0539 16.74c-0.20954 0.69391 0.20316 1.2539 0.92645 1.2539h46.605c0.55107 0 0.86697-0.42497 0.70732-0.95366l-5.2369-17.338c-0.15964-0.52869-0.73042-0.95366-1.2815-0.95366z" fill="url(#linearGradient10706)"/>
  <path d="m18.726 38.99-2.4487 8.0859s0.25904 1.6873 1.8677 3.2959l7.8638 7.8638h29.482c0.55108 0 0.86766-0.42346 0.70801-0.95215l-5.2393-17.339c-0.15964-0.52869-0.72821-0.95459-1.2793-0.95459z" fill-opacity=".078431"/>
  <path d="m31.965 4.502c-1.2021-0.0125-1.9081 0.0764-2.6172 0.60938-0.32365 0.24326-0.57952 0.82029-0.73242 1.2363l-1.7871 5.9004c1.338 0.42126 3.1277 0.68164 5.0996 0.68164 2.0057 0 3.8231-0.26894 5.168-0.70313l-2.0371-6.6348c-0.08575-0.15595-0.17854-0.29707-0.2793-0.39258-0.75382-0.7145-1.8979-0.68805-2.8145-0.69727zm-8.123 17.605-3.0781 10.16c2.6388 2.0638 6.6997 3.3887 11.26 3.3887 4.5442 0 8.5948-1.3157 11.234-3.3672l-3.1074-10.119c-2.0226 0.98163-4.9011 1.5957-8.0957 1.5957-3.2593 0-6.1857-0.64152-8.2129-1.6582zm-5.8809 19.412-1.6836 5.5566s0.54193 3.5213 4.9082 5.2383c3.0223 1.1885 6.1419 1.3465 10.996 1.3984 5.406 0.05788 7.6091-0.47219 11.143-1.7051 1.6633-0.58035 2.5256-1.3352 3.3145-2.1719 1.1408-1.21 1.1094-2.9297 1.1094-2.9297l-1.6426-5.3477c-3.4494 2.8598-8.4879 4.666-14.105 4.666-5.6441 0-10.588-1.8217-14.039-4.7051z" fill="url(#linearGradient1077)"/>
 </g>
 <path d="m27.457 10.172-10.272 33.908 9.1433 3.7997 4.832-37.482z" fill="url(#linearGradient1117)"/>
</svg>
