<?xml version="1.0" encoding="UTF-8"?>
<svg width="64" height="64" version="1.1" viewBox="0 0 64 64" xmlns="http://www.w3.org/2000/svg" xmlns:xlink="http://www.w3.org/1999/xlink">
 <defs>
  <linearGradient id="linearGradient26280">
   <stop stop-color="#019cfa" offset="0"/>
   <stop stop-color="#40bcfc" offset="1"/>
  </linearGradient>
  <linearGradient id="linearGradient16015">
   <stop stop-color="#03d0fa" offset="0"/>
   <stop stop-color="#009ffe" offset="1"/>
  </linearGradient>
  <linearGradient id="linearGradient2463">
   <stop stop-color="#0072d5" offset="0"/>
   <stop stop-color="#0049c5" offset="1"/>
  </linearGradient>
  <linearGradient id="linearGradient2465" x1="111.05" x2="131.04" y1="12.213" y2="32.213" gradientUnits="userSpaceOnUse" xlink:href="#linearGradient2463"/>
  <linearGradient id="linearGradient14243" x1="137.71" x2="145.64" y1="10.479" y2="46.809" gradientUnits="userSpaceOnUse" xlink:href="#linearGradient16015"/>
  <linearGradient id="linearGradient26282" x1="110.29" x2="131.04" y1="52.965" y2="32.213" gradientUnits="userSpaceOnUse" xlink:href="#linearGradient26280"/>
  <linearGradient id="linearGradient34349" x1="137.71" x2="145.64" y1="10.479" y2="46.809" gradientTransform="matrix(.69884 0 0 .69884 -77.077 8.8948)" gradientUnits="userSpaceOnUse" xlink:href="#linearGradient16015"/>
  <linearGradient id="linearGradient34351" x1="110.29" x2="131.04" y1="52.965" y2="32.213" gradientTransform="matrix(.69884 0 0 .69884 -77.077 8.8948)" gradientUnits="userSpaceOnUse" xlink:href="#linearGradient26280"/>
  <linearGradient id="linearGradient34353" x1="111.05" x2="131.04" y1="12.213" y2="32.213" gradientTransform="matrix(.69884 0 0 .69884 -77.077 8.8948)" gradientUnits="userSpaceOnUse" xlink:href="#linearGradient2463"/>
  <linearGradient id="linearGradient34716" x1="-15.924" x2="30.697" y1="52.898" y2="52.898" gradientTransform="matrix(.75075 0 0 .85514 40.955 4.1505)" gradientUnits="userSpaceOnUse">
   <stop stop-color="#fdb508" offset="0"/>
   <stop stop-color="#ec3624" offset="1"/>
  </linearGradient>
 </defs>
 <g transform="matrix(1.0584 0 0 1.1833 -3.4495e-8 -5.8669)">
  <g transform="matrix(.69884 0 0 .69884 -77.077 8.8948)">
   <path d="m126.34 2.8457c0.10578 0.00495 0.21155 0.013377 0.31836 0.021484-0.10661-0.00809-0.21278-0.016544-0.31836-0.021484zm-1.3613 0.019531c-0.0583 0.00442-0.11595 0.010342-0.17383 0.015625 0.0577-0.00525 0.11575-0.011232 0.17383-0.015625zm2.1875 0.050781c0.0614 0.00754 0.12186 0.012847 0.18359 0.021484-0.0617-0.00864-0.12216-0.013943-0.18359-0.021484zm-3.0039 0.039063c-0.0547 0.0081-0.10778 0.018515-0.16211 0.027344 0.0543-0.00881 0.10745-0.019254 0.16211-0.027344zm-0.58008 0.10352c-0.58011 0.11565-1.1366 0.2688-1.6641 0.45117 0.52753-0.18233 1.0839-0.33555 1.6641-0.45117zm4.4746 0.00391c0.0868 0.017911 0.17438 0.0384 0.26172 0.058594-0.0874-0.020233-0.17481-0.040649-0.26172-0.058594zm0.83008 0.20508c0.0592 0.016938 0.11829 0.030796 0.17774 0.048828-0.0595-0.018074-0.11843-0.031852-0.17774-0.048828zm0.95508 0.31641c0.0538 0.020453 0.10815 0.043065 0.16211 0.064453-0.0539-0.021395-0.10835-0.043992-0.16211-0.064453zm-8.1562 0.00977c-0.19972 0.073191-0.39488 0.15047-0.58594 0.23047 0.19085-0.079881 0.38645-0.15738 0.58594-0.23047zm-0.76367 0.30469c-0.12339 0.053626-0.2399 0.11015-0.35938 0.16602 0.11911-0.055662 0.23639-0.11258 0.35938-0.16602zm9.7402 0.035156c0.0651 0.03017 0.13004 0.058262 0.19532 0.089844-0.0652-0.031567-0.1303-0.059686-0.19532-0.089844zm0.99219 0.50781c0.0418 0.023756 0.0831 0.051812 0.125 0.076172-0.042-0.024413-0.0831-0.052365-0.125-0.076172zm-11.939 0.050781c-0.0573 0.031309-0.11766 0.060222-0.17383 0.091797 0.0559-0.031378 0.11682-0.060682 0.17383-0.091797zm12.805 0.48438c0.049 0.032416 0.0974 0.064386 0.14649 0.097656-0.049-0.033277-0.0975-0.065233-0.14649-0.097656zm-13.852 0.13672c-0.0705 0.045676-0.13529 0.089329-0.20312 0.13477 0.067-0.044878 0.13353-0.089655 0.20312-0.13477zm14.836 0.5664c0.0363 0.028063 0.0731 0.059342 0.10938 0.087891-0.0364-0.028618-0.073-0.059761-0.10938-0.087891zm-16.375 0.56055c-0.0662 0.054722-0.12176 0.10122-0.18164 0.15234 0.0576-0.049107 0.11823-0.099946 0.18164-0.15234zm17.246 0.16211c0.0546 0.047821 0.10944 0.095572 0.16407 0.14453-0.0547-0.048996-0.10947-0.096673-0.16407-0.14453zm-17.617 0.15625c-0.1631 0.14429-0.23083 0.20502-0.32813 0.29883 0.0888-0.084307 0.19669-0.18253 0.32813-0.29883zm18.695 0.85352c4.3271 4.3308 4.4068 10.562 3.4473 14.143-0.95983 3.5821-4.2676 7.0742-4.2676 7.0742l-3.584 3.584 14.594 14.596s2.9138-2.9138 3.8945-3.8945c6.1655-6.2772 4.6573-16.761-0.57617-21.994 0 0-3.5368-3.5051-13.508-13.508z" fill="url(#linearGradient14243)"/>
   <path d="m145.64 46.809-13.052 13.052s-7.1742 8.225-16.191-0.79148l-6.104-6.104 20.753-20.753z" fill="url(#linearGradient26282)"/>
   <path d="m125.68 2.832c-5.5675 0.069377-9.543 4.3047-9.543 4.3047l-4.9258 4.9258-0.16211 0.15039 19.996 20 3.584-3.584s3.3077-3.4921 4.2676-7.0742c0.95969-3.5816 0.87982-9.8136-3.4492-14.145-9.3e-4 -9.286e-4 -1e-3 -0.00102-2e-3 -0.00195-0.017-0.016985-0.0317-0.031727-0.0488-0.048828-3.4473-3.4583-6.8005-4.5637-9.7168-4.5273z" fill="url(#linearGradient2465)"/>
  </g>
  <path d="m11.212 10.884c0.07392 0.0035 0.14784 0.0093 0.22248 0.01501-0.0745-0.0057-0.1487-0.01156-0.22248-0.01501zm-0.95136 0.01365c-0.04074 0.0031-0.08103 0.0072-0.12148 0.01092 0.04032-0.0037 0.08089-0.0078 0.12148-0.01092zm1.5287 0.03549c0.04291 0.0053 0.08516 9e-3 0.1283 0.01501-0.04312-6e-3 -0.08537-0.0097-0.1283-0.01501zm-2.0993 0.0273c-0.038227 0.0057-0.075321 0.01294-0.11329 0.01911 0.037947-0.0062 0.075091-0.01346 0.11329-0.01911zm-0.40539 0.07234c-0.40541 0.08082-0.79428 0.18785-1.1629 0.3153 0.36866-0.12742 0.75748-0.2345 1.1629-0.3153zm3.1271 0.0027c0.06066 0.01252 0.12186 0.02684 0.1829 0.04095-0.06108-0.01414-0.12217-0.02841-0.1829-0.04095zm0.5801 0.14332c0.04137 0.01184 0.08267 0.02152 0.12421 0.03412-0.04158-0.01263-0.08276-0.02226-0.12421-0.03412zm0.66745 0.22112c0.0376 0.01429 0.07558 0.0301 0.11329 0.04504-0.03767-0.01495-0.07572-0.03074-0.11329-0.04504zm-5.7 0.0068c-0.13957 0.05115-0.27596 0.10515-0.40948 0.16106 0.13337-0.05582 0.27007-0.10999 0.40948-0.16106zm-0.53369 0.21293c-0.08623 0.03748-0.16765 0.07698-0.25115 0.11602 0.083239-0.0389 0.1652-0.07868 0.25115-0.11602zm6.8069 0.02457c0.0455 0.02108 0.09088 0.04072 0.1365 0.06279-0.04556-0.02206-0.09106-0.04171-0.1365-0.06279zm0.69339 0.35488c0.02921 0.0166 0.05807 0.03621 0.08735 0.05323-0.02935-0.01706-0.05807-0.0366-0.08735-0.05323zm-8.3438 0.03549c-0.040044 0.02188-0.082226 0.04209-0.12148 0.06415 0.039065-0.02193 0.081639-0.04241 0.12148-0.06415zm8.9485 0.3385c0.03424 0.02265 0.06807 0.045 0.10237 0.06825-0.03424-0.02325-0.06814-0.04559-0.10237-0.06825zm-9.6801 0.09555c-0.049269 0.03192-0.094547 0.06243-0.14195 0.09418 0.046823-0.03136 0.093317-0.06266 0.14195-0.09418zm10.368 0.39582c0.02537 0.01961 0.05109 0.04147 0.07644 0.06142-0.02544-0.02-0.05102-0.04176-0.07644-0.06142zm-11.444 0.39178c-0.046264 0.03824-0.085091 0.07074-0.12694 0.10646 0.040253-0.03432 0.082624-0.06985 0.12694-0.10646zm12.052 0.11329c0.03816 0.03342 0.07648 0.06679 0.11466 0.101-0.03823-0.03424-0.0765-0.06756-0.11466-0.101zm-12.312 0.1092c-0.11398 0.10083-0.16131 0.14328-0.22931 0.20883 0.062057-0.058918 0.13746-0.12756 0.22931-0.20883zm13.065 0.59647c3.024 3.0266 3.0797 7.3809 2.4091 9.8835-0.67077 2.5034-2.9824 4.9438-2.9824 4.9438l-2.5047 2.5046 10.199 10.2s2.0363-2.0363 2.7217-2.7217c4.3087-4.3868 3.2547-11.713-0.40265-15.37 0 0-2.4716-2.4495-9.4399-9.4399z" fill="url(#linearGradient34349)"/>
  <path d="m24.702 41.607-9.1211 9.1211s-5.0137 5.748-11.315-0.55312l-4.2658-4.2658 14.503-14.503z" fill="url(#linearGradient34351)"/>
  <path d="m10.753 10.874c-3.8908 0.04848-6.6691 3.0083-6.6691 3.0083l-3.4424 3.4424-0.11329 0.1051 13.974 13.977 2.5047-2.5046s2.3116-2.4404 2.9824-4.9438c0.67067-2.503 0.61486-6.8582-2.4105-9.8848-6.5e-4 -6.49e-4 -6.99e-4 -7.12e-4 -0.0014-0.0014-0.01188-0.01187-0.02215-0.02217-0.0341-0.03412-2.4091-2.4168-4.7525-3.1893-6.7905-3.1639z" fill="url(#linearGradient34353)"/>
 </g>
 <rect x="29" y="41.771" width="35" height="15.229" ry="7.6143" fill="url(#linearGradient34716)" fill-rule="evenodd" style="paint-order:stroke fill markers"/>
</svg>
