<?xml version="1.0" encoding="UTF-8"?>
<svg width="64" height="64" enable-background="new" version="1.1" viewBox="0 0 16.933 16.933" xmlns="http://www.w3.org/2000/svg" xmlns:cc="http://creativecommons.org/ns#" xmlns:dc="http://purl.org/dc/elements/1.1/" xmlns:rdf="http://www.w3.org/1999/02/22-rdf-syntax-ns#" xmlns:xlink="http://www.w3.org/1999/xlink">
 <defs>
  <linearGradient id="linearGradient4938" x1="8.4667" x2="8.4667" y1="2.5999" y2="14.288" gradientUnits="userSpaceOnUse">
   <stop stop-color="#03bdfe" offset="0"/>
   <stop stop-color="#675afe" offset="1"/>
  </linearGradient>
  <linearGradient id="linearGradient836" x1="8.4667" x2="8.4667" y1="2.5999" y2="14.288" gradientTransform="matrix(3.7796 0 0 3.7796 -69.251 0)" gradientUnits="userSpaceOnUse" xlink:href="#linearGradient4938"/>
  <linearGradient id="linearGradient1055" x1="8.4667" x2="8.4667" y1="2.5999" y2="14.288" gradientTransform="matrix(3.7796 0 0 3.7796 -69.749 0)" gradientUnits="userSpaceOnUse" xlink:href="#linearGradient4938"/>
  <linearGradient id="linearGradient856" x1="8.4667" x2="8.4667" y1="2.5999" y2="14.288" gradientTransform="translate(-17.224)" gradientUnits="userSpaceOnUse" xlink:href="#linearGradient4938"/>
 </defs>
 <metadata>
  <rdf:RDF>
   <cc:Work rdf:about="">
    <dc:format>image/svg+xml</dc:format>
    <dc:type rdf:resource="http://purl.org/dc/dcmitype/StillImage"/>
   </cc:Work>
  </rdf:RDF>
 </metadata>
 <path d="m-8.7569 0.52916c-2.5287 0-4.5646 2.0359-4.5646 4.5646v6.7455c0 2.5287 2.0359 4.5646 4.5646 4.5646 2.1703 0 3.9721-1.5016 4.4406-3.5254h0.0038c9e-3 -0.03901 0.01904-0.07745 0.02708-0.11683 0.0036-0.0177 0.0061-0.03586 0.0095-0.05366 0.01099-0.05707 0.0221-0.11422 0.03087-0.17193 0.0115-0.07571 0.02121-0.15201 0.02897-0.22892 0.0077-0.07691 0.01365-0.15423 0.01757-0.23224 4e-3 -0.07801 0.0057-0.15655 0.0057-0.23557v-2.0755c-0.1389-1.1691-0.98626-2.1147-2.104-2.3965-0.22258-0.056114-0.45576-0.085963-0.69625-0.085963-0.24767 0-0.48716 0.03271-0.71573 0.092137-0.00689 0.00179-0.014021 0.0029-0.020895 0.00475-1.1354 0.30431-1.9836 1.2957-2.0759 2.5053v1.9463c0 0.0363 0.00164 0.072 0.00522 0.10734s0.00919 0.0703 0.016149 0.10449c0.00698 0.03419 0.01547 0.06781 0.025644 0.10069 0.010177 0.03288 0.021922 0.06503 0.035147 0.09641 0.013224 0.03139 0.028076 0.06194 0.044169 0.09166s0.033448 0.05855 0.052242 0.08644c0.018794 0.02788 0.038994 0.05486 0.060318 0.08074 0.021321 0.02588 0.043755 0.05087 0.06744 0.07456 0.023674 0.02369 0.048227 0.0461 0.07409 0.06744 0.025864 0.02134 0.052862 0.0415 0.080739 0.06032 0.027876 0.01881 0.056723 0.03614 0.086439 0.05224 0.029713 0.01611 0.060293 0.03094 0.091662 0.04417 0.031378 0.01323 0.063545 0.02496 0.096413 0.03514 0.032864 0.01018 0.066503 0.01867 0.10069 0.02565 0.034179 7e-3 0.069159 0.01258 0.10449 0.01615 0.035327 0.0036 0.071027 0.0052 0.10733 0.0052 0.036305 0 0.071999-0.0017 0.10734-0.0052 0.035336-0.0036 0.07029-0.0092 0.10449-0.01615 0.03419-7e-3 0.067807-0.01545 0.10069-0.02565 0.032876-0.01018 0.065025-0.02191 0.096411-0.03514 0.031388-0.01323 0.061939-0.02806 0.091664-0.04417 0.029722-0.01611 0.058552-0.03344 0.086439-0.05224 0.027884-0.01881 0.054856-0.03898 0.080739-0.06032 0.02587-0.02134 0.050871-0.04375 0.074564-0.06744 0.023694-0.02369 0.0461-0.04868 0.06744-0.07456 0.02134-0.02587 0.041503-0.05286 0.060318-0.08074 0.018813-0.02788 0.03614-0.05672 0.052242-0.08644 0.016112-0.02972 0.030936-0.06027 0.044169-0.09166 0.013236-0.03139 0.024964-0.06354 0.035144-0.09641 0.010184-0.03288 0.018689-0.06649 0.025647-0.10069 0.00699-0.03419 0.012581-0.06915 0.016149-0.10449 0.00358-0.03533 0.00522-0.07104 0.00522-0.10734v-1.1474h-0.6953a0.1752 0.1752 0 0 1-0.0019 0 0.1752 0.1752 0 0 1-0.17525-0.17525 0.1752 0.1752 0 0 1 0.029921-0.09784l4.742e-4 -9.19e-4a0.1752 0.1752 0 0 1 0.025647-0.02993l0.79552-0.93895 0.020895-0.024696 0.51341-0.60602 9.19e-4 -9.467e-4a0.22835 0.22835 0 0 1 0.01757-0.020897l0.0029-0.00333a0.22835 0.22835 0 0 0 4.74e-4 0 0.22835 0.22835 0 0 1 0.161-0.06649 0.22835 0.22835 0 0 1 0.161 0.06649 0.22835 0.22835 0 0 1 0.0024 0.00237 0.22835 0.22835 0 0 1 0.019 0.022321 0.22835 0.22835 0 0 1 0.0038 0.00475l4.74e-4 9.466e-4 0.52908 0.62264 4.76e-4 4.749e-4 0.80834 0.95082a0.1752 0.1752 0 0 1 9e-3 0.01045l9.2e-4 0.0014 4.73e-4 4.75e-4a0.1752 0.1752 0 0 1 0.03609 0.10686 0.1752 0.1752 0 0 1-0.17525 0.17525h-0.68011v1.1451c0 0.0426-0.0012 0.08476-0.0033 0.12681-0.0021 0.04206-0.0053 0.08392-0.0095 0.12538s-9e-3 0.08267-0.0152 0.12348c-0.0062 0.04082-0.01368 0.08147-0.02185 0.12158-0.0082 0.04012-0.01746 0.07984-0.02754 0.11921s-0.02083 0.07826-0.03277 0.11683c-0.01195 0.03857-0.02471 0.07673-0.03847 0.11446-4e-3 0.01106-0.0086 0.02182-0.01282 0.03277h-0.0024c-0.35303 0.92508-1.2443 1.5801-2.2963 1.5801-1.3631 0-2.4606-1.0975-2.4606-2.4606v-6.7668c0-1.3631 1.0975-2.4606 2.4606-2.4606 1.3631 0 2.4602 1.0975 2.4602 2.4606v0.50106a1.052 1.052 0 0 0 1.052 1.052 1.052 1.052 0 0 0 1.052-1.052v-0.46781c0-2.5287-2.0354-4.5646-4.5641-4.5646zm-4.766e-4 3.3222a1.052 1.052 0 0 0-1.052 1.052 1.052 1.052 0 0 0 1.052 1.052 1.052 1.052 0 0 0 1.052-1.052 1.052 1.052 0 0 0-1.052-1.052z" fill="url(#linearGradient856)" fill-rule="evenodd" stroke-linecap="round" stroke-linejoin="round" stroke-width=".24317" style="paint-order:stroke fill markers"/>
 <g transform="translate(18.388)">
  <path transform="scale(.26458)" d="m-37.252 14.557a3.9761 3.9761 0 0 0-3.9766 3.9766 3.9761 3.9761 0 0 0 3.9766 3.9766 3.9761 3.9761 0 0 0 3.9766-3.9766 3.9761 3.9761 0 0 0-3.9766-3.9766z" fill="url(#linearGradient836)" style="paint-order:stroke fill markers"/>
  <path transform="scale(.26458)" d="m-47 2c-4.432 0-8 3.568-8 8v34.748c0 9.5575 8.1437 17.252 17.701 17.252 8.2029 0 15.061-5.6751 16.832-13.324h0.01367c0.03402-0.14744 0.07313-0.29258 0.10352-0.44141 0.01361-0.0669 0.0223-0.13585 0.03516-0.20312 0.04154-0.2157 0.08404-0.43227 0.11719-0.65039 0.04347-0.28615 0.08005-0.57454 0.10938-0.86523 0.0291-0.29069 0.05159-0.58211 0.06641-0.87695 0.015113-0.29485 0.021479-0.59196 0.021479-0.89062v-7.8457c-0.52499-4.4187-3.7285-7.9915-7.9531-9.0566-0.84126-0.21209-1.7219-0.32422-2.6309-0.32422-0.93609 0-1.8412 0.12305-2.7051 0.34766-0.02604 0.0068-0.05214 0.01059-0.07813 0.01758-4.2914 1.1502-7.4988 4.8969-7.8477 9.4688v7.3574c0 0.1372 0.0059 0.27073 0.01953 0.4043 0.01361 0.13357 0.03627 0.26726 0.0625 0.39648 0.02646 0.12922 0.05726 0.25463 0.0957 0.37891 0.03848 0.12427 0.08281 0.24663 0.13281 0.36523 0.04997 0.11864 0.10716 0.23337 0.16797 0.3457 0.06081 0.11233 0.12625 0.22271 0.19727 0.32812 0.07102 0.10538 0.1479 0.20687 0.22852 0.30469 0.08058 0.09782 0.16437 0.19171 0.25391 0.28125 0.08946 0.08954 0.18351 0.1752 0.28125 0.25586 0.09774 0.08066 0.19931 0.15543 0.30469 0.22656 0.10538 0.07109 0.21384 0.13641 0.32617 0.19727 0.11229 0.06089 0.22718 0.11796 0.3457 0.16797 0.1186 0.05 0.24104 0.09434 0.36523 0.13281 0.1242 0.03848 0.25165 0.07127 0.38086 0.09766 0.12919 0.02646 0.26098 0.04705 0.39453 0.06055 0.13353 0.01361 0.26903 0.01953 0.40625 0.01953 0.13722 0 0.27072-0.0063 0.4043-0.01953 0.13356-0.01361 0.26722-0.03439 0.39648-0.06055 0.12922-0.02646 0.25657-0.0591 0.38086-0.09766 0.12426-0.03848 0.24465-0.08281 0.36328-0.13281 0.11863-0.05 0.23335-0.10708 0.3457-0.16797 0.11234-0.06089 0.22272-0.12621 0.32812-0.19727 0.10539-0.07109 0.20686-0.14591 0.30469-0.22656 0.09778-0.08066 0.1917-0.16628 0.28125-0.25586 0.08955-0.08954 0.1752-0.18343 0.25586-0.28125 0.08066-0.09778 0.1574-0.19931 0.22852-0.30469 0.07111-0.10538 0.13641-0.21583 0.19727-0.32812 0.0609-0.11233 0.116-0.22706 0.16602-0.3457 0.05003-0.11864 0.09434-0.241 0.13281-0.36523 0.03849-0.12427 0.07136-0.24964 0.09766-0.37891 0.02642-0.12922 0.04706-0.26291 0.06055-0.39648 0.01353-0.13353 0.01953-0.2671 0.01953-0.4043v-4.3379h-2.627c-0.0026 1.5e-5 -0.0052 1.5e-5 -0.0078 0-0.36566-4.2e-5 -0.66207-0.29647-0.66211-0.66211 2.48e-4 -0.13157 0.03968-0.26006 0.11328-0.36914l2e-3 -0.0039c0.02755-0.04124 0.05966-0.07923 0.0957-0.11328l3.0078-3.5488 0.07813-0.09375 1.9414-2.291 2e-3 -2e-3c0.02052-0.02801 0.04268-0.05474 0.06641-0.08008l0.01172-0.01172h2e-3c0.16177-0.16133 0.38091-0.25193 0.60938-0.25195 0.22779 5.35e-4 0.44613 0.0911 0.60742 0.25195 0.0033 0.0026 0.0065 0.0052 0.0098 0.0078 0.02525 0.0271 0.04874 0.05581 0.07031 0.08594 0.0053 0.0058 0.01048 0.01164 0.01563 0.01758l2e-3 0.0039 2 2.3516 2e-3 2e-3 3.0547 3.5938c0.0116 0.01323 0.0227 0.02684 0.0332 0.04102l0.0059 0.0059c0.08894 0.116 0.13701 0.25815 0.13672 0.4043-4.2e-5 0.36564-0.29645 0.66207-0.66211 0.66211h-2.5723v4.3281c0 0.16101-0.0038 0.31956-0.01172 0.47852-0.0079 0.15897-0.01928 0.3179-0.03516 0.47461-0.01587 0.1567-0.03515 0.31254-0.05859 0.4668-0.02343 0.15428-0.05115 0.3074-0.08203 0.45898-0.03099 0.15164-0.06542 0.30237-0.10352 0.45117-0.0381 0.1488-0.07987 0.29564-0.125 0.44141-0.04517 0.14578-0.09252 0.29099-0.14453 0.43359-0.01512 0.0418-0.03288 0.08166-0.04883 0.12305h-0.0098c-1.3343 3.4964-4.7016 5.9727-8.6777 5.9727-5.152 0-9.75-4.1488-9.75-9.3008v-28.703c0-3.324 2.676-6 6-6h7c6.4781 0 4.8998 8.8887 9.9551 9.043 2.2332 7.76e-4 4.0443-1.8095 4.0446-4.043v-5c0-4.432-3.568-8-8-8z" fill="url(#linearGradient1055)" style="paint-order:stroke fill markers"/>
 </g>
</svg>
