<?xml version="1.0" encoding="UTF-8"?>
<svg width="64" height="64" version="1.1" viewBox="0 0 16.933 16.933" xmlns="http://www.w3.org/2000/svg" xmlns:cc="http://creativecommons.org/ns#" xmlns:dc="http://purl.org/dc/elements/1.1/" xmlns:rdf="http://www.w3.org/1999/02/22-rdf-syntax-ns#" xmlns:xlink="http://www.w3.org/1999/xlink">
 <defs>
  <linearGradient id="linearGradient4962" x1="24.266" x2="32.738" y1="8.7087" y2="4.6886" gradientUnits="userSpaceOnUse" xlink:href="#linearGradient4960"/>
  <linearGradient id="linearGradient4960">
   <stop stop-color="#1b94ea" offset="0"/>
   <stop stop-color="#860ff1" offset=".4524"/>
   <stop stop-color="#3adcd2" offset="1"/>
  </linearGradient>
 </defs>
 <metadata>
  <rdf:RDF>
   <cc:Work rdf:about="">
    <dc:format>image/svg+xml</dc:format>
    <dc:type rdf:resource="http://purl.org/dc/dcmitype/StillImage"/>
   </cc:Work>
  </rdf:RDF>
 </metadata>
 <g transform="matrix(1.4762 0 0 1.4762 -33.539 -1.2805)" fill="url(#linearGradient4962)">
  <path d="m23.536 6.6867s-0.27958 0.0614-0.27784-0.10413c0.0017-0.16553 0.03144-0.67728 0.49192-0.82615s2.1179-1.0981 2.5897-1.488c0.47177-0.38994 1.0508 0.049402 1.0195 0.17809-0.03133 0.12869-2.4633 1.8749-3.8232 2.2402z"/>
  <path d="m23.641 7.2956s2.4447-0.74756 4.3898-2.4489c1.9451-1.7013 3.0415-2.2084 3.5847-2.038 0.54315 0.1704 0.47741 0.53463 0.47741 0.53463s-1.1024-0.014377-3.4749 2.0267c-2.3725 2.041-4.7165 2.6263-4.7165 2.6263z"/>
  <path d="m24.266 8.7087s1.9353-0.60785 3.9281-2.2153c1.9928-1.6075 3.0862-2.4347 4.2058-2.5604l0.33852 0.75567s-1.6232 0.22444-3.3291 1.8119c-1.9305 1.7965-4.9297 2.8665-4.9297 2.8665z"/>
  <path d="m25.047 10.234s-0.20521-0.1423-0.18591-0.24122c0.0193-0.098921 1.3842-0.2511 3.1448-1.5526 1.7607-1.3015 3.3518-3.0142 4.9953-3.1324l0.37211 0.77725s-1.5937 0.21214-2.7799 1.3177c-1.1862 1.1056-3.9493 2.9477-4.6572 3.014-0.70791 0.06633-0.88918-0.18276-0.88918-0.18276z"/>
  <path d="m29.852 9.0814s-0.12666-0.15472 0.09365-0.28383c0.22031-0.1291 0.8088-0.7134 1.4459-1.156 0.27266-0.18943 1.5671-0.99783 2.1659-0.94951 0 0 0.3668 0.6173-0.33846 0.82723-0.70527 0.20993-1.0338 0.36565-1.4373 0.79615-0.40358 0.4305-1.1235 0.93906-1.5064 0.92314-0.38293-0.015916-0.4233-0.15716-0.4233-0.15716z"/>
 </g>
</svg>
